<?xml version="1.0" encoding="UTF-8" standalone="no"?>
<svg
   xmlns:sketch="http://www.bohemiancoding.com/sketch/ns"
   xmlns:dc="http://purl.org/dc/elements/1.1/"
   xmlns:cc="http://creativecommons.org/ns#"
   xmlns:rdf="http://www.w3.org/1999/02/22-rdf-syntax-ns#"
   xmlns:svg="http://www.w3.org/2000/svg"
   xmlns="http://www.w3.org/2000/svg"
   xmlns:sodipodi="http://sodipodi.sourceforge.net/DTD/sodipodi-0.dtd"
   xmlns:inkscape="http://www.inkscape.org/namespaces/inkscape"
   width="28.374868mm"
   height="29.79104mm"
   viewBox="0 -216 28.374868 29.79104"
   version="1.1"
   id="svg2"
   inkscape:version="0.91 r13725"
   sodipodi:docname="gauntface-logo.svg">
  <metadata
     id="metadata14">
    <rdf:RDF>
      <cc:Work
         rdf:about="">
        <dc:format>image/svg+xml</dc:format>
        <dc:type
           rdf:resource="http://purl.org/dc/dcmitype/StillImage" />
      </cc:Work>
    </rdf:RDF>
  </metadata>
  <defs
     id="defs10" />
  <sodipodi:namedview
     pagecolor="#ffffff"
     bordercolor="#666666"
     borderopacity="1"
     objecttolerance="10"
     gridtolerance="10"
     guidetolerance="10"
     inkscape:pageopacity="0"
     inkscape:pageshadow="2"
     inkscape:window-width="1525"
     inkscape:window-height="904"
     id="namedview8"
     showgrid="false"
     inkscape:zoom="19.73465"
     inkscape:cx="52.438925"
     inkscape:cy="15.423705"
     inkscape:window-x="79"
     inkscape:window-y="27"
     inkscape:window-maximized="0"
     inkscape:current-layer="svg2"
     fit-margin-top="2"
     fit-margin-left="2"
     fit-margin-bottom="2"
     fit-margin-right="2" />
  <path
     style="fill:none;fill-opacity:1;fill-rule:evenodd;stroke:#ff00ff;stroke-width:0.28222224;stroke-miterlimit:4;stroke-dasharray:none;stroke-opacity:1"
     d="m 6.1464926,-211.11195 c -0.541798,0 -1.083596,0 -1.625394,0 0,0.22222 0,0.44445 0,0.66667 0.2962957,0 0.5925913,0 0.888887,0 0,0.28995 0,0.57989 0,0.86984 -0.6328773,0.32349 -1.470339,0.17421 -1.9338158,-0.36976 -0.4517819,-0.49766 -0.5522553,-1.28385 -0.2078274,-1.86708 0.2998911,-0.55388 0.9401936,-0.897 1.5686107,-0.82334 0.3148161,0.0296 0.6219811,0.15169 0.8651575,0.35489 0,-0.28995 0,-0.57989 0,-0.86984 -0.9178808,-0.45542 -2.1212779,-0.21677 -2.7882009,0.56408 -0.6462605,0.71705 -0.7822351,1.84391 -0.3040435,2.68638 0.335079,0.60127 0.9382586,1.07882 1.6268497,1.18214 0.6631289,0.0608 1.3691555,-0.0532 1.9098707,-0.46451 -6.31e-5,-0.64313 1.251e-4,-1.28647 -9.4e-5,-1.92947 z"
     id="G"
     inkscape:connector-curvature="0" />
  <path
     style="fill:none;fill-opacity:1;fill-rule:evenodd;stroke:#ff00ff;stroke-width:0.28222224;stroke-miterlimit:4;stroke-dasharray:none;stroke-opacity:1"
     inkscape:connector-curvature="0"
     d="m 15.659173,-208.70533 0.806348,0 -2.044441,-4.92697 -2.050789,4.92697 0.812696,0 0.4,-1.00952 1.676187,0 0.399999,1.00952 z m -1.80952,-1.66984 0.571427,-1.43491 0.571428,1.43491 -1.142855,0 z"
     id="A"
     sketch:type="MSShapeGroup" />
  <path
     style="fill:none;fill-opacity:1;fill-rule:evenodd;stroke:#ff00ff;stroke-width:0.28222224;stroke-miterlimit:4;stroke-dasharray:none;stroke-opacity:1"
     d="m 24.487728,-208.70533 c 0.64611,0.0103 1.331531,-0.31371 1.605823,-0.92331 0.195081,-0.41731 0.127792,-0.88268 0.140205,-1.32765 0,-0.82005 0,-1.64009 0,-2.46014 -0.247618,0 -0.495237,0 -0.742855,0 -0.0017,1.06265 0.0033,2.12544 -0.0025,3.18799 -0.0033,0.33316 -0.250475,0.61948 -0.563303,0.71278 -0.439722,0.1505 -1.009355,0.0818 -1.30696,-0.30557 -0.19805,-0.27838 -0.125981,-0.62851 -0.139921,-0.94729 0,-0.88263 0,-1.76527 0,-2.64791 -0.245502,0 -0.491004,0 -0.736506,0 0.0016,1.06926 -0.0031,2.13862 0.0024,3.20781 0.01143,0.55422 0.357699,1.07513 0.860436,1.30608 0.273385,0.13452 0.57932,0.19727 0.883199,0.19721 z"
     id="U"
     inkscape:connector-curvature="0" />
  <path
     style="fill:none;fill-opacity:1;fill-rule:evenodd;stroke:#ff00ff;stroke-width:0.28222224;stroke-miterlimit:4;stroke-dasharray:none;stroke-opacity:1"
     inkscape:connector-curvature="0"
     d="m 6.0512546,-198.33075 0,-4.92697 -0.742856,0 0,3.02222 -2.958725,-3.24444 0,4.93332 0.736507,0 0,-3.02856 2.965074,3.24443 z"
     id="N"
     sketch:type="MSShapeGroup" />
  <path
     style="fill:none;fill-opacity:1;fill-rule:evenodd;stroke:#ff00ff;stroke-width:0.28222224;stroke-miterlimit:4;stroke-dasharray:none;stroke-opacity:1"
     inkscape:connector-curvature="0"
     d="m 15.933776,-203.25772 -3.333327,0 0,0.66032 1.295235,0 0,4.05078 0.742856,0 0,-4.05078 1.295236,0 0,-0.66032 z"
     id="T"
     sketch:type="MSShapeGroup" />
  <path
     style="fill:none;fill-opacity:1;fill-rule:evenodd;stroke:#ff00ff;stroke-width:0.28222224;stroke-miterlimit:4;stroke-dasharray:none;stroke-opacity:1"
     inkscape:connector-curvature="0"
     d="m 23.84011,-202.5974 2.095234,0 0,-0.66032 -2.83174,0 0,4.7111 0.736506,0 0,-2.12698 1.720632,0 0,-0.66666 -1.720632,0 z"
     id="F"
     sketch:type="MSShapeGroup"
     sodipodi:nodetypes="ccccccccccc" />
  <path
     style="fill:none;fill-opacity:1;fill-rule:evenodd;stroke:#ff00ff;stroke-width:0.28222224;stroke-miterlimit:4;stroke-dasharray:none;stroke-opacity:1"
     inkscape:connector-curvature="0"
     d="m 5.5004616,-188.38791 0.806348,0 -2.044441,-4.92697 -2.05079,4.92697 0.812697,0 0.4,-1.00952 1.676187,0 0.399999,1.00952 z m -1.80952,-1.66984 0.571427,-1.43491 0.571428,1.43491 -1.142855,0 z"
     id="path4405"
     sketch:type="MSShapeGroup" />
  <path
     style="fill:none;fill-opacity:1;fill-rule:evenodd;stroke:#ff00ff;stroke-width:0.28222224;stroke-miterlimit:4;stroke-dasharray:none;stroke-opacity:1"
     d="m 16.206791,-189.74056 c -0.408316,0.46813 -1.075261,0.77419 -1.69658,0.60491 -0.74208,-0.17597 -1.291647,-0.92902 -1.21956,-1.69068 0.04565,-0.78789 0.741612,-1.47658 1.533919,-1.49642 0.395226,-0.021 0.797886,0.10623 1.102857,0.35997 0,-0.28995 0,-0.57989 0,-0.86984 -0.890306,-0.37259 -2.007168,-0.19658 -2.706373,0.47932 -0.533625,0.57157 -0.806507,1.41023 -0.600537,2.17809 0.142982,0.61789 0.536742,1.17901 1.094753,1.48917 0.582643,0.3509 1.320183,0.43881 1.960639,0.19715 0.165069,-0.0951 0.476162,-0.12609 0.530882,-0.31182 0,-0.31328 0,-0.62657 0,-0.93985 z"
     id="C"
     inkscape:connector-curvature="0" />
  <path
     style="fill:none;fill-opacity:1;fill-rule:evenodd;stroke:#ff00ff;stroke-width:0.28222224;stroke-miterlimit:4;stroke-dasharray:none;stroke-opacity:1"
     inkscape:connector-curvature="0"
     d="m 23.84011,-192.43869 2.088885,0 0,-0.66032 -2.825391,0 0,4.7111 2.825391,0 0,-0.66666 -2.088885,0 0,-1.46032 1.720632,0 0,-0.66666 -1.720632,0 z"
     id="E"
     sketch:type="MSShapeGroup"
     sodipodi:nodetypes="ccccccccccccc" />
</svg>
