  0
SECTION
  2
HEADER
  9
$ACADVER
  1
AC1014
  9
$HANDSEED
  5
FFFF
  9
$MEASUREMENT
 70
     1
  0
ENDSEC
  0
SECTION
  2
TABLES
  0
TABLE
  2
VPORT
  5
8
330
0
100
AcDbSymbolTable
 70
     4
  0
VPORT
  5
2E
330
8
100
AcDbSymbolTableRecord
100
AcDbViewportTableRecord
  2
*ACTIVE
 70
     0
 10
0.0
 20
0.0
 11
1.0
 21
1.0
 12
210.0
 22
148.5
 13
0.0
 23
0.0
 14
10.0
 24
10.0
 15
10.0
 25
10.0
 16
0.0
 26
0.0
 36
1.0
 17
0.0
 27
0.0
 37
0.0
 40
341.0
 41
1.24
 42
50.0
 43
0.0
 44
0.0
 50
0.0
 51
0.0
 71
     0
 72
   100
 73
     1
 74
     3
 75
     0
 76
     0
 77
     0
 78
     0
  0
ENDTAB
  0
TABLE
  2
LTYPE
  5
5
330
0
100
AcDbSymbolTable
 70
     1
  0
LTYPE
  5
14
330
5
100
AcDbSymbolTableRecord
100
AcDbLinetypeTableRecord
  2
BYBLOCK
 70
     0
  3

 72
    65
 73
     0
 40
0.0
  0
LTYPE
  5
15
330
5
100
AcDbSymbolTableRecord
100
AcDbLinetypeTableRecord
  2
BYLAYER
 70
     0
  3

 72
    65
 73
     0
 40
0.0
  0
LTYPE
  5
16
330
5
100
AcDbSymbolTableRecord
100
AcDbLinetypeTableRecord
  2
CONTINUOUS
 70
     0
  3
Solid line
 72
    65
 73
     0
 40
0.0
  0
ENDTAB
  0
TABLE
  2
LAYER
  5
2
100
AcDbSymbolTable
 70
1
  0
LAYER
  5
50
100
AcDbSymbolTableRecord
100
AcDbLayerTableRecord
  2
0
 70
0
  6
CONTINUOUS
  0
ENDTAB
  0
TABLE
  2
STYLE
  5
3
330
0
100
AcDbSymbolTable
 70
     1
  0
STYLE
  5
11
330
3
100
AcDbSymbolTableRecord
100
AcDbTextStyleTableRecord
  2
STANDARD
 70
     0
 40
0.0
 41
1.0
 50
0.0
 71
     0
 42
2.5
  3
txt
  4

  0
ENDTAB
  0
TABLE
  2
VIEW
  5
6
330
0
100
AcDbSymbolTable
 70
     0
  0
ENDTAB
  0
TABLE
  2
UCS
  5
7
330
0
100
AcDbSymbolTable
 70
     0
  0
ENDTAB
  0
TABLE
  2
APPID
  5
9
330
0
100
AcDbSymbolTable
 70
     2
  0
APPID
  5
12
330
9
100
AcDbSymbolTableRecord
100
AcDbRegAppTableRecord
  2
ACAD
 70
     0
  0
ENDTAB
  0
TABLE
  2
DIMSTYLE
  5
A
330
0
100
AcDbSymbolTable
 70
     1
  0
DIMSTYLE
105
27
330
A
100
AcDbSymbolTableRecord
100
AcDbDimStyleTableRecord
  2
ISO-25
 70
     0
  3

  4

  5

  6

  7

 40
1.0
 41
2.5
 42
0.625
 43
3.75
 44
1.25
 45
0.0
 46
0.0
 47
0.0
 48
0.0
140
2.5
141
2.5
142
0.0
143
0.03937007874016
144
1.0
145
0.0
146
1.0
147
0.625
 71
     0
 72
     0
 73
     0
 74
     0
 75
     0
 76
     0
 77
     1
 78
     8
170
     0
171
     3
172
     1
173
     0
174
     0
175
     0
176
     0
177
     0
178
     0
270
     2
271
     2
272
     2
273
     2
274
     3
340
11
275
     0
280
     0
281
     0
282
     0
283
     0
284
     8
285
     0
286
     0
287
     3
288
     0
  0
ENDTAB
  0
TABLE
  2
BLOCK_RECORD
  5
1
330
0
100
AcDbSymbolTable
 70
     1
  0
BLOCK_RECORD
  5
1F
330
1
100
AcDbSymbolTableRecord
100
AcDbBlockTableRecord
  2
*MODEL_SPACE
  0
BLOCK_RECORD
  5
1B
330
1
100
AcDbSymbolTableRecord
100
AcDbBlockTableRecord
  2
*PAPER_SPACE
  0
ENDTAB
  0
ENDSEC
  0
SECTION
  2
BLOCKS
  0
BLOCK
  5
20
330
1F
100
AcDbEntity
  8
0
100
AcDbBlockBegin
  2
*MODEL_SPACE
 70
     0
 10
0.0
 20
0.0
 30
0.0
  3
*MODEL_SPACE
  1

  0
ENDBLK
  5
21
330
1F
100
AcDbEntity
  8
0
100
AcDbBlockEnd
  0
BLOCK
  5
1C
330
1B
100
AcDbEntity
 67
     1
  8
0
100
AcDbBlockBegin
  2
*PAPER_SPACE
  1

  0
ENDBLK
  5
1D
330
1B
100
AcDbEntity
 67
     1
  8
0
100
AcDbBlockEnd
  0
ENDSEC
  0
SECTION
  2
ENTITIES
  0
LWPOLYLINE
  5
100
100
AcDbEntity
  8
0
 62
7
100
AcDbPolyline
 90
45
 70
1
 10
43.200000
 20
317.800000
 30
0.0
 10
45.600000
 20
317.800000
 30
0.0
 10
45.600000
 20
321.800000
 30
0.0
 10
43.200000
 20
321.800000
 30
0.0
 10
43.200000
 20
327.040000
 30
0.0
 10
41.200000
 20
327.040000
 30
0.0
 10
41.200000
 20
326.200000
 30
0.0
 10
39.200000
 20
326.200000
 30
0.0
 10
39.200000
 20
327.040000
 30
0.0
 10
37.600000
 20
327.040000
 30
0.0
 10
37.600000
 20
329.760000
 30
0.0
 10
39.200000
 20
329.760000
 30
0.0
 10
39.200000
 20
330.600000
 30
0.0
 10
41.200000
 20
330.600000
 30
0.0
 10
41.200000
 20
329.760000
 30
0.0
 10
43.200000
 20
329.760000
 30
0.0
 10
43.200000
 20
335.000000
 30
0.0
 10
45.600000
 20
335.000000
 30
0.0
 10
45.600000
 20
339.000000
 30
0.0
 10
43.200000
 20
339.000000
 30
0.0
 10
43.200000
 20
345.600000
 30
0.0
 10
27.200000
 20
345.600000
 30
0.0
 10
27.200000
 20
339.000000
 30
0.0
 10
24.800000
 20
339.000000
 30
0.0
 10
24.800000
 20
335.000000
 30
0.0
 10
27.200000
 20
335.000000
 30
0.0
 10
27.200000
 20
329.760000
 30
0.0
 10
29.200000
 20
329.760000
 30
0.0
 10
29.200000
 20
330.600000
 30
0.0
 10
31.200000
 20
330.600000
 30
0.0
 10
31.200000
 20
329.760000
 30
0.0
 10
32.800000
 20
329.760000
 30
0.0
 10
32.800000
 20
327.040000
 30
0.0
 10
31.200000
 20
327.040000
 30
0.0
 10
31.200000
 20
326.200000
 30
0.0
 10
29.200000
 20
326.200000
 30
0.0
 10
29.200000
 20
327.040000
 30
0.0
 10
27.200000
 20
327.040000
 30
0.0
 10
27.200000
 20
321.800000
 30
0.0
 10
24.800000
 20
321.800000
 30
0.0
 10
24.800000
 20
317.800000
 30
0.0
 10
27.200000
 20
317.800000
 30
0.0
 10
27.200000
 20
311.200000
 30
0.0
 10
43.200000
 20
311.200000
 30
0.0
 10
43.200000
 20
317.800000
 30
0.0
  0
LWPOLYLINE
  5
101
100
AcDbEntity
  8
0
 62
7
100
AcDbPolyline
 90
45
 70
1
 10
18.400000
 20
317.800000
 30
0.0
 10
20.800000
 20
317.800000
 30
0.0
 10
20.800000
 20
321.800000
 30
0.0
 10
18.400000
 20
321.800000
 30
0.0
 10
18.400000
 20
327.040000
 30
0.0
 10
16.400000
 20
327.040000
 30
0.0
 10
16.400000
 20
326.200000
 30
0.0
 10
14.400000
 20
326.200000
 30
0.0
 10
14.400000
 20
327.040000
 30
0.0
 10
12.800000
 20
327.040000
 30
0.0
 10
12.800000
 20
329.760000
 30
0.0
 10
14.400000
 20
329.760000
 30
0.0
 10
14.400000
 20
330.600000
 30
0.0
 10
16.400000
 20
330.600000
 30
0.0
 10
16.400000
 20
329.760000
 30
0.0
 10
18.400000
 20
329.760000
 30
0.0
 10
18.400000
 20
335.000000
 30
0.0
 10
20.800000
 20
335.000000
 30
0.0
 10
20.800000
 20
339.000000
 30
0.0
 10
18.400000
 20
339.000000
 30
0.0
 10
18.400000
 20
345.600000
 30
0.0
 10
2.400000
 20
345.600000
 30
0.0
 10
2.400000
 20
339.000000
 30
0.0
 10
0.000000
 20
339.000000
 30
0.0
 10
0.000000
 20
335.000000
 30
0.0
 10
2.400000
 20
335.000000
 30
0.0
 10
2.400000
 20
329.760000
 30
0.0
 10
4.400000
 20
329.760000
 30
0.0
 10
4.400000
 20
330.600000
 30
0.0
 10
6.400000
 20
330.600000
 30
0.0
 10
6.400000
 20
329.760000
 30
0.0
 10
8.000000
 20
329.760000
 30
0.0
 10
8.000000
 20
327.040000
 30
0.0
 10
6.400000
 20
327.040000
 30
0.0
 10
6.400000
 20
326.200000
 30
0.0
 10
4.400000
 20
326.200000
 30
0.0
 10
4.400000
 20
327.040000
 30
0.0
 10
2.400000
 20
327.040000
 30
0.0
 10
2.400000
 20
321.800000
 30
0.0
 10
0.000000
 20
321.800000
 30
0.0
 10
0.000000
 20
317.800000
 30
0.0
 10
2.400000
 20
317.800000
 30
0.0
 10
2.400000
 20
311.200000
 30
0.0
 10
18.400000
 20
311.200000
 30
0.0
 10
18.400000
 20
317.800000
 30
0.0
  0
LWPOLYLINE
  5
102
100
AcDbEntity
  8
0
 62
7
100
AcDbPolyline
 90
45
 70
1
 10
20.400000
 20
286.400000
 30
0.0
 10
29.040000
 20
286.400000
 30
0.0
 10
29.040000
 20
288.400000
 30
0.0
 10
28.200000
 20
288.400000
 30
0.0
 10
28.200000
 20
290.400000
 30
0.0
 10
29.040000
 20
290.400000
 30
0.0
 10
29.040000
 20
292.000000
 30
0.0
 10
31.760000
 20
292.000000
 30
0.0
 10
31.760000
 20
290.400000
 30
0.0
 10
32.600000
 20
290.400000
 30
0.0
 10
32.600000
 20
288.400000
 30
0.0
 10
31.760000
 20
288.400000
 30
0.0
 10
31.760000
 20
286.400000
 30
0.0
 10
40.400000
 20
286.400000
 30
0.0
 10
40.400000
 20
284.000000
 30
0.0
 10
48.400000
 20
284.000000
 30
0.0
 10
48.400000
 20
286.400000
 30
0.0
 10
58.400000
 20
286.400000
 30
0.0
 10
58.400000
 20
302.400000
 30
0.0
 10
48.400000
 20
302.400000
 30
0.0
 10
48.400000
 20
304.800000
 30
0.0
 10
40.400000
 20
304.800000
 30
0.0
 10
40.400000
 20
302.400000
 30
0.0
 10
31.760000
 20
302.400000
 30
0.0
 10
31.760000
 20
300.400000
 30
0.0
 10
32.600000
 20
300.400000
 30
0.0
 10
32.600000
 20
298.400000
 30
0.0
 10
31.760000
 20
298.400000
 30
0.0
 10
31.760000
 20
296.800000
 30
0.0
 10
29.040000
 20
296.800000
 30
0.0
 10
29.040000
 20
298.400000
 30
0.0
 10
28.200000
 20
298.400000
 30
0.0
 10
28.200000
 20
300.400000
 30
0.0
 10
29.040000
 20
300.400000
 30
0.0
 10
29.040000
 20
302.400000
 30
0.0
 10
20.400000
 20
302.400000
 30
0.0
 10
20.400000
 20
304.800000
 30
0.0
 10
16.400000
 20
304.800000
 30
0.0
 10
16.400000
 20
302.400000
 30
0.0
 10
2.400000
 20
302.400000
 30
0.0
 10
2.400000
 20
286.400000
 30
0.0
 10
12.400000
 20
286.400000
 30
0.0
 10
12.400000
 20
284.000000
 30
0.0
 10
20.400000
 20
284.000000
 30
0.0
 10
20.400000
 20
286.400000
 30
0.0
  0
LWPOLYLINE
  5
103
100
AcDbEntity
  8
0
 62
7
100
AcDbPolyline
 90
45
 70
1
 10
20.400000
 20
261.600000
 30
0.0
 10
29.040000
 20
261.600000
 30
0.0
 10
29.040000
 20
263.600000
 30
0.0
 10
28.200000
 20
263.600000
 30
0.0
 10
28.200000
 20
265.600000
 30
0.0
 10
29.040000
 20
265.600000
 30
0.0
 10
29.040000
 20
267.200000
 30
0.0
 10
31.760000
 20
267.200000
 30
0.0
 10
31.760000
 20
265.600000
 30
0.0
 10
32.600000
 20
265.600000
 30
0.0
 10
32.600000
 20
263.600000
 30
0.0
 10
31.760000
 20
263.600000
 30
0.0
 10
31.760000
 20
261.600000
 30
0.0
 10
40.400000
 20
261.600000
 30
0.0
 10
40.400000
 20
259.200000
 30
0.0
 10
48.400000
 20
259.200000
 30
0.0
 10
48.400000
 20
261.600000
 30
0.0
 10
58.400000
 20
261.600000
 30
0.0
 10
58.400000
 20
277.600000
 30
0.0
 10
48.400000
 20
277.600000
 30
0.0
 10
48.400000
 20
280.000000
 30
0.0
 10
40.400000
 20
280.000000
 30
0.0
 10
40.400000
 20
277.600000
 30
0.0
 10
31.760000
 20
277.600000
 30
0.0
 10
31.760000
 20
275.600000
 30
0.0
 10
32.600000
 20
275.600000
 30
0.0
 10
32.600000
 20
273.600000
 30
0.0
 10
31.760000
 20
273.600000
 30
0.0
 10
31.760000
 20
272.000000
 30
0.0
 10
29.040000
 20
272.000000
 30
0.0
 10
29.040000
 20
273.600000
 30
0.0
 10
28.200000
 20
273.600000
 30
0.0
 10
28.200000
 20
275.600000
 30
0.0
 10
29.040000
 20
275.600000
 30
0.0
 10
29.040000
 20
277.600000
 30
0.0
 10
20.400000
 20
277.600000
 30
0.0
 10
20.400000
 20
280.000000
 30
0.0
 10
12.400000
 20
280.000000
 30
0.0
 10
12.400000
 20
277.600000
 30
0.0
 10
2.400000
 20
277.600000
 30
0.0
 10
2.400000
 20
261.600000
 30
0.0
 10
12.400000
 20
261.600000
 30
0.0
 10
12.400000
 20
259.200000
 30
0.0
 10
20.400000
 20
259.200000
 30
0.0
 10
20.400000
 20
261.600000
 30
0.0
  0
LWPOLYLINE
  5
104
100
AcDbEntity
  8
0
 62
7
100
AcDbPolyline
 90
9
 70
1
 10
60.800000
 20
255.200000
 30
0.0
 10
10.200000
 20
255.200000
 30
0.0
 10
10.200000
 20
242.133360
 30
0.0
 10
8.600000
 20
242.133360
 30
0.0
 10
8.600000
 20
255.200000
 30
0.0
 10
0.000000
 20
255.200000
 30
0.0
 10
0.000000
 20
216.000000
 30
0.0
 10
60.800000
 20
216.000000
 30
0.0
 10
60.800000
 20
255.200000
 30
0.0
  0
LWPOLYLINE
  5
105
100
AcDbEntity
  8
0
 62
1
100
AcDbPolyline
 90
5
 70
1
 10
16.400000
 20
250.400000
 30
0.0
 10
16.400000
 20
252.800000
 30
0.0
 10
20.400000
 20
252.800000
 30
0.0
 10
20.400000
 20
250.400000
 30
0.0
 10
16.400000
 20
250.400000
 30
0.0
  0
LWPOLYLINE
  5
106
100
AcDbEntity
  8
0
 62
1
100
AcDbPolyline
 90
5
 70
1
 10
40.400000
 20
250.400000
 30
0.0
 10
40.400000
 20
252.800000
 30
0.0
 10
48.400000
 20
252.800000
 30
0.0
 10
48.400000
 20
250.400000
 30
0.0
 10
40.400000
 20
250.400000
 30
0.0
  0
LWPOLYLINE
  5
107
100
AcDbEntity
  8
0
 62
1
100
AcDbPolyline
 90
5
 70
1
 10
2.400000
 20
242.200000
 30
0.0
 10
2.400000
 20
246.200000
 30
0.0
 10
4.800000
 20
246.200000
 30
0.0
 10
4.800000
 20
242.200000
 30
0.0
 10
2.400000
 20
242.200000
 30
0.0
  0
LWPOLYLINE
  5
108
100
AcDbEntity
  8
0
 62
1
100
AcDbPolyline
 90
5
 70
1
 10
56.000000
 20
242.200000
 30
0.0
 10
56.000000
 20
246.200000
 30
0.0
 10
58.400000
 20
246.200000
 30
0.0
 10
58.400000
 20
242.200000
 30
0.0
 10
56.000000
 20
242.200000
 30
0.0
  0
LWPOLYLINE
  5
109
100
AcDbEntity
  8
0
 62
1
100
AcDbPolyline
 90
5
 70
1
 10
56.000000
 20
225.000000
 30
0.0
 10
56.000000
 20
229.000000
 30
0.0
 10
58.400000
 20
229.000000
 30
0.0
 10
58.400000
 20
225.000000
 30
0.0
 10
56.000000
 20
225.000000
 30
0.0
  0
LWPOLYLINE
  5
10a
100
AcDbEntity
  8
0
 62
1
100
AcDbPolyline
 90
5
 70
1
 10
2.400000
 20
225.000000
 30
0.0
 10
2.400000
 20
229.000000
 30
0.0
 10
4.800000
 20
229.000000
 30
0.0
 10
4.800000
 20
225.000000
 30
0.0
 10
2.400000
 20
225.000000
 30
0.0
  0
LWPOLYLINE
  5
10b
100
AcDbEntity
  8
0
 62
1
100
AcDbPolyline
 90
5
 70
1
 10
40.400000
 20
218.400000
 30
0.0
 10
40.400000
 20
220.800000
 30
0.0
 10
48.400000
 20
220.800000
 30
0.0
 10
48.400000
 20
218.400000
 30
0.0
 10
40.400000
 20
218.400000
 30
0.0
  0
LWPOLYLINE
  5
10c
100
AcDbEntity
  8
0
 62
1
100
AcDbPolyline
 90
5
 70
1
 10
12.400000
 20
218.400000
 30
0.0
 10
12.400000
 20
220.800000
 30
0.0
 10
20.400000
 20
220.800000
 30
0.0
 10
20.400000
 20
218.400000
 30
0.0
 10
12.400000
 20
218.400000
 30
0.0
  0
LWPOLYLINE
  5
10d
100
AcDbEntity
  8
0
 62
7
100
AcDbPolyline
 90
5
 70
1
 10
60.800000
 20
212.000000
 30
0.0
 10
0.000000
 20
212.000000
 30
0.0
 10
0.000000
 20
172.800000
 30
0.0
 10
60.800000
 20
172.800000
 30
0.0
 10
60.800000
 20
212.000000
 30
0.0
  0
LWPOLYLINE
  5
10e
100
AcDbEntity
  8
0
 62
1
100
AcDbPolyline
 90
5
 70
1
 10
40.400000
 20
207.200000
 30
0.0
 10
40.400000
 20
209.600000
 30
0.0
 10
48.400000
 20
209.600000
 30
0.0
 10
48.400000
 20
207.200000
 30
0.0
 10
40.400000
 20
207.200000
 30
0.0
  0
LWPOLYLINE
  5
10f
100
AcDbEntity
  8
0
 62
1
100
AcDbPolyline
 90
5
 70
1
 10
12.400000
 20
207.200000
 30
0.0
 10
12.400000
 20
209.600000
 30
0.0
 10
20.400000
 20
209.600000
 30
0.0
 10
20.400000
 20
207.200000
 30
0.0
 10
12.400000
 20
207.200000
 30
0.0
  0
LWPOLYLINE
  5
110
100
AcDbEntity
  8
0
 62
1
100
AcDbPolyline
 90
5
 70
1
 10
2.400000
 20
199.000000
 30
0.0
 10
2.400000
 20
203.000000
 30
0.0
 10
4.800000
 20
203.000000
 30
0.0
 10
4.800000
 20
199.000000
 30
0.0
 10
2.400000
 20
199.000000
 30
0.0
  0
LWPOLYLINE
  5
111
100
AcDbEntity
  8
0
 62
1
100
AcDbPolyline
 90
5
 70
1
 10
56.000000
 20
199.000000
 30
0.0
 10
56.000000
 20
203.000000
 30
0.0
 10
58.400000
 20
203.000000
 30
0.0
 10
58.400000
 20
199.000000
 30
0.0
 10
56.000000
 20
199.000000
 30
0.0
  0
LWPOLYLINE
  5
112
100
AcDbEntity
  8
0
 62
1
100
AcDbPolyline
 90
5
 70
1
 10
2.400000
 20
181.800000
 30
0.0
 10
2.400000
 20
185.800000
 30
0.0
 10
4.800000
 20
185.800000
 30
0.0
 10
4.800000
 20
181.800000
 30
0.0
 10
2.400000
 20
181.800000
 30
0.0
  0
LWPOLYLINE
  5
113
100
AcDbEntity
  8
0
 62
1
100
AcDbPolyline
 90
5
 70
1
 10
56.000000
 20
181.800000
 30
0.0
 10
56.000000
 20
185.800000
 30
0.0
 10
58.400000
 20
185.800000
 30
0.0
 10
58.400000
 20
181.800000
 30
0.0
 10
56.000000
 20
181.800000
 30
0.0
  0
LWPOLYLINE
  5
114
100
AcDbEntity
  8
0
 62
1
100
AcDbPolyline
 90
5
 70
1
 10
12.400000
 20
175.200000
 30
0.0
 10
12.400000
 20
177.600000
 30
0.0
 10
20.400000
 20
177.600000
 30
0.0
 10
20.400000
 20
175.200000
 30
0.0
 10
12.400000
 20
175.200000
 30
0.0
  0
LWPOLYLINE
  5
115
100
AcDbEntity
  8
0
 62
1
100
AcDbPolyline
 90
5
 70
1
 10
40.400000
 20
175.200000
 30
0.0
 10
40.400000
 20
177.600000
 30
0.0
 10
48.400000
 20
177.600000
 30
0.0
 10
48.400000
 20
175.200000
 30
0.0
 10
40.400000
 20
175.200000
 30
0.0
  0
SPLINE
  5
116
100
AcDbEntity
  8
0
 62
6
100
AcDbSpline
 70
8
 71
3
 72
8
 73
4
 74
0
 40
0
 40
0
 40
0
 40
0
 40
1
 40
1
 40
1
 40
1
 10
23.378043
 20
199.176762
 30
0.0
 10
23.025762
 20
199.005012
 30
0.0
 10
22.600292
 20
198.990652
 30
0.0
 10
22.241210
 20
199.164570
 30
0.0
  0
SPLINE
  5
117
100
AcDbEntity
  8
0
 62
6
100
AcDbSpline
 70
8
 71
3
 72
8
 73
4
 74
0
 40
0
 40
0
 40
0
 40
0
 40
1
 40
1
 40
1
 40
1
 10
22.241210
 20
199.164570
 30
0.0
 10
21.760138
 20
199.385738
 30
0.0
 10
21.456023
 20
199.921953
 30
0.0
 10
21.503778
 20
200.447531
 30
0.0
  0
SPLINE
  5
118
100
AcDbEntity
  8
0
 62
6
100
AcDbSpline
 70
8
 71
3
 72
8
 73
4
 74
0
 40
0
 40
0
 40
0
 40
0
 40
1
 40
1
 40
1
 40
1
 10
21.503778
 20
200.447531
 30
0.0
 10
21.546434
 20
200.979075
 30
0.0
 10
21.946018
 20
201.462807
 30
0.0
 10
22.467016
 20
201.590075
 30
0.0
  0
SPLINE
  5
119
100
AcDbEntity
  8
0
 62
6
100
AcDbSpline
 70
8
 71
3
 72
8
 73
4
 74
0
 40
0
 40
0
 40
0
 40
0
 40
1
 40
1
 40
1
 40
1
 10
22.467016
 20
201.590075
 30
0.0
 10
22.862044
 20
201.690906
 30
0.0
 10
23.296222
 20
201.603803
 30
0.0
 10
23.611743
 20
201.340965
 30
0.0
  0
LWPOLYLINE
  5
11a
100
AcDbEntity
  8
0
 62
6
100
AcDbPolyline
 90
5
 70
1
 10
23.967249
 20
200.405966
 30
0.0
 10
22.666934
 20
200.405966
 30
0.0
 10
22.666934
 20
199.872634
 30
0.0
 10
23.378043
 20
199.872634
 30
0.0
 10
23.378043
 20
199.176762
 30
0.0
  0
SPLINE
  5
11b
100
AcDbEntity
  8
0
 62
6
100
AcDbSpline
 70
8
 71
3
 72
8
 73
4
 74
0
 40
0
 40
0
 40
0
 40
0
 40
1
 40
1
 40
1
 40
1
 10
23.611743
 20
202.036837
 30
0.0
 10
22.949572
 20
202.362539
 30
0.0
 10
22.094510
 20
202.248045
 30
0.0
 10
21.546167
 20
201.749435
 30
0.0
  0
SPLINE
  5
11c
100
AcDbEntity
  8
0
 62
6
100
AcDbSpline
 70
8
 71
3
 72
8
 73
4
 74
0
 40
0
 40
0
 40
0
 40
0
 40
1
 40
1
 40
1
 40
1
 10
21.546167
 20
201.749435
 30
0.0
 10
21.077103
 20
201.341077
 30
0.0
 10
20.836605
 20
200.692424
 30
0.0
 10
20.927198
 20
200.077092
 30
0.0
  0
SPLINE
  5
11d
100
AcDbEntity
  8
0
 62
6
100
AcDbSpline
 70
8
 71
3
 72
8
 73
4
 74
0
 40
0
 40
0
 40
0
 40
0
 40
1
 40
1
 40
1
 40
1
 10
20.927198
 20
200.077092
 30
0.0
 10
21.021818
 20
199.315757
 30
0.0
 10
21.632246
 20
198.656926
 30
0.0
 10
22.379995
 20
198.495674
 30
0.0
  0
SPLINE
  5
11e
100
AcDbEntity
  8
0
 62
6
100
AcDbSpline
 70
8
 71
3
 72
8
 73
4
 74
0
 40
0
 40
0
 40
0
 40
0
 40
1
 40
1
 40
1
 40
1
 10
22.379995
 20
198.495674
 30
0.0
 10
23.018231
 20
198.438378
 30
0.0
 10
23.518216
 20
198.534562
 30
0.0
 10
23.967324
 20
198.862358
 30
0.0
  0
SPLINE
  5
11f
100
AcDbEntity
  8
0
 62
6
100
AcDbSpline
 70
8
 71
3
 72
8
 73
4
 74
0
 40
0
 40
0
 40
0
 40
0
 40
1
 40
1
 40
1
 40
1
 10
23.967324
 20
198.862358
 30
0.0
 10
23.967274
 20
199.376673
 30
0.0
 10
23.967424
 20
199.892766
 30
0.0
 10
23.967249
 20
200.405970
 30
0.0
  0
LWPOLYLINE
  5
120
100
AcDbEntity
  8
0
 62
6
100
AcDbPolyline
 90
2
 70
1
 10
23.611743
 20
201.340965
 30
0.0
 10
23.611743
 20
202.036837
 30
0.0
  0
LWPOLYLINE
  5
121
100
AcDbEntity
  8
0
 62
6
100
AcDbPolyline
 90
2
 70
1
 10
23.967249
 20
200.405970
 30
0.0
 10
23.967249
 20
200.405966
 30
0.0
  0
LWPOLYLINE
  5
122
100
AcDbEntity
  8
0
 62
6
100
AcDbPolyline
 90
9
 70
1
 10
31.577393
 20
198.480672
 30
0.0
 10
32.222471
 20
198.480672
 30
0.0
 10
30.586918
 20
202.422252
 30
0.0
 10
28.946287
 20
198.480672
 30
0.0
 10
29.596444
 20
198.480672
 30
0.0
 10
29.916444
 20
199.288290
 30
0.0
 10
31.257394
 20
199.288290
 30
0.0
 10
31.577393
 20
198.480672
 30
0.0
 10
31.577393
 20
198.480672
 30
0.0
  0
SPLINE
  5
123
100
AcDbEntity
  8
0
 62
6
100
AcDbSpline
 70
8
 71
3
 72
8
 73
4
 74
0
 40
0
 40
0
 40
0
 40
0
 40
1
 40
1
 40
1
 40
1
 10
38.640237
 20
198.480672
 30
0.0
 10
38.995792
 20
198.480672
 30
0.0
 10
39.325950
 20
198.587338
 30
0.0
 10
39.574838
 20
198.780354
 30
0.0
  0
SPLINE
  5
124
100
AcDbEntity
  8
0
 62
6
100
AcDbSpline
 70
8
 71
3
 72
8
 73
4
 74
0
 40
0
 40
0
 40
0
 40
0
 40
1
 40
1
 40
1
 40
1
 10
39.574838
 20
198.780354
 30
0.0
 10
39.717060
 20
198.892100
 30
0.0
 10
39.828806
 20
199.029242
 30
0.0
 10
39.910076
 20
199.186702
 30
0.0
  0
SPLINE
  5
125
100
AcDbEntity
  8
0
 62
6
100
AcDbSpline
 70
8
 71
3
 72
8
 73
4
 74
0
 40
0
 40
0
 40
0
 40
0
 40
1
 40
1
 40
1
 40
1
 10
39.910076
 20
199.186702
 30
0.0
 10
39.991346
 20
199.359401
 30
0.0
 10
40.037059
 20
199.552416
 30
0.0
 10
40.037059
 20
199.760670
 30
0.0
  0
LWPOLYLINE
  5
126
100
AcDbEntity
  8
0
 62
6
100
AcDbPolyline
 90
5
 70
1
 10
30.129777
 20
199.816542
 30
0.0
 10
30.586918
 20
200.964477
 30
0.0
 10
31.044061
 20
199.816542
 30
0.0
 10
30.129777
 20
199.816542
 30
0.0
 10
30.129777
 20
199.816542
 30
0.0
  0
SPLINE
  5
127
100
AcDbEntity
  8
0
 62
6
100
AcDbSpline
 70
8
 71
3
 72
8
 73
4
 74
0
 40
0
 40
0
 40
0
 40
0
 40
1
 40
1
 40
1
 40
1
 10
39.442775
 20
199.760670
 30
0.0
 10
39.442775
 20
199.537178
 30
0.0
 10
39.366583
 20
199.364480
 30
0.0
 10
39.214204
 20
199.247655
 30
0.0
  0
SPLINE
  5
128
100
AcDbEntity
  8
0
 62
6
100
AcDbSpline
 70
8
 71
3
 72
8
 73
4
 74
0
 40
0
 40
0
 40
0
 40
0
 40
1
 40
1
 40
1
 40
1
 10
39.214204
 20
199.247655
 30
0.0
 10
39.066902
 20
199.135909
 30
0.0
 10
38.858649
 20
199.069878
 30
0.0
 10
38.640237
 20
199.069878
 30
0.0
  0
SPLINE
  5
129
100
AcDbEntity
  8
0
 62
6
100
AcDbSpline
 70
8
 71
3
 72
8
 73
4
 74
0
 40
0
 40
0
 40
0
 40
0
 40
1
 40
1
 40
1
 40
1
 10
38.640237
 20
199.069878
 30
0.0
 10
38.416745
 20
199.069878
 30
0.0
 10
38.208491
 20
199.135910
 30
0.0
 10
38.066270
 20
199.247655
 30
0.0
  0
SPLINE
  5
12a
100
AcDbEntity
  8
0
 62
6
100
AcDbSpline
 70
8
 71
3
 72
8
 73
4
 74
0
 40
0
 40
0
 40
0
 40
0
 40
1
 40
1
 40
1
 40
1
 10
38.066270
 20
199.247655
 30
0.0
 10
37.913889
 20
199.364480
 30
0.0
 10
37.832619
 20
199.537178
 30
0.0
 10
37.832619
 20
199.760670
 30
0.0
  0
LWPOLYLINE
  5
12b
100
AcDbEntity
  8
0
 62
6
100
AcDbPolyline
 90
4
 70
1
 10
40.037059
 20
199.760670
 30
0.0
 10
40.037059
 20
202.249554
 30
0.0
 10
39.442775
 20
202.249554
 30
0.0
 10
39.442775
 20
199.760670
 30
0.0
  0
SPLINE
  5
12c
100
AcDbEntity
  8
0
 62
6
100
AcDbSpline
 70
8
 71
3
 72
8
 73
4
 74
0
 40
0
 40
0
 40
0
 40
0
 40
1
 40
1
 40
1
 40
1
 10
37.243414
 20
199.760670
 30
0.0
 10
37.243414
 20
199.552416
 30
0.0
 10
37.284046
 20
199.359401
 30
0.0
 10
37.370398
 20
199.186702
 30
0.0
  0
SPLINE
  5
12d
100
AcDbEntity
  8
0
 62
6
100
AcDbSpline
 70
8
 71
3
 72
8
 73
4
 74
0
 40
0
 40
0
 40
0
 40
0
 40
1
 40
1
 40
1
 40
1
 10
37.370398
 20
199.186702
 30
0.0
 10
37.446590
 20
199.029242
 30
0.0
 10
37.558334
 20
198.892100
 30
0.0
 10
37.705635
 20
198.780354
 30
0.0
  0
SPLINE
  5
12e
100
AcDbEntity
  8
0
 62
6
100
AcDbSpline
 70
8
 71
3
 72
8
 73
4
 74
0
 40
0
 40
0
 40
0
 40
0
 40
1
 40
1
 40
1
 40
1
 10
37.705635
 20
198.780354
 30
0.0
 10
37.954524
 20
198.587338
 30
0.0
 10
38.284682
 20
198.480672
 30
0.0
 10
38.640237
 20
198.480672
 30
0.0
  0
LWPOLYLINE
  5
12f
100
AcDbEntity
  8
0
 62
6
100
AcDbPolyline
 90
4
 70
1
 10
37.832619
 20
199.760670
 30
0.0
 10
37.832619
 20
202.249554
 30
0.0
 10
37.243414
 20
202.249554
 30
0.0
 10
37.243414
 20
199.760670
 30
0.0
  0
LWPOLYLINE
  5
130
100
AcDbEntity
  8
0
 62
6
100
AcDbPolyline
 90
3
 70
1
 10
38.640237
 20
198.480672
 30
0.0
 10
38.640237
 20
198.480672
 30
0.0
 10
38.640237
 20
198.480672
 30
0.0
  0
LWPOLYLINE
  5
131
100
AcDbEntity
  8
0
 62
6
100
AcDbPolyline
 90
10
 70
1
 10
23.891058
 20
190.181006
 30
0.0
 10
23.891058
 20
194.122586
 30
0.0
 10
23.296774
 20
194.122586
 30
0.0
 10
23.296774
 20
191.704813
 30
0.0
 10
20.929794
 20
194.300363
 30
0.0
 10
20.929794
 20
190.353704
 30
0.0
 10
21.518999
 20
190.353704
 30
0.0
 10
21.518999
 20
192.776557
 30
0.0
 10
23.891058
 20
190.181006
 30
0.0
 10
23.891058
 20
190.181006
 30
0.0
  0
LWPOLYLINE
  5
132
100
AcDbEntity
  8
0
 62
6
100
AcDbPolyline
 90
10
 70
1
 10
31.797075
 20
194.122586
 30
0.0
 10
29.130414
 20
194.122586
 30
0.0
 10
29.130414
 20
193.594333
 30
0.0
 10
30.166602
 20
193.594333
 30
0.0
 10
30.166602
 20
190.353704
 30
0.0
 10
30.760886
 20
190.353704
 30
0.0
 10
30.760886
 20
193.594333
 30
0.0
 10
31.797075
 20
193.594333
 30
0.0
 10
31.797075
 20
194.122586
 30
0.0
 10
31.797075
 20
194.122586
 30
0.0
  0
LWPOLYLINE
  5
133
100
AcDbEntity
  8
0
 62
6
100
AcDbPolyline
 90
11
 70
1
 10
38.122142
 20
193.594333
 30
0.0
 10
39.798330
 20
193.594333
 30
0.0
 10
39.798330
 20
194.122586
 30
0.0
 10
37.532938
 20
194.122586
 30
0.0
 10
37.532938
 20
190.353704
 30
0.0
 10
38.122142
 20
190.353704
 30
0.0
 10
38.122142
 20
192.055288
 30
0.0
 10
39.498648
 20
192.055288
 30
0.0
 10
39.498648
 20
192.588621
 30
0.0
 10
38.122142
 20
192.588621
 30
0.0
 10
38.122142
 20
193.594333
 30
0.0
  0
LWPOLYLINE
  5
134
100
AcDbEntity
  8
0
 62
6
100
AcDbPolyline
 90
9
 70
1
 10
23.450424
 20
182.226737
 30
0.0
 10
24.095502
 20
182.226737
 30
0.0
 10
22.459950
 20
186.168316
 30
0.0
 10
20.819318
 20
182.226737
 30
0.0
 10
21.469475
 20
182.226737
 30
0.0
 10
21.789475
 20
183.034354
 30
0.0
 10
23.130425
 20
183.034354
 30
0.0
 10
23.450424
 20
182.226737
 30
0.0
 10
23.450424
 20
182.226737
 30
0.0
  0
SPLINE
  5
135
100
AcDbEntity
  8
0
 62
6
100
AcDbSpline
 70
8
 71
3
 72
8
 73
4
 74
0
 40
0
 40
0
 40
0
 40
0
 40
1
 40
1
 40
1
 40
1
 10
32.015487
 20
183.308858
 30
0.0
 10
31.756942
 20
182.998318
 30
0.0
 10
31.316653
 20
182.790848
 30
0.0
 10
30.974219
 20
182.785684
 30
0.0
  0
SPLINE
  5
136
100
AcDbEntity
  8
0
 62
6
100
AcDbSpline
 70
8
 71
3
 72
8
 73
4
 74
0
 40
0
 40
0
 40
0
 40
0
 40
1
 40
1
 40
1
 40
1
 10
30.974219
 20
182.785684
 30
0.0
 10
30.628823
 20
182.785684
 30
0.0
 10
30.303745
 20
182.922826
 30
0.0
 10
30.059935
 20
183.166635
 30
0.0
  0
SPLINE
  5
137
100
AcDbEntity
  8
0
 62
6
100
AcDbSpline
 70
8
 71
3
 72
8
 73
4
 74
0
 40
0
 40
0
 40
0
 40
0
 40
1
 40
1
 40
1
 40
1
 10
30.059935
 20
183.166635
 30
0.0
 10
29.816126
 20
183.410445
 30
0.0
 10
29.678984
 20
183.735523
 30
0.0
 10
29.678984
 20
184.080919
 30
0.0
  0
SPLINE
  5
138
100
AcDbEntity
  8
0
 62
6
100
AcDbSpline
 70
8
 71
3
 72
8
 73
4
 74
0
 40
0
 40
0
 40
0
 40
0
 40
1
 40
1
 40
1
 40
1
 10
29.678984
 20
184.080919
 30
0.0
 10
29.678984
 20
184.426316
 30
0.0
 10
29.816126
 20
184.751394
 30
0.0
 10
30.059935
 20
184.995203
 30
0.0
  0
SPLINE
  5
139
100
AcDbEntity
  8
0
 62
6
100
AcDbSpline
 70
8
 71
3
 72
8
 73
4
 74
0
 40
0
 40
0
 40
0
 40
0
 40
1
 40
1
 40
1
 40
1
 10
30.059935
 20
184.995203
 30
0.0
 10
30.303745
 20
185.244092
 30
0.0
 10
30.628823
 20
185.376155
 30
0.0
 10
30.974219
 20
185.376155
 30
0.0
  0
SPLINE
  5
13a
100
AcDbEntity
  8
0
 62
6
100
AcDbSpline
 70
8
 71
3
 72
8
 73
4
 74
0
 40
0
 40
0
 40
0
 40
0
 40
1
 40
1
 40
1
 40
1
 10
30.974219
 20
185.376155
 30
0.0
 10
31.278981
 20
185.376155
 30
0.0
 10
31.563425
 20
185.274568
 30
0.0
 10
31.791996
 20
185.086632
 30
0.0
  0
LWPOLYLINE
  5
13b
100
AcDbEntity
  8
0
 62
6
100
AcDbPolyline
 90
5
 70
1
 10
22.002808
 20
183.562607
 30
0.0
 10
22.459950
 20
184.710541
 30
0.0
 10
22.917092
 20
183.562607
 30
0.0
 10
22.002808
 20
183.562607
 30
0.0
 10
22.002808
 20
183.562607
 30
0.0
  0
SPLINE
  5
13c
100
AcDbEntity
  8
0
 62
6
100
AcDbSpline
 70
8
 71
3
 72
8
 73
4
 74
0
 40
0
 40
0
 40
0
 40
0
 40
1
 40
1
 40
1
 40
1
 10
31.791996
 20
185.782503
 30
0.0
 10
31.056293
 20
186.094988
 30
0.0
 10
30.157158
 20
185.908340
 30
0.0
 10
29.643428
 20
185.416786
 30
0.0
  0
SPLINE
  5
13d
100
AcDbEntity
  8
0
 62
6
100
AcDbSpline
 70
8
 71
3
 72
8
 73
4
 74
0
 40
0
 40
0
 40
0
 40
0
 40
1
 40
1
 40
1
 40
1
 10
29.643428
 20
185.416786
 30
0.0
 10
29.288273
 20
185.040010
 30
0.0
 10
29.093425
 20
184.559845
 30
0.0
 10
29.089778
 20
184.080915
 30
0.0
  0
SPLINE
  5
13e
100
AcDbEntity
  8
0
 62
6
100
AcDbSpline
 70
8
 71
3
 72
8
 73
4
 74
0
 40
0
 40
0
 40
0
 40
0
 40
1
 40
1
 40
1
 40
1
 10
29.089778
 20
184.080915
 30
0.0
 10
29.106642
 20
183.562562
 30
0.0
 10
29.306835
 20
183.091314
 30
0.0
 10
29.643428
 20
182.750125
 30
0.0
  0
SPLINE
  5
13f
100
AcDbEntity
  8
0
 62
6
100
AcDbSpline
 70
8
 71
3
 72
8
 73
4
 74
0
 40
0
 40
0
 40
0
 40
0
 40
1
 40
1
 40
1
 40
1
 10
29.643428
 20
182.750125
 30
0.0
 10
30.019729
 20
182.395344
 30
0.0
 10
30.494826
 20
182.200126
 30
0.0
 10
30.974219
 20
182.196475
 30
0.0
  0
SPLINE
  5
140
100
AcDbEntity
  8
0
 62
6
100
AcDbSpline
 70
8
 71
3
 72
8
 73
4
 74
0
 40
0
 40
0
 40
0
 40
0
 40
1
 40
1
 40
1
 40
1
 10
30.974219
 20
182.196475
 30
0.0
 10
31.381397
 20
182.204507
 30
0.0
 10
31.695946
 20
182.324872
 30
0.0
 10
32.015487
 20
182.506315
 30
0.0
  0
LWPOLYLINE
  5
141
100
AcDbEntity
  8
0
 62
6
100
AcDbPolyline
 90
2
 70
1
 10
31.791996
 20
185.086632
 30
0.0
 10
31.791996
 20
185.782503
 30
0.0
  0
LWPOLYLINE
  5
142
100
AcDbEntity
  8
0
 62
6
100
AcDbPolyline
 90
3
 70
1
 10
32.015487
 20
182.506315
 30
0.0
 10
32.015487
 20
183.308854
 30
0.0
 10
32.015487
 20
183.308858
 30
0.0
  0
LWPOLYLINE
  5
143
100
AcDbEntity
  8
0
 62
6
100
AcDbPolyline
 90
13
 70
1
 10
38.122142
 20
185.467365
 30
0.0
 10
39.793250
 20
185.467365
 30
0.0
 10
39.793250
 20
185.995618
 30
0.0
 10
37.532938
 20
185.995618
 30
0.0
 10
37.532938
 20
182.226737
 30
0.0
 10
39.793250
 20
182.226737
 30
0.0
 10
39.793250
 20
182.760069
 30
0.0
 10
38.122142
 20
182.760069
 30
0.0
 10
38.122142
 20
183.928321
 30
0.0
 10
39.498648
 20
183.928321
 30
0.0
 10
39.498648
 20
184.461653
 30
0.0
 10
38.122142
 20
184.461653
 30
0.0
 10
38.122142
 20
185.467365
 30
0.0
  0
ENDSEC
  0
SECTION
  2
OBJECTS
  0
DICTIONARY
  5
C
330
0
100
AcDbDictionary
  3
ACAD_GROUP
350
D
  3
ACAD_MLINESTYLE
350
17
  0
DICTIONARY
  5
D
330
C
100
AcDbDictionary
  0
DICTIONARY
  5
1A
330
C
100
AcDbDictionary
  0
DICTIONARY
  5
17
330
C
100
AcDbDictionary
  3
STANDARD
350
18
  0
DICTIONARY
  5
19
330
C
100
AcDbDictionary
  0
ENDSEC
  0
EOF
