  0
SECTION
  2
HEADER
  9
$ACADVER
  1
AC1014
  9
$HANDSEED
  5
FFFF
  9
$MEASUREMENT
 70
     1
  0
ENDSEC
  0
SECTION
  2
TABLES
  0
TABLE
  2
VPORT
  5
8
330
0
100
AcDbSymbolTable
 70
     4
  0
VPORT
  5
2E
330
8
100
AcDbSymbolTableRecord
100
AcDbViewportTableRecord
  2
*ACTIVE
 70
     0
 10
0.0
 20
0.0
 11
1.0
 21
1.0
 12
210.0
 22
148.5
 13
0.0
 23
0.0
 14
10.0
 24
10.0
 15
10.0
 25
10.0
 16
0.0
 26
0.0
 36
1.0
 17
0.0
 27
0.0
 37
0.0
 40
341.0
 41
1.24
 42
50.0
 43
0.0
 44
0.0
 50
0.0
 51
0.0
 71
     0
 72
   100
 73
     1
 74
     3
 75
     0
 76
     0
 77
     0
 78
     0
  0
ENDTAB
  0
TABLE
  2
LTYPE
  5
5
330
0
100
AcDbSymbolTable
 70
     1
  0
LTYPE
  5
14
330
5
100
AcDbSymbolTableRecord
100
AcDbLinetypeTableRecord
  2
BYBLOCK
 70
     0
  3

 72
    65
 73
     0
 40
0.0
  0
LTYPE
  5
15
330
5
100
AcDbSymbolTableRecord
100
AcDbLinetypeTableRecord
  2
BYLAYER
 70
     0
  3

 72
    65
 73
     0
 40
0.0
  0
LTYPE
  5
16
330
5
100
AcDbSymbolTableRecord
100
AcDbLinetypeTableRecord
  2
CONTINUOUS
 70
     0
  3
Solid line
 72
    65
 73
     0
 40
0.0
  0
ENDTAB
  0
TABLE
  2
LAYER
  5
2
100
AcDbSymbolTable
 70
1
  0
LAYER
  5
50
100
AcDbSymbolTableRecord
100
AcDbLayerTableRecord
  2
0
 70
0
  6
CONTINUOUS
  0
ENDTAB
  0
TABLE
  2
STYLE
  5
3
330
0
100
AcDbSymbolTable
 70
     1
  0
STYLE
  5
11
330
3
100
AcDbSymbolTableRecord
100
AcDbTextStyleTableRecord
  2
STANDARD
 70
     0
 40
0.0
 41
1.0
 50
0.0
 71
     0
 42
2.5
  3
txt
  4

  0
ENDTAB
  0
TABLE
  2
VIEW
  5
6
330
0
100
AcDbSymbolTable
 70
     0
  0
ENDTAB
  0
TABLE
  2
UCS
  5
7
330
0
100
AcDbSymbolTable
 70
     0
  0
ENDTAB
  0
TABLE
  2
APPID
  5
9
330
0
100
AcDbSymbolTable
 70
     2
  0
APPID
  5
12
330
9
100
AcDbSymbolTableRecord
100
AcDbRegAppTableRecord
  2
ACAD
 70
     0
  0
ENDTAB
  0
TABLE
  2
DIMSTYLE
  5
A
330
0
100
AcDbSymbolTable
 70
     1
  0
DIMSTYLE
105
27
330
A
100
AcDbSymbolTableRecord
100
AcDbDimStyleTableRecord
  2
ISO-25
 70
     0
  3

  4

  5

  6

  7

 40
1.0
 41
2.5
 42
0.625
 43
3.75
 44
1.25
 45
0.0
 46
0.0
 47
0.0
 48
0.0
140
2.5
141
2.5
142
0.0
143
0.03937007874016
144
1.0
145
0.0
146
1.0
147
0.625
 71
     0
 72
     0
 73
     0
 74
     0
 75
     0
 76
     0
 77
     1
 78
     8
170
     0
171
     3
172
     1
173
     0
174
     0
175
     0
176
     0
177
     0
178
     0
270
     2
271
     2
272
     2
273
     2
274
     3
340
11
275
     0
280
     0
281
     0
282
     0
283
     0
284
     8
285
     0
286
     0
287
     3
288
     0
  0
ENDTAB
  0
TABLE
  2
BLOCK_RECORD
  5
1
330
0
100
AcDbSymbolTable
 70
     1
  0
BLOCK_RECORD
  5
1F
330
1
100
AcDbSymbolTableRecord
100
AcDbBlockTableRecord
  2
*MODEL_SPACE
  0
BLOCK_RECORD
  5
1B
330
1
100
AcDbSymbolTableRecord
100
AcDbBlockTableRecord
  2
*PAPER_SPACE
  0
ENDTAB
  0
ENDSEC
  0
SECTION
  2
BLOCKS
  0
BLOCK
  5
20
330
1F
100
AcDbEntity
  8
0
100
AcDbBlockBegin
  2
*MODEL_SPACE
 70
     0
 10
0.0
 20
0.0
 30
0.0
  3
*MODEL_SPACE
  1

  0
ENDBLK
  5
21
330
1F
100
AcDbEntity
  8
0
100
AcDbBlockEnd
  0
BLOCK
  5
1C
330
1B
100
AcDbEntity
 67
     1
  8
0
100
AcDbBlockBegin
  2
*PAPER_SPACE
  1

  0
ENDBLK
  5
1D
330
1B
100
AcDbEntity
 67
     1
  8
0
100
AcDbBlockEnd
  0
ENDSEC
  0
SECTION
  2
ENTITIES
  0
LWPOLYLINE
  5
100
100
AcDbEntity
  8
0
 62
7
100
AcDbPolyline
 90
53
 70
1
 10
61.000000
 20
459.000000
 30
0.0
 10
70.000000
 20
459.000000
 30
0.0
 10
70.000000
 20
466.000000
 30
0.0
 10
73.000000
 20
466.000000
 30
0.0
 10
73.000000
 20
471.000000
 30
0.0
 10
70.000000
 20
471.000000
 30
0.0
 10
70.000000
 20
479.300000
 30
0.0
 10
67.500000
 20
479.300000
 30
0.0
 10
67.500000
 20
478.250000
 30
0.0
 10
65.000000
 20
478.250000
 30
0.0
 10
65.000000
 20
479.300000
 30
0.0
 10
63.000000
 20
479.300000
 30
0.0
 10
63.000000
 20
482.700000
 30
0.0
 10
65.000000
 20
482.700000
 30
0.0
 10
65.000000
 20
483.750000
 30
0.0
 10
67.500000
 20
483.750000
 30
0.0
 10
67.500000
 20
482.700000
 30
0.0
 10
70.000000
 20
482.700000
 30
0.0
 10
70.000000
 20
491.000000
 30
0.0
 10
73.000000
 20
491.000000
 30
0.0
 10
73.000000
 20
496.000000
 30
0.0
 10
70.000000
 20
496.000000
 30
0.0
 10
70.000000
 20
503.000000
 30
0.0
 10
61.000000
 20
503.000000
 30
0.0
 10
61.000000
 20
506.000000
 30
0.0
 10
51.000000
 20
506.000000
 30
0.0
 10
51.000000
 20
503.000000
 30
0.0
 10
42.000000
 20
503.000000
 30
0.0
 10
42.000000
 20
496.000000
 30
0.0
 10
39.000000
 20
496.000000
 30
0.0
 10
39.000000
 20
491.000000
 30
0.0
 10
42.000000
 20
491.000000
 30
0.0
 10
42.000000
 20
482.700000
 30
0.0
 10
44.500000
 20
482.700000
 30
0.0
 10
44.500000
 20
483.750000
 30
0.0
 10
47.000000
 20
483.750000
 30
0.0
 10
47.000000
 20
482.700000
 30
0.0
 10
49.000000
 20
482.700000
 30
0.0
 10
49.000000
 20
479.300000
 30
0.0
 10
47.000000
 20
479.300000
 30
0.0
 10
47.000000
 20
478.250000
 30
0.0
 10
44.500000
 20
478.250000
 30
0.0
 10
44.500000
 20
479.300000
 30
0.0
 10
42.000000
 20
479.300000
 30
0.0
 10
42.000000
 20
471.000000
 30
0.0
 10
39.000000
 20
471.000000
 30
0.0
 10
39.000000
 20
466.000000
 30
0.0
 10
42.000000
 20
466.000000
 30
0.0
 10
42.000000
 20
459.000000
 30
0.0
 10
51.000000
 20
459.000000
 30
0.0
 10
51.000000
 20
456.000000
 30
0.0
 10
61.000000
 20
456.000000
 30
0.0
 10
61.000000
 20
459.000000
 30
0.0
  0
LWPOLYLINE
  5
101
100
AcDbEntity
  8
0
 62
7
100
AcDbPolyline
 90
53
 70
1
 10
22.000000
 20
459.000000
 30
0.0
 10
31.000000
 20
459.000000
 30
0.0
 10
31.000000
 20
466.000000
 30
0.0
 10
34.000000
 20
466.000000
 30
0.0
 10
34.000000
 20
471.000000
 30
0.0
 10
31.000000
 20
471.000000
 30
0.0
 10
31.000000
 20
479.300000
 30
0.0
 10
28.500000
 20
479.300000
 30
0.0
 10
28.500000
 20
478.250000
 30
0.0
 10
26.000000
 20
478.250000
 30
0.0
 10
26.000000
 20
479.300000
 30
0.0
 10
24.000000
 20
479.300000
 30
0.0
 10
24.000000
 20
482.700000
 30
0.0
 10
26.000000
 20
482.700000
 30
0.0
 10
26.000000
 20
483.750000
 30
0.0
 10
28.500000
 20
483.750000
 30
0.0
 10
28.500000
 20
482.700000
 30
0.0
 10
31.000000
 20
482.700000
 30
0.0
 10
31.000000
 20
491.000000
 30
0.0
 10
34.000000
 20
491.000000
 30
0.0
 10
34.000000
 20
496.000000
 30
0.0
 10
31.000000
 20
496.000000
 30
0.0
 10
31.000000
 20
503.000000
 30
0.0
 10
22.000000
 20
503.000000
 30
0.0
 10
22.000000
 20
506.000000
 30
0.0
 10
12.000000
 20
506.000000
 30
0.0
 10
12.000000
 20
503.000000
 30
0.0
 10
3.000000
 20
503.000000
 30
0.0
 10
3.000000
 20
496.000000
 30
0.0
 10
0.000000
 20
496.000000
 30
0.0
 10
0.000000
 20
491.000000
 30
0.0
 10
3.000000
 20
491.000000
 30
0.0
 10
3.000000
 20
482.700000
 30
0.0
 10
5.500000
 20
482.700000
 30
0.0
 10
5.500000
 20
483.750000
 30
0.0
 10
8.000000
 20
483.750000
 30
0.0
 10
8.000000
 20
482.700000
 30
0.0
 10
10.000000
 20
482.700000
 30
0.0
 10
10.000000
 20
479.300000
 30
0.0
 10
8.000000
 20
479.300000
 30
0.0
 10
8.000000
 20
478.250000
 30
0.0
 10
5.500000
 20
478.250000
 30
0.0
 10
5.500000
 20
479.300000
 30
0.0
 10
3.000000
 20
479.300000
 30
0.0
 10
3.000000
 20
471.000000
 30
0.0
 10
0.000000
 20
471.000000
 30
0.0
 10
0.000000
 20
466.000000
 30
0.0
 10
3.000000
 20
466.000000
 30
0.0
 10
3.000000
 20
459.000000
 30
0.0
 10
12.000000
 20
459.000000
 30
0.0
 10
12.000000
 20
456.000000
 30
0.0
 10
22.000000
 20
456.000000
 30
0.0
 10
22.000000
 20
459.000000
 30
0.0
  0
LWPOLYLINE
  5
102
100
AcDbEntity
  8
0
 62
7
100
AcDbPolyline
 90
53
 70
1
 10
25.500000
 20
417.000000
 30
0.0
 10
36.300000
 20
417.000000
 30
0.0
 10
36.300000
 20
419.500000
 30
0.0
 10
35.250000
 20
419.500000
 30
0.0
 10
35.250000
 20
422.000000
 30
0.0
 10
36.300000
 20
422.000000
 30
0.0
 10
36.300000
 20
424.000000
 30
0.0
 10
39.700000
 20
424.000000
 30
0.0
 10
39.700000
 20
422.000000
 30
0.0
 10
40.750000
 20
422.000000
 30
0.0
 10
40.750000
 20
419.500000
 30
0.0
 10
39.700000
 20
419.500000
 30
0.0
 10
39.700000
 20
417.000000
 30
0.0
 10
50.500000
 20
417.000000
 30
0.0
 10
50.500000
 20
414.000000
 30
0.0
 10
60.500000
 20
414.000000
 30
0.0
 10
60.500000
 20
417.000000
 30
0.0
 10
73.000000
 20
417.000000
 30
0.0
 10
73.000000
 20
426.000000
 30
0.0
 10
70.000000
 20
426.000000
 30
0.0
 10
70.000000
 20
436.000000
 30
0.0
 10
73.000000
 20
436.000000
 30
0.0
 10
73.000000
 20
445.000000
 30
0.0
 10
60.500000
 20
445.000000
 30
0.0
 10
60.500000
 20
448.000000
 30
0.0
 10
50.500000
 20
448.000000
 30
0.0
 10
50.500000
 20
445.000000
 30
0.0
 10
39.700000
 20
445.000000
 30
0.0
 10
39.700000
 20
442.500000
 30
0.0
 10
40.750000
 20
442.500000
 30
0.0
 10
40.750000
 20
440.000000
 30
0.0
 10
39.700000
 20
440.000000
 30
0.0
 10
39.700000
 20
438.000000
 30
0.0
 10
36.300000
 20
438.000000
 30
0.0
 10
36.300000
 20
440.000000
 30
0.0
 10
35.250000
 20
440.000000
 30
0.0
 10
35.250000
 20
442.500000
 30
0.0
 10
36.300000
 20
442.500000
 30
0.0
 10
36.300000
 20
445.000000
 30
0.0
 10
25.500000
 20
445.000000
 30
0.0
 10
25.500000
 20
448.000000
 30
0.0
 10
20.500000
 20
448.000000
 30
0.0
 10
20.500000
 20
445.000000
 30
0.0
 10
3.000000
 20
445.000000
 30
0.0
 10
3.000000
 20
436.000000
 30
0.0
 10
6.000000
 20
436.000000
 30
0.0
 10
6.000000
 20
426.000000
 30
0.0
 10
3.000000
 20
426.000000
 30
0.0
 10
3.000000
 20
417.000000
 30
0.0
 10
15.500000
 20
417.000000
 30
0.0
 10
15.500000
 20
414.000000
 30
0.0
 10
25.500000
 20
414.000000
 30
0.0
 10
25.500000
 20
417.000000
 30
0.0
  0
LWPOLYLINE
  5
103
100
AcDbEntity
  8
0
 62
7
100
AcDbPolyline
 90
53
 70
1
 10
25.500000
 20
378.000000
 30
0.0
 10
36.300000
 20
378.000000
 30
0.0
 10
36.300000
 20
380.500000
 30
0.0
 10
35.250000
 20
380.500000
 30
0.0
 10
35.250000
 20
383.000000
 30
0.0
 10
36.300000
 20
383.000000
 30
0.0
 10
36.300000
 20
385.000000
 30
0.0
 10
39.700000
 20
385.000000
 30
0.0
 10
39.700000
 20
383.000000
 30
0.0
 10
40.750000
 20
383.000000
 30
0.0
 10
40.750000
 20
380.500000
 30
0.0
 10
39.700000
 20
380.500000
 30
0.0
 10
39.700000
 20
378.000000
 30
0.0
 10
50.500000
 20
378.000000
 30
0.0
 10
50.500000
 20
375.000000
 30
0.0
 10
60.500000
 20
375.000000
 30
0.0
 10
60.500000
 20
378.000000
 30
0.0
 10
73.000000
 20
378.000000
 30
0.0
 10
73.000000
 20
387.000000
 30
0.0
 10
70.000000
 20
387.000000
 30
0.0
 10
70.000000
 20
397.000000
 30
0.0
 10
73.000000
 20
397.000000
 30
0.0
 10
73.000000
 20
406.000000
 30
0.0
 10
60.500000
 20
406.000000
 30
0.0
 10
60.500000
 20
409.000000
 30
0.0
 10
50.500000
 20
409.000000
 30
0.0
 10
50.500000
 20
406.000000
 30
0.0
 10
39.700000
 20
406.000000
 30
0.0
 10
39.700000
 20
403.500000
 30
0.0
 10
40.750000
 20
403.500000
 30
0.0
 10
40.750000
 20
401.000000
 30
0.0
 10
39.700000
 20
401.000000
 30
0.0
 10
39.700000
 20
399.000000
 30
0.0
 10
36.300000
 20
399.000000
 30
0.0
 10
36.300000
 20
401.000000
 30
0.0
 10
35.250000
 20
401.000000
 30
0.0
 10
35.250000
 20
403.500000
 30
0.0
 10
36.300000
 20
403.500000
 30
0.0
 10
36.300000
 20
406.000000
 30
0.0
 10
25.500000
 20
406.000000
 30
0.0
 10
25.500000
 20
409.000000
 30
0.0
 10
15.500000
 20
409.000000
 30
0.0
 10
15.500000
 20
406.000000
 30
0.0
 10
3.000000
 20
406.000000
 30
0.0
 10
3.000000
 20
397.000000
 30
0.0
 10
6.000000
 20
397.000000
 30
0.0
 10
6.000000
 20
387.000000
 30
0.0
 10
3.000000
 20
387.000000
 30
0.0
 10
3.000000
 20
378.000000
 30
0.0
 10
15.500000
 20
378.000000
 30
0.0
 10
15.500000
 20
375.000000
 30
0.0
 10
25.500000
 20
375.000000
 30
0.0
 10
25.500000
 20
378.000000
 30
0.0
  0
LWPOLYLINE
  5
104
100
AcDbEntity
  8
0
 62
1
100
AcDbPolyline
 90
5
 70
1
 10
50.500000
 20
364.000000
 30
0.0
 10
50.500000
 20
367.000000
 30
0.0
 10
60.500000
 20
367.000000
 30
0.0
 10
60.500000
 20
364.000000
 30
0.0
 10
50.500000
 20
364.000000
 30
0.0
  0
LWPOLYLINE
  5
105
100
AcDbEntity
  8
0
 62
1
100
AcDbPolyline
 90
5
 70
1
 10
20.500000
 20
364.000000
 30
0.0
 10
20.500000
 20
367.000000
 30
0.0
 10
25.500000
 20
367.000000
 30
0.0
 10
25.500000
 20
364.000000
 30
0.0
 10
20.500000
 20
364.000000
 30
0.0
  0
LWPOLYLINE
  5
106
100
AcDbEntity
  8
0
 62
1
100
AcDbPolyline
 90
5
 70
1
 10
3.000000
 20
352.000000
 30
0.0
 10
3.000000
 20
357.000000
 30
0.0
 10
6.000000
 20
357.000000
 30
0.0
 10
6.000000
 20
352.000000
 30
0.0
 10
3.000000
 20
352.000000
 30
0.0
  0
LWPOLYLINE
  5
107
100
AcDbEntity
  8
0
 62
1
100
AcDbPolyline
 90
5
 70
1
 10
70.000000
 20
352.000000
 30
0.0
 10
70.000000
 20
357.000000
 30
0.0
 10
73.000000
 20
357.000000
 30
0.0
 10
73.000000
 20
352.000000
 30
0.0
 10
70.000000
 20
352.000000
 30
0.0
  0
LWPOLYLINE
  5
108
100
AcDbEntity
  8
0
 62
1
100
AcDbPolyline
 90
5
 70
1
 10
70.000000
 20
327.000000
 30
0.0
 10
70.000000
 20
332.000000
 30
0.0
 10
73.000000
 20
332.000000
 30
0.0
 10
73.000000
 20
327.000000
 30
0.0
 10
70.000000
 20
327.000000
 30
0.0
  0
LWPOLYLINE
  5
109
100
AcDbEntity
  8
0
 62
1
100
AcDbPolyline
 90
5
 70
1
 10
3.000000
 20
327.000000
 30
0.0
 10
3.000000
 20
332.000000
 30
0.0
 10
6.000000
 20
332.000000
 30
0.0
 10
6.000000
 20
327.000000
 30
0.0
 10
3.000000
 20
327.000000
 30
0.0
  0
LWPOLYLINE
  5
10a
100
AcDbEntity
  8
0
 62
1
100
AcDbPolyline
 90
5
 70
1
 10
50.500000
 20
317.000000
 30
0.0
 10
50.500000
 20
320.000000
 30
0.0
 10
60.500000
 20
320.000000
 30
0.0
 10
60.500000
 20
317.000000
 30
0.0
 10
50.500000
 20
317.000000
 30
0.0
  0
LWPOLYLINE
  5
10b
100
AcDbEntity
  8
0
 62
1
100
AcDbPolyline
 90
5
 70
1
 10
15.500000
 20
317.000000
 30
0.0
 10
15.500000
 20
320.000000
 30
0.0
 10
25.500000
 20
320.000000
 30
0.0
 10
25.500000
 20
317.000000
 30
0.0
 10
15.500000
 20
317.000000
 30
0.0
  0
LWPOLYLINE
  5
10c
100
AcDbEntity
  8
0
 62
1
100
AcDbPolyline
 90
5
 70
1
 10
50.500000
 20
303.000000
 30
0.0
 10
50.500000
 20
306.000000
 30
0.0
 10
60.500000
 20
306.000000
 30
0.0
 10
60.500000
 20
303.000000
 30
0.0
 10
50.500000
 20
303.000000
 30
0.0
  0
LWPOLYLINE
  5
10d
100
AcDbEntity
  8
0
 62
1
100
AcDbPolyline
 90
5
 70
1
 10
15.500000
 20
303.000000
 30
0.0
 10
15.500000
 20
306.000000
 30
0.0
 10
25.500000
 20
306.000000
 30
0.0
 10
25.500000
 20
303.000000
 30
0.0
 10
15.500000
 20
303.000000
 30
0.0
  0
LWPOLYLINE
  5
10e
100
AcDbEntity
  8
0
 62
1
100
AcDbPolyline
 90
5
 70
1
 10
3.000000
 20
291.000000
 30
0.0
 10
3.000000
 20
296.000000
 30
0.0
 10
6.000000
 20
296.000000
 30
0.0
 10
6.000000
 20
291.000000
 30
0.0
 10
3.000000
 20
291.000000
 30
0.0
  0
LWPOLYLINE
  5
10f
100
AcDbEntity
  8
0
 62
1
100
AcDbPolyline
 90
5
 70
1
 10
70.000000
 20
291.000000
 30
0.0
 10
70.000000
 20
296.000000
 30
0.0
 10
73.000000
 20
296.000000
 30
0.0
 10
73.000000
 20
291.000000
 30
0.0
 10
70.000000
 20
291.000000
 30
0.0
  0
LWPOLYLINE
  5
110
100
AcDbEntity
  8
0
 62
1
100
AcDbPolyline
 90
5
 70
1
 10
70.000000
 20
266.000000
 30
0.0
 10
70.000000
 20
271.000000
 30
0.0
 10
73.000000
 20
271.000000
 30
0.0
 10
73.000000
 20
266.000000
 30
0.0
 10
70.000000
 20
266.000000
 30
0.0
  0
LWPOLYLINE
  5
111
100
AcDbEntity
  8
0
 62
1
100
AcDbPolyline
 90
5
 70
1
 10
3.000000
 20
266.000000
 30
0.0
 10
3.000000
 20
271.000000
 30
0.0
 10
6.000000
 20
271.000000
 30
0.0
 10
6.000000
 20
266.000000
 30
0.0
 10
3.000000
 20
266.000000
 30
0.0
  0
LWPOLYLINE
  5
112
100
AcDbEntity
  8
0
 62
1
100
AcDbPolyline
 90
5
 70
1
 10
50.500000
 20
256.000000
 30
0.0
 10
50.500000
 20
259.000000
 30
0.0
 10
60.500000
 20
259.000000
 30
0.0
 10
60.500000
 20
256.000000
 30
0.0
 10
50.500000
 20
256.000000
 30
0.0
  0
LWPOLYLINE
  5
113
100
AcDbEntity
  8
0
 62
1
100
AcDbPolyline
 90
5
 70
1
 10
15.500000
 20
256.000000
 30
0.0
 10
15.500000
 20
259.000000
 30
0.0
 10
25.500000
 20
259.000000
 30
0.0
 10
25.500000
 20
256.000000
 30
0.0
 10
15.500000
 20
256.000000
 30
0.0
  0
SPLINE
  5
114
100
AcDbEntity
  8
0
 62
5
100
AcDbSpline
 70
8
 71
3
 72
8
 73
4
 74
0
 40
0
 40
0
 40
0
 40
0
 40
1
 40
1
 40
1
 40
1
 10
46.777445
 20
289.470960
 30
0.0
 10
47.217796
 20
289.256270
 30
0.0
 10
47.749634
 20
289.238320
 30
0.0
 10
48.198487
 20
289.455760
 30
0.0
  0
SPLINE
  5
115
100
AcDbEntity
  8
0
 62
5
100
AcDbSpline
 70
8
 71
3
 72
8
 73
4
 74
0
 40
0
 40
0
 40
0
 40
0
 40
1
 40
1
 40
1
 40
1
 10
48.198487
 20
289.455760
 30
0.0
 10
48.799827
 20
289.732220
 30
0.0
 10
49.179970
 20
290.402490
 30
0.0
 10
49.120277
 20
291.059460
 30
0.0
  0
SPLINE
  5
116
100
AcDbEntity
  8
0
 62
5
100
AcDbSpline
 70
8
 71
3
 72
8
 73
4
 74
0
 40
0
 40
0
 40
0
 40
0
 40
1
 40
1
 40
1
 40
1
 10
49.120277
 20
291.059460
 30
0.0
 10
49.066957
 20
291.723890
 30
0.0
 10
48.567476
 20
292.328560
 30
0.0
 10
47.916229
 20
292.487640
 30
0.0
  0
SPLINE
  5
117
100
AcDbEntity
  8
0
 62
5
100
AcDbSpline
 70
8
 71
3
 72
8
 73
4
 74
0
 40
0
 40
0
 40
0
 40
0
 40
1
 40
1
 40
1
 40
1
 10
47.916229
 20
292.487640
 30
0.0
 10
47.422444
 20
292.613680
 30
0.0
 10
46.879721
 20
292.504840
 30
0.0
 10
46.485320
 20
292.176250
 30
0.0
  0
LWPOLYLINE
  5
118
100
AcDbEntity
  8
0
 62
5
100
AcDbPolyline
 90
5
 70
1
 10
46.040938
 20
291.007470
 30
0.0
 10
47.666332
 20
291.007470
 30
0.0
 10
47.666332
 20
290.340800
 30
0.0
 10
46.777445
 20
290.340800
 30
0.0
 10
46.777445
 20
289.470960
 30
0.0
  0
SPLINE
  5
119
100
AcDbEntity
  8
0
 62
5
100
AcDbSpline
 70
8
 71
3
 72
8
 73
4
 74
0
 40
0
 40
0
 40
0
 40
0
 40
1
 40
1
 40
1
 40
1
 10
46.485320
 20
293.046090
 30
0.0
 10
47.313034
 20
293.453220
 30
0.0
 10
48.381862
 20
293.310100
 30
0.0
 10
49.067290
 20
292.686840
 30
0.0
  0
SPLINE
  5
11a
100
AcDbEntity
  8
0
 62
5
100
AcDbSpline
 70
8
 71
3
 72
8
 73
4
 74
0
 40
0
 40
0
 40
0
 40
0
 40
1
 40
1
 40
1
 40
1
 10
49.067290
 20
292.686840
 30
0.0
 10
49.653620
 20
292.176390
 30
0.0
 10
49.954243
 20
291.365580
 30
0.0
 10
49.841001
 20
290.596410
 30
0.0
  0
SPLINE
  5
11b
100
AcDbEntity
  8
0
 62
5
100
AcDbSpline
 70
8
 71
3
 72
8
 73
4
 74
0
 40
0
 40
0
 40
0
 40
0
 40
1
 40
1
 40
1
 40
1
 10
49.841001
 20
290.596410
 30
0.0
 10
49.722727
 20
289.644740
 30
0.0
 10
48.959691
 20
288.821210
 30
0.0
 10
48.025005
 20
288.619640
 30
0.0
  0
SPLINE
  5
11c
100
AcDbEntity
  8
0
 62
5
100
AcDbSpline
 70
8
 71
3
 72
8
 73
4
 74
0
 40
0
 40
0
 40
0
 40
0
 40
1
 40
1
 40
1
 40
1
 10
48.025005
 20
288.619640
 30
0.0
 10
47.227210
 20
288.548040
 30
0.0
 10
46.602229
 20
288.668240
 30
0.0
 10
46.040844
 20
289.078000
 30
0.0
  0
SPLINE
  5
11d
100
AcDbEntity
  8
0
 62
5
100
AcDbSpline
 70
8
 71
3
 72
8
 73
4
 74
0
 40
0
 40
0
 40
0
 40
0
 40
1
 40
1
 40
1
 40
1
 10
46.040844
 20
289.078000
 30
0.0
 10
46.040907
 20
289.720890
 30
0.0
 10
46.040719
 20
290.366010
 30
0.0
 10
46.040938
 20
291.007510
 30
0.0
  0
LWPOLYLINE
  5
11e
100
AcDbEntity
  8
0
 62
5
100
AcDbPolyline
 90
2
 70
1
 10
46.485320
 20
292.176250
 30
0.0
 10
46.485320
 20
293.046090
 30
0.0
  0
LWPOLYLINE
  5
11f
100
AcDbEntity
  8
0
 62
5
100
AcDbPolyline
 90
2
 70
1
 10
46.040938
 20
291.007510
 30
0.0
 10
46.040938
 20
291.007470
 30
0.0
  0
LWPOLYLINE
  5
120
100
AcDbEntity
  8
0
 62
5
100
AcDbPolyline
 90
9
 70
1
 10
36.528258
 20
288.600850
 30
0.0
 10
35.721910
 20
288.600850
 30
0.0
 10
37.766351
 20
293.527820
 30
0.0
 10
39.817140
 20
288.600850
 30
0.0
 10
39.004444
 20
288.600850
 30
0.0
 10
38.604444
 20
289.610370
 30
0.0
 10
36.928257
 20
289.610370
 30
0.0
 10
36.528258
 20
288.600850
 30
0.0
 10
36.528258
 20
288.600850
 30
0.0
  0
SPLINE
  5
121
100
AcDbEntity
  8
0
 62
5
100
AcDbSpline
 70
8
 71
3
 72
8
 73
4
 74
0
 40
0
 40
0
 40
0
 40
0
 40
1
 40
1
 40
1
 40
1
 10
27.699703
 20
288.600850
 30
0.0
 10
27.255259
 20
288.600850
 30
0.0
 10
26.842562
 20
288.734180
 30
0.0
 10
26.531451
 20
288.975450
 30
0.0
  0
SPLINE
  5
122
100
AcDbEntity
  8
0
 62
5
100
AcDbSpline
 70
8
 71
3
 72
8
 73
4
 74
0
 40
0
 40
0
 40
0
 40
0
 40
1
 40
1
 40
1
 40
1
 10
26.531451
 20
288.975450
 30
0.0
 10
26.353674
 20
289.115130
 30
0.0
 10
26.213991
 20
289.286560
 30
0.0
 10
26.112404
 20
289.483390
 30
0.0
  0
SPLINE
  5
123
100
AcDbEntity
  8
0
 62
5
100
AcDbSpline
 70
8
 71
3
 72
8
 73
4
 74
0
 40
0
 40
0
 40
0
 40
0
 40
1
 40
1
 40
1
 40
1
 10
26.112404
 20
289.483390
 30
0.0
 10
26.010817
 20
289.699260
 30
0.0
 10
25.953675
 20
289.940530
 30
0.0
 10
25.953675
 20
290.200850
 30
0.0
  0
LWPOLYLINE
  5
124
100
AcDbEntity
  8
0
 62
5
100
AcDbPolyline
 90
5
 70
1
 10
38.337778
 20
290.270690
 30
0.0
 10
37.766351
 20
291.705600
 30
0.0
 10
37.194923
 20
290.270690
 30
0.0
 10
38.337778
 20
290.270690
 30
0.0
 10
38.337778
 20
290.270690
 30
0.0
  0
SPLINE
  5
125
100
AcDbEntity
  8
0
 62
5
100
AcDbSpline
 70
8
 71
3
 72
8
 73
4
 74
0
 40
0
 40
0
 40
0
 40
0
 40
1
 40
1
 40
1
 40
1
 10
26.696530
 20
290.200850
 30
0.0
 10
26.696530
 20
289.921480
 30
0.0
 10
26.791770
 20
289.705610
 30
0.0
 10
26.982244
 20
289.559580
 30
0.0
  0
SPLINE
  5
126
100
AcDbEntity
  8
0
 62
5
100
AcDbSpline
 70
8
 71
3
 72
8
 73
4
 74
0
 40
0
 40
0
 40
0
 40
0
 40
1
 40
1
 40
1
 40
1
 10
26.982244
 20
289.559580
 30
0.0
 10
27.166371
 20
289.419890
 30
0.0
 10
27.426688
 20
289.337360
 30
0.0
 10
27.699703
 20
289.337360
 30
0.0
  0
SPLINE
  5
127
100
AcDbEntity
  8
0
 62
5
100
AcDbSpline
 70
8
 71
3
 72
8
 73
4
 74
0
 40
0
 40
0
 40
0
 40
0
 40
1
 40
1
 40
1
 40
1
 10
27.699703
 20
289.337360
 30
0.0
 10
27.979068
 20
289.337360
 30
0.0
 10
28.239385
 20
289.419860
 30
0.0
 10
28.417162
 20
289.559580
 30
0.0
  0
SPLINE
  5
128
100
AcDbEntity
  8
0
 62
5
100
AcDbSpline
 70
8
 71
3
 72
8
 73
4
 74
0
 40
0
 40
0
 40
0
 40
0
 40
1
 40
1
 40
1
 40
1
 10
28.417162
 20
289.559580
 30
0.0
 10
28.607638
 20
289.705610
 30
0.0
 10
28.709225
 20
289.921480
 30
0.0
 10
28.709225
 20
290.200850
 30
0.0
  0
LWPOLYLINE
  5
129
100
AcDbEntity
  8
0
 62
5
100
AcDbPolyline
 90
4
 70
1
 10
25.953675
 20
290.200850
 30
0.0
 10
25.953675
 20
293.311950
 30
0.0
 10
26.696530
 20
293.311950
 30
0.0
 10
26.696530
 20
290.200850
 30
0.0
  0
SPLINE
  5
12a
100
AcDbEntity
  8
0
 62
5
100
AcDbSpline
 70
8
 71
3
 72
8
 73
4
 74
0
 40
0
 40
0
 40
0
 40
0
 40
1
 40
1
 40
1
 40
1
 10
29.445731
 20
290.200850
 30
0.0
 10
29.445731
 20
289.940530
 30
0.0
 10
29.394941
 20
289.699260
 30
0.0
 10
29.287002
 20
289.483390
 30
0.0
  0
SPLINE
  5
12b
100
AcDbEntity
  8
0
 62
5
100
AcDbSpline
 70
8
 71
3
 72
8
 73
4
 74
0
 40
0
 40
0
 40
0
 40
0
 40
1
 40
1
 40
1
 40
1
 10
29.287002
 20
289.483390
 30
0.0
 10
29.191762
 20
289.286560
 30
0.0
 10
29.052081
 20
289.115130
 30
0.0
 10
28.867955
 20
288.975450
 30
0.0
  0
SPLINE
  5
12c
100
AcDbEntity
  8
0
 62
5
100
AcDbSpline
 70
8
 71
3
 72
8
 73
4
 74
0
 40
0
 40
0
 40
0
 40
0
 40
1
 40
1
 40
1
 40
1
 10
28.867955
 20
288.975450
 30
0.0
 10
28.556844
 20
288.734180
 30
0.0
 10
28.144147
 20
288.600850
 30
0.0
 10
27.699703
 20
288.600850
 30
0.0
  0
LWPOLYLINE
  5
12d
100
AcDbEntity
  8
0
 62
5
100
AcDbPolyline
 90
4
 70
1
 10
28.709225
 20
290.200850
 30
0.0
 10
28.709225
 20
293.311950
 30
0.0
 10
29.445731
 20
293.311950
 30
0.0
 10
29.445731
 20
290.200850
 30
0.0
  0
LWPOLYLINE
  5
12e
100
AcDbEntity
  8
0
 62
5
100
AcDbPolyline
 90
3
 70
1
 10
27.699703
 20
288.600850
 30
0.0
 10
27.699703
 20
288.600850
 30
0.0
 10
27.699703
 20
288.600850
 30
0.0
  0
LWPOLYLINE
  5
12f
100
AcDbEntity
  8
0
 62
5
100
AcDbPolyline
 90
10
 70
1
 10
46.136176
 20
278.226270
 30
0.0
 10
46.136176
 20
283.153240
 30
0.0
 10
46.879032
 20
283.153240
 30
0.0
 10
46.879032
 20
280.131020
 30
0.0
 10
49.837757
 20
283.375460
 30
0.0
 10
49.837757
 20
278.442140
 30
0.0
 10
49.101250
 20
278.442140
 30
0.0
 10
49.101250
 20
281.470700
 30
0.0
 10
46.136176
 20
278.226270
 30
0.0
 10
46.136176
 20
278.226270
 30
0.0
  0
LWPOLYLINE
  5
130
100
AcDbEntity
  8
0
 62
5
100
AcDbPolyline
 90
10
 70
1
 10
36.253655
 20
283.153240
 30
0.0
 10
39.586982
 20
283.153240
 30
0.0
 10
39.586982
 20
282.492920
 30
0.0
 10
38.291747
 20
282.492920
 30
0.0
 10
38.291747
 20
278.442140
 30
0.0
 10
37.548891
 20
278.442140
 30
0.0
 10
37.548891
 20
282.492920
 30
0.0
 10
36.253655
 20
282.492920
 30
0.0
 10
36.253655
 20
283.153240
 30
0.0
 10
36.253655
 20
283.153240
 30
0.0
  0
LWPOLYLINE
  5
131
100
AcDbEntity
  8
0
 62
5
100
AcDbPolyline
 90
11
 70
1
 10
28.347321
 20
282.492920
 30
0.0
 10
26.252087
 20
282.492920
 30
0.0
 10
26.252087
 20
283.153240
 30
0.0
 10
29.083827
 20
283.153240
 30
0.0
 10
29.083827
 20
278.442140
 30
0.0
 10
28.347321
 20
278.442140
 30
0.0
 10
28.347321
 20
280.569120
 30
0.0
 10
26.626689
 20
280.569120
 30
0.0
 10
26.626689
 20
281.235780
 30
0.0
 10
28.347321
 20
281.235780
 30
0.0
 10
28.347321
 20
282.492920
 30
0.0
  0
LWPOLYLINE
  5
132
100
AcDbEntity
  8
0
 62
5
100
AcDbPolyline
 90
9
 70
1
 10
46.686969
 20
268.283430
 30
0.0
 10
45.880621
 20
268.283430
 30
0.0
 10
47.925062
 20
273.210400
 30
0.0
 10
49.975852
 20
268.283430
 30
0.0
 10
49.163155
 20
268.283430
 30
0.0
 10
48.763155
 20
269.292950
 30
0.0
 10
47.086968
 20
269.292950
 30
0.0
 10
46.686969
 20
268.283430
 30
0.0
 10
46.686969
 20
268.283430
 30
0.0
  0
SPLINE
  5
133
100
AcDbEntity
  8
0
 62
5
100
AcDbSpline
 70
8
 71
3
 72
8
 73
4
 74
0
 40
0
 40
0
 40
0
 40
0
 40
1
 40
1
 40
1
 40
1
 10
35.980640
 20
269.636080
 30
0.0
 10
36.303821
 20
269.247910
 30
0.0
 10
36.854183
 20
268.988570
 30
0.0
 10
37.282225
 20
268.982110
 30
0.0
  0
SPLINE
  5
134
100
AcDbEntity
  8
0
 62
5
100
AcDbSpline
 70
8
 71
3
 72
8
 73
4
 74
0
 40
0
 40
0
 40
0
 40
0
 40
1
 40
1
 40
1
 40
1
 10
37.282225
 20
268.982110
 30
0.0
 10
37.713970
 20
268.982110
 30
0.0
 10
38.120318
 20
269.153540
 30
0.0
 10
38.425080
 20
269.458300
 30
0.0
  0
SPLINE
  5
135
100
AcDbEntity
  8
0
 62
5
100
AcDbSpline
 70
8
 71
3
 72
8
 73
4
 74
0
 40
0
 40
0
 40
0
 40
0
 40
1
 40
1
 40
1
 40
1
 10
38.425080
 20
269.458300
 30
0.0
 10
38.729841
 20
269.763060
 30
0.0
 10
38.901269
 20
270.169410
 30
0.0
 10
38.901269
 20
270.601160
 30
0.0
  0
SPLINE
  5
136
100
AcDbEntity
  8
0
 62
5
100
AcDbSpline
 70
8
 71
3
 72
8
 73
4
 74
0
 40
0
 40
0
 40
0
 40
0
 40
1
 40
1
 40
1
 40
1
 10
38.901269
 20
270.601160
 30
0.0
 10
38.901269
 20
271.032900
 30
0.0
 10
38.729841
 20
271.439250
 30
0.0
 10
38.425080
 20
271.744010
 30
0.0
  0
SPLINE
  5
137
100
AcDbEntity
  8
0
 62
5
100
AcDbSpline
 70
8
 71
3
 72
8
 73
4
 74
0
 40
0
 40
0
 40
0
 40
0
 40
1
 40
1
 40
1
 40
1
 10
38.425080
 20
271.744010
 30
0.0
 10
38.120318
 20
272.055120
 30
0.0
 10
37.713970
 20
272.220200
 30
0.0
 10
37.282225
 20
272.220200
 30
0.0
  0
SPLINE
  5
138
100
AcDbEntity
  8
0
 62
5
100
AcDbSpline
 70
8
 71
3
 72
8
 73
4
 74
0
 40
0
 40
0
 40
0
 40
0
 40
1
 40
1
 40
1
 40
1
 10
37.282225
 20
272.220200
 30
0.0
 10
36.901273
 20
272.220200
 30
0.0
 10
36.545718
 20
272.093220
 30
0.0
 10
36.260004
 20
271.858300
 30
0.0
  0
LWPOLYLINE
  5
139
100
AcDbEntity
  8
0
 62
5
100
AcDbPolyline
 90
5
 70
1
 10
48.496489
 20
269.953270
 30
0.0
 10
47.925062
 20
271.388180
 30
0.0
 10
47.353634
 20
269.953270
 30
0.0
 10
48.496489
 20
269.953270
 30
0.0
 10
48.496489
 20
269.953270
 30
0.0
  0
SPLINE
  5
13a
100
AcDbEntity
  8
0
 62
5
100
AcDbSpline
 70
8
 71
3
 72
8
 73
4
 74
0
 40
0
 40
0
 40
0
 40
0
 40
1
 40
1
 40
1
 40
1
 10
36.260004
 20
272.728140
 30
0.0
 10
37.179633
 20
273.118740
 30
0.0
 10
38.303552
 20
272.885430
 30
0.0
 10
38.945714
 20
272.270990
 30
0.0
  0
SPLINE
  5
13b
100
AcDbEntity
  8
0
 62
5
100
AcDbSpline
 70
8
 71
3
 72
8
 73
4
 74
0
 40
0
 40
0
 40
0
 40
0
 40
1
 40
1
 40
1
 40
1
 10
38.945714
 20
272.270990
 30
0.0
 10
39.389658
 20
271.800020
 30
0.0
 10
39.633218
 20
271.199810
 30
0.0
 10
39.637776
 20
270.601150
 30
0.0
  0
SPLINE
  5
13c
100
AcDbEntity
  8
0
 62
5
100
AcDbSpline
 70
8
 71
3
 72
8
 73
4
 74
0
 40
0
 40
0
 40
0
 40
0
 40
1
 40
1
 40
1
 40
1
 10
39.637776
 20
270.601150
 30
0.0
 10
39.616696
 20
269.953210
 30
0.0
 10
39.366455
 20
269.364150
 30
0.0
 10
38.945714
 20
268.937660
 30
0.0
  0
SPLINE
  5
13d
100
AcDbEntity
  8
0
 62
5
100
AcDbSpline
 70
8
 71
3
 72
8
 73
4
 74
0
 40
0
 40
0
 40
0
 40
0
 40
1
 40
1
 40
1
 40
1
 10
38.945714
 20
268.937660
 30
0.0
 10
38.475338
 20
268.494190
 30
0.0
 10
37.881466
 20
268.250170
 30
0.0
 10
37.282225
 20
268.245600
 30
0.0
  0
SPLINE
  5
13e
100
AcDbEntity
  8
0
 62
5
100
AcDbSpline
 70
8
 71
3
 72
8
 73
4
 74
0
 40
0
 40
0
 40
0
 40
0
 40
1
 40
1
 40
1
 40
1
 10
37.282225
 20
268.245600
 30
0.0
 10
36.773253
 20
268.255600
 30
0.0
 10
36.380066
 20
268.406100
 30
0.0
 10
35.980640
 20
268.632900
 30
0.0
  0
LWPOLYLINE
  5
13f
100
AcDbEntity
  8
0
 62
5
100
AcDbPolyline
 90
2
 70
1
 10
36.260004
 20
271.858300
 30
0.0
 10
36.260004
 20
272.728140
 30
0.0
  0
LWPOLYLINE
  5
140
100
AcDbEntity
  8
0
 62
5
100
AcDbPolyline
 90
3
 70
1
 10
35.980640
 20
268.632900
 30
0.0
 10
35.980640
 20
269.636080
 30
0.0
 10
35.980640
 20
269.636080
 30
0.0
  0
LWPOLYLINE
  5
141
100
AcDbEntity
  8
0
 62
5
100
AcDbPolyline
 90
13
 70
1
 10
28.347321
 20
272.334210
 30
0.0
 10
26.258436
 20
272.334210
 30
0.0
 10
26.258436
 20
272.994530
 30
0.0
 10
29.083827
 20
272.994530
 30
0.0
 10
29.083827
 20
268.283430
 30
0.0
 10
26.258436
 20
268.283430
 30
0.0
 10
26.258436
 20
268.950090
 30
0.0
 10
28.347321
 20
268.950090
 30
0.0
 10
28.347321
 20
270.410410
 30
0.0
 10
26.626689
 20
270.410410
 30
0.0
 10
26.626689
 20
271.077070
 30
0.0
 10
28.347321
 20
271.077070
 30
0.0
 10
28.347321
 20
272.334210
 30
0.0
  0
LWPOLYLINE
  5
142
100
AcDbEntity
  8
0
 62
1
100
AcDbPolyline
 90
5
 70
1
 10
0.009567
 20
308.990452
 30
0.0
 10
75.990432
 20
308.990452
 30
0.0
 10
75.990432
 20
253.009548
 30
0.0
 10
0.009567
 20
253.009548
 30
0.0
 10
0.009567
 20
308.990452
 30
0.0
  0
SPLINE
  5
143
100
AcDbEntity
  8
0
 62
7
100
AcDbSpline
 70
8
 71
3
 72
8
 73
4
 74
0
 40
0
 40
0
 40
0
 40
0
 40
1
 40
1
 40
1
 40
1
 10
72.990431
 20
369.990450
 30
0.0
 10
74.652431
 20
369.990450
 30
0.0
 10
75.990431
 20
368.652450
 30
0.0
 10
75.990431
 20
366.990450
 30
0.0
  0
LWPOLYLINE
  5
144
100
AcDbEntity
  8
0
 62
7
100
AcDbPolyline
 90
6
 70
1
 10
3.009567
 20
369.990450
 30
0.0
 10
10.750123
 20
369.990450
 30
0.0
 10
10.750123
 20
351.333277
 30
0.0
 10
12.721728
 20
351.333277
 30
0.0
 10
12.749948
 20
369.990450
 30
0.0
 10
72.990431
 20
369.990450
 30
0.0
  0
SPLINE
  5
145
100
AcDbEntity
  8
0
 62
7
100
AcDbSpline
 70
8
 71
3
 72
8
 73
4
 74
0
 40
0
 40
0
 40
0
 40
0
 40
1
 40
1
 40
1
 40
1
 10
75.990431
 20
317.009544
 30
0.0
 10
75.990431
 20
315.347544
 30
0.0
 10
74.652431
 20
314.009544
 30
0.0
 10
72.990431
 20
314.009544
 30
0.0
  0
LWPOLYLINE
  5
146
100
AcDbEntity
  8
0
 62
7
100
AcDbPolyline
 90
2
 70
1
 10
75.990431
 20
366.990450
 30
0.0
 10
75.990431
 20
317.009544
 30
0.0
  0
SPLINE
  5
147
100
AcDbEntity
  8
0
 62
7
100
AcDbSpline
 70
8
 71
3
 72
8
 73
4
 74
0
 40
0
 40
0
 40
0
 40
0
 40
1
 40
1
 40
1
 40
1
 10
3.009565
 20
314.009544
 30
0.0
 10
1.347565
 20
314.009544
 30
0.0
 10
0.009565
 20
315.347544
 30
0.0
 10
0.009565
 20
317.009544
 30
0.0
  0
LWPOLYLINE
  5
148
100
AcDbEntity
  8
0
 62
7
100
AcDbPolyline
 90
2
 70
1
 10
72.990431
 20
314.009544
 30
0.0
 10
3.009565
 20
314.009544
 30
0.0
  0
SPLINE
  5
149
100
AcDbEntity
  8
0
 62
7
100
AcDbSpline
 70
8
 71
3
 72
8
 73
4
 74
0
 40
0
 40
0
 40
0
 40
0
 40
1
 40
1
 40
1
 40
1
 10
0.009565
 20
366.990450
 30
0.0
 10
0.009565
 20
368.652450
 30
0.0
 10
1.347565
 20
369.990450
 30
0.0
 10
3.009565
 20
369.990450
 30
0.0
  0
LWPOLYLINE
  5
14a
100
AcDbEntity
  8
0
 62
7
100
AcDbPolyline
 90
2
 70
1
 10
0.009565
 20
317.009544
 30
0.0
 10
0.009565
 20
366.990450
 30
0.0
  0
LWPOLYLINE
  5
14b
100
AcDbEntity
  8
0
 62
7
100
AcDbPolyline
 90
2
 70
1
 10
3.009565
 20
369.990450
 30
0.0
 10
3.009567
 20
369.990450
 30
0.0
  0
ENDSEC
  0
SECTION
  2
OBJECTS
  0
DICTIONARY
  5
C
330
0
100
AcDbDictionary
  3
ACAD_GROUP
350
D
  3
ACAD_MLINESTYLE
350
17
  0
DICTIONARY
  5
D
330
C
100
AcDbDictionary
  0
DICTIONARY
  5
1A
330
C
100
AcDbDictionary
  0
DICTIONARY
  5
17
330
C
100
AcDbDictionary
  3
STANDARD
350
18
  0
DICTIONARY
  5
19
330
C
100
AcDbDictionary
  0
ENDSEC
  0
EOF
