<?xml version="1.0" standalone="no"?>
<!DOCTYPE svg PUBLIC "-//W3C//DTD SVG 1.1//EN" "http://www.w3.org/Graphics/SVG/1.1/DTD/svg11.dtd">
<svg width="76mm" height="216mm" viewBox="0 -216 76 216" xmlns="http://www.w3.org/2000/svg" version="1.1">
<title>OpenSCAD Model</title>
<path d="
M 49,-176 L 54,-176 L 54,-181.25 L 57,-181.25 L 57,-186.25 L 54,-186.25
 L 54,-192.8 L 51.5,-192.8 L 51.5,-191.75 L 49,-191.75 L 49,-192.8 L 47,-192.8
 L 47,-196.2 L 49,-196.2 L 49,-197.25 L 51.5,-197.25 L 51.5,-196.2 L 54,-196.2
 L 54,-202.75 L 57,-202.75 L 57,-207.75 L 54,-207.75 L 54,-213 L 49,-213
 L 49,-216 L 39,-216 L 39,-213 L 34,-213 L 34,-207.75 L 31,-207.75
 L 31,-202.75 L 34,-202.75 L 34,-196.2 L 36.5,-196.2 L 36.5,-197.25 L 39,-197.25
 L 39,-196.2 L 41,-196.2 L 41,-192.8 L 39,-192.8 L 39,-191.75 L 36.5,-191.75
 L 36.5,-192.8 L 34,-192.8 L 34,-186.25 L 31,-186.25 L 31,-181.25 L 34,-181.25
 L 34,-176 L 39,-176 L 39,-173 L 49,-173 z
M 18,-176 L 23,-176 L 23,-181.25 L 26,-181.25 L 26,-186.25 L 23,-186.25
 L 23,-192.8 L 20.5,-192.8 L 20.5,-191.75 L 18,-191.75 L 18,-192.8 L 16,-192.8
 L 16,-196.2 L 18,-196.2 L 18,-197.25 L 20.5,-197.25 L 20.5,-196.2 L 23,-196.2
 L 23,-202.75 L 26,-202.75 L 26,-207.75 L 23,-207.75 L 23,-213 L 18,-213
 L 18,-216 L 8,-216 L 8,-213 L 3,-213 L 3,-207.75 L 0,-207.75
 L 0,-202.75 L 3,-202.75 L 3,-196.2 L 5.5,-196.2 L 5.5,-197.25 L 8,-197.25
 L 8,-196.2 L 10,-196.2 L 10,-192.8 L 8,-192.8 L 8,-191.75 L 5.5,-191.75
 L 5.5,-192.8 L 3,-192.8 L 3,-186.25 L 0,-186.25 L 0,-181.25 L 3,-181.25
 L 3,-176 L 8,-176 L 8,-173 L 18,-173 z
M 25.5,-142 L 36.3,-142 L 36.3,-144.5 L 35.25,-144.5 L 35.25,-147 L 36.3,-147
 L 36.3,-149 L 39.7,-149 L 39.7,-147 L 40.75,-147 L 40.75,-144.5 L 39.7,-144.5
 L 39.7,-142 L 50.5,-142 L 50.5,-139 L 60.5,-139 L 60.5,-142 L 73,-142
 L 73,-147 L 70,-147 L 70,-157 L 73,-157 L 73,-162 L 60.5,-162
 L 60.5,-165 L 50.5,-165 L 50.5,-162 L 39.7,-162 L 39.7,-159.5 L 40.75,-159.5
 L 40.75,-157 L 39.7,-157 L 39.7,-155 L 36.3,-155 L 36.3,-157 L 35.25,-157
 L 35.25,-159.5 L 36.3,-159.5 L 36.3,-162 L 25.5,-162 L 25.5,-165 L 20.5,-165
 L 20.5,-162 L 3,-162 L 3,-157 L 6,-157 L 6,-147 L 3,-147
 L 3,-142 L 15.5,-142 L 15.5,-139 L 25.5,-139 z
M 25.5,-111 L 36.3,-111 L 36.3,-113.5 L 35.25,-113.5 L 35.25,-116 L 36.3,-116
 L 36.3,-118 L 39.7,-118 L 39.7,-116 L 40.75,-116 L 40.75,-113.5 L 39.7,-113.5
 L 39.7,-111 L 50.5,-111 L 50.5,-108 L 60.5,-108 L 60.5,-111 L 73,-111
 L 73,-116 L 70,-116 L 70,-126 L 73,-126 L 73,-131 L 60.5,-131
 L 60.5,-134 L 50.5,-134 L 50.5,-131 L 39.7,-131 L 39.7,-128.5 L 40.75,-128.5
 L 40.75,-126 L 39.7,-126 L 39.7,-124 L 36.3,-124 L 36.3,-126 L 35.25,-126
 L 35.25,-128.5 L 36.3,-128.5 L 36.3,-131 L 25.5,-131 L 25.5,-134 L 15.5,-134
 L 15.5,-131 L 3,-131 L 3,-126 L 6,-126 L 6,-116 L 3,-116
 L 3,-111 L 15.5,-111 L 15.5,-108 L 25.5,-108 z
M 76,-103 L 12.75,-103 L 12.75,-86.6667 L 10.75,-86.6667 L 10.75,-103 L 0,-103
 L 0,-54 L 76,-54 z
M 20.5,-97 L 20.5,-100 L 25.5,-100 L 25.5,-97 z
M 50.5,-97 L 50.5,-100 L 60.5,-100 L 60.5,-97 z
M 37.15,-97.0278 L 36.3,-98.5 L 37.15,-99.9722 L 38.85,-99.9722 L 39.7,-98.5 L 38.85,-97.0278
 z
M 50.0292,-92.7946 L 50.0292,-94.2053 L 51.3708,-94.6413 L 52.2,-93.5 L 51.3708,-92.3587 z
M 24.0292,-92.7946 L 24.0292,-94.2053 L 25.3708,-94.6413 L 26.2,-93.5 L 25.3708,-92.3587 z
M 3,-86.75 L 3,-91.75 L 6,-91.75 L 6,-86.75 z
M 70,-86.75 L 70,-91.75 L 73,-91.75 L 73,-86.75 z
M 3.02776,-77.65 L 3.02776,-79.35 L 4.5,-80.2 L 5.97223,-79.35 L 5.97223,-77.65 L 4.5,-76.8
 z
M 70.0278,-77.65 L 70.0278,-79.35 L 71.5,-80.2 L 72.9722,-79.35 L 72.9722,-77.65 L 71.5,-76.8
 z
M 70,-65.25 L 70,-70.25 L 73,-70.25 L 73,-65.25 z
M 3,-65.25 L 3,-70.25 L 6,-70.25 L 6,-65.25 z
M 24.0292,-62.7946 L 24.0292,-64.2053 L 25.3708,-64.6413 L 26.2,-63.5 L 25.3708,-62.3587 z
M 50.0292,-62.7946 L 50.0292,-64.2053 L 51.3708,-64.6413 L 52.2,-63.5 L 51.3708,-62.3587 z
M 50.5,-57 L 50.5,-60 L 60.5,-60 L 60.5,-57 z
M 15.5,-57 L 15.5,-60 L 25.5,-60 L 25.5,-57 z
M 37.15,-57.0278 L 36.3,-58.5 L 37.15,-59.9722 L 38.85,-59.9722 L 39.7,-58.5 L 38.85,-57.0278
 z
M 76,-49 L 0,-49 L 0,-0 L 76,-0 z
M 50.5,-43 L 50.5,-46 L 60.5,-46 L 60.5,-43 z
M 15.5,-43 L 15.5,-46 L 25.5,-46 L 25.5,-43 z
M 37.15,-43.0278 L 36.3,-44.5 L 37.15,-45.9722 L 38.85,-45.9722 L 39.7,-44.5 L 38.85,-43.0278
 z
M 3,-32.75 L 3,-37.75 L 6,-37.75 L 6,-32.75 z
M 70,-32.75 L 70,-37.75 L 73,-37.75 L 73,-32.75 z
M 65.09,-32.5527 L 64.24,-34.025 L 65.09,-35.4972 L 66.79,-35.4972 L 67.64,-34.025 L 66.79,-32.5527
 z
M 9.20999,-32.5527 L 8.35999,-34.025 L 9.20999,-35.4972 L 10.91,-35.4972 L 11.76,-34.025 L 10.91,-32.5527
 z
M 70.0278,-23.65 L 70.0278,-25.35 L 71.5,-26.2 L 72.9722,-25.35 L 72.9722,-23.65 L 71.5,-22.8
 z
M 3.02776,-23.65 L 3.02776,-25.35 L 4.5,-26.2 L 5.97223,-25.35 L 5.97223,-23.65 L 4.5,-22.8
 z
M 65.09,-13.5027 L 64.24,-14.975 L 65.09,-16.4472 L 66.79,-16.4472 L 67.64,-14.975 L 66.79,-13.5027
 z
M 9.20999,-13.5027 L 8.35999,-14.975 L 9.20999,-16.4472 L 10.91,-16.4472 L 11.76,-14.975 L 10.91,-13.5027
 z
M 3,-11.25 L 3,-16.25 L 6,-16.25 L 6,-11.25 z
M 70,-11.25 L 70,-16.25 L 73,-16.25 L 73,-11.25 z
M 15.5,-3 L 15.5,-6 L 25.5,-6 L 25.5,-3 z
M 50.5,-3 L 50.5,-6 L 60.5,-6 L 60.5,-3 z
M 37.15,-3.02776 L 36.3,-4.5 L 37.15,-5.97223 L 38.85,-5.97223 L 39.7,-4.5 L 38.85,-3.02776
 z
" stroke="black" fill="lightgray" stroke-width="0.5"/></svg>
