<?xml version="1.0" encoding="UTF-8" standalone="no"?>
<svg
   xmlns:sketch="http://www.bohemiancoding.com/sketch/ns"
   xmlns:dc="http://purl.org/dc/elements/1.1/"
   xmlns:cc="http://creativecommons.org/ns#"
   xmlns:rdf="http://www.w3.org/1999/02/22-rdf-syntax-ns#"
   xmlns:svg="http://www.w3.org/2000/svg"
   xmlns="http://www.w3.org/2000/svg"
   xmlns:sodipodi="http://sodipodi.sourceforge.net/DTD/sodipodi-0.dtd"
   xmlns:inkscape="http://www.inkscape.org/namespaces/inkscape"
   width="76mm"
   height="253mm"
   viewBox="0 -253 76 253"
   version="1.1"
   id="svg2"
   inkscape:version="0.91 r13725"
   sodipodi:docname="servo-driver-camera-mount-raw.svg">
  <metadata
     id="metadata12">
    <rdf:RDF>
      <cc:Work
         rdf:about="">
        <dc:format>image/svg+xml</dc:format>
        <dc:type
           rdf:resource="http://purl.org/dc/dcmitype/StillImage" />
      </cc:Work>
    </rdf:RDF>
  </metadata>
  <defs
     id="defs10" />
  <sodipodi:namedview
     pagecolor="#ffffff"
     bordercolor="#666666"
     borderopacity="1"
     objecttolerance="10"
     gridtolerance="10"
     guidetolerance="10"
     inkscape:pageopacity="0"
     inkscape:pageshadow="2"
     inkscape:window-width="1511"
     inkscape:window-height="1022"
     id="namedview8"
     showgrid="false"
     inkscape:zoom="0.52651735"
     inkscape:cx="120.77677"
     inkscape:cy="396.93313"
     inkscape:window-x="31"
     inkscape:window-y="27"
     inkscape:window-maximized="0"
     inkscape:current-layer="svg2" />
  <title
     id="title4">OpenSCAD Model</title>
  <path
     d="m 61,-206 9,0 0,-7 3,0 0,-5 -3,0 0,-8.3 -2.5,0 0,1.05 -2.5,0 0,-1.05 -2,0 0,-3.4 2,0 0,-1.05 2.5,0 0,1.05 2.5,0 0,-8.3 3,0 0,-5 -3,0 0,-7 -9,0 0,-3 -10,0 0,3 -9,0 0,7 -3,0 0,5 3,0 0,8.3 2.5,0 0,-1.05 2.5,0 0,1.05 2,0 0,3.4 -2,0 0,1.05 -2.5,0 0,-1.05 -2.5,0 0,8.3 -3,0 0,5 3,0 0,7 9,0 0,3 10,0 z"
     id="path4216"
     style="fill:none;stroke:#000000;stroke-opacity:1;stroke-width:0.28222223;stroke-miterlimit:4;stroke-dasharray:none" />
  <path
     d="m 22,-206 9,0 0,-7 3,0 0,-5 -3,0 0,-8.3 -2.5,0 0,1.05 -2.5,0 0,-1.05 -2,0 0,-3.4 2,0 0,-1.05 2.5,0 0,1.05 2.5,0 0,-8.3 3,0 0,-5 -3,0 0,-7 -9,0 0,-3 -10,0 0,3 -9,0 0,7 -3,0 0,5 3,0 0,8.3 2.5,0 0,-1.05 2.5,0 0,1.05 2,0 0,3.4 -2,0 0,1.05 -2.5,0 0,-1.05 -2.5,0 0,8.3 -3,0 0,5 3,0 0,7 9,0 0,3 10,0 z"
     id="path4214"
     style="fill:none;stroke:#000000;stroke-opacity:1;stroke-width:0.28222223;stroke-miterlimit:4;stroke-dasharray:none" />
  <path
     d="m 25.5,-164 10.8,0 0,-2.5 -1.05,0 0,-2.5 1.05,0 0,-2 3.4,0 0,2 1.05,0 0,2.5 -1.05,0 0,2.5 10.8,0 0,3 10,0 0,-3 12.5,0 0,-9 -3,0 0,-10 3,0 0,-9 -12.5,0 0,-3 -10,0 0,3 -10.8,0 0,2.5 1.05,0 0,2.5 -1.05,0 0,2 -3.4,0 0,-2 -1.05,0 0,-2.5 1.05,0 0,-2.5 -10.8,0 0,-3 -5,0 0,3 -17.5,0 0,9 3,0 0,10 -3,0 0,9 12.5,0 0,3 10,0 z"
     id="path4212"
     style="fill:none;stroke:#000000;stroke-opacity:1;stroke-width:0.28222223;stroke-miterlimit:4;stroke-dasharray:none" />
  <path
     d="m 25.5,-125 10.8,0 0,-2.5 -1.05,0 0,-2.5 1.05,0 0,-2 3.4,0 0,2 1.05,0 0,2.5 -1.05,0 0,2.5 10.8,0 0,3 10,0 0,-3 12.5,0 0,-9 -3,0 0,-10 3,0 0,-9 -12.5,0 0,-3 -10,0 0,3 -10.8,0 0,2.5 1.05,0 0,2.5 -1.05,0 0,2 -3.4,0 0,-2 -1.05,0 0,-2.5 1.05,0 0,-2.5 -10.8,0 0,-3 -10,0 0,3 -12.5,0 0,9 3,0 0,10 -3,0 0,9 12.5,0 0,3 10,0 z"
     id="path4208"
     style="fill:none;stroke:#000000;stroke-opacity:1;stroke-width:0.28222223;stroke-miterlimit:4;stroke-dasharray:none" />
  <path
     d="m 50.5,-111 0,-3 10,0 0,3 z"
     id="path4204"
     style="fill:none;stroke:#ff0000;stroke-opacity:1;stroke-width:0.28222223;stroke-miterlimit:4;stroke-dasharray:none" />
  <path
     d="m 20.5,-111 0,-3 5,0 0,3 z"
     id="path4202"
     style="fill:none;stroke:#ff0000;stroke-opacity:1;stroke-width:0.28222223;stroke-miterlimit:4;stroke-dasharray:none" />
  <path
     d="m 3,-99 0,-5 3,0 0,5 z"
     id="path4194"
     style="fill:none;stroke:#ff0000;stroke-opacity:1;stroke-width:0.28222223;stroke-miterlimit:4;stroke-dasharray:none" />
  <path
     d="m 70,-99 0,-5 3,0 0,5 z"
     id="path4192"
     style="fill:none;stroke:#ff0000;stroke-opacity:1;stroke-width:0.28222223;stroke-miterlimit:4;stroke-dasharray:none" />
  <path
     d="m 70,-74 0,-5 3,0 0,5 z"
     id="path4186"
     style="fill:none;stroke:#ff0000;stroke-opacity:1;stroke-width:0.28222223;stroke-miterlimit:4;stroke-dasharray:none" />
  <path
     d="m 3,-74 0,-5 3,0 0,5 z"
     id="path4184"
     style="fill:none;stroke:#ff0000;stroke-opacity:1;stroke-width:0.28222223;stroke-miterlimit:4;stroke-dasharray:none" />
  <path
     d="m 50.5,-64 0,-3 10,0 0,3 z"
     id="path4178"
     style="fill:none;stroke:#ff0000;stroke-opacity:1;stroke-width:0.28222223;stroke-miterlimit:4;stroke-dasharray:none" />
  <path
     d="m 15.5,-64 0,-3 10,0 0,3 z"
     id="path4176"
     style="fill:none;stroke:#ff0000;stroke-opacity:1;stroke-width:0.28222223;stroke-miterlimit:4;stroke-dasharray:none" />
  <path
     d="m 50.5,-50 0,-3 10,0 0,3 z"
     id="path4170"
     style="fill:none;stroke:#ff0000;stroke-opacity:1;stroke-width:0.28222223;stroke-miterlimit:4;stroke-dasharray:none" />
  <path
     d="m 15.5,-50 0,-3 10,0 0,3 z"
     id="path4168"
     style="fill:none;stroke:#ff0000;stroke-opacity:1;stroke-width:0.28222223;stroke-miterlimit:4;stroke-dasharray:none" />
  <path
     d="m 3,-38 0,-5 3,0 0,5 z"
     id="path4164"
     style="fill:none;stroke:#ff0000;stroke-opacity:1;stroke-width:0.28222223;stroke-miterlimit:4;stroke-dasharray:none" />
  <path
     d="m 70,-38 0,-5 3,0 0,5 z"
     id="path4162"
     style="fill:none;stroke:#ff0000;stroke-opacity:1;stroke-width:0.28222223;stroke-miterlimit:4;stroke-dasharray:none" />
  <path
     d="m 70,-13 0,-5 3,0 0,5 z"
     id="path4148"
     style="fill:none;stroke:#ff0000;stroke-opacity:1;stroke-width:0.28222223;stroke-miterlimit:4;stroke-dasharray:none" />
  <path
     d="m 3,-13 0,-5 3,0 0,5 z"
     id="path4146"
     style="fill:none;stroke:#ff0000;stroke-opacity:1;stroke-width:0.28222223;stroke-miterlimit:4;stroke-dasharray:none" />
  <path
     d="m 50.5,-3 0,-3 10,0 0,3 z"
     id="path4144"
     style="fill:none;stroke:#ff0000;stroke-opacity:1;stroke-width:0.28222223;stroke-miterlimit:4;stroke-dasharray:none" />
  <path
     d="m 15.5,-3 0,-3 10,0 0,3 z"
     id="path4142"
     style="fill:none;stroke:#ff0000;stroke-opacity:1;stroke-width:0.28222223;stroke-miterlimit:4;stroke-dasharray:none" />
  <ellipse
     style="opacity:1;fill:none;fill-opacity:1;stroke:#ff0000;stroke-width:0.12084308;stroke-miterlimit:4;stroke-dasharray:none;stroke-opacity:1"
     id="path4218"
     cx="10.059995"
     cy="-37.524948"
     rx="1.3895786"
     ry="1.3895785" />
  <ellipse
     ry="1.3895785"
     rx="1.3895786"
     cy="-18.474951"
     cx="10.059995"
     id="ellipse4220"
     style="opacity:1;fill:none;fill-opacity:1;stroke:#ff0000;stroke-width:0.12084308;stroke-miterlimit:4;stroke-dasharray:none;stroke-opacity:1" />
  <ellipse
     style="opacity:1;fill:none;fill-opacity:1;stroke:#ff0000;stroke-width:0.12084308;stroke-miterlimit:4;stroke-dasharray:none;stroke-opacity:1"
     id="ellipse4222"
     cx="65.940002"
     cy="-18.474951"
     rx="1.3895786"
     ry="1.3895785" />
  <ellipse
     ry="1.3895785"
     rx="1.3895786"
     cy="-37.524948"
     cx="65.940002"
     id="ellipse4224"
     style="opacity:1;fill:none;fill-opacity:1;stroke:#ff0000;stroke-width:0.12084308;stroke-miterlimit:4;stroke-dasharray:none;stroke-opacity:1" />
  <ellipse
     style="opacity:1;fill:none;fill-opacity:1;stroke:#ff0000;stroke-width:0.1694593;stroke-miterlimit:4;stroke-dasharray:none;stroke-opacity:1"
     id="path4226"
     cx="38"
     cy="-51.5"
     rx="1.6152705"
     ry="1.6152704" />
  <ellipse
     ry="1.6152704"
     rx="1.6152705"
     cy="-28"
     cx="4.4999952"
     id="ellipse4228"
     style="opacity:1;fill:none;fill-opacity:1;stroke:#ff0000;stroke-width:0.1694593;stroke-miterlimit:4;stroke-dasharray:none;stroke-opacity:1" />
  <ellipse
     style="opacity:1;fill:none;fill-opacity:1;stroke:#ff0000;stroke-width:0.1694593;stroke-miterlimit:4;stroke-dasharray:none;stroke-opacity:1"
     id="ellipse4230"
     cx="38"
     cy="-4.4999952"
     rx="1.6152705"
     ry="1.6152704" />
  <ellipse
     ry="1.6152704"
     rx="1.6152705"
     cy="-28"
     cx="71.5"
     id="ellipse4232"
     style="opacity:1;fill:none;fill-opacity:1;stroke:#ff0000;stroke-width:0.1694593;stroke-miterlimit:4;stroke-dasharray:none;stroke-opacity:1" />
  <ellipse
     ry="1.6152704"
     rx="1.6152705"
     cy="-65.5"
     cx="38"
     id="ellipse4234"
     style="opacity:1;fill:none;fill-opacity:1;stroke:#ff0000;stroke-width:0.1694593;stroke-miterlimit:4;stroke-dasharray:none;stroke-opacity:1" />
  <ellipse
     style="opacity:1;fill:none;fill-opacity:1;stroke:#ff0000;stroke-width:0.1694593;stroke-miterlimit:4;stroke-dasharray:none;stroke-opacity:1"
     id="ellipse4236"
     cx="4.4999952"
     cy="-89"
     rx="1.6152705"
     ry="1.6152704" />
  <ellipse
     ry="1.6152704"
     rx="1.6152705"
     cy="-112.5"
     cx="38"
     id="ellipse4238"
     style="opacity:1;fill:none;fill-opacity:1;stroke:#ff0000;stroke-width:0.1694593;stroke-miterlimit:4;stroke-dasharray:none;stroke-opacity:1" />
  <ellipse
     style="opacity:1;fill:none;fill-opacity:1;stroke:#ff0000;stroke-width:0.1694593;stroke-miterlimit:4;stroke-dasharray:none;stroke-opacity:1"
     id="ellipse4240"
     cx="71.5"
     cy="-89"
     rx="1.6152705"
     ry="1.6152704" />
  <circle
     style="opacity:1;fill:none;fill-opacity:1;stroke:#ff0000;stroke-width:0.17660826;stroke-miterlimit:4;stroke-dasharray:none;stroke-opacity:1"
     id="path4242"
     cx="24.331264"
     cy="-104.8"
     r="1.1116959" />
  <circle
     r="1.1116959"
     cy="-104.8"
     cx="51.931263"
     id="circle4244"
     style="opacity:1;fill:none;fill-opacity:1;stroke:#ff0000;stroke-width:0.17660826;stroke-miterlimit:4;stroke-dasharray:none;stroke-opacity:1" />
  <circle
     style="opacity:1;fill:none;fill-opacity:1;stroke:#ff0000;stroke-width:0.17660826;stroke-miterlimit:4;stroke-dasharray:none;stroke-opacity:1"
     id="circle4246"
     cx="51.931255"
     cy="-73.199997"
     r="1.1116959" />
  <circle
     r="1.1116959"
     cy="-73.199997"
     cx="24.331255"
     id="circle4248"
     style="opacity:1;fill:none;fill-opacity:1;stroke:#ff0000;stroke-width:0.17660826;stroke-miterlimit:4;stroke-dasharray:none;stroke-opacity:1" />
  <ellipse
     style="opacity:1;fill:none;fill-opacity:1;stroke:#ff0000;stroke-width:0.20646252;stroke-miterlimit:4;stroke-dasharray:none;stroke-opacity:1"
     id="path4250"
     cx="55.570499"
     cy="-180.8"
     rx="3.7967691"
     ry="3.7967687" />
  <g
     id="g4318"
     transform="matrix(-1,0,0,1,52.187431,173.10448)"
     style="stroke:#0000ff;stroke-opacity:1">
    <path
       sodipodi:nodetypes="cccccccccccccccc"
       inkscape:connector-curvature="0"
       id="G"
       d="m 6.1464926,-211.11195 -1.625394,0 0,0.66667 0.888887,0 0,0.86984 c -0.440351,0.21469 -0.972189,0.23264 -1.421042,0.0152 -0.60134,-0.27646 -0.981483,-0.94673 -0.92179,-1.6037 0.05332,-0.66443 0.552801,-1.2691 1.204048,-1.42818 0.493785,-0.12604 1.036508,-0.0172 1.430909,0.31139 l 0,-0.86984 c -0.827714,-0.40713 -1.896542,-0.26401 -2.58197,0.35925 -0.58633,0.51045 -0.886953,1.32126 -0.773711,2.09043 0.118274,0.95167 0.88131,1.7752 1.815996,1.97677 0.797795,0.0716 1.422776,-0.0486 1.984161,-0.45836 -6.3e-5,-0.64289 1.25e-4,-1.28801 -9.4e-5,-1.92951 z"
       style="fill:none;fill-opacity:1;fill-rule:evenodd;stroke:#0000ff;stroke-width:0.28222224;stroke-miterlimit:4;stroke-dasharray:none;stroke-opacity:1" />
    <path
       sketch:type="MSShapeGroup"
       id="A"
       d="m 15.659173,-208.70533 0.806348,0 -2.044441,-4.92697 -2.050789,4.92697 0.812696,0 0.4,-1.00952 1.676187,0 0.399999,1.00952 z m -1.80952,-1.66984 0.571427,-1.43491 0.571428,1.43491 -1.142855,0 z"
       inkscape:connector-curvature="0"
       style="fill:none;fill-opacity:1;fill-rule:evenodd;stroke:#0000ff;stroke-width:0.28222224;stroke-miterlimit:4;stroke-dasharray:none;stroke-opacity:1" />
    <path
       sketch:type="MSShapeGroup"
       id="U"
       d="m 24.487728,-208.70533 c 0.444444,0 0.857141,-0.13333 1.168252,-0.3746 0.177777,-0.13968 0.31746,-0.31111 0.419047,-0.50794 0.101587,-0.21587 0.158729,-0.45714 0.158729,-0.71746 l 0,-3.1111 -0.742855,0 0,3.1111 c 0,0.27937 -0.09524,0.49524 -0.285714,0.64127 -0.184127,0.13969 -0.444444,0.22222 -0.717459,0.22222 -0.279365,0 -0.539682,-0.0825 -0.717459,-0.22222 -0.190476,-0.14603 -0.292063,-0.3619 -0.292063,-0.64127 l 0,-3.1111 -0.736506,0 0,3.1111 c 0,0.26032 0.05079,0.50159 0.158729,0.71746 0.09524,0.19683 0.234921,0.36826 0.419047,0.50794 0.311111,0.24127 0.723808,0.3746 1.168252,0.3746 l 0,0 z"
       inkscape:connector-curvature="0"
       style="fill:none;fill-opacity:1;fill-rule:evenodd;stroke:#0000ff;stroke-width:0.28222224;stroke-miterlimit:4;stroke-dasharray:none;stroke-opacity:1" />
    <path
       sketch:type="MSShapeGroup"
       id="N"
       d="m 6.0512546,-198.33075 0,-4.92697 -0.742856,0 0,3.02222 -2.958725,-3.24444 0,4.93332 0.736507,0 0,-3.02856 2.965074,3.24443 z"
       inkscape:connector-curvature="0"
       style="fill:none;fill-opacity:1;fill-rule:evenodd;stroke:#0000ff;stroke-width:0.28222224;stroke-miterlimit:4;stroke-dasharray:none;stroke-opacity:1" />
    <path
       sketch:type="MSShapeGroup"
       id="T"
       d="m 15.933776,-203.25772 -3.333327,0 0,0.66032 1.295235,0 0,4.05078 0.742856,0 0,-4.05078 1.295236,0 0,-0.66032 z"
       inkscape:connector-curvature="0"
       style="fill:none;fill-opacity:1;fill-rule:evenodd;stroke:#0000ff;stroke-width:0.28222224;stroke-miterlimit:4;stroke-dasharray:none;stroke-opacity:1" />
    <path
       sodipodi:nodetypes="ccccccccccc"
       sketch:type="MSShapeGroup"
       id="F"
       d="m 23.84011,-202.5974 2.095234,0 0,-0.66032 -2.83174,0 0,4.7111 0.736506,0 0,-2.12698 1.720632,0 0,-0.66666 -1.720632,0 z"
       inkscape:connector-curvature="0"
       style="fill:none;fill-opacity:1;fill-rule:evenodd;stroke:#0000ff;stroke-width:0.28222224;stroke-miterlimit:4;stroke-dasharray:none;stroke-opacity:1" />
    <path
       sketch:type="MSShapeGroup"
       id="path4405"
       d="m 5.5004616,-188.38791 0.806348,0 -2.044441,-4.92697 -2.05079,4.92697 0.812697,0 0.4,-1.00952 1.676187,0 0.399999,1.00952 z m -1.80952,-1.66984 0.571427,-1.43491 0.571428,1.43491 -1.142855,0 z"
       inkscape:connector-curvature="0"
       style="fill:none;fill-opacity:1;fill-rule:evenodd;stroke:#0000ff;stroke-width:0.28222224;stroke-miterlimit:4;stroke-dasharray:none;stroke-opacity:1" />
    <path
       sodipodi:nodetypes="ccsscsccccccccc"
       sketch:type="MSShapeGroup"
       id="C"
       d="m 16.206791,-189.74056 c -0.323181,0.38817 -0.873543,0.64751 -1.301585,0.65397 -0.431745,0 -0.838093,-0.17143 -1.142855,-0.47619 -0.304761,-0.30476 -0.476189,-0.71111 -0.476189,-1.14286 0,-0.43174 0.171428,-0.83809 0.476189,-1.14285 0.304762,-0.31111 0.71111,-0.47619 1.142855,-0.47619 0.380952,0 0.736507,0.12698 1.022221,0.3619 l 0,-0.86984 c -0.919629,-0.3906 -2.043548,-0.15729 -2.68571,0.45715 -0.443944,0.47097 -0.687504,1.07118 -0.692062,1.66984 0.02108,0.64794 0.271321,1.237 0.692062,1.66349 0.470376,0.44347 1.064248,0.68749 1.663489,0.69206 0.508972,-0.01 0.902159,-0.1605 1.301585,-0.3873 l 0,-1.00318 z"
       inkscape:connector-curvature="0"
       style="fill:none;fill-opacity:1;fill-rule:evenodd;stroke:#0000ff;stroke-width:0.28222224;stroke-miterlimit:4;stroke-dasharray:none;stroke-opacity:1" />
    <path
       sodipodi:nodetypes="ccccccccccccc"
       sketch:type="MSShapeGroup"
       id="E"
       d="m 23.84011,-192.43869 2.088885,0 0,-0.66032 -2.825391,0 0,4.7111 2.825391,0 0,-0.66666 -2.088885,0 0,-1.46032 1.720632,0 0,-0.66666 -1.720632,0 z"
       inkscape:connector-curvature="0"
       style="fill:none;fill-opacity:1;fill-rule:evenodd;stroke:#0000ff;stroke-width:0.28222224;stroke-miterlimit:4;stroke-dasharray:none;stroke-opacity:1" />
  </g>
  <rect
     style="opacity:1;fill:none;fill-opacity:1;stroke:#ff0000;stroke-width:0.30126512;stroke-miterlimit:4;stroke-dasharray:none;stroke-opacity:1"
     id="rect4329"
     width="75.980865"
     height="55.980904"
     x="0.0095672607"
     y="-55.990452"
     rx="3"
     ry="3" />
  <path
     style="opacity:1;fill:none;fill-opacity:1;stroke:#000000;stroke-width:0.30126512;stroke-miterlimit:4;stroke-dasharray:none;stroke-opacity:1"
     d="m 3.0095673,-116.99045 7.7405557,0 0,18.657173 1.971605,0 0.02822,-18.657173 60.240483,0 c 1.662,0 3,1.338 3,3 l 0,49.980906 c 0,1.662 -1.338,3 -3,3 l -69.9808657,0 c -1.662,0 -3.00000004,-1.338 -3.00000004,-3 l 0,-49.980906 c 0,-1.662 1.33800004,-3 3.00000004,-3 z"
     id="rect4331"
     inkscape:connector-curvature="0"
     sodipodi:nodetypes="sccccssssssss" />
</svg>
