<?xml version="1.0" encoding="UTF-8" standalone="no"?>
<svg
   xmlns:sketch="http://www.bohemiancoding.com/sketch/ns"
   xmlns:dc="http://purl.org/dc/elements/1.1/"
   xmlns:cc="http://creativecommons.org/ns#"
   xmlns:rdf="http://www.w3.org/1999/02/22-rdf-syntax-ns#"
   xmlns:svg="http://www.w3.org/2000/svg"
   xmlns="http://www.w3.org/2000/svg"
   xmlns:sodipodi="http://sodipodi.sourceforge.net/DTD/sodipodi-0.dtd"
   xmlns:inkscape="http://www.inkscape.org/namespaces/inkscape"
   width="76mm"
   height="216mm"
   viewBox="0 -216 76 216"
   version="1.1"
   id="svg2"
   inkscape:version="0.91 r13725"
   sodipodi:docname="servo-driver-camera-mount.svg">
  <metadata
     id="metadata12">
    <rdf:RDF>
      <cc:Work
         rdf:about="">
        <dc:format>image/svg+xml</dc:format>
        <dc:type
           rdf:resource="http://purl.org/dc/dcmitype/StillImage" />
      </cc:Work>
    </rdf:RDF>
  </metadata>
  <defs
     id="defs10" />
  <sodipodi:namedview
     pagecolor="#ffffff"
     bordercolor="#666666"
     borderopacity="1"
     objecttolerance="10"
     gridtolerance="10"
     guidetolerance="10"
     inkscape:pageopacity="0"
     inkscape:pageshadow="2"
     inkscape:window-width="1525"
     inkscape:window-height="904"
     id="namedview8"
     showgrid="false"
     inkscape:zoom="1.7443131"
     inkscape:cx="99.111768"
     inkscape:cy="75.804896"
     inkscape:window-x="79"
     inkscape:window-y="27"
     inkscape:window-maximized="0"
     inkscape:current-layer="svg2" />
  <title
     id="title4">OpenSCAD Model</title>
  <path
     d="m 54,-181.25 3,0 0,-5 -3,0 0,-6.55 -2.5,0 0,1.05 -2.5,0 0,-1.05 -2,0 0,-3.4 2,0 0,-1.05 2.5,0 0,1.05 2.5,0 0,-6.55 3,0 0,-5 -3,0 0,-8.25 -20,0 0,8.25 -3,0 0,5 3,0 0,6.55 2.5,0 0,-1.05 2.5,0 0,1.05 2,0 0,3.4 -2,0 0,1.05 -2.5,0 0,-1.05 -2.5,0 0,6.55 -3,0 0,5 3,0 0,8.25 20,0 z"
     id="path4214"
     style="stroke:#000000;stroke-opacity:1;stroke-width:0.28222223;stroke-miterlimit:4;stroke-dasharray:none;fill:none" />
  <path
     d="m 23,-181.25 3,0 0,-5 -3,0 0,-6.55 -2.5,0 0,1.05 -2.5,0 0,-1.05 -2,0 0,-3.4 2,0 0,-1.05 2.5,0 0,1.05 2.5,0 0,-6.55 3,0 0,-5 -3,0 0,-8.25 -20,0 0,8.25 -3,0 0,5 3,0 0,6.55 2.5,0 0,-1.05 2.5,0 0,1.05 2,0 0,3.4 -2,0 0,1.05 -2.5,0 0,-1.05 -2.5,0 0,6.55 -3,0 0,5 3,0 0,8.25 20,0 z"
     id="path4212"
     style="stroke:#000000;stroke-opacity:1;stroke-width:0.28222223;stroke-miterlimit:4;stroke-dasharray:none;fill:none" />
  <path
     d="m 25.5,-142 10.8,0 0,-2.5 -1.05,0 0,-2.5 1.05,0 0,-2 3.4,0 0,2 1.05,0 0,2.5 -1.05,0 0,2.5 10.8,0 0,3 10,0 0,-3 12.5,0 0,-20 -12.5,0 0,-3 -10,0 0,3 -10.8,0 0,2.5 1.05,0 0,2.5 -1.05,0 0,2 -3.4,0 0,-2 -1.05,0 0,-2.5 1.05,0 0,-2.5 -10.8,0 0,-3 -5,0 0,3 -17.5,0 0,20 12.5,0 0,3 10,0 z"
     id="path4210"
     style="stroke:#000000;stroke-opacity:1;stroke-width:0.28222223;stroke-miterlimit:4;stroke-dasharray:none;fill:none" />
  <path
     d="m 25.5,-111 10.8,0 0,-2.5 -1.05,0 0,-2.5 1.05,0 0,-2 3.4,0 0,2 1.05,0 0,2.5 -1.05,0 0,2.5 10.8,0 0,3 10,0 0,-3 12.5,0 0,-20 -12.5,0 0,-3 -10,0 0,3 -10.8,0 0,2.5 1.05,0 0,2.5 -1.05,0 0,2 -3.4,0 0,-2 -1.05,0 0,-2.5 1.05,0 0,-2.5 -10.8,0 0,-3 -10,0 0,3 -12.5,0 0,20 12.5,0 0,3 10,0 z"
     id="path4208"
     style="stroke:#000000;stroke-opacity:1;stroke-width:0.28222223;stroke-miterlimit:4;stroke-dasharray:none;fill:none" />
  <path
     inkscape:connector-curvature="0"
     d="m 76,-103 -63.25,0 0,16.3333 -2,0 0,-16.3333 -10.75,0 0,49 76,0 z"
     id="path4206"
     style="fill:none;stroke:#000000;stroke-width:0.28222224;stroke-miterlimit:4;stroke-dasharray:none;stroke-opacity:1" />
  <path
     inkscape:connector-curvature="0"
     d="m 20.5,-97 0,-3 5,0 0,3 z"
     id="path4204"
     style="fill:none;stroke:#ff0000;stroke-width:0.28222224;stroke-miterlimit:4;stroke-dasharray:none;stroke-opacity:1" />
  <path
     inkscape:connector-curvature="0"
     d="m 50.5,-97 0,-3 10,0 0,3 z"
     id="path4202"
     style="fill:none;stroke:#ff0000;stroke-width:0.28222224;stroke-miterlimit:4;stroke-dasharray:none;stroke-opacity:1" />
  <path
     inkscape:connector-curvature="0"
     d="m 3,-86.75 0,-5 3,0 0,5 z"
     id="path4194"
     style="fill:none;stroke:#ff0000;stroke-width:0.28222224;stroke-miterlimit:4;stroke-dasharray:none;stroke-opacity:1" />
  <path
     inkscape:connector-curvature="0"
     d="m 70,-86.75 0,-5 3,0 0,5 z"
     id="path4192"
     style="fill:none;stroke:#ff0000;stroke-width:0.28222224;stroke-miterlimit:4;stroke-dasharray:none;stroke-opacity:1" />
  <path
     inkscape:connector-curvature="0"
     d="m 70,-65.25 0,-5 3,0 0,5 z"
     id="path4186"
     style="fill:none;stroke:#ff0000;stroke-width:0.28222224;stroke-miterlimit:4;stroke-dasharray:none;stroke-opacity:1" />
  <path
     inkscape:connector-curvature="0"
     d="m 3,-65.25 0,-5 3,0 0,5 z"
     id="path4184"
     style="fill:none;stroke:#ff0000;stroke-width:0.28222224;stroke-miterlimit:4;stroke-dasharray:none;stroke-opacity:1" />
  <path
     inkscape:connector-curvature="0"
     d="m 50.5,-57 0,-3 10,0 0,3 z"
     id="path4178"
     style="fill:none;stroke:#ff0000;stroke-width:0.28222224;stroke-miterlimit:4;stroke-dasharray:none;stroke-opacity:1" />
  <path
     inkscape:connector-curvature="0"
     d="m 15.5,-57 0,-3 10,0 0,3 z"
     id="path4176"
     style="fill:none;stroke:#ff0000;stroke-width:0.28222224;stroke-miterlimit:4;stroke-dasharray:none;stroke-opacity:1" />
  <path
     inkscape:connector-curvature="0"
     d="M 76,-49 0,-49 0,0 76,0 Z"
     id="path4172"
     style="fill:none;stroke:#000000;stroke-width:0.28222224;stroke-miterlimit:4;stroke-dasharray:none;stroke-opacity:1" />
  <path
     inkscape:connector-curvature="0"
     d="m 50.5,-43 0,-3 10,0 0,3 z"
     id="path4170"
     style="fill:none;stroke:#ff0000;stroke-width:0.28222224;stroke-miterlimit:4;stroke-dasharray:none;stroke-opacity:1" />
  <path
     inkscape:connector-curvature="0"
     d="m 15.5,-43 0,-3 10,0 0,3 z"
     id="path4168"
     style="fill:none;stroke:#ff0000;stroke-width:0.28222224;stroke-miterlimit:4;stroke-dasharray:none;stroke-opacity:1" />
  <path
     inkscape:connector-curvature="0"
     d="m 3,-32.75 0,-5 3,0 0,5 z"
     id="path4164"
     style="fill:none;stroke:#ff0000;stroke-width:0.28222224;stroke-miterlimit:4;stroke-dasharray:none;stroke-opacity:1" />
  <path
     inkscape:connector-curvature="0"
     d="m 70,-32.75 0,-5 3,0 0,5 z"
     id="path4162"
     style="fill:none;stroke:#ff0000;stroke-width:0.28222224;stroke-miterlimit:4;stroke-dasharray:none;stroke-opacity:1" />
  <path
     inkscape:connector-curvature="0"
     d="m 3,-11.25 0,-5 3,0 0,5 z"
     id="path4148"
     style="fill:none;stroke:#ff0000;stroke-width:0.28222224;stroke-miterlimit:4;stroke-dasharray:none;stroke-opacity:1" />
  <path
     inkscape:connector-curvature="0"
     d="m 70,-11.25 0,-5 3,0 0,5 z"
     id="path4146"
     style="fill:none;stroke:#ff0000;stroke-width:0.28222224;stroke-miterlimit:4;stroke-dasharray:none;stroke-opacity:1" />
  <path
     inkscape:connector-curvature="0"
     d="m 15.5,-3 0,-3 10,0 0,3 z"
     id="path4144"
     style="fill:none;stroke:#ff0000;stroke-width:0.28222224;stroke-miterlimit:4;stroke-dasharray:none;stroke-opacity:1" />
  <path
     inkscape:connector-curvature="0"
     d="m 50.5,-3 0,-3 10,0 0,3 z"
     id="path4142"
     style="fill:none;stroke:#ff0000;stroke-width:0.28222224;stroke-miterlimit:4;stroke-dasharray:none;stroke-opacity:1" />
  <ellipse
     ry="1.5667515"
     rx="1.5667516"
     cy="-34.024948"
     cx="65.940002"
     id="path4254"
     style="opacity:1;fill:none;fill-opacity:1;stroke:#ff0000;stroke-width:0.26649708;stroke-miterlimit:4;stroke-dasharray:none;stroke-opacity:1" />
  <ellipse
     style="opacity:1;fill:none;fill-opacity:1;stroke:#ff0000;stroke-width:0.26649708;stroke-miterlimit:4;stroke-dasharray:none;stroke-opacity:1"
     id="ellipse4265"
     cx="65.940002"
     cy="-14.97495"
     rx="1.5667516"
     ry="1.5667515" />
  <ellipse
     ry="1.5667515"
     rx="1.5667516"
     cy="-24.5"
     cx="71.5"
     id="ellipse4267"
     style="opacity:1;fill:none;fill-opacity:1;stroke:#ff0000;stroke-width:0.26649708;stroke-miterlimit:4;stroke-dasharray:none;stroke-opacity:1" />
  <ellipse
     style="opacity:1;fill:none;fill-opacity:1;stroke:#ff0000;stroke-width:0.26649708;stroke-miterlimit:4;stroke-dasharray:none;stroke-opacity:1"
     id="ellipse4269"
     cx="38"
     cy="-44.5"
     rx="1.5667516"
     ry="1.5667515" />
  <ellipse
     ry="1.5667515"
     rx="1.5667516"
     cy="-4.4999952"
     cx="38"
     id="ellipse4271"
     style="opacity:1;fill:none;fill-opacity:1;stroke:#ff0000;stroke-width:0.26649708;stroke-miterlimit:4;stroke-dasharray:none;stroke-opacity:1" />
  <ellipse
     style="opacity:1;fill:none;fill-opacity:1;stroke:#ff0000;stroke-width:0.26649708;stroke-miterlimit:4;stroke-dasharray:none;stroke-opacity:1"
     id="ellipse4273"
     cx="10.059995"
     cy="-34.024948"
     rx="1.5667516"
     ry="1.5667515" />
  <ellipse
     ry="1.5667515"
     rx="1.5667516"
     cy="-24.5"
     cx="4.4999952"
     id="ellipse4275"
     style="opacity:1;fill:none;fill-opacity:1;stroke:#ff0000;stroke-width:0.26649708;stroke-miterlimit:4;stroke-dasharray:none;stroke-opacity:1" />
  <ellipse
     style="opacity:1;fill:none;fill-opacity:1;stroke:#ff0000;stroke-width:0.26649708;stroke-miterlimit:4;stroke-dasharray:none;stroke-opacity:1"
     id="ellipse4277"
     cx="10.059995"
     cy="-14.97495"
     rx="1.5667516"
     ry="1.5667515" />
  <ellipse
     ry="1.5667515"
     rx="1.5667516"
     cy="-58.5"
     cx="38"
     id="ellipse4279"
     style="opacity:1;fill:none;fill-opacity:1;stroke:#ff0000;stroke-width:0.26649708;stroke-miterlimit:4;stroke-dasharray:none;stroke-opacity:1" />
  <ellipse
     style="opacity:1;fill:none;fill-opacity:1;stroke:#ff0000;stroke-width:0.26649708;stroke-miterlimit:4;stroke-dasharray:none;stroke-opacity:1"
     id="ellipse4281"
     cx="38"
     cy="-98.5"
     rx="1.5667516"
     ry="1.5667515" />
  <ellipse
     ry="1.5667515"
     rx="1.5667516"
     cy="-78.5"
     cx="71.5"
     id="ellipse4283"
     style="opacity:1;fill:none;fill-opacity:1;stroke:#ff0000;stroke-width:0.26649708;stroke-miterlimit:4;stroke-dasharray:none;stroke-opacity:1" />
  <ellipse
     style="opacity:1;fill:none;fill-opacity:1;stroke:#ff0000;stroke-width:0.26649708;stroke-miterlimit:4;stroke-dasharray:none;stroke-opacity:1"
     id="ellipse4285"
     cx="4.4999952"
     cy="-78.5"
     rx="1.5667516"
     ry="1.5667515" />
  <circle
     r="1.1059422"
     style="opacity:1;fill:none;fill-opacity:1;stroke:#ff0000;stroke-width:0.18811558;stroke-miterlimit:4;stroke-dasharray:none;stroke-opacity:1"
     id="ellipse4313"
     cx="51.131256"
     cy="-93.5" />
  <circle
     cy="-93.5"
     cx="25.131256"
     id="circle4315"
     style="opacity:1;fill:none;fill-opacity:1;stroke:#ff0000;stroke-width:0.18811558;stroke-miterlimit:4;stroke-dasharray:none;stroke-opacity:1"
     r="1.1059422" />
  <circle
     r="1.1059422"
     style="opacity:1;fill:none;fill-opacity:1;stroke:#ff0000;stroke-width:0.18811558;stroke-miterlimit:4;stroke-dasharray:none;stroke-opacity:1"
     id="circle4317"
     cx="25.131256"
     cy="-63.500004" />
  <circle
     cy="-63.500004"
     cx="51.131256"
     id="circle4319"
     style="opacity:1;fill:none;fill-opacity:1;stroke:#ff0000;stroke-width:0.18811558;stroke-miterlimit:4;stroke-dasharray:none;stroke-opacity:1"
     r="1.1059422" />
  <path
     style="fill:none;fill-opacity:1;fill-rule:evenodd;stroke:#ff00ff;stroke-width:0.28222224;stroke-miterlimit:4;stroke-dasharray:none;stroke-opacity:1"
     d="m 29.959061,-34.507458 -1.625394,0 0,0.666666 0.888887,0 0,0.869839 c -0.440351,0.214688 -0.972189,0.232638 -1.421042,0.01524 -0.60134,-0.27646 -0.981483,-0.946728 -0.92179,-1.603701 0.05332,-0.66443 0.552801,-1.269095 1.204048,-1.42818 0.493785,-0.126039 1.036508,-0.01716 1.430909,0.311388 l 0,-0.86984 c -0.827714,-0.407128 -1.896542,-0.26401 -2.58197,0.359252 -0.58633,0.510448 -0.886953,1.321264 -0.773711,2.090429 0.118274,0.951669 0.88131,1.775207 1.815996,1.976773 0.797795,0.07162 1.422776,-0.04861 1.984161,-0.458355 -6.3e-5,-0.642894 1.25e-4,-1.288011 -9.4e-5,-1.929515 z"
     id="G"
     inkscape:connector-curvature="0"
     sodipodi:nodetypes="cccccccccccccccc" />
  <path
     style="fill:none;fill-opacity:1;fill-rule:evenodd;stroke:#ff00ff;stroke-width:0.28222224;stroke-miterlimit:4;stroke-dasharray:none;stroke-opacity:1"
     inkscape:connector-curvature="0"
     d="m 39.471741,-32.10084 0.806348,0 -2.044441,-4.926975 -2.050789,4.926975 0.812696,0 0.4,-1.009522 1.676187,0 0.399999,1.009522 z m -1.80952,-1.669838 0.571427,-1.434918 0.571428,1.434918 -1.142855,0 z"
     id="A"
     sketch:type="MSShapeGroup" />
  <path
     style="fill:none;fill-opacity:1;fill-rule:evenodd;stroke:#ff00ff;stroke-width:0.28222224;stroke-miterlimit:4;stroke-dasharray:none;stroke-opacity:1"
     inkscape:connector-curvature="0"
     d="m 48.300296,-32.10084 c 0.444444,0 0.857141,-0.133333 1.168252,-0.374603 0.177777,-0.139682 0.31746,-0.31111 0.419047,-0.507935 0.101587,-0.215873 0.158729,-0.457142 0.158729,-0.717459 l 0,-3.111105 -0.742855,0 0,3.111105 c 0,0.279364 -0.09524,0.495237 -0.285714,0.641268 -0.184127,0.139683 -0.444444,0.222222 -0.717459,0.222222 -0.279365,0 -0.539682,-0.08254 -0.717459,-0.222222 -0.190476,-0.146031 -0.292063,-0.361904 -0.292063,-0.641268 l 0,-3.111105 -0.736506,0 0,3.111105 c 0,0.260317 0.05079,0.501586 0.158729,0.717459 0.09524,0.196825 0.234921,0.368253 0.419047,0.507935 0.311111,0.24127 0.723808,0.374603 1.168252,0.374603 l 0,0 z"
     id="U"
     sketch:type="MSShapeGroup" />
  <path
     style="fill:none;fill-opacity:1;fill-rule:evenodd;stroke:#ff00ff;stroke-width:0.28222224;stroke-miterlimit:4;stroke-dasharray:none;stroke-opacity:1"
     inkscape:connector-curvature="0"
     d="m 29.863823,-21.726258 0,-4.926974 -0.742856,0 0,3.022216 -2.958725,-3.244438 0,4.933324 0.736507,0 0,-3.028566 2.965074,3.244438 z"
     id="N"
     sketch:type="MSShapeGroup" />
  <path
     style="fill:none;fill-opacity:1;fill-rule:evenodd;stroke:#ff00ff;stroke-width:0.28222224;stroke-miterlimit:4;stroke-dasharray:none;stroke-opacity:1"
     inkscape:connector-curvature="0"
     d="m 39.746344,-26.653232 -3.333327,0 0,0.660316 1.295235,0 0,4.050786 0.742856,0 0,-4.050786 1.295236,0 0,-0.660316 z"
     id="T"
     sketch:type="MSShapeGroup" />
  <path
     style="fill:none;fill-opacity:1;fill-rule:evenodd;stroke:#ff00ff;stroke-width:0.28222224;stroke-miterlimit:4;stroke-dasharray:none;stroke-opacity:1"
     inkscape:connector-curvature="0"
     d="m 47.652678,-25.992916 2.095234,0 0,-0.660316 -2.83174,0 0,4.711102 0.736506,0 0,-2.12698 1.720632,0 0,-0.666666 -1.720632,0 z"
     id="F"
     sketch:type="MSShapeGroup"
     sodipodi:nodetypes="ccccccccccc" />
  <path
     style="fill:none;fill-opacity:1;fill-rule:evenodd;stroke:#ff00ff;stroke-width:0.28222224;stroke-miterlimit:4;stroke-dasharray:none;stroke-opacity:1"
     inkscape:connector-curvature="0"
     d="m 29.31303,-11.783421 0.806348,0 -2.044441,-4.926974 -2.05079,4.926974 0.812697,0 0.4,-1.009521 1.676187,0 0.399999,1.009521 z m -1.80952,-1.669838 0.571427,-1.434917 0.571428,1.434917 -1.142855,0 z"
     id="path4405"
     sketch:type="MSShapeGroup" />
  <path
     style="fill:none;fill-opacity:1;fill-rule:evenodd;stroke:#ff00ff;stroke-width:0.28222224;stroke-miterlimit:4;stroke-dasharray:none;stroke-opacity:1"
     inkscape:connector-curvature="0"
     d="m 40.019359,-13.136072 c -0.323181,0.388174 -0.873543,0.647512 -1.301585,0.653967 -0.431745,0 -0.838093,-0.171428 -1.142855,-0.476189 -0.304761,-0.304762 -0.476189,-0.71111 -0.476189,-1.142855 0,-0.431746 0.171428,-0.838094 0.476189,-1.142855 0.304762,-0.311111 0.71111,-0.47619 1.142855,-0.47619 0.380952,0 0.736507,0.126984 1.022221,0.361904 l 0,-0.869839 c -0.919629,-0.390606 -2.043548,-0.157296 -2.68571,0.457147 -0.443944,0.470969 -0.687504,1.071176 -0.692062,1.669838 0.02108,0.647941 0.271321,1.237002 0.692062,1.663488 0.470376,0.443476 1.064248,0.687499 1.663489,0.692062 0.508972,-0.01004 0.902159,-0.160496 1.301585,-0.3873 l 0,-1.003173 z"
     id="C"
     sketch:type="MSShapeGroup"
     sodipodi:nodetypes="ccsscsccccccccc" />
  <path
     style="fill:none;fill-opacity:1;fill-rule:evenodd;stroke:#ff00ff;stroke-width:0.28222224;stroke-miterlimit:4;stroke-dasharray:none;stroke-opacity:1"
     inkscape:connector-curvature="0"
     d="m 47.652678,-15.834206 2.088885,0 0,-0.660316 -2.825391,0 0,4.711101 2.825391,0 0,-0.666665 -2.088885,0 0,-1.460315 1.720632,0 0,-0.666665 -1.720632,0 z"
     id="E"
     sketch:type="MSShapeGroup"
     sodipodi:nodetypes="ccccccccccccc" />
</svg>
