<?xml version="1.0" standalone="no"?>
<!DOCTYPE svg PUBLIC "-//W3C//DTD SVG 1.1//EN" "http://www.w3.org/Graphics/SVG/1.1/DTD/svg11.dtd">
<svg width="316mm" height="276mm" viewBox="-138 -246 316 276" xmlns="http://www.w3.org/2000/svg" version="1.1">
<title>OpenSCAD Model</title>
<path d="
M -37.5,-6 L -32.75,-6 L -32.75,-8.5 L -31.7,-8.5 L -31.7,-9.5 L -28.3,-9.5
 L -28.3,-8.5 L -27.25,-8.5 L -27.25,-6 L -22.5,-6 L -22.5,-0 L -10.5,-0
 L -10.5,-6 L -3,-6 L -3,-126 L 3,-126 L 3,-6 L 10.5,-6
 L 10.5,-0 L 22.5,-0 L 22.5,-6 L 27.25,-6 L 27.25,-8.5 L 28.3,-8.5
 L 28.3,-9.5 L 31.7,-9.5 L 31.7,-8.5 L 32.75,-8.5 L 32.75,-6 L 37.5,-6
 L 37.5,-0 L 45,-0 L 45,-6 L 15,-46 L 15,-182 L 45,-222
 L 115,-222 L 115,-246 L 95,-246 L 95,-236 L 55,-236 L 55,-246
 L -55,-246 L -55,-236 L -95,-236 L -95,-246 L -115,-246 L -115,-222
 L -45,-222 L -15,-182 L -15,-46 L -45,-6 L -45,-0 L -37.5,-0
 z
M -78,14 L -78,-170 L -48,-210 L -48,-216 L -55.5,-216 L -55.5,-210
 L -70.5,-210 L -70.5,-216 L -82.5,-216 L -82.5,-210 L -103.5,-210 L -103.5,-216
 L -115.5,-216 L -115.5,-210 L -130.5,-210 L -130.5,-216 L -138,-216 L -138,-210
 L -108,-170 L -108,14 L -96,30 L -96,-90 L -90,-90 L -90,30
 z
M 122.721,-3.91547 L 138,-10.718 L 151.53,-20.5484 L 162.721,-32.9772 L 171.084,-47.4611 L 176.252,-63.3671
 L 178,-80 L 176.252,-96.6329 L 171.084,-112.539 L 162.721,-127.023 L 151.53,-139.452 L 138,-149.282
 L 122.721,-156.085 L 106.362,-159.562 L 89.6377,-159.562 L 73.2786,-156.085 L 58,-149.282 L 44.4695,-139.452
 L 33.2786,-127.023 L 24.9164,-112.539 L 19.7482,-96.6329 L 18,-80 L 19.7482,-63.3671 L 24.9164,-47.4611
 L 33.2786,-32.9772 L 44.4695,-20.5484 L 58,-10.718 L 73.2786,-3.91547 L 89.6377,-0.438248 L 106.362,-0.438248
 z
M 95,-117.5 L 95,-125 L 101,-125 L 101,-117.5 z
M 95,-90.5 L 95,-102.5 L 101,-102.5 L 101,-90.5 z
M 135.5,-77 L 135.5,-83 L 143,-83 L 143,-77 z
M 53,-77 L 53,-83 L 60.5,-83 L 60.5,-77 z
M 108.5,-77 L 108.5,-83 L 120.5,-83 L 120.5,-77 z
M 75.5,-77 L 75.5,-83 L 87.5,-83 L 87.5,-77 z
M 127.15,-78.5278 L 126.3,-80 L 127.15,-81.4722 L 128.85,-81.4722 L 129.7,-80 L 128.85,-78.5278
 z
M 67.15,-78.5278 L 66.3,-80 L 67.15,-81.4722 L 68.85,-81.4722 L 69.7,-80 L 68.85,-78.5278
 z
M 95,-57.5 L 95,-69.5 L 101,-69.5 L 101,-57.5 z
M 95,-35 L 95,-42.5 L 101,-42.5 L 101,-35 z
" stroke="black" fill="lightgray" stroke-width="0.5"/></svg>
