  0
SECTION
  2
HEADER
  9
$ACADVER
  1
AC1014
  9
$HANDSEED
  5
FFFF
  9
$MEASUREMENT
 70
     1
  0
ENDSEC
  0
SECTION
  2
TABLES
  0
TABLE
  2
VPORT
  5
8
330
0
100
AcDbSymbolTable
 70
     4
  0
VPORT
  5
2E
330
8
100
AcDbSymbolTableRecord
100
AcDbViewportTableRecord
  2
*ACTIVE
 70
     0
 10
0.0
 20
0.0
 11
1.0
 21
1.0
 12
210.0
 22
148.5
 13
0.0
 23
0.0
 14
10.0
 24
10.0
 15
10.0
 25
10.0
 16
0.0
 26
0.0
 36
1.0
 17
0.0
 27
0.0
 37
0.0
 40
341.0
 41
1.24
 42
50.0
 43
0.0
 44
0.0
 50
0.0
 51
0.0
 71
     0
 72
   100
 73
     1
 74
     3
 75
     0
 76
     0
 77
     0
 78
     0
  0
ENDTAB
  0
TABLE
  2
LTYPE
  5
5
330
0
100
AcDbSymbolTable
 70
     1
  0
LTYPE
  5
14
330
5
100
AcDbSymbolTableRecord
100
AcDbLinetypeTableRecord
  2
BYBLOCK
 70
     0
  3

 72
    65
 73
     0
 40
0.0
  0
LTYPE
  5
15
330
5
100
AcDbSymbolTableRecord
100
AcDbLinetypeTableRecord
  2
BYLAYER
 70
     0
  3

 72
    65
 73
     0
 40
0.0
  0
LTYPE
  5
16
330
5
100
AcDbSymbolTableRecord
100
AcDbLinetypeTableRecord
  2
CONTINUOUS
 70
     0
  3
Solid line
 72
    65
 73
     0
 40
0.0
  0
ENDTAB
  0
TABLE
  2
LAYER
  5
2
100
AcDbSymbolTable
 70
1
  0
LAYER
  5
50
100
AcDbSymbolTableRecord
100
AcDbLayerTableRecord
  2
0
 70
0
  6
CONTINUOUS
  0
ENDTAB
  0
TABLE
  2
STYLE
  5
3
330
0
100
AcDbSymbolTable
 70
     1
  0
STYLE
  5
11
330
3
100
AcDbSymbolTableRecord
100
AcDbTextStyleTableRecord
  2
STANDARD
 70
     0
 40
0.0
 41
1.0
 50
0.0
 71
     0
 42
2.5
  3
txt
  4

  0
ENDTAB
  0
TABLE
  2
VIEW
  5
6
330
0
100
AcDbSymbolTable
 70
     0
  0
ENDTAB
  0
TABLE
  2
UCS
  5
7
330
0
100
AcDbSymbolTable
 70
     0
  0
ENDTAB
  0
TABLE
  2
APPID
  5
9
330
0
100
AcDbSymbolTable
 70
     2
  0
APPID
  5
12
330
9
100
AcDbSymbolTableRecord
100
AcDbRegAppTableRecord
  2
ACAD
 70
     0
  0
ENDTAB
  0
TABLE
  2
DIMSTYLE
  5
A
330
0
100
AcDbSymbolTable
 70
     1
  0
DIMSTYLE
105
27
330
A
100
AcDbSymbolTableRecord
100
AcDbDimStyleTableRecord
  2
ISO-25
 70
     0
  3

  4

  5

  6

  7

 40
1.0
 41
2.5
 42
0.625
 43
3.75
 44
1.25
 45
0.0
 46
0.0
 47
0.0
 48
0.0
140
2.5
141
2.5
142
0.0
143
0.03937007874016
144
1.0
145
0.0
146
1.0
147
0.625
 71
     0
 72
     0
 73
     0
 74
     0
 75
     0
 76
     0
 77
     1
 78
     8
170
     0
171
     3
172
     1
173
     0
174
     0
175
     0
176
     0
177
     0
178
     0
270
     2
271
     2
272
     2
273
     2
274
     3
340
11
275
     0
280
     0
281
     0
282
     0
283
     0
284
     8
285
     0
286
     0
287
     3
288
     0
  0
ENDTAB
  0
TABLE
  2
BLOCK_RECORD
  5
1
330
0
100
AcDbSymbolTable
 70
     1
  0
BLOCK_RECORD
  5
1F
330
1
100
AcDbSymbolTableRecord
100
AcDbBlockTableRecord
  2
*MODEL_SPACE
  0
BLOCK_RECORD
  5
1B
330
1
100
AcDbSymbolTableRecord
100
AcDbBlockTableRecord
  2
*PAPER_SPACE
  0
ENDTAB
  0
ENDSEC
  0
SECTION
  2
BLOCKS
  0
BLOCK
  5
20
330
1F
100
AcDbEntity
  8
0
100
AcDbBlockBegin
  2
*MODEL_SPACE
 70
     0
 10
0.0
 20
0.0
 30
0.0
  3
*MODEL_SPACE
  1

  0
ENDBLK
  5
21
330
1F
100
AcDbEntity
  8
0
100
AcDbBlockEnd
  0
BLOCK
  5
1C
330
1B
100
AcDbEntity
 67
     1
  8
0
100
AcDbBlockBegin
  2
*PAPER_SPACE
  1

  0
ENDBLK
  5
1D
330
1B
100
AcDbEntity
 67
     1
  8
0
100
AcDbBlockEnd
  0
ENDSEC
  0
SECTION
  2
ENTITIES
  0
LWPOLYLINE
  5
100
100
AcDbEntity
  8
0
 62
7
100
AcDbPolyline
 90
53
 70
1
 10
67.000000
 20
475.000000
 30
0.0
 10
78.000000
 20
475.000000
 30
0.0
 10
78.000000
 20
482.000000
 30
0.0
 10
81.000000
 20
482.000000
 30
0.0
 10
81.000000
 20
487.000000
 30
0.0
 10
78.000000
 20
487.000000
 30
0.0
 10
78.000000
 20
495.300000
 30
0.0
 10
75.500000
 20
495.300000
 30
0.0
 10
75.500000
 20
494.250000
 30
0.0
 10
73.000000
 20
494.250000
 30
0.0
 10
73.000000
 20
495.300000
 30
0.0
 10
71.000000
 20
495.300000
 30
0.0
 10
71.000000
 20
498.700000
 30
0.0
 10
73.000000
 20
498.700000
 30
0.0
 10
73.000000
 20
499.750000
 30
0.0
 10
75.500000
 20
499.750000
 30
0.0
 10
75.500000
 20
498.700000
 30
0.0
 10
78.000000
 20
498.700000
 30
0.0
 10
78.000000
 20
507.000000
 30
0.0
 10
81.000000
 20
507.000000
 30
0.0
 10
81.000000
 20
512.000000
 30
0.0
 10
78.000000
 20
512.000000
 30
0.0
 10
78.000000
 20
519.000000
 30
0.0
 10
67.000000
 20
519.000000
 30
0.0
 10
67.000000
 20
522.000000
 30
0.0
 10
57.000000
 20
522.000000
 30
0.0
 10
57.000000
 20
519.000000
 30
0.0
 10
46.000000
 20
519.000000
 30
0.0
 10
46.000000
 20
512.000000
 30
0.0
 10
43.000000
 20
512.000000
 30
0.0
 10
43.000000
 20
507.000000
 30
0.0
 10
46.000000
 20
507.000000
 30
0.0
 10
46.000000
 20
498.700000
 30
0.0
 10
48.500000
 20
498.700000
 30
0.0
 10
48.500000
 20
499.750000
 30
0.0
 10
51.000000
 20
499.750000
 30
0.0
 10
51.000000
 20
498.700000
 30
0.0
 10
53.000000
 20
498.700000
 30
0.0
 10
53.000000
 20
495.300000
 30
0.0
 10
51.000000
 20
495.300000
 30
0.0
 10
51.000000
 20
494.250000
 30
0.0
 10
48.500000
 20
494.250000
 30
0.0
 10
48.500000
 20
495.300000
 30
0.0
 10
46.000000
 20
495.300000
 30
0.0
 10
46.000000
 20
487.000000
 30
0.0
 10
43.000000
 20
487.000000
 30
0.0
 10
43.000000
 20
482.000000
 30
0.0
 10
46.000000
 20
482.000000
 30
0.0
 10
46.000000
 20
475.000000
 30
0.0
 10
57.000000
 20
475.000000
 30
0.0
 10
57.000000
 20
472.000000
 30
0.0
 10
67.000000
 20
472.000000
 30
0.0
 10
67.000000
 20
475.000000
 30
0.0
  0
LWPOLYLINE
  5
101
100
AcDbEntity
  8
0
 62
7
100
AcDbPolyline
 90
53
 70
1
 10
24.000000
 20
475.000000
 30
0.0
 10
35.000000
 20
475.000000
 30
0.0
 10
35.000000
 20
482.000000
 30
0.0
 10
38.000000
 20
482.000000
 30
0.0
 10
38.000000
 20
487.000000
 30
0.0
 10
35.000000
 20
487.000000
 30
0.0
 10
35.000000
 20
495.300000
 30
0.0
 10
32.500000
 20
495.300000
 30
0.0
 10
32.500000
 20
494.250000
 30
0.0
 10
30.000000
 20
494.250000
 30
0.0
 10
30.000000
 20
495.300000
 30
0.0
 10
28.000000
 20
495.300000
 30
0.0
 10
28.000000
 20
498.700000
 30
0.0
 10
30.000000
 20
498.700000
 30
0.0
 10
30.000000
 20
499.750000
 30
0.0
 10
32.500000
 20
499.750000
 30
0.0
 10
32.500000
 20
498.700000
 30
0.0
 10
35.000000
 20
498.700000
 30
0.0
 10
35.000000
 20
507.000000
 30
0.0
 10
38.000000
 20
507.000000
 30
0.0
 10
38.000000
 20
512.000000
 30
0.0
 10
35.000000
 20
512.000000
 30
0.0
 10
35.000000
 20
519.000000
 30
0.0
 10
24.000000
 20
519.000000
 30
0.0
 10
24.000000
 20
522.000000
 30
0.0
 10
14.000000
 20
522.000000
 30
0.0
 10
14.000000
 20
519.000000
 30
0.0
 10
3.000000
 20
519.000000
 30
0.0
 10
3.000000
 20
512.000000
 30
0.0
 10
0.000000
 20
512.000000
 30
0.0
 10
0.000000
 20
507.000000
 30
0.0
 10
3.000000
 20
507.000000
 30
0.0
 10
3.000000
 20
498.700000
 30
0.0
 10
5.500000
 20
498.700000
 30
0.0
 10
5.500000
 20
499.750000
 30
0.0
 10
8.000000
 20
499.750000
 30
0.0
 10
8.000000
 20
498.700000
 30
0.0
 10
10.000000
 20
498.700000
 30
0.0
 10
10.000000
 20
495.300000
 30
0.0
 10
8.000000
 20
495.300000
 30
0.0
 10
8.000000
 20
494.250000
 30
0.0
 10
5.500000
 20
494.250000
 30
0.0
 10
5.500000
 20
495.300000
 30
0.0
 10
3.000000
 20
495.300000
 30
0.0
 10
3.000000
 20
487.000000
 30
0.0
 10
0.000000
 20
487.000000
 30
0.0
 10
0.000000
 20
482.000000
 30
0.0
 10
3.000000
 20
482.000000
 30
0.0
 10
3.000000
 20
475.000000
 30
0.0
 10
14.000000
 20
475.000000
 30
0.0
 10
14.000000
 20
472.000000
 30
0.0
 10
24.000000
 20
472.000000
 30
0.0
 10
24.000000
 20
475.000000
 30
0.0
  0
LWPOLYLINE
  5
102
100
AcDbEntity
  8
0
 62
7
100
AcDbPolyline
 90
29
 70
1
 10
25.500000
 20
429.000000
 30
0.0
 10
50.500000
 20
429.000000
 30
0.0
 10
50.500000
 20
426.000000
 30
0.0
 10
60.500000
 20
426.000000
 30
0.0
 10
60.500000
 20
429.000000
 30
0.0
 10
73.000000
 20
429.000000
 30
0.0
 10
73.000000
 20
440.000000
 30
0.0
 10
70.000000
 20
440.000000
 30
0.0
 10
70.000000
 20
450.000000
 30
0.0
 10
73.000000
 20
450.000000
 30
0.0
 10
73.000000
 20
461.000000
 30
0.0
 10
60.500000
 20
461.000000
 30
0.0
 10
60.500000
 20
464.000000
 30
0.0
 10
50.500000
 20
464.000000
 30
0.0
 10
50.500000
 20
461.000000
 30
0.0
 10
25.500000
 20
461.000000
 30
0.0
 10
25.500000
 20
464.000000
 30
0.0
 10
15.500000
 20
464.000000
 30
0.0
 10
15.500000
 20
461.000000
 30
0.0
 10
3.000000
 20
461.000000
 30
0.0
 10
3.000000
 20
450.000000
 30
0.0
 10
6.000000
 20
450.000000
 30
0.0
 10
6.000000
 20
440.000000
 30
0.0
 10
3.000000
 20
440.000000
 30
0.0
 10
3.000000
 20
429.000000
 30
0.0
 10
15.500000
 20
429.000000
 30
0.0
 10
15.500000
 20
426.000000
 30
0.0
 10
25.500000
 20
426.000000
 30
0.0
 10
25.500000
 20
429.000000
 30
0.0
  0
LWPOLYLINE
  5
103
100
AcDbEntity
  8
0
 62
7
100
AcDbPolyline
 90
29
 70
1
 10
25.500000
 20
386.000000
 30
0.0
 10
50.500000
 20
386.000000
 30
0.0
 10
50.500000
 20
383.000000
 30
0.0
 10
60.500000
 20
383.000000
 30
0.0
 10
60.500000
 20
386.000000
 30
0.0
 10
73.000000
 20
386.000000
 30
0.0
 10
73.000000
 20
397.000000
 30
0.0
 10
70.000000
 20
397.000000
 30
0.0
 10
70.000000
 20
407.000000
 30
0.0
 10
73.000000
 20
407.000000
 30
0.0
 10
73.000000
 20
418.000000
 30
0.0
 10
60.500000
 20
418.000000
 30
0.0
 10
60.500000
 20
421.000000
 30
0.0
 10
50.500000
 20
421.000000
 30
0.0
 10
50.500000
 20
418.000000
 30
0.0
 10
25.500000
 20
418.000000
 30
0.0
 10
25.500000
 20
421.000000
 30
0.0
 10
15.500000
 20
421.000000
 30
0.0
 10
15.500000
 20
418.000000
 30
0.0
 10
3.000000
 20
418.000000
 30
0.0
 10
3.000000
 20
407.000000
 30
0.0
 10
6.000000
 20
407.000000
 30
0.0
 10
6.000000
 20
397.000000
 30
0.0
 10
3.000000
 20
397.000000
 30
0.0
 10
3.000000
 20
386.000000
 30
0.0
 10
15.500000
 20
386.000000
 30
0.0
 10
15.500000
 20
383.000000
 30
0.0
 10
25.500000
 20
383.000000
 30
0.0
 10
25.500000
 20
386.000000
 30
0.0
  0
LWPOLYLINE
  5
104
100
AcDbEntity
  8
0
 62
1
100
AcDbPolyline
 90
5
 70
1
 10
50.500000
 20
372.000000
 30
0.0
 10
50.500000
 20
375.000000
 30
0.0
 10
60.500000
 20
375.000000
 30
0.0
 10
60.500000
 20
372.000000
 30
0.0
 10
50.500000
 20
372.000000
 30
0.0
  0
LWPOLYLINE
  5
105
100
AcDbEntity
  8
0
 62
1
100
AcDbPolyline
 90
5
 70
1
 10
15.500000
 20
372.000000
 30
0.0
 10
15.500000
 20
375.000000
 30
0.0
 10
25.500000
 20
375.000000
 30
0.0
 10
25.500000
 20
372.000000
 30
0.0
 10
15.500000
 20
372.000000
 30
0.0
  0
LWPOLYLINE
  5
106
100
AcDbEntity
  8
0
 62
1
100
AcDbPolyline
 90
5
 70
1
 10
3.000000
 20
360.000000
 30
0.0
 10
3.000000
 20
365.000000
 30
0.0
 10
6.000000
 20
365.000000
 30
0.0
 10
6.000000
 20
360.000000
 30
0.0
 10
3.000000
 20
360.000000
 30
0.0
  0
LWPOLYLINE
  5
107
100
AcDbEntity
  8
0
 62
1
100
AcDbPolyline
 90
5
 70
1
 10
70.000000
 20
360.000000
 30
0.0
 10
70.000000
 20
365.000000
 30
0.0
 10
73.000000
 20
365.000000
 30
0.0
 10
73.000000
 20
360.000000
 30
0.0
 10
70.000000
 20
360.000000
 30
0.0
  0
LWPOLYLINE
  5
108
100
AcDbEntity
  8
0
 62
1
100
AcDbPolyline
 90
5
 70
1
 10
3.000000
 20
335.000000
 30
0.0
 10
3.000000
 20
340.000000
 30
0.0
 10
6.000000
 20
340.000000
 30
0.0
 10
6.000000
 20
335.000000
 30
0.0
 10
3.000000
 20
335.000000
 30
0.0
  0
LWPOLYLINE
  5
109
100
AcDbEntity
  8
0
 62
1
100
AcDbPolyline
 90
5
 70
1
 10
70.000000
 20
335.000000
 30
0.0
 10
70.000000
 20
340.000000
 30
0.0
 10
73.000000
 20
340.000000
 30
0.0
 10
73.000000
 20
335.000000
 30
0.0
 10
70.000000
 20
335.000000
 30
0.0
  0
LWPOLYLINE
  5
10a
100
AcDbEntity
  8
0
 62
1
100
AcDbPolyline
 90
5
 70
1
 10
50.500000
 20
325.000000
 30
0.0
 10
50.500000
 20
328.000000
 30
0.0
 10
60.500000
 20
328.000000
 30
0.0
 10
60.500000
 20
325.000000
 30
0.0
 10
50.500000
 20
325.000000
 30
0.0
  0
LWPOLYLINE
  5
10b
100
AcDbEntity
  8
0
 62
1
100
AcDbPolyline
 90
5
 70
1
 10
15.500000
 20
325.000000
 30
0.0
 10
15.500000
 20
328.000000
 30
0.0
 10
25.500000
 20
328.000000
 30
0.0
 10
25.500000
 20
325.000000
 30
0.0
 10
15.500000
 20
325.000000
 30
0.0
  0
LWPOLYLINE
  5
10c
100
AcDbEntity
  8
0
 62
1
100
AcDbPolyline
 90
5
 70
1
 10
50.500000
 20
311.000000
 30
0.0
 10
50.500000
 20
314.000000
 30
0.0
 10
60.500000
 20
314.000000
 30
0.0
 10
60.500000
 20
311.000000
 30
0.0
 10
50.500000
 20
311.000000
 30
0.0
  0
LWPOLYLINE
  5
10d
100
AcDbEntity
  8
0
 62
1
100
AcDbPolyline
 90
5
 70
1
 10
15.500000
 20
311.000000
 30
0.0
 10
15.500000
 20
314.000000
 30
0.0
 10
25.500000
 20
314.000000
 30
0.0
 10
25.500000
 20
311.000000
 30
0.0
 10
15.500000
 20
311.000000
 30
0.0
  0
LWPOLYLINE
  5
10e
100
AcDbEntity
  8
0
 62
1
100
AcDbPolyline
 90
5
 70
1
 10
3.000000
 20
299.000000
 30
0.0
 10
3.000000
 20
304.000000
 30
0.0
 10
6.000000
 20
304.000000
 30
0.0
 10
6.000000
 20
299.000000
 30
0.0
 10
3.000000
 20
299.000000
 30
0.0
  0
LWPOLYLINE
  5
10f
100
AcDbEntity
  8
0
 62
1
100
AcDbPolyline
 90
5
 70
1
 10
70.000000
 20
299.000000
 30
0.0
 10
70.000000
 20
304.000000
 30
0.0
 10
73.000000
 20
304.000000
 30
0.0
 10
73.000000
 20
299.000000
 30
0.0
 10
70.000000
 20
299.000000
 30
0.0
  0
LWPOLYLINE
  5
110
100
AcDbEntity
  8
0
 62
1
100
AcDbPolyline
 90
5
 70
1
 10
3.000000
 20
274.000000
 30
0.0
 10
3.000000
 20
279.000000
 30
0.0
 10
6.000000
 20
279.000000
 30
0.0
 10
6.000000
 20
274.000000
 30
0.0
 10
3.000000
 20
274.000000
 30
0.0
  0
LWPOLYLINE
  5
111
100
AcDbEntity
  8
0
 62
1
100
AcDbPolyline
 90
5
 70
1
 10
70.000000
 20
274.000000
 30
0.0
 10
70.000000
 20
279.000000
 30
0.0
 10
73.000000
 20
279.000000
 30
0.0
 10
73.000000
 20
274.000000
 30
0.0
 10
70.000000
 20
274.000000
 30
0.0
  0
LWPOLYLINE
  5
112
100
AcDbEntity
  8
0
 62
1
100
AcDbPolyline
 90
5
 70
1
 10
50.500000
 20
264.000000
 30
0.0
 10
50.500000
 20
267.000000
 30
0.0
 10
60.500000
 20
267.000000
 30
0.0
 10
60.500000
 20
264.000000
 30
0.0
 10
50.500000
 20
264.000000
 30
0.0
  0
SPLINE
  5
113
100
AcDbEntity
  8
0
 62
1
100
AcDbSpline
 70
8
 71
3
 72
8
 73
4
 74
0
 40
0
 40
0
 40
0
 40
0
 40
1
 40
1
 40
1
 40
1
 10
59.385235
 20
450.800000
 30
0.0
 10
59.385233
 20
448.686699
 30
0.0
 10
57.672063
 20
446.973530
 30
0.0
 10
55.558762
 20
446.973530
 30
0.0
  0
SPLINE
  5
114
100
AcDbEntity
  8
0
 62
1
100
AcDbSpline
 70
8
 71
3
 72
8
 73
4
 74
0
 40
0
 40
0
 40
0
 40
0
 40
1
 40
1
 40
1
 40
1
 10
55.558762
 20
446.973530
 30
0.0
 10
53.445460
 20
446.973530
 30
0.0
 10
51.732290
 20
448.686698
 30
0.0
 10
51.732288
 20
450.800000
 30
0.0
  0
SPLINE
  5
115
100
AcDbEntity
  8
0
 62
1
100
AcDbSpline
 70
8
 71
3
 72
8
 73
4
 74
0
 40
0
 40
0
 40
0
 40
0
 40
1
 40
1
 40
1
 40
1
 10
51.732288
 20
450.800000
 30
0.0
 10
51.732286
 20
451.814845
 30
0.0
 10
52.135431
 20
452.788125
 30
0.0
 10
52.853034
 20
453.505730
 30
0.0
  0
SPLINE
  5
116
100
AcDbEntity
  8
0
 62
1
100
AcDbSpline
 70
8
 71
3
 72
8
 73
4
 74
0
 40
0
 40
0
 40
0
 40
0
 40
1
 40
1
 40
1
 40
1
 10
52.853034
 20
453.505730
 30
0.0
 10
53.570637
 20
454.223334
 30
0.0
 10
54.543917
 20
454.626480
 30
0.0
 10
55.558762
 20
454.626480
 30
0.0
  0
SPLINE
  5
117
100
AcDbEntity
  8
0
 62
1
100
AcDbSpline
 70
8
 71
3
 72
8
 73
4
 74
0
 40
0
 40
0
 40
0
 40
0
 40
1
 40
1
 40
1
 40
1
 10
55.558762
 20
454.626480
 30
0.0
 10
56.573607
 20
454.626480
 30
0.0
 10
57.546886
 20
454.223334
 30
0.0
 10
58.264489
 20
453.505729
 30
0.0
  0
SPLINE
  5
118
100
AcDbEntity
  8
0
 62
1
100
AcDbSpline
 70
8
 71
3
 72
8
 73
4
 74
0
 40
0
 40
0
 40
0
 40
0
 40
1
 40
1
 40
1
 40
1
 10
58.264489
 20
453.505729
 30
0.0
 10
58.982092
 20
452.788125
 30
0.0
 10
59.385237
 20
451.814845
 30
0.0
 10
59.385235
 20
450.800000
 30
0.0
  0
LWPOLYLINE
  5
119
100
AcDbEntity
  8
0
 62
1
100
AcDbPolyline
 90
5
 70
1
 10
15.500000
 20
264.000000
 30
0.0
 10
15.500000
 20
267.000000
 30
0.0
 10
25.500000
 20
267.000000
 30
0.0
 10
25.500000
 20
264.000000
 30
0.0
 10
15.500000
 20
264.000000
 30
0.0
  0
SPLINE
  5
11a
100
AcDbEntity
  8
0
 62
1
100
AcDbSpline
 70
8
 71
3
 72
8
 73
4
 74
0
 40
0
 40
0
 40
0
 40
0
 40
1
 40
1
 40
1
 40
1
 10
73.059061
 20
350.000000
 30
0.0
 10
73.059061
 20
349.138954
 30
0.0
 10
72.361046
 20
348.440939
 30
0.0
 10
71.500000
 20
348.440939
 30
0.0
  0
SPLINE
  5
11b
100
AcDbEntity
  8
0
 62
1
100
AcDbSpline
 70
8
 71
3
 72
8
 73
4
 74
0
 40
0
 40
0
 40
0
 40
0
 40
1
 40
1
 40
1
 40
1
 10
71.500000
 20
348.440939
 30
0.0
 10
70.638954
 20
348.440939
 30
0.0
 10
69.940939
 20
349.138954
 30
0.0
 10
69.940939
 20
350.000000
 30
0.0
  0
SPLINE
  5
11c
100
AcDbEntity
  8
0
 62
1
100
AcDbSpline
 70
8
 71
3
 72
8
 73
4
 74
0
 40
0
 40
0
 40
0
 40
0
 40
1
 40
1
 40
1
 40
1
 10
69.940939
 20
350.000000
 30
0.0
 10
69.940939
 20
350.861046
 30
0.0
 10
70.638954
 20
351.559061
 30
0.0
 10
71.500000
 20
351.559061
 30
0.0
  0
SPLINE
  5
11d
100
AcDbEntity
  8
0
 62
1
100
AcDbSpline
 70
8
 71
3
 72
8
 73
4
 74
0
 40
0
 40
0
 40
0
 40
0
 40
1
 40
1
 40
1
 40
1
 10
71.500000
 20
351.559061
 30
0.0
 10
72.361046
 20
351.559061
 30
0.0
 10
73.059061
 20
350.861046
 30
0.0
 10
73.059061
 20
350.000000
 30
0.0
  0
LWPOLYLINE
  5
11e
100
AcDbEntity
  8
0
 62
1
100
AcDbPolyline
 90
2
 70
1
 10
59.385235
 20
450.800000
 30
0.0
 10
59.385235
 20
450.800000
 30
0.0
  0
SPLINE
  5
11f
100
AcDbEntity
  8
0
 62
1
100
AcDbSpline
 70
8
 71
3
 72
8
 73
4
 74
0
 40
0
 40
0
 40
0
 40
0
 40
1
 40
1
 40
1
 40
1
 10
6.059056
 20
350.000000
 30
0.0
 10
6.059056
 20
349.138954
 30
0.0
 10
5.361041
 20
348.440939
 30
0.0
 10
4.499995
 20
348.440939
 30
0.0
  0
SPLINE
  5
120
100
AcDbEntity
  8
0
 62
1
100
AcDbSpline
 70
8
 71
3
 72
8
 73
4
 74
0
 40
0
 40
0
 40
0
 40
0
 40
1
 40
1
 40
1
 40
1
 10
4.499995
 20
348.440939
 30
0.0
 10
3.638950
 20
348.440939
 30
0.0
 10
2.940934
 20
349.138954
 30
0.0
 10
2.940934
 20
350.000000
 30
0.0
  0
SPLINE
  5
121
100
AcDbEntity
  8
0
 62
1
100
AcDbSpline
 70
8
 71
3
 72
8
 73
4
 74
0
 40
0
 40
0
 40
0
 40
0
 40
1
 40
1
 40
1
 40
1
 10
2.940934
 20
350.000000
 30
0.0
 10
2.940934
 20
350.861046
 30
0.0
 10
3.638950
 20
351.559061
 30
0.0
 10
4.499995
 20
351.559061
 30
0.0
  0
SPLINE
  5
122
100
AcDbEntity
  8
0
 62
1
100
AcDbSpline
 70
8
 71
3
 72
8
 73
4
 74
0
 40
0
 40
0
 40
0
 40
0
 40
1
 40
1
 40
1
 40
1
 10
4.499995
 20
351.559061
 30
0.0
 10
5.361041
 20
351.559061
 30
0.0
 10
6.059056
 20
350.861046
 30
0.0
 10
6.059056
 20
350.000000
 30
0.0
  0
LWPOLYLINE
  5
123
100
AcDbEntity
  8
0
 62
1
100
AcDbPolyline
 90
2
 70
1
 10
73.059061
 20
350.000000
 30
0.0
 10
73.059061
 20
350.000000
 30
0.0
  0
SPLINE
  5
124
100
AcDbEntity
  8
0
 62
1
100
AcDbSpline
 70
8
 71
3
 72
8
 73
4
 74
0
 40
0
 40
0
 40
0
 40
0
 40
1
 40
1
 40
1
 40
1
 10
25.351928
 20
365.800000
 30
0.0
 10
25.351926
 20
365.236304
 30
0.0
 10
24.894960
 20
364.779340
 30
0.0
 10
24.331264
 20
364.779340
 30
0.0
  0
SPLINE
  5
125
100
AcDbEntity
  8
0
 62
1
100
AcDbSpline
 70
8
 71
3
 72
8
 73
4
 74
0
 40
0
 40
0
 40
0
 40
0
 40
1
 40
1
 40
1
 40
1
 10
24.331264
 20
364.779340
 30
0.0
 10
23.767569
 20
364.779340
 30
0.0
 10
23.310603
 20
365.236305
 30
0.0
 10
23.310601
 20
365.800000
 30
0.0
  0
SPLINE
  5
126
100
AcDbEntity
  8
0
 62
1
100
AcDbSpline
 70
8
 71
3
 72
8
 73
4
 74
0
 40
0
 40
0
 40
0
 40
0
 40
1
 40
1
 40
1
 40
1
 10
23.310601
 20
365.800000
 30
0.0
 10
23.310599
 20
366.070698
 30
0.0
 10
23.418132
 20
366.330309
 30
0.0
 10
23.609544
 20
366.521722
 30
0.0
  0
SPLINE
  5
127
100
AcDbEntity
  8
0
 62
1
100
AcDbSpline
 70
8
 71
3
 72
8
 73
4
 74
0
 40
0
 40
0
 40
0
 40
0
 40
1
 40
1
 40
1
 40
1
 10
23.609544
 20
366.521722
 30
0.0
 10
23.800956
 20
366.713135
 30
0.0
 10
24.060566
 20
366.820670
 30
0.0
 10
24.331264
 20
366.820670
 30
0.0
  0
SPLINE
  5
128
100
AcDbEntity
  8
0
 62
1
100
AcDbSpline
 70
8
 71
3
 72
8
 73
4
 74
0
 40
0
 40
0
 40
0
 40
0
 40
1
 40
1
 40
1
 40
1
 10
24.331264
 20
366.820670
 30
0.0
 10
24.601962
 20
366.820670
 30
0.0
 10
24.861573
 20
366.713135
 30
0.0
 10
25.052985
 20
366.521722
 30
0.0
  0
SPLINE
  5
129
100
AcDbEntity
  8
0
 62
1
100
AcDbSpline
 70
8
 71
3
 72
8
 73
4
 74
0
 40
0
 40
0
 40
0
 40
0
 40
1
 40
1
 40
1
 40
1
 10
25.052985
 20
366.521722
 30
0.0
 10
25.244396
 20
366.330309
 30
0.0
 10
25.351930
 20
366.070698
 30
0.0
 10
25.351928
 20
365.800000
 30
0.0
  0
LWPOLYLINE
  5
12a
100
AcDbEntity
  8
0
 62
1
100
AcDbPolyline
 90
2
 70
1
 10
6.059056
 20
350.000000
 30
0.0
 10
6.059056
 20
350.000000
 30
0.0
  0
SPLINE
  5
12b
100
AcDbEntity
  8
0
 62
1
100
AcDbSpline
 70
8
 71
3
 72
8
 73
4
 74
0
 40
0
 40
0
 40
0
 40
0
 40
1
 40
1
 40
1
 40
1
 10
52.951927
 20
365.800000
 30
0.0
 10
52.951925
 20
365.236304
 30
0.0
 10
52.494959
 20
364.779340
 30
0.0
 10
51.931263
 20
364.779340
 30
0.0
  0
SPLINE
  5
12c
100
AcDbEntity
  8
0
 62
1
100
AcDbSpline
 70
8
 71
3
 72
8
 73
4
 74
0
 40
0
 40
0
 40
0
 40
0
 40
1
 40
1
 40
1
 40
1
 10
51.931263
 20
364.779340
 30
0.0
 10
51.367567
 20
364.779340
 30
0.0
 10
50.910601
 20
365.236304
 30
0.0
 10
50.910599
 20
365.800000
 30
0.0
  0
SPLINE
  5
12d
100
AcDbEntity
  8
0
 62
1
100
AcDbSpline
 70
8
 71
3
 72
8
 73
4
 74
0
 40
0
 40
0
 40
0
 40
0
 40
1
 40
1
 40
1
 40
1
 10
50.910599
 20
365.800000
 30
0.0
 10
50.910597
 20
366.070698
 30
0.0
 10
51.018131
 20
366.330309
 30
0.0
 10
51.209542
 20
366.521722
 30
0.0
  0
SPLINE
  5
12e
100
AcDbEntity
  8
0
 62
1
100
AcDbSpline
 70
8
 71
3
 72
8
 73
4
 74
0
 40
0
 40
0
 40
0
 40
0
 40
1
 40
1
 40
1
 40
1
 10
51.209542
 20
366.521722
 30
0.0
 10
51.400954
 20
366.713135
 30
0.0
 10
51.660565
 20
366.820670
 30
0.0
 10
51.931263
 20
366.820670
 30
0.0
  0
SPLINE
  5
12f
100
AcDbEntity
  8
0
 62
1
100
AcDbSpline
 70
8
 71
3
 72
8
 73
4
 74
0
 40
0
 40
0
 40
0
 40
0
 40
1
 40
1
 40
1
 40
1
 10
51.931263
 20
366.820670
 30
0.0
 10
52.201961
 20
366.820670
 30
0.0
 10
52.461572
 20
366.713135
 30
0.0
 10
52.652984
 20
366.521722
 30
0.0
  0
SPLINE
  5
130
100
AcDbEntity
  8
0
 62
1
100
AcDbSpline
 70
8
 71
3
 72
8
 73
4
 74
0
 40
0
 40
0
 40
0
 40
0
 40
1
 40
1
 40
1
 40
1
 10
52.652984
 20
366.521722
 30
0.0
 10
52.844395
 20
366.330309
 30
0.0
 10
52.951929
 20
366.070698
 30
0.0
 10
52.951927
 20
365.800000
 30
0.0
  0
LWPOLYLINE
  5
131
100
AcDbEntity
  8
0
 62
1
100
AcDbPolyline
 90
2
 70
1
 10
25.351928
 20
365.800000
 30
0.0
 10
25.351928
 20
365.800000
 30
0.0
  0
SPLINE
  5
132
100
AcDbEntity
  8
0
 62
1
100
AcDbSpline
 70
8
 71
3
 72
8
 73
4
 74
0
 40
0
 40
0
 40
0
 40
0
 40
1
 40
1
 40
1
 40
1
 10
25.351919
 20
334.199997
 30
0.0
 10
25.351919
 20
333.929300
 30
0.0
 10
25.244385
 20
333.669690
 30
0.0
 10
25.052974
 20
333.478278
 30
0.0
  0
SPLINE
  5
133
100
AcDbEntity
  8
0
 62
1
100
AcDbSpline
 70
8
 71
3
 72
8
 73
4
 74
0
 40
0
 40
0
 40
0
 40
0
 40
1
 40
1
 40
1
 40
1
 10
25.052974
 20
333.478278
 30
0.0
 10
24.861562
 20
333.286867
 30
0.0
 10
24.601952
 20
333.179333
 30
0.0
 10
24.331255
 20
333.179333
 30
0.0
  0
SPLINE
  5
134
100
AcDbEntity
  8
0
 62
1
100
AcDbSpline
 70
8
 71
3
 72
8
 73
4
 74
0
 40
0
 40
0
 40
0
 40
0
 40
1
 40
1
 40
1
 40
1
 10
24.331255
 20
333.179333
 30
0.0
 10
24.060558
 20
333.179333
 30
0.0
 10
23.800948
 20
333.286867
 30
0.0
 10
23.609536
 20
333.478278
 30
0.0
  0
SPLINE
  5
135
100
AcDbEntity
  8
0
 62
1
100
AcDbSpline
 70
8
 71
3
 72
8
 73
4
 74
0
 40
0
 40
0
 40
0
 40
0
 40
1
 40
1
 40
1
 40
1
 10
23.609536
 20
333.478278
 30
0.0
 10
23.418125
 20
333.669690
 30
0.0
 10
23.310591
 20
333.929300
 30
0.0
 10
23.310591
 20
334.199997
 30
0.0
  0
SPLINE
  5
136
100
AcDbEntity
  8
0
 62
1
100
AcDbSpline
 70
8
 71
3
 72
8
 73
4
 74
0
 40
0
 40
0
 40
0
 40
0
 40
1
 40
1
 40
1
 40
1
 10
23.310591
 20
334.199997
 30
0.0
 10
23.310591
 20
334.470694
 30
0.0
 10
23.418125
 20
334.730304
 30
0.0
 10
23.609536
 20
334.921716
 30
0.0
  0
SPLINE
  5
137
100
AcDbEntity
  8
0
 62
1
100
AcDbSpline
 70
8
 71
3
 72
8
 73
4
 74
0
 40
0
 40
0
 40
0
 40
0
 40
1
 40
1
 40
1
 40
1
 10
23.609536
 20
334.921716
 30
0.0
 10
23.800948
 20
335.113127
 30
0.0
 10
24.060558
 20
335.220661
 30
0.0
 10
24.331255
 20
335.220661
 30
0.0
  0
SPLINE
  5
138
100
AcDbEntity
  8
0
 62
1
100
AcDbSpline
 70
8
 71
3
 72
8
 73
4
 74
0
 40
0
 40
0
 40
0
 40
0
 40
1
 40
1
 40
1
 40
1
 10
24.331255
 20
335.220661
 30
0.0
 10
24.601952
 20
335.220661
 30
0.0
 10
24.861562
 20
335.113127
 30
0.0
 10
25.052974
 20
334.921716
 30
0.0
  0
SPLINE
  5
139
100
AcDbEntity
  8
0
 62
1
100
AcDbSpline
 70
8
 71
3
 72
8
 73
4
 74
0
 40
0
 40
0
 40
0
 40
0
 40
1
 40
1
 40
1
 40
1
 10
25.052974
 20
334.921716
 30
0.0
 10
25.244385
 20
334.730304
 30
0.0
 10
25.351919
 20
334.470694
 30
0.0
 10
25.351919
 20
334.199997
 30
0.0
  0
LWPOLYLINE
  5
13a
100
AcDbEntity
  8
0
 62
1
100
AcDbPolyline
 90
2
 70
1
 10
52.951927
 20
365.800000
 30
0.0
 10
52.951927
 20
365.800000
 30
0.0
  0
SPLINE
  5
13b
100
AcDbEntity
  8
0
 62
1
100
AcDbSpline
 70
8
 71
3
 72
8
 73
4
 74
0
 40
0
 40
0
 40
0
 40
0
 40
1
 40
1
 40
1
 40
1
 10
52.951919
 20
334.199997
 30
0.0
 10
52.951919
 20
333.929300
 30
0.0
 10
52.844385
 20
333.669690
 30
0.0
 10
52.652974
 20
333.478278
 30
0.0
  0
SPLINE
  5
13c
100
AcDbEntity
  8
0
 62
1
100
AcDbSpline
 70
8
 71
3
 72
8
 73
4
 74
0
 40
0
 40
0
 40
0
 40
0
 40
1
 40
1
 40
1
 40
1
 10
52.652974
 20
333.478278
 30
0.0
 10
52.461562
 20
333.286867
 30
0.0
 10
52.201952
 20
333.179333
 30
0.0
 10
51.931255
 20
333.179333
 30
0.0
  0
SPLINE
  5
13d
100
AcDbEntity
  8
0
 62
1
100
AcDbSpline
 70
8
 71
3
 72
8
 73
4
 74
0
 40
0
 40
0
 40
0
 40
0
 40
1
 40
1
 40
1
 40
1
 10
51.931255
 20
333.179333
 30
0.0
 10
51.367558
 20
333.179333
 30
0.0
 10
50.910592
 20
333.636300
 30
0.0
 10
50.910592
 20
334.199997
 30
0.0
  0
SPLINE
  5
13e
100
AcDbEntity
  8
0
 62
1
100
AcDbSpline
 70
8
 71
3
 72
8
 73
4
 74
0
 40
0
 40
0
 40
0
 40
0
 40
1
 40
1
 40
1
 40
1
 10
50.910592
 20
334.199997
 30
0.0
 10
50.910592
 20
334.763694
 30
0.0
 10
51.367558
 20
335.220661
 30
0.0
 10
51.931255
 20
335.220661
 30
0.0
  0
SPLINE
  5
13f
100
AcDbEntity
  8
0
 62
1
100
AcDbSpline
 70
8
 71
3
 72
8
 73
4
 74
0
 40
0
 40
0
 40
0
 40
0
 40
1
 40
1
 40
1
 40
1
 10
51.931255
 20
335.220661
 30
0.0
 10
52.201952
 20
335.220661
 30
0.0
 10
52.461562
 20
335.113127
 30
0.0
 10
52.652974
 20
334.921716
 30
0.0
  0
SPLINE
  5
140
100
AcDbEntity
  8
0
 62
1
100
AcDbSpline
 70
8
 71
3
 72
8
 73
4
 74
0
 40
0
 40
0
 40
0
 40
0
 40
1
 40
1
 40
1
 40
1
 10
52.652974
 20
334.921716
 30
0.0
 10
52.844385
 20
334.730304
 30
0.0
 10
52.951919
 20
334.470694
 30
0.0
 10
52.951919
 20
334.199997
 30
0.0
  0
LWPOLYLINE
  5
141
100
AcDbEntity
  8
0
 62
1
100
AcDbPolyline
 90
2
 70
1
 10
25.351919
 20
334.199997
 30
0.0
 10
25.351919
 20
334.199997
 30
0.0
  0
SPLINE
  5
142
100
AcDbEntity
  8
0
 62
1
100
AcDbSpline
 70
8
 71
3
 72
8
 73
4
 74
0
 40
0
 40
0
 40
0
 40
0
 40
1
 40
1
 40
1
 40
1
 10
19.611988
 20
340.199997
 30
0.0
 10
19.611988
 20
339.094098
 30
0.0
 10
19.172671
 20
338.033493
 30
0.0
 10
18.390682
 20
337.251504
 30
0.0
  0
SPLINE
  5
143
100
AcDbEntity
  8
0
 62
1
100
AcDbSpline
 70
8
 71
3
 72
8
 73
4
 74
0
 40
0
 40
0
 40
0
 40
0
 40
1
 40
1
 40
1
 40
1
 10
18.390682
 20
337.251504
 30
0.0
 10
17.608693
 20
336.469516
 30
0.0
 10
16.548088
 20
336.030199
 30
0.0
 10
15.442189
 20
336.030199
 30
0.0
  0
SPLINE
  5
144
100
AcDbEntity
  8
0
 62
1
100
AcDbSpline
 70
8
 71
3
 72
8
 73
4
 74
0
 40
0
 40
0
 40
0
 40
0
 40
1
 40
1
 40
1
 40
1
 10
15.442189
 20
336.030199
 30
0.0
 10
13.139273
 20
336.030199
 30
0.0
 10
11.272391
 20
337.897081
 30
0.0
 10
11.272391
 20
340.199997
 30
0.0
  0
SPLINE
  5
145
100
AcDbEntity
  8
0
 62
1
100
AcDbSpline
 70
8
 71
3
 72
8
 73
4
 74
0
 40
0
 40
0
 40
0
 40
0
 40
1
 40
1
 40
1
 40
1
 10
11.272391
 20
340.199997
 30
0.0
 10
11.272391
 20
342.502913
 30
0.0
 10
13.139273
 20
344.369795
 30
0.0
 10
15.442189
 20
344.369795
 30
0.0
  0
SPLINE
  5
146
100
AcDbEntity
  8
0
 62
1
100
AcDbSpline
 70
8
 71
3
 72
8
 73
4
 74
0
 40
0
 40
0
 40
0
 40
0
 40
1
 40
1
 40
1
 40
1
 10
15.442189
 20
344.369795
 30
0.0
 10
16.548088
 20
344.369795
 30
0.0
 10
17.608693
 20
343.930478
 30
0.0
 10
18.390682
 20
343.148490
 30
0.0
  0
SPLINE
  5
147
100
AcDbEntity
  8
0
 62
1
100
AcDbSpline
 70
8
 71
3
 72
8
 73
4
 74
0
 40
0
 40
0
 40
0
 40
0
 40
1
 40
1
 40
1
 40
1
 10
18.390682
 20
343.148490
 30
0.0
 10
19.172671
 20
342.366501
 30
0.0
 10
19.611988
 20
341.305896
 30
0.0
 10
19.611988
 20
340.199997
 30
0.0
  0
LWPOLYLINE
  5
148
100
AcDbEntity
  8
0
 62
1
100
AcDbPolyline
 90
2
 70
1
 10
52.951919
 20
334.199997
 30
0.0
 10
52.951919
 20
334.199997
 30
0.0
  0
SPLINE
  5
149
100
AcDbEntity
  8
0
 62
1
100
AcDbSpline
 70
8
 71
3
 72
8
 73
4
 74
0
 40
0
 40
0
 40
0
 40
0
 40
1
 40
1
 40
1
 40
1
 10
73.059061
 20
289.000000
 30
0.0
 10
73.059061
 20
288.138954
 30
0.0
 10
72.361046
 20
287.440939
 30
0.0
 10
71.500000
 20
287.440939
 30
0.0
  0
SPLINE
  5
14a
100
AcDbEntity
  8
0
 62
1
100
AcDbSpline
 70
8
 71
3
 72
8
 73
4
 74
0
 40
0
 40
0
 40
0
 40
0
 40
1
 40
1
 40
1
 40
1
 10
71.500000
 20
287.440939
 30
0.0
 10
70.638954
 20
287.440939
 30
0.0
 10
69.940939
 20
288.138954
 30
0.0
 10
69.940939
 20
289.000000
 30
0.0
  0
SPLINE
  5
14b
100
AcDbEntity
  8
0
 62
1
100
AcDbSpline
 70
8
 71
3
 72
8
 73
4
 74
0
 40
0
 40
0
 40
0
 40
0
 40
1
 40
1
 40
1
 40
1
 10
69.940939
 20
289.000000
 30
0.0
 10
69.940939
 20
289.861046
 30
0.0
 10
70.638954
 20
290.559061
 30
0.0
 10
71.500000
 20
290.559061
 30
0.0
  0
SPLINE
  5
14c
100
AcDbEntity
  8
0
 62
1
100
AcDbSpline
 70
8
 71
3
 72
8
 73
4
 74
0
 40
0
 40
0
 40
0
 40
0
 40
1
 40
1
 40
1
 40
1
 10
71.500000
 20
290.559061
 30
0.0
 10
72.361046
 20
290.559061
 30
0.0
 10
73.059061
 20
289.861046
 30
0.0
 10
73.059061
 20
289.000000
 30
0.0
  0
LWPOLYLINE
  5
14d
100
AcDbEntity
  8
0
 62
1
100
AcDbPolyline
 90
2
 70
1
 10
19.611988
 20
340.199997
 30
0.0
 10
19.611988
 20
340.199997
 30
0.0
  0
SPLINE
  5
14e
100
AcDbEntity
  8
0
 62
1
100
AcDbSpline
 70
8
 71
3
 72
8
 73
4
 74
0
 40
0
 40
0
 40
0
 40
0
 40
1
 40
1
 40
1
 40
1
 10
6.059056
 20
289.000000
 30
0.0
 10
6.059056
 20
288.138954
 30
0.0
 10
5.361041
 20
287.440939
 30
0.0
 10
4.499995
 20
287.440939
 30
0.0
  0
SPLINE
  5
14f
100
AcDbEntity
  8
0
 62
1
100
AcDbSpline
 70
8
 71
3
 72
8
 73
4
 74
0
 40
0
 40
0
 40
0
 40
0
 40
1
 40
1
 40
1
 40
1
 10
4.499995
 20
287.440939
 30
0.0
 10
3.638950
 20
287.440939
 30
0.0
 10
2.940934
 20
288.138954
 30
0.0
 10
2.940934
 20
289.000000
 30
0.0
  0
SPLINE
  5
150
100
AcDbEntity
  8
0
 62
1
100
AcDbSpline
 70
8
 71
3
 72
8
 73
4
 74
0
 40
0
 40
0
 40
0
 40
0
 40
1
 40
1
 40
1
 40
1
 10
2.940934
 20
289.000000
 30
0.0
 10
2.940934
 20
289.861046
 30
0.0
 10
3.638950
 20
290.559061
 30
0.0
 10
4.499995
 20
290.559061
 30
0.0
  0
SPLINE
  5
151
100
AcDbEntity
  8
0
 62
1
100
AcDbSpline
 70
8
 71
3
 72
8
 73
4
 74
0
 40
0
 40
0
 40
0
 40
0
 40
1
 40
1
 40
1
 40
1
 10
4.499995
 20
290.559061
 30
0.0
 10
5.361041
 20
290.559061
 30
0.0
 10
6.059056
 20
289.861046
 30
0.0
 10
6.059056
 20
289.000000
 30
0.0
  0
LWPOLYLINE
  5
152
100
AcDbEntity
  8
0
 62
1
100
AcDbPolyline
 90
2
 70
1
 10
73.059061
 20
289.000000
 30
0.0
 10
73.059061
 20
289.000000
 30
0.0
  0
SPLINE
  5
153
100
AcDbEntity
  8
0
 62
1
100
AcDbSpline
 70
8
 71
3
 72
8
 73
4
 74
0
 40
0
 40
0
 40
0
 40
0
 40
1
 40
1
 40
1
 40
1
 10
11.544903
 20
298.525002
 30
0.0
 10
11.544903
 20
297.790581
 30
0.0
 10
10.949537
 20
297.195214
 30
0.0
 10
10.215116
 20
297.195214
 30
0.0
  0
SPLINE
  5
154
100
AcDbEntity
  8
0
 62
1
100
AcDbSpline
 70
8
 71
3
 72
8
 73
4
 74
0
 40
0
 40
0
 40
0
 40
0
 40
1
 40
1
 40
1
 40
1
 10
10.215116
 20
297.195214
 30
0.0
 10
9.862434
 20
297.195214
 30
0.0
 10
9.524197
 20
297.335316
 30
0.0
 10
9.274814
 20
297.584700
 30
0.0
  0
SPLINE
  5
155
100
AcDbEntity
  8
0
 62
1
100
AcDbSpline
 70
8
 71
3
 72
8
 73
4
 74
0
 40
0
 40
0
 40
0
 40
0
 40
1
 40
1
 40
1
 40
1
 10
9.274814
 20
297.584700
 30
0.0
 10
9.025430
 20
297.834083
 30
0.0
 10
8.885328
 20
298.172320
 30
0.0
 10
8.885328
 20
298.525002
 30
0.0
  0
SPLINE
  5
156
100
AcDbEntity
  8
0
 62
1
100
AcDbSpline
 70
8
 71
3
 72
8
 73
4
 74
0
 40
0
 40
0
 40
0
 40
0
 40
1
 40
1
 40
1
 40
1
 10
8.885328
 20
298.525002
 30
0.0
 10
8.885328
 20
299.259423
 30
0.0
 10
9.480695
 20
299.854789
 30
0.0
 10
10.215116
 20
299.854789
 30
0.0
  0
SPLINE
  5
157
100
AcDbEntity
  8
0
 62
1
100
AcDbSpline
 70
8
 71
3
 72
8
 73
4
 74
0
 40
0
 40
0
 40
0
 40
0
 40
1
 40
1
 40
1
 40
1
 10
10.215116
 20
299.854789
 30
0.0
 10
10.949537
 20
299.854789
 30
0.0
 10
11.544903
 20
299.259423
 30
0.0
 10
11.544903
 20
298.525002
 30
0.0
  0
LWPOLYLINE
  5
158
100
AcDbEntity
  8
0
 62
1
100
AcDbPolyline
 90
2
 70
1
 10
6.059056
 20
289.000000
 30
0.0
 10
6.059056
 20
289.000000
 30
0.0
  0
SPLINE
  5
159
100
AcDbEntity
  8
0
 62
1
100
AcDbSpline
 70
8
 71
3
 72
8
 73
4
 74
0
 40
0
 40
0
 40
0
 40
0
 40
1
 40
1
 40
1
 40
1
 10
67.424896
 20
298.525002
 30
0.0
 10
67.424896
 20
298.172320
 30
0.0
 10
67.284794
 20
297.834083
 30
0.0
 10
67.035410
 20
297.584700
 30
0.0
  0
SPLINE
  5
15a
100
AcDbEntity
  8
0
 62
1
100
AcDbSpline
 70
8
 71
3
 72
8
 73
4
 74
0
 40
0
 40
0
 40
0
 40
0
 40
1
 40
1
 40
1
 40
1
 10
67.035410
 20
297.584700
 30
0.0
 10
66.786027
 20
297.335316
 30
0.0
 10
66.447790
 20
297.195214
 30
0.0
 10
66.095108
 20
297.195214
 30
0.0
  0
SPLINE
  5
15b
100
AcDbEntity
  8
0
 62
1
100
AcDbSpline
 70
8
 71
3
 72
8
 73
4
 74
0
 40
0
 40
0
 40
0
 40
0
 40
1
 40
1
 40
1
 40
1
 10
66.095108
 20
297.195214
 30
0.0
 10
65.360687
 20
297.195214
 30
0.0
 10
64.765321
 20
297.790581
 30
0.0
 10
64.765321
 20
298.525002
 30
0.0
  0
SPLINE
  5
15c
100
AcDbEntity
  8
0
 62
1
100
AcDbSpline
 70
8
 71
3
 72
8
 73
4
 74
0
 40
0
 40
0
 40
0
 40
0
 40
1
 40
1
 40
1
 40
1
 10
64.765321
 20
298.525002
 30
0.0
 10
64.765321
 20
299.259423
 30
0.0
 10
65.360687
 20
299.854789
 30
0.0
 10
66.095108
 20
299.854789
 30
0.0
  0
SPLINE
  5
15d
100
AcDbEntity
  8
0
 62
1
100
AcDbSpline
 70
8
 71
3
 72
8
 73
4
 74
0
 40
0
 40
0
 40
0
 40
0
 40
1
 40
1
 40
1
 40
1
 10
66.095108
 20
299.854789
 30
0.0
 10
66.447790
 20
299.854789
 30
0.0
 10
66.786026
 20
299.714687
 30
0.0
 10
67.035410
 20
299.465304
 30
0.0
  0
SPLINE
  5
15e
100
AcDbEntity
  8
0
 62
1
100
AcDbSpline
 70
8
 71
3
 72
8
 73
4
 74
0
 40
0
 40
0
 40
0
 40
0
 40
1
 40
1
 40
1
 40
1
 10
67.035410
 20
299.465304
 30
0.0
 10
67.284794
 20
299.215920
 30
0.0
 10
67.424896
 20
298.877684
 30
0.0
 10
67.424896
 20
298.525002
 30
0.0
  0
LWPOLYLINE
  5
15f
100
AcDbEntity
  8
0
 62
1
100
AcDbPolyline
 90
2
 70
1
 10
11.544903
 20
298.525002
 30
0.0
 10
11.544903
 20
298.525002
 30
0.0
  0
SPLINE
  5
160
100
AcDbEntity
  8
0
 62
1
100
AcDbSpline
 70
8
 71
3
 72
8
 73
4
 74
0
 40
0
 40
0
 40
0
 40
0
 40
1
 40
1
 40
1
 40
1
 10
67.424896
 20
279.475000
 30
0.0
 10
67.424896
 20
279.122318
 30
0.0
 10
67.284794
 20
278.784082
 30
0.0
 10
67.035410
 20
278.534698
 30
0.0
  0
SPLINE
  5
161
100
AcDbEntity
  8
0
 62
1
100
AcDbSpline
 70
8
 71
3
 72
8
 73
4
 74
0
 40
0
 40
0
 40
0
 40
0
 40
1
 40
1
 40
1
 40
1
 10
67.035410
 20
278.534698
 30
0.0
 10
66.786026
 20
278.285315
 30
0.0
 10
66.447790
 20
278.145213
 30
0.0
 10
66.095108
 20
278.145213
 30
0.0
  0
SPLINE
  5
162
100
AcDbEntity
  8
0
 62
1
100
AcDbSpline
 70
8
 71
3
 72
8
 73
4
 74
0
 40
0
 40
0
 40
0
 40
0
 40
1
 40
1
 40
1
 40
1
 10
66.095108
 20
278.145213
 30
0.0
 10
65.360687
 20
278.145213
 30
0.0
 10
64.765321
 20
278.740579
 30
0.0
 10
64.765321
 20
279.475000
 30
0.0
  0
SPLINE
  5
163
100
AcDbEntity
  8
0
 62
1
100
AcDbSpline
 70
8
 71
3
 72
8
 73
4
 74
0
 40
0
 40
0
 40
0
 40
0
 40
1
 40
1
 40
1
 40
1
 10
64.765321
 20
279.475000
 30
0.0
 10
64.765321
 20
280.209421
 30
0.0
 10
65.360687
 20
280.804788
 30
0.0
 10
66.095108
 20
280.804788
 30
0.0
  0
SPLINE
  5
164
100
AcDbEntity
  8
0
 62
1
100
AcDbSpline
 70
8
 71
3
 72
8
 73
4
 74
0
 40
0
 40
0
 40
0
 40
0
 40
1
 40
1
 40
1
 40
1
 10
66.095108
 20
280.804788
 30
0.0
 10
66.447790
 20
280.804788
 30
0.0
 10
66.786027
 20
280.664686
 30
0.0
 10
67.035410
 20
280.415302
 30
0.0
  0
SPLINE
  5
165
100
AcDbEntity
  8
0
 62
1
100
AcDbSpline
 70
8
 71
3
 72
8
 73
4
 74
0
 40
0
 40
0
 40
0
 40
0
 40
1
 40
1
 40
1
 40
1
 10
67.035410
 20
280.415302
 30
0.0
 10
67.284794
 20
280.165919
 30
0.0
 10
67.424896
 20
279.827682
 30
0.0
 10
67.424896
 20
279.475000
 30
0.0
  0
LWPOLYLINE
  5
166
100
AcDbEntity
  8
0
 62
1
100
AcDbPolyline
 90
2
 70
1
 10
67.424896
 20
298.525002
 30
0.0
 10
67.424896
 20
298.525002
 30
0.0
  0
SPLINE
  5
167
100
AcDbEntity
  8
0
 62
1
100
AcDbSpline
 70
8
 71
3
 72
8
 73
4
 74
0
 40
0
 40
0
 40
0
 40
0
 40
1
 40
1
 40
1
 40
1
 10
11.544903
 20
279.475000
 30
0.0
 10
11.544903
 20
278.740579
 30
0.0
 10
10.949537
 20
278.145213
 30
0.0
 10
10.215116
 20
278.145213
 30
0.0
  0
SPLINE
  5
168
100
AcDbEntity
  8
0
 62
1
100
AcDbSpline
 70
8
 71
3
 72
8
 73
4
 74
0
 40
0
 40
0
 40
0
 40
0
 40
1
 40
1
 40
1
 40
1
 10
10.215116
 20
278.145213
 30
0.0
 10
9.480695
 20
278.145213
 30
0.0
 10
8.885328
 20
278.740579
 30
0.0
 10
8.885328
 20
279.475000
 30
0.0
  0
SPLINE
  5
169
100
AcDbEntity
  8
0
 62
1
100
AcDbSpline
 70
8
 71
3
 72
8
 73
4
 74
0
 40
0
 40
0
 40
0
 40
0
 40
1
 40
1
 40
1
 40
1
 10
8.885328
 20
279.475000
 30
0.0
 10
8.885328
 20
279.827682
 30
0.0
 10
9.025430
 20
280.165919
 30
0.0
 10
9.274814
 20
280.415302
 30
0.0
  0
SPLINE
  5
16a
100
AcDbEntity
  8
0
 62
1
100
AcDbSpline
 70
8
 71
3
 72
8
 73
4
 74
0
 40
0
 40
0
 40
0
 40
0
 40
1
 40
1
 40
1
 40
1
 10
9.274814
 20
280.415302
 30
0.0
 10
9.524197
 20
280.664686
 30
0.0
 10
9.862434
 20
280.804788
 30
0.0
 10
10.215116
 20
280.804788
 30
0.0
  0
SPLINE
  5
16b
100
AcDbEntity
  8
0
 62
1
100
AcDbSpline
 70
8
 71
3
 72
8
 73
4
 74
0
 40
0
 40
0
 40
0
 40
0
 40
1
 40
1
 40
1
 40
1
 10
10.215116
 20
280.804788
 30
0.0
 10
10.949537
 20
280.804788
 30
0.0
 10
11.544903
 20
280.209421
 30
0.0
 10
11.544903
 20
279.475000
 30
0.0
  0
LWPOLYLINE
  5
16c
100
AcDbEntity
  8
0
 62
1
100
AcDbPolyline
 90
2
 70
1
 10
67.424896
 20
279.475000
 30
0.0
 10
67.424896
 20
279.475000
 30
0.0
  0
LWPOLYLINE
  5
16d
100
AcDbEntity
  8
0
 62
1
100
AcDbPolyline
 90
2
 70
1
 10
11.544903
 20
279.475000
 30
0.0
 10
11.544903
 20
279.475000
 30
0.0
  0
SPLINE
  5
16e
100
AcDbEntity
  8
0
 62
7
100
AcDbSpline
 70
8
 71
3
 72
8
 73
4
 74
0
 40
0
 40
0
 40
0
 40
0
 40
1
 40
1
 40
1
 40
1
 10
72.999447
 20
316.999443
 30
0.0
 10
74.661447
 20
316.999443
 30
0.0
 10
75.999447
 20
315.661443
 30
0.0
 10
75.999447
 20
313.999443
 30
0.0
  0
LWPOLYLINE
  5
16f
100
AcDbEntity
  8
0
 62
7
100
AcDbPolyline
 90
2
 70
1
 10
3.000553
 20
316.999443
 30
0.0
 10
72.999447
 20
316.999443
 30
0.0
  0
SPLINE
  5
170
100
AcDbEntity
  8
0
 62
7
100
AcDbSpline
 70
8
 71
3
 72
8
 73
4
 74
0
 40
0
 40
0
 40
0
 40
0
 40
1
 40
1
 40
1
 40
1
 10
75.999447
 20
264.000553
 30
0.0
 10
75.999447
 20
262.338553
 30
0.0
 10
74.661447
 20
261.000553
 30
0.0
 10
72.999447
 20
261.000553
 30
0.0
  0
LWPOLYLINE
  5
171
100
AcDbEntity
  8
0
 62
7
100
AcDbPolyline
 90
2
 70
1
 10
75.999447
 20
313.999443
 30
0.0
 10
75.999447
 20
264.000553
 30
0.0
  0
SPLINE
  5
172
100
AcDbEntity
  8
0
 62
7
100
AcDbSpline
 70
8
 71
3
 72
8
 73
4
 74
0
 40
0
 40
0
 40
0
 40
0
 40
1
 40
1
 40
1
 40
1
 10
3.000553
 20
261.000553
 30
0.0
 10
1.338553
 20
261.000553
 30
0.0
 10
0.000553
 20
262.338553
 30
0.0
 10
0.000553
 20
264.000553
 30
0.0
  0
LWPOLYLINE
  5
173
100
AcDbEntity
  8
0
 62
7
100
AcDbPolyline
 90
2
 70
1
 10
72.999447
 20
261.000553
 30
0.0
 10
3.000553
 20
261.000553
 30
0.0
  0
SPLINE
  5
174
100
AcDbEntity
  8
0
 62
7
100
AcDbSpline
 70
8
 71
3
 72
8
 73
4
 74
0
 40
0
 40
0
 40
0
 40
0
 40
1
 40
1
 40
1
 40
1
 10
0.000553
 20
313.999443
 30
0.0
 10
0.000553
 20
315.661443
 30
0.0
 10
1.338553
 20
316.999443
 30
0.0
 10
3.000553
 20
316.999443
 30
0.0
  0
LWPOLYLINE
  5
175
100
AcDbEntity
  8
0
 62
7
100
AcDbPolyline
 90
2
 70
1
 10
0.000553
 20
264.000553
 30
0.0
 10
0.000553
 20
313.999443
 30
0.0
  0
LWPOLYLINE
  5
176
100
AcDbEntity
  8
0
 62
7
100
AcDbPolyline
 90
2
 70
1
 10
3.000553
 20
316.999443
 30
0.0
 10
3.000553
 20
316.999443
 30
0.0
  0
SPLINE
  5
177
100
AcDbEntity
  8
0
 62
7
100
AcDbSpline
 70
8
 71
3
 72
8
 73
4
 74
0
 40
0
 40
0
 40
0
 40
0
 40
1
 40
1
 40
1
 40
1
 10
72.999447
 20
377.999440
 30
0.0
 10
74.661447
 20
377.999440
 30
0.0
 10
75.999447
 20
376.661440
 30
0.0
 10
75.999447
 20
374.999440
 30
0.0
  0
LWPOLYLINE
  5
178
100
AcDbEntity
  8
0
 62
7
100
AcDbPolyline
 90
2
 70
1
 10
3.000553
 20
377.999440
 30
0.0
 10
72.999447
 20
377.999440
 30
0.0
  0
SPLINE
  5
179
100
AcDbEntity
  8
0
 62
7
100
AcDbSpline
 70
8
 71
3
 72
8
 73
4
 74
0
 40
0
 40
0
 40
0
 40
0
 40
1
 40
1
 40
1
 40
1
 10
75.999447
 20
325.000553
 30
0.0
 10
75.999447
 20
323.338553
 30
0.0
 10
74.661447
 20
322.000553
 30
0.0
 10
72.999447
 20
322.000553
 30
0.0
  0
LWPOLYLINE
  5
17a
100
AcDbEntity
  8
0
 62
7
100
AcDbPolyline
 90
2
 70
1
 10
75.999447
 20
374.999440
 30
0.0
 10
75.999447
 20
325.000553
 30
0.0
  0
SPLINE
  5
17b
100
AcDbEntity
  8
0
 62
7
100
AcDbSpline
 70
8
 71
3
 72
8
 73
4
 74
0
 40
0
 40
0
 40
0
 40
0
 40
1
 40
1
 40
1
 40
1
 10
3.000553
 20
322.000553
 30
0.0
 10
1.338553
 20
322.000553
 30
0.0
 10
0.000553
 20
323.338553
 30
0.0
 10
0.000553
 20
325.000553
 30
0.0
  0
LWPOLYLINE
  5
17c
100
AcDbEntity
  8
0
 62
7
100
AcDbPolyline
 90
2
 70
1
 10
72.999447
 20
322.000553
 30
0.0
 10
3.000553
 20
322.000553
 30
0.0
  0
SPLINE
  5
17d
100
AcDbEntity
  8
0
 62
7
100
AcDbSpline
 70
8
 71
3
 72
8
 73
4
 74
0
 40
0
 40
0
 40
0
 40
0
 40
1
 40
1
 40
1
 40
1
 10
0.000553
 20
374.999440
 30
0.0
 10
0.000553
 20
376.661440
 30
0.0
 10
1.338553
 20
377.999440
 30
0.0
 10
3.000553
 20
377.999440
 30
0.0
  0
LWPOLYLINE
  5
17e
100
AcDbEntity
  8
0
 62
7
100
AcDbPolyline
 90
2
 70
1
 10
0.000553
 20
325.000553
 30
0.0
 10
0.000553
 20
374.999440
 30
0.0
  0
LWPOLYLINE
  5
17f
100
AcDbEntity
  8
0
 62
7
100
AcDbPolyline
 90
2
 70
1
 10
3.000553
 20
377.999440
 30
0.0
 10
3.000553
 20
377.999440
 30
0.0
  0
SPLINE
  5
180
100
AcDbEntity
  8
0
 62
5
100
AcDbSpline
 70
8
 71
3
 72
8
 73
4
 74
0
 40
0
 40
0
 40
0
 40
0
 40
1
 40
1
 40
1
 40
1
 10
46.777445
 20
297.470960
 30
0.0
 10
47.217796
 20
297.256270
 30
0.0
 10
47.749634
 20
297.238320
 30
0.0
 10
48.198487
 20
297.455760
 30
0.0
  0
SPLINE
  5
181
100
AcDbEntity
  8
0
 62
5
100
AcDbSpline
 70
8
 71
3
 72
8
 73
4
 74
0
 40
0
 40
0
 40
0
 40
0
 40
1
 40
1
 40
1
 40
1
 10
48.198487
 20
297.455760
 30
0.0
 10
48.799827
 20
297.732220
 30
0.0
 10
49.179970
 20
298.402490
 30
0.0
 10
49.120277
 20
299.059460
 30
0.0
  0
SPLINE
  5
182
100
AcDbEntity
  8
0
 62
5
100
AcDbSpline
 70
8
 71
3
 72
8
 73
4
 74
0
 40
0
 40
0
 40
0
 40
0
 40
1
 40
1
 40
1
 40
1
 10
49.120277
 20
299.059460
 30
0.0
 10
49.066957
 20
299.723890
 30
0.0
 10
48.567476
 20
300.328560
 30
0.0
 10
47.916229
 20
300.487640
 30
0.0
  0
SPLINE
  5
183
100
AcDbEntity
  8
0
 62
5
100
AcDbSpline
 70
8
 71
3
 72
8
 73
4
 74
0
 40
0
 40
0
 40
0
 40
0
 40
1
 40
1
 40
1
 40
1
 10
47.916229
 20
300.487640
 30
0.0
 10
47.422444
 20
300.613680
 30
0.0
 10
46.879721
 20
300.504840
 30
0.0
 10
46.485320
 20
300.176250
 30
0.0
  0
LWPOLYLINE
  5
184
100
AcDbEntity
  8
0
 62
5
100
AcDbPolyline
 90
5
 70
1
 10
46.040938
 20
299.007470
 30
0.0
 10
47.666332
 20
299.007470
 30
0.0
 10
47.666332
 20
298.340800
 30
0.0
 10
46.777445
 20
298.340800
 30
0.0
 10
46.777445
 20
297.470960
 30
0.0
  0
SPLINE
  5
185
100
AcDbEntity
  8
0
 62
5
100
AcDbSpline
 70
8
 71
3
 72
8
 73
4
 74
0
 40
0
 40
0
 40
0
 40
0
 40
1
 40
1
 40
1
 40
1
 10
46.485320
 20
301.046090
 30
0.0
 10
47.313034
 20
301.453220
 30
0.0
 10
48.381862
 20
301.310100
 30
0.0
 10
49.067290
 20
300.686840
 30
0.0
  0
SPLINE
  5
186
100
AcDbEntity
  8
0
 62
5
100
AcDbSpline
 70
8
 71
3
 72
8
 73
4
 74
0
 40
0
 40
0
 40
0
 40
0
 40
1
 40
1
 40
1
 40
1
 10
49.067290
 20
300.686840
 30
0.0
 10
49.653620
 20
300.176390
 30
0.0
 10
49.954243
 20
299.365580
 30
0.0
 10
49.841001
 20
298.596410
 30
0.0
  0
SPLINE
  5
187
100
AcDbEntity
  8
0
 62
5
100
AcDbSpline
 70
8
 71
3
 72
8
 73
4
 74
0
 40
0
 40
0
 40
0
 40
0
 40
1
 40
1
 40
1
 40
1
 10
49.841001
 20
298.596410
 30
0.0
 10
49.722727
 20
297.644740
 30
0.0
 10
48.959691
 20
296.821210
 30
0.0
 10
48.025005
 20
296.619640
 30
0.0
  0
SPLINE
  5
188
100
AcDbEntity
  8
0
 62
5
100
AcDbSpline
 70
8
 71
3
 72
8
 73
4
 74
0
 40
0
 40
0
 40
0
 40
0
 40
1
 40
1
 40
1
 40
1
 10
48.025005
 20
296.619640
 30
0.0
 10
47.227210
 20
296.548040
 30
0.0
 10
46.602229
 20
296.668240
 30
0.0
 10
46.040844
 20
297.078000
 30
0.0
  0
SPLINE
  5
189
100
AcDbEntity
  8
0
 62
5
100
AcDbSpline
 70
8
 71
3
 72
8
 73
4
 74
0
 40
0
 40
0
 40
0
 40
0
 40
1
 40
1
 40
1
 40
1
 10
46.040844
 20
297.078000
 30
0.0
 10
46.040907
 20
297.720890
 30
0.0
 10
46.040719
 20
298.366010
 30
0.0
 10
46.040938
 20
299.007510
 30
0.0
  0
LWPOLYLINE
  5
18a
100
AcDbEntity
  8
0
 62
5
100
AcDbPolyline
 90
2
 70
1
 10
46.485320
 20
300.176250
 30
0.0
 10
46.485320
 20
301.046090
 30
0.0
  0
LWPOLYLINE
  5
18b
100
AcDbEntity
  8
0
 62
5
100
AcDbPolyline
 90
2
 70
1
 10
46.040938
 20
299.007510
 30
0.0
 10
46.040938
 20
299.007470
 30
0.0
  0
LWPOLYLINE
  5
18c
100
AcDbEntity
  8
0
 62
5
100
AcDbPolyline
 90
9
 70
1
 10
36.528258
 20
296.600850
 30
0.0
 10
35.721910
 20
296.600850
 30
0.0
 10
37.766351
 20
301.527820
 30
0.0
 10
39.817140
 20
296.600850
 30
0.0
 10
39.004444
 20
296.600850
 30
0.0
 10
38.604444
 20
297.610370
 30
0.0
 10
36.928257
 20
297.610370
 30
0.0
 10
36.528258
 20
296.600850
 30
0.0
 10
36.528258
 20
296.600850
 30
0.0
  0
SPLINE
  5
18d
100
AcDbEntity
  8
0
 62
5
100
AcDbSpline
 70
8
 71
3
 72
8
 73
4
 74
0
 40
0
 40
0
 40
0
 40
0
 40
1
 40
1
 40
1
 40
1
 10
27.699703
 20
296.600850
 30
0.0
 10
27.255259
 20
296.600850
 30
0.0
 10
26.842562
 20
296.734180
 30
0.0
 10
26.531451
 20
296.975450
 30
0.0
  0
SPLINE
  5
18e
100
AcDbEntity
  8
0
 62
5
100
AcDbSpline
 70
8
 71
3
 72
8
 73
4
 74
0
 40
0
 40
0
 40
0
 40
0
 40
1
 40
1
 40
1
 40
1
 10
26.531451
 20
296.975450
 30
0.0
 10
26.353674
 20
297.115130
 30
0.0
 10
26.213991
 20
297.286560
 30
0.0
 10
26.112404
 20
297.483390
 30
0.0
  0
SPLINE
  5
18f
100
AcDbEntity
  8
0
 62
5
100
AcDbSpline
 70
8
 71
3
 72
8
 73
4
 74
0
 40
0
 40
0
 40
0
 40
0
 40
1
 40
1
 40
1
 40
1
 10
26.112404
 20
297.483390
 30
0.0
 10
26.010817
 20
297.699260
 30
0.0
 10
25.953675
 20
297.940530
 30
0.0
 10
25.953675
 20
298.200850
 30
0.0
  0
LWPOLYLINE
  5
190
100
AcDbEntity
  8
0
 62
5
100
AcDbPolyline
 90
5
 70
1
 10
38.337778
 20
298.270690
 30
0.0
 10
37.766351
 20
299.705600
 30
0.0
 10
37.194923
 20
298.270690
 30
0.0
 10
38.337778
 20
298.270690
 30
0.0
 10
38.337778
 20
298.270690
 30
0.0
  0
SPLINE
  5
191
100
AcDbEntity
  8
0
 62
5
100
AcDbSpline
 70
8
 71
3
 72
8
 73
4
 74
0
 40
0
 40
0
 40
0
 40
0
 40
1
 40
1
 40
1
 40
1
 10
26.696530
 20
298.200850
 30
0.0
 10
26.696530
 20
297.921480
 30
0.0
 10
26.791770
 20
297.705610
 30
0.0
 10
26.982244
 20
297.559580
 30
0.0
  0
SPLINE
  5
192
100
AcDbEntity
  8
0
 62
5
100
AcDbSpline
 70
8
 71
3
 72
8
 73
4
 74
0
 40
0
 40
0
 40
0
 40
0
 40
1
 40
1
 40
1
 40
1
 10
26.982244
 20
297.559580
 30
0.0
 10
27.166371
 20
297.419890
 30
0.0
 10
27.426688
 20
297.337360
 30
0.0
 10
27.699703
 20
297.337360
 30
0.0
  0
SPLINE
  5
193
100
AcDbEntity
  8
0
 62
5
100
AcDbSpline
 70
8
 71
3
 72
8
 73
4
 74
0
 40
0
 40
0
 40
0
 40
0
 40
1
 40
1
 40
1
 40
1
 10
27.699703
 20
297.337360
 30
0.0
 10
27.979068
 20
297.337360
 30
0.0
 10
28.239385
 20
297.419860
 30
0.0
 10
28.417162
 20
297.559580
 30
0.0
  0
SPLINE
  5
194
100
AcDbEntity
  8
0
 62
5
100
AcDbSpline
 70
8
 71
3
 72
8
 73
4
 74
0
 40
0
 40
0
 40
0
 40
0
 40
1
 40
1
 40
1
 40
1
 10
28.417162
 20
297.559580
 30
0.0
 10
28.607638
 20
297.705610
 30
0.0
 10
28.709225
 20
297.921480
 30
0.0
 10
28.709225
 20
298.200850
 30
0.0
  0
LWPOLYLINE
  5
195
100
AcDbEntity
  8
0
 62
5
100
AcDbPolyline
 90
4
 70
1
 10
25.953675
 20
298.200850
 30
0.0
 10
25.953675
 20
301.311950
 30
0.0
 10
26.696530
 20
301.311950
 30
0.0
 10
26.696530
 20
298.200850
 30
0.0
  0
SPLINE
  5
196
100
AcDbEntity
  8
0
 62
5
100
AcDbSpline
 70
8
 71
3
 72
8
 73
4
 74
0
 40
0
 40
0
 40
0
 40
0
 40
1
 40
1
 40
1
 40
1
 10
29.445731
 20
298.200850
 30
0.0
 10
29.445731
 20
297.940530
 30
0.0
 10
29.394941
 20
297.699260
 30
0.0
 10
29.287002
 20
297.483390
 30
0.0
  0
SPLINE
  5
197
100
AcDbEntity
  8
0
 62
5
100
AcDbSpline
 70
8
 71
3
 72
8
 73
4
 74
0
 40
0
 40
0
 40
0
 40
0
 40
1
 40
1
 40
1
 40
1
 10
29.287002
 20
297.483390
 30
0.0
 10
29.191762
 20
297.286560
 30
0.0
 10
29.052081
 20
297.115130
 30
0.0
 10
28.867955
 20
296.975450
 30
0.0
  0
SPLINE
  5
198
100
AcDbEntity
  8
0
 62
5
100
AcDbSpline
 70
8
 71
3
 72
8
 73
4
 74
0
 40
0
 40
0
 40
0
 40
0
 40
1
 40
1
 40
1
 40
1
 10
28.867955
 20
296.975450
 30
0.0
 10
28.556844
 20
296.734180
 30
0.0
 10
28.144147
 20
296.600850
 30
0.0
 10
27.699703
 20
296.600850
 30
0.0
  0
LWPOLYLINE
  5
199
100
AcDbEntity
  8
0
 62
5
100
AcDbPolyline
 90
4
 70
1
 10
28.709225
 20
298.200850
 30
0.0
 10
28.709225
 20
301.311950
 30
0.0
 10
29.445731
 20
301.311950
 30
0.0
 10
29.445731
 20
298.200850
 30
0.0
  0
LWPOLYLINE
  5
19a
100
AcDbEntity
  8
0
 62
5
100
AcDbPolyline
 90
3
 70
1
 10
27.699703
 20
296.600850
 30
0.0
 10
27.699703
 20
296.600850
 30
0.0
 10
27.699703
 20
296.600850
 30
0.0
  0
LWPOLYLINE
  5
19b
100
AcDbEntity
  8
0
 62
5
100
AcDbPolyline
 90
10
 70
1
 10
46.136176
 20
286.226270
 30
0.0
 10
46.136176
 20
291.153240
 30
0.0
 10
46.879032
 20
291.153240
 30
0.0
 10
46.879032
 20
288.131020
 30
0.0
 10
49.837757
 20
291.375460
 30
0.0
 10
49.837757
 20
286.442140
 30
0.0
 10
49.101250
 20
286.442140
 30
0.0
 10
49.101250
 20
289.470700
 30
0.0
 10
46.136176
 20
286.226270
 30
0.0
 10
46.136176
 20
286.226270
 30
0.0
  0
LWPOLYLINE
  5
19c
100
AcDbEntity
  8
0
 62
5
100
AcDbPolyline
 90
10
 70
1
 10
36.253655
 20
291.153240
 30
0.0
 10
39.586982
 20
291.153240
 30
0.0
 10
39.586982
 20
290.492920
 30
0.0
 10
38.291747
 20
290.492920
 30
0.0
 10
38.291747
 20
286.442140
 30
0.0
 10
37.548891
 20
286.442140
 30
0.0
 10
37.548891
 20
290.492920
 30
0.0
 10
36.253655
 20
290.492920
 30
0.0
 10
36.253655
 20
291.153240
 30
0.0
 10
36.253655
 20
291.153240
 30
0.0
  0
LWPOLYLINE
  5
19d
100
AcDbEntity
  8
0
 62
5
100
AcDbPolyline
 90
11
 70
1
 10
28.347321
 20
290.492920
 30
0.0
 10
26.252087
 20
290.492920
 30
0.0
 10
26.252087
 20
291.153240
 30
0.0
 10
29.083827
 20
291.153240
 30
0.0
 10
29.083827
 20
286.442140
 30
0.0
 10
28.347321
 20
286.442140
 30
0.0
 10
28.347321
 20
288.569120
 30
0.0
 10
26.626689
 20
288.569120
 30
0.0
 10
26.626689
 20
289.235780
 30
0.0
 10
28.347321
 20
289.235780
 30
0.0
 10
28.347321
 20
290.492920
 30
0.0
  0
LWPOLYLINE
  5
19e
100
AcDbEntity
  8
0
 62
5
100
AcDbPolyline
 90
9
 70
1
 10
46.686969
 20
276.283430
 30
0.0
 10
45.880621
 20
276.283430
 30
0.0
 10
47.925062
 20
281.210400
 30
0.0
 10
49.975852
 20
276.283430
 30
0.0
 10
49.163155
 20
276.283430
 30
0.0
 10
48.763155
 20
277.292950
 30
0.0
 10
47.086968
 20
277.292950
 30
0.0
 10
46.686969
 20
276.283430
 30
0.0
 10
46.686969
 20
276.283430
 30
0.0
  0
SPLINE
  5
19f
100
AcDbEntity
  8
0
 62
5
100
AcDbSpline
 70
8
 71
3
 72
8
 73
4
 74
0
 40
0
 40
0
 40
0
 40
0
 40
1
 40
1
 40
1
 40
1
 10
35.980640
 20
277.636080
 30
0.0
 10
36.303821
 20
277.247910
 30
0.0
 10
36.854183
 20
276.988570
 30
0.0
 10
37.282225
 20
276.982110
 30
0.0
  0
SPLINE
  5
1a0
100
AcDbEntity
  8
0
 62
5
100
AcDbSpline
 70
8
 71
3
 72
8
 73
4
 74
0
 40
0
 40
0
 40
0
 40
0
 40
1
 40
1
 40
1
 40
1
 10
37.282225
 20
276.982110
 30
0.0
 10
37.713970
 20
276.982110
 30
0.0
 10
38.120318
 20
277.153540
 30
0.0
 10
38.425080
 20
277.458300
 30
0.0
  0
SPLINE
  5
1a1
100
AcDbEntity
  8
0
 62
5
100
AcDbSpline
 70
8
 71
3
 72
8
 73
4
 74
0
 40
0
 40
0
 40
0
 40
0
 40
1
 40
1
 40
1
 40
1
 10
38.425080
 20
277.458300
 30
0.0
 10
38.729841
 20
277.763060
 30
0.0
 10
38.901269
 20
278.169410
 30
0.0
 10
38.901269
 20
278.601160
 30
0.0
  0
SPLINE
  5
1a2
100
AcDbEntity
  8
0
 62
5
100
AcDbSpline
 70
8
 71
3
 72
8
 73
4
 74
0
 40
0
 40
0
 40
0
 40
0
 40
1
 40
1
 40
1
 40
1
 10
38.901269
 20
278.601160
 30
0.0
 10
38.901269
 20
279.032900
 30
0.0
 10
38.729841
 20
279.439250
 30
0.0
 10
38.425080
 20
279.744010
 30
0.0
  0
SPLINE
  5
1a3
100
AcDbEntity
  8
0
 62
5
100
AcDbSpline
 70
8
 71
3
 72
8
 73
4
 74
0
 40
0
 40
0
 40
0
 40
0
 40
1
 40
1
 40
1
 40
1
 10
38.425080
 20
279.744010
 30
0.0
 10
38.120318
 20
280.055120
 30
0.0
 10
37.713970
 20
280.220200
 30
0.0
 10
37.282225
 20
280.220200
 30
0.0
  0
SPLINE
  5
1a4
100
AcDbEntity
  8
0
 62
5
100
AcDbSpline
 70
8
 71
3
 72
8
 73
4
 74
0
 40
0
 40
0
 40
0
 40
0
 40
1
 40
1
 40
1
 40
1
 10
37.282225
 20
280.220200
 30
0.0
 10
36.901273
 20
280.220200
 30
0.0
 10
36.545718
 20
280.093220
 30
0.0
 10
36.260004
 20
279.858300
 30
0.0
  0
LWPOLYLINE
  5
1a5
100
AcDbEntity
  8
0
 62
5
100
AcDbPolyline
 90
5
 70
1
 10
48.496489
 20
277.953270
 30
0.0
 10
47.925062
 20
279.388180
 30
0.0
 10
47.353634
 20
277.953270
 30
0.0
 10
48.496489
 20
277.953270
 30
0.0
 10
48.496489
 20
277.953270
 30
0.0
  0
SPLINE
  5
1a6
100
AcDbEntity
  8
0
 62
5
100
AcDbSpline
 70
8
 71
3
 72
8
 73
4
 74
0
 40
0
 40
0
 40
0
 40
0
 40
1
 40
1
 40
1
 40
1
 10
36.260004
 20
280.728140
 30
0.0
 10
37.179633
 20
281.118740
 30
0.0
 10
38.303552
 20
280.885430
 30
0.0
 10
38.945714
 20
280.270990
 30
0.0
  0
SPLINE
  5
1a7
100
AcDbEntity
  8
0
 62
5
100
AcDbSpline
 70
8
 71
3
 72
8
 73
4
 74
0
 40
0
 40
0
 40
0
 40
0
 40
1
 40
1
 40
1
 40
1
 10
38.945714
 20
280.270990
 30
0.0
 10
39.389658
 20
279.800020
 30
0.0
 10
39.633218
 20
279.199810
 30
0.0
 10
39.637776
 20
278.601150
 30
0.0
  0
SPLINE
  5
1a8
100
AcDbEntity
  8
0
 62
5
100
AcDbSpline
 70
8
 71
3
 72
8
 73
4
 74
0
 40
0
 40
0
 40
0
 40
0
 40
1
 40
1
 40
1
 40
1
 10
39.637776
 20
278.601150
 30
0.0
 10
39.616696
 20
277.953210
 30
0.0
 10
39.366455
 20
277.364150
 30
0.0
 10
38.945714
 20
276.937660
 30
0.0
  0
SPLINE
  5
1a9
100
AcDbEntity
  8
0
 62
5
100
AcDbSpline
 70
8
 71
3
 72
8
 73
4
 74
0
 40
0
 40
0
 40
0
 40
0
 40
1
 40
1
 40
1
 40
1
 10
38.945714
 20
276.937660
 30
0.0
 10
38.475338
 20
276.494190
 30
0.0
 10
37.881466
 20
276.250170
 30
0.0
 10
37.282225
 20
276.245600
 30
0.0
  0
SPLINE
  5
1aa
100
AcDbEntity
  8
0
 62
5
100
AcDbSpline
 70
8
 71
3
 72
8
 73
4
 74
0
 40
0
 40
0
 40
0
 40
0
 40
1
 40
1
 40
1
 40
1
 10
37.282225
 20
276.245600
 30
0.0
 10
36.773253
 20
276.255600
 30
0.0
 10
36.380066
 20
276.406100
 30
0.0
 10
35.980640
 20
276.632900
 30
0.0
  0
LWPOLYLINE
  5
1ab
100
AcDbEntity
  8
0
 62
5
100
AcDbPolyline
 90
2
 70
1
 10
36.260004
 20
279.858300
 30
0.0
 10
36.260004
 20
280.728140
 30
0.0
  0
LWPOLYLINE
  5
1ac
100
AcDbEntity
  8
0
 62
5
100
AcDbPolyline
 90
3
 70
1
 10
35.980640
 20
276.632900
 30
0.0
 10
35.980640
 20
277.636080
 30
0.0
 10
35.980640
 20
277.636080
 30
0.0
  0
LWPOLYLINE
  5
1ad
100
AcDbEntity
  8
0
 62
5
100
AcDbPolyline
 90
13
 70
1
 10
28.347321
 20
280.334210
 30
0.0
 10
26.258436
 20
280.334210
 30
0.0
 10
26.258436
 20
280.994530
 30
0.0
 10
29.083827
 20
280.994530
 30
0.0
 10
29.083827
 20
276.283430
 30
0.0
 10
26.258436
 20
276.283430
 30
0.0
 10
26.258436
 20
276.950090
 30
0.0
 10
28.347321
 20
276.950090
 30
0.0
 10
28.347321
 20
278.410410
 30
0.0
 10
26.626689
 20
278.410410
 30
0.0
 10
26.626689
 20
279.077070
 30
0.0
 10
28.347321
 20
279.077070
 30
0.0
 10
28.347321
 20
280.334210
 30
0.0
  0
SPLINE
  5
1ae
100
AcDbEntity
  8
0
 62
3
100
AcDbSpline
 70
8
 71
3
 72
8
 73
4
 74
0
 40
0
 40
0
 40
0
 40
0
 40
1
 40
1
 40
1
 40
1
 10
46.777445
 20
297.470960
 30
0.0
 10
47.217796
 20
297.256270
 30
0.0
 10
47.749634
 20
297.238320
 30
0.0
 10
48.198487
 20
297.455760
 30
0.0
  0
SPLINE
  5
1af
100
AcDbEntity
  8
0
 62
3
100
AcDbSpline
 70
8
 71
3
 72
8
 73
4
 74
0
 40
0
 40
0
 40
0
 40
0
 40
1
 40
1
 40
1
 40
1
 10
48.198487
 20
297.455760
 30
0.0
 10
48.799827
 20
297.732220
 30
0.0
 10
49.179970
 20
298.402490
 30
0.0
 10
49.120277
 20
299.059460
 30
0.0
  0
SPLINE
  5
1b0
100
AcDbEntity
  8
0
 62
3
100
AcDbSpline
 70
8
 71
3
 72
8
 73
4
 74
0
 40
0
 40
0
 40
0
 40
0
 40
1
 40
1
 40
1
 40
1
 10
49.120277
 20
299.059460
 30
0.0
 10
49.066957
 20
299.723890
 30
0.0
 10
48.567476
 20
300.328560
 30
0.0
 10
47.916229
 20
300.487640
 30
0.0
  0
SPLINE
  5
1b1
100
AcDbEntity
  8
0
 62
3
100
AcDbSpline
 70
8
 71
3
 72
8
 73
4
 74
0
 40
0
 40
0
 40
0
 40
0
 40
1
 40
1
 40
1
 40
1
 10
47.916229
 20
300.487640
 30
0.0
 10
47.422444
 20
300.613680
 30
0.0
 10
46.879721
 20
300.504840
 30
0.0
 10
46.485320
 20
300.176250
 30
0.0
  0
LWPOLYLINE
  5
1b2
100
AcDbEntity
  8
0
 62
3
100
AcDbPolyline
 90
5
 70
1
 10
46.040938
 20
299.007470
 30
0.0
 10
47.666332
 20
299.007470
 30
0.0
 10
47.666332
 20
298.340800
 30
0.0
 10
46.777445
 20
298.340800
 30
0.0
 10
46.777445
 20
297.470960
 30
0.0
  0
SPLINE
  5
1b3
100
AcDbEntity
  8
0
 62
3
100
AcDbSpline
 70
8
 71
3
 72
8
 73
4
 74
0
 40
0
 40
0
 40
0
 40
0
 40
1
 40
1
 40
1
 40
1
 10
46.485320
 20
301.046090
 30
0.0
 10
47.313034
 20
301.453220
 30
0.0
 10
48.381862
 20
301.310100
 30
0.0
 10
49.067290
 20
300.686840
 30
0.0
  0
SPLINE
  5
1b4
100
AcDbEntity
  8
0
 62
3
100
AcDbSpline
 70
8
 71
3
 72
8
 73
4
 74
0
 40
0
 40
0
 40
0
 40
0
 40
1
 40
1
 40
1
 40
1
 10
49.067290
 20
300.686840
 30
0.0
 10
49.653620
 20
300.176390
 30
0.0
 10
49.954243
 20
299.365580
 30
0.0
 10
49.841001
 20
298.596410
 30
0.0
  0
SPLINE
  5
1b5
100
AcDbEntity
  8
0
 62
3
100
AcDbSpline
 70
8
 71
3
 72
8
 73
4
 74
0
 40
0
 40
0
 40
0
 40
0
 40
1
 40
1
 40
1
 40
1
 10
49.841001
 20
298.596410
 30
0.0
 10
49.722727
 20
297.644740
 30
0.0
 10
48.959691
 20
296.821210
 30
0.0
 10
48.025005
 20
296.619640
 30
0.0
  0
SPLINE
  5
1b6
100
AcDbEntity
  8
0
 62
3
100
AcDbSpline
 70
8
 71
3
 72
8
 73
4
 74
0
 40
0
 40
0
 40
0
 40
0
 40
1
 40
1
 40
1
 40
1
 10
48.025005
 20
296.619640
 30
0.0
 10
47.227210
 20
296.548040
 30
0.0
 10
46.602229
 20
296.668240
 30
0.0
 10
46.040844
 20
297.078000
 30
0.0
  0
SPLINE
  5
1b7
100
AcDbEntity
  8
0
 62
3
100
AcDbSpline
 70
8
 71
3
 72
8
 73
4
 74
0
 40
0
 40
0
 40
0
 40
0
 40
1
 40
1
 40
1
 40
1
 10
46.040844
 20
297.078000
 30
0.0
 10
46.040907
 20
297.720890
 30
0.0
 10
46.040719
 20
298.366010
 30
0.0
 10
46.040938
 20
299.007510
 30
0.0
  0
LWPOLYLINE
  5
1b8
100
AcDbEntity
  8
0
 62
3
100
AcDbPolyline
 90
2
 70
1
 10
46.485320
 20
300.176250
 30
0.0
 10
46.485320
 20
301.046090
 30
0.0
  0
LWPOLYLINE
  5
1b9
100
AcDbEntity
  8
0
 62
3
100
AcDbPolyline
 90
2
 70
1
 10
46.040938
 20
299.007510
 30
0.0
 10
46.040938
 20
299.007470
 30
0.0
  0
LWPOLYLINE
  5
1ba
100
AcDbEntity
  8
0
 62
3
100
AcDbPolyline
 90
9
 70
1
 10
36.528258
 20
296.600850
 30
0.0
 10
35.721910
 20
296.600850
 30
0.0
 10
37.766351
 20
301.527820
 30
0.0
 10
39.817140
 20
296.600850
 30
0.0
 10
39.004444
 20
296.600850
 30
0.0
 10
38.604444
 20
297.610370
 30
0.0
 10
36.928257
 20
297.610370
 30
0.0
 10
36.528258
 20
296.600850
 30
0.0
 10
36.528258
 20
296.600850
 30
0.0
  0
SPLINE
  5
1bb
100
AcDbEntity
  8
0
 62
3
100
AcDbSpline
 70
8
 71
3
 72
8
 73
4
 74
0
 40
0
 40
0
 40
0
 40
0
 40
1
 40
1
 40
1
 40
1
 10
27.699703
 20
296.600850
 30
0.0
 10
27.255259
 20
296.600850
 30
0.0
 10
26.842562
 20
296.734180
 30
0.0
 10
26.531451
 20
296.975450
 30
0.0
  0
SPLINE
  5
1bc
100
AcDbEntity
  8
0
 62
3
100
AcDbSpline
 70
8
 71
3
 72
8
 73
4
 74
0
 40
0
 40
0
 40
0
 40
0
 40
1
 40
1
 40
1
 40
1
 10
26.531451
 20
296.975450
 30
0.0
 10
26.353674
 20
297.115130
 30
0.0
 10
26.213991
 20
297.286560
 30
0.0
 10
26.112404
 20
297.483390
 30
0.0
  0
SPLINE
  5
1bd
100
AcDbEntity
  8
0
 62
3
100
AcDbSpline
 70
8
 71
3
 72
8
 73
4
 74
0
 40
0
 40
0
 40
0
 40
0
 40
1
 40
1
 40
1
 40
1
 10
26.112404
 20
297.483390
 30
0.0
 10
26.010817
 20
297.699260
 30
0.0
 10
25.953675
 20
297.940530
 30
0.0
 10
25.953675
 20
298.200850
 30
0.0
  0
LWPOLYLINE
  5
1be
100
AcDbEntity
  8
0
 62
3
100
AcDbPolyline
 90
5
 70
1
 10
38.337778
 20
298.270690
 30
0.0
 10
37.766351
 20
299.705600
 30
0.0
 10
37.194923
 20
298.270690
 30
0.0
 10
38.337778
 20
298.270690
 30
0.0
 10
38.337778
 20
298.270690
 30
0.0
  0
SPLINE
  5
1bf
100
AcDbEntity
  8
0
 62
3
100
AcDbSpline
 70
8
 71
3
 72
8
 73
4
 74
0
 40
0
 40
0
 40
0
 40
0
 40
1
 40
1
 40
1
 40
1
 10
26.696530
 20
298.200850
 30
0.0
 10
26.696530
 20
297.921480
 30
0.0
 10
26.791770
 20
297.705610
 30
0.0
 10
26.982244
 20
297.559580
 30
0.0
  0
SPLINE
  5
1c0
100
AcDbEntity
  8
0
 62
3
100
AcDbSpline
 70
8
 71
3
 72
8
 73
4
 74
0
 40
0
 40
0
 40
0
 40
0
 40
1
 40
1
 40
1
 40
1
 10
26.982244
 20
297.559580
 30
0.0
 10
27.166371
 20
297.419890
 30
0.0
 10
27.426688
 20
297.337360
 30
0.0
 10
27.699703
 20
297.337360
 30
0.0
  0
SPLINE
  5
1c1
100
AcDbEntity
  8
0
 62
3
100
AcDbSpline
 70
8
 71
3
 72
8
 73
4
 74
0
 40
0
 40
0
 40
0
 40
0
 40
1
 40
1
 40
1
 40
1
 10
27.699703
 20
297.337360
 30
0.0
 10
27.979068
 20
297.337360
 30
0.0
 10
28.239385
 20
297.419860
 30
0.0
 10
28.417162
 20
297.559580
 30
0.0
  0
SPLINE
  5
1c2
100
AcDbEntity
  8
0
 62
3
100
AcDbSpline
 70
8
 71
3
 72
8
 73
4
 74
0
 40
0
 40
0
 40
0
 40
0
 40
1
 40
1
 40
1
 40
1
 10
28.417162
 20
297.559580
 30
0.0
 10
28.607638
 20
297.705610
 30
0.0
 10
28.709225
 20
297.921480
 30
0.0
 10
28.709225
 20
298.200850
 30
0.0
  0
LWPOLYLINE
  5
1c3
100
AcDbEntity
  8
0
 62
3
100
AcDbPolyline
 90
4
 70
1
 10
25.953675
 20
298.200850
 30
0.0
 10
25.953675
 20
301.311950
 30
0.0
 10
26.696530
 20
301.311950
 30
0.0
 10
26.696530
 20
298.200850
 30
0.0
  0
SPLINE
  5
1c4
100
AcDbEntity
  8
0
 62
3
100
AcDbSpline
 70
8
 71
3
 72
8
 73
4
 74
0
 40
0
 40
0
 40
0
 40
0
 40
1
 40
1
 40
1
 40
1
 10
29.445731
 20
298.200850
 30
0.0
 10
29.445731
 20
297.940530
 30
0.0
 10
29.394941
 20
297.699260
 30
0.0
 10
29.287002
 20
297.483390
 30
0.0
  0
SPLINE
  5
1c5
100
AcDbEntity
  8
0
 62
3
100
AcDbSpline
 70
8
 71
3
 72
8
 73
4
 74
0
 40
0
 40
0
 40
0
 40
0
 40
1
 40
1
 40
1
 40
1
 10
29.287002
 20
297.483390
 30
0.0
 10
29.191762
 20
297.286560
 30
0.0
 10
29.052081
 20
297.115130
 30
0.0
 10
28.867955
 20
296.975450
 30
0.0
  0
SPLINE
  5
1c6
100
AcDbEntity
  8
0
 62
3
100
AcDbSpline
 70
8
 71
3
 72
8
 73
4
 74
0
 40
0
 40
0
 40
0
 40
0
 40
1
 40
1
 40
1
 40
1
 10
28.867955
 20
296.975450
 30
0.0
 10
28.556844
 20
296.734180
 30
0.0
 10
28.144147
 20
296.600850
 30
0.0
 10
27.699703
 20
296.600850
 30
0.0
  0
LWPOLYLINE
  5
1c7
100
AcDbEntity
  8
0
 62
3
100
AcDbPolyline
 90
4
 70
1
 10
28.709225
 20
298.200850
 30
0.0
 10
28.709225
 20
301.311950
 30
0.0
 10
29.445731
 20
301.311950
 30
0.0
 10
29.445731
 20
298.200850
 30
0.0
  0
LWPOLYLINE
  5
1c8
100
AcDbEntity
  8
0
 62
3
100
AcDbPolyline
 90
3
 70
1
 10
27.699703
 20
296.600850
 30
0.0
 10
27.699703
 20
296.600850
 30
0.0
 10
27.699703
 20
296.600850
 30
0.0
  0
LWPOLYLINE
  5
1c9
100
AcDbEntity
  8
0
 62
3
100
AcDbPolyline
 90
10
 70
1
 10
46.136176
 20
286.226270
 30
0.0
 10
46.136176
 20
291.153240
 30
0.0
 10
46.879032
 20
291.153240
 30
0.0
 10
46.879032
 20
288.131020
 30
0.0
 10
49.837757
 20
291.375460
 30
0.0
 10
49.837757
 20
286.442140
 30
0.0
 10
49.101250
 20
286.442140
 30
0.0
 10
49.101250
 20
289.470700
 30
0.0
 10
46.136176
 20
286.226270
 30
0.0
 10
46.136176
 20
286.226270
 30
0.0
  0
LWPOLYLINE
  5
1ca
100
AcDbEntity
  8
0
 62
3
100
AcDbPolyline
 90
10
 70
1
 10
36.253655
 20
291.153240
 30
0.0
 10
39.586982
 20
291.153240
 30
0.0
 10
39.586982
 20
290.492920
 30
0.0
 10
38.291747
 20
290.492920
 30
0.0
 10
38.291747
 20
286.442140
 30
0.0
 10
37.548891
 20
286.442140
 30
0.0
 10
37.548891
 20
290.492920
 30
0.0
 10
36.253655
 20
290.492920
 30
0.0
 10
36.253655
 20
291.153240
 30
0.0
 10
36.253655
 20
291.153240
 30
0.0
  0
LWPOLYLINE
  5
1cb
100
AcDbEntity
  8
0
 62
3
100
AcDbPolyline
 90
11
 70
1
 10
28.347321
 20
290.492920
 30
0.0
 10
26.252087
 20
290.492920
 30
0.0
 10
26.252087
 20
291.153240
 30
0.0
 10
29.083827
 20
291.153240
 30
0.0
 10
29.083827
 20
286.442140
 30
0.0
 10
28.347321
 20
286.442140
 30
0.0
 10
28.347321
 20
288.569120
 30
0.0
 10
26.626689
 20
288.569120
 30
0.0
 10
26.626689
 20
289.235780
 30
0.0
 10
28.347321
 20
289.235780
 30
0.0
 10
28.347321
 20
290.492920
 30
0.0
  0
LWPOLYLINE
  5
1cc
100
AcDbEntity
  8
0
 62
3
100
AcDbPolyline
 90
9
 70
1
 10
46.686969
 20
276.283430
 30
0.0
 10
45.880621
 20
276.283430
 30
0.0
 10
47.925062
 20
281.210400
 30
0.0
 10
49.975852
 20
276.283430
 30
0.0
 10
49.163155
 20
276.283430
 30
0.0
 10
48.763155
 20
277.292950
 30
0.0
 10
47.086968
 20
277.292950
 30
0.0
 10
46.686969
 20
276.283430
 30
0.0
 10
46.686969
 20
276.283430
 30
0.0
  0
SPLINE
  5
1cd
100
AcDbEntity
  8
0
 62
3
100
AcDbSpline
 70
8
 71
3
 72
8
 73
4
 74
0
 40
0
 40
0
 40
0
 40
0
 40
1
 40
1
 40
1
 40
1
 10
35.980640
 20
277.636080
 30
0.0
 10
36.303821
 20
277.247910
 30
0.0
 10
36.854183
 20
276.988570
 30
0.0
 10
37.282225
 20
276.982110
 30
0.0
  0
SPLINE
  5
1ce
100
AcDbEntity
  8
0
 62
3
100
AcDbSpline
 70
8
 71
3
 72
8
 73
4
 74
0
 40
0
 40
0
 40
0
 40
0
 40
1
 40
1
 40
1
 40
1
 10
37.282225
 20
276.982110
 30
0.0
 10
37.713970
 20
276.982110
 30
0.0
 10
38.120318
 20
277.153540
 30
0.0
 10
38.425080
 20
277.458300
 30
0.0
  0
SPLINE
  5
1cf
100
AcDbEntity
  8
0
 62
3
100
AcDbSpline
 70
8
 71
3
 72
8
 73
4
 74
0
 40
0
 40
0
 40
0
 40
0
 40
1
 40
1
 40
1
 40
1
 10
38.425080
 20
277.458300
 30
0.0
 10
38.729841
 20
277.763060
 30
0.0
 10
38.901269
 20
278.169410
 30
0.0
 10
38.901269
 20
278.601160
 30
0.0
  0
SPLINE
  5
1d0
100
AcDbEntity
  8
0
 62
3
100
AcDbSpline
 70
8
 71
3
 72
8
 73
4
 74
0
 40
0
 40
0
 40
0
 40
0
 40
1
 40
1
 40
1
 40
1
 10
38.901269
 20
278.601160
 30
0.0
 10
38.901269
 20
279.032900
 30
0.0
 10
38.729841
 20
279.439250
 30
0.0
 10
38.425080
 20
279.744010
 30
0.0
  0
SPLINE
  5
1d1
100
AcDbEntity
  8
0
 62
3
100
AcDbSpline
 70
8
 71
3
 72
8
 73
4
 74
0
 40
0
 40
0
 40
0
 40
0
 40
1
 40
1
 40
1
 40
1
 10
38.425080
 20
279.744010
 30
0.0
 10
38.120318
 20
280.055120
 30
0.0
 10
37.713970
 20
280.220200
 30
0.0
 10
37.282225
 20
280.220200
 30
0.0
  0
SPLINE
  5
1d2
100
AcDbEntity
  8
0
 62
3
100
AcDbSpline
 70
8
 71
3
 72
8
 73
4
 74
0
 40
0
 40
0
 40
0
 40
0
 40
1
 40
1
 40
1
 40
1
 10
37.282225
 20
280.220200
 30
0.0
 10
36.901273
 20
280.220200
 30
0.0
 10
36.545718
 20
280.093220
 30
0.0
 10
36.260004
 20
279.858300
 30
0.0
  0
LWPOLYLINE
  5
1d3
100
AcDbEntity
  8
0
 62
3
100
AcDbPolyline
 90
5
 70
1
 10
48.496489
 20
277.953270
 30
0.0
 10
47.925062
 20
279.388180
 30
0.0
 10
47.353634
 20
277.953270
 30
0.0
 10
48.496489
 20
277.953270
 30
0.0
 10
48.496489
 20
277.953270
 30
0.0
  0
SPLINE
  5
1d4
100
AcDbEntity
  8
0
 62
3
100
AcDbSpline
 70
8
 71
3
 72
8
 73
4
 74
0
 40
0
 40
0
 40
0
 40
0
 40
1
 40
1
 40
1
 40
1
 10
36.260004
 20
280.728140
 30
0.0
 10
37.179633
 20
281.118740
 30
0.0
 10
38.303552
 20
280.885430
 30
0.0
 10
38.945714
 20
280.270990
 30
0.0
  0
SPLINE
  5
1d5
100
AcDbEntity
  8
0
 62
3
100
AcDbSpline
 70
8
 71
3
 72
8
 73
4
 74
0
 40
0
 40
0
 40
0
 40
0
 40
1
 40
1
 40
1
 40
1
 10
38.945714
 20
280.270990
 30
0.0
 10
39.389658
 20
279.800020
 30
0.0
 10
39.633218
 20
279.199810
 30
0.0
 10
39.637776
 20
278.601150
 30
0.0
  0
SPLINE
  5
1d6
100
AcDbEntity
  8
0
 62
3
100
AcDbSpline
 70
8
 71
3
 72
8
 73
4
 74
0
 40
0
 40
0
 40
0
 40
0
 40
1
 40
1
 40
1
 40
1
 10
39.637776
 20
278.601150
 30
0.0
 10
39.616696
 20
277.953210
 30
0.0
 10
39.366455
 20
277.364150
 30
0.0
 10
38.945714
 20
276.937660
 30
0.0
  0
SPLINE
  5
1d7
100
AcDbEntity
  8
0
 62
3
100
AcDbSpline
 70
8
 71
3
 72
8
 73
4
 74
0
 40
0
 40
0
 40
0
 40
0
 40
1
 40
1
 40
1
 40
1
 10
38.945714
 20
276.937660
 30
0.0
 10
38.475338
 20
276.494190
 30
0.0
 10
37.881466
 20
276.250170
 30
0.0
 10
37.282225
 20
276.245600
 30
0.0
  0
SPLINE
  5
1d8
100
AcDbEntity
  8
0
 62
3
100
AcDbSpline
 70
8
 71
3
 72
8
 73
4
 74
0
 40
0
 40
0
 40
0
 40
0
 40
1
 40
1
 40
1
 40
1
 10
37.282225
 20
276.245600
 30
0.0
 10
36.773253
 20
276.255600
 30
0.0
 10
36.380066
 20
276.406100
 30
0.0
 10
35.980640
 20
276.632900
 30
0.0
  0
LWPOLYLINE
  5
1d9
100
AcDbEntity
  8
0
 62
3
100
AcDbPolyline
 90
2
 70
1
 10
36.260004
 20
279.858300
 30
0.0
 10
36.260004
 20
280.728140
 30
0.0
  0
LWPOLYLINE
  5
1da
100
AcDbEntity
  8
0
 62
3
100
AcDbPolyline
 90
3
 70
1
 10
35.980640
 20
276.632900
 30
0.0
 10
35.980640
 20
277.636080
 30
0.0
 10
35.980640
 20
277.636080
 30
0.0
  0
LWPOLYLINE
  5
1db
100
AcDbEntity
  8
0
 62
3
100
AcDbPolyline
 90
13
 70
1
 10
28.347321
 20
280.334210
 30
0.0
 10
26.258436
 20
280.334210
 30
0.0
 10
26.258436
 20
280.994530
 30
0.0
 10
29.083827
 20
280.994530
 30
0.0
 10
29.083827
 20
276.283430
 30
0.0
 10
26.258436
 20
276.283430
 30
0.0
 10
26.258436
 20
276.950090
 30
0.0
 10
28.347321
 20
276.950090
 30
0.0
 10
28.347321
 20
278.410410
 30
0.0
 10
26.626689
 20
278.410410
 30
0.0
 10
26.626689
 20
279.077070
 30
0.0
 10
28.347321
 20
279.077070
 30
0.0
 10
28.347321
 20
280.334210
 30
0.0
  0
ENDSEC
  0
SECTION
  2
OBJECTS
  0
DICTIONARY
  5
C
330
0
100
AcDbDictionary
  3
ACAD_GROUP
350
D
  3
ACAD_MLINESTYLE
350
17
  0
DICTIONARY
  5
D
330
C
100
AcDbDictionary
  0
DICTIONARY
  5
1A
330
C
100
AcDbDictionary
  0
DICTIONARY
  5
17
330
C
100
AcDbDictionary
  3
STANDARD
350
18
  0
DICTIONARY
  5
19
330
C
100
AcDbDictionary
  0
ENDSEC
  0
EOF
