<?xml version="1.0" standalone="no"?>
<!DOCTYPE svg PUBLIC "-//W3C//DTD SVG 1.1//EN" "http://www.w3.org/Graphics/SVG/1.1/DTD/svg11.dtd">
<svg width="271mm" height="609mm" viewBox="-4 -605 271 609" xmlns="http://www.w3.org/2000/svg" version="1.1">
<title>OpenSCAD Model</title>
<path d="
M 8,-569.3 L 8,-568.25 L 5.5,-568.25 L 5.5,-569.3 L 3,-569.3 L 3,-567.4
 L -0.0499878,-567.4 L -0.0499878,-561.4 L 3,-561.4 L 3,-554.2 L -0.0499878,-554.2 L -0.0499878,-548.2
 L 3,-548.2 L 3,-541 L 8,-541 L 8,-537.95 L 14.6667,-537.95 L 14.6667,-541
 L 19.6667,-541 L 19.6667,-537.95 L 26.3333,-537.95 L 26.3333,-541 L 31.3333,-541 L 31.3333,-537.95
 L 38,-537.95 L 38,-541 L 43,-541 L 43,-548.2 L 46.05,-548.2 L 46.05,-554.2
 L 43,-554.2 L 43,-561.4 L 46.05,-561.4 L 46.05,-567.4 L 43,-567.4 L 43,-569.3
 L 40.5,-569.3 L 40.5,-568.25 L 38,-568.25 L 38,-569.3 L 36.05,-569.3 L 36.05,-572.7
 L 38,-572.7 L 38,-573.75 L 40.5,-573.75 L 40.5,-572.7 L 43,-572.7 L 43,-574.6
 L 46.05,-574.6 L 46.05,-580.6 L 43,-580.6 L 43,-587.8 L 46.05,-587.8 L 46.05,-593.8
 L 43,-593.8 L 43,-601 L 38,-601 L 38,-604.05 L 31.3333,-604.05 L 31.3333,-601
 L 26.3333,-601 L 26.3333,-604.05 L 19.6667,-604.05 L 19.6667,-601 L 14.6667,-601 L 14.6667,-604.05
 L 8,-604.05 L 8,-601 L 3,-601 L 3,-593.8 L -0.0499878,-593.8 L -0.0499878,-587.8
 L 3,-587.8 L 3,-580.6 L -0.0499878,-580.6 L -0.0499878,-574.6 L 3,-574.6 L 3,-572.7
 L 5.5,-572.7 L 5.5,-573.75 L 8,-573.75 L 8,-572.7 L 9.95,-572.7 L 9.95,-569.3
 z
M 63.6667,-541 L 68.6667,-541 L 68.6667,-537.95 L 75.3333,-537.95 L 75.3333,-541 L 80.3333,-541
 L 80.3333,-537.95 L 87,-537.95 L 87,-541 L 92,-541 L 92,-548.2 L 95.05,-548.2
 L 95.05,-554.2 L 92,-554.2 L 92,-561.4 L 95.05,-561.4 L 95.05,-567.4 L 92,-567.4
 L 92,-569.3 L 89.5,-569.3 L 89.5,-568.25 L 87,-568.25 L 87,-569.3 L 85.05,-569.3
 L 85.05,-572.7 L 87,-572.7 L 87,-573.75 L 89.5,-573.75 L 89.5,-572.7 L 92,-572.7
 L 92,-574.6 L 95.05,-574.6 L 95.05,-580.6 L 92,-580.6 L 92,-587.8 L 95.05,-587.8
 L 95.05,-593.8 L 92,-593.8 L 92,-601 L 87,-601 L 87,-604.05 L 80.3333,-604.05
 L 80.3333,-601 L 75.3333,-601 L 75.3333,-604.05 L 68.6667,-604.05 L 68.6667,-601 L 63.6667,-601
 L 63.6667,-604.05 L 57,-604.05 L 57,-601 L 52,-601 L 52,-593.8 L 48.95,-593.8
 L 48.95,-587.8 L 52,-587.8 L 52,-580.6 L 48.95,-580.6 L 48.95,-574.6 L 52,-574.6
 L 52,-572.7 L 54.5,-572.7 L 54.5,-573.75 L 57,-573.75 L 57,-572.7 L 58.95,-572.7
 L 58.95,-569.3 L 57,-569.3 L 57,-568.25 L 54.5,-568.25 L 54.5,-569.3 L 52,-569.3
 L 52,-567.4 L 48.95,-567.4 L 48.95,-561.4 L 52,-561.4 L 52,-554.2 L 48.95,-554.2
 L 48.95,-548.2 L 52,-548.2 L 52,-541 L 57,-541 L 57,-537.95 L 63.6667,-537.95
 z
M 158,-533 L 84,-533 L 84,-265 L 158,-265 z
M 120.475,-525.883 L 120.001,-526.125 L 119.625,-526.501 L 119.383,-526.975 L 119.3,-527.5 L 119.383,-528.025
 L 119.625,-528.499 L 120.001,-528.875 L 120.475,-529.117 L 121,-529.2 L 121.525,-529.117 L 121.656,-529.05
 L 121.999,-528.875 L 122.375,-528.499 L 122.617,-528.025 L 122.7,-527.5 L 122.617,-526.975 L 122.375,-526.501
 L 121.999,-526.125 L 121.656,-525.95 L 121.525,-525.883 L 121,-525.8 z
M 124.6,-525.95 L 124.6,-529.05 L 130.6,-529.05 L 130.6,-525.95 z
M 137.8,-525.95 L 137.8,-529.05 L 143.8,-529.05 L 143.8,-525.95 z
M 98.2,-525.95 L 98.2,-529.05 L 104.2,-529.05 L 104.2,-525.95 z
M 117.4,-525.95 L 111.4,-525.95 L 111.4,-529.05 L 117.4,-529.05 z
M 107.364,-519.561 L 107.015,-519.739 L 106.739,-520.015 L 106.561,-520.364 L 106.5,-520.75 L 106.561,-521.136
 L 106.739,-521.485 L 107.015,-521.761 L 107.364,-521.939 L 107.75,-522 L 108.136,-521.939 L 108.485,-521.761
 L 108.761,-521.485 L 108.939,-521.136 L 109,-520.75 L 108.939,-520.364 L 108.761,-520.015 L 108.485,-519.739
 L 108.136,-519.561 L 107.75,-519.5 z
M 142.455,-512.245 L 141.061,-512.955 L 139.955,-514.061 L 139.245,-515.455 L 139,-517 L 139.245,-518.545
 L 139.955,-519.939 L 141.061,-521.045 L 142.455,-521.755 L 144,-522 L 145.545,-521.755 L 146.939,-521.045
 L 148.045,-519.939 L 148.755,-518.545 L 149,-517 L 148.755,-515.455 L 148.045,-514.061 L 146.939,-512.955
 L 145.545,-512.245 L 144,-512 z
M 133.864,-519.561 L 133.515,-519.739 L 133.239,-520.015 L 133.061,-520.364 L 133,-520.75 L 133.061,-521.136
 L 133.239,-521.485 L 133.515,-521.761 L 133.864,-521.939 L 134.25,-522 L 134.636,-521.939 L 134.985,-521.761
 L 135.261,-521.485 L 135.439,-521.136 L 135.5,-520.75 L 135.439,-520.364 L 135.261,-520.015 L 134.985,-519.739
 L 134.636,-519.561 L 134.25,-519.5 z
M 96.4549,-512.245 L 95.0611,-512.955 L 93.9549,-514.061 L 93.2447,-515.455 L 93,-517 L 93.2447,-518.545
 L 93.9549,-519.939 L 95.0611,-521.045 L 96.4549,-521.755 L 98,-522 L 99.5451,-521.755 L 100.939,-521.045
 L 102.045,-519.939 L 102.755,-518.545 L 103,-517 L 102.755,-515.455 L 102.045,-514.061 L 100.939,-512.955
 L 99.5451,-512.245 L 98,-512 z
M 88,-498.667 L 88,-511.667 L 91,-511.667 L 91,-498.667 z
M 151,-498.667 L 151,-511.667 L 154,-511.667 L 154,-498.667 z
M 107.5,-467 L 107.5,-505 L 134.5,-505 L 134.5,-467 z
M 88,-468.333 L 88,-481.333 L 91,-481.333 L 91,-468.333 z
M 151,-468.333 L 151,-481.333 L 154,-481.333 L 154,-468.333 z
M 107.364,-454.561 L 107.015,-454.739 L 106.739,-455.015 L 106.561,-455.364 L 106.5,-455.75 L 106.561,-456.136
 L 106.739,-456.485 L 107.015,-456.761 L 107.364,-456.939 L 107.75,-457 L 108.136,-456.939 L 108.485,-456.761
 L 108.761,-456.485 L 108.939,-456.136 L 109,-455.75 L 108.939,-455.364 L 108.761,-455.015 L 108.485,-454.739
 L 108.136,-454.561 L 107.75,-454.5 z
M 133.864,-454.561 L 133.515,-454.739 L 133.239,-455.015 L 133.061,-455.364 L 133,-455.75 L 133.061,-456.136
 L 133.239,-456.485 L 133.515,-456.761 L 133.864,-456.939 L 134.25,-457 L 134.636,-456.939 L 134.985,-456.761
 L 135.261,-456.485 L 135.439,-456.136 L 135.5,-455.75 L 135.439,-455.364 L 135.261,-455.015 L 134.985,-454.739
 L 134.636,-454.561 L 134.25,-454.5 z
M 151,-438 L 151,-451 L 154,-451 L 154,-438 z
M 88,-438 L 88,-451 L 91,-451 L 91,-438 z
M 95,-359 L 95,-439 L 123,-439 L 123,-359 z
M 88,-407.667 L 88,-420.667 L 91,-420.667 L 91,-407.667 z
M 151,-407.667 L 151,-420.667 L 154,-420.667 L 154,-407.667 z
M 131.353,-416.639 L 131.13,-416.753 L 130.953,-416.93 L 130.839,-417.153 L 130.8,-417.4 L 130.839,-417.647
 L 130.953,-417.87 L 131.13,-418.047 L 131.353,-418.161 L 131.6,-418.2 L 131.847,-418.161 L 132.07,-418.047
 L 132.247,-417.87 L 132.361,-417.647 L 132.4,-417.4 L 132.361,-417.153 L 132.247,-416.93 L 132.07,-416.753
 L 131.847,-416.639 L 131.6,-416.6 z
M 146.153,-416.639 L 145.93,-416.753 L 145.753,-416.93 L 145.639,-417.153 L 145.6,-417.4 L 145.639,-417.647
 L 145.753,-417.87 L 145.93,-418.047 L 146.153,-418.161 L 146.4,-418.2 L 146.647,-418.161 L 146.87,-418.047
 L 147.047,-417.87 L 147.161,-417.647 L 147.2,-417.4 L 147.161,-417.153 L 147.047,-416.93 L 146.87,-416.753
 L 146.647,-416.639 L 146.4,-416.6 z
M 136.528,-402.392 L 134.298,-403.528 L 132.528,-405.298 L 131.392,-407.528 L 131,-410 L 131.392,-412.472
 L 132.528,-414.702 L 134.298,-416.472 L 136.528,-417.608 L 139,-418 L 141.472,-417.608 L 143.702,-416.472
 L 145.472,-414.702 L 146.608,-412.472 L 147,-410 L 146.608,-407.528 L 145.472,-405.298 L 143.702,-403.528
 L 141.472,-402.392 L 139,-402 z
M 151.975,-397.383 L 151.501,-397.625 L 151.125,-398.001 L 150.883,-398.475 L 150.8,-399 L 150.883,-399.525
 L 151.125,-399.999 L 151.501,-400.375 L 151.975,-400.617 L 152.5,-400.7 L 153.025,-400.617 L 153.499,-400.375
 L 153.875,-399.999 L 154.117,-399.525 L 154.2,-399 L 154.117,-398.475 L 153.875,-398.001 L 153.499,-397.625
 L 153.025,-397.383 L 152.5,-397.3 z
M 88.9747,-397.383 L 88.5008,-397.625 L 88.1247,-398.001 L 87.8832,-398.475 L 87.8,-399 L 87.8832,-399.525
 L 88.1247,-399.999 L 88.5008,-400.375 L 88.9747,-400.617 L 89.5,-400.7 L 90.0253,-400.617 L 90.4992,-400.375
 L 90.8753,-399.999 L 91.1168,-399.525 L 91.2,-399 L 91.1168,-398.475 L 90.8753,-398.001 L 90.4992,-397.625
 L 90.0253,-397.383 L 89.5,-397.3 z
M 136.528,-380.392 L 134.298,-381.528 L 132.528,-383.298 L 131.392,-385.528 L 131,-388 L 131.392,-390.472
 L 132.528,-392.702 L 134.298,-394.472 L 136.528,-395.608 L 139,-396 L 141.472,-395.608 L 143.702,-394.472
 L 145.472,-392.702 L 146.608,-390.472 L 147,-388 L 146.608,-385.528 L 145.472,-383.298 L 143.702,-381.528
 L 141.472,-380.392 L 139,-380 z
M 151,-377.333 L 151,-390.333 L 154,-390.333 L 154,-377.333 z
M 88,-377.333 L 88,-390.333 L 91,-390.333 L 91,-377.333 z
M 146.153,-379.839 L 145.93,-379.953 L 145.753,-380.13 L 145.639,-380.353 L 145.6,-380.6 L 145.639,-380.847
 L 145.753,-381.07 L 145.93,-381.247 L 146.153,-381.361 L 146.4,-381.4 L 146.647,-381.361 L 146.87,-381.247
 L 147.047,-381.07 L 147.161,-380.847 L 147.2,-380.6 L 147.161,-380.353 L 147.047,-380.13 L 146.87,-379.953
 L 146.647,-379.839 L 146.4,-379.8 z
M 131.353,-379.839 L 131.13,-379.953 L 130.953,-380.13 L 130.839,-380.353 L 130.8,-380.6 L 130.839,-380.847
 L 130.953,-381.07 L 131.13,-381.247 L 131.353,-381.361 L 131.6,-381.4 L 131.847,-381.361 L 132.07,-381.247
 L 132.247,-381.07 L 132.361,-380.847 L 132.4,-380.6 L 132.361,-380.353 L 132.247,-380.13 L 132.07,-379.953
 L 131.847,-379.839 L 131.6,-379.8 z
M 151,-347 L 151,-360 L 154,-360 L 154,-347 z
M 88,-347 L 88,-360 L 91,-360 L 91,-347 z
M 107.364,-341.061 L 107.015,-341.239 L 106.739,-341.515 L 106.561,-341.864 L 106.5,-342.25 L 106.561,-342.636
 L 106.739,-342.985 L 107.015,-343.261 L 107.364,-343.439 L 107.75,-343.5 L 108.136,-343.439 L 108.485,-343.261
 L 108.761,-342.985 L 108.939,-342.636 L 109,-342.25 L 108.939,-341.864 L 108.761,-341.515 L 108.485,-341.239
 L 108.136,-341.061 L 107.75,-341 z
M 133.864,-341.061 L 133.515,-341.239 L 133.239,-341.515 L 133.061,-341.864 L 133,-342.25 L 133.061,-342.636
 L 133.239,-342.985 L 133.515,-343.261 L 133.864,-343.439 L 134.25,-343.5 L 134.636,-343.439 L 134.985,-343.261
 L 135.261,-342.985 L 135.439,-342.636 L 135.5,-342.25 L 135.439,-341.864 L 135.261,-341.515 L 134.985,-341.239
 L 134.636,-341.061 L 134.25,-341 z
M 107.5,-293 L 107.5,-331 L 134.5,-331 L 134.5,-293 z
M 151,-316.667 L 151,-329.667 L 154,-329.667 L 154,-316.667 z
M 88,-316.667 L 88,-329.667 L 91,-329.667 L 91,-316.667 z
M 151,-286.333 L 151,-299.333 L 154,-299.333 L 154,-286.333 z
M 88,-286.333 L 88,-299.333 L 91,-299.333 L 91,-286.333 z
M 96.4549,-276.245 L 95.0611,-276.955 L 93.9549,-278.061 L 93.2447,-279.455 L 93,-281 L 93.2447,-282.545
 L 93.9549,-283.939 L 95.0611,-285.045 L 96.4549,-285.755 L 98,-286 L 99.5451,-285.755 L 100.939,-285.045
 L 102.045,-283.939 L 102.755,-282.545 L 103,-281 L 102.755,-279.455 L 102.045,-278.061 L 100.939,-276.955
 L 99.5451,-276.245 L 98,-276 z
M 142.455,-276.245 L 141.061,-276.955 L 139.955,-278.061 L 139.245,-279.455 L 139,-281 L 139.245,-282.545
 L 139.955,-283.939 L 141.061,-285.045 L 142.455,-285.755 L 144,-286 L 145.545,-285.755 L 146.939,-285.045
 L 148.045,-283.939 L 148.755,-282.545 L 149,-281 L 148.755,-279.455 L 148.045,-278.061 L 146.939,-276.955
 L 145.545,-276.245 L 144,-276 z
M 133.864,-276.061 L 133.515,-276.239 L 133.239,-276.515 L 133.061,-276.864 L 133,-277.25 L 133.061,-277.636
 L 133.239,-277.985 L 133.515,-278.261 L 133.864,-278.439 L 134.25,-278.5 L 134.636,-278.439 L 134.985,-278.261
 L 135.261,-277.985 L 135.439,-277.636 L 135.5,-277.25 L 135.439,-276.864 L 135.261,-276.515 L 134.985,-276.239
 L 134.636,-276.061 L 134.25,-276 z
M 107.364,-276.061 L 107.015,-276.239 L 106.739,-276.515 L 106.561,-276.864 L 106.5,-277.25 L 106.561,-277.636
 L 106.739,-277.985 L 107.015,-278.261 L 107.364,-278.439 L 107.75,-278.5 L 108.136,-278.439 L 108.485,-278.261
 L 108.761,-277.985 L 108.939,-277.636 L 109,-277.25 L 108.939,-276.864 L 108.761,-276.515 L 108.485,-276.239
 L 108.136,-276.061 L 107.75,-276 z
M 120.475,-268.883 L 120.001,-269.125 L 119.625,-269.501 L 119.383,-269.975 L 119.3,-270.5 L 119.383,-271.025
 L 119.625,-271.499 L 120.001,-271.875 L 120.475,-272.117 L 121,-272.2 L 121.525,-272.117 L 121.999,-271.875
 L 122.375,-271.499 L 122.617,-271.025 L 122.7,-270.5 L 122.617,-269.975 L 122.375,-269.501 L 121.999,-269.125
 L 121.525,-268.883 L 121,-268.8 z
M 98.2,-268.95 L 98.2,-272.05 L 104.2,-272.05 L 104.2,-268.95 z
M 124.6,-268.95 L 124.6,-272.05 L 130.6,-272.05 L 130.6,-268.95 z
M 137.8,-268.95 L 137.8,-272.05 L 143.8,-272.05 L 143.8,-268.95 z
M 111.4,-268.95 L 111.4,-272.05 L 117.4,-272.05 L 117.4,-268.95 z
M 81,-533 L 7,-533 L 7,-265 L 81,-265 z
M 43.4747,-525.883 L 43.0008,-526.125 L 42.6247,-526.501 L 42.3832,-526.975 L 42.3,-527.5 L 42.3832,-528.025
 L 42.6247,-528.499 L 43.0008,-528.875 L 43.4747,-529.117 L 44,-529.2 L 44.5253,-529.117 L 44.6564,-529.05
 L 44.9992,-528.875 L 45.3753,-528.499 L 45.6168,-528.025 L 45.7,-527.5 L 45.6168,-526.975 L 45.3753,-526.501
 L 44.9992,-526.125 L 44.6564,-525.95 L 44.5253,-525.883 L 44,-525.8 z
M 47.6,-525.95 L 47.6,-529.05 L 53.6,-529.05 L 53.6,-525.95 z
M 21.2,-525.95 L 21.2,-529.05 L 27.2,-529.05 L 27.2,-525.95 z
M 34.4,-525.95 L 34.4,-529.05 L 40.4,-529.05 L 40.4,-525.95 z
M 60.8,-525.95 L 60.8,-529.05 L 66.8,-529.05 L 66.8,-525.95 z
M 24.6137,-513.311 L 24.2653,-513.489 L 23.9887,-513.765 L 23.8112,-514.114 L 23.75,-514.5 L 23.8112,-514.886
 L 23.9887,-515.235 L 24.2653,-515.511 L 24.6137,-515.689 L 25,-515.75 L 25.3863,-515.689 L 25.7347,-515.511
 L 26.0113,-515.235 L 26.1888,-514.886 L 26.25,-514.5 L 26.1888,-514.114 L 26.0113,-513.765 L 25.7347,-513.489
 L 25.3863,-513.311 L 25,-513.25 z
M 62.6137,-513.311 L 62.2653,-513.489 L 61.9887,-513.765 L 61.8112,-514.114 L 61.75,-514.5 L 61.8112,-514.886
 L 61.9887,-515.235 L 62.2653,-515.511 L 62.6137,-515.689 L 63,-515.75 L 63.3863,-515.689 L 63.7347,-515.511
 L 64.0113,-515.235 L 64.1888,-514.886 L 64.25,-514.5 L 64.1888,-514.114 L 64.0113,-513.765 L 63.7347,-513.489
 L 63.3863,-513.311 L 63,-513.25 z
M 10.95,-498.667 L 10.95,-511.667 L 14.05,-511.667 L 14.05,-498.667 z
M 73.95,-498.667 L 73.95,-511.667 L 77.05,-511.667 L 77.05,-498.667 z
M 73.95,-468.333 L 73.95,-481.333 L 77.05,-481.333 L 77.05,-468.333 z
M 10.95,-468.333 L 10.95,-481.333 L 14.05,-481.333 L 14.05,-468.333 z
M 11.9747,-458.05 L 11.5008,-458.291 L 11.1247,-458.667 L 10.8832,-459.141 L 10.8,-459.667 L 10.8832,-460.192
 L 11.1247,-460.666 L 11.5008,-461.042 L 11.9747,-461.283 L 12.5,-461.367 L 13.0253,-461.283 L 13.4992,-461.042
 L 13.8753,-460.666 L 14.1168,-460.192 L 14.2,-459.667 L 14.1168,-459.141 L 13.8753,-458.667 L 13.4992,-458.291
 L 13.0253,-458.05 L 12.5,-457.967 z
M 10.95,-438 L 10.95,-451 L 14.05,-451 L 14.05,-438 z
M 73.95,-438 L 73.95,-451 L 77.05,-451 L 77.05,-438 z
M 10.95,-407.667 L 10.95,-420.667 L 14.05,-420.667 L 14.05,-407.667 z
M 73.95,-407.667 L 73.95,-420.667 L 77.05,-420.667 L 77.05,-407.667 z
M 24.6137,-409.311 L 24.2653,-409.489 L 23.9887,-409.765 L 23.8112,-410.114 L 23.75,-410.5 L 23.8112,-410.886
 L 23.9887,-411.235 L 24.2653,-411.511 L 24.6137,-411.689 L 25,-411.75 L 25.3863,-411.689 L 25.7347,-411.511
 L 26.0113,-411.235 L 26.1888,-410.886 L 26.25,-410.5 L 26.1888,-410.114 L 26.0113,-409.765 L 25.7347,-409.489
 L 25.3863,-409.311 L 25,-409.25 z
M 62.6137,-409.311 L 62.2653,-409.489 L 61.9887,-409.765 L 61.8112,-410.114 L 61.75,-410.5 L 61.8112,-410.886
 L 61.9887,-411.235 L 62.2653,-411.511 L 62.6137,-411.689 L 63,-411.75 L 63.3863,-411.689 L 63.7347,-411.511
 L 64.0113,-411.235 L 64.1888,-410.886 L 64.25,-410.5 L 64.1888,-410.114 L 64.0113,-409.765 L 63.7347,-409.489
 L 63.3863,-409.311 L 63,-409.25 z
M 74.9747,-397.383 L 74.5008,-397.625 L 74.1247,-398.001 L 73.8832,-398.475 L 73.8,-399 L 73.8832,-399.525
 L 74.1247,-399.999 L 74.5008,-400.375 L 74.9747,-400.617 L 75.5,-400.7 L 76.0253,-400.617 L 76.4992,-400.375
 L 76.8753,-399.999 L 77.1168,-399.525 L 77.2,-399 L 77.1168,-398.475 L 76.8753,-398.001 L 76.4992,-397.625
 L 76.0253,-397.383 L 75.5,-397.3 z
M 10.95,-377.333 L 10.95,-390.333 L 14.05,-390.333 L 14.05,-377.333 z
M 73.95,-377.333 L 73.95,-390.333 L 77.05,-390.333 L 77.05,-377.333 z
M 73.95,-347 L 73.95,-360 L 77.05,-360 L 77.05,-347 z
M 10.95,-347 L 10.95,-360 L 14.05,-360 L 14.05,-347 z
M 11.9747,-336.717 L 11.5008,-336.958 L 11.1247,-337.334 L 10.8832,-337.808 L 10.8,-338.333 L 10.8832,-338.859
 L 11.1247,-339.333 L 11.5008,-339.709 L 11.9747,-339.95 L 12.5,-340.033 L 13.0253,-339.95 L 13.4992,-339.709
 L 13.8753,-339.333 L 14.1168,-338.859 L 14.2,-338.333 L 14.1168,-337.808 L 13.8753,-337.334 L 13.4992,-336.958
 L 13.0253,-336.717 L 12.5,-336.633 z
M 73.95,-316.667 L 73.95,-329.667 L 77.05,-329.667 L 77.05,-316.667 z
M 10.95,-316.667 L 10.95,-329.667 L 14.05,-329.667 L 14.05,-316.667 z
M 73.95,-286.333 L 73.95,-299.333 L 77.05,-299.333 L 77.05,-286.333 z
M 10.95,-286.333 L 10.95,-299.333 L 14.05,-299.333 L 14.05,-286.333 z
M 43.4747,-268.883 L 43.0008,-269.125 L 42.6247,-269.501 L 42.3832,-269.975 L 42.3,-270.5 L 42.3832,-271.025
 L 42.6247,-271.499 L 43.0008,-271.875 L 43.4747,-272.117 L 44,-272.2 L 44.5253,-272.117 L 44.9992,-271.875
 L 45.3753,-271.499 L 45.6168,-271.025 L 45.7,-270.5 L 45.6168,-269.975 L 45.3753,-269.501 L 44.9992,-269.125
 L 44.5253,-268.883 L 44,-268.8 z
M 60.8,-268.95 L 60.8,-272.05 L 66.8,-272.05 L 66.8,-268.95 z
M 21.2,-268.95 L 21.2,-272.05 L 27.2,-272.05 L 27.2,-268.95 z
M 47.6,-268.95 L 47.6,-272.05 L 53.6,-272.05 L 53.6,-268.95 z
M 34.4,-268.95 L 34.4,-272.05 L 40.4,-272.05 L 40.4,-268.95 z
M 267,-264 L 193,-264 L 193,4 L 267,4 z
M 205.455,-243.245 L 204.061,-243.955 L 202.955,-245.061 L 202.245,-246.455 L 202,-248 L 202.245,-249.545
 L 202.955,-250.939 L 204.061,-252.045 L 205.455,-252.755 L 207,-253 L 208.545,-252.755 L 209.939,-252.045
 L 211.045,-250.939 L 211.755,-249.545 L 212,-248 L 211.755,-246.455 L 211.045,-245.061 L 209.939,-243.955
 L 208.545,-243.245 L 207,-243 z
M 251.455,-243.245 L 250.061,-243.955 L 248.955,-245.061 L 248.245,-246.455 L 248,-248 L 248.245,-249.545
 L 248.955,-250.939 L 250.061,-252.045 L 251.455,-252.755 L 253,-253 L 254.545,-252.755 L 255.939,-252.045
 L 257.045,-250.939 L 257.755,-249.545 L 258,-248 L 257.755,-246.455 L 257.045,-245.061 L 255.939,-243.955
 L 254.545,-243.245 L 253,-243 z
M 216.5,-198 L 216.5,-236 L 243.5,-236 L 243.5,-198 z
M 245.528,-133.392 L 243.298,-134.528 L 241.528,-136.298 L 240.392,-138.528 L 240,-141 L 240.392,-143.472
 L 241.528,-145.702 L 243.298,-147.472 L 245.528,-148.608 L 248,-149 L 250.472,-148.608 L 252.702,-147.472
 L 254.472,-145.702 L 255.608,-143.472 L 256,-141 L 255.608,-138.528 L 254.472,-136.298 L 252.702,-134.528
 L 250.472,-133.392 L 248,-133 z
M 245.528,-111.392 L 243.298,-112.528 L 241.528,-114.298 L 240.392,-116.528 L 240,-119 L 240.392,-121.472
 L 241.528,-123.702 L 243.298,-125.472 L 245.528,-126.608 L 248,-127 L 250.472,-126.608 L 252.702,-125.472
 L 254.472,-123.702 L 255.608,-121.472 L 256,-119 L 255.608,-116.528 L 254.472,-114.298 L 252.702,-112.528
 L 250.472,-111.392 L 248,-111 z
M 216.5,-24 L 216.5,-62 L 243.5,-62 L 243.5,-24 z
M 251.455,-7.24471 L 250.061,-7.95491 L 248.955,-9.06107 L 248.245,-10.4549 L 248,-12 L 248.245,-13.5451
 L 248.955,-14.9389 L 250.061,-16.0451 L 251.455,-16.7553 L 253,-17 L 254.545,-16.7553 L 255.939,-16.0451
 L 257.045,-14.9389 L 257.755,-13.5451 L 258,-12 L 257.755,-10.4549 L 257.045,-9.06107 L 255.939,-7.95491
 L 254.545,-7.24471 L 253,-7 z
M 205.455,-7.24471 L 204.061,-7.95491 L 202.955,-9.06107 L 202.245,-10.4549 L 202,-12 L 202.245,-13.5451
 L 202.955,-14.9389 L 204.061,-16.0451 L 205.455,-16.7553 L 207,-17 L 208.545,-16.7553 L 209.939,-16.0451
 L 211.045,-14.9389 L 211.755,-13.5451 L 212,-12 L 211.755,-10.4549 L 211.045,-9.06107 L 209.939,-7.95491
 L 208.545,-7.24471 L 207,-7 z
M 54,-3.04999 L 60.6667,-3.04999 L 60.6667,-0 L 65.6667,-0 L 65.6667,-3.04999 L 72.3333,-3.04999
 L 72.3333,-0 L 77.3333,-0 L 77.3333,-3.04999 L 84,-3.04999 L 84,-0 L 89,-0
 L 89,-17.3333 L 92,-17.3333 L 92,-30.3333 L 89,-30.3333 L 89,-47.6667 L 92,-47.6667
 L 92,-60.6667 L 89,-60.6667 L 89,-78 L 92,-78 L 92,-91 L 89,-91
 L 89,-108.333 L 92,-108.333 L 92,-121.333 L 89,-121.333 L 89,-128.3 L 86.5,-128.3
 L 86.5,-127.25 L 84,-127.25 L 84,-128.3 L 82.05,-128.3 L 82.05,-131.7 L 84,-131.7
 L 84,-132.75 L 86.5,-132.75 L 86.5,-131.7 L 89,-131.7 L 89,-138.667 L 92,-138.667
 L 92,-151.667 L 89,-151.667 L 89,-169 L 92,-169 L 92,-182 L 89,-182
 L 89,-199.333 L 92,-199.333 L 92,-212.333 L 89,-212.333 L 89,-229.667 L 92,-229.667
 L 92,-242.667 L 89,-242.667 L 89,-260 L 84,-260 L 84,-256.95 L 77.3333,-256.95
 L 77.3333,-260 L 72.3333,-260 L 72.3333,-256.95 L 65.6667,-256.95 L 65.6667,-260 L 60.6667,-260
 L 60.6667,-256.95 L 54,-256.95 L 54,-260 L 49,-260 L 49,-242.667 L 45.95,-242.667
 L 45.95,-229.667 L 49,-229.667 L 49,-212.333 L 45.95,-212.333 L 45.95,-199.333 L 49,-199.333
 L 49,-192.367 L 51.5,-192.367 L 51.5,-193.417 L 54,-193.417 L 54,-192.367 L 55.95,-192.367
 L 55.95,-188.967 L 54,-188.967 L 54,-187.917 L 51.5,-187.917 L 51.5,-188.967 L 49,-188.967
 L 49,-182 L 45.95,-182 L 45.95,-169 L 49,-169 L 49,-151.667 L 45.95,-151.667
 L 45.95,-138.667 L 49,-138.667 L 49,-121.333 L 45.95,-121.333 L 45.95,-108.333 L 49,-108.333
 L 49,-91 L 45.95,-91 L 45.95,-78 L 49,-78 L 49,-71.0333 L 51.5,-71.0333
 L 51.5,-72.0833 L 54,-72.0833 L 54,-71.0333 L 55.95,-71.0333 L 55.95,-67.6333 L 54,-67.6333
 L 54,-66.5833 L 51.5,-66.5833 L 51.5,-67.6333 L 49,-67.6333 L 49,-60.6667 L 45.95,-60.6667
 L 45.95,-47.6667 L 49,-47.6667 L 49,-30.3333 L 45.95,-30.3333 L 45.95,-17.3333 L 49,-17.3333
 L 49,-0 L 54,-0 z
M 69.95,-173.6 L 69.95,-180 L 73.05,-180 L 73.05,-173.6 z
M 70.9747,-161.883 L 70.5008,-162.125 L 70.1247,-162.501 L 69.8832,-162.975 L 69.8,-163.5 L 69.8832,-164.025
 L 70.1247,-164.499 L 70.5008,-164.875 L 70.9747,-165.117 L 71.5,-165.2 L 72.0253,-165.117 L 72.4992,-164.875
 L 72.8753,-164.499 L 73.1168,-164.025 L 73.2,-163.5 L 73.1168,-162.975 L 72.8753,-162.501 L 72.4992,-162.125
 L 72.0253,-161.883 L 71.5,-161.8 z
M 69.95,-148 L 69.95,-154.4 L 73.05,-154.4 L 73.05,-148 z
M 64.7939,-120.133 L 61.9017,-121.606 L 59.6064,-123.902 L 58.1328,-126.794 L 57.625,-130 L 58.1328,-133.206
 L 59.6064,-136.098 L 61.9017,-138.394 L 64.7939,-139.867 L 68,-140.375 L 71.2061,-139.867 L 74.0983,-138.394
 L 76.3936,-136.098 L 77.8672,-133.206 L 78.375,-130 L 77.8672,-126.794 L 76.3936,-123.902 L 74.0983,-121.606
 L 71.2061,-120.133 L 68,-119.625 z
M 69.95,-105.6 L 69.95,-112 L 73.05,-112 L 73.05,-105.6 z
M 70.9747,-94.8832 L 70.5008,-95.1247 L 70.1247,-95.5008 L 69.8832,-95.9747 L 69.8,-96.5 L 69.8832,-97.0253
 L 70.1247,-97.4992 L 70.5008,-97.8753 L 70.9747,-98.1168 L 71.5,-98.2 L 72.0253,-98.1168 L 72.4992,-97.8753
 L 72.8753,-97.4992 L 73.1168,-97.0253 L 73.2,-96.5 L 73.1168,-95.9747 L 72.8753,-95.5008 L 72.4992,-95.1247
 L 72.0253,-94.8832 L 71.5,-94.8 z
M 69.95,-80 L 69.95,-86.4 L 73.05,-86.4 L 73.05,-80 z
M 5,-3.04999 L 11.6667,-3.04999 L 11.6667,-0 L 16.6667,-0 L 16.6667,-3.04999 L 23.3333,-3.04999
 L 23.3333,-0 L 28.3333,-0 L 28.3333,-3.04999 L 35,-3.04999 L 35,-0 L 40,-0
 L 40,-17.3333 L 43,-17.3333 L 43,-30.3333 L 40,-30.3333 L 40,-47.6667 L 43,-47.6667
 L 43,-60.6667 L 40,-60.6667 L 40,-78 L 43,-78 L 43,-91 L 40,-91
 L 40,-108.333 L 43,-108.333 L 43,-121.333 L 40,-121.333 L 40,-128.3 L 37.5,-128.3
 L 37.5,-127.25 L 35,-127.25 L 35,-128.3 L 33.05,-128.3 L 33.05,-131.7 L 35,-131.7
 L 35,-132.75 L 37.5,-132.75 L 37.5,-131.7 L 40,-131.7 L 40,-138.667 L 43,-138.667
 L 43,-151.667 L 40,-151.667 L 40,-169 L 43,-169 L 43,-182 L 40,-182
 L 40,-199.333 L 43,-199.333 L 43,-212.333 L 40,-212.333 L 40,-229.667 L 43,-229.667
 L 43,-242.667 L 40,-242.667 L 40,-260 L 35,-260 L 35,-256.95 L 28.3333,-256.95
 L 28.3333,-260 L 23.3333,-260 L 23.3333,-256.95 L 16.6667,-256.95 L 16.6667,-260 L 11.6667,-260
 L 11.6667,-256.95 L 5,-256.95 L 5,-260 L 0,-260 L 0,-242.667 L -3.04999,-242.667
 L -3.04999,-229.667 L 0,-229.667 L 0,-212.333 L -3.04999,-212.333 L -3.04999,-199.333 L 0,-199.333
 L 0,-182 L -3.04999,-182 L -3.04999,-169 L 0,-169 L 0,-151.667 L -3.04999,-151.667
 L -3.04999,-138.667 L 0,-138.667 L 0,-131.7 L 2.5,-131.7 L 2.5,-132.75 L 5,-132.75
 L 5,-131.7 L 6.95,-131.7 L 6.95,-128.3 L 5,-128.3 L 5,-127.25 L 2.5,-127.25
 L 2.5,-128.3 L 0,-128.3 L 0,-121.333 L -3.04999,-121.333 L -3.04999,-108.333 L 0,-108.333
 L 0,-91 L -3.04999,-91 L -3.04999,-78 L 0,-78 L 0,-60.6667 L -3.04999,-60.6667
 L -3.04999,-47.6667 L 0,-47.6667 L 0,-30.3333 L -3.04999,-30.3333 L -3.04999,-17.3333 L 0,-17.3333
 L 0,-0 L 5,-0 z
M 20.95,-173.6 L 20.95,-180 L 24.05,-180 L 24.05,-173.6 z
M 21.9747,-161.883 L 21.5008,-162.125 L 21.1247,-162.501 L 20.8832,-162.975 L 20.8,-163.5 L 20.8832,-164.025
 L 21.1247,-164.499 L 21.5008,-164.875 L 21.9747,-165.117 L 22.5,-165.2 L 23.0253,-165.117 L 23.4992,-164.875
 L 23.8753,-164.499 L 24.1168,-164.025 L 24.2,-163.5 L 24.1168,-162.975 L 23.8753,-162.501 L 23.4992,-162.125
 L 23.0253,-161.883 L 22.5,-161.8 z
M 20.95,-148 L 20.95,-154.4 L 24.05,-154.4 L 24.05,-148 z
M 20.95,-105.6 L 20.95,-112 L 24.05,-112 L 24.05,-105.6 z
M 21.9747,-94.8832 L 21.5008,-95.1247 L 21.1247,-95.5008 L 20.8832,-95.9747 L 20.8,-96.5 L 20.8832,-97.0253
 L 21.1247,-97.4992 L 21.5008,-97.8753 L 21.9747,-98.1168 L 22.5,-98.2 L 23.0253,-98.1168 L 23.4992,-97.8753
 L 23.8753,-97.4992 L 24.1168,-97.0253 L 24.2,-96.5 L 24.1168,-95.9747 L 23.8753,-95.5008 L 23.4992,-95.1247
 L 23.0253,-94.8832 L 22.5,-94.8 z
M 20.95,-80 L 20.95,-86.4 L 24.05,-86.4 L 24.05,-80 z
M 183,-86.4 L 180,-86.4 L 180,-94.8 L 177.5,-94.8 L 177.5,-93.75 L 175,-93.75
 L 175,-94.8 L 173.05,-94.8 L 173.05,-98.2 L 175,-98.2 L 175,-99.25 L 177.5,-99.25
 L 177.5,-98.2 L 180,-98.2 L 180,-105.6 L 183,-105.6 L 183,-112 L 180,-112
 L 180,-148 L 183,-148 L 183,-154.4 L 180,-154.4 L 180,-161.8 L 177.5,-161.8
 L 177.5,-160.75 L 175,-160.75 L 175,-161.8 L 173.05,-161.8 L 173.05,-165.2 L 175,-165.2
 L 175,-166.25 L 177.5,-166.25 L 177.5,-165.2 L 180,-165.2 L 180,-173.6 L 183,-173.6
 L 183,-180 L 117,-180 L 117,-173.6 L 120,-173.6 L 120,-165.2 L 122.5,-165.2
 L 122.5,-166.25 L 125,-166.25 L 125,-165.2 L 126.95,-165.2 L 126.95,-161.8 L 125,-161.8
 L 125,-160.75 L 122.5,-160.75 L 122.5,-161.8 L 120,-161.8 L 120,-154.4 L 117,-154.4
 L 117,-148 L 120,-148 L 120,-147 L 156,-147 L 156,-113 L 120,-113
 L 120,-112 L 117,-112 L 117,-105.6 L 120,-105.6 L 120,-98.2 L 122.5,-98.2
 L 122.5,-99.25 L 125,-99.25 L 125,-98.2 L 126.95,-98.2 L 126.95,-94.8 L 125,-94.8
 L 125,-93.75 L 122.5,-93.75 L 122.5,-94.8 L 120,-94.8 L 120,-86.4 L 117,-86.4
 L 117,-80 L 183,-80 z
M 133,-151 L 133,-156 L 143,-156 L 143,-151 z
M 127.923,-152.264 L 127.561,-152.448 L 127.273,-152.736 L 127.089,-153.098 L 127.025,-153.5 L 127.089,-153.902
 L 127.273,-154.264 L 127.561,-154.552 L 127.923,-154.736 L 128.325,-154.8 L 128.727,-154.736 L 129.089,-154.552
 L 129.377,-154.264 L 129.561,-153.902 L 129.625,-153.5 L 129.561,-153.098 L 129.377,-152.736 L 129.089,-152.448
 L 128.727,-152.264 L 128.325,-152.2 z
M 147.273,-152.264 L 146.911,-152.448 L 146.623,-152.736 L 146.439,-153.098 L 146.375,-153.5 L 146.439,-153.902
 L 146.623,-154.264 L 146.911,-154.552 L 147.273,-154.736 L 147.675,-154.8 L 148.077,-154.736 L 148.439,-154.552
 L 148.727,-154.264 L 148.911,-153.902 L 148.975,-153.5 L 148.911,-153.098 L 148.727,-152.736 L 148.439,-152.448
 L 148.077,-152.264 L 147.675,-152.2 z
M 160.353,-147.639 L 160.13,-147.753 L 159.953,-147.93 L 159.839,-148.153 L 159.8,-148.4 L 159.839,-148.647
 L 159.953,-148.87 L 160.13,-149.047 L 160.353,-149.161 L 160.6,-149.2 L 160.847,-149.161 L 161.07,-149.047
 L 161.247,-148.87 L 161.361,-148.647 L 161.4,-148.4 L 161.361,-148.153 L 161.247,-147.93 L 161.07,-147.753
 L 160.847,-147.639 L 160.6,-147.6 z
M 175.153,-147.639 L 174.93,-147.753 L 174.753,-147.93 L 174.639,-148.153 L 174.6,-148.4 L 174.639,-148.647
 L 174.753,-148.87 L 174.93,-149.047 L 175.153,-149.161 L 175.4,-149.2 L 175.647,-149.161 L 175.87,-149.047
 L 176.047,-148.87 L 176.161,-148.647 L 176.2,-148.4 L 176.161,-148.153 L 176.047,-147.93 L 175.87,-147.753
 L 175.647,-147.639 L 175.4,-147.6 z
M 175.153,-110.839 L 174.93,-110.953 L 174.753,-111.13 L 174.639,-111.353 L 174.6,-111.6 L 174.639,-111.847
 L 174.753,-112.07 L 174.93,-112.247 L 175.153,-112.361 L 175.4,-112.4 L 175.647,-112.361 L 175.87,-112.247
 L 176.047,-112.07 L 176.161,-111.847 L 176.2,-111.6 L 176.161,-111.353 L 176.047,-111.13 L 175.87,-110.953
 L 175.647,-110.839 L 175.4,-110.8 z
M 160.353,-110.839 L 160.13,-110.953 L 159.953,-111.13 L 159.839,-111.353 L 159.8,-111.6 L 159.839,-111.847
 L 159.953,-112.07 L 160.13,-112.247 L 160.353,-112.361 L 160.6,-112.4 L 160.847,-112.361 L 161.07,-112.247
 L 161.247,-112.07 L 161.361,-111.847 L 161.4,-111.6 L 161.361,-111.353 L 161.247,-111.13 L 161.07,-110.953
 L 160.847,-110.839 L 160.6,-110.8 z
M 136.949,-102.766 L 136.002,-103.249 L 135.249,-104.002 L 134.766,-104.949 L 134.6,-106 L 134.766,-107.051
 L 135.249,-107.998 L 136.002,-108.751 L 136.949,-109.234 L 138,-109.4 L 139.051,-109.234 L 139.998,-108.751
 L 140.751,-107.998 L 141.234,-107.051 L 141.4,-106 L 141.234,-104.949 L 140.751,-104.002 L 139.998,-103.249
 L 139.051,-102.766 L 138,-102.6 z
" stroke="black" fill="lightgray" stroke-width="0.5"/>
</svg>
