<?xml version="1.0" standalone="no"?>
<!DOCTYPE svg PUBLIC "-//W3C//DTD SVG 1.1//EN" "http://www.w3.org/Graphics/SVG/1.1/DTD/svg11.dtd">
<svg width="302mm" height="556mm" viewBox="-4 -552 302 556" xmlns="http://www.w3.org/2000/svg" version="1.1">
<title>OpenSCAD Model</title>
<path d="
M 50.5,-551.5 L 3.5,-551.5 L 3.5,-501.5 L 50.5,-501.5 z
M 44.4002,-543.635 L 43.6336,-544.025 L 43.0252,-544.634 L 42.6346,-545.4 L 42.5,-546.25 L 42.6346,-547.1
 L 43.0252,-547.866 L 43.6336,-548.475 L 44.4002,-548.865 L 45.25,-549 L 46.0998,-548.865 L 46.8664,-548.475
 L 47.4748,-547.866 L 47.8654,-547.1 L 48,-546.25 L 47.8654,-545.4 L 47.4748,-544.634 L 46.8664,-544.025
 L 46.0998,-543.635 L 45.25,-543.5 z
M 44.4002,-523.885 L 43.6336,-524.275 L 43.0252,-524.884 L 42.6346,-525.65 L 42.5,-526.5 L 42.6346,-527.35
 L 43.0252,-528.116 L 43.6336,-528.725 L 44.4002,-529.115 L 45.25,-529.25 L 46.0998,-529.115 L 46.8664,-528.725
 L 47.4748,-528.116 L 47.8654,-527.35 L 48,-526.5 L 47.8654,-525.65 L 47.4748,-524.884 L 46.8664,-524.275
 L 46.0998,-523.885 L 45.25,-523.75 z
M 44.4002,-504.135 L 43.6336,-504.525 L 43.0252,-505.134 L 42.6346,-505.9 L 42.5,-506.75 L 42.6346,-507.6
 L 43.0252,-508.366 L 43.6336,-508.975 L 44.4002,-509.365 L 45.25,-509.5 L 46.0998,-509.365 L 46.8664,-508.975
 L 47.4748,-508.366 L 47.8654,-507.6 L 48,-506.75 L 47.8654,-505.9 L 47.4748,-505.134 L 46.8664,-504.525
 L 46.0998,-504.135 L 45.25,-504 z
M 107.5,-551.5 L 60.5,-551.5 L 60.5,-501.5 L 107.5,-501.5 z
M 101.4,-543.635 L 100.634,-544.025 L 100.025,-544.634 L 99.6346,-545.4 L 99.5,-546.25 L 99.6346,-547.1
 L 100.025,-547.866 L 100.634,-548.475 L 101.4,-548.865 L 102.25,-549 L 103.1,-548.865 L 103.866,-548.475
 L 104.475,-547.866 L 104.865,-547.1 L 105,-546.25 L 104.865,-545.4 L 104.475,-544.634 L 103.866,-544.025
 L 103.1,-543.635 L 102.25,-543.5 z
M 101.4,-523.885 L 100.634,-524.275 L 100.025,-524.884 L 99.6346,-525.65 L 99.5,-526.5 L 99.6346,-527.35
 L 100.025,-528.116 L 100.634,-528.725 L 101.4,-529.115 L 102.25,-529.25 L 103.1,-529.115 L 103.866,-528.725
 L 104.475,-528.116 L 104.865,-527.35 L 105,-526.5 L 104.865,-525.65 L 104.475,-524.884 L 103.866,-524.275
 L 103.1,-523.885 L 102.25,-523.75 z
M 101.4,-504.135 L 100.634,-504.525 L 100.025,-505.134 L 99.6346,-505.9 L 99.5,-506.75 L 99.6346,-507.6
 L 100.025,-508.366 L 100.634,-508.975 L 101.4,-509.365 L 102.25,-509.5 L 103.1,-509.365 L 103.866,-508.975
 L 104.475,-508.366 L 104.865,-507.6 L 105,-506.75 L 104.865,-505.9 L 104.475,-505.134 L 103.866,-504.525
 L 103.1,-504.135 L 102.25,-504 z
M 72,-493 L 7,-493 L 7,-245 L 72,-245 z
M 11.9747,-479.383 L 11.5008,-479.625 L 11.1247,-480.001 L 10.8832,-480.475 L 10.8,-481 L 10.8832,-481.525
 L 11.1247,-481.999 L 11.5008,-482.375 L 11.9747,-482.617 L 12.5,-482.7 L 13.0253,-482.617 L 13.4992,-482.375
 L 13.8753,-481.999 L 14.1168,-481.525 L 14.2,-481 L 14.1168,-480.475 L 13.8753,-480.001 L 13.4992,-479.625
 L 13.0253,-479.383 L 12.5,-479.3 z
M 65.9747,-479.383 L 65.5008,-479.625 L 65.1247,-480.001 L 64.8832,-480.475 L 64.8,-481 L 64.8832,-481.525
 L 65.1247,-481.999 L 65.5008,-482.375 L 65.9747,-482.617 L 66.5,-482.7 L 67.0253,-482.617 L 67.4992,-482.375
 L 67.8753,-481.999 L 68.1168,-481.525 L 68.2,-481 L 68.1168,-480.475 L 67.8753,-480.001 L 67.4992,-479.625
 L 67.0253,-479.383 L 66.5,-479.3 z
M 64.95,-461 L 64.95,-473 L 68.05,-473 L 68.05,-461 z
M 10.95,-461 L 10.95,-473 L 14.05,-473 L 14.05,-461 z
M 46.95,-460.95 L 46.95,-464.05 L 59.05,-464.05 L 59.05,-460.95 z
M 19.95,-460.95 L 19.95,-464.05 L 32.05,-464.05 L 32.05,-460.95 z
M 64.95,-433 L 64.95,-445 L 68.05,-445 L 68.05,-433 z
M 10.95,-433 L 10.95,-445 L 14.05,-445 L 14.05,-433 z
M 56.8832,-421.525 L 57.1247,-421.999 L 57.5008,-422.375 L 57.9747,-422.617 L 58.5,-422.7 L 59.0253,-422.617
 L 59.4992,-422.375 L 59.8753,-421.999 L 60.1168,-421.525 L 60.2,-421 L 60.1168,-420.475 L 59.8753,-420.001
 L 59.4992,-419.625 L 59.0253,-419.383 L 58.5,-419.3 L 57.9747,-419.383 L 57.5008,-419.625 L 57.1247,-420.001
 L 56.8832,-420.475 L 56.8,-421 z
M 10.95,-405 L 10.95,-417 L 14.05,-417 L 14.05,-405 z
M 64.95,-405 L 64.95,-417 L 68.05,-417 L 68.05,-405 z
M 64.95,-377 L 64.95,-389 L 68.05,-389 L 68.05,-377 z
M 10.95,-377 L 10.95,-389 L 14.05,-389 L 14.05,-377 z
M 65.9747,-367.383 L 65.5008,-367.625 L 65.1247,-368.001 L 64.8832,-368.475 L 64.8,-369 L 64.8832,-369.525
 L 65.1247,-369.999 L 65.5008,-370.375 L 65.9747,-370.617 L 66.5,-370.7 L 67.0253,-370.617 L 67.4992,-370.375
 L 67.8753,-369.999 L 68.1168,-369.525 L 68.2,-369 L 68.1168,-368.475 L 67.8753,-368.001 L 67.4992,-367.625
 L 67.0253,-367.383 L 66.5,-367.3 z
M 11.9747,-367.383 L 11.5008,-367.625 L 11.1247,-368.001 L 10.8832,-368.475 L 10.8,-369 L 10.8832,-369.525
 L 11.1247,-369.999 L 11.5008,-370.375 L 11.9747,-370.617 L 12.5,-370.7 L 13.0253,-370.617 L 13.4992,-370.375
 L 13.8753,-369.999 L 14.1168,-369.525 L 14.2,-369 L 14.1168,-368.475 L 13.8753,-368.001 L 13.4992,-367.625
 L 13.0253,-367.383 L 12.5,-367.3 z
M 10.95,-349 L 10.95,-361 L 14.05,-361 L 14.05,-349 z
M 64.95,-349 L 64.95,-361 L 68.05,-361 L 68.05,-349 z
M 64.95,-321 L 64.95,-333 L 68.05,-333 L 68.05,-321 z
M 10.95,-321 L 10.95,-333 L 14.05,-333 L 14.05,-321 z
M 19.9747,-315.383 L 19.5008,-315.625 L 19.1247,-316.001 L 18.8832,-316.475 L 18.8,-317 L 18.8832,-317.525
 L 19.1247,-317.999 L 19.5008,-318.375 L 19.9747,-318.617 L 20.5,-318.7 L 21.0253,-318.617 L 21.4992,-318.375
 L 21.8753,-317.999 L 22.1168,-317.525 L 22.2,-317 L 22.1168,-316.475 L 21.8753,-316.001 L 21.4992,-315.625
 L 21.0253,-315.383 L 20.5,-315.3 z
M 57.9747,-315.383 L 57.5008,-315.625 L 57.1247,-316.001 L 56.8832,-316.475 L 56.8,-317 L 56.8832,-317.525
 L 57.1247,-317.999 L 57.5008,-318.375 L 57.9747,-318.617 L 58.5,-318.7 L 59.0253,-318.617 L 59.4992,-318.375
 L 59.8753,-317.999 L 60.1168,-317.525 L 60.2,-317 L 60.1168,-316.475 L 59.8753,-316.001 L 59.4992,-315.625
 L 59.0253,-315.383 L 58.5,-315.3 z
M 10.95,-293 L 10.95,-305 L 14.05,-305 L 14.05,-293 z
M 64.95,-293 L 64.95,-305 L 68.05,-305 L 68.05,-293 z
M 65.9747,-283.383 L 65.5008,-283.625 L 65.1247,-284.001 L 64.8832,-284.475 L 64.8,-285 L 64.8832,-285.525
 L 65.1247,-285.999 L 65.5008,-286.375 L 65.9747,-286.617 L 66.5,-286.7 L 67.0253,-286.617 L 67.4992,-286.375
 L 67.8753,-285.999 L 68.1168,-285.525 L 68.2,-285 L 68.1168,-284.475 L 67.8753,-284.001 L 67.4992,-283.625
 L 67.0253,-283.383 L 66.5,-283.3 z
M 11.9747,-283.383 L 11.5008,-283.625 L 11.1247,-284.001 L 10.8832,-284.475 L 10.8,-285 L 10.8832,-285.525
 L 11.1247,-285.999 L 11.5008,-286.375 L 11.9747,-286.617 L 12.5,-286.7 L 13.0253,-286.617 L 13.4992,-286.375
 L 13.8753,-285.999 L 14.1168,-285.525 L 14.2,-285 L 14.1168,-284.475 L 13.8753,-284.001 L 13.4992,-283.625
 L 13.0253,-283.383 L 12.5,-283.3 z
M 10.95,-265 L 10.95,-277 L 14.05,-277 L 14.05,-265 z
M 64.95,-265 L 64.95,-277 L 68.05,-277 L 68.05,-265 z
M 21.4992,-419.625 L 21.0253,-419.383 L 20.5,-419.3 L 19.9747,-419.383 L 19.5008,-419.625 L 19.1247,-420.001
 L 18.8832,-420.475 L 18.8,-421 L 18.8832,-421.525 L 19.1247,-421.999 L 19.5008,-422.375 L 19.9747,-422.617
 L 20.5,-422.7 L 21.0253,-422.617 L 21.4992,-422.375 L 21.8753,-421.999 L 22.1168,-421.525 L 22.2,-421
 L 22.1168,-420.475 L 21.8753,-420.001 z
M 140,-493 L 75,-493 L 75,-245 L 140,-245 z
M 87.6277,-474.757 L 86.1641,-475.503 L 85.0027,-476.664 L 84.2569,-478.128 L 84,-479.75 L 84.2569,-481.372
 L 85.0027,-482.836 L 86.1641,-483.997 L 87.6277,-484.743 L 89.25,-485 L 90.8723,-484.743 L 92.3359,-483.997
 L 93.4973,-482.836 L 94.243,-481.372 L 94.5,-479.75 L 94.243,-478.128 L 93.4973,-476.664 L 92.3359,-475.503
 L 90.8723,-474.757 L 89.25,-474.5 z
M 124.128,-474.757 L 122.664,-475.503 L 121.503,-476.664 L 120.757,-478.128 L 120.5,-479.75 L 120.757,-481.372
 L 121.503,-482.836 L 122.664,-483.997 L 124.128,-484.743 L 125.75,-485 L 127.372,-484.743 L 128.836,-483.997
 L 129.997,-482.836 L 130.743,-481.372 L 131,-479.75 L 130.743,-478.128 L 129.997,-476.664 L 128.836,-475.503
 L 127.372,-474.757 L 125.75,-474.5 z
M 101.45,-477.63 L 101.45,-480.73 L 113.55,-480.73 L 113.55,-477.63 z
M 132.95,-461 L 132.95,-473 L 136.05,-473 L 136.05,-461 z
M 78.95,-461 L 78.95,-473 L 82.05,-473 L 82.05,-461 z
M 94.9247,-468.183 L 94.4508,-468.425 L 94.0747,-468.801 L 93.8332,-469.275 L 93.75,-469.8 L 93.8332,-470.325
 L 94.0747,-470.799 L 94.4508,-471.175 L 94.9247,-471.417 L 95.45,-471.5 L 95.9753,-471.417 L 96.4492,-471.175
 L 96.8253,-470.799 L 97.0668,-470.325 L 97.15,-469.8 L 97.0668,-469.275 L 96.8253,-468.801 L 96.4492,-468.425
 L 95.9753,-468.183 L 95.45,-468.1 z
M 119.025,-468.183 L 118.551,-468.425 L 118.175,-468.801 L 117.933,-469.275 L 117.85,-469.8 L 117.933,-470.325
 L 118.175,-470.799 L 118.551,-471.175 L 119.025,-471.417 L 119.55,-471.5 L 120.075,-471.417 L 120.549,-471.175
 L 120.925,-470.799 L 121.167,-470.325 L 121.25,-469.8 L 121.167,-469.275 L 120.925,-468.801 L 120.549,-468.425
 L 120.075,-468.183 L 119.55,-468.1 z
M 94,-417 L 94,-455 L 121,-455 L 121,-417 z
M 133.975,-451.383 L 133.501,-451.625 L 133.125,-452.001 L 132.883,-452.475 L 132.8,-453 L 132.883,-453.525
 L 133.125,-453.999 L 133.501,-454.375 L 133.975,-454.617 L 134.5,-454.7 L 135.025,-454.617 L 135.499,-454.375
 L 135.875,-453.999 L 136.117,-453.525 L 136.2,-453 L 136.117,-452.475 L 135.875,-452.001 L 135.499,-451.625
 L 135.025,-451.383 L 134.5,-451.3 z
M 79.9747,-451.383 L 79.5008,-451.625 L 79.1247,-452.001 L 78.8832,-452.475 L 78.8,-453 L 78.8832,-453.525
 L 79.1247,-453.999 L 79.5008,-454.375 L 79.9747,-454.617 L 80.5,-454.7 L 81.0253,-454.617 L 81.4992,-454.375
 L 81.8753,-453.999 L 82.1168,-453.525 L 82.2,-453 L 82.1168,-452.475 L 81.8753,-452.001 L 81.4992,-451.625
 L 81.0253,-451.383 L 80.5,-451.3 z
M 78.95,-433 L 78.95,-445 L 82.05,-445 L 82.05,-433 z
M 132.95,-433 L 132.95,-445 L 136.05,-445 L 136.05,-433 z
M 132.95,-405 L 132.95,-417 L 136.05,-417 L 136.05,-405 z
M 78.95,-405 L 78.95,-417 L 82.05,-417 L 82.05,-405 z
M 119.025,-404.883 L 118.551,-405.125 L 118.175,-405.501 L 117.933,-405.975 L 117.85,-406.5 L 117.933,-407.025
 L 118.175,-407.499 L 118.551,-407.875 L 119.025,-408.117 L 119.55,-408.2 L 120.075,-408.117 L 120.549,-407.875
 L 120.925,-407.499 L 121.167,-407.025 L 121.25,-406.5 L 121.167,-405.975 L 120.925,-405.501 L 120.549,-405.125
 L 120.075,-404.883 L 119.55,-404.8 z
M 94.9247,-404.883 L 94.4508,-405.125 L 94.0747,-405.501 L 93.8332,-405.975 L 93.75,-406.5 L 93.8332,-407.025
 L 94.0747,-407.499 L 94.4508,-407.875 L 94.9247,-408.117 L 95.45,-408.2 L 95.9753,-408.117 L 96.4492,-407.875
 L 96.8253,-407.499 L 97.0668,-407.025 L 97.15,-406.5 L 97.0668,-405.975 L 96.8253,-405.501 L 96.4492,-405.125
 L 95.9753,-404.883 L 95.45,-404.8 z
M 132.95,-377 L 132.95,-389 L 136.05,-389 L 136.05,-377 z
M 78.95,-377 L 78.95,-389 L 82.05,-389 L 82.05,-377 z
M 105.028,-372.392 L 102.798,-373.528 L 101.028,-375.298 L 99.8915,-377.528 L 99.5,-380 L 99.8915,-382.472
 L 101.028,-384.702 L 102.798,-386.472 L 105.028,-387.608 L 107.5,-388 L 109.972,-387.608 L 112.202,-386.472
 L 113.972,-384.702 L 115.108,-382.472 L 115.5,-380 L 115.108,-377.528 L 113.972,-375.298 L 112.202,-373.528
 L 109.972,-372.392 L 107.5,-372 z
M 79.9747,-367.383 L 79.5008,-367.625 L 79.1247,-368.001 L 78.8832,-368.475 L 78.8,-369 L 78.8832,-369.525
 L 79.1247,-369.999 L 79.5008,-370.375 L 79.9747,-370.617 L 80.5,-370.7 L 81.0253,-370.617 L 81.4992,-370.375
 L 81.8753,-369.999 L 82.1168,-369.525 L 82.2,-369 L 82.1168,-368.475 L 81.8753,-368.001 L 81.4992,-367.625
 L 81.0253,-367.383 L 80.5,-367.3 z
M 133.975,-367.383 L 133.501,-367.625 L 133.125,-368.001 L 132.883,-368.475 L 132.8,-369 L 132.883,-369.525
 L 133.125,-369.999 L 133.501,-370.375 L 133.975,-370.617 L 134.5,-370.7 L 135.025,-370.617 L 135.499,-370.375
 L 135.875,-369.999 L 136.117,-369.525 L 136.2,-369 L 136.117,-368.475 L 135.875,-368.001 L 135.499,-367.625
 L 135.025,-367.383 L 134.5,-367.3 z
M 105.028,-350.392 L 102.798,-351.528 L 101.028,-353.298 L 99.8915,-355.528 L 99.5,-358 L 99.8915,-360.472
 L 101.028,-362.702 L 102.798,-364.472 L 105.028,-365.608 L 107.5,-366 L 109.972,-365.608 L 112.202,-364.472
 L 113.972,-362.702 L 115.108,-360.472 L 115.5,-358 L 115.108,-355.528 L 113.972,-353.298 L 112.202,-351.528
 L 109.972,-350.392 L 107.5,-350 z
M 132.95,-349 L 132.95,-361 L 136.05,-361 L 136.05,-349 z
M 78.95,-349 L 78.95,-361 L 82.05,-361 L 82.05,-349 z
M 119.025,-329.683 L 118.551,-329.925 L 118.175,-330.301 L 117.933,-330.775 L 117.85,-331.3 L 117.933,-331.825
 L 118.175,-332.299 L 118.551,-332.675 L 119.025,-332.917 L 119.55,-333 L 120.075,-332.917 L 120.549,-332.675
 L 120.925,-332.299 L 121.167,-331.825 L 121.25,-331.3 L 121.167,-330.775 L 120.925,-330.301 L 120.549,-329.925
 L 120.075,-329.683 L 119.55,-329.6 z
M 132.95,-321 L 132.95,-333 L 136.05,-333 L 136.05,-321 z
M 94.9247,-329.683 L 94.4508,-329.925 L 94.0747,-330.301 L 93.8332,-330.775 L 93.75,-331.3 L 93.8332,-331.825
 L 94.0747,-332.299 L 94.4508,-332.675 L 94.9247,-332.917 L 95.45,-333 L 95.9753,-332.917 L 96.4492,-332.675
 L 96.8253,-332.299 L 97.0668,-331.825 L 97.15,-331.3 L 97.0668,-330.775 L 96.8253,-330.301 L 96.4492,-329.925
 L 95.9753,-329.683 L 95.45,-329.6 z
M 78.95,-321 L 78.95,-333 L 82.05,-333 L 82.05,-321 z
M 94,-283 L 94,-321 L 121,-321 L 121,-283 z
M 132.95,-293 L 132.95,-305 L 136.05,-305 L 136.05,-293 z
M 78.95,-293 L 78.95,-305 L 82.05,-305 L 82.05,-293 z
M 79.9747,-283.383 L 79.5008,-283.625 L 79.1247,-284.001 L 78.8832,-284.475 L 78.8,-285 L 78.8832,-285.525
 L 79.1247,-285.999 L 79.5008,-286.375 L 79.9747,-286.617 L 80.5,-286.7 L 81.0253,-286.617 L 81.4992,-286.375
 L 81.8753,-285.999 L 82.1168,-285.525 L 82.2,-285 L 82.1168,-284.475 L 81.8753,-284.001 L 81.4992,-283.625
 L 81.0253,-283.383 L 80.5,-283.3 z
M 133.975,-283.383 L 133.501,-283.625 L 133.125,-284.001 L 132.883,-284.475 L 132.8,-285 L 132.883,-285.525
 L 133.125,-285.999 L 133.501,-286.375 L 133.975,-286.617 L 134.5,-286.7 L 135.025,-286.617 L 135.499,-286.375
 L 135.875,-285.999 L 136.117,-285.525 L 136.2,-285 L 136.117,-284.475 L 135.875,-284.001 L 135.499,-283.625
 L 135.025,-283.383 L 134.5,-283.3 z
M 132.95,-265 L 132.95,-277 L 136.05,-277 L 136.05,-265 z
M 78.95,-265 L 78.95,-277 L 82.05,-277 L 82.05,-265 z
M 119.025,-266.383 L 118.551,-266.625 L 118.175,-267.001 L 117.933,-267.475 L 117.85,-268 L 117.933,-268.525
 L 118.175,-268.999 L 118.551,-269.375 L 119.025,-269.617 L 119.55,-269.7 L 120.075,-269.617 L 120.549,-269.375
 L 120.925,-268.999 L 121.167,-268.525 L 121.25,-268 L 121.167,-267.475 L 120.925,-267.001 L 120.549,-266.625
 L 120.075,-266.383 L 119.55,-266.3 z
M 94.9247,-266.383 L 94.4508,-266.625 L 94.0747,-267.001 L 93.8332,-267.475 L 93.75,-268 L 93.8332,-268.525
 L 94.0747,-268.999 L 94.4508,-269.375 L 94.9247,-269.617 L 95.45,-269.7 L 95.9753,-269.617 L 96.4492,-269.375
 L 96.8253,-268.999 L 97.0668,-268.525 L 97.15,-268 L 97.0668,-267.475 L 96.8253,-267.001 L 96.4492,-266.625
 L 95.9753,-266.383 L 95.45,-266.3 z
M 124.128,-253.257 L 122.664,-254.003 L 121.503,-255.164 L 120.757,-256.628 L 120.5,-258.25 L 120.757,-259.872
 L 121.503,-261.336 L 122.664,-262.497 L 124.128,-263.243 L 125.75,-263.5 L 127.372,-263.243 L 128.836,-262.497
 L 129.997,-261.336 L 130.743,-259.872 L 131,-258.25 L 130.743,-256.628 L 129.997,-255.164 L 128.836,-254.003
 L 127.372,-253.257 L 125.75,-253 z
M 87.6277,-253.257 L 86.1641,-254.003 L 85.0027,-255.164 L 84.2569,-256.628 L 84,-258.25 L 84.2569,-259.872
 L 85.0027,-261.336 L 86.1641,-262.497 L 87.6277,-263.243 L 89.25,-263.5 L 90.8723,-263.243 L 92.3359,-262.497
 L 93.4973,-261.336 L 94.243,-259.872 L 94.5,-258.25 L 94.243,-256.628 L 93.4973,-255.164 L 92.3359,-254.003
 L 90.8723,-253.257 L 89.25,-253 z
M 101.45,-257.27 L 101.45,-260.37 L 113.55,-260.37 L 113.55,-257.27 z
M 298,-244 L 233,-244 L 233,4 L 298,4 z
M 245.628,-225.757 L 244.164,-226.503 L 243.003,-227.664 L 242.257,-229.128 L 242,-230.75 L 242.257,-232.372
 L 243.003,-233.836 L 244.164,-234.997 L 245.628,-235.743 L 247.25,-236 L 248.872,-235.743 L 250.336,-234.997
 L 251.497,-233.836 L 252.243,-232.372 L 252.5,-230.75 L 252.243,-229.128 L 251.497,-227.664 L 250.336,-226.503
 L 248.872,-225.757 L 247.25,-225.5 z
M 282.128,-225.757 L 280.664,-226.503 L 279.503,-227.664 L 278.757,-229.128 L 278.5,-230.75 L 278.757,-232.372
 L 279.503,-233.836 L 280.664,-234.997 L 282.128,-235.743 L 283.75,-236 L 285.372,-235.743 L 286.836,-234.997
 L 287.997,-233.836 L 288.743,-232.372 L 289,-230.75 L 288.743,-229.128 L 287.997,-227.664 L 286.836,-226.503
 L 285.372,-225.757 L 283.75,-225.5 z
M 252.925,-219.183 L 252.451,-219.425 L 252.075,-219.801 L 251.833,-220.275 L 251.75,-220.8 L 251.833,-221.325
 L 252.075,-221.799 L 252.451,-222.175 L 252.925,-222.417 L 253.45,-222.5 L 253.975,-222.417 L 254.449,-222.175
 L 254.825,-221.799 L 255.067,-221.325 L 255.15,-220.8 L 255.067,-220.275 L 254.825,-219.801 L 254.449,-219.425
 L 253.975,-219.183 L 253.45,-219.1 z
M 277.025,-219.183 L 276.551,-219.425 L 276.175,-219.801 L 275.933,-220.275 L 275.85,-220.8 L 275.933,-221.325
 L 276.175,-221.799 L 276.551,-222.175 L 277.025,-222.417 L 277.55,-222.5 L 278.075,-222.417 L 278.549,-222.175
 L 278.925,-221.799 L 279.167,-221.325 L 279.25,-220.8 L 279.167,-220.275 L 278.925,-219.801 L 278.549,-219.425
 L 278.075,-219.183 L 277.55,-219.1 z
M 252,-168 L 252,-206 L 279,-206 L 279,-168 z
M 252.925,-155.883 L 252.451,-156.125 L 252.075,-156.501 L 251.833,-156.975 L 251.75,-157.5 L 251.833,-158.025
 L 252.075,-158.499 L 252.451,-158.875 L 252.925,-159.117 L 253.45,-159.2 L 253.975,-159.117 L 254.449,-158.875
 L 254.825,-158.499 L 255.067,-158.025 L 255.15,-157.5 L 255.067,-156.975 L 254.825,-156.501 L 254.449,-156.125
 L 253.975,-155.883 L 253.45,-155.8 z
M 277.025,-155.883 L 276.551,-156.125 L 276.175,-156.501 L 275.933,-156.975 L 275.85,-157.5 L 275.933,-158.025
 L 276.175,-158.499 L 276.551,-158.875 L 277.025,-159.117 L 277.55,-159.2 L 278.075,-159.117 L 278.549,-158.875
 L 278.925,-158.499 L 279.167,-158.025 L 279.25,-157.5 L 279.167,-156.975 L 278.925,-156.501 L 278.549,-156.125
 L 278.075,-155.883 L 277.55,-155.8 z
M 263.028,-123.392 L 260.798,-124.528 L 259.028,-126.298 L 257.892,-128.528 L 257.5,-131 L 257.892,-133.472
 L 259.028,-135.702 L 260.798,-137.472 L 263.028,-138.608 L 265.5,-139 L 267.972,-138.608 L 270.202,-137.472
 L 271.972,-135.702 L 273.108,-133.472 L 273.5,-131 L 273.108,-128.528 L 271.972,-126.298 L 270.202,-124.528
 L 267.972,-123.392 L 265.5,-123 z
M 263.028,-101.392 L 260.798,-102.528 L 259.028,-104.298 L 257.892,-106.528 L 257.5,-109 L 257.892,-111.472
 L 259.028,-113.702 L 260.798,-115.472 L 263.028,-116.608 L 265.5,-117 L 267.972,-116.608 L 270.202,-115.472
 L 271.972,-113.702 L 273.108,-111.472 L 273.5,-109 L 273.108,-106.528 L 271.972,-104.298 L 270.202,-102.528
 L 267.972,-101.392 L 265.5,-101 z
M 252.925,-80.6832 L 252.451,-80.9247 L 252.075,-81.3008 L 251.833,-81.7747 L 251.75,-82.3 L 251.833,-82.8253
 L 252.075,-83.2992 L 252.451,-83.6753 L 252.925,-83.9168 L 253.45,-84 L 253.975,-83.9168 L 254.449,-83.6753
 L 254.825,-83.2992 L 255.067,-82.8253 L 255.15,-82.3 L 255.067,-81.7747 L 254.825,-81.3008 L 254.449,-80.9247
 L 253.975,-80.6832 L 253.45,-80.6 z
M 277.025,-80.6832 L 276.551,-80.9247 L 276.175,-81.3008 L 275.933,-81.7747 L 275.85,-82.3 L 275.933,-82.8253
 L 276.175,-83.2992 L 276.551,-83.6753 L 277.025,-83.9168 L 277.55,-84 L 278.075,-83.9168 L 278.549,-83.6753
 L 278.925,-83.2992 L 279.167,-82.8253 L 279.25,-82.3 L 279.167,-81.7747 L 278.925,-81.3008 L 278.549,-80.9247
 L 278.075,-80.6832 L 277.55,-80.6 z
M 252,-34 L 252,-72 L 279,-72 L 279,-34 z
M 277.025,-17.3832 L 276.551,-17.6247 L 276.175,-18.0008 L 275.933,-18.4747 L 275.85,-19 L 275.933,-19.5253
 L 276.175,-19.9992 L 276.551,-20.3753 L 277.025,-20.6168 L 277.55,-20.7 L 278.075,-20.6168 L 278.549,-20.3753
 L 278.925,-19.9992 L 279.167,-19.5253 L 279.25,-19 L 279.167,-18.4747 L 278.925,-18.0008 L 278.549,-17.6247
 L 278.075,-17.3832 L 277.55,-17.3 z
M 252.925,-17.3832 L 252.451,-17.6247 L 252.075,-18.0008 L 251.833,-18.4747 L 251.75,-19 L 251.833,-19.5253
 L 252.075,-19.9992 L 252.451,-20.3753 L 252.925,-20.6168 L 253.45,-20.7 L 253.975,-20.6168 L 254.449,-20.3753
 L 254.825,-19.9992 L 255.067,-19.5253 L 255.15,-19 L 255.067,-18.4747 L 254.825,-18.0008 L 254.449,-17.6247
 L 253.975,-17.3832 L 253.45,-17.3 z
M 245.628,-4.25694 L 244.164,-5.00266 L 243.003,-6.16412 L 242.257,-7.62766 L 242,-9.25 L 242.257,-10.8723
 L 243.003,-12.3359 L 244.164,-13.4973 L 245.628,-14.243 L 247.25,-14.5 L 248.872,-14.243 L 250.336,-13.4973
 L 251.497,-12.3359 L 252.243,-10.8723 L 252.5,-9.25 L 252.243,-7.62766 L 251.497,-6.16412 L 250.336,-5.00266
 L 248.872,-4.25694 L 247.25,-4 z
M 282.128,-4.25694 L 280.664,-5.00266 L 279.503,-6.16412 L 278.757,-7.62766 L 278.5,-9.25 L 278.757,-10.8723
 L 279.503,-12.3359 L 280.664,-13.4973 L 282.128,-14.243 L 283.75,-14.5 L 285.372,-14.243 L 286.836,-13.4973
 L 287.997,-12.3359 L 288.743,-10.8723 L 289,-9.25 L 288.743,-7.62766 L 287.997,-6.16412 L 286.836,-5.00266
 L 285.372,-4.25694 L 283.75,-4 z
M 48,-16 L 51.05,-16 L 51.05,-28 L 48,-28 L 48,-34.3 L 45.5,-34.3
 L 45.5,-33.25 L 43,-33.25 L 43,-34.3 L 41.05,-34.3 L 41.05,-37.7 L 43,-37.7
 L 43,-38.75 L 45.5,-38.75 L 45.5,-37.7 L 48,-37.7 L 48,-44 L 51.05,-44
 L 51.05,-56 L 48,-56 L 48,-72 L 51.05,-72 L 51.05,-84 L 48,-84
 L 48,-100 L 51.05,-100 L 51.05,-112 L 48,-112 L 48,-118.3 L 45.5,-118.3
 L 45.5,-117.25 L 43,-117.25 L 43,-118.3 L 41.05,-118.3 L 41.05,-121.7 L 43,-121.7
 L 43,-122.75 L 45.5,-122.75 L 45.5,-121.7 L 48,-121.7 L 48,-128 L 51.05,-128
 L 51.05,-140 L 48,-140 L 48,-156 L 51.05,-156 L 51.05,-168 L 48,-168
 L 48,-184 L 51.05,-184 L 51.05,-196 L 48,-196 L 48,-202.3 L 45.5,-202.3
 L 45.5,-201.25 L 43,-201.25 L 43,-202.3 L 41.05,-202.3 L 41.05,-205.7 L 43,-205.7
 L 43,-206.75 L 45.5,-206.75 L 45.5,-205.7 L 48,-205.7 L 48,-212 L 51.05,-212
 L 51.05,-224 L 48,-224 L 48,-240 L 0,-240 L 0,-233.7 L 2.5,-233.7
 L 2.5,-234.75 L 5,-234.75 L 5,-233.7 L 6.95,-233.7 L 6.95,-230.3 L 5,-230.3
 L 5,-229.25 L 2.5,-229.25 L 2.5,-230.3 L 0,-230.3 L 0,-224 L -3.04999,-224
 L -3.04999,-212 L 0,-212 L 0,-196 L -3.04999,-196 L -3.04999,-184 L 0,-184
 L 0,-168 L -3.04999,-168 L -3.04999,-156 L 0,-156 L 0,-140 L -3.04999,-140
 L -3.04999,-128 L 0,-128 L 0,-121.7 L 2.5,-121.7 L 2.5,-122.75 L 5,-122.75
 L 5,-121.7 L 6.95,-121.7 L 6.95,-118.3 L 5,-118.3 L 5,-117.25 L 2.5,-117.25
 L 2.5,-118.3 L 0,-118.3 L 0,-112 L -3.04999,-112 L -3.04999,-100 L 0,-100
 L 0,-84 L -3.04999,-84 L -3.04999,-72 L 0,-72 L 0,-56 L -3.04999,-56
 L -3.04999,-44 L 0,-44 L 0,-37.7 L 2.5,-37.7 L 2.5,-38.75 L 5,-38.75
 L 5,-37.7 L 6.95,-37.7 L 6.95,-34.3 L 5,-34.3 L 5,-33.25 L 2.5,-33.25
 L 2.5,-34.3 L 0,-34.3 L 0,-28 L -3.04999,-28 L -3.04999,-16 L 0,-16
 L 0,-0 L 48,-0 z
M 39.325,-228.63 L 39.325,-231.73 L 45.175,-231.73 L 45.175,-228.63 z
M 9,-211.95 L 9,-215.05 L 21.1,-215.05 L 21.1,-211.95 z
M 36.95,-130.95 L 36.95,-143.05 L 40.05,-143.05 L 40.05,-130.95 z
M 37,-97 L 37,-109 L 40,-109 L 40,-97 z
M 39.325,-8.26999 L 39.325,-11.37 L 45.175,-11.37 L 45.175,-8.26999 z
M 105,-16 L 108.05,-16 L 108.05,-28 L 105,-28 L 105,-34.3 L 102.5,-34.3
 L 102.5,-33.25 L 100,-33.25 L 100,-34.3 L 98.05,-34.3 L 98.05,-37.7 L 100,-37.7
 L 100,-38.75 L 102.5,-38.75 L 102.5,-37.7 L 105,-37.7 L 105,-44 L 108.05,-44
 L 108.05,-56 L 105,-56 L 105,-72 L 108.05,-72 L 108.05,-84 L 105,-84
 L 105,-100 L 108.05,-100 L 108.05,-112 L 105,-112 L 105,-118.3 L 102.5,-118.3
 L 102.5,-117.25 L 100,-117.25 L 100,-118.3 L 98.05,-118.3 L 98.05,-121.7 L 100,-121.7
 L 100,-122.75 L 102.5,-122.75 L 102.5,-121.7 L 105,-121.7 L 105,-128 L 108.05,-128
 L 108.05,-140 L 105,-140 L 105,-156 L 108.05,-156 L 108.05,-168 L 105,-168
 L 105,-184 L 108.05,-184 L 108.05,-196 L 105,-196 L 105,-202.3 L 102.5,-202.3
 L 102.5,-201.25 L 100,-201.25 L 100,-202.3 L 98.05,-202.3 L 98.05,-205.7 L 100,-205.7
 L 100,-206.75 L 102.5,-206.75 L 102.5,-205.7 L 105,-205.7 L 105,-212 L 108.05,-212
 L 108.05,-224 L 105,-224 L 105,-240 L 57,-240 L 57,-233.7 L 59.5,-233.7
 L 59.5,-234.75 L 62,-234.75 L 62,-233.7 L 63.95,-233.7 L 63.95,-230.3 L 62,-230.3
 L 62,-229.25 L 59.5,-229.25 L 59.5,-230.3 L 57,-230.3 L 57,-224 L 53.95,-224
 L 53.95,-212 L 57,-212 L 57,-196 L 53.95,-196 L 53.95,-184 L 57,-184
 L 57,-168 L 53.95,-168 L 53.95,-156 L 57,-156 L 57,-140 L 53.95,-140
 L 53.95,-128 L 57,-128 L 57,-121.7 L 59.5,-121.7 L 59.5,-122.75 L 62,-122.75
 L 62,-121.7 L 63.95,-121.7 L 63.95,-118.3 L 62,-118.3 L 62,-117.25 L 59.5,-117.25
 L 59.5,-118.3 L 57,-118.3 L 57,-112 L 53.95,-112 L 53.95,-100 L 57,-100
 L 57,-84 L 53.95,-84 L 53.95,-72 L 57,-72 L 57,-56 L 53.95,-56
 L 53.95,-44 L 57,-44 L 57,-37.7 L 59.5,-37.7 L 59.5,-38.75 L 62,-38.75
 L 62,-37.7 L 63.95,-37.7 L 63.95,-34.3 L 62,-34.3 L 62,-33.25 L 59.5,-33.25
 L 59.5,-34.3 L 57,-34.3 L 57,-28 L 53.95,-28 L 53.95,-16 L 57,-16
 L 57,-0 L 105,-0 z
M 96.325,-228.63 L 96.325,-231.73 L 102.175,-231.73 L 102.175,-228.63 z
M 66,-211.95 L 66,-215.05 L 78.1,-215.05 L 78.1,-211.95 z
M 93.95,-130.95 L 93.95,-143.05 L 97.05,-143.05 L 97.05,-130.95 z
M 94,-97 L 94,-109 L 97,-109 L 97,-97 z
M 71.3369,-69.3426 L 69.3855,-70.3369 L 67.8369,-71.8855 L 66.8426,-73.8369 L 66.5,-76 L 66.8426,-78.1631
 L 67.8369,-80.1145 L 69.3855,-81.6631 L 71.3369,-82.6574 L 73.5,-83 L 75.6631,-82.6574 L 77.6145,-81.6631
 L 79.1631,-80.1145 L 80.1574,-78.1631 L 80.5,-76 L 80.1574,-73.8369 L 79.1631,-71.8855 L 77.6145,-70.3369
 L 75.6631,-69.3426 L 73.5,-69 z
M 96.325,-8.26999 L 96.325,-11.37 L 102.175,-11.37 L 102.175,-8.26999 z
M 198,-109 L 195,-109 L 195,-131 L 198,-131 L 198,-143 L 141,-143
 L 141,-131 L 144,-131 L 144,-109 L 141,-109 L 141,-97 L 198,-97
 z
M 176.653,-137.639 L 176.43,-137.753 L 176.253,-137.93 L 176.139,-138.153 L 176.1,-138.4 L 176.139,-138.647
 L 176.253,-138.87 L 176.43,-139.047 L 176.653,-139.161 L 176.9,-139.2 L 177.147,-139.161 L 177.37,-139.047
 L 177.547,-138.87 L 177.661,-138.647 L 177.7,-138.4 L 177.661,-138.153 L 177.547,-137.93 L 177.37,-137.753
 L 177.147,-137.639 L 176.9,-137.6 z
M 161.853,-137.639 L 161.63,-137.753 L 161.453,-137.93 L 161.339,-138.153 L 161.3,-138.4 L 161.339,-138.647
 L 161.453,-138.87 L 161.63,-139.047 L 161.853,-139.161 L 162.1,-139.2 L 162.347,-139.161 L 162.57,-139.047
 L 162.747,-138.87 L 162.861,-138.647 L 162.9,-138.4 L 162.861,-138.153 L 162.747,-137.93 L 162.57,-137.753
 L 162.347,-137.639 L 162.1,-137.6 z
M 167.028,-123.392 L 164.798,-124.528 L 163.028,-126.298 L 161.892,-128.528 L 161.5,-131 L 161.892,-133.472
 L 163.028,-135.702 L 164.798,-137.472 L 167.028,-138.608 L 169.5,-139 L 171.972,-138.608 L 174.202,-137.472
 L 175.972,-135.702 L 177.108,-133.472 L 177.5,-131 L 177.108,-128.528 L 175.972,-126.298 L 174.202,-124.528
 L 171.972,-123.392 L 169.5,-123 z
M 167.028,-101.392 L 164.798,-102.528 L 163.028,-104.298 L 161.892,-106.528 L 161.5,-109 L 161.892,-111.472
 L 163.028,-113.702 L 164.798,-115.472 L 167.028,-116.608 L 169.5,-117 L 171.972,-116.608 L 174.202,-115.472
 L 175.972,-113.702 L 177.108,-111.472 L 177.5,-109 L 177.108,-106.528 L 175.972,-104.298 L 174.202,-102.528
 L 171.972,-101.392 L 169.5,-101 z
M 161.853,-100.839 L 161.63,-100.953 L 161.453,-101.13 L 161.339,-101.353 L 161.3,-101.6 L 161.339,-101.847
 L 161.453,-102.07 L 161.63,-102.247 L 161.853,-102.361 L 162.1,-102.4 L 162.347,-102.361 L 162.57,-102.247
 L 162.747,-102.07 L 162.861,-101.847 L 162.9,-101.6 L 162.861,-101.353 L 162.747,-101.13 L 162.57,-100.953
 L 162.347,-100.839 L 162.1,-100.8 z
M 176.653,-100.839 L 176.43,-100.953 L 176.253,-101.13 L 176.139,-101.353 L 176.1,-101.6 L 176.139,-101.847
 L 176.253,-102.07 L 176.43,-102.247 L 176.653,-102.361 L 176.9,-102.4 L 177.147,-102.361 L 177.37,-102.247
 L 177.547,-102.07 L 177.661,-101.847 L 177.7,-101.6 L 177.661,-101.353 L 177.547,-101.13 L 177.37,-100.953
 L 177.147,-100.839 L 176.9,-100.8 z
M 215.625,-29 L 218.5,-29 L 218.5,-80 L 215.625,-80 L 215.625,-83 L 209.875,-83
 L 209.875,-80 L 207,-80 L 207,-60.5 L 204,-60.5 L 204,-48.5 L 207,-48.5
 L 207,-29 L 209.875,-29 L 209.875,-26 L 215.625,-26 z
M 211.9,-71.6346 L 211.134,-72.0252 L 210.525,-72.6336 L 210.135,-73.4002 L 210,-74.25 L 210.135,-75.0998
 L 210.525,-75.8664 L 211.134,-76.4748 L 211.9,-76.8654 L 212.75,-77 L 213.6,-76.8654 L 214.366,-76.4748
 L 214.975,-75.8664 L 215.365,-75.0998 L 215.5,-74.25 L 215.365,-73.4002 L 214.975,-72.6336 L 214.366,-72.0252
 L 213.6,-71.6346 L 212.75,-71.5 z
M 211.9,-51.8846 L 211.134,-52.2752 L 210.525,-52.8836 L 210.135,-53.6502 L 210,-54.5 L 210.135,-55.3498
 L 210.525,-56.1164 L 211.134,-56.7248 L 211.9,-57.1154 L 212.75,-57.25 L 213.6,-57.1154 L 214.366,-56.7248
 L 214.975,-56.1164 L 215.365,-55.3498 L 215.5,-54.5 L 215.365,-53.6502 L 214.975,-52.8836 L 214.366,-52.2752
 L 213.6,-51.8846 L 212.75,-51.75 z
M 211.9,-32.1346 L 211.134,-32.5252 L 210.525,-33.1336 L 210.135,-33.9002 L 210,-34.75 L 210.135,-35.5998
 L 210.525,-36.3664 L 211.134,-36.9748 L 211.9,-37.3654 L 212.75,-37.5 L 213.6,-37.3654 L 214.366,-36.9748
 L 214.975,-36.3664 L 215.365,-35.5998 L 215.5,-34.75 L 215.365,-33.9002 L 214.975,-33.1336 L 214.366,-32.5252
 L 213.6,-32.1346 L 212.75,-32 z
M 189.125,-19 L 192,-19 L 192,-38.5 L 195,-38.5 L 195,-50.5 L 192,-50.5
 L 192,-70 L 189.125,-70 L 189.125,-73 L 183.375,-73 L 183.375,-70 L 180.5,-70
 L 180.5,-19 L 183.375,-19 L 183.375,-16 L 189.125,-16 z
M 185.4,-61.6346 L 184.634,-62.0252 L 184.025,-62.6336 L 183.635,-63.4002 L 183.5,-64.25 L 183.635,-65.0998
 L 184.025,-65.8664 L 184.634,-66.4748 L 185.4,-66.8654 L 186.25,-67 L 187.1,-66.8654 L 187.866,-66.4748
 L 188.475,-65.8664 L 188.865,-65.0998 L 189,-64.25 L 188.865,-63.4002 L 188.475,-62.6336 L 187.866,-62.0252
 L 187.1,-61.6346 L 186.25,-61.5 z
M 185.4,-41.8846 L 184.634,-42.2752 L 184.025,-42.8836 L 183.635,-43.6502 L 183.5,-44.5 L 183.635,-45.3498
 L 184.025,-46.1164 L 184.634,-46.7248 L 185.4,-47.1154 L 186.25,-47.25 L 187.1,-47.1154 L 187.866,-46.7248
 L 188.475,-46.1164 L 188.865,-45.3498 L 189,-44.5 L 188.865,-43.6502 L 188.475,-42.8836 L 187.866,-42.2752
 L 187.1,-41.8846 L 186.25,-41.75 z
M 185.4,-22.1346 L 184.634,-22.5252 L 184.025,-23.1336 L 183.635,-23.9002 L 183.5,-24.75 L 183.635,-25.5998
 L 184.025,-26.3664 L 184.634,-26.9748 L 185.4,-27.3654 L 186.25,-27.5 L 187.1,-27.3654 L 187.866,-26.9748
 L 188.475,-26.3664 L 188.865,-25.5998 L 189,-24.75 L 188.865,-23.9002 L 188.475,-23.1336 L 187.866,-22.5252
 L 187.1,-22.1346 L 186.25,-22 z
M 165.05,-19 L 174.1,-19 L 174.1,-70 L 165.05,-70 L 165.05,-73 L 153.05,-73
 L 153.05,-70 L 144,-70 L 144,-64 L 141,-64 L 141,-52 L 144,-52
 L 144,-37 L 141,-37 L 141,-25 L 144,-25 L 144,-19 L 153.05,-19
 L 153.05,-16 L 165.05,-16 z
M 158.648,-64.9386 L 158.286,-65.1233 L 157.998,-65.4109 L 157.814,-65.7733 L 157.75,-66.175 L 157.814,-66.5767
 L 157.998,-66.9391 L 158.286,-67.2267 L 158.648,-67.4114 L 159.05,-67.475 L 159.452,-67.4114 L 159.814,-67.2267
 L 160.102,-66.9391 L 160.286,-66.5767 L 160.35,-66.175 L 160.286,-65.7733 L 160.102,-65.4109 L 159.814,-65.1233
 L 159.452,-64.9386 L 159.05,-64.875 z
M 156.55,-51.5 L 156.55,-61.5 L 161.55,-61.5 L 161.55,-51.5 z
M 158.648,-45.5886 L 158.286,-45.7733 L 157.998,-46.0609 L 157.814,-46.4233 L 157.75,-46.825 L 157.814,-47.2267
 L 157.998,-47.5891 L 158.286,-47.8767 L 158.648,-48.0614 L 159.05,-48.125 L 159.452,-48.0614 L 159.814,-47.8767
 L 160.102,-47.5891 L 160.286,-47.2267 L 160.35,-46.825 L 160.286,-46.4233 L 160.102,-46.0609 L 159.814,-45.7733
 L 159.452,-45.5886 L 159.05,-45.525 z
M 157.999,-29.7664 L 157.052,-30.2493 L 156.299,-31.0015 L 155.816,-31.9493 L 155.65,-33 L 155.816,-34.0507
 L 156.299,-34.9985 L 157.052,-35.7507 L 157.999,-36.2336 L 159.05,-36.4 L 160.101,-36.2336 L 161.048,-35.7507
 L 161.801,-34.9985 L 162.284,-34.0507 L 162.45,-33 L 162.284,-31.9493 L 161.801,-31.0015 L 161.048,-30.2493
 L 160.101,-29.7664 L 159.05,-29.6 z
" stroke="black" fill="lightgray" stroke-width="0.5"/>
</svg>
