<?xml version="1.0" encoding="UTF-8" standalone="no"?>
<svg
   width="516mm"
   height="261.54999mm"
   viewBox="-4 -512 516 261.54999"
   version="1.1"
   id="svg178"
   sodipodi:docname="gallery-laser-cut-v3-raw.svg"
   inkscape:version="1.2.2 (b0a8486541, 2022-12-01)"
   xmlns:inkscape="http://www.inkscape.org/namespaces/inkscape"
   xmlns:sodipodi="http://sodipodi.sourceforge.net/DTD/sodipodi-0.dtd"
   xmlns="http://www.w3.org/2000/svg"
   xmlns:svg="http://www.w3.org/2000/svg"
   xmlns:rdf="http://www.w3.org/1999/02/22-rdf-syntax-ns#"
   xmlns:cc="http://creativecommons.org/ns#"
   xmlns:dc="http://purl.org/dc/elements/1.1/">
  <defs
     id="defs182" />
  <sodipodi:namedview
     id="namedview180"
     pagecolor="#ffffff"
     bordercolor="#000000"
     borderopacity="0.25"
     inkscape:showpageshadow="2"
     inkscape:pageopacity="0.0"
     inkscape:pagecheckerboard="0"
     inkscape:deskcolor="#d1d1d1"
     inkscape:document-units="mm"
     showgrid="false"
     inkscape:zoom="2.7294641"
     inkscape:cx="1878.757"
     inkscape:cy="365.27316"
     inkscape:window-width="2560"
     inkscape:window-height="1403"
     inkscape:window-x="0"
     inkscape:window-y="0"
     inkscape:window-maximized="1"
     inkscape:current-layer="svg178" />
  <title
     id="title174">OpenSCAD Model</title>
  <path
     d="m 22.3846,-355.30001 0.3906,-0.76601 0.6084,-0.60899 0.7666,-0.39001 0.8498,-0.13499 0.8498,0.13499 0.766605,0.39001 0.6084,0.60899 0.3906,0.76601 0.1346,0.85 -0.1346,0.84999 -0.3906,0.76601 -0.6084,0.60899 -0.766605,0.39001 -0.8498,0.135 -0.8498,-0.135 -0.7666,-0.39001 -0.6084,-0.60899 -0.3906,-0.76601 -0.1346,-0.84999 z"
     id="path602"
     style="fill:none;stroke:#000000;stroke-opacity:1;stroke-width:0.26458333;stroke-dasharray:none" />
  <path
     d="m 42.134605,-355.30001 0.3906,-0.76601 0.6084,-0.60899 0.7666,-0.39001 0.8498,-0.13499 0.8498,0.13499 0.7666,0.39001 0.6084,0.60899 0.3906,0.76601 0.1346,0.85 -0.1346,0.84999 -0.3906,0.76601 -0.6084,0.60899 -0.7666,0.39001 -0.8498,0.135 -0.8498,-0.135 -0.7666,-0.39001 -0.6084,-0.60899 -0.3906,-0.76601 -0.1346,-0.84999 z"
     id="path600"
     style="fill:none;stroke:#000000;stroke-opacity:1;stroke-width:0.26458333;stroke-dasharray:none" />
  <path
     d="m 61.884605,-355.30001 0.3906,-0.76601 0.6084,-0.60899 0.7666,-0.39001 0.8498,-0.13499 0.8498,0.13499 0.7666,0.39001 0.6084,0.60899 0.3906,0.76601 0.1346,0.85 -0.1346,0.84999 -0.3906,0.76601 -0.6084,0.60899 -0.7666,0.39001 -0.8498,0.135 -0.8498,-0.135 -0.7666,-0.39001 -0.6084,-0.60899 -0.3906,-0.76601 -0.1346,-0.84999 z"
     id="path598"
     style="fill:none;stroke:#000000;stroke-opacity:1;stroke-width:0.26458333;stroke-dasharray:none" />
  <path
     d="m 19.25,-351.57501 v 2.875 h 19.500005 v 3 h 12 v -3 h 19.5 v -2.875 h 3 v -5.75 h -3 v -2.875 H 19.25 v 2.875 h -3 v 5.75 z"
     id="path596"
     style="fill:none;stroke:#000000;stroke-opacity:1;stroke-width:0.26458333;stroke-dasharray:none" />
  <path
     d="m 30.016405,-378.70102 0.4829,-0.947 0.7522,-0.75299 0.9478,-0.483 1.0507,-0.166 1.0507,0.166 0.9478,0.483 0.7522,0.75299 0.4829,0.947 0.1664,1.05101 -0.1664,1.051 -0.4829,0.947 -0.7522,0.75299 -0.9478,0.483 -1.0507,0.166 -1.0507,-0.166 -0.9478,-0.483 -0.7522,-0.75299 -0.4829,-0.947 -0.1664,-1.051 z"
     id="path594"
     style="fill:none;stroke:#000000;stroke-opacity:1;stroke-width:0.26458333;stroke-dasharray:none" />
  <path
     d="m 45.838605,-378.05202 0.1847,-0.36199 0.2876,-0.28801 0.3624,-0.184 0.4017,-0.064 0.4017,0.064 0.3624,0.184 0.2876,0.28801 0.1847,0.36199 0.0636,0.40201 -0.0636,0.402 -0.1847,0.36199 -0.2876,0.28801 -0.3624,0.184 -0.4017,0.064 -0.4017,-0.064 -0.3624,-0.184 -0.2876,-0.28801 -0.1847,-0.36199 -0.0636,-0.402 z"
     id="path592"
     style="fill:none;stroke:#000000;stroke-opacity:1;stroke-width:0.26458333;stroke-dasharray:none" />
  <path
     d="m 51.750005,-380.15001 h 10 v 5 h -10 z"
     id="path590"
     style="fill:none;stroke:#000000;stroke-opacity:1;stroke-width:0.26458333;stroke-dasharray:none" />
  <path
     d="m 65.188605,-378.05202 0.1847,-0.36199 0.2876,-0.28801 0.3624,-0.184 0.4017,-0.064 0.4017,0.064 0.3624,0.184 0.2876,0.28801 0.1847,0.36199 0.0636,0.40201 -0.0636,0.402 -0.1847,0.36199 -0.2876,0.28801 -0.3624,0.184 -0.4017,0.064 -0.4017,-0.064 -0.3624,-0.184 -0.2876,-0.28801 -0.1847,-0.36199 -0.0636,-0.402 z"
     id="path588"
     style="fill:none;stroke:#000000;stroke-opacity:1;stroke-width:0.26458333;stroke-dasharray:none" />
  <path
     d="m 19.25,-371.65001 v 5.04999 h 51.000005 v -5.04999 h 3 v -12 h -3 v -5.05 h -6 v -3 h -12 v 3 h -15 v -3 H 25.25 v 3 h -6 v 5.05 h -3 v 12 z"
     id="path586"
     style="fill:none;stroke:#000000;stroke-opacity:1;stroke-width:0.26458333;stroke-dasharray:none" />
  <path
     d="m 32.384605,-328.80001 0.3906,-0.76601 0.6084,-0.60899 0.7666,-0.39001 0.8498,-0.13499 0.8498,0.13499 0.7666,0.39001 0.6084,0.60899 0.3906,0.76601 0.1346,0.85 -0.1346,0.84999 -0.3906,0.76601 -0.6084,0.60899 -0.7666,0.39001 -0.8498,0.135 -0.8498,-0.135 -0.7666,-0.39001 -0.6084,-0.60899 -0.3906,-0.76601 -0.1346,-0.84999 z"
     id="path584"
     style="fill:none;stroke:#000000;stroke-opacity:1;stroke-width:0.26458333;stroke-dasharray:none" />
  <path
     d="m 52.134605,-328.80001 0.3906,-0.76601 0.6084,-0.60899 0.7666,-0.39001 0.8498,-0.13499 0.8498,0.13499 0.7666,0.39001 0.6084,0.60899 0.3906,0.76601 0.1346,0.85 -0.1346,0.84999 -0.3906,0.76601 -0.6084,0.60899 -0.7666,0.39001 -0.8498,0.135 -0.8498,-0.135 -0.7666,-0.39001 -0.6084,-0.60899 -0.3906,-0.76601 -0.1346,-0.84999 z"
     id="path582"
     style="fill:none;stroke:#000000;stroke-opacity:1;stroke-width:0.26458333;stroke-dasharray:none" />
  <path
     d="m 71.884605,-328.80001 0.3906,-0.76601 0.6084,-0.60899 0.7666,-0.39001 0.8498,-0.13499 0.8498,0.13499 0.7666,0.39001 0.6084,0.60899 0.3906,0.76601 0.1346,0.85 -0.1346,0.84999 -0.3906,0.76601 -0.6084,0.60899 -0.7666,0.39001 -0.8498,0.135 -0.8498,-0.135 -0.7666,-0.39001 -0.6084,-0.60899 -0.3906,-0.76601 -0.1346,-0.84999 z"
     id="path580"
     style="fill:none;stroke:#000000;stroke-opacity:1;stroke-width:0.26458333;stroke-dasharray:none" />
  <path
     d="m 29.250005,-325.07501 v 2.875 h 51 v -2.875 h 3 v -5.75 h -3 v -2.875 h -19.5 v -3 h -12 v 3 h -19.5 v 2.875 H 26.25 v 5.75 z"
     id="path578"
     style="fill:none;stroke:#000000;stroke-opacity:1;stroke-width:0.26458333;stroke-dasharray:none" />
  <path
     d="m 91.089205,-356.04702 0.1136,-0.22299 0.177,-0.17701 0.223,-0.11399 0.2472,-0.039 0.2472,0.039 0.223,0.11399 0.177,0.17701 0.1136,0.22299 0.0392,0.24701 -0.0392,0.24699 -0.1136,0.22301 -0.177,0.17699 -0.223,0.11401 -0.2472,0.039 -0.2472,-0.039 -0.223,-0.11401 -0.177,-0.17699 -0.1136,-0.22301 -0.0392,-0.24699 z"
     id="path576"
     style="fill:none;stroke:#000000;stroke-opacity:1;stroke-width:0.26458333;stroke-dasharray:none" />
  <path
     d="m 91.089205,-370.84701 0.1136,-0.22301 0.177,-0.17699 0.223,-0.114 0.2472,-0.039 0.2472,0.039 0.223,0.114 0.177,0.17699 0.1136,0.22301 0.0392,0.24699 -0.0392,0.24701 -0.1136,0.22299 -0.177,0.17701 -0.223,0.11399 -0.2472,0.039 -0.2472,-0.039 -0.223,-0.11399 -0.177,-0.17701 -0.1136,-0.22299 -0.0392,-0.24701 z"
     id="path574"
     style="fill:none;stroke:#000000;stroke-opacity:1;stroke-width:0.26458333;stroke-dasharray:none" />
  <path
     d="m 91.641505,-365.67202 1.1364,-2.22999 1.7698,-1.77001 2.2302,-1.136 2.4721,-0.39199 2.472005,0.39199 2.23,1.136 1.77,1.77001 1.136,2.22999 0.392,2.47201 -0.392,2.472 -1.136,2.23 -1.77,1.77 -2.23,1.136 -2.472005,0.392 -2.4721,-0.392 -2.2302,-1.136 -1.7698,-1.77 -1.1364,-2.23 -0.3915,-2.472 z"
     id="path572"
     style="fill:none;stroke:#000000;stroke-opacity:1;stroke-width:0.26458333;stroke-dasharray:none" />
  <path
     d="m 113.642,-365.67202 1.13601,-2.22999 1.77,-1.77001 2.23,-1.136 2.472,-0.39199 2.47199,0.39199 2.23001,1.136 1.76999,1.77001 1.136,2.22999 0.392,2.47201 -0.392,2.472 -1.136,2.23 -1.76999,1.77 -2.23001,1.136 -2.47199,0.392 -2.472,-0.392 -2.23,-1.136 -1.77,-1.77 -1.13601,-2.23 -0.39199,-2.472 z"
     id="path570"
     style="fill:none;stroke:#000000;stroke-opacity:1;stroke-width:0.26458333;stroke-dasharray:none" />
  <path
     d="m 127.889,-356.04702 0.114,-0.22299 0.177,-0.17701 0.223,-0.11399 0.247,-0.039 0.247,0.039 0.223,0.11399 0.17701,0.17701 0.11399,0.22299 0.039,0.24701 -0.039,0.24699 -0.11399,0.22301 -0.17701,0.17699 -0.223,0.11401 -0.247,0.039 -0.247,-0.039 -0.223,-0.11401 -0.177,-0.17699 -0.114,-0.22301 -0.039,-0.24699 z"
     id="path568"
     style="fill:none;stroke:#000000;stroke-opacity:1;stroke-width:0.26458333;stroke-dasharray:none" />
  <path
     d="m 127.889,-370.84701 0.114,-0.22301 0.177,-0.17699 0.223,-0.114 0.247,-0.039 0.247,0.039 0.223,0.114 0.17701,0.17699 0.11399,0.22301 0.039,0.24699 -0.039,0.24701 -0.11399,0.22299 -0.17701,0.17701 -0.223,0.11399 -0.247,0.039 -0.247,-0.039 -0.223,-0.11399 -0.177,-0.17701 -0.114,-0.22299 -0.039,-0.24701 z"
     id="path566"
     style="fill:none;stroke:#000000;stroke-opacity:1;stroke-width:0.26458333;stroke-dasharray:none" />
  <path
     d="m 99.250005,-334.70001 v -3 h 9.300005 v -2.5 h -1.05 v -2.5 h 1.05 v -1.95 h 3.4 v 1.95 h 1.05 v 2.5 h -1.05 v 2.5 h 9.3 v 3 h 12 v -57 h -12 v 3 h -9.3 v 2.5 h 1.05 v 2.5 h -1.05 v 1.94999 h -3.4 v -1.94999 h -1.05 v -2.5 h 1.05 v -2.5 h -9.300005 v -3 h -12 v 57 z"
     id="path564"
     style="fill:none;stroke:#000000;stroke-opacity:1;stroke-width:0.26458333;stroke-dasharray:none" />
  <path
     d="M 8.51999,-428.37502 H 11.62 v 5.85001 H 8.51999 Z"
     id="path562"
     style="fill:none;stroke:#000000;stroke-opacity:1;stroke-width:0.26458333;stroke-dasharray:none" />
  <path
     d="m 59.592605,-445.36311 0.9943,-1.95141 1.5486,-1.54859 1.9514,-0.9943 2.1631,-0.3426 2.1631,0.3426 1.9514,0.9943 1.5486,1.54859 0.9943,1.95141 0.3426,2.1631 -0.3426,2.16309 -0.9943,1.95141 -1.5486,1.54859 -1.9514,0.9943 -2.1631,0.34261 -2.1631,-0.34261 -1.9514,-0.9943 -1.5486,-1.54859 -0.9943,-1.95141 -0.3426,-2.16309 z"
     id="path560"
     style="fill:none;stroke:#000000;stroke-opacity:1;stroke-width:0.26458333;stroke-dasharray:none" />
  <path
     d="m 87.250005,-434.27001 h 12 v 3 h -12 z"
     id="path558"
     style="fill:none;stroke:#000000;stroke-opacity:1;stroke-width:0.26458333;stroke-dasharray:none" />
  <path
     d="m 108.633,-433.29532 0.24201,-0.4739 0.376,-0.37609 0.474,-0.24151 0.525,-0.0832 0.525,0.0832 0.474,0.24151 0.376,0.37609 0.242,0.4739 0.083,0.52531 -0.083,0.52529 -0.242,0.4739 -0.376,0.3761 -0.474,0.24151 -0.525,0.0832 -0.525,-0.0832 -0.474,-0.24151 -0.376,-0.3761 -0.24201,-0.4739 -0.083,-0.52529 z"
     id="path556"
     style="fill:none;stroke:#000000;stroke-opacity:1;stroke-width:0.26458333;stroke-dasharray:none" />
  <path
     d="M 121.20001,-434.32002 H 133.3 v 3.10001 h -12.09999 z"
     id="path554"
     style="fill:none;stroke:#000000;stroke-opacity:1;stroke-width:0.26458333;stroke-dasharray:none" />
  <path
     d="m 192.2,-454.70001 h 3.1 v 12.1 h -3.1 z"
     id="path552"
     style="fill:none;stroke:#000000;stroke-opacity:1;stroke-width:0.26458333;stroke-dasharray:none" />
  <path
     d="m 208.88,-428.37502 h 3.1 v 5.85001 h -3.1 z"
     id="path550"
     style="fill:none;stroke:#000000;stroke-opacity:1;stroke-width:0.26458333;stroke-dasharray:none" />
  <path
     d="m 14.9167,-419.70001 v 3.05 h 11 v -3.05 h 5.633305 v -2.5 h -1.05 v -2.5 h 1.05 v -1.95 h 3.4 v 1.95 h 1.05 v 2.5 h -1.05 v 2.5 h 5.6333 v 3.05 h 11 v -3.05 h 14.6667 v 3.05 h 11 v -3.05 h 14.6667 v 3.05 h 11.000305 v -3.05 h 5.633 v -2.5 h -1.05 v -2.5 h 1.05 v -1.95 h 3.4 v 1.95 h 1.05 v 2.5 h -1.05 v 2.5 h 5.633 v 3.05 h 11 v -3.05 h 14.667 v 3.05 h 11 v -3.05 h 14.667 v 3.05 h 11 v -3.05 H 185.55 v -2.5 h -1.04999 v -2.5 H 185.55 v -1.95 h 3.4 v 1.95 h 1.05001 v 2.5 H 188.95 v 2.5 h 5.63301 v 3.05 h 11 v -3.05 h 14.667 v -40 H 214.617 v 2.5 h 1.05001 v 2.5 H 214.617 v 1.94999 h -3.39999 v -1.94999 h -1.05 v -2.5 h 1.05 v -2.5 h -5.634 v -3.05001 h -11 v 3.05001 h -14.666 v -3.05001 h -11 v 3.05001 h -14.667 v -3.05001 h -11 v 3.05001 h -14.667 v -3.05001 h -11 v 3.05001 h -5.633 v 2.5 h 1.05 v 2.5 h -1.05 v 1.94999 h -3.4 v -1.94999 h -1.05 v -2.5 h 1.05 v -2.5 h -5.633 v -3.05001 H 91.916705 v 3.05001 h -14.6667 v -3.05001 h -11 v 3.05001 h -14.6667 v -3.05001 h -11 v 3.05001 h -5.6333 v 2.5 h 1.05 v 2.5 h -1.05 v 1.94999 h -3.4 v -1.94999 h -1.05 v -2.5 h 1.05 v -2.5 H 25.9167 v -3.05001 h -11 v 3.05001 H 0.25 v 40 z"
     id="path548"
     style="fill:none;stroke:#000000;stroke-opacity:1;stroke-width:0.26458333;stroke-dasharray:none" />
  <path
     d="M 8.51999,-477.37502 H 11.62 v 5.85001 H 8.51999 Z"
     id="path546"
     style="fill:none;stroke:#000000;stroke-opacity:1;stroke-width:0.26458333;stroke-dasharray:none" />
  <path
     d="m 87.250005,-483.27001 h 12 v 3 h -12 z"
     id="path544"
     style="fill:none;stroke:#000000;stroke-opacity:1;stroke-width:0.26458333;stroke-dasharray:none" />
  <path
     d="m 108.633,-482.29532 0.24201,-0.4739 0.376,-0.37609 0.474,-0.24151 0.525,-0.0832 0.525,0.0832 0.474,0.24151 0.376,0.37609 0.242,0.4739 0.083,0.52531 -0.083,0.5253 -0.242,0.47389 -0.376,0.3761 -0.474,0.24151 -0.525,0.0832 -0.525,-0.0832 -0.474,-0.24151 -0.376,-0.3761 -0.24201,-0.47389 -0.083,-0.5253 z"
     id="path542"
     style="fill:none;stroke:#000000;stroke-opacity:1;stroke-width:0.26458333;stroke-dasharray:none" />
  <path
     d="M 121.20001,-483.32002 H 133.3 v 3.10001 h -12.09999 z"
     id="path540"
     style="fill:none;stroke:#000000;stroke-opacity:1;stroke-width:0.26458333;stroke-dasharray:none" />
  <path
     d="m 192.2,-503.70001 h 3.1 v 12.1 h -3.1 z"
     id="path538"
     style="fill:none;stroke:#000000;stroke-opacity:1;stroke-width:0.26458333;stroke-dasharray:none" />
  <path
     d="m 208.88,-477.37502 h 3.1 v 5.85001 h -3.1 z"
     id="path536"
     style="fill:none;stroke:#000000;stroke-opacity:1;stroke-width:0.26458333;stroke-dasharray:none" />
  <path
     d="m 14.9167,-468.70001 v 3.05 h 11 v -3.05 h 5.633305 v -2.5 h -1.05 v -2.5 h 1.05 v -1.95 h 3.4 v 1.95 h 1.05 v 2.5 h -1.05 v 2.5 h 5.6333 v 3.05 h 11 v -3.05 h 14.6667 v 3.05 h 11 v -3.05 h 14.6667 v 3.05 h 11.000305 v -3.05 h 5.633 v -2.5 h -1.05 v -2.5 h 1.05 v -1.95 h 3.4 v 1.95 h 1.05 v 2.5 h -1.05 v 2.5 h 5.633 v 3.05 h 11 v -3.05 h 14.667 v 3.05 h 11 v -3.05 h 14.667 v 3.05 h 11 v -3.05 H 185.55 v -2.5 h -1.04999 v -2.5 H 185.55 v -1.95 h 3.4 v 1.95 h 1.05001 v 2.5 H 188.95 v 2.5 h 5.63301 v 3.05 h 11 v -3.05 h 14.667 v -40 H 214.617 v 2.5 h 1.05001 v 2.5 H 214.617 v 1.94999 h -3.39999 v -1.94999 h -1.05 v -2.5 h 1.05 v -2.5 h -5.634 V -511.75 h -11 v 3.04999 h -14.666 V -511.75 h -11 v 3.04999 h -14.667 V -511.75 h -11 v 3.04999 h -14.667 V -511.75 h -11 v 3.04999 h -5.633 v 2.5 h 1.05 v 2.5 h -1.05 v 1.94999 h -3.4 v -1.94999 h -1.05 v -2.5 h 1.05 v -2.5 h -5.633 V -511.75 H 91.916705 v 3.04999 h -14.6667 V -511.75 h -11 v 3.04999 h -14.6667 V -511.75 h -11 v 3.04999 h -5.6333 v 2.5 h 1.05 v 2.5 h -1.05 v 1.94999 h -3.4 v -1.94999 h -1.05 v -2.5 h 1.05 v -2.5 H 25.9167 V -511.75 h -11 v 3.04999 H 0.25 v 40 z"
     id="path534"
     style="fill:none;stroke:#000000;stroke-opacity:1;stroke-width:0.26458333;stroke-dasharray:none" />
  <path
     d="m 4.50694,-303.07202 0.74572,-1.464 1.16146,-1.161 1.46354,-0.74599 1.62234,-0.257 1.6223,0.257 1.4636,0.74599 1.1614,1.161 0.7457,1.464 0.257,1.62201 -0.257,1.622 -0.7457,1.464 -1.1614,1.161 -1.4636,0.74599 -1.6223,0.25701 -1.62234,-0.25701 -1.46354,-0.74599 -1.16146,-1.161 -0.74572,-1.464 -0.25694,-1.622 z"
     id="path532"
     style="fill:none;stroke:#000000;stroke-opacity:1;stroke-width:0.26458333;stroke-dasharray:none" />
  <path
     d="m 4.50694,-266.57202 0.74572,-1.464 1.16146,-1.161 1.46354,-0.74599 1.62234,-0.257 1.6223,0.257 1.4636,0.74599 1.1614,1.161 0.7457,1.464 0.257,1.62201 -0.257,1.622 -0.7457,1.464 -1.1614,1.161 -1.4636,0.74599 -1.6223,0.25701 -1.62234,-0.25701 -1.46354,-0.74599 -1.16146,-1.161 -0.74572,-1.464 -0.25694,-1.622 z"
     id="path530"
     style="fill:none;stroke:#000000;stroke-opacity:1;stroke-width:0.26458333;stroke-dasharray:none" />
  <path
     d="m 34.250005,-296.70001 h 38 v 27 h -38 z"
     id="path524"
     style="fill:none;stroke:#000000;stroke-opacity:1;stroke-width:0.26458333;stroke-dasharray:none" />
  <path
     d="m 91.641505,-285.67202 1.1364,-2.22999 1.7698,-1.77001 2.2302,-1.136 2.4721,-0.39199 2.472005,0.39199 2.23,1.136 1.77,1.77001 1.136,2.22999 0.392,2.47201 -0.392,2.472 -1.136,2.23 -1.77,1.77 -2.23,1.136 -2.472005,0.392 -2.4721,-0.392 -2.2302,-1.136 -1.7698,-1.77 -1.1364,-2.23 -0.3915,-2.472 z"
     id="path518"
     style="fill:none;stroke:#000000;stroke-opacity:1;stroke-width:0.26458333;stroke-dasharray:none" />
  <path
     d="m 113.64201,-285.67202 1.136,-2.22999 1.77,-1.77001 2.23,-1.136 2.472,-0.39199 2.472,0.39199 2.23,1.136 1.77,1.77001 1.136,2.22999 0.392,2.47201 -0.392,2.472 -1.136,2.23 -1.77,1.77 -2.23,1.136 -2.472,0.392 -2.472,-0.392 -2.23,-1.136 -1.77,-1.77 -1.136,-2.23 -0.392,-2.472 z"
     id="path516"
     style="fill:none;stroke:#000000;stroke-opacity:1;stroke-width:0.26458333;stroke-dasharray:none" />
  <path
     d="m 148.25001,-296.70001 h 38 v 27 h -38 z"
     id="path510"
     style="fill:none;stroke:#000000;stroke-opacity:1;stroke-width:0.26458333;stroke-dasharray:none" />
  <path
     d="m 206.00701,-303.07202 0.746,-1.464 1.161,-1.161 1.464,-0.74599 1.622,-0.257 1.622,0.257 1.464,0.74599 1.161,1.161 0.746,1.464 0.257,1.62201 -0.257,1.622 -0.746,1.464 -1.161,1.161 -1.464,0.74599 -1.622,0.25701 -1.622,-0.25701 -1.464,-0.74599 -1.161,-1.161 -0.746,-1.464 -0.257,-1.622 z"
     id="path504"
     style="fill:none;stroke:#000000;stroke-opacity:1;stroke-width:0.26458333;stroke-dasharray:none" />
  <path
     d="m 206.00701,-266.57202 0.746,-1.464 1.161,-1.161 1.464,-0.74599 1.622,-0.257 1.622,0.257 1.464,0.74599 1.161,1.161 0.746,1.464 0.257,1.62201 -0.257,1.622 -0.746,1.464 -1.161,1.161 -1.464,0.74599 -1.622,0.25701 -1.622,-0.25701 -1.464,-0.74599 -1.161,-1.161 -0.746,-1.464 -0.257,-1.622 z"
     id="path502"
     style="fill:none;stroke:#000000;stroke-opacity:1;stroke-width:0.26458333;stroke-dasharray:none" />
  <path
     d="m 237.52,-407.25002 h 3.1 v 12.10001 h -3.1 z"
     id="path498"
     style="fill:none;stroke:#000000;stroke-opacity:1;stroke-width:0.26458333;stroke-dasharray:none" />
  <path
     d="m 233.507,-421.07231 0.746,-1.4636 1.161,-1.1614 1.464,-0.74581 1.622,-0.25689 1.622,0.25689 1.464,0.74581 1.161,1.1614 0.746,1.4636 0.257,1.6223 -0.257,1.62229 -0.746,1.4636 -1.161,1.1614 -1.464,0.7457 -1.622,0.25701 -1.622,-0.25701 -1.464,-0.7457 -1.161,-1.1614 -0.746,-1.4636 -0.257,-1.62229 z"
     id="path496"
     style="fill:none;stroke:#000000;stroke-opacity:1;stroke-width:0.26458333;stroke-dasharray:none" />
  <path
     d="m 233.507,-384.57202 0.746,-1.464 1.161,-1.161 1.464,-0.74599 1.622,-0.257 1.622,0.257 1.464,0.74599 1.161,1.161 0.746,1.464 0.257,1.62201 -0.257,1.622 -0.746,1.464 -1.161,1.161 -1.464,0.74599 -1.622,0.25701 -1.622,-0.25701 -1.464,-0.74599 -1.161,-1.161 -0.746,-1.464 -0.257,-1.622 z"
     id="path494"
     style="fill:none;stroke:#000000;stroke-opacity:1;stroke-width:0.26458333;stroke-dasharray:none" />
  <path
     d="m 246.633,-413.77531 0.242,-0.4739 0.376,-0.3761 0.474,-0.2415 0.525,-0.0832 0.525,0.0832 0.474,0.2415 0.376,0.3761 0.242,0.4739 0.083,0.52529 -0.083,0.52531 -0.242,0.4739 -0.376,0.37609 -0.474,0.24151 -0.525,0.0832 -0.525,-0.0832 -0.474,-0.24151 -0.376,-0.37609 -0.242,-0.4739 -0.083,-0.52531 z"
     id="path492"
     style="fill:none;stroke:#000000;stroke-opacity:1;stroke-width:0.26458333;stroke-dasharray:none" />
  <path
     d="m 246.633,-389.67502 0.242,-0.474 0.376,-0.37599 0.474,-0.24201 0.525,-0.083 0.525,0.083 0.474,0.24201 0.376,0.37599 0.242,0.474 0.083,0.52501 -0.083,0.52499 -0.242,0.474 -0.376,0.37601 -0.474,0.242 -0.525,0.083 -0.525,-0.083 -0.474,-0.242 -0.376,-0.37601 -0.242,-0.474 -0.083,-0.52499 z"
     id="path490"
     style="fill:none;stroke:#000000;stroke-opacity:1;stroke-width:0.26458333;stroke-dasharray:none" />
  <path
     d="m 243.917,-375.75002 h 11 v 3.10001 h -11 z"
     id="path488"
     style="fill:none;stroke:#000000;stroke-opacity:1;stroke-width:0.26458333;stroke-dasharray:none" />
  <path
     d="m 243.917,-429.75002 h 11 v 3.10001 h -11 z"
     id="path486"
     style="fill:none;stroke:#000000;stroke-opacity:1;stroke-width:0.26458333;stroke-dasharray:none" />
  <path
     d="m 260.633,-374.72502 0.242,-0.47399 0.376,-0.376 0.474,-0.242 0.525,-0.083 0.525,0.083 0.474,0.242 0.376,0.376 0.242,0.47399 0.083,0.52501 -0.083,0.525 -0.242,0.47399 -0.376,0.37601 -0.474,0.24199 -0.525,0.083 -0.525,-0.083 -0.474,-0.24199 -0.376,-0.37601 -0.242,-0.47399 -0.083,-0.525 z"
     id="path484"
     style="fill:none;stroke:#000000;stroke-opacity:1;stroke-width:0.26458333;stroke-dasharray:none" />
  <path
     d="m 260.633,-428.72532 0.242,-0.47389 0.376,-0.3761 0.474,-0.24151 0.525,-0.0832 0.525,0.0832 0.474,0.24151 0.376,0.3761 0.242,0.47389 0.083,0.52531 -0.083,0.5253 -0.242,0.47389 -0.376,0.3761 -0.474,0.24151 -0.525,0.0832 -0.525,-0.0832 -0.474,-0.24151 -0.376,-0.3761 -0.242,-0.47389 -0.083,-0.5253 z"
     id="path482"
     style="fill:none;stroke:#000000;stroke-opacity:1;stroke-width:0.26458333;stroke-dasharray:none" />
  <path
     d="m 269.583,-375.75002 h 11 v 3.10001 h -11 z"
     id="path480"
     style="fill:none;stroke:#000000;stroke-opacity:1;stroke-width:0.26458333;stroke-dasharray:none" />
  <path
     d="m 269.583,-429.75002 h 11 v 3.10001 h -11 z"
     id="path478"
     style="fill:none;stroke:#000000;stroke-opacity:1;stroke-width:0.26458333;stroke-dasharray:none" />
  <path
     d="m 263.25,-414.70001 h 38 v 27 h -38 z"
     id="path476"
     style="fill:none;stroke:#000000;stroke-opacity:1;stroke-width:0.26458333;stroke-dasharray:none" />
  <path
     d="m 295.25,-429.75002 h 11 v 3.10001 h -11 z"
     id="path474"
     style="fill:none;stroke:#000000;stroke-opacity:1;stroke-width:0.26458333;stroke-dasharray:none" />
  <path
     d="m 295.25,-375.75002 h 11 v 3.10001 h -11 z"
     id="path472"
     style="fill:none;stroke:#000000;stroke-opacity:1;stroke-width:0.26458333;stroke-dasharray:none" />
  <path
     d="m 309.933,-389.67502 0.242,-0.474 0.376,-0.37599 0.474,-0.24201 0.525,-0.083 0.525,0.083 0.474,0.24201 0.376,0.37599 0.242,0.474 0.083,0.52501 -0.083,0.52499 -0.242,0.474 -0.376,0.37601 -0.474,0.242 -0.525,0.083 -0.525,-0.083 -0.474,-0.242 -0.376,-0.37601 -0.242,-0.474 -0.083,-0.52499 z"
     id="path470"
     style="fill:none;stroke:#000000;stroke-opacity:1;stroke-width:0.26458333;stroke-dasharray:none" />
  <path
     d="m 309.933,-413.77531 0.242,-0.4739 0.376,-0.3761 0.474,-0.2415 0.525,-0.0832 0.525,0.0832 0.474,0.2415 0.376,0.3761 0.242,0.4739 0.083,0.52529 -0.083,0.52531 -0.242,0.4739 -0.376,0.37609 -0.474,0.24151 -0.525,0.0832 -0.525,-0.0832 -0.474,-0.24151 -0.376,-0.37609 -0.242,-0.4739 -0.083,-0.52531 z"
     id="path468"
     style="fill:none;stroke:#000000;stroke-opacity:1;stroke-width:0.26458333;stroke-dasharray:none" />
  <path
     d="m 320.917,-375.75002 h 11 v 3.10001 h -11 z"
     id="path466"
     style="fill:none;stroke:#000000;stroke-opacity:1;stroke-width:0.26458333;stroke-dasharray:none" />
  <path
     d="m 320.917,-429.75002 h 11 v 3.10001 h -11 z"
     id="path464"
     style="fill:none;stroke:#000000;stroke-opacity:1;stroke-width:0.26458333;stroke-dasharray:none" />
  <path
     d="m 320.642,-403.67201 1.136,-2.23 1.77,-1.77 2.23,-1.1365 2.472,-0.3915 2.472,0.3915 2.23,1.1365 1.77,1.77 1.136,2.23 0.392,2.472 -0.392,2.47199 -1.136,2.23001 -1.77,1.76999 -2.23,1.13601 -2.472,0.392 -2.472,-0.392 -2.23,-1.13601 -1.77,-1.76999 -1.136,-2.23001 -0.392,-2.47199 z"
     id="path462"
     style="fill:none;stroke:#000000;stroke-opacity:1;stroke-width:0.26458333;stroke-dasharray:none" />
  <path
     d="m 337.633,-374.72502 0.242,-0.47399 0.376,-0.376 0.474,-0.242 0.525,-0.083 0.525,0.083 0.474,0.242 0.376,0.376 0.242,0.47399 0.083,0.52501 -0.083,0.525 -0.242,0.47399 -0.376,0.37601 -0.474,0.24199 -0.525,0.083 -0.525,-0.083 -0.474,-0.24199 -0.376,-0.37601 -0.242,-0.47399 -0.083,-0.525 z"
     id="path460"
     style="fill:none;stroke:#000000;stroke-opacity:1;stroke-width:0.26458333;stroke-dasharray:none" />
  <path
     d="m 337.633,-428.72532 0.242,-0.47389 0.376,-0.3761 0.474,-0.24151 0.525,-0.0832 0.525,0.0832 0.474,0.24151 0.376,0.3761 0.242,0.47389 0.083,0.52531 -0.083,0.5253 -0.242,0.47389 -0.376,0.3761 -0.474,0.24151 -0.525,0.0832 -0.525,-0.0832 -0.474,-0.24151 -0.376,-0.3761 -0.242,-0.47389 -0.083,-0.5253 z"
     id="path458"
     style="fill:none;stroke:#000000;stroke-opacity:1;stroke-width:0.26458333;stroke-dasharray:none" />
  <path
     d="m 346.583,-429.75002 h 11 v 3.10001 h -11 z"
     id="path456"
     style="fill:none;stroke:#000000;stroke-opacity:1;stroke-width:0.26458333;stroke-dasharray:none" />
  <path
     d="m 346.583,-375.75002 h 11 v 3.10001 h -11 z"
     id="path454"
     style="fill:none;stroke:#000000;stroke-opacity:1;stroke-width:0.26458333;stroke-dasharray:none" />
  <path
     d="m 342.642,-403.67201 1.136,-2.23 1.77,-1.77 2.23,-1.1365 2.472,-0.3915 2.472,0.3915 2.23,1.1365 1.77,1.77 1.136,2.23 0.392,2.472 -0.392,2.47199 -1.136,2.23001 -1.77,1.76999 -2.23,1.13601 -2.472,0.392 -2.472,-0.392 -2.23,-1.13601 -1.77,-1.76999 -1.136,-2.23001 -0.392,-2.47199 z"
     id="path452"
     style="fill:none;stroke:#000000;stroke-opacity:1;stroke-width:0.26458333;stroke-dasharray:none" />
  <path
     d="m 365.133,-413.77531 0.242,-0.4739 0.376,-0.3761 0.474,-0.2415 0.525,-0.0832 0.525,0.0832 0.474,0.2415 0.376,0.3761 0.242,0.4739 0.083,0.52529 -0.083,0.52531 -0.242,0.4739 -0.376,0.37609 -0.474,0.24151 -0.525,0.0832 -0.525,-0.0832 -0.474,-0.24151 -0.376,-0.37609 -0.242,-0.4739 -0.083,-0.52531 z"
     id="path450"
     style="fill:none;stroke:#000000;stroke-opacity:1;stroke-width:0.26458333;stroke-dasharray:none" />
  <path
     d="m 365.133,-389.67502 0.242,-0.474 0.376,-0.37599 0.474,-0.24201 0.525,-0.083 0.525,0.083 0.474,0.24201 0.376,0.37599 0.242,0.474 0.083,0.52501 -0.083,0.52499 -0.242,0.474 -0.376,0.37601 -0.474,0.242 -0.525,0.083 -0.525,-0.083 -0.474,-0.242 -0.376,-0.37601 -0.242,-0.474 -0.083,-0.52499 z"
     id="path448"
     style="fill:none;stroke:#000000;stroke-opacity:1;stroke-width:0.26458333;stroke-dasharray:none" />
  <path
     d="m 372.25,-375.75002 h 11 v 3.10001 h -11 z"
     id="path446"
     style="fill:none;stroke:#000000;stroke-opacity:1;stroke-width:0.26458333;stroke-dasharray:none" />
  <path
     d="m 372.25,-429.75002 h 11 v 3.10001 h -11 z"
     id="path444"
     style="fill:none;stroke:#000000;stroke-opacity:1;stroke-width:0.26458333;stroke-dasharray:none" />
  <path
     d="m 397.917,-375.75002 h 11 v 3.10001 h -11 z"
     id="path442"
     style="fill:none;stroke:#000000;stroke-opacity:1;stroke-width:0.26458333;stroke-dasharray:none" />
  <path
     d="m 397.917,-429.75002 h 11 v 3.10001 h -11 z"
     id="path440"
     style="fill:none;stroke:#000000;stroke-opacity:1;stroke-width:0.26458333;stroke-dasharray:none" />
  <path
     d="m 377.25,-414.70001 h 38 v 27 h -38 z"
     id="path438"
     style="fill:none;stroke:#000000;stroke-opacity:1;stroke-width:0.26458333;stroke-dasharray:none" />
  <path
     d="m 414.633,-374.72502 0.242,-0.47399 0.376,-0.376 0.474,-0.242 0.525,-0.083 0.525,0.083 0.474,0.242 0.376,0.376 0.242,0.47399 0.083,0.52501 -0.083,0.525 -0.242,0.47399 -0.376,0.37601 -0.474,0.24199 -0.525,0.083 -0.525,-0.083 -0.474,-0.24199 -0.376,-0.37601 -0.242,-0.47399 -0.083,-0.525 z"
     id="path436"
     style="fill:none;stroke:#000000;stroke-opacity:1;stroke-width:0.26458333;stroke-dasharray:none" />
  <path
     d="m 414.633,-428.72532 0.242,-0.47389 0.376,-0.3761 0.474,-0.24151 0.525,-0.0832 0.525,0.0832 0.474,0.24151 0.376,0.3761 0.242,0.47389 0.083,0.52531 -0.083,0.5253 -0.242,0.47389 -0.376,0.3761 -0.474,0.24151 -0.525,0.0832 -0.525,-0.0832 -0.474,-0.24151 -0.376,-0.3761 -0.242,-0.47389 -0.083,-0.5253 z"
     id="path434"
     style="fill:none;stroke:#000000;stroke-opacity:1;stroke-width:0.26458333;stroke-dasharray:none" />
  <path
     d="m 428.433,-413.77531 0.242,-0.4739 0.376,-0.3761 0.474,-0.2415 0.525,-0.0832 0.525,0.0832 0.474,0.2415 0.376,0.3761 0.242,0.4739 0.083,0.52529 -0.083,0.52531 -0.242,0.4739 -0.376,0.37609 -0.474,0.24151 -0.525,0.0832 -0.525,-0.0832 -0.474,-0.24151 -0.376,-0.37609 -0.242,-0.4739 -0.083,-0.52531 z"
     id="path432"
     style="fill:none;stroke:#000000;stroke-opacity:1;stroke-width:0.26458333;stroke-dasharray:none" />
  <path
     d="m 428.433,-389.67502 0.242,-0.474 0.376,-0.37599 0.474,-0.24201 0.525,-0.083 0.525,0.083 0.474,0.24201 0.376,0.37599 0.242,0.474 0.083,0.52501 -0.083,0.52499 -0.242,0.474 -0.376,0.37601 -0.474,0.242 -0.525,0.083 -0.525,-0.083 -0.474,-0.242 -0.376,-0.37601 -0.242,-0.474 -0.083,-0.52499 z"
     id="path430"
     style="fill:none;stroke:#000000;stroke-opacity:1;stroke-width:0.26458333;stroke-dasharray:none" />
  <path
     d="m 423.583,-375.75002 h 11 v 3.10001 h -11 z"
     id="path428"
     style="fill:none;stroke:#000000;stroke-opacity:1;stroke-width:0.26458333;stroke-dasharray:none" />
  <path
     d="m 423.583,-429.75002 h 11 v 3.10001 h -11 z"
     id="path426"
     style="fill:none;stroke:#000000;stroke-opacity:1;stroke-width:0.26458333;stroke-dasharray:none" />
  <path
     d="m 437.88,-407.25002 h 3.1 v 12.10001 h -3.1 z"
     id="path424"
     style="fill:none;stroke:#000000;stroke-opacity:1;stroke-width:0.26458333;stroke-dasharray:none" />
  <path
     d="m 435.007,-384.57202 0.746,-1.464 1.161,-1.161 1.464,-0.74599 1.622,-0.257 1.622,0.257 1.464,0.74599 1.161,1.161 0.746,1.464 0.257,1.62201 -0.257,1.622 -0.746,1.464 -1.161,1.161 -1.464,0.74599 -1.622,0.25701 -1.622,-0.25701 -1.464,-0.74599 -1.161,-1.161 -0.746,-1.464 -0.257,-1.622 z"
     id="path422"
     style="fill:none;stroke:#000000;stroke-opacity:1;stroke-width:0.26458333;stroke-dasharray:none" />
  <path
     d="m 435.007,-421.07231 0.746,-1.4636 1.161,-1.1614 1.464,-0.74581 1.622,-0.25689 1.622,0.25689 1.464,0.74581 1.161,1.1614 0.746,1.4636 0.257,1.6223 -0.257,1.62229 -0.746,1.4636 -1.161,1.1614 -1.464,0.7457 -1.622,0.25701 -1.622,-0.25701 -1.464,-0.7457 -1.161,-1.1614 -0.746,-1.4636 -0.257,-1.62229 z"
     id="path420"
     style="fill:none;stroke:#000000;stroke-opacity:1;stroke-width:0.26458333;stroke-dasharray:none" />
  <path
     d="m 453.25,-368.70001 v -65 h -228 v 65 z"
     id="path418"
     style="fill:none;stroke:#000000;stroke-opacity:1;stroke-width:0.26458333;stroke-dasharray:none" />
  <path
     d="m 338.251,-494.82472 -0.376,-0.3761 -0.242,-0.47389 -0.083,-0.5253 0.083,-0.52531 0.242,-0.47389 0.376,-0.3761 0.474,-0.24151 0.525,-0.0832 0.525,0.0832 0.474,0.24151 0.376,0.3761 0.242,0.47389 0.083,0.52531 -0.083,0.5253 -0.242,0.47389 -0.376,0.3761 -0.474,0.24151 -0.525,0.0832 -0.525,-0.0832 z"
     id="path416"
     style="fill:none;stroke:#000000;stroke-opacity:1;stroke-width:0.26458333;stroke-dasharray:none" />
  <path
     d="m 243.917,-443.75002 h 11 v 3.10001 h -11 z"
     id="path414"
     style="fill:none;stroke:#000000;stroke-opacity:1;stroke-width:0.26458333;stroke-dasharray:none" />
  <path
     d="m 243.917,-497.75002 h 11 v 3.10001 h -11 z"
     id="path412"
     style="fill:none;stroke:#000000;stroke-opacity:1;stroke-width:0.26458333;stroke-dasharray:none" />
  <path
     d="m 260.633,-496.72532 0.242,-0.47389 0.376,-0.3761 0.474,-0.24151 0.525,-0.0832 0.525,0.0832 0.474,0.24151 0.376,0.3761 0.242,0.47389 0.083,0.52531 -0.083,0.5253 -0.242,0.47389 -0.376,0.3761 -0.474,0.24151 -0.525,0.0832 -0.525,-0.0832 -0.474,-0.24151 -0.376,-0.3761 -0.242,-0.47389 -0.083,-0.5253 z"
     id="path410"
     style="fill:none;stroke:#000000;stroke-opacity:1;stroke-width:0.26458333;stroke-dasharray:none" />
  <path
     d="m 260.633,-442.72532 0.242,-0.47389 0.376,-0.3761 0.474,-0.24151 0.525,-0.0832 0.525,0.0832 0.474,0.24151 0.376,0.3761 0.242,0.47389 0.083,0.52531 -0.083,0.5253 -0.242,0.47389 -0.376,0.3761 -0.474,0.24151 -0.525,0.0832 -0.525,-0.0832 -0.474,-0.24151 -0.376,-0.3761 -0.242,-0.47389 -0.083,-0.5253 z"
     id="path408"
     style="fill:none;stroke:#000000;stroke-opacity:1;stroke-width:0.26458333;stroke-dasharray:none" />
  <path
     d="m 269.583,-497.75002 h 11 v 3.10001 h -11 z"
     id="path406"
     style="fill:none;stroke:#000000;stroke-opacity:1;stroke-width:0.26458333;stroke-dasharray:none" />
  <path
     d="m 269.583,-443.75002 h 11 v 3.10001 h -11 z"
     id="path404"
     style="fill:none;stroke:#000000;stroke-opacity:1;stroke-width:0.26458333;stroke-dasharray:none" />
  <path
     d="m 285.633,-488.72532 0.242,-0.47389 0.376,-0.3761 0.474,-0.24151 0.525,-0.0832 0.525,0.0832 0.474,0.24151 0.376,0.3761 0.242,0.47389 0.083,0.52531 -0.083,0.5253 -0.242,0.47389 -0.376,0.3761 -0.474,0.24151 -0.525,0.0832 -0.525,-0.0832 -0.474,-0.24151 -0.376,-0.3761 -0.242,-0.47389 -0.083,-0.5253 z"
     id="path402"
     style="fill:none;stroke:#000000;stroke-opacity:1;stroke-width:0.26458333;stroke-dasharray:none" />
  <path
     d="m 285.633,-450.72532 0.242,-0.47389 0.376,-0.3761 0.474,-0.24151 0.525,-0.0832 0.525,0.0832 0.474,0.24151 0.376,0.3761 0.242,0.47389 0.083,0.52531 -0.083,0.5253 -0.242,0.47389 -0.376,0.3761 -0.474,0.24151 -0.525,0.0832 -0.525,-0.0832 -0.474,-0.24151 -0.376,-0.3761 -0.242,-0.47389 -0.083,-0.5253 z"
     id="path400"
     style="fill:none;stroke:#000000;stroke-opacity:1;stroke-width:0.26458333;stroke-dasharray:none" />
  <path
     d="m 295.25,-443.75002 h 11 v 3.10001 h -11 z"
     id="path398"
     style="fill:none;stroke:#000000;stroke-opacity:1;stroke-width:0.26458333;stroke-dasharray:none" />
  <path
     d="m 295.25,-497.75002 h 11 v 3.10001 h -11 z"
     id="path396"
     style="fill:none;stroke:#000000;stroke-opacity:1;stroke-width:0.26458333;stroke-dasharray:none" />
  <path
     d="m 320.917,-497.75002 h 11 v 3.10001 h -11 z"
     id="path394"
     style="fill:none;stroke:#000000;stroke-opacity:1;stroke-width:0.26458333;stroke-dasharray:none" />
  <path
     d="m 320.917,-443.75002 h 11 v 3.10001 h -11 z"
     id="path392"
     style="fill:none;stroke:#000000;stroke-opacity:1;stroke-width:0.26458333;stroke-dasharray:none" />
  <path
     d="m 340.249,-443.57531 0.376,0.3761 0.242,0.47389 0.083,0.52531 -0.083,0.5253 -0.242,0.47389 -0.376,0.3761 -0.474,0.24151 -0.525,0.0832 -0.525,-0.0832 -0.474,-0.24151 -0.376,-0.3761 -0.242,-0.47389 -0.083,-0.5253 0.083,-0.52531 0.242,-0.47389 0.376,-0.3761 0.474,-0.24151 0.525,-0.0832 0.525,0.0832 z"
     id="path390"
     style="fill:none;stroke:#000000;stroke-opacity:1;stroke-width:0.26458333;stroke-dasharray:none" />
  <path
     d="m 346.583,-443.75002 h 11 v 3.10001 h -11 z"
     id="path388"
     style="fill:none;stroke:#000000;stroke-opacity:1;stroke-width:0.26458333;stroke-dasharray:none" />
  <path
     d="m 346.583,-497.75002 h 11 v 3.10001 h -11 z"
     id="path386"
     style="fill:none;stroke:#000000;stroke-opacity:1;stroke-width:0.26458333;stroke-dasharray:none" />
  <path
     d="m 372.25,-443.75002 h 11 v 3.10001 h -11 z"
     id="path384"
     style="fill:none;stroke:#000000;stroke-opacity:1;stroke-width:0.26458333;stroke-dasharray:none" />
  <path
     d="m 372.25,-497.75002 h 11 v 3.10001 h -11 z"
     id="path382"
     style="fill:none;stroke:#000000;stroke-opacity:1;stroke-width:0.26458333;stroke-dasharray:none" />
  <path
     d="m 389.633,-450.72532 0.242,-0.47389 0.376,-0.3761 0.474,-0.24151 0.525,-0.0832 0.525,0.0832 0.474,0.24151 0.376,0.3761 0.242,0.47389 0.083,0.52531 -0.083,0.5253 -0.242,0.47389 -0.376,0.3761 -0.474,0.24151 -0.525,0.0832 -0.525,-0.0832 -0.474,-0.24151 -0.376,-0.3761 -0.242,-0.47389 -0.083,-0.5253 z"
     id="path380"
     style="fill:none;stroke:#000000;stroke-opacity:1;stroke-width:0.26458333;stroke-dasharray:none" />
  <path
     d="m 389.633,-488.72532 0.242,-0.47389 0.376,-0.3761 0.474,-0.24151 0.525,-0.0832 0.525,0.0832 0.474,0.24151 0.376,0.3761 0.242,0.47389 0.083,0.52531 -0.083,0.5253 -0.242,0.47389 -0.376,0.3761 -0.474,0.24151 -0.525,0.0832 -0.525,-0.0832 -0.474,-0.24151 -0.376,-0.3761 -0.242,-0.47389 -0.083,-0.5253 z"
     id="path378"
     style="fill:none;stroke:#000000;stroke-opacity:1;stroke-width:0.26458333;stroke-dasharray:none" />
  <path
     d="m 397.917,-497.75002 h 11 v 3.10001 h -11 z"
     id="path376"
     style="fill:none;stroke:#000000;stroke-opacity:1;stroke-width:0.26458333;stroke-dasharray:none" />
  <path
     d="m 397.917,-443.75002 h 11 v 3.10001 h -11 z"
     id="path374"
     style="fill:none;stroke:#000000;stroke-opacity:1;stroke-width:0.26458333;stroke-dasharray:none" />
  <path
     d="m 421.2,-461.75002 h 3.1 v 12.10001 h -3.1 z"
     id="path372"
     style="fill:none;stroke:#000000;stroke-opacity:1;stroke-width:0.26458333;stroke-dasharray:none" />
  <path
     d="m 421.2,-488.75002 h 3.1 v 12.10001 h -3.1 z"
     id="path370"
     style="fill:none;stroke:#000000;stroke-opacity:1;stroke-width:0.26458333;stroke-dasharray:none" />
  <path
     d="m 423.583,-497.75002 h 11 v 3.10001 h -11 z"
     id="path368"
     style="fill:none;stroke:#000000;stroke-opacity:1;stroke-width:0.26458333;stroke-dasharray:none" />
  <path
     d="m 423.583,-443.75002 h 11 v 3.10001 h -11 z"
     id="path366"
     style="fill:none;stroke:#000000;stroke-opacity:1;stroke-width:0.26458333;stroke-dasharray:none" />
  <path
     d="m 440.3,-496.72532 0.241,-0.47389 0.376,-0.3761 0.474,-0.24151 0.526,-0.0832 0.525,0.0832 0.474,0.24151 0.376,0.3761 0.241,0.47389 0.084,0.52531 -0.084,0.5253 -0.241,0.47389 -0.376,0.3761 -0.474,0.24151 -0.525,0.0832 -0.526,-0.0832 -0.474,-0.24151 -0.376,-0.3761 -0.241,-0.47389 -0.083,-0.5253 z"
     id="path364"
     style="fill:none;stroke:#000000;stroke-opacity:1;stroke-width:0.26458333;stroke-dasharray:none" />
  <path
     d="m 440.3,-442.72532 0.241,-0.47389 0.376,-0.3761 0.474,-0.24151 0.526,-0.0832 0.525,0.0832 0.474,0.24151 0.376,0.3761 0.241,0.47389 0.084,0.52531 -0.084,0.5253 -0.241,0.47389 -0.376,0.3761 -0.474,0.24151 -0.525,0.0832 -0.526,-0.0832 -0.474,-0.24151 -0.376,-0.3761 -0.241,-0.47389 -0.083,-0.5253 z"
     id="path362"
     style="fill:none;stroke:#000000;stroke-opacity:1;stroke-width:0.26458333;stroke-dasharray:none" />
  <path
     d="m 453.25,-436.70001 v -65 h -228 v 65 z"
     id="path360"
     style="fill:none;stroke:#000000;stroke-opacity:1;stroke-width:0.26458333;stroke-dasharray:none" />
  <path
     d="m 464.385,-423.29982 0.39,-0.76659 0.609,-0.60841 0.766,-0.3906 0.85,-0.13459 0.85,0.13459 0.766,0.3906 0.609,0.60841 0.39,0.76659 0.135,0.84981 -0.135,0.8498 -0.39,0.7666 -0.609,0.6084 -0.766,0.3906 -0.85,0.1346 -0.85,-0.1346 -0.766,-0.3906 -0.609,-0.6084 -0.39,-0.7666 -0.135,-0.8498 z"
     id="path358"
     style="fill:none;stroke:#000000;stroke-opacity:1;stroke-width:0.26458333;stroke-dasharray:none" />
  <path
     d="m 484.135,-423.29982 0.39,-0.76659 0.609,-0.60841 0.766,-0.3906 0.85,-0.13459 0.85,0.13459 0.766,0.3906 0.609,0.60841 0.39,0.76659 0.135,0.84981 -0.135,0.8498 -0.39,0.7666 -0.609,0.6084 -0.766,0.3906 -0.85,0.1346 -0.85,-0.1346 -0.766,-0.3906 -0.609,-0.6084 -0.39,-0.7666 -0.135,-0.8498 z"
     id="path356"
     style="fill:none;stroke:#000000;stroke-opacity:1;stroke-width:0.26458333;stroke-dasharray:none" />
  <path
     d="m 503.885,-423.29982 0.39,-0.76659 0.609,-0.60841 0.766,-0.3906 0.85,-0.13459 0.85,0.13459 0.766,0.3906 0.609,0.60841 0.39,0.76659 0.135,0.84981 -0.135,0.8498 -0.39,0.7666 -0.609,0.6084 -0.766,0.3906 -0.85,0.1346 -0.85,-0.1346 -0.766,-0.3906 -0.609,-0.6084 -0.39,-0.7666 -0.135,-0.8498 z"
     id="path354"
     style="fill:none;stroke:#000000;stroke-opacity:1;stroke-width:0.26458333;stroke-dasharray:none" />
  <path
     d="m 464.385,-472.29982 0.39,-0.76659 0.609,-0.60841 0.766,-0.3906 0.85,-0.13459 0.85,0.13459 0.766,0.3906 0.609,0.60841 0.39,0.76659 0.135,0.84981 -0.135,0.8498 -0.39,0.7666 -0.609,0.6084 -0.766,0.3906 -0.85,0.1346 -0.85,-0.1346 -0.766,-0.3906 -0.609,-0.6084 -0.39,-0.7666 -0.135,-0.8498 z"
     id="path350"
     style="fill:none;stroke:#000000;stroke-opacity:1;stroke-width:0.26458333;stroke-dasharray:none" />
  <path
     d="m 484.135,-472.29982 0.39,-0.76659 0.609,-0.60841 0.766,-0.3906 0.85,-0.13459 0.85,0.13459 0.766,0.3906 0.609,0.60841 0.39,0.76659 0.135,0.84981 -0.135,0.8498 -0.39,0.7666 -0.609,0.6084 -0.766,0.3906 -0.85,0.1346 -0.85,-0.1346 -0.766,-0.3906 -0.609,-0.6084 -0.39,-0.7666 -0.135,-0.8498 z"
     id="path348"
     style="fill:none;stroke:#000000;stroke-opacity:1;stroke-width:0.26458333;stroke-dasharray:none" />
  <path
     d="m 503.885,-472.29982 0.39,-0.76659 0.609,-0.60841 0.766,-0.3906 0.85,-0.13459 0.85,0.13459 0.766,0.3906 0.609,0.60841 0.39,0.76659 0.135,0.84981 -0.135,0.8498 -0.39,0.7666 -0.609,0.6084 -0.766,0.3906 -0.85,0.1346 -0.85,-0.1346 -0.766,-0.3906 -0.609,-0.6084 -0.39,-0.7666 -0.135,-0.8498 z"
     id="path346"
     style="fill:none;stroke:#000000;stroke-opacity:1;stroke-width:0.26458333;stroke-dasharray:none" />
  <metadata
     id="metadata288">
    <rdf:RDF>
      <cc:Work
         rdf:about="">
        <dc:title>OpenSCAD Model</dc:title>
      </cc:Work>
    </rdf:RDF>
  </metadata>
  <rect
     style="fill:none;stroke:#000000;stroke-width:0.264611;stroke-dasharray:none;stroke-opacity:1"
     id="rect1337"
     width="227.98674"
     height="65.000389"
     x="-3.743365"
     y="-315.7002"
     ry="4" />
  <rect
     style="fill:none;stroke:#000000;stroke-width:0.263005;stroke-dasharray:none;stroke-opacity:1"
     id="rect1341"
     width="50.001995"
     height="39.001995"
     x="461.74899"
     y="-505.20102"
     ry="3.9732072" />
  <rect
     style="fill:none;stroke:#000000;stroke-width:0.263005;stroke-dasharray:none;stroke-opacity:1"
     id="rect1341-3"
     width="50.001995"
     height="39.001995"
     x="461.74899"
     y="-456.20102"
     ry="3.9732072" />
</svg>
