<?xml version="1.0" encoding="UTF-8" standalone="no"?>
<svg
   width="271mm"
   height="609mm"
   viewBox="-4 -605 271 609"
   version="1.1"
   id="svg6"
   sodipodi:docname="gallery-laser-cut-processed.svg"
   inkscape:version="1.2.2 (b0a8486541, 2022-12-01)"
   xmlns:inkscape="http://www.inkscape.org/namespaces/inkscape"
   xmlns:sodipodi="http://sodipodi.sourceforge.net/DTD/sodipodi-0.dtd"
   xmlns="http://www.w3.org/2000/svg"
   xmlns:svg="http://www.w3.org/2000/svg"
   xmlns:rdf="http://www.w3.org/1999/02/22-rdf-syntax-ns#"
   xmlns:cc="http://creativecommons.org/ns#"
   xmlns:dc="http://purl.org/dc/elements/1.1/">
  <defs
     id="defs10" />
  <sodipodi:namedview
     id="namedview8"
     pagecolor="#ffffff"
     bordercolor="#000000"
     borderopacity="0.25"
     inkscape:showpageshadow="2"
     inkscape:pageopacity="0.0"
     inkscape:pagecheckerboard="0"
     inkscape:deskcolor="#d1d1d1"
     inkscape:document-units="mm"
     showgrid="true"
     inkscape:zoom="2.5240074"
     inkscape:cx="523.37406"
     inkscape:cy="775.3543"
     inkscape:window-width="2560"
     inkscape:window-height="1403"
     inkscape:window-x="0"
     inkscape:window-y="0"
     inkscape:window-maximized="1"
     inkscape:current-layer="g1318">
    <inkscape:grid
       type="xygrid"
       id="grid410" />
  </sodipodi:namedview>
  <title
     id="title2">OpenSCAD Model</title>
  <g
     id="g1205"
     style="fill:none;stroke:#000000;stroke-width:0.264583;stroke-dasharray:none;stroke-opacity:1"
     transform="rotate(90,307.15322,-387.87529)">
    <circle
       style="fill:none;stroke:#0000ff;stroke-width:0.208441;stroke-dasharray:none;stroke-opacity:1"
       id="path3233"
       cx="106"
       cy="138"
       r="3.4297798"
       transform="rotate(-90)" />
    <path
       d="m 160.353,-110.839 -0.223,-0.114 -0.177,-0.177 -0.114,-0.223 -0.039,-0.247 0.039,-0.247 0.114,-0.223 0.177,-0.177 0.223,-0.114 0.247,-0.039 0.247,0.039 0.223,0.114 0.177,0.177 0.114,0.223 0.039,0.247 -0.039,0.247 -0.114,0.223 -0.177,0.177 -0.223,0.114 -0.247,0.039 z"
       id="path406"
       style="fill:none;stroke:#00ff00;stroke-width:0.264583;stroke-dasharray:none;stroke-opacity:1" />
    <path
       d="m 175.153,-110.839 -0.223,-0.114 -0.177,-0.177 -0.114,-0.223 -0.039,-0.247 0.039,-0.247 0.114,-0.223 0.177,-0.177 0.223,-0.114 0.247,-0.039 0.247,0.039 0.223,0.114 0.177,0.177 0.114,0.223 0.039,0.247 -0.039,0.247 -0.114,0.223 -0.177,0.177 -0.223,0.114 -0.247,0.039 z"
       id="path404"
       style="fill:none;stroke:#00ff00;stroke-width:0.264583;stroke-dasharray:none;stroke-opacity:1" />
    <path
       d="m 175.153,-147.639 -0.223,-0.114 -0.177,-0.177 -0.114,-0.223 -0.039,-0.247 0.039,-0.247 0.114,-0.223 0.177,-0.177 0.223,-0.114 0.247,-0.039 0.247,0.039 0.223,0.114 0.177,0.177 0.114,0.223 0.039,0.247 -0.039,0.247 -0.114,0.223 -0.177,0.177 -0.223,0.114 -0.247,0.039 z"
       id="path402"
       style="fill:none;stroke:#00ff00;stroke-width:0.264583;stroke-dasharray:none;stroke-opacity:1" />
    <path
       d="m 160.353,-147.639 -0.223,-0.114 -0.177,-0.177 -0.114,-0.223 -0.039,-0.247 0.039,-0.247 0.114,-0.223 0.177,-0.177 0.223,-0.114 0.247,-0.039 0.247,0.039 0.223,0.114 0.177,0.177 0.114,0.223 0.039,0.247 -0.039,0.247 -0.114,0.223 -0.177,0.177 -0.223,0.114 -0.247,0.039 z"
       id="path400"
       style="fill:none;stroke:#00ff00;stroke-width:0.264583;stroke-dasharray:none;stroke-opacity:1" />
    <path
       d="m 147.273,-152.264 -0.362,-0.184 -0.288,-0.288 -0.184,-0.362 -0.064,-0.402 0.064,-0.402 0.184,-0.362 0.288,-0.288 0.362,-0.184 0.402,-0.064 0.402,0.064 0.362,0.184 0.288,0.288 0.184,0.362 0.064,0.402 -0.064,0.402 -0.184,0.362 -0.288,0.288 -0.362,0.184 -0.402,0.064 z"
       id="path398"
       style="fill:none;stroke:#00ff00;stroke-width:0.264583;stroke-dasharray:none;stroke-opacity:1" />
    <path
       d="m 127.923,-152.264 -0.362,-0.184 -0.288,-0.288 -0.184,-0.362 -0.064,-0.402 0.064,-0.402 0.184,-0.362 0.288,-0.288 0.362,-0.184 0.402,-0.064 0.402,0.064 0.362,0.184 0.288,0.288 0.184,0.362 0.064,0.402 -0.064,0.402 -0.184,0.362 -0.288,0.288 -0.362,0.184 -0.402,0.064 z"
       id="path396"
       style="fill:none;stroke:#00ff00;stroke-width:0.264583;stroke-dasharray:none;stroke-opacity:1" />
    <path
       d="m 133,-151 v -5 h 10 v 5 z"
       id="path394"
       style="fill:none;stroke:#0000ff;stroke-width:0.264583;stroke-dasharray:none;stroke-opacity:1" />
    <path
       d="m 183,-86.4 h -3 v -8.4 h -2.5 v 1.05 H 175 v -1.05 h -1.95 v -3.4 H 175 v -1.05 h 2.5 v 1.05 h 2.5 v -7.4 h 3 v -6.4 h -3 v -36 h 3 v -6.4 h -3 v -7.4 h -2.5 v 1.05 H 175 v -1.05 h -1.95 v -3.4 H 175 v -1.05 h 2.5 v 1.05 h 2.5 v -8.4 h 3 v -6.4 h -66 v 6.4 h 3 v 8.4 h 2.5 v -1.05 h 2.5 v 1.05 h 1.95 v 3.4 H 125 v 1.05 h -2.5 v -1.05 H 120 v 7.4 h -3 v 6.4 h 3 v 1 h 36 v 34 h -36 v 1 h -3 v 6.4 h 3 v 7.4 h 2.5 v -1.05 h 2.5 v 1.05 h 1.95 v 3.4 H 125 v 1.05 h -2.5 V -94.8 H 120 v 8.4 h -3 v 6.4 h 66 z"
       id="path392"
       style="fill:none;stroke:#000000;stroke-width:0.264583;stroke-dasharray:none;stroke-opacity:1" />
  </g>
  <g
     id="g1184"
     style="fill:none;stroke:#000000;stroke-width:0.264583;stroke-dasharray:none;stroke-opacity:1"
     transform="rotate(90,154.77066,-150.4756)">
    <path
       d="m 20.95,-80 v -6.4 h 3.1 v 6.4 z"
       id="path390"
       style="fill:none;stroke:#0000ff;stroke-width:0.264583;stroke-dasharray:none;stroke-opacity:1" />
    <path
       d="m 21.9747,-94.8832 -0.4739,-0.2415 -0.3761,-0.3761 -0.2415,-0.4739 L 20.8,-96.5 l 0.0832,-0.5253 0.2415,-0.4739 0.3761,-0.3761 0.4739,-0.2415 0.5253,-0.0832 0.5253,0.0832 0.4739,0.2415 0.3761,0.3761 0.2415,0.4739 0.0832,0.5253 -0.0832,0.5253 -0.2415,0.4739 -0.3761,0.3761 -0.4739,0.2415 L 22.5,-94.8 Z"
       id="path388"
       style="fill:none;stroke:#0000ff;stroke-width:0.264583;stroke-dasharray:none;stroke-opacity:1" />
    <path
       d="m 20.95,-105.6 v -6.4 h 3.1 v 6.4 z"
       id="path386"
       style="fill:none;stroke:#0000ff;stroke-width:0.264583;stroke-dasharray:none;stroke-opacity:1" />
    <path
       d="m 20.95,-148 v -6.4 h 3.1 v 6.4 z"
       id="path384"
       style="fill:none;stroke:#0000ff;stroke-width:0.264583;stroke-dasharray:none;stroke-opacity:1" />
    <path
       d="m 21.9747,-161.883 -0.4739,-0.242 -0.3761,-0.376 -0.2415,-0.474 -0.0832,-0.525 0.0832,-0.525 0.2415,-0.474 0.3761,-0.376 0.4739,-0.242 0.5253,-0.083 0.5253,0.083 0.4739,0.242 0.3761,0.376 0.2415,0.474 0.0832,0.525 -0.0832,0.525 -0.2415,0.474 -0.3761,0.376 -0.4739,0.242 -0.5253,0.083 z"
       id="path382"
       style="fill:none;stroke:#0000ff;stroke-width:0.264583;stroke-dasharray:none;stroke-opacity:1" />
    <path
       d="m 20.95,-173.6 v -6.4 h 3.1 v 6.4 z"
       id="path380"
       style="fill:none;stroke:#0000ff;stroke-width:0.264583;stroke-dasharray:none;stroke-opacity:1" />
    <path
       d="m 5,-3.04999 h 6.6667 V 0 h 5 v -3.04999 h 6.6666 V 0 h 5 V -3.04999 H 35 V 0 h 5 v -17.3333 h 3 v -13 h -3 v -17.3334 h 3 v -13 H 40 V -78 h 3 v -13 h -3 v -17.333 h 3 v -13 h -3 v -6.967 h -2.5 v 1.05 H 35 v -1.05 h -1.95 v -3.4 H 35 v -1.05 h 2.5 v 1.05 H 40 v -6.967 h 3 v -13 H 40 V -169 h 3 v -13 h -3 v -17.333 h 3 v -13 h -3 v -17.334 h 3 v -13 H 40 V -260 h -5 v 3.05 H 28.3333 V -260 h -5 v 3.05 H 16.6667 V -260 h -5 v 3.05 H 5 V -260 H 0 v 17.333 h -3.04999 v 13 H 0 v 17.334 h -3.04999 v 13 H 0 V -182 h -3.04999 v 13 H 0 v 17.333 h -3.04999 v 13 H 0 v 6.967 h 2.5 v -1.05 H 5 v 1.05 h 1.95 v 3.4 H 5 v 1.05 H 2.5 v -1.05 H 0 v 6.967 h -3.04999 v 13 H 0 V -91 h -3.04999 v 13 H 0 v 17.3333 h -3.04999 v 13 H 0 v 17.3334 h -3.04999 v 13 H 0 V 0 h 5 z"
       id="path378"
       style="fill:none;stroke:#000000;stroke-width:0.264583;stroke-dasharray:none;stroke-opacity:1" />
  </g>
  <g
     id="g1194"
     style="fill:none;stroke:#000000;stroke-width:0.264583;stroke-dasharray:none;stroke-opacity:1"
     transform="rotate(90,202.88618,-199.39854)">
    <path
       d="m 69.95,-80 v -6.4 h 3.1 v 6.4 z"
       id="path376"
       style="fill:none;stroke:#00ff00;stroke-width:0.264583;stroke-dasharray:none;stroke-opacity:1" />
    <path
       d="m 70.9747,-94.8832 -0.4739,-0.2415 -0.3761,-0.3761 -0.2415,-0.4739 L 69.8,-96.5 l 0.0832,-0.5253 0.2415,-0.4739 0.3761,-0.3761 0.4739,-0.2415 0.5253,-0.0832 0.5253,0.0832 0.4739,0.2415 0.3761,0.3761 0.2415,0.4739 0.0832,0.5253 -0.0832,0.5253 -0.2415,0.4739 -0.3761,0.3761 -0.4739,0.2415 L 71.5,-94.8 Z"
       id="path374"
       style="fill:none;stroke:#00ff00;stroke-width:0.264583;stroke-dasharray:none;stroke-opacity:1" />
    <path
       d="m 69.95,-105.6 v -6.4 h 3.1 v 6.4 z"
       id="path372"
       style="fill:none;stroke:#00ff00;stroke-width:0.264583;stroke-dasharray:none;stroke-opacity:1" />
    <path
       d="m 69.95,-148 v -6.4 h 3.1 v 6.4 z"
       id="path368"
       style="fill:none;stroke:#00ff00;stroke-width:0.264583;stroke-dasharray:none;stroke-opacity:1" />
    <path
       d="m 70.9747,-161.883 -0.4739,-0.242 -0.3761,-0.376 -0.2415,-0.474 -0.0832,-0.525 0.0832,-0.525 0.2415,-0.474 0.3761,-0.376 0.4739,-0.242 0.5253,-0.083 0.5253,0.083 0.4739,0.242 0.3761,0.376 0.2415,0.474 0.0832,0.525 -0.0832,0.525 -0.2415,0.474 -0.3761,0.376 -0.4739,0.242 -0.5253,0.083 z"
       id="path366"
       style="fill:none;stroke:#00ff00;stroke-width:0.264583;stroke-dasharray:none;stroke-opacity:1" />
    <path
       d="m 69.95,-173.6 v -6.4 h 3.1 v 6.4 z"
       id="path364"
       style="fill:none;stroke:#00ff00;stroke-width:0.264583;stroke-dasharray:none;stroke-opacity:1" />
    <path
       d="m 54,-3.04999 h 6.6667 V 0 h 5 v -3.04999 h 6.6666 V 0 h 5 V -3.04999 H 84 V 0 h 5 v -17.3333 h 3 v -13 h -3 v -17.3334 h 3 v -13 H 89 V -78 h 3 v -13 h -3 v -17.333 h 3 v -13 h -3 v -6.967 h -2.5 v 1.05 H 84 v -1.05 h -1.95 v -3.4 H 84 v -1.05 h 2.5 v 1.05 H 89 v -6.967 h 3 v -13 H 89 V -169 h 3 v -13 h -3 v -17.333 h 3 v -13 h -3 v -17.334 h 3 v -13 H 89 V -260 h -5 v 3.05 H 77.3333 V -260 h -5 v 3.05 H 65.6667 V -260 h -5 v 3.05 H 54 V -260 h -5 v 17.333 h -3.05 v 13 H 49 v 17.334 h -3.05 v 13 H 49 v 6.966 h 2.5 v -1.05 H 54 v 1.05 h 1.95 v 3.4 H 54 v 1.05 h -2.5 v -1.05 H 49 V -182 h -3.05 v 13 H 49 v 17.333 h -3.05 v 13 H 49 v 17.334 h -3.05 v 13 H 49 V -91 h -3.05 v 13 H 49 v 6.9667 h 2.5 v -1.05 H 54 v 1.05 h 1.95 v 3.4 H 54 v 1.05 h -2.5 v -1.05 H 49 v 6.9666 h -3.05 v 13 H 49 v 17.3334 h -3.05 v 13 H 49 V 0 h 5 z"
       id="path362"
       style="fill:none;stroke:#000000;stroke-width:0.264583;stroke-dasharray:none;stroke-opacity:1" />
    <circle
       style="fill:none;stroke:#0000ff;stroke-width:0.211561;stroke-dasharray:none;stroke-opacity:1"
       id="path4745"
       cx="130"
       cy="68"
       transform="rotate(-90)"
       r="10.403219" />
  </g>
  <g
     id="g1216"
     style="fill:none;stroke:#000000;stroke-width:0.264583;stroke-dasharray:none;stroke-opacity:1"
     transform="rotate(-90,135.13267,-126.31223)">
    <path
       d="m 205.455,-7.24471 -1.394,-0.7102 -1.106,-1.10616 -0.71,-1.39383 L 202,-12 l 0.245,-1.5451 0.71,-1.3938 1.106,-1.1062 1.394,-0.7102 L 207,-17 l 1.545,0.2447 1.394,0.7102 1.106,1.1062 0.71,1.3938 L 212,-12 l -0.245,1.5451 -0.71,1.39383 -1.106,1.10616 -1.394,0.7102 L 207,-7 Z"
       id="path360"
       style="fill:none;stroke:#ff0000;stroke-width:0.264583;stroke-dasharray:none;stroke-opacity:1" />
    <path
       d="m 251.455,-7.24471 -1.394,-0.7102 -1.106,-1.10616 -0.71,-1.39383 L 248,-12 l 0.245,-1.5451 0.71,-1.3938 1.106,-1.1062 1.394,-0.7102 L 253,-17 l 1.545,0.2447 1.394,0.7102 1.106,1.1062 0.71,1.3938 L 258,-12 l -0.245,1.5451 -0.71,1.39383 -1.106,1.10616 -1.394,0.7102 L 253,-7 Z"
       id="path358"
       style="fill:none;stroke:#ff0000;stroke-width:0.264583;stroke-dasharray:none;stroke-opacity:1" />
    <path
       d="m 251.455,-243.245 -1.394,-0.71 -1.106,-1.106 -0.71,-1.394 L 248,-248 l 0.245,-1.545 0.71,-1.394 1.106,-1.106 1.394,-0.71 1.545,-0.245 1.545,0.245 1.394,0.71 1.106,1.106 0.71,1.394 0.245,1.545 -0.245,1.545 -0.71,1.394 -1.106,1.106 -1.394,0.71 L 253,-243 Z"
       id="path348"
       style="fill:none;stroke:#ff0000;stroke-width:0.264583;stroke-dasharray:none;stroke-opacity:1" />
    <path
       d="m 205.455,-243.245 -1.394,-0.71 -1.106,-1.106 -0.71,-1.394 L 202,-248 l 0.245,-1.545 0.71,-1.394 1.106,-1.106 1.394,-0.71 1.545,-0.245 1.545,0.245 1.394,0.71 1.106,1.106 0.71,1.394 0.245,1.545 -0.245,1.545 -0.71,1.394 -1.106,1.106 -1.394,0.71 L 207,-243 Z"
       id="path346"
       style="fill:none;stroke:#ff0000;stroke-width:0.264583;stroke-dasharray:none;stroke-opacity:1" />
    <path
       d="M 267,-264 H 193 V 4 h 74 z"
       id="path344"
       style="fill:none;stroke:#000000;stroke-width:0.264583;stroke-dasharray:none;stroke-opacity:1" />
    <rect
       style="fill:none;stroke:#0000ff;stroke-width:0.2735;stroke-dasharray:none;stroke-opacity:1"
       id="rect1372"
       width="42.187099"
       height="17.7265"
       x="-151.09355"
       y="-256.86325"
       transform="rotate(90)"
       ry="8.8632498" />
    <rect
       style="fill:none;stroke:#0000ff;stroke-width:0.27076;stroke-dasharray:none;stroke-opacity:1"
       id="rect1458"
       width="37.99424"
       height="26.99424"
       x="-235.99712"
       y="-243.49712"
       transform="rotate(90)"
       ry="13.49712" />
    <rect
       style="fill:none;stroke:#0000ff;stroke-width:0.27076;stroke-dasharray:none;stroke-opacity:1"
       id="rect1458-3"
       width="37.99424"
       height="26.99424"
       x="-61.99712"
       y="-243.49712"
       transform="rotate(90)"
       ry="13.49712" />
  </g>
  <g
     id="g446"
     style="fill:none;stroke:#000000;stroke-width:0.264583;stroke-dasharray:none;stroke-opacity:1"
     transform="rotate(90,124.01461,-391.14941)">
    <path
       d="m 34.4,-268.95 v -3.1 h 6 v 3.1 z"
       id="path342"
       style="fill:none;stroke:#00ff00;stroke-width:0.264583;stroke-dasharray:none;stroke-opacity:1" />
    <path
       d="m 47.6,-268.95 v -3.1 h 6 v 3.1 z"
       id="path340"
       style="fill:none;stroke:#00ff00;stroke-width:0.264583;stroke-dasharray:none;stroke-opacity:1" />
    <path
       d="m 21.2,-268.95 v -3.1 h 6 v 3.1 z"
       id="path338"
       style="fill:none;stroke:#00ff00;stroke-width:0.264583;stroke-dasharray:none;stroke-opacity:1" />
    <path
       d="m 60.8,-268.95 v -3.1 h 6 v 3.1 z"
       id="path336"
       style="fill:none;stroke:#00ff00;stroke-width:0.264583;stroke-dasharray:none;stroke-opacity:1" />
    <path
       d="m 43.4747,-268.883 -0.4739,-0.242 -0.3761,-0.376 -0.2415,-0.474 -0.0832,-0.525 0.0832,-0.525 0.2415,-0.474 0.3761,-0.376 0.4739,-0.242 0.5253,-0.083 0.5253,0.083 0.4739,0.242 0.3761,0.376 0.2415,0.474 0.0832,0.525 -0.0832,0.525 -0.2415,0.474 -0.3761,0.376 -0.4739,0.242 L 44,-268.8 Z"
       id="path334"
       style="fill:none;stroke:#00ff00;stroke-width:0.264583;stroke-dasharray:none;stroke-opacity:1" />
    <path
       d="m 10.95,-286.333 v -13 h 3.1 v 13 z"
       id="path332"
       style="fill:none;stroke:#00ff00;stroke-width:0.264583;stroke-dasharray:none;stroke-opacity:1" />
    <path
       d="m 73.95,-286.333 v -13 h 3.1 v 13 z"
       id="path330"
       style="fill:none;stroke:#00ff00;stroke-width:0.264583;stroke-dasharray:none;stroke-opacity:1" />
    <path
       d="m 10.95,-316.667 v -13 h 3.1 v 13 z"
       id="path328"
       style="fill:none;stroke:#00ff00;stroke-width:0.264583;stroke-dasharray:none;stroke-opacity:1" />
    <path
       d="m 73.95,-316.667 v -13 h 3.1 v 13 z"
       id="path326"
       style="fill:none;stroke:#00ff00;stroke-width:0.264583;stroke-dasharray:none;stroke-opacity:1" />
    <path
       d="m 11.9747,-336.717 -0.4739,-0.241 -0.3761,-0.376 -0.2415,-0.474 -0.0832,-0.525 0.0832,-0.526 0.2415,-0.474 0.3761,-0.376 0.4739,-0.241 0.5253,-0.083 0.5253,0.083 0.4739,0.241 0.3761,0.376 0.2415,0.474 0.0832,0.526 -0.0832,0.525 -0.2415,0.474 -0.3761,0.376 -0.4739,0.241 -0.5253,0.084 z"
       id="path324"
       style="fill:none;stroke:#00ff00;stroke-width:0.264583;stroke-dasharray:none;stroke-opacity:1" />
    <path
       d="m 10.95,-347 v -13 h 3.1 v 13 z"
       id="path322"
       style="fill:none;stroke:#00ff00;stroke-width:0.264583;stroke-dasharray:none;stroke-opacity:1" />
    <path
       d="m 73.95,-347 v -13 h 3.1 v 13 z"
       id="path320"
       style="fill:none;stroke:#00ff00;stroke-width:0.264583;stroke-dasharray:none;stroke-opacity:1" />
    <path
       d="m 73.95,-377.333 v -13 h 3.1 v 13 z"
       id="path318"
       style="fill:none;stroke:#00ff00;stroke-width:0.264583;stroke-dasharray:none;stroke-opacity:1" />
    <path
       d="m 10.95,-377.333 v -13 h 3.1 v 13 z"
       id="path316"
       style="fill:none;stroke:#00ff00;stroke-width:0.264583;stroke-dasharray:none;stroke-opacity:1" />
    <path
       d="m 74.9747,-397.383 -0.4739,-0.242 -0.3761,-0.376 -0.2415,-0.474 L 73.8,-399 l 0.0832,-0.525 0.2415,-0.474 0.3761,-0.376 0.4739,-0.242 0.5253,-0.083 0.5253,0.083 0.4739,0.242 0.3761,0.376 0.2415,0.474 0.0832,0.525 -0.0832,0.525 -0.2415,0.474 -0.3761,0.376 -0.4739,0.242 -0.5253,0.083 z"
       id="path314"
       style="fill:none;stroke:#00ff00;stroke-width:0.264583;stroke-dasharray:none;stroke-opacity:1" />
    <path
       d="m 62.6137,-409.311 -0.3484,-0.178 -0.2766,-0.276 -0.1775,-0.349 -0.0612,-0.386 0.0612,-0.386 0.1775,-0.349 0.2766,-0.276 0.3484,-0.178 0.3863,-0.061 0.3863,0.061 0.3484,0.178 0.2766,0.276 0.1775,0.349 0.0612,0.386 -0.0612,0.386 -0.1775,0.349 -0.2766,0.276 -0.3484,0.178 L 63,-409.25 Z"
       id="path312"
       style="fill:none;stroke:#00ff00;stroke-width:0.264583;stroke-dasharray:none;stroke-opacity:1" />
    <path
       d="m 24.6137,-409.311 -0.3484,-0.178 -0.2766,-0.276 -0.1775,-0.349 -0.0612,-0.386 0.0612,-0.386 0.1775,-0.349 0.2766,-0.276 0.3484,-0.178 0.3863,-0.061 0.3863,0.061 0.3484,0.178 0.2766,0.276 0.1775,0.349 0.0612,0.386 -0.0612,0.386 -0.1775,0.349 -0.2766,0.276 -0.3484,0.178 L 25,-409.25 Z"
       id="path310"
       style="fill:none;stroke:#00ff00;stroke-width:0.264583;stroke-dasharray:none;stroke-opacity:1" />
    <path
       d="m 73.95,-407.667 v -13 h 3.1 v 13 z"
       id="path308"
       style="fill:none;stroke:#00ff00;stroke-width:0.264583;stroke-dasharray:none;stroke-opacity:1" />
    <path
       d="m 10.95,-407.667 v -13 h 3.1 v 13 z"
       id="path306"
       style="fill:none;stroke:#00ff00;stroke-width:0.264583;stroke-dasharray:none;stroke-opacity:1" />
    <path
       d="m 73.95,-438 v -13 h 3.1 v 13 z"
       id="path304"
       style="fill:none;stroke:#00ff00;stroke-width:0.264583;stroke-dasharray:none;stroke-opacity:1" />
    <path
       d="m 10.95,-438 v -13 h 3.1 v 13 z"
       id="path302"
       style="fill:none;stroke:#00ff00;stroke-width:0.264583;stroke-dasharray:none;stroke-opacity:1" />
    <path
       d="m 11.9747,-458.05 -0.4739,-0.241 -0.3761,-0.376 -0.2415,-0.474 -0.0832,-0.526 0.0832,-0.525 0.2415,-0.474 0.3761,-0.376 0.4739,-0.241 0.5253,-0.084 0.5253,0.084 0.4739,0.241 0.3761,0.376 0.2415,0.474 0.0832,0.525 -0.0832,0.526 -0.2415,0.474 -0.3761,0.376 -0.4739,0.241 -0.5253,0.083 z"
       id="path300"
       style="fill:none;stroke:#00ff00;stroke-width:0.264583;stroke-dasharray:none;stroke-opacity:1" />
    <path
       d="m 10.95,-468.333 v -13 h 3.1 v 13 z"
       id="path298"
       style="fill:none;stroke:#00ff00;stroke-width:0.264583;stroke-dasharray:none;stroke-opacity:1" />
    <path
       d="m 73.95,-468.333 v -13 h 3.1 v 13 z"
       id="path296"
       style="fill:none;stroke:#00ff00;stroke-width:0.264583;stroke-dasharray:none;stroke-opacity:1" />
    <path
       d="m 73.95,-498.667 v -13 h 3.1 v 13 z"
       id="path294"
       style="fill:none;stroke:#00ff00;stroke-width:0.264583;stroke-dasharray:none;stroke-opacity:1" />
    <path
       d="m 10.95,-498.667 v -13 h 3.1 v 13 z"
       id="path292"
       style="fill:none;stroke:#00ff00;stroke-width:0.264583;stroke-dasharray:none;stroke-opacity:1" />
    <path
       d="m 62.6137,-513.311 -0.3484,-0.178 -0.2766,-0.276 -0.1775,-0.349 -0.0612,-0.386 0.0612,-0.386 0.1775,-0.349 0.2766,-0.276 0.3484,-0.178 0.3863,-0.061 0.3863,0.061 0.3484,0.178 0.2766,0.276 0.1775,0.349 0.0612,0.386 -0.0612,0.386 -0.1775,0.349 -0.2766,0.276 -0.3484,0.178 L 63,-513.25 Z"
       id="path290"
       style="fill:none;stroke:#00ff00;stroke-width:0.264583;stroke-dasharray:none;stroke-opacity:1" />
    <path
       d="m 24.6137,-513.311 -0.3484,-0.178 -0.2766,-0.276 -0.1775,-0.349 -0.0612,-0.386 0.0612,-0.386 0.1775,-0.349 0.2766,-0.276 0.3484,-0.178 0.3863,-0.061 0.3863,0.061 0.3484,0.178 0.2766,0.276 0.1775,0.349 0.0612,0.386 -0.0612,0.386 -0.1775,0.349 -0.2766,0.276 -0.3484,0.178 L 25,-513.25 Z"
       id="path288"
       style="fill:none;stroke:#00ff00;stroke-width:0.264583;stroke-dasharray:none;stroke-opacity:1" />
    <path
       d="m 60.8,-525.95 v -3.1 h 6 v 3.1 z"
       id="path286"
       style="fill:none;stroke:#00ff00;stroke-width:0.264583;stroke-dasharray:none;stroke-opacity:1" />
    <path
       d="m 34.4,-525.95 v -3.1 h 6 v 3.1 z"
       id="path284"
       style="fill:none;stroke:#00ff00;stroke-width:0.264583;stroke-dasharray:none;stroke-opacity:1" />
    <path
       d="m 21.2,-525.95 v -3.1 h 6 v 3.1 z"
       id="path282"
       style="fill:none;stroke:#00ff00;stroke-width:0.264583;stroke-dasharray:none;stroke-opacity:1" />
    <path
       d="m 47.6,-525.95 v -3.1 h 6 v 3.1 z"
       id="path280"
       style="fill:none;stroke:#00ff00;stroke-width:0.264583;stroke-dasharray:none;stroke-opacity:1" />
    <path
       d="m 43.4747,-525.883 -0.4739,-0.242 -0.3761,-0.376 -0.2415,-0.474 -0.0832,-0.525 0.0832,-0.525 0.2415,-0.474 0.3761,-0.376 0.4739,-0.242 0.5253,-0.083 0.5253,0.083 0.1311,0.067 0.3428,0.175 0.3761,0.376 0.2415,0.474 0.0832,0.525 -0.0832,0.525 -0.2415,0.474 -0.3761,0.376 -0.3428,0.175 -0.1311,0.067 L 44,-525.8 Z"
       id="path278"
       style="fill:none;stroke:#00ff00;stroke-width:0.264583;stroke-dasharray:none;stroke-opacity:1" />
    <path
       d="M 81,-533 H 7 v 268 h 74 z"
       id="path276"
       style="fill:none;stroke:#000000;stroke-width:0.264583;stroke-dasharray:none;stroke-opacity:1" />
  </g>
  <g
     id="g1318">
    <path
       d="m 2.00369,-405.51953 h 3.1 v 6 h -3.1 z"
       id="path274"
       style="fill:none;stroke:#00ff00;stroke-width:0.264583;stroke-dasharray:none;stroke-opacity:1" />
    <path
       d="m 2.00369,-379.11953 h 3.1 v 6 h -3.1 z"
       id="path272"
       style="fill:none;stroke:#00ff00;stroke-width:0.264583;stroke-dasharray:none;stroke-opacity:1" />
    <path
       d="m 2.00369,-392.31953 h 3.1 v 6 h -3.1 z"
       id="path270"
       style="fill:none;stroke:#00ff00;stroke-width:0.264583;stroke-dasharray:none;stroke-opacity:1" />
    <path
       d="m 2.00369,-418.71953 h 3.1 v 6 h -3.1 z"
       id="path268"
       style="fill:none;stroke:#00ff00;stroke-width:0.264583;stroke-dasharray:none;stroke-opacity:1" />
    <path
       d="m 1.93669,-396.44453 0.242,-0.474 0.376,-0.376 0.474,-0.242 0.525,-0.083 0.525,0.083 0.474,0.242 0.376,0.376 0.242,0.474 0.083,0.525 -0.083,0.525 -0.242,0.474 -0.376,0.376 -0.474,0.242 -0.525,0.083 -0.525,-0.083 -0.474,-0.242 -0.376,-0.376 -0.242,-0.474 -0.083,-0.525 z"
       id="path266"
       style="fill:none;stroke:#00ff00;stroke-width:0.264583;stroke-dasharray:none;stroke-opacity:1" />
    <path
       d="m 9.11469,-409.55553 0.178,-0.349 0.276,-0.276 0.349,-0.178 0.386,-0.061 0.386,0.061 0.349,0.178 0.276,0.276 0.178,0.349 0.061,0.386 -0.061,0.386 -0.178,0.349 -0.276,0.276 -0.349,0.178 -0.386,0.061 -0.386,-0.061 -0.349,-0.178 -0.276,-0.276 -0.178,-0.349 -0.061,-0.386 z"
       id="path264"
       style="fill:none;stroke:#00ff00;stroke-width:0.264583;stroke-dasharray:none;stroke-opacity:1" />
    <path
       d="m 9.11469,-383.05553 0.178,-0.349 0.276,-0.276 0.349,-0.178 0.386,-0.061 0.386,0.061 0.349,0.178 0.276,0.276 0.178,0.349 0.061,0.386 -0.061,0.386 -0.178,0.349 -0.276,0.276 -0.349,0.178 -0.386,0.061 -0.386,-0.061 -0.349,-0.178 -0.276,-0.276 -0.178,-0.349 -0.061,-0.386 z"
       id="path262"
       style="fill:none;stroke:#00ff00;stroke-width:0.264583;stroke-dasharray:none;stroke-opacity:1" />
    <path
       d="m 9.29869,-374.46453 0.71,-1.394 1.106,-1.106 1.394,-0.71 1.545,-0.245 1.545,0.245 1.394,0.71 1.106,1.106 0.71,1.394 0.245,1.545 -0.245,1.545 -0.71,1.394 -1.106,1.106 -1.394,0.71 -1.545,0.245 -1.545,-0.245 -1.394,-0.71 -1.106,-1.106 -0.71,-1.394 -0.245,-1.545 z"
       id="path260"
       style="fill:none;stroke:#ff0000;stroke-width:0.264583;stroke-dasharray:none;stroke-opacity:1" />
    <path
       d="m 9.29869,-420.46463 0.71,-1.3938 1.106,-1.1062 1.394,-0.7102 1.545,-0.2447 1.545,0.2447 1.394,0.7102 1.106,1.1062 0.71,1.3938 0.245,1.5451 -0.245,1.5451 -0.71,1.3939 -1.106,1.106 -1.394,0.71 -1.545,0.245 -1.545,-0.245 -1.394,-0.71 -1.106,-1.106 -0.71,-1.3939 -0.245,-1.5451 z"
       id="path258"
       style="fill:none;stroke:#ff0000;stroke-width:0.264583;stroke-dasharray:none;stroke-opacity:1" />
    <path
       d="m 19.38669,-428.91953 h 13 v 3 h -13 z"
       id="path256"
       style="fill:none;stroke:#00ff00;stroke-width:0.264583;stroke-dasharray:none;stroke-opacity:1" />
    <path
       d="m 19.38669,-365.91953 h 13 v 3 h -13 z"
       id="path254"
       style="fill:none;stroke:#00ff00;stroke-width:0.264583;stroke-dasharray:none;stroke-opacity:1" />
    <path
       d="m 49.72069,-428.91953 h 13 v 3 h -13 z"
       id="path252"
       style="fill:none;stroke:#00ff00;stroke-width:0.264583;stroke-dasharray:none;stroke-opacity:1" />
    <path
       d="m 49.72069,-365.91953 h 13 v 3 h -13 z"
       id="path250"
       style="fill:none;stroke:#00ff00;stroke-width:0.264583;stroke-dasharray:none;stroke-opacity:1" />
    <path
       d="m 74.11469,-383.05553 0.178,-0.349 0.276,-0.276 0.349,-0.178 0.386,-0.061 0.386,0.061 0.349,0.178 0.276,0.276 0.178,0.349 0.061,0.386 -0.061,0.386 -0.178,0.349 -0.276,0.276 -0.349,0.178 -0.386,0.061 -0.386,-0.061 -0.349,-0.178 -0.276,-0.276 -0.178,-0.349 -0.061,-0.386 z"
       id="path246"
       style="fill:none;stroke:#00ff00;stroke-width:0.264583;stroke-dasharray:none;stroke-opacity:1" />
    <path
       d="m 74.11469,-409.55553 0.178,-0.349 0.276,-0.276 0.349,-0.178 0.386,-0.061 0.386,0.061 0.349,0.178 0.276,0.276 0.178,0.349 0.061,0.386 -0.061,0.386 -0.178,0.349 -0.276,0.276 -0.349,0.178 -0.386,0.061 -0.386,-0.061 -0.349,-0.178 -0.276,-0.276 -0.178,-0.349 -0.061,-0.386 z"
       id="path244"
       style="fill:none;stroke:#00ff00;stroke-width:0.264583;stroke-dasharray:none;stroke-opacity:1" />
    <path
       d="m 80.05369,-428.91953 h 13 v 3 h -13 z"
       id="path242"
       style="fill:none;stroke:#00ff00;stroke-width:0.264583;stroke-dasharray:none;stroke-opacity:1" />
    <path
       d="m 80.05369,-365.91953 h 13 v 3 h -13 z"
       id="path240"
       style="fill:none;stroke:#00ff00;stroke-width:0.264583;stroke-dasharray:none;stroke-opacity:1" />
    <path
       d="m 112.89269,-385.56653 0.114,-0.223 0.177,-0.177 0.223,-0.114 0.247,-0.039 0.247,0.039 0.223,0.114 0.177,0.177 0.114,0.223 0.039,0.247 -0.039,0.247 -0.114,0.223 -0.177,0.177 -0.223,0.114 -0.247,0.039 -0.247,-0.039 -0.223,-0.114 -0.177,-0.177 -0.114,-0.223 -0.039,-0.247 z"
       id="path238"
       style="fill:none;stroke:#00ff00;stroke-width:0.264583;stroke-dasharray:none;stroke-opacity:1" />
    <path
       d="m 112.89269,-370.76653 0.114,-0.223 0.177,-0.177 0.223,-0.114 0.247,-0.039 0.247,0.039 0.223,0.114 0.177,0.177 0.114,0.223 0.039,0.247 -0.039,0.247 -0.114,0.223 -0.177,0.177 -0.223,0.114 -0.247,0.039 -0.247,-0.039 -0.223,-0.114 -0.177,-0.177 -0.114,-0.223 -0.039,-0.247 z"
       id="path236"
       style="fill:none;stroke:#00ff00;stroke-width:0.264583;stroke-dasharray:none;stroke-opacity:1" />
    <path
       d="m 110.38669,-428.91953 h 13 v 3 h -13 z"
       id="path234"
       style="fill:none;stroke:#00ff00;stroke-width:0.264583;stroke-dasharray:none;stroke-opacity:1" />
    <path
       d="m 110.38669,-365.91953 h 13 v 3 h -13 z"
       id="path232"
       style="fill:none;stroke:#00ff00;stroke-width:0.264583;stroke-dasharray:none;stroke-opacity:1" />
    <path
       d="m 130.43669,-427.94483 0.242,-0.4739 0.376,-0.3761 0.474,-0.2415 0.525,-0.0832 0.525,0.0832 0.474,0.2415 0.376,0.3761 0.242,0.4739 0.083,0.5253 -0.083,0.5253 -0.242,0.4739 -0.376,0.3761 -0.474,0.2415 -0.525,0.0832 -0.525,-0.0832 -0.474,-0.2415 -0.376,-0.3761 -0.242,-0.4739 -0.083,-0.5253 z"
       id="path228"
       style="fill:none;stroke:#00ff00;stroke-width:0.264583;stroke-dasharray:none;stroke-opacity:1" />
    <path
       d="m 130.43669,-364.94453 0.242,-0.474 0.376,-0.376 0.474,-0.242 0.525,-0.083 0.525,0.083 0.474,0.242 0.376,0.376 0.242,0.474 0.083,0.525 -0.083,0.525 -0.242,0.474 -0.376,0.376 -0.474,0.242 -0.525,0.083 -0.525,-0.083 -0.474,-0.242 -0.376,-0.376 -0.242,-0.474 -0.083,-0.525 z"
       id="path226"
       style="fill:none;stroke:#00ff00;stroke-width:0.264583;stroke-dasharray:none;stroke-opacity:1" />
    <path
       d="m 149.69269,-370.76653 0.114,-0.223 0.177,-0.177 0.223,-0.114 0.247,-0.039 0.247,0.039 0.223,0.114 0.177,0.177 0.114,0.223 0.039,0.247 -0.039,0.247 -0.114,0.223 -0.177,0.177 -0.223,0.114 -0.247,0.039 -0.247,-0.039 -0.223,-0.114 -0.177,-0.177 -0.114,-0.223 -0.039,-0.247 z"
       id="path222"
       style="fill:none;stroke:#00ff00;stroke-width:0.264583;stroke-dasharray:none;stroke-opacity:1" />
    <path
       d="m 149.69269,-385.56653 0.114,-0.223 0.177,-0.177 0.223,-0.114 0.247,-0.039 0.247,0.039 0.223,0.114 0.177,0.177 0.114,0.223 0.039,0.247 -0.039,0.247 -0.114,0.223 -0.177,0.177 -0.223,0.114 -0.247,0.039 -0.247,-0.039 -0.223,-0.114 -0.177,-0.177 -0.114,-0.223 -0.039,-0.247 z"
       id="path220"
       style="fill:none;stroke:#00ff00;stroke-width:0.264583;stroke-dasharray:none;stroke-opacity:1" />
    <path
       d="m 140.72069,-365.91953 h 13 v 3 h -13 z"
       id="path218"
       style="fill:none;stroke:#00ff00;stroke-width:0.264583;stroke-dasharray:none;stroke-opacity:1" />
    <path
       d="m 140.72069,-428.91953 h 13 v 3 h -13 z"
       id="path216"
       style="fill:none;stroke:#00ff00;stroke-width:0.264583;stroke-dasharray:none;stroke-opacity:1" />
    <path
       d="m 171.05369,-428.91953 h 13 v 3 h -13 z"
       id="path212"
       style="fill:none;stroke:#00ff00;stroke-width:0.264583;stroke-dasharray:none;stroke-opacity:1" />
    <path
       d="m 171.05369,-365.91953 h 13 v 3 h -13 z"
       id="path210"
       style="fill:none;stroke:#00ff00;stroke-width:0.264583;stroke-dasharray:none;stroke-opacity:1" />
    <path
       d="m 187.61469,-383.05553 0.178,-0.349 0.276,-0.276 0.349,-0.178 0.386,-0.061 0.386,0.061 0.349,0.178 0.276,0.276 0.178,0.349 0.061,0.386 -0.061,0.386 -0.178,0.349 -0.276,0.276 -0.349,0.178 -0.386,0.061 -0.386,-0.061 -0.349,-0.178 -0.276,-0.276 -0.178,-0.349 -0.061,-0.386 z"
       id="path208"
       style="fill:none;stroke:#00ff00;stroke-width:0.264583;stroke-dasharray:none;stroke-opacity:1" />
    <path
       d="m 187.61469,-409.55553 0.178,-0.349 0.276,-0.276 0.349,-0.178 0.386,-0.061 0.386,0.061 0.349,0.178 0.276,0.276 0.178,0.349 0.061,0.386 -0.061,0.386 -0.178,0.349 -0.276,0.276 -0.349,0.178 -0.386,0.061 -0.386,-0.061 -0.349,-0.178 -0.276,-0.276 -0.178,-0.349 -0.061,-0.386 z"
       id="path206"
       style="fill:none;stroke:#00ff00;stroke-width:0.264583;stroke-dasharray:none;stroke-opacity:1" />
    <path
       d="m 201.38669,-365.91953 h 13 v 3 h -13 z"
       id="path204"
       style="fill:none;stroke:#00ff00;stroke-width:0.264583;stroke-dasharray:none;stroke-opacity:1" />
    <path
       d="m 201.38669,-428.91953 h 13 v 3 h -13 z"
       id="path202"
       style="fill:none;stroke:#00ff00;stroke-width:0.264583;stroke-dasharray:none;stroke-opacity:1" />
    <path
       d="m 231.72069,-365.91953 h 13 v 3 h -13 z"
       id="path198"
       style="fill:none;stroke:#00ff00;stroke-width:0.264583;stroke-dasharray:none;stroke-opacity:1" />
    <path
       d="m 231.72069,-428.91953 h 13 v 3 h -13 z"
       id="path196"
       style="fill:none;stroke:#00ff00;stroke-width:0.264583;stroke-dasharray:none;stroke-opacity:1" />
    <path
       d="m 245.29869,-420.46463 0.71,-1.3938 1.106,-1.1062 1.394,-0.7102 1.545,-0.2447 1.545,0.2447 1.394,0.7102 1.106,1.1062 0.71,1.3938 0.245,1.5451 -0.245,1.5451 -0.71,1.3939 -1.106,1.106 -1.394,0.71 -1.545,0.245 -1.545,-0.245 -1.394,-0.71 -1.106,-1.106 -0.71,-1.3939 -0.245,-1.5451 z"
       id="path194"
       style="fill:none;stroke:#ff0000;stroke-width:0.264583;stroke-dasharray:none;stroke-opacity:1" />
    <path
       d="m 252.61469,-383.05553 0.178,-0.349 0.276,-0.276 0.349,-0.178 0.386,-0.061 0.386,0.061 0.349,0.178 0.276,0.276 0.178,0.349 0.061,0.386 -0.061,0.386 -0.178,0.349 -0.276,0.276 -0.349,0.178 -0.386,0.061 -0.386,-0.061 -0.349,-0.178 -0.276,-0.276 -0.178,-0.349 -0.061,-0.386 z"
       id="path192"
       style="fill:none;stroke:#00ff00;stroke-width:0.264583;stroke-dasharray:none;stroke-opacity:1" />
    <path
       d="m 245.29869,-374.46453 0.71,-1.394 1.106,-1.106 1.394,-0.71 1.545,-0.245 1.545,0.245 1.394,0.71 1.106,1.106 0.71,1.394 0.245,1.545 -0.245,1.545 -0.71,1.394 -1.106,1.106 -1.394,0.71 -1.545,0.245 -1.545,-0.245 -1.394,-0.71 -1.106,-1.106 -0.71,-1.394 -0.245,-1.545 z"
       id="path190"
       style="fill:none;stroke:#ff0000;stroke-width:0.264583;stroke-dasharray:none;stroke-opacity:1" />
    <path
       d="m 252.61469,-409.55553 0.178,-0.349 0.276,-0.276 0.349,-0.178 0.386,-0.061 0.386,0.061 0.349,0.178 0.276,0.276 0.178,0.349 0.061,0.386 -0.061,0.386 -0.178,0.349 -0.276,0.276 -0.349,0.178 -0.386,0.061 -0.386,-0.061 -0.349,-0.178 -0.276,-0.276 -0.178,-0.349 -0.061,-0.386 z"
       id="path188"
       style="fill:none;stroke:#00ff00;stroke-width:0.264583;stroke-dasharray:none;stroke-opacity:1" />
    <path
       d="m 259.00369,-399.51953 v -6 h 3.1 v 6 z"
       id="path186"
       style="fill:none;stroke:#00ff00;stroke-width:0.264583;stroke-dasharray:none;stroke-opacity:1" />
    <path
       d="m 259.00369,-418.71953 h 3.1 v 6 h -3.1 z"
       id="path184"
       style="fill:none;stroke:#00ff00;stroke-width:0.264583;stroke-dasharray:none;stroke-opacity:1" />
    <path
       d="m 259.00369,-379.11953 h 3.1 v 6 h -3.1 z"
       id="path182"
       style="fill:none;stroke:#00ff00;stroke-width:0.264583;stroke-dasharray:none;stroke-opacity:1" />
    <path
       d="m 259.00369,-392.31953 h 3.1 v 6 h -3.1 z"
       id="path180"
       style="fill:none;stroke:#00ff00;stroke-width:0.264583;stroke-dasharray:none;stroke-opacity:1" />
    <path
       d="m 258.93669,-396.44453 0.242,-0.474 0.376,-0.376 0.474,-0.242 0.525,-0.083 0.525,0.083 0.474,0.242 0.376,0.376 0.242,0.474 0.083,0.525 -0.083,0.525 -0.067,0.131 -0.175,0.343 -0.376,0.376 -0.474,0.242 -0.525,0.083 -0.525,-0.083 -0.474,-0.242 -0.376,-0.376 -0.175,-0.343 -0.067,-0.131 -0.083,-0.525 z"
       id="path178"
       style="fill:none;stroke:#00ff00;stroke-width:0.264583;stroke-dasharray:none;stroke-opacity:1" />
    <path
       d="m 266.05369,-358.91953 v -74 h -268 v 74 z"
       id="path176"
       style="fill:none;stroke:#000000;stroke-width:0.264583;stroke-dasharray:none;stroke-opacity:1" />
    <rect
       style="fill:none;stroke:#0000ff;stroke-width:0.24684;stroke-dasharray:none;stroke-opacity:1"
       id="rect1372-6"
       width="38.02116"
       height="16.02116"
       x="113.04311"
       y="-385.93011"
       ry="8.0105801" />
    <rect
       style="fill:none;stroke:#0000ff;stroke-width:0.27076;stroke-dasharray:none;stroke-opacity:1"
       id="rect1458-7"
       width="37.99424"
       height="26.99424"
       x="26.05657"
       y="-409.41666"
       ry="13.49712" />
    <rect
       style="fill:none;stroke:#0000ff;stroke-width:0.27076;stroke-dasharray:none;stroke-opacity:1"
       id="rect1458-5"
       width="37.99424"
       height="26.99424"
       x="200.05656"
       y="-409.41666"
       ry="13.49712" />
    <rect
       style="fill:none;stroke:#0000ff;stroke-width:0.296885;stroke-dasharray:none;stroke-opacity:1"
       id="rect2711"
       width="79.968117"
       height="27.968115"
       x="92.069633"
       y="-421.90359"
       ry="4" />
  </g>
  <path
     d="m 105.17065,-541.28834 v 5 h -3.05 v 6.6666 h 3.05 v 5 h -3.05 v 6.6667 h 3.05 v 5 h 7.2 v 3.05 h 6 v -3.05 h 7.2 v 3.05 h 6 v -3.05 h 1.9 v -2.5 h -1.05 v -2.5 h 1.05 v -1.95 h 3.4 v 1.95 h 1.05 v 2.5 h -1.05 v 2.5 h 1.9 v 3.05 h 6 v -3.05 h 7.2 v 3.05 h 6 v -3.05 h 7.2 v -5 h 3.05 v -6.6667 h -3.05 v -5 h 3.05 v -6.6666 h -3.05 v -5 h 3.05 v -6.6667 h -3.05 v -5 h -7.2 v -3.05 h -6 v 3.05 h -7.2 v -3.05 h -6 v 3.05 h -1.9 v 2.5 h 1.05 v 2.5 h -1.05 v 1.95 h -3.4 v -1.95 h -1.05 v -2.5 h 1.05 v -2.5 h -1.9 v -3.05 h -6 v 3.05 h -7.2 v -3.05 h -6 v 3.05 h -7.2 v 5 h -3.05 v 6.6667 z"
     id="path174"
     style="fill:none;stroke:#000000;stroke-width:0.264583;stroke-dasharray:none;stroke-opacity:1" />
  <path
     d="m 133.42561,-595.69411 h -1.05 v -2.5 h 1.05 v -2.5 h -1.9 v -3.04998 h -6 v 3.04998 h -7.2 v -3.04998 h -6 v 3.04998 h -7.2 v 5 h -3.05 v 6.6667 h 3.05 v 5 h -3.05 v 6.6666 h 3.05 v 5 h -3.05 v 6.6667 h 3.05 v 5 h 7.2 v 3.05 h 6 v -3.05 h 7.2 v 3.05 h 6 v -3.05 h 1.9 v -2.5 h -1.05 v -2.5 h 1.05 v -1.95 h 3.4 v 1.95 h 1.05 v 2.5 h -1.05 v 2.5 h 1.9 v 3.05 h 6 v -3.05 h 7.2 v 3.05 h 6 v -3.05 h 7.2 v -5 h 3.05 v -6.6667 h -3.05 v -5 h 3.05 v -6.6666 h -3.05 v -5 h 3.05 v -6.6667 h -3.05 v -5 h -7.2 v -3.04998 h -6 v 3.04998 h -7.2 v -3.04998 h -6 v 3.04998 h -1.9 v 2.5 h 1.05 v 2.5 h -1.05 v 1.95 h -3.4 z"
     id="path4"
     style="fill:none;stroke:#000000;stroke-width:0.264583;stroke-dasharray:none;stroke-opacity:1" />
  <metadata
     id="metadata12">
    <rdf:RDF>
      <cc:Work
         rdf:about="">
        <dc:title>OpenSCAD Model</dc:title>
      </cc:Work>
    </rdf:RDF>
  </metadata>
</svg>
