  0
SECTION
  2
HEADER
  9
$ACADVER
  1
AC1014
  9
$HANDSEED
  5
FFFF
  9
$MEASUREMENT
 70
     1
  0
ENDSEC
  0
SECTION
  2
TABLES
  0
TABLE
  2
VPORT
  5
8
330
0
100
AcDbSymbolTable
 70
     4
  0
VPORT
  5
2E
330
8
100
AcDbSymbolTableRecord
100
AcDbViewportTableRecord
  2
*ACTIVE
 70
     0
 10
0.0
 20
0.0
 11
1.0
 21
1.0
 12
210.0
 22
148.5
 13
0.0
 23
0.0
 14
10.0
 24
10.0
 15
10.0
 25
10.0
 16
0.0
 26
0.0
 36
1.0
 17
0.0
 27
0.0
 37
0.0
 40
341.0
 41
1.24
 42
50.0
 43
0.0
 44
0.0
 50
0.0
 51
0.0
 71
     0
 72
   100
 73
     1
 74
     3
 75
     0
 76
     0
 77
     0
 78
     0
  0
ENDTAB
  0
TABLE
  2
LTYPE
  5
5
330
0
100
AcDbSymbolTable
 70
     1
  0
LTYPE
  5
14
330
5
100
AcDbSymbolTableRecord
100
AcDbLinetypeTableRecord
  2
BYBLOCK
 70
     0
  3

 72
    65
 73
     0
 40
0.0
  0
LTYPE
  5
15
330
5
100
AcDbSymbolTableRecord
100
AcDbLinetypeTableRecord
  2
BYLAYER
 70
     0
  3

 72
    65
 73
     0
 40
0.0
  0
LTYPE
  5
16
330
5
100
AcDbSymbolTableRecord
100
AcDbLinetypeTableRecord
  2
CONTINUOUS
 70
     0
  3
Solid line
 72
    65
 73
     0
 40
0.0
  0
ENDTAB
  0
TABLE
  2
LAYER
  5
2
100
AcDbSymbolTable
 70
1
  0
LAYER
  5
50
100
AcDbSymbolTableRecord
100
AcDbLayerTableRecord
  2
0
 70
0
  6
CONTINUOUS
  0
ENDTAB
  0
TABLE
  2
STYLE
  5
3
330
0
100
AcDbSymbolTable
 70
     1
  0
STYLE
  5
11
330
3
100
AcDbSymbolTableRecord
100
AcDbTextStyleTableRecord
  2
STANDARD
 70
     0
 40
0.0
 41
1.0
 50
0.0
 71
     0
 42
2.5
  3
txt
  4

  0
ENDTAB
  0
TABLE
  2
VIEW
  5
6
330
0
100
AcDbSymbolTable
 70
     0
  0
ENDTAB
  0
TABLE
  2
UCS
  5
7
330
0
100
AcDbSymbolTable
 70
     0
  0
ENDTAB
  0
TABLE
  2
APPID
  5
9
330
0
100
AcDbSymbolTable
 70
     2
  0
APPID
  5
12
330
9
100
AcDbSymbolTableRecord
100
AcDbRegAppTableRecord
  2
ACAD
 70
     0
  0
ENDTAB
  0
TABLE
  2
DIMSTYLE
  5
A
330
0
100
AcDbSymbolTable
 70
     1
  0
DIMSTYLE
105
27
330
A
100
AcDbSymbolTableRecord
100
AcDbDimStyleTableRecord
  2
ISO-25
 70
     0
  3

  4

  5

  6

  7

 40
1.0
 41
2.5
 42
0.625
 43
3.75
 44
1.25
 45
0.0
 46
0.0
 47
0.0
 48
0.0
140
2.5
141
2.5
142
0.0
143
0.03937007874016
144
1.0
145
0.0
146
1.0
147
0.625
 71
     0
 72
     0
 73
     0
 74
     0
 75
     0
 76
     0
 77
     1
 78
     8
170
     0
171
     3
172
     1
173
     0
174
     0
175
     0
176
     0
177
     0
178
     0
270
     2
271
     2
272
     2
273
     2
274
     3
340
11
275
     0
280
     0
281
     0
282
     0
283
     0
284
     8
285
     0
286
     0
287
     3
288
     0
  0
ENDTAB
  0
TABLE
  2
BLOCK_RECORD
  5
1
330
0
100
AcDbSymbolTable
 70
     1
  0
BLOCK_RECORD
  5
1F
330
1
100
AcDbSymbolTableRecord
100
AcDbBlockTableRecord
  2
*MODEL_SPACE
  0
BLOCK_RECORD
  5
1B
330
1
100
AcDbSymbolTableRecord
100
AcDbBlockTableRecord
  2
*PAPER_SPACE
  0
ENDTAB
  0
ENDSEC
  0
SECTION
  2
BLOCKS
  0
BLOCK
  5
20
330
1F
100
AcDbEntity
  8
0
100
AcDbBlockBegin
  2
*MODEL_SPACE
 70
     0
 10
0.0
 20
0.0
 30
0.0
  3
*MODEL_SPACE
  1

  0
ENDBLK
  5
21
330
1F
100
AcDbEntity
  8
0
100
AcDbBlockEnd
  0
BLOCK
  5
1C
330
1B
100
AcDbEntity
 67
     1
  8
0
100
AcDbBlockBegin
  2
*PAPER_SPACE
  1

  0
ENDBLK
  5
1D
330
1B
100
AcDbEntity
 67
     1
  8
0
100
AcDbBlockEnd
  0
ENDSEC
  0
SECTION
  2
ENTITIES
  0
LWPOLYLINE
  5
100
100
AcDbEntity
  8
0
 62
7
100
AcDbPolyline
 90
5
 70
1
 10
123.141110
 20
547.102955
 30
0.0
 10
40.141111
 20
547.102955
 30
0.0
 10
40.141111
 20
509.102617
 30
0.0
 10
123.141110
 20
509.102617
 30
0.0
 10
123.141110
 20
547.102955
 30
0.0
  0
LWPOLYLINE
  5
101
100
AcDbEntity
  8
0
 62
7
100
AcDbPolyline
 90
5
 70
1
 10
123.141110
 20
810.673900
 30
0.0
 10
81.141111
 20
810.673900
 30
0.0
 10
81.141111
 20
772.673900
 30
0.0
 10
123.141110
 20
772.673900
 30
0.0
 10
123.141110
 20
810.673900
 30
0.0
  0
LWPOLYLINE
  5
102
100
AcDbEntity
  8
0
 62
1
100
AcDbPolyline
 90
5
 70
1
 10
97.641111
 20
779.673900
 30
0.0
 10
97.641111
 20
783.673900
 30
0.0
 10
106.641110
 20
783.673900
 30
0.0
 10
106.641110
 20
779.673900
 30
0.0
 10
97.641111
 20
779.673900
 30
0.0
  0
LWPOLYLINE
  5
103
100
AcDbEntity
  8
0
 62
7
100
AcDbPolyline
 90
5
 70
1
 10
123.141110
 20
762.673900
 30
0.0
 10
81.141111
 20
762.673900
 30
0.0
 10
81.141111
 20
724.673900
 30
0.0
 10
123.141110
 20
724.673900
 30
0.0
 10
123.141110
 20
762.673900
 30
0.0
  0
LWPOLYLINE
  5
104
100
AcDbEntity
  8
0
 62
5
100
AcDbPolyline
 90
5
 70
1
 10
86.141111
 20
731.673900
 30
0.0
 10
86.141111
 20
755.673900
 30
0.0
 10
118.141110
 20
755.673900
 30
0.0
 10
118.141110
 20
731.673900
 30
0.0
 10
86.141111
 20
731.673900
 30
0.0
  0
LWPOLYLINE
  5
105
100
AcDbEntity
  8
0
 62
7
100
AcDbPolyline
 90
5
 70
1
 10
123.141110
 20
666.673900
 30
0.0
 10
40.141111
 20
666.673900
 30
0.0
 10
40.141111
 20
628.673900
 30
0.0
 10
123.141110
 20
628.673900
 30
0.0
 10
123.141110
 20
666.673900
 30
0.0
  0
LWPOLYLINE
  5
106
100
AcDbEntity
  8
0
 62
5
100
AcDbPolyline
 90
5
 70
1
 10
86.141111
 20
635.673900
 30
0.0
 10
86.141111
 20
659.673900
 30
0.0
 10
118.141110
 20
659.673900
 30
0.0
 10
118.141110
 20
635.673900
 30
0.0
 10
86.141111
 20
635.673900
 30
0.0
  0
LWPOLYLINE
  5
107
100
AcDbEntity
  8
0
 62
5
100
AcDbPolyline
 90
9
 70
1
 10
58.841111
 20
642.173900
 30
0.0
 10
58.841111
 20
659.573900
 30
0.0
 10
67.441111
 20
659.573900
 30
0.0
 10
67.441111
 20
656.573900
 30
0.0
 10
73.141111
 20
656.573900
 30
0.0
 10
73.141111
 20
653.573900
 30
0.0
 10
67.441111
 20
653.573900
 30
0.0
 10
67.441111
 20
642.173900
 30
0.0
 10
58.841111
 20
642.173900
 30
0.0
  0
LWPOLYLINE
  5
108
100
AcDbEntity
  8
0
 62
1
100
AcDbPolyline
 90
5
 70
1
 10
78.141111
 20
642.673900
 30
0.0
 10
78.141111
 20
656.673900
 30
0.0
 10
80.141111
 20
656.673900
 30
0.0
 10
80.141111
 20
642.673900
 30
0.0
 10
78.141111
 20
642.673900
 30
0.0
  0
LWPOLYLINE
  5
109
100
AcDbEntity
  8
0
 62
1
100
AcDbPolyline
 90
5
 70
1
 10
45.141111
 20
642.673900
 30
0.0
 10
45.141111
 20
656.673900
 30
0.0
 10
47.141111
 20
656.673900
 30
0.0
 10
47.141111
 20
642.673900
 30
0.0
 10
45.141111
 20
642.673900
 30
0.0
  0
LWPOLYLINE
  5
10a
100
AcDbEntity
  8
0
 62
7
100
AcDbPolyline
 90
13
 70
1
 10
123.141110
 20
471.354706
 30
0.0
 10
71.141111
 20
471.354706
 30
0.0
 10
71.141111
 20
464.854666
 30
0.0
 10
75.641111
 20
464.854666
 30
0.0
 10
75.641111
 20
440.854514
 30
0.0
 10
50.641111
 20
440.854514
 30
0.0
 10
50.641111
 20
464.854666
 30
0.0
 10
55.141111
 20
464.854666
 30
0.0
 10
55.141111
 20
471.354706
 30
0.0
 10
40.141111
 20
471.354706
 30
0.0
 10
40.141111
 20
433.354482
 30
0.0
 10
123.141110
 20
433.354482
 30
0.0
 10
123.141110
 20
471.354706
 30
0.0
  0
LWPOLYLINE
  5
10b
100
AcDbEntity
  8
0
 62
5
100
AcDbPolyline
 90
5
 70
1
 10
86.141111
 20
440.354504
 30
0.0
 10
86.141111
 20
464.354656
 30
0.0
 10
118.141110
 20
464.354656
 30
0.0
 10
118.141110
 20
440.354504
 30
0.0
 10
86.141111
 20
440.354504
 30
0.0
  0
LWPOLYLINE
  5
10c
100
AcDbEntity
  8
0
 62
1
100
AcDbPolyline
 90
5
 70
1
 10
45.141111
 20
447.354551
 30
0.0
 10
45.141111
 20
461.354639
 30
0.0
 10
47.141111
 20
461.354639
 30
0.0
 10
47.141111
 20
447.354551
 30
0.0
 10
45.141111
 20
447.354551
 30
0.0
  0
LWPOLYLINE
  5
10d
100
AcDbEntity
  8
0
 62
1
100
AcDbPolyline
 90
5
 70
1
 10
78.141111
 20
447.354551
 30
0.0
 10
78.141111
 20
461.354639
 30
0.0
 10
80.141111
 20
461.354639
 30
0.0
 10
80.141111
 20
447.354551
 30
0.0
 10
78.141111
 20
447.354551
 30
0.0
  0
LWPOLYLINE
  5
10e
100
AcDbEntity
  8
0
 62
7
100
AcDbPolyline
 90
13
 70
1
 10
123.141110
 20
423.354473
 30
0.0
 10
71.141111
 20
423.354473
 30
0.0
 10
71.141111
 20
416.854468
 30
0.0
 10
74.141111
 20
416.854468
 30
0.0
 10
74.141111
 20
410.354466
 30
0.0
 10
52.141111
 20
410.354466
 30
0.0
 10
52.141111
 20
416.854468
 30
0.0
 10
55.141111
 20
416.854468
 30
0.0
 10
55.141111
 20
423.354473
 30
0.0
 10
40.141111
 20
423.354473
 30
0.0
 10
40.141111
 20
385.354456
 30
0.0
 10
123.141110
 20
385.354456
 30
0.0
 10
123.141110
 20
423.354473
 30
0.0
  0
LWPOLYLINE
  5
10f
100
AcDbEntity
  8
0
 62
5
100
AcDbPolyline
 90
5
 70
1
 10
86.141111
 20
392.354466
 30
0.0
 10
86.141111
 20
416.354467
 30
0.0
 10
118.141110
 20
416.354467
 30
0.0
 10
118.141110
 20
392.354466
 30
0.0
 10
86.141111
 20
392.354466
 30
0.0
  0
LWPOLYLINE
  5
110
100
AcDbEntity
  8
0
 62
1
100
AcDbPolyline
 90
5
 70
1
 10
45.141111
 20
399.354466
 30
0.0
 10
45.141111
 20
413.354466
 30
0.0
 10
47.141111
 20
413.354466
 30
0.0
 10
47.141111
 20
399.354466
 30
0.0
 10
45.141111
 20
399.354466
 30
0.0
  0
LWPOLYLINE
  5
111
100
AcDbEntity
  8
0
 62
1
100
AcDbPolyline
 90
5
 70
1
 10
78.141111
 20
399.354466
 30
0.0
 10
78.141111
 20
413.354466
 30
0.0
 10
80.141111
 20
413.354466
 30
0.0
 10
80.141111
 20
399.354466
 30
0.0
 10
78.141111
 20
399.354466
 30
0.0
  0
LWPOLYLINE
  5
112
100
AcDbEntity
  8
0
 62
1
100
AcDbPolyline
 90
5
 70
1
 10
67.141111
 20
386.354466
 30
0.0
 10
67.141111
 20
387.354466
 30
0.0
 10
75.141111
 20
387.354466
 30
0.0
 10
75.141111
 20
386.354466
 30
0.0
 10
67.141111
 20
386.354466
 30
0.0
  0
LWPOLYLINE
  5
113
100
AcDbEntity
  8
0
 62
7
100
AcDbPolyline
 90
5
 70
1
 10
123.141110
 20
619.758070
 30
0.0
 10
40.141111
 20
619.758070
 30
0.0
 10
40.141111
 20
581.758670
 30
0.0
 10
123.141110
 20
581.758670
 30
0.0
 10
123.141110
 20
619.758070
 30
0.0
  0
LWPOLYLINE
  5
114
100
AcDbEntity
  8
0
 62
5
100
AcDbPolyline
 90
5
 70
1
 10
86.141111
 20
588.758560
 30
0.0
 10
86.141111
 20
612.758180
 30
0.0
 10
118.141110
 20
612.758180
 30
0.0
 10
118.141110
 20
588.758560
 30
0.0
 10
86.141111
 20
588.758560
 30
0.0
  0
LWPOLYLINE
  5
115
100
AcDbEntity
  8
0
 62
1
100
AcDbPolyline
 90
5
 70
1
 10
45.141111
 20
595.758450
 30
0.0
 10
45.141111
 20
609.758230
 30
0.0
 10
47.141111
 20
609.758230
 30
0.0
 10
47.141111
 20
595.758450
 30
0.0
 10
45.141111
 20
595.758450
 30
0.0
  0
LWPOLYLINE
  5
116
100
AcDbEntity
  8
0
 62
1
100
AcDbPolyline
 90
5
 70
1
 10
78.141111
 20
595.758450
 30
0.0
 10
78.141111
 20
609.758230
 30
0.0
 10
80.141111
 20
609.758230
 30
0.0
 10
80.141111
 20
595.758450
 30
0.0
 10
78.141111
 20
595.758450
 30
0.0
  0
SPLINE
  5
117
100
AcDbEntity
  8
0
 62
3
100
AcDbSpline
 70
8
 71
3
 72
8
 73
4
 74
0
 40
0
 40
0
 40
0
 40
0
 40
1
 40
1
 40
1
 40
1
 10
96.096283
 20
804.682674
 30
0.0
 10
95.689070
 20
804.682674
 30
0.0
 10
95.281858
 20
804.682674
 30
0.0
 10
94.874646
 20
804.682674
 30
0.0
  0
SPLINE
  5
118
100
AcDbEntity
  8
0
 62
3
100
AcDbSpline
 70
8
 71
3
 72
8
 73
4
 74
0
 40
0
 40
0
 40
0
 40
0
 40
1
 40
1
 40
1
 40
1
 10
94.874646
 20
804.682674
 30
0.0
 10
94.874646
 20
804.515655
 30
0.0
 10
94.874646
 20
804.348628
 30
0.0
 10
94.874646
 20
804.181609
 30
0.0
  0
SPLINE
  5
119
100
AcDbEntity
  8
0
 62
3
100
AcDbSpline
 70
8
 71
3
 72
8
 73
4
 74
0
 40
0
 40
0
 40
0
 40
0
 40
1
 40
1
 40
1
 40
1
 10
94.874646
 20
804.181609
 30
0.0
 10
95.097340
 20
804.181609
 30
0.0
 10
95.320034
 20
804.181609
 30
0.0
 10
95.542728
 20
804.181609
 30
0.0
  0
SPLINE
  5
11a
100
AcDbEntity
  8
0
 62
3
100
AcDbSpline
 70
8
 71
3
 72
8
 73
4
 74
0
 40
0
 40
0
 40
0
 40
0
 40
1
 40
1
 40
1
 40
1
 10
95.542728
 20
804.181609
 30
0.0
 10
95.542728
 20
803.963684
 30
0.0
 10
95.542728
 20
803.745767
 30
0.0
 10
95.542728
 20
803.527842
 30
0.0
  0
SPLINE
  5
11b
100
AcDbEntity
  8
0
 62
3
100
AcDbSpline
 70
8
 71
3
 72
8
 73
4
 74
0
 40
0
 40
0
 40
0
 40
0
 40
1
 40
1
 40
1
 40
1
 10
95.542728
 20
803.527842
 30
0.0
 10
95.067061
 20
803.284709
 30
0.0
 10
94.437630
 20
803.396907
 30
0.0
 10
94.089284
 20
803.805752
 30
0.0
  0
SPLINE
  5
11c
100
AcDbEntity
  8
0
 62
3
100
AcDbSpline
 70
8
 71
3
 72
8
 73
4
 74
0
 40
0
 40
0
 40
0
 40
0
 40
1
 40
1
 40
1
 40
1
 10
94.089284
 20
803.805752
 30
0.0
 10
93.749727
 20
804.179790
 30
0.0
 10
93.674212
 20
804.770686
 30
0.0
 10
93.933082
 20
805.209038
 30
0.0
  0
SPLINE
  5
11d
100
AcDbEntity
  8
0
 62
3
100
AcDbSpline
 70
8
 71
3
 72
8
 73
4
 74
0
 40
0
 40
0
 40
0
 40
0
 40
1
 40
1
 40
1
 40
1
 10
93.933082
 20
805.209038
 30
0.0
 10
94.158478
 20
805.625331
 30
0.0
 10
94.639726
 20
805.883218
 30
0.0
 10
95.112040
 20
805.827855
 30
0.0
  0
SPLINE
  5
11e
100
AcDbEntity
  8
0
 62
3
100
AcDbSpline
 70
8
 71
3
 72
8
 73
4
 74
0
 40
0
 40
0
 40
0
 40
0
 40
1
 40
1
 40
1
 40
1
 10
95.112040
 20
805.827855
 30
0.0
 10
95.348654
 20
805.805608
 30
0.0
 10
95.579518
 20
805.713846
 30
0.0
 10
95.762288
 20
805.561122
 30
0.0
  0
SPLINE
  5
11f
100
AcDbEntity
  8
0
 62
3
100
AcDbSpline
 70
8
 71
3
 72
8
 73
4
 74
0
 40
0
 40
0
 40
0
 40
0
 40
1
 40
1
 40
1
 40
1
 10
95.762288
 20
805.561122
 30
0.0
 10
95.762288
 20
805.779047
 30
0.0
 10
95.762288
 20
805.996964
 30
0.0
 10
95.762288
 20
806.214889
 30
0.0
  0
SPLINE
  5
120
100
AcDbEntity
  8
0
 62
3
100
AcDbSpline
 70
8
 71
3
 72
8
 73
4
 74
0
 40
0
 40
0
 40
0
 40
0
 40
1
 40
1
 40
1
 40
1
 10
95.762288
 20
806.214889
 30
0.0
 10
95.072414
 20
806.557180
 30
0.0
 10
94.167948
 20
806.377812
 30
0.0
 10
93.666692
 20
805.790929
 30
0.0
  0
SPLINE
  5
121
100
AcDbEntity
  8
0
 62
3
100
AcDbSpline
 70
8
 71
3
 72
8
 73
4
 74
0
 40
0
 40
0
 40
0
 40
0
 40
1
 40
1
 40
1
 40
1
 10
93.666692
 20
805.790929
 30
0.0
 10
93.180967
 20
805.251999
 30
0.0
 10
93.078769
 20
804.405058
 30
0.0
 10
93.438175
 20
803.771862
 30
0.0
  0
SPLINE
  5
122
100
AcDbEntity
  8
0
 62
3
100
AcDbSpline
 70
8
 71
3
 72
8
 73
4
 74
0
 40
0
 40
0
 40
0
 40
0
 40
1
 40
1
 40
1
 40
1
 10
93.438175
 20
803.771862
 30
0.0
 10
93.690018
 20
803.319951
 30
0.0
 10
94.143365
 20
802.961027
 30
0.0
 10
94.660906
 20
802.883373
 30
0.0
  0
SPLINE
  5
123
100
AcDbEntity
  8
0
 62
3
100
AcDbSpline
 70
8
 71
3
 72
8
 73
4
 74
0
 40
0
 40
0
 40
0
 40
0
 40
1
 40
1
 40
1
 40
1
 10
94.660906
 20
802.883373
 30
0.0
 10
95.159309
 20
802.837676
 30
0.0
 10
95.689955
 20
802.923358
 30
0.0
 10
96.096353
 20
803.232496
 30
0.0
  0
SPLINE
  5
124
100
AcDbEntity
  8
0
 62
3
100
AcDbSpline
 70
8
 71
3
 72
8
 73
4
 74
0
 40
0
 40
0
 40
0
 40
0
 40
1
 40
1
 40
1
 40
1
 10
96.096353
 20
803.232496
 30
0.0
 10
96.096306
 20
803.715868
 30
0.0
 10
96.096447
 20
804.199399
 30
0.0
 10
96.096283
 20
804.682674
 30
0.0
  0
LWPOLYLINE
  5
125
100
AcDbEntity
  8
0
 62
1
100
AcDbPolyline
 90
5
 70
1
 10
67.141111
 20
582.758660
 30
0.0
 10
67.141111
 20
583.758650
 30
0.0
 10
75.141111
 20
583.758650
 30
0.0
 10
75.141111
 20
582.758660
 30
0.0
 10
67.141111
 20
582.758660
 30
0.0
  0
LWPOLYLINE
  5
126
100
AcDbEntity
  8
0
 62
3
100
AcDbPolyline
 90
2
 70
1
 10
96.096283
 20
804.682674
 30
0.0
 10
96.096283
 20
804.682674
 30
0.0
  0
LWPOLYLINE
  5
127
100
AcDbEntity
  8
0
 62
3
100
AcDbPolyline
 90
9
 70
1
 10
103.245957
 20
802.873873
 30
0.0
 10
103.852003
 20
802.873873
 30
0.0
 10
102.315413
 20
806.576954
 30
0.0
 10
100.774053
 20
802.873873
 30
0.0
 10
101.384870
 20
802.873873
 30
0.0
 10
101.685508
 20
803.632622
 30
0.0
 10
102.945320
 20
803.632622
 30
0.0
 10
103.245957
 20
802.873873
 30
0.0
 10
103.245957
 20
802.873873
 30
0.0
  0
SPLINE
  5
128
100
AcDbEntity
  8
0
 62
3
100
AcDbSpline
 70
8
 71
3
 72
8
 73
4
 74
0
 40
0
 40
0
 40
0
 40
0
 40
1
 40
1
 40
1
 40
1
 10
109.881447
 20
802.873873
 30
0.0
 10
110.367059
 20
802.866131
 30
0.0
 10
110.882217
 20
803.109655
 30
0.0
 10
111.088374
 20
803.567827
 30
0.0
  0
SPLINE
  5
129
100
AcDbEntity
  8
0
 62
3
100
AcDbSpline
 70
8
 71
3
 72
8
 73
4
 74
0
 40
0
 40
0
 40
0
 40
0
 40
1
 40
1
 40
1
 40
1
 10
111.088374
 20
803.567827
 30
0.0
 10
111.234995
 20
803.881475
 30
0.0
 10
111.184421
 20
804.231244
 30
0.0
 10
111.193751
 20
804.565681
 30
0.0
  0
SPLINE
  5
12a
100
AcDbEntity
  8
0
 62
3
100
AcDbSpline
 70
8
 71
3
 72
8
 73
4
 74
0
 40
0
 40
0
 40
0
 40
0
 40
1
 40
1
 40
1
 40
1
 10
111.193751
 20
804.565681
 30
0.0
 10
111.193751
 20
805.182026
 30
0.0
 10
111.193751
 20
805.798363
 30
0.0
 10
111.193751
 20
806.414707
 30
0.0
  0
SPLINE
  5
12b
100
AcDbEntity
  8
0
 62
3
100
AcDbSpline
 70
8
 71
3
 72
8
 73
4
 74
0
 40
0
 40
0
 40
0
 40
0
 40
1
 40
1
 40
1
 40
1
 10
111.193751
 20
806.414707
 30
0.0
 10
111.007643
 20
806.414707
 30
0.0
 10
110.821534
 20
806.414707
 30
0.0
 10
110.635426
 20
806.414707
 30
0.0
  0
SPLINE
  5
12c
100
AcDbEntity
  8
0
 62
3
100
AcDbSpline
 70
8
 71
3
 72
8
 73
4
 74
0
 40
0
 40
0
 40
0
 40
0
 40
1
 40
1
 40
1
 40
1
 10
110.635426
 20
806.414707
 30
0.0
 10
110.634148
 20
805.616026
 30
0.0
 10
110.637906
 20
804.817239
 30
0.0
 10
110.633547
 20
804.018633
 30
0.0
  0
SPLINE
  5
12d
100
AcDbEntity
  8
0
 62
3
100
AcDbSpline
 70
8
 71
3
 72
8
 73
4
 74
0
 40
0
 40
0
 40
0
 40
0
 40
1
 40
1
 40
1
 40
1
 10
110.633547
 20
804.018633
 30
0.0
 10
110.631066
 20
803.768232
 30
0.0
 10
110.445291
 20
803.553036
 30
0.0
 10
110.210171
 20
803.482912
 30
0.0
  0
SPLINE
  5
12e
100
AcDbEntity
  8
0
 62
3
100
AcDbSpline
 70
8
 71
3
 72
8
 73
4
 74
0
 40
0
 40
0
 40
0
 40
0
 40
1
 40
1
 40
1
 40
1
 10
110.210171
 20
803.482912
 30
0.0
 10
109.879679
 20
803.369797
 30
0.0
 10
109.451546
 20
803.421431
 30
0.0
 10
109.227868
 20
803.712576
 30
0.0
  0
SPLINE
  5
12f
100
AcDbEntity
  8
0
 62
3
100
AcDbSpline
 70
8
 71
3
 72
8
 73
4
 74
0
 40
0
 40
0
 40
0
 40
0
 40
1
 40
1
 40
1
 40
1
 10
109.227868
 20
803.712576
 30
0.0
 10
109.079015
 20
803.921805
 30
0.0
 10
109.133181
 20
804.184961
 30
0.0
 10
109.122704
 20
804.424554
 30
0.0
  0
SPLINE
  5
130
100
AcDbEntity
  8
0
 62
3
100
AcDbSpline
 70
8
 71
3
 72
8
 73
4
 74
0
 40
0
 40
0
 40
0
 40
0
 40
1
 40
1
 40
1
 40
1
 10
109.122704
 20
804.424554
 30
0.0
 10
109.122704
 20
805.087933
 30
0.0
 10
109.122704
 20
805.751320
 30
0.0
 10
109.122704
 20
806.414707
 30
0.0
  0
SPLINE
  5
131
100
AcDbEntity
  8
0
 62
3
100
AcDbSpline
 70
8
 71
3
 72
8
 73
4
 74
0
 40
0
 40
0
 40
0
 40
0
 40
1
 40
1
 40
1
 40
1
 10
109.122704
 20
806.414707
 30
0.0
 10
108.938186
 20
806.414707
 30
0.0
 10
108.753668
 20
806.414707
 30
0.0
 10
108.569151
 20
806.414707
 30
0.0
  0
SPLINE
  5
132
100
AcDbEntity
  8
0
 62
3
100
AcDbSpline
 70
8
 71
3
 72
8
 73
4
 74
0
 40
0
 40
0
 40
0
 40
0
 40
1
 40
1
 40
1
 40
1
 10
108.569151
 20
806.414707
 30
0.0
 10
108.570353
 20
805.611058
 30
0.0
 10
108.566821
 20
804.807333
 30
0.0
 10
108.570954
 20
804.003736
 30
0.0
  0
SPLINE
  5
133
100
AcDbEntity
  8
0
 62
3
100
AcDbSpline
 70
8
 71
3
 72
8
 73
4
 74
0
 40
0
 40
0
 40
0
 40
0
 40
1
 40
1
 40
1
 40
1
 10
108.570954
 20
804.003736
 30
0.0
 10
108.579545
 20
803.587188
 30
0.0
 10
108.839799
 20
803.195675
 30
0.0
 10
109.217653
 20
803.022094
 30
0.0
  0
SPLINE
  5
134
100
AcDbEntity
  8
0
 62
3
100
AcDbSpline
 70
8
 71
3
 72
8
 73
4
 74
0
 40
0
 40
0
 40
0
 40
0
 40
1
 40
1
 40
1
 40
1
 10
109.217653
 20
803.022094
 30
0.0
 10
109.423128
 20
802.920990
 30
0.0
 10
109.653067
 20
802.873827
 30
0.0
 10
109.881460
 20
802.873873
 30
0.0
  0
LWPOLYLINE
  5
135
100
AcDbEntity
  8
0
 62
3
100
AcDbPolyline
 90
5
 70
1
 10
101.885932
 20
804.128914
 30
0.0
 10
102.315413
 20
805.207384
 30
0.0
 10
102.744895
 20
804.128914
 30
0.0
 10
101.885932
 20
804.128914
 30
0.0
 10
101.885932
 20
804.128914
 30
0.0
  0
LWPOLYLINE
  5
136
100
AcDbEntity
  8
0
 62
3
100
AcDbPolyline
 90
2
 70
1
 10
109.881460
 20
802.873873
 30
0.0
 10
109.881447
 20
802.873873
 30
0.0
  0
LWPOLYLINE
  5
137
100
AcDbEntity
  8
0
 62
3
100
AcDbPolyline
 90
10
 70
1
 10
96.024702
 20
795.076400
 30
0.0
 10
96.024702
 20
798.779481
 30
0.0
 10
95.466376
 20
798.779481
 30
0.0
 10
95.466376
 20
796.507998
 30
0.0
 10
93.242616
 20
798.946500
 30
0.0
 10
93.242616
 20
795.238646
 30
0.0
 10
93.796170
 20
795.238646
 30
0.0
 10
93.796170
 20
797.514894
 30
0.0
 10
96.024702
 20
795.076400
 30
0.0
 10
96.024702
 20
795.076400
 30
0.0
  0
LWPOLYLINE
  5
138
100
AcDbEntity
  8
0
 62
3
100
AcDbPolyline
 90
10
 70
1
 10
103.452347
 20
798.779481
 30
0.0
 10
100.947038
 20
798.779481
 30
0.0
 10
100.947038
 20
798.283188
 30
0.0
 10
101.920529
 20
798.283188
 30
0.0
 10
101.920529
 20
795.238646
 30
0.0
 10
102.478855
 20
795.238646
 30
0.0
 10
102.478855
 20
798.283188
 30
0.0
 10
103.452347
 20
798.283188
 30
0.0
 10
103.452347
 20
798.779481
 30
0.0
 10
103.452347
 20
798.779481
 30
0.0
  0
LWPOLYLINE
  5
139
100
AcDbEntity
  8
0
 62
3
100
AcDbPolyline
 90
11
 70
1
 10
109.394701
 20
798.283188
 30
0.0
 10
110.969466
 20
798.283188
 30
0.0
 10
110.969466
 20
798.779481
 30
0.0
 10
108.841147
 20
798.779481
 30
0.0
 10
108.841147
 20
795.238646
 30
0.0
 10
109.394701
 20
795.238646
 30
0.0
 10
109.394701
 20
796.837272
 30
0.0
 10
110.687918
 20
796.837272
 30
0.0
 10
110.687918
 20
797.338329
 30
0.0
 10
109.394701
 20
797.338329
 30
0.0
 10
109.394701
 20
798.283188
 30
0.0
  0
LWPOLYLINE
  5
13a
100
AcDbEntity
  8
0
 62
3
100
AcDbPolyline
 90
9
 70
1
 10
95.610729
 20
787.603420
 30
0.0
 10
96.216776
 20
787.603420
 30
0.0
 10
94.680186
 20
791.306501
 30
0.0
 10
93.138824
 20
787.603420
 30
0.0
 10
93.749643
 20
787.603420
 30
0.0
 10
94.050280
 20
788.362169
 30
0.0
 10
95.310093
 20
788.362169
 30
0.0
 10
95.610729
 20
787.603420
 30
0.0
 10
95.610729
 20
787.603420
 30
0.0
  0
SPLINE
  5
13b
100
AcDbEntity
  8
0
 62
3
100
AcDbSpline
 70
8
 71
3
 72
8
 73
4
 74
0
 40
0
 40
0
 40
0
 40
0
 40
1
 40
1
 40
1
 40
1
 10
103.657543
 20
788.620064
 30
0.0
 10
103.350655
 20
788.268220
 30
0.0
 10
102.849384
 20
788.038187
 30
0.0
 10
102.382404
 20
788.165417
 30
0.0
  0
SPLINE
  5
13c
100
AcDbEntity
  8
0
 62
3
100
AcDbSpline
 70
8
 71
3
 72
8
 73
4
 74
0
 40
0
 40
0
 40
0
 40
0
 40
1
 40
1
 40
1
 40
1
 10
102.382404
 20
788.165417
 30
0.0
 10
101.824661
 20
788.297675
 30
0.0
 10
101.411610
 20
788.863663
 30
0.0
 10
101.465790
 20
789.436122
 30
0.0
  0
SPLINE
  5
13d
100
AcDbEntity
  8
0
 62
3
100
AcDbSpline
 70
8
 71
3
 72
8
 73
4
 74
0
 40
0
 40
0
 40
0
 40
0
 40
1
 40
1
 40
1
 40
1
 10
101.465790
 20
789.436122
 30
0.0
 10
101.500100
 20
790.028295
 30
0.0
 10
102.023181
 20
790.545911
 30
0.0
 10
102.618674
 20
790.560822
 30
0.0
  0
SPLINE
  5
13e
100
AcDbEntity
  8
0
 62
3
100
AcDbSpline
 70
8
 71
3
 72
8
 73
4
 74
0
 40
0
 40
0
 40
0
 40
0
 40
1
 40
1
 40
1
 40
1
 10
102.618674
 20
790.560822
 30
0.0
 10
102.915724
 20
790.576606
 30
0.0
 10
103.218361
 20
790.480980
 30
0.0
 10
103.447575
 20
790.290271
 30
0.0
  0
SPLINE
  5
13f
100
AcDbEntity
  8
0
 62
3
100
AcDbSpline
 70
8
 71
3
 72
8
 73
4
 74
0
 40
0
 40
0
 40
0
 40
0
 40
1
 40
1
 40
1
 40
1
 10
103.447575
 20
790.290271
 30
0.0
 10
103.447575
 20
790.508196
 30
0.0
 10
103.447575
 20
790.726113
 30
0.0
 10
103.447575
 20
790.944038
 30
0.0
  0
SPLINE
  5
140
100
AcDbEntity
  8
0
 62
3
100
AcDbSpline
 70
8
 71
3
 72
8
 73
4
 74
0
 40
0
 40
0
 40
0
 40
0
 40
1
 40
1
 40
1
 40
1
 10
103.447575
 20
790.944038
 30
0.0
 10
102.778426
 20
791.224074
 30
0.0
 10
101.938999
 20
791.091786
 30
0.0
 10
101.413481
 20
790.583783
 30
0.0
  0
SPLINE
  5
141
100
AcDbEntity
  8
0
 62
3
100
AcDbSpline
 70
8
 71
3
 72
8
 73
4
 74
0
 40
0
 40
0
 40
0
 40
0
 40
1
 40
1
 40
1
 40
1
 10
101.413481
 20
790.583783
 30
0.0
 10
101.012412
 20
790.154195
 30
0.0
 10
100.807315
 20
789.523863
 30
0.0
 10
100.962121
 20
788.946744
 30
0.0
  0
SPLINE
  5
142
100
AcDbEntity
  8
0
 62
3
100
AcDbSpline
 70
8
 71
3
 72
8
 73
4
 74
0
 40
0
 40
0
 40
0
 40
0
 40
1
 40
1
 40
1
 40
1
 10
100.962121
 20
788.946744
 30
0.0
 10
101.069585
 20
788.482341
 30
0.0
 10
101.365533
 20
788.060607
 30
0.0
 10
101.784931
 20
787.827493
 30
0.0
  0
SPLINE
  5
143
100
AcDbEntity
  8
0
 62
3
100
AcDbSpline
 70
8
 71
3
 72
8
 73
4
 74
0
 40
0
 40
0
 40
0
 40
0
 40
1
 40
1
 40
1
 40
1
 10
101.784931
 20
787.827493
 30
0.0
 10
102.222842
 20
787.563758
 30
0.0
 10
102.777173
 20
787.497686
 30
0.0
 10
103.258536
 20
787.679316
 30
0.0
  0
SPLINE
  5
144
100
AcDbEntity
  8
0
 62
3
100
AcDbSpline
 70
8
 71
3
 72
8
 73
4
 74
0
 40
0
 40
0
 40
0
 40
0
 40
1
 40
1
 40
1
 40
1
 10
103.258536
 20
787.679316
 30
0.0
 10
103.382600
 20
787.750792
 30
0.0
 10
103.616416
 20
787.774084
 30
0.0
 10
103.657543
 20
787.913678
 30
0.0
  0
SPLINE
  5
145
100
AcDbEntity
  8
0
 62
3
100
AcDbSpline
 70
8
 71
3
 72
8
 73
4
 74
0
 40
0
 40
0
 40
0
 40
0
 40
1
 40
1
 40
1
 40
1
 10
103.657543
 20
787.913678
 30
0.0
 10
103.657543
 20
788.149137
 30
0.0
 10
103.657543
 20
788.384604
 30
0.0
 10
103.657543
 20
788.620064
 30
0.0
  0
LWPOLYLINE
  5
146
100
AcDbEntity
  8
0
 62
3
100
AcDbPolyline
 90
5
 70
1
 10
94.250705
 20
788.858462
 30
0.0
 10
94.680186
 20
789.936932
 30
0.0
 10
95.109668
 20
788.858462
 30
0.0
 10
94.250705
 20
788.858462
 30
0.0
 10
94.250705
 20
788.858462
 30
0.0
  0
LWPOLYLINE
  5
147
100
AcDbEntity
  8
0
 62
3
100
AcDbPolyline
 90
2
 70
1
 10
103.657543
 20
788.620064
 30
0.0
 10
103.657543
 20
788.620064
 30
0.0
  0
LWPOLYLINE
  5
148
100
AcDbEntity
  8
0
 62
3
100
AcDbPolyline
 90
13
 70
1
 10
109.394701
 20
790.647962
 30
0.0
 10
110.964694
 20
790.647962
 30
0.0
 10
110.964694
 20
791.144255
 30
0.0
 10
108.841147
 20
791.144255
 30
0.0
 10
108.841147
 20
787.603420
 30
0.0
 10
110.964694
 20
787.603420
 30
0.0
 10
110.964694
 20
788.104477
 30
0.0
 10
109.394701
 20
788.104477
 30
0.0
 10
109.394701
 20
789.202045
 30
0.0
 10
110.687918
 20
789.202045
 30
0.0
 10
110.687918
 20
789.703103
 30
0.0
 10
109.394701
 20
789.703103
 30
0.0
 10
109.394701
 20
790.647962
 30
0.0
  0
LWPOLYLINE
  5
149
100
AcDbEntity
  8
0
 62
7
100
AcDbPolyline
 90
5
 70
1
 10
123.141110
 20
714.673900
 30
0.0
 10
40.141111
 20
714.673900
 30
0.0
 10
40.141111
 20
676.673900
 30
0.0
 10
123.141110
 20
676.673900
 30
0.0
 10
123.141110
 20
714.673900
 30
0.0
  0
LWPOLYLINE
  5
14a
100
AcDbEntity
  8
0
 62
5
100
AcDbPolyline
 90
5
 70
1
 10
90.641111
 20
684.173900
 30
0.0
 10
90.641111
 20
707.173900
 30
0.0
 10
113.641110
 20
707.173900
 30
0.0
 10
113.641110
 20
684.173900
 30
0.0
 10
90.641111
 20
684.173900
 30
0.0
  0
SPLINE
  5
14b
100
AcDbEntity
  8
0
 62
1
100
AcDbSpline
 70
8
 71
3
 72
8
 73
4
 74
0
 40
0
 40
0
 40
0
 40
0
 40
1
 40
1
 40
1
 40
1
 10
44.243934
 20
712.173680
 30
0.0
 10
44.243934
 20
711.748583
 30
0.0
 10
44.075066
 20
711.340897
 30
0.0
 10
43.774477
 20
711.040308
 30
0.0
  0
SPLINE
  5
14c
100
AcDbEntity
  8
0
 62
1
100
AcDbSpline
 70
8
 71
3
 72
8
 73
4
 74
0
 40
0
 40
0
 40
0
 40
0
 40
1
 40
1
 40
1
 40
1
 10
43.774477
 20
711.040308
 30
0.0
 10
43.473889
 20
710.739719
 30
0.0
 10
43.066203
 20
710.570850
 30
0.0
 10
42.641106
 20
710.570850
 30
0.0
  0
SPLINE
  5
14d
100
AcDbEntity
  8
0
 62
1
100
AcDbSpline
 70
8
 71
3
 72
8
 73
4
 74
0
 40
0
 40
0
 40
0
 40
0
 40
1
 40
1
 40
1
 40
1
 10
42.641106
 20
710.570850
 30
0.0
 10
42.216009
 20
710.570850
 30
0.0
 10
41.808323
 20
710.739719
 30
0.0
 10
41.507735
 20
711.040308
 30
0.0
  0
SPLINE
  5
14e
100
AcDbEntity
  8
0
 62
1
100
AcDbSpline
 70
8
 71
3
 72
8
 73
4
 74
0
 40
0
 40
0
 40
0
 40
0
 40
1
 40
1
 40
1
 40
1
 10
41.507735
 20
711.040308
 30
0.0
 10
41.207146
 20
711.340897
 30
0.0
 10
41.038278
 20
711.748583
 30
0.0
 10
41.038278
 20
712.173680
 30
0.0
  0
SPLINE
  5
14f
100
AcDbEntity
  8
0
 62
1
100
AcDbSpline
 70
8
 71
3
 72
8
 73
4
 74
0
 40
0
 40
0
 40
0
 40
0
 40
1
 40
1
 40
1
 40
1
 10
41.038278
 20
712.173680
 30
0.0
 10
41.038283
 20
713.058894
 30
0.0
 10
41.755892
 20
713.776500
 30
0.0
 10
42.641106
 20
713.776500
 30
0.0
  0
SPLINE
  5
150
100
AcDbEntity
  8
0
 62
1
100
AcDbSpline
 70
8
 71
3
 72
8
 73
4
 74
0
 40
0
 40
0
 40
0
 40
0
 40
1
 40
1
 40
1
 40
1
 10
42.641106
 20
713.776500
 30
0.0
 10
43.526320
 20
713.776500
 30
0.0
 10
44.243929
 20
713.058894
 30
0.0
 10
44.243934
 20
712.173680
 30
0.0
  0
LWPOLYLINE
  5
151
100
AcDbEntity
  8
0
 62
1
100
AcDbPolyline
 90
5
 70
1
 10
58.841111
 20
690.173900
 30
0.0
 10
58.841111
 20
698.773900
 30
0.0
 10
67.441111
 20
698.773900
 30
0.0
 10
67.441111
 20
690.173900
 30
0.0
 10
58.841111
 20
690.173900
 30
0.0
  0
SPLINE
  5
152
100
AcDbEntity
  8
0
 62
1
100
AcDbSpline
 70
8
 71
3
 72
8
 73
4
 74
0
 40
0
 40
0
 40
0
 40
0
 40
1
 40
1
 40
1
 40
1
 10
44.243934
 20
679.173630
 30
0.0
 10
44.243934
 20
678.748533
 30
0.0
 10
44.075066
 20
678.340847
 30
0.0
 10
43.774477
 20
678.040258
 30
0.0
  0
SPLINE
  5
153
100
AcDbEntity
  8
0
 62
1
100
AcDbSpline
 70
8
 71
3
 72
8
 73
4
 74
0
 40
0
 40
0
 40
0
 40
0
 40
1
 40
1
 40
1
 40
1
 10
43.774477
 20
678.040258
 30
0.0
 10
43.473889
 20
677.739669
 30
0.0
 10
43.066203
 20
677.570800
 30
0.0
 10
42.641106
 20
677.570800
 30
0.0
  0
SPLINE
  5
154
100
AcDbEntity
  8
0
 62
1
100
AcDbSpline
 70
8
 71
3
 72
8
 73
4
 74
0
 40
0
 40
0
 40
0
 40
0
 40
1
 40
1
 40
1
 40
1
 10
42.641106
 20
677.570800
 30
0.0
 10
42.216009
 20
677.570800
 30
0.0
 10
41.808323
 20
677.739669
 30
0.0
 10
41.507735
 20
678.040258
 30
0.0
  0
SPLINE
  5
155
100
AcDbEntity
  8
0
 62
1
100
AcDbSpline
 70
8
 71
3
 72
8
 73
4
 74
0
 40
0
 40
0
 40
0
 40
0
 40
1
 40
1
 40
1
 40
1
 10
41.507735
 20
678.040258
 30
0.0
 10
41.207146
 20
678.340847
 30
0.0
 10
41.038278
 20
678.748533
 30
0.0
 10
41.038278
 20
679.173630
 30
0.0
  0
SPLINE
  5
156
100
AcDbEntity
  8
0
 62
1
100
AcDbSpline
 70
8
 71
3
 72
8
 73
4
 74
0
 40
0
 40
0
 40
0
 40
0
 40
1
 40
1
 40
1
 40
1
 10
41.038278
 20
679.173630
 30
0.0
 10
41.038278
 20
679.598727
 30
0.0
 10
41.207146
 20
680.006413
 30
0.0
 10
41.507735
 20
680.307002
 30
0.0
  0
SPLINE
  5
157
100
AcDbEntity
  8
0
 62
1
100
AcDbSpline
 70
8
 71
3
 72
8
 73
4
 74
0
 40
0
 40
0
 40
0
 40
0
 40
1
 40
1
 40
1
 40
1
 10
41.507735
 20
680.307002
 30
0.0
 10
41.808323
 20
680.607591
 30
0.0
 10
42.216009
 20
680.776460
 30
0.0
 10
42.641106
 20
680.776460
 30
0.0
  0
SPLINE
  5
158
100
AcDbEntity
  8
0
 62
1
100
AcDbSpline
 70
8
 71
3
 72
8
 73
4
 74
0
 40
0
 40
0
 40
0
 40
0
 40
1
 40
1
 40
1
 40
1
 10
42.641106
 20
680.776460
 30
0.0
 10
43.066203
 20
680.776460
 30
0.0
 10
43.473889
 20
680.607591
 30
0.0
 10
43.774477
 20
680.307002
 30
0.0
  0
SPLINE
  5
159
100
AcDbEntity
  8
0
 62
1
100
AcDbSpline
 70
8
 71
3
 72
8
 73
4
 74
0
 40
0
 40
0
 40
0
 40
0
 40
1
 40
1
 40
1
 40
1
 10
43.774477
 20
680.307002
 30
0.0
 10
44.075066
 20
680.006413
 30
0.0
 10
44.243934
 20
679.598727
 30
0.0
 10
44.243934
 20
679.173630
 30
0.0
  0
LWPOLYLINE
  5
15a
100
AcDbEntity
  8
0
 62
1
100
AcDbPolyline
 90
2
 70
1
 10
44.243934
 20
712.173680
 30
0.0
 10
44.243934
 20
712.173680
 30
0.0
  0
SPLINE
  5
15b
100
AcDbEntity
  8
0
 62
1
100
AcDbSpline
 70
8
 71
3
 72
8
 73
4
 74
0
 40
0
 40
0
 40
0
 40
0
 40
1
 40
1
 40
1
 40
1
 10
85.243941
 20
679.173630
 30
0.0
 10
85.243941
 20
678.748533
 30
0.0
 10
85.075073
 20
678.340847
 30
0.0
 10
84.774484
 20
678.040258
 30
0.0
  0
SPLINE
  5
15c
100
AcDbEntity
  8
0
 62
1
100
AcDbSpline
 70
8
 71
3
 72
8
 73
4
 74
0
 40
0
 40
0
 40
0
 40
0
 40
1
 40
1
 40
1
 40
1
 10
84.774484
 20
678.040258
 30
0.0
 10
84.473896
 20
677.739669
 30
0.0
 10
84.066210
 20
677.570800
 30
0.0
 10
83.641113
 20
677.570800
 30
0.0
  0
SPLINE
  5
15d
100
AcDbEntity
  8
0
 62
1
100
AcDbSpline
 70
8
 71
3
 72
8
 73
4
 74
0
 40
0
 40
0
 40
0
 40
0
 40
1
 40
1
 40
1
 40
1
 10
83.641113
 20
677.570800
 30
0.0
 10
83.216016
 20
677.570800
 30
0.0
 10
82.808330
 20
677.739669
 30
0.0
 10
82.507742
 20
678.040258
 30
0.0
  0
SPLINE
  5
15e
100
AcDbEntity
  8
0
 62
1
100
AcDbSpline
 70
8
 71
3
 72
8
 73
4
 74
0
 40
0
 40
0
 40
0
 40
0
 40
1
 40
1
 40
1
 40
1
 10
82.507742
 20
678.040258
 30
0.0
 10
82.207153
 20
678.340847
 30
0.0
 10
82.038285
 20
678.748533
 30
0.0
 10
82.038285
 20
679.173630
 30
0.0
  0
SPLINE
  5
15f
100
AcDbEntity
  8
0
 62
1
100
AcDbSpline
 70
8
 71
3
 72
8
 73
4
 74
0
 40
0
 40
0
 40
0
 40
0
 40
1
 40
1
 40
1
 40
1
 10
82.038285
 20
679.173630
 30
0.0
 10
82.038285
 20
679.598727
 30
0.0
 10
82.207153
 20
680.006413
 30
0.0
 10
82.507742
 20
680.307002
 30
0.0
  0
SPLINE
  5
160
100
AcDbEntity
  8
0
 62
1
100
AcDbSpline
 70
8
 71
3
 72
8
 73
4
 74
0
 40
0
 40
0
 40
0
 40
0
 40
1
 40
1
 40
1
 40
1
 10
82.507742
 20
680.307002
 30
0.0
 10
82.808330
 20
680.607591
 30
0.0
 10
83.216016
 20
680.776460
 30
0.0
 10
83.641113
 20
680.776460
 30
0.0
  0
SPLINE
  5
161
100
AcDbEntity
  8
0
 62
1
100
AcDbSpline
 70
8
 71
3
 72
8
 73
4
 74
0
 40
0
 40
0
 40
0
 40
0
 40
1
 40
1
 40
1
 40
1
 10
83.641113
 20
680.776460
 30
0.0
 10
84.066210
 20
680.776460
 30
0.0
 10
84.473896
 20
680.607591
 30
0.0
 10
84.774484
 20
680.307002
 30
0.0
  0
SPLINE
  5
162
100
AcDbEntity
  8
0
 62
1
100
AcDbSpline
 70
8
 71
3
 72
8
 73
4
 74
0
 40
0
 40
0
 40
0
 40
0
 40
1
 40
1
 40
1
 40
1
 10
84.774484
 20
680.307002
 30
0.0
 10
85.075073
 20
680.006413
 30
0.0
 10
85.243941
 20
679.598727
 30
0.0
 10
85.243941
 20
679.173630
 30
0.0
  0
LWPOLYLINE
  5
163
100
AcDbEntity
  8
0
 62
1
100
AcDbPolyline
 90
2
 70
1
 10
44.243934
 20
679.173630
 30
0.0
 10
44.243934
 20
679.173630
 30
0.0
  0
SPLINE
  5
164
100
AcDbEntity
  8
0
 62
1
100
AcDbSpline
 70
8
 71
3
 72
8
 73
4
 74
0
 40
0
 40
0
 40
0
 40
0
 40
1
 40
1
 40
1
 40
1
 10
85.243941
 20
712.173680
 30
0.0
 10
85.243941
 20
711.748583
 30
0.0
 10
85.075073
 20
711.340897
 30
0.0
 10
84.774484
 20
711.040308
 30
0.0
  0
SPLINE
  5
165
100
AcDbEntity
  8
0
 62
1
100
AcDbSpline
 70
8
 71
3
 72
8
 73
4
 74
0
 40
0
 40
0
 40
0
 40
0
 40
1
 40
1
 40
1
 40
1
 10
84.774484
 20
711.040308
 30
0.0
 10
84.473896
 20
710.739719
 30
0.0
 10
84.066210
 20
710.570850
 30
0.0
 10
83.641113
 20
710.570850
 30
0.0
  0
SPLINE
  5
166
100
AcDbEntity
  8
0
 62
1
100
AcDbSpline
 70
8
 71
3
 72
8
 73
4
 74
0
 40
0
 40
0
 40
0
 40
0
 40
1
 40
1
 40
1
 40
1
 10
83.641113
 20
710.570850
 30
0.0
 10
83.216016
 20
710.570850
 30
0.0
 10
82.808330
 20
710.739719
 30
0.0
 10
82.507742
 20
711.040308
 30
0.0
  0
SPLINE
  5
167
100
AcDbEntity
  8
0
 62
1
100
AcDbSpline
 70
8
 71
3
 72
8
 73
4
 74
0
 40
0
 40
0
 40
0
 40
0
 40
1
 40
1
 40
1
 40
1
 10
82.507742
 20
711.040308
 30
0.0
 10
82.207153
 20
711.340897
 30
0.0
 10
82.038285
 20
711.748583
 30
0.0
 10
82.038285
 20
712.173680
 30
0.0
  0
SPLINE
  5
168
100
AcDbEntity
  8
0
 62
1
100
AcDbSpline
 70
8
 71
3
 72
8
 73
4
 74
0
 40
0
 40
0
 40
0
 40
0
 40
1
 40
1
 40
1
 40
1
 10
82.038285
 20
712.173680
 30
0.0
 10
82.038290
 20
713.058894
 30
0.0
 10
82.755899
 20
713.776500
 30
0.0
 10
83.641113
 20
713.776500
 30
0.0
  0
SPLINE
  5
169
100
AcDbEntity
  8
0
 62
1
100
AcDbSpline
 70
8
 71
3
 72
8
 73
4
 74
0
 40
0
 40
0
 40
0
 40
0
 40
1
 40
1
 40
1
 40
1
 10
83.641113
 20
713.776500
 30
0.0
 10
84.526327
 20
713.776500
 30
0.0
 10
85.243936
 20
713.058894
 30
0.0
 10
85.243941
 20
712.173680
 30
0.0
  0
LWPOLYLINE
  5
16a
100
AcDbEntity
  8
0
 62
1
100
AcDbPolyline
 90
2
 70
1
 10
85.243941
 20
679.173630
 30
0.0
 10
85.243941
 20
679.173630
 30
0.0
  0
SPLINE
  5
16b
100
AcDbEntity
  8
0
 62
1
100
AcDbSpline
 70
8
 71
3
 72
8
 73
4
 74
0
 40
0
 40
0
 40
0
 40
0
 40
1
 40
1
 40
1
 40
1
 10
122.243940
 20
712.173680
 30
0.0
 10
122.243940
 20
711.748583
 30
0.0
 10
122.075071
 20
711.340897
 30
0.0
 10
121.774482
 20
711.040307
 30
0.0
  0
SPLINE
  5
16c
100
AcDbEntity
  8
0
 62
1
100
AcDbSpline
 70
8
 71
3
 72
8
 73
4
 74
0
 40
0
 40
0
 40
0
 40
0
 40
1
 40
1
 40
1
 40
1
 10
121.774482
 20
711.040307
 30
0.0
 10
121.473893
 20
710.739718
 30
0.0
 10
121.066207
 20
710.570849
 30
0.0
 10
120.641110
 20
710.570850
 30
0.0
  0
SPLINE
  5
16d
100
AcDbEntity
  8
0
 62
1
100
AcDbSpline
 70
8
 71
3
 72
8
 73
4
 74
0
 40
0
 40
0
 40
0
 40
0
 40
1
 40
1
 40
1
 40
1
 10
120.641110
 20
710.570850
 30
0.0
 10
119.755895
 20
710.570854
 30
0.0
 10
119.038289
 20
711.288465
 30
0.0
 10
119.038290
 20
712.173680
 30
0.0
  0
SPLINE
  5
16e
100
AcDbEntity
  8
0
 62
1
100
AcDbSpline
 70
8
 71
3
 72
8
 73
4
 74
0
 40
0
 40
0
 40
0
 40
0
 40
1
 40
1
 40
1
 40
1
 10
119.038290
 20
712.173680
 30
0.0
 10
119.038295
 20
713.058891
 30
0.0
 10
119.755899
 20
713.776496
 30
0.0
 10
120.641110
 20
713.776500
 30
0.0
  0
SPLINE
  5
16f
100
AcDbEntity
  8
0
 62
1
100
AcDbSpline
 70
8
 71
3
 72
8
 73
4
 74
0
 40
0
 40
0
 40
0
 40
0
 40
1
 40
1
 40
1
 40
1
 10
120.641110
 20
713.776500
 30
0.0
 10
121.526325
 20
713.776501
 30
0.0
 10
122.243935
 20
713.058895
 30
0.0
 10
122.243940
 20
712.173680
 30
0.0
  0
LWPOLYLINE
  5
170
100
AcDbEntity
  8
0
 62
1
100
AcDbPolyline
 90
2
 70
1
 10
85.243941
 20
712.173680
 30
0.0
 10
85.243941
 20
712.173680
 30
0.0
  0
SPLINE
  5
171
100
AcDbEntity
  8
0
 62
1
100
AcDbSpline
 70
8
 71
3
 72
8
 73
4
 74
0
 40
0
 40
0
 40
0
 40
0
 40
1
 40
1
 40
1
 40
1
 10
122.243940
 20
679.173630
 30
0.0
 10
122.243940
 20
678.748533
 30
0.0
 10
122.075071
 20
678.340847
 30
0.0
 10
121.774482
 20
678.040257
 30
0.0
  0
SPLINE
  5
172
100
AcDbEntity
  8
0
 62
1
100
AcDbSpline
 70
8
 71
3
 72
8
 73
4
 74
0
 40
0
 40
0
 40
0
 40
0
 40
1
 40
1
 40
1
 40
1
 10
121.774482
 20
678.040257
 30
0.0
 10
121.473893
 20
677.739668
 30
0.0
 10
121.066207
 20
677.570799
 30
0.0
 10
120.641110
 20
677.570800
 30
0.0
  0
SPLINE
  5
173
100
AcDbEntity
  8
0
 62
1
100
AcDbSpline
 70
8
 71
3
 72
8
 73
4
 74
0
 40
0
 40
0
 40
0
 40
0
 40
1
 40
1
 40
1
 40
1
 10
120.641110
 20
677.570800
 30
0.0
 10
119.755895
 20
677.570804
 30
0.0
 10
119.038289
 20
678.288415
 30
0.0
 10
119.038290
 20
679.173630
 30
0.0
  0
SPLINE
  5
174
100
AcDbEntity
  8
0
 62
1
100
AcDbSpline
 70
8
 71
3
 72
8
 73
4
 74
0
 40
0
 40
0
 40
0
 40
0
 40
1
 40
1
 40
1
 40
1
 10
119.038290
 20
679.173630
 30
0.0
 10
119.038289
 20
680.058845
 30
0.0
 10
119.755895
 20
680.776456
 30
0.0
 10
120.641110
 20
680.776460
 30
0.0
  0
SPLINE
  5
175
100
AcDbEntity
  8
0
 62
1
100
AcDbSpline
 70
8
 71
3
 72
8
 73
4
 74
0
 40
0
 40
0
 40
0
 40
0
 40
1
 40
1
 40
1
 40
1
 10
120.641110
 20
680.776460
 30
0.0
 10
121.066207
 20
680.776461
 30
0.0
 10
121.473893
 20
680.607592
 30
0.0
 10
121.774482
 20
680.307003
 30
0.0
  0
SPLINE
  5
176
100
AcDbEntity
  8
0
 62
1
100
AcDbSpline
 70
8
 71
3
 72
8
 73
4
 74
0
 40
0
 40
0
 40
0
 40
0
 40
1
 40
1
 40
1
 40
1
 10
121.774482
 20
680.307003
 30
0.0
 10
122.075071
 20
680.006413
 30
0.0
 10
122.243940
 20
679.598727
 30
0.0
 10
122.243940
 20
679.173630
 30
0.0
  0
LWPOLYLINE
  5
177
100
AcDbEntity
  8
0
 62
1
100
AcDbPolyline
 90
2
 70
1
 10
122.243940
 20
712.173680
 30
0.0
 10
122.243940
 20
712.173680
 30
0.0
  0
SPLINE
  5
178
100
AcDbEntity
  8
0
 62
1
100
AcDbSpline
 70
8
 71
3
 72
8
 73
4
 74
0
 40
0
 40
0
 40
0
 40
0
 40
1
 40
1
 40
1
 40
1
 10
122.243940
 20
664.173630
 30
0.0
 10
122.243940
 20
663.748533
 30
0.0
 10
122.075071
 20
663.340847
 30
0.0
 10
121.774482
 20
663.040257
 30
0.0
  0
SPLINE
  5
179
100
AcDbEntity
  8
0
 62
1
100
AcDbSpline
 70
8
 71
3
 72
8
 73
4
 74
0
 40
0
 40
0
 40
0
 40
0
 40
1
 40
1
 40
1
 40
1
 10
121.774482
 20
663.040257
 30
0.0
 10
121.473893
 20
662.739668
 30
0.0
 10
121.066207
 20
662.570799
 30
0.0
 10
120.641110
 20
662.570800
 30
0.0
  0
SPLINE
  5
17a
100
AcDbEntity
  8
0
 62
1
100
AcDbSpline
 70
8
 71
3
 72
8
 73
4
 74
0
 40
0
 40
0
 40
0
 40
0
 40
1
 40
1
 40
1
 40
1
 10
120.641110
 20
662.570800
 30
0.0
 10
119.755895
 20
662.570804
 30
0.0
 10
119.038289
 20
663.288415
 30
0.0
 10
119.038290
 20
664.173630
 30
0.0
  0
SPLINE
  5
17b
100
AcDbEntity
  8
0
 62
1
100
AcDbSpline
 70
8
 71
3
 72
8
 73
4
 74
0
 40
0
 40
0
 40
0
 40
0
 40
1
 40
1
 40
1
 40
1
 10
119.038290
 20
664.173630
 30
0.0
 10
119.038289
 20
665.058845
 30
0.0
 10
119.755895
 20
665.776456
 30
0.0
 10
120.641110
 20
665.776460
 30
0.0
  0
SPLINE
  5
17c
100
AcDbEntity
  8
0
 62
1
100
AcDbSpline
 70
8
 71
3
 72
8
 73
4
 74
0
 40
0
 40
0
 40
0
 40
0
 40
1
 40
1
 40
1
 40
1
 10
120.641110
 20
665.776460
 30
0.0
 10
121.066207
 20
665.776461
 30
0.0
 10
121.473893
 20
665.607592
 30
0.0
 10
121.774482
 20
665.307003
 30
0.0
  0
SPLINE
  5
17d
100
AcDbEntity
  8
0
 62
1
100
AcDbSpline
 70
8
 71
3
 72
8
 73
4
 74
0
 40
0
 40
0
 40
0
 40
0
 40
1
 40
1
 40
1
 40
1
 10
121.774482
 20
665.307003
 30
0.0
 10
122.075071
 20
665.006413
 30
0.0
 10
122.243940
 20
664.598727
 30
0.0
 10
122.243940
 20
664.173630
 30
0.0
  0
LWPOLYLINE
  5
17e
100
AcDbEntity
  8
0
 62
1
100
AcDbPolyline
 90
2
 70
1
 10
122.243940
 20
679.173630
 30
0.0
 10
122.243940
 20
679.173630
 30
0.0
  0
SPLINE
  5
17f
100
AcDbEntity
  8
0
 62
1
100
AcDbSpline
 70
8
 71
3
 72
8
 73
4
 74
0
 40
0
 40
0
 40
0
 40
0
 40
1
 40
1
 40
1
 40
1
 10
85.243941
 20
664.173630
 30
0.0
 10
85.243941
 20
663.748533
 30
0.0
 10
85.075073
 20
663.340847
 30
0.0
 10
84.774484
 20
663.040258
 30
0.0
  0
SPLINE
  5
180
100
AcDbEntity
  8
0
 62
1
100
AcDbSpline
 70
8
 71
3
 72
8
 73
4
 74
0
 40
0
 40
0
 40
0
 40
0
 40
1
 40
1
 40
1
 40
1
 10
84.774484
 20
663.040258
 30
0.0
 10
84.473896
 20
662.739669
 30
0.0
 10
84.066210
 20
662.570800
 30
0.0
 10
83.641113
 20
662.570800
 30
0.0
  0
SPLINE
  5
181
100
AcDbEntity
  8
0
 62
1
100
AcDbSpline
 70
8
 71
3
 72
8
 73
4
 74
0
 40
0
 40
0
 40
0
 40
0
 40
1
 40
1
 40
1
 40
1
 10
83.641113
 20
662.570800
 30
0.0
 10
83.216016
 20
662.570800
 30
0.0
 10
82.808330
 20
662.739669
 30
0.0
 10
82.507742
 20
663.040258
 30
0.0
  0
SPLINE
  5
182
100
AcDbEntity
  8
0
 62
1
100
AcDbSpline
 70
8
 71
3
 72
8
 73
4
 74
0
 40
0
 40
0
 40
0
 40
0
 40
1
 40
1
 40
1
 40
1
 10
82.507742
 20
663.040258
 30
0.0
 10
82.207153
 20
663.340847
 30
0.0
 10
82.038285
 20
663.748533
 30
0.0
 10
82.038285
 20
664.173630
 30
0.0
  0
SPLINE
  5
183
100
AcDbEntity
  8
0
 62
1
100
AcDbSpline
 70
8
 71
3
 72
8
 73
4
 74
0
 40
0
 40
0
 40
0
 40
0
 40
1
 40
1
 40
1
 40
1
 10
82.038285
 20
664.173630
 30
0.0
 10
82.038285
 20
664.598727
 30
0.0
 10
82.207153
 20
665.006413
 30
0.0
 10
82.507742
 20
665.307002
 30
0.0
  0
SPLINE
  5
184
100
AcDbEntity
  8
0
 62
1
100
AcDbSpline
 70
8
 71
3
 72
8
 73
4
 74
0
 40
0
 40
0
 40
0
 40
0
 40
1
 40
1
 40
1
 40
1
 10
82.507742
 20
665.307002
 30
0.0
 10
82.808330
 20
665.607591
 30
0.0
 10
83.216016
 20
665.776460
 30
0.0
 10
83.641113
 20
665.776460
 30
0.0
  0
SPLINE
  5
185
100
AcDbEntity
  8
0
 62
1
100
AcDbSpline
 70
8
 71
3
 72
8
 73
4
 74
0
 40
0
 40
0
 40
0
 40
0
 40
1
 40
1
 40
1
 40
1
 10
83.641113
 20
665.776460
 30
0.0
 10
84.066210
 20
665.776460
 30
0.0
 10
84.473896
 20
665.607591
 30
0.0
 10
84.774484
 20
665.307002
 30
0.0
  0
SPLINE
  5
186
100
AcDbEntity
  8
0
 62
1
100
AcDbSpline
 70
8
 71
3
 72
8
 73
4
 74
0
 40
0
 40
0
 40
0
 40
0
 40
1
 40
1
 40
1
 40
1
 10
84.774484
 20
665.307002
 30
0.0
 10
85.075073
 20
665.006413
 30
0.0
 10
85.243941
 20
664.598727
 30
0.0
 10
85.243941
 20
664.173630
 30
0.0
  0
LWPOLYLINE
  5
187
100
AcDbEntity
  8
0
 62
1
100
AcDbPolyline
 90
2
 70
1
 10
122.243940
 20
664.173630
 30
0.0
 10
122.243940
 20
664.173630
 30
0.0
  0
SPLINE
  5
188
100
AcDbEntity
  8
0
 62
1
100
AcDbSpline
 70
8
 71
3
 72
8
 73
4
 74
0
 40
0
 40
0
 40
0
 40
0
 40
1
 40
1
 40
1
 40
1
 10
44.243934
 20
664.173630
 30
0.0
 10
44.243934
 20
663.748533
 30
0.0
 10
44.075066
 20
663.340847
 30
0.0
 10
43.774477
 20
663.040258
 30
0.0
  0
SPLINE
  5
189
100
AcDbEntity
  8
0
 62
1
100
AcDbSpline
 70
8
 71
3
 72
8
 73
4
 74
0
 40
0
 40
0
 40
0
 40
0
 40
1
 40
1
 40
1
 40
1
 10
43.774477
 20
663.040258
 30
0.0
 10
43.473889
 20
662.739669
 30
0.0
 10
43.066203
 20
662.570800
 30
0.0
 10
42.641106
 20
662.570800
 30
0.0
  0
SPLINE
  5
18a
100
AcDbEntity
  8
0
 62
1
100
AcDbSpline
 70
8
 71
3
 72
8
 73
4
 74
0
 40
0
 40
0
 40
0
 40
0
 40
1
 40
1
 40
1
 40
1
 10
42.641106
 20
662.570800
 30
0.0
 10
42.216009
 20
662.570800
 30
0.0
 10
41.808323
 20
662.739669
 30
0.0
 10
41.507735
 20
663.040258
 30
0.0
  0
SPLINE
  5
18b
100
AcDbEntity
  8
0
 62
1
100
AcDbSpline
 70
8
 71
3
 72
8
 73
4
 74
0
 40
0
 40
0
 40
0
 40
0
 40
1
 40
1
 40
1
 40
1
 10
41.507735
 20
663.040258
 30
0.0
 10
41.207146
 20
663.340847
 30
0.0
 10
41.038278
 20
663.748533
 30
0.0
 10
41.038278
 20
664.173630
 30
0.0
  0
SPLINE
  5
18c
100
AcDbEntity
  8
0
 62
1
100
AcDbSpline
 70
8
 71
3
 72
8
 73
4
 74
0
 40
0
 40
0
 40
0
 40
0
 40
1
 40
1
 40
1
 40
1
 10
41.038278
 20
664.173630
 30
0.0
 10
41.038278
 20
664.598727
 30
0.0
 10
41.207146
 20
665.006413
 30
0.0
 10
41.507735
 20
665.307002
 30
0.0
  0
SPLINE
  5
18d
100
AcDbEntity
  8
0
 62
1
100
AcDbSpline
 70
8
 71
3
 72
8
 73
4
 74
0
 40
0
 40
0
 40
0
 40
0
 40
1
 40
1
 40
1
 40
1
 10
41.507735
 20
665.307002
 30
0.0
 10
41.808323
 20
665.607591
 30
0.0
 10
42.216009
 20
665.776460
 30
0.0
 10
42.641106
 20
665.776460
 30
0.0
  0
SPLINE
  5
18e
100
AcDbEntity
  8
0
 62
1
100
AcDbSpline
 70
8
 71
3
 72
8
 73
4
 74
0
 40
0
 40
0
 40
0
 40
0
 40
1
 40
1
 40
1
 40
1
 10
42.641106
 20
665.776460
 30
0.0
 10
43.066203
 20
665.776460
 30
0.0
 10
43.473889
 20
665.607591
 30
0.0
 10
43.774477
 20
665.307002
 30
0.0
  0
SPLINE
  5
18f
100
AcDbEntity
  8
0
 62
1
100
AcDbSpline
 70
8
 71
3
 72
8
 73
4
 74
0
 40
0
 40
0
 40
0
 40
0
 40
1
 40
1
 40
1
 40
1
 10
43.774477
 20
665.307002
 30
0.0
 10
44.075066
 20
665.006413
 30
0.0
 10
44.243934
 20
664.598727
 30
0.0
 10
44.243934
 20
664.173630
 30
0.0
  0
LWPOLYLINE
  5
190
100
AcDbEntity
  8
0
 62
1
100
AcDbPolyline
 90
2
 70
1
 10
85.243941
 20
664.173630
 30
0.0
 10
85.243941
 20
664.173630
 30
0.0
  0
SPLINE
  5
191
100
AcDbEntity
  8
0
 62
1
100
AcDbSpline
 70
8
 71
3
 72
8
 73
4
 74
0
 40
0
 40
0
 40
0
 40
0
 40
1
 40
1
 40
1
 40
1
 10
44.243934
 20
631.173870
 30
0.0
 10
44.243929
 20
630.288656
 30
0.0
 10
43.526320
 20
629.571050
 30
0.0
 10
42.641106
 20
629.571050
 30
0.0
  0
SPLINE
  5
192
100
AcDbEntity
  8
0
 62
1
100
AcDbSpline
 70
8
 71
3
 72
8
 73
4
 74
0
 40
0
 40
0
 40
0
 40
0
 40
1
 40
1
 40
1
 40
1
 10
42.641106
 20
629.571050
 30
0.0
 10
41.755892
 20
629.571050
 30
0.0
 10
41.038283
 20
630.288656
 30
0.0
 10
41.038278
 20
631.173870
 30
0.0
  0
SPLINE
  5
193
100
AcDbEntity
  8
0
 62
1
100
AcDbSpline
 70
8
 71
3
 72
8
 73
4
 74
0
 40
0
 40
0
 40
0
 40
0
 40
1
 40
1
 40
1
 40
1
 10
41.038278
 20
631.173870
 30
0.0
 10
41.038278
 20
631.598967
 30
0.0
 10
41.207146
 20
632.006653
 30
0.0
 10
41.507735
 20
632.307242
 30
0.0
  0
SPLINE
  5
194
100
AcDbEntity
  8
0
 62
1
100
AcDbSpline
 70
8
 71
3
 72
8
 73
4
 74
0
 40
0
 40
0
 40
0
 40
0
 40
1
 40
1
 40
1
 40
1
 10
41.507735
 20
632.307242
 30
0.0
 10
41.808323
 20
632.607831
 30
0.0
 10
42.216009
 20
632.776700
 30
0.0
 10
42.641106
 20
632.776700
 30
0.0
  0
SPLINE
  5
195
100
AcDbEntity
  8
0
 62
1
100
AcDbSpline
 70
8
 71
3
 72
8
 73
4
 74
0
 40
0
 40
0
 40
0
 40
0
 40
1
 40
1
 40
1
 40
1
 10
42.641106
 20
632.776700
 30
0.0
 10
43.066203
 20
632.776700
 30
0.0
 10
43.473889
 20
632.607831
 30
0.0
 10
43.774477
 20
632.307242
 30
0.0
  0
SPLINE
  5
196
100
AcDbEntity
  8
0
 62
1
100
AcDbSpline
 70
8
 71
3
 72
8
 73
4
 74
0
 40
0
 40
0
 40
0
 40
0
 40
1
 40
1
 40
1
 40
1
 10
43.774477
 20
632.307242
 30
0.0
 10
44.075066
 20
632.006653
 30
0.0
 10
44.243934
 20
631.598967
 30
0.0
 10
44.243934
 20
631.173870
 30
0.0
  0
LWPOLYLINE
  5
197
100
AcDbEntity
  8
0
 62
1
100
AcDbPolyline
 90
2
 70
1
 10
44.243934
 20
664.173630
 30
0.0
 10
44.243934
 20
664.173630
 30
0.0
  0
SPLINE
  5
198
100
AcDbEntity
  8
0
 62
1
100
AcDbSpline
 70
8
 71
3
 72
8
 73
4
 74
0
 40
0
 40
0
 40
0
 40
0
 40
1
 40
1
 40
1
 40
1
 10
85.243941
 20
631.173870
 30
0.0
 10
85.243936
 20
630.288656
 30
0.0
 10
84.526327
 20
629.571050
 30
0.0
 10
83.641113
 20
629.571050
 30
0.0
  0
SPLINE
  5
199
100
AcDbEntity
  8
0
 62
1
100
AcDbSpline
 70
8
 71
3
 72
8
 73
4
 74
0
 40
0
 40
0
 40
0
 40
0
 40
1
 40
1
 40
1
 40
1
 10
83.641113
 20
629.571050
 30
0.0
 10
82.755899
 20
629.571050
 30
0.0
 10
82.038290
 20
630.288656
 30
0.0
 10
82.038285
 20
631.173870
 30
0.0
  0
SPLINE
  5
19a
100
AcDbEntity
  8
0
 62
1
100
AcDbSpline
 70
8
 71
3
 72
8
 73
4
 74
0
 40
0
 40
0
 40
0
 40
0
 40
1
 40
1
 40
1
 40
1
 10
82.038285
 20
631.173870
 30
0.0
 10
82.038285
 20
631.598967
 30
0.0
 10
82.207153
 20
632.006653
 30
0.0
 10
82.507742
 20
632.307242
 30
0.0
  0
SPLINE
  5
19b
100
AcDbEntity
  8
0
 62
1
100
AcDbSpline
 70
8
 71
3
 72
8
 73
4
 74
0
 40
0
 40
0
 40
0
 40
0
 40
1
 40
1
 40
1
 40
1
 10
82.507742
 20
632.307242
 30
0.0
 10
82.808330
 20
632.607831
 30
0.0
 10
83.216016
 20
632.776700
 30
0.0
 10
83.641113
 20
632.776700
 30
0.0
  0
SPLINE
  5
19c
100
AcDbEntity
  8
0
 62
1
100
AcDbSpline
 70
8
 71
3
 72
8
 73
4
 74
0
 40
0
 40
0
 40
0
 40
0
 40
1
 40
1
 40
1
 40
1
 10
83.641113
 20
632.776700
 30
0.0
 10
84.066210
 20
632.776700
 30
0.0
 10
84.473896
 20
632.607831
 30
0.0
 10
84.774484
 20
632.307242
 30
0.0
  0
SPLINE
  5
19d
100
AcDbEntity
  8
0
 62
1
100
AcDbSpline
 70
8
 71
3
 72
8
 73
4
 74
0
 40
0
 40
0
 40
0
 40
0
 40
1
 40
1
 40
1
 40
1
 10
84.774484
 20
632.307242
 30
0.0
 10
85.075073
 20
632.006653
 30
0.0
 10
85.243941
 20
631.598967
 30
0.0
 10
85.243941
 20
631.173870
 30
0.0
  0
LWPOLYLINE
  5
19e
100
AcDbEntity
  8
0
 62
1
100
AcDbPolyline
 90
2
 70
1
 10
44.243934
 20
631.173870
 30
0.0
 10
44.243934
 20
631.173870
 30
0.0
  0
SPLINE
  5
19f
100
AcDbEntity
  8
0
 62
1
100
AcDbSpline
 70
8
 71
3
 72
8
 73
4
 74
0
 40
0
 40
0
 40
0
 40
0
 40
1
 40
1
 40
1
 40
1
 10
122.243940
 20
631.173870
 30
0.0
 10
122.243935
 20
630.288655
 30
0.0
 10
121.526325
 20
629.571049
 30
0.0
 10
120.641110
 20
629.571050
 30
0.0
  0
SPLINE
  5
1a0
100
AcDbEntity
  8
0
 62
1
100
AcDbSpline
 70
8
 71
3
 72
8
 73
4
 74
0
 40
0
 40
0
 40
0
 40
0
 40
1
 40
1
 40
1
 40
1
 10
120.641110
 20
629.571050
 30
0.0
 10
119.755899
 20
629.571054
 30
0.0
 10
119.038295
 20
630.288659
 30
0.0
 10
119.038290
 20
631.173870
 30
0.0
  0
SPLINE
  5
1a1
100
AcDbEntity
  8
0
 62
1
100
AcDbSpline
 70
8
 71
3
 72
8
 73
4
 74
0
 40
0
 40
0
 40
0
 40
0
 40
1
 40
1
 40
1
 40
1
 10
119.038290
 20
631.173870
 30
0.0
 10
119.038289
 20
632.059085
 30
0.0
 10
119.755895
 20
632.776696
 30
0.0
 10
120.641110
 20
632.776700
 30
0.0
  0
SPLINE
  5
1a2
100
AcDbEntity
  8
0
 62
1
100
AcDbSpline
 70
8
 71
3
 72
8
 73
4
 74
0
 40
0
 40
0
 40
0
 40
0
 40
1
 40
1
 40
1
 40
1
 10
120.641110
 20
632.776700
 30
0.0
 10
121.066207
 20
632.776701
 30
0.0
 10
121.473893
 20
632.607832
 30
0.0
 10
121.774482
 20
632.307243
 30
0.0
  0
SPLINE
  5
1a3
100
AcDbEntity
  8
0
 62
1
100
AcDbSpline
 70
8
 71
3
 72
8
 73
4
 74
0
 40
0
 40
0
 40
0
 40
0
 40
1
 40
1
 40
1
 40
1
 10
121.774482
 20
632.307243
 30
0.0
 10
122.075071
 20
632.006653
 30
0.0
 10
122.243940
 20
631.598967
 30
0.0
 10
122.243940
 20
631.173870
 30
0.0
  0
LWPOLYLINE
  5
1a4
100
AcDbEntity
  8
0
 62
1
100
AcDbPolyline
 90
2
 70
1
 10
85.243941
 20
631.173870
 30
0.0
 10
85.243941
 20
631.173870
 30
0.0
  0
SPLINE
  5
1a5
100
AcDbEntity
  8
0
 62
1
100
AcDbSpline
 70
8
 71
3
 72
8
 73
4
 74
0
 40
0
 40
0
 40
0
 40
0
 40
1
 40
1
 40
1
 40
1
 10
122.243940
 20
468.854480
 30
0.0
 10
122.243940
 20
468.429383
 30
0.0
 10
122.075071
 20
468.021697
 30
0.0
 10
121.774482
 20
467.721109
 30
0.0
  0
SPLINE
  5
1a6
100
AcDbEntity
  8
0
 62
1
100
AcDbSpline
 70
8
 71
3
 72
8
 73
4
 74
0
 40
0
 40
0
 40
0
 40
0
 40
1
 40
1
 40
1
 40
1
 10
121.774482
 20
467.721109
 30
0.0
 10
121.473893
 20
467.420520
 30
0.0
 10
121.066207
 20
467.251651
 30
0.0
 10
120.641110
 20
467.251652
 30
0.0
  0
SPLINE
  5
1a7
100
AcDbEntity
  8
0
 62
1
100
AcDbSpline
 70
8
 71
3
 72
8
 73
4
 74
0
 40
0
 40
0
 40
0
 40
0
 40
1
 40
1
 40
1
 40
1
 10
120.641110
 20
467.251652
 30
0.0
 10
119.755896
 20
467.251656
 30
0.0
 10
119.038290
 20
467.969266
 30
0.0
 10
119.038290
 20
468.854480
 30
0.0
  0
SPLINE
  5
1a8
100
AcDbEntity
  8
0
 62
1
100
AcDbSpline
 70
8
 71
3
 72
8
 73
4
 74
0
 40
0
 40
0
 40
0
 40
0
 40
1
 40
1
 40
1
 40
1
 10
119.038290
 20
468.854480
 30
0.0
 10
119.038290
 20
469.739694
 30
0.0
 10
119.755896
 20
470.457304
 30
0.0
 10
120.641110
 20
470.457308
 30
0.0
  0
SPLINE
  5
1a9
100
AcDbEntity
  8
0
 62
1
100
AcDbSpline
 70
8
 71
3
 72
8
 73
4
 74
0
 40
0
 40
0
 40
0
 40
0
 40
1
 40
1
 40
1
 40
1
 10
120.641110
 20
470.457308
 30
0.0
 10
121.066207
 20
470.457309
 30
0.0
 10
121.473893
 20
470.288440
 30
0.0
 10
121.774482
 20
469.987851
 30
0.0
  0
SPLINE
  5
1aa
100
AcDbEntity
  8
0
 62
1
100
AcDbSpline
 70
8
 71
3
 72
8
 73
4
 74
0
 40
0
 40
0
 40
0
 40
0
 40
1
 40
1
 40
1
 40
1
 10
121.774482
 20
469.987851
 30
0.0
 10
122.075071
 20
469.687263
 30
0.0
 10
122.243940
 20
469.279577
 30
0.0
 10
122.243940
 20
468.854480
 30
0.0
  0
LWPOLYLINE
  5
1ab
100
AcDbEntity
  8
0
 62
1
100
AcDbPolyline
 90
2
 70
1
 10
122.243940
 20
631.173870
 30
0.0
 10
122.243940
 20
631.173870
 30
0.0
  0
SPLINE
  5
1ac
100
AcDbEntity
  8
0
 62
1
100
AcDbSpline
 70
8
 71
3
 72
8
 73
4
 74
0
 40
0
 40
0
 40
0
 40
0
 40
1
 40
1
 40
1
 40
1
 10
85.243941
 20
468.854480
 30
0.0
 10
85.243941
 20
467.969263
 30
0.0
 10
84.526330
 20
467.251652
 30
0.0
 10
83.641113
 20
467.251652
 30
0.0
  0
SPLINE
  5
1ad
100
AcDbEntity
  8
0
 62
1
100
AcDbSpline
 70
8
 71
3
 72
8
 73
4
 74
0
 40
0
 40
0
 40
0
 40
0
 40
1
 40
1
 40
1
 40
1
 10
83.641113
 20
467.251652
 30
0.0
 10
82.755896
 20
467.251652
 30
0.0
 10
82.038285
 20
467.969263
 30
0.0
 10
82.038285
 20
468.854480
 30
0.0
  0
SPLINE
  5
1ae
100
AcDbEntity
  8
0
 62
1
100
AcDbSpline
 70
8
 71
3
 72
8
 73
4
 74
0
 40
0
 40
0
 40
0
 40
0
 40
1
 40
1
 40
1
 40
1
 10
82.038285
 20
468.854480
 30
0.0
 10
82.038285
 20
469.739697
 30
0.0
 10
82.755896
 20
470.457308
 30
0.0
 10
83.641113
 20
470.457308
 30
0.0
  0
SPLINE
  5
1af
100
AcDbEntity
  8
0
 62
1
100
AcDbSpline
 70
8
 71
3
 72
8
 73
4
 74
0
 40
0
 40
0
 40
0
 40
0
 40
1
 40
1
 40
1
 40
1
 10
83.641113
 20
470.457308
 30
0.0
 10
84.526330
 20
470.457308
 30
0.0
 10
85.243941
 20
469.739697
 30
0.0
 10
85.243941
 20
468.854480
 30
0.0
  0
LWPOLYLINE
  5
1b0
100
AcDbEntity
  8
0
 62
1
100
AcDbPolyline
 90
2
 70
1
 10
122.243940
 20
468.854480
 30
0.0
 10
122.243940
 20
468.854480
 30
0.0
  0
SPLINE
  5
1b1
100
AcDbEntity
  8
0
 62
1
100
AcDbSpline
 70
8
 71
3
 72
8
 73
4
 74
0
 40
0
 40
0
 40
0
 40
0
 40
1
 40
1
 40
1
 40
1
 10
44.243934
 20
468.854480
 30
0.0
 10
44.243934
 20
467.969263
 30
0.0
 10
43.526323
 20
467.251652
 30
0.0
 10
42.641106
 20
467.251652
 30
0.0
  0
SPLINE
  5
1b2
100
AcDbEntity
  8
0
 62
1
100
AcDbSpline
 70
8
 71
3
 72
8
 73
4
 74
0
 40
0
 40
0
 40
0
 40
0
 40
1
 40
1
 40
1
 40
1
 10
42.641106
 20
467.251652
 30
0.0
 10
41.755889
 20
467.251652
 30
0.0
 10
41.038278
 20
467.969263
 30
0.0
 10
41.038278
 20
468.854480
 30
0.0
  0
SPLINE
  5
1b3
100
AcDbEntity
  8
0
 62
1
100
AcDbSpline
 70
8
 71
3
 72
8
 73
4
 74
0
 40
0
 40
0
 40
0
 40
0
 40
1
 40
1
 40
1
 40
1
 10
41.038278
 20
468.854480
 30
0.0
 10
41.038278
 20
469.739697
 30
0.0
 10
41.755889
 20
470.457308
 30
0.0
 10
42.641106
 20
470.457308
 30
0.0
  0
SPLINE
  5
1b4
100
AcDbEntity
  8
0
 62
1
100
AcDbSpline
 70
8
 71
3
 72
8
 73
4
 74
0
 40
0
 40
0
 40
0
 40
0
 40
1
 40
1
 40
1
 40
1
 10
42.641106
 20
470.457308
 30
0.0
 10
43.526323
 20
470.457308
 30
0.0
 10
44.243934
 20
469.739697
 30
0.0
 10
44.243934
 20
468.854480
 30
0.0
  0
LWPOLYLINE
  5
1b5
100
AcDbEntity
  8
0
 62
1
100
AcDbPolyline
 90
2
 70
1
 10
85.243941
 20
468.854480
 30
0.0
 10
85.243941
 20
468.854480
 30
0.0
  0
SPLINE
  5
1b6
100
AcDbEntity
  8
0
 62
1
100
AcDbSpline
 70
8
 71
3
 72
8
 73
4
 74
0
 40
0
 40
0
 40
0
 40
0
 40
1
 40
1
 40
1
 40
1
 10
44.243934
 20
435.854386
 30
0.0
 10
44.243934
 20
435.429289
 30
0.0
 10
44.075065
 20
435.021604
 30
0.0
 10
43.774477
 20
434.721015
 30
0.0
  0
SPLINE
  5
1b7
100
AcDbEntity
  8
0
 62
1
100
AcDbSpline
 70
8
 71
3
 72
8
 73
4
 74
0
 40
0
 40
0
 40
0
 40
0
 40
1
 40
1
 40
1
 40
1
 10
43.774477
 20
434.721015
 30
0.0
 10
43.473888
 20
434.420426
 30
0.0
 10
43.066203
 20
434.251557
 30
0.0
 10
42.641106
 20
434.251557
 30
0.0
  0
SPLINE
  5
1b8
100
AcDbEntity
  8
0
 62
1
100
AcDbSpline
 70
8
 71
3
 72
8
 73
4
 74
0
 40
0
 40
0
 40
0
 40
0
 40
1
 40
1
 40
1
 40
1
 10
42.641106
 20
434.251557
 30
0.0
 10
42.216009
 20
434.251557
 30
0.0
 10
41.808324
 20
434.420426
 30
0.0
 10
41.507735
 20
434.721015
 30
0.0
  0
SPLINE
  5
1b9
100
AcDbEntity
  8
0
 62
1
100
AcDbSpline
 70
8
 71
3
 72
8
 73
4
 74
0
 40
0
 40
0
 40
0
 40
0
 40
1
 40
1
 40
1
 40
1
 10
41.507735
 20
434.721015
 30
0.0
 10
41.207147
 20
435.021604
 30
0.0
 10
41.038278
 20
435.429289
 30
0.0
 10
41.038278
 20
435.854386
 30
0.0
  0
SPLINE
  5
1ba
100
AcDbEntity
  8
0
 62
1
100
AcDbSpline
 70
8
 71
3
 72
8
 73
4
 74
0
 40
0
 40
0
 40
0
 40
0
 40
1
 40
1
 40
1
 40
1
 10
41.038278
 20
435.854386
 30
0.0
 10
41.038278
 20
436.739603
 30
0.0
 10
41.755889
 20
437.457214
 30
0.0
 10
42.641106
 20
437.457214
 30
0.0
  0
SPLINE
  5
1bb
100
AcDbEntity
  8
0
 62
1
100
AcDbSpline
 70
8
 71
3
 72
8
 73
4
 74
0
 40
0
 40
0
 40
0
 40
0
 40
1
 40
1
 40
1
 40
1
 10
42.641106
 20
437.457214
 30
0.0
 10
43.526323
 20
437.457214
 30
0.0
 10
44.243934
 20
436.739603
 30
0.0
 10
44.243934
 20
435.854386
 30
0.0
  0
LWPOLYLINE
  5
1bc
100
AcDbEntity
  8
0
 62
1
100
AcDbPolyline
 90
2
 70
1
 10
44.243934
 20
468.854480
 30
0.0
 10
44.243934
 20
468.854480
 30
0.0
  0
SPLINE
  5
1bd
100
AcDbEntity
  8
0
 62
1
100
AcDbSpline
 70
8
 71
3
 72
8
 73
4
 74
0
 40
0
 40
0
 40
0
 40
0
 40
1
 40
1
 40
1
 40
1
 10
85.243941
 20
435.854386
 30
0.0
 10
85.243941
 20
435.429289
 30
0.0
 10
85.075072
 20
435.021604
 30
0.0
 10
84.774484
 20
434.721015
 30
0.0
  0
SPLINE
  5
1be
100
AcDbEntity
  8
0
 62
1
100
AcDbSpline
 70
8
 71
3
 72
8
 73
4
 74
0
 40
0
 40
0
 40
0
 40
0
 40
1
 40
1
 40
1
 40
1
 10
84.774484
 20
434.721015
 30
0.0
 10
84.473895
 20
434.420426
 30
0.0
 10
84.066210
 20
434.251557
 30
0.0
 10
83.641113
 20
434.251557
 30
0.0
  0
SPLINE
  5
1bf
100
AcDbEntity
  8
0
 62
1
100
AcDbSpline
 70
8
 71
3
 72
8
 73
4
 74
0
 40
0
 40
0
 40
0
 40
0
 40
1
 40
1
 40
1
 40
1
 10
83.641113
 20
434.251557
 30
0.0
 10
83.216016
 20
434.251557
 30
0.0
 10
82.808331
 20
434.420426
 30
0.0
 10
82.507742
 20
434.721015
 30
0.0
  0
SPLINE
  5
1c0
100
AcDbEntity
  8
0
 62
1
100
AcDbSpline
 70
8
 71
3
 72
8
 73
4
 74
0
 40
0
 40
0
 40
0
 40
0
 40
1
 40
1
 40
1
 40
1
 10
82.507742
 20
434.721015
 30
0.0
 10
82.207154
 20
435.021604
 30
0.0
 10
82.038285
 20
435.429289
 30
0.0
 10
82.038285
 20
435.854386
 30
0.0
  0
SPLINE
  5
1c1
100
AcDbEntity
  8
0
 62
1
100
AcDbSpline
 70
8
 71
3
 72
8
 73
4
 74
0
 40
0
 40
0
 40
0
 40
0
 40
1
 40
1
 40
1
 40
1
 10
82.038285
 20
435.854386
 30
0.0
 10
82.038285
 20
436.739603
 30
0.0
 10
82.755896
 20
437.457214
 30
0.0
 10
83.641113
 20
437.457214
 30
0.0
  0
SPLINE
  5
1c2
100
AcDbEntity
  8
0
 62
1
100
AcDbSpline
 70
8
 71
3
 72
8
 73
4
 74
0
 40
0
 40
0
 40
0
 40
0
 40
1
 40
1
 40
1
 40
1
 10
83.641113
 20
437.457214
 30
0.0
 10
84.526330
 20
437.457214
 30
0.0
 10
85.243941
 20
436.739603
 30
0.0
 10
85.243941
 20
435.854386
 30
0.0
  0
LWPOLYLINE
  5
1c3
100
AcDbEntity
  8
0
 62
1
100
AcDbPolyline
 90
2
 70
1
 10
44.243934
 20
435.854386
 30
0.0
 10
44.243934
 20
435.854386
 30
0.0
  0
SPLINE
  5
1c4
100
AcDbEntity
  8
0
 62
1
100
AcDbSpline
 70
8
 71
3
 72
8
 73
4
 74
0
 40
0
 40
0
 40
0
 40
0
 40
1
 40
1
 40
1
 40
1
 10
122.243940
 20
435.854386
 30
0.0
 10
122.243940
 20
435.429289
 30
0.0
 10
122.075071
 20
435.021603
 30
0.0
 10
121.774482
 20
434.721014
 30
0.0
  0
SPLINE
  5
1c5
100
AcDbEntity
  8
0
 62
1
100
AcDbSpline
 70
8
 71
3
 72
8
 73
4
 74
0
 40
0
 40
0
 40
0
 40
0
 40
1
 40
1
 40
1
 40
1
 10
121.774482
 20
434.721014
 30
0.0
 10
121.473893
 20
434.420425
 30
0.0
 10
121.066207
 20
434.251556
 30
0.0
 10
120.641110
 20
434.251557
 30
0.0
  0
SPLINE
  5
1c6
100
AcDbEntity
  8
0
 62
1
100
AcDbSpline
 70
8
 71
3
 72
8
 73
4
 74
0
 40
0
 40
0
 40
0
 40
0
 40
1
 40
1
 40
1
 40
1
 10
120.641110
 20
434.251557
 30
0.0
 10
119.755895
 20
434.251561
 30
0.0
 10
119.038290
 20
434.969171
 30
0.0
 10
119.038290
 20
435.854386
 30
0.0
  0
SPLINE
  5
1c7
100
AcDbEntity
  8
0
 62
1
100
AcDbSpline
 70
8
 71
3
 72
8
 73
4
 74
0
 40
0
 40
0
 40
0
 40
0
 40
1
 40
1
 40
1
 40
1
 10
119.038290
 20
435.854386
 30
0.0
 10
119.038290
 20
436.739600
 30
0.0
 10
119.755896
 20
437.457210
 30
0.0
 10
120.641110
 20
437.457214
 30
0.0
  0
SPLINE
  5
1c8
100
AcDbEntity
  8
0
 62
1
100
AcDbSpline
 70
8
 71
3
 72
8
 73
4
 74
0
 40
0
 40
0
 40
0
 40
0
 40
1
 40
1
 40
1
 40
1
 10
120.641110
 20
437.457214
 30
0.0
 10
121.066207
 20
437.457215
 30
0.0
 10
121.473893
 20
437.288346
 30
0.0
 10
121.774482
 20
436.987757
 30
0.0
  0
SPLINE
  5
1c9
100
AcDbEntity
  8
0
 62
1
100
AcDbSpline
 70
8
 71
3
 72
8
 73
4
 74
0
 40
0
 40
0
 40
0
 40
0
 40
1
 40
1
 40
1
 40
1
 10
121.774482
 20
436.987757
 30
0.0
 10
122.075071
 20
436.687169
 30
0.0
 10
122.243940
 20
436.279483
 30
0.0
 10
122.243940
 20
435.854386
 30
0.0
  0
LWPOLYLINE
  5
1ca
100
AcDbEntity
  8
0
 62
1
100
AcDbPolyline
 90
2
 70
1
 10
85.243941
 20
435.854386
 30
0.0
 10
85.243941
 20
435.854386
 30
0.0
  0
SPLINE
  5
1cb
100
AcDbEntity
  8
0
 62
1
100
AcDbSpline
 70
8
 71
3
 72
8
 73
4
 74
0
 40
0
 40
0
 40
0
 40
0
 40
1
 40
1
 40
1
 40
1
 10
122.243940
 20
420.854405
 30
0.0
 10
122.243940
 20
420.429308
 30
0.0
 10
122.075071
 20
420.021622
 30
0.0
 10
121.774482
 20
419.721033
 30
0.0
  0
SPLINE
  5
1cc
100
AcDbEntity
  8
0
 62
1
100
AcDbSpline
 70
8
 71
3
 72
8
 73
4
 74
0
 40
0
 40
0
 40
0
 40
0
 40
1
 40
1
 40
1
 40
1
 10
121.774482
 20
419.721033
 30
0.0
 10
121.473893
 20
419.420444
 30
0.0
 10
121.066207
 20
419.251575
 30
0.0
 10
120.641110
 20
419.251576
 30
0.0
  0
SPLINE
  5
1cd
100
AcDbEntity
  8
0
 62
1
100
AcDbSpline
 70
8
 71
3
 72
8
 73
4
 74
0
 40
0
 40
0
 40
0
 40
0
 40
1
 40
1
 40
1
 40
1
 10
120.641110
 20
419.251576
 30
0.0
 10
119.755895
 20
419.251580
 30
0.0
 10
119.038290
 20
419.969190
 30
0.0
 10
119.038290
 20
420.854405
 30
0.0
  0
SPLINE
  5
1ce
100
AcDbEntity
  8
0
 62
1
100
AcDbSpline
 70
8
 71
3
 72
8
 73
4
 74
0
 40
0
 40
0
 40
0
 40
0
 40
1
 40
1
 40
1
 40
1
 10
119.038290
 20
420.854405
 30
0.0
 10
119.038290
 20
421.739619
 30
0.0
 10
119.755896
 20
422.457229
 30
0.0
 10
120.641110
 20
422.457233
 30
0.0
  0
SPLINE
  5
1cf
100
AcDbEntity
  8
0
 62
1
100
AcDbSpline
 70
8
 71
3
 72
8
 73
4
 74
0
 40
0
 40
0
 40
0
 40
0
 40
1
 40
1
 40
1
 40
1
 10
120.641110
 20
422.457233
 30
0.0
 10
121.066207
 20
422.457234
 30
0.0
 10
121.473893
 20
422.288365
 30
0.0
 10
121.774482
 20
421.987776
 30
0.0
  0
SPLINE
  5
1d0
100
AcDbEntity
  8
0
 62
1
100
AcDbSpline
 70
8
 71
3
 72
8
 73
4
 74
0
 40
0
 40
0
 40
0
 40
0
 40
1
 40
1
 40
1
 40
1
 10
121.774482
 20
421.987776
 30
0.0
 10
122.075071
 20
421.687188
 30
0.0
 10
122.243940
 20
421.279502
 30
0.0
 10
122.243940
 20
420.854405
 30
0.0
  0
LWPOLYLINE
  5
1d1
100
AcDbEntity
  8
0
 62
1
100
AcDbPolyline
 90
2
 70
1
 10
122.243940
 20
435.854386
 30
0.0
 10
122.243940
 20
435.854386
 30
0.0
  0
SPLINE
  5
1d2
100
AcDbEntity
  8
0
 62
1
100
AcDbSpline
 70
8
 71
3
 72
8
 73
4
 74
0
 40
0
 40
0
 40
0
 40
0
 40
1
 40
1
 40
1
 40
1
 10
85.243941
 20
420.854405
 30
0.0
 10
85.243941
 20
420.429308
 30
0.0
 10
85.075072
 20
420.021623
 30
0.0
 10
84.774484
 20
419.721034
 30
0.0
  0
SPLINE
  5
1d3
100
AcDbEntity
  8
0
 62
1
100
AcDbSpline
 70
8
 71
3
 72
8
 73
4
 74
0
 40
0
 40
0
 40
0
 40
0
 40
1
 40
1
 40
1
 40
1
 10
84.774484
 20
419.721034
 30
0.0
 10
84.473895
 20
419.420445
 30
0.0
 10
84.066210
 20
419.251576
 30
0.0
 10
83.641113
 20
419.251576
 30
0.0
  0
SPLINE
  5
1d4
100
AcDbEntity
  8
0
 62
1
100
AcDbSpline
 70
8
 71
3
 72
8
 73
4
 74
0
 40
0
 40
0
 40
0
 40
0
 40
1
 40
1
 40
1
 40
1
 10
83.641113
 20
419.251576
 30
0.0
 10
83.216016
 20
419.251576
 30
0.0
 10
82.808331
 20
419.420445
 30
0.0
 10
82.507742
 20
419.721034
 30
0.0
  0
SPLINE
  5
1d5
100
AcDbEntity
  8
0
 62
1
100
AcDbSpline
 70
8
 71
3
 72
8
 73
4
 74
0
 40
0
 40
0
 40
0
 40
0
 40
1
 40
1
 40
1
 40
1
 10
82.507742
 20
419.721034
 30
0.0
 10
82.207154
 20
420.021623
 30
0.0
 10
82.038285
 20
420.429308
 30
0.0
 10
82.038285
 20
420.854405
 30
0.0
  0
SPLINE
  5
1d6
100
AcDbEntity
  8
0
 62
1
100
AcDbSpline
 70
8
 71
3
 72
8
 73
4
 74
0
 40
0
 40
0
 40
0
 40
0
 40
1
 40
1
 40
1
 40
1
 10
82.038285
 20
420.854405
 30
0.0
 10
82.038285
 20
421.739622
 30
0.0
 10
82.755896
 20
422.457233
 30
0.0
 10
83.641113
 20
422.457233
 30
0.0
  0
SPLINE
  5
1d7
100
AcDbEntity
  8
0
 62
1
100
AcDbSpline
 70
8
 71
3
 72
8
 73
4
 74
0
 40
0
 40
0
 40
0
 40
0
 40
1
 40
1
 40
1
 40
1
 10
83.641113
 20
422.457233
 30
0.0
 10
84.526330
 20
422.457233
 30
0.0
 10
85.243941
 20
421.739622
 30
0.0
 10
85.243941
 20
420.854405
 30
0.0
  0
LWPOLYLINE
  5
1d8
100
AcDbEntity
  8
0
 62
1
100
AcDbPolyline
 90
2
 70
1
 10
122.243940
 20
420.854405
 30
0.0
 10
122.243940
 20
420.854405
 30
0.0
  0
SPLINE
  5
1d9
100
AcDbEntity
  8
0
 62
1
100
AcDbSpline
 70
8
 71
3
 72
8
 73
4
 74
0
 40
0
 40
0
 40
0
 40
0
 40
1
 40
1
 40
1
 40
1
 10
44.243934
 20
420.854405
 30
0.0
 10
44.243934
 20
420.429308
 30
0.0
 10
44.075065
 20
420.021623
 30
0.0
 10
43.774477
 20
419.721034
 30
0.0
  0
SPLINE
  5
1da
100
AcDbEntity
  8
0
 62
1
100
AcDbSpline
 70
8
 71
3
 72
8
 73
4
 74
0
 40
0
 40
0
 40
0
 40
0
 40
1
 40
1
 40
1
 40
1
 10
43.774477
 20
419.721034
 30
0.0
 10
43.473888
 20
419.420445
 30
0.0
 10
43.066203
 20
419.251576
 30
0.0
 10
42.641106
 20
419.251576
 30
0.0
  0
SPLINE
  5
1db
100
AcDbEntity
  8
0
 62
1
100
AcDbSpline
 70
8
 71
3
 72
8
 73
4
 74
0
 40
0
 40
0
 40
0
 40
0
 40
1
 40
1
 40
1
 40
1
 10
42.641106
 20
419.251576
 30
0.0
 10
42.216009
 20
419.251576
 30
0.0
 10
41.808324
 20
419.420445
 30
0.0
 10
41.507735
 20
419.721034
 30
0.0
  0
SPLINE
  5
1dc
100
AcDbEntity
  8
0
 62
1
100
AcDbSpline
 70
8
 71
3
 72
8
 73
4
 74
0
 40
0
 40
0
 40
0
 40
0
 40
1
 40
1
 40
1
 40
1
 10
41.507735
 20
419.721034
 30
0.0
 10
41.207147
 20
420.021623
 30
0.0
 10
41.038278
 20
420.429308
 30
0.0
 10
41.038278
 20
420.854405
 30
0.0
  0
SPLINE
  5
1dd
100
AcDbEntity
  8
0
 62
1
100
AcDbSpline
 70
8
 71
3
 72
8
 73
4
 74
0
 40
0
 40
0
 40
0
 40
0
 40
1
 40
1
 40
1
 40
1
 10
41.038278
 20
420.854405
 30
0.0
 10
41.038278
 20
421.739622
 30
0.0
 10
41.755889
 20
422.457233
 30
0.0
 10
42.641106
 20
422.457233
 30
0.0
  0
SPLINE
  5
1de
100
AcDbEntity
  8
0
 62
1
100
AcDbSpline
 70
8
 71
3
 72
8
 73
4
 74
0
 40
0
 40
0
 40
0
 40
0
 40
1
 40
1
 40
1
 40
1
 10
42.641106
 20
422.457233
 30
0.0
 10
43.526323
 20
422.457233
 30
0.0
 10
44.243934
 20
421.739622
 30
0.0
 10
44.243934
 20
420.854405
 30
0.0
  0
LWPOLYLINE
  5
1df
100
AcDbEntity
  8
0
 62
1
100
AcDbPolyline
 90
2
 70
1
 10
85.243941
 20
420.854405
 30
0.0
 10
85.243941
 20
420.854405
 30
0.0
  0
SPLINE
  5
1e0
100
AcDbEntity
  8
0
 62
1
100
AcDbSpline
 70
8
 71
3
 72
8
 73
4
 74
0
 40
0
 40
0
 40
0
 40
0
 40
1
 40
1
 40
1
 40
1
 10
44.243934
 20
387.854393
 30
0.0
 10
44.243934
 20
386.969176
 30
0.0
 10
43.526323
 20
386.251565
 30
0.0
 10
42.641106
 20
386.251565
 30
0.0
  0
SPLINE
  5
1e1
100
AcDbEntity
  8
0
 62
1
100
AcDbSpline
 70
8
 71
3
 72
8
 73
4
 74
0
 40
0
 40
0
 40
0
 40
0
 40
1
 40
1
 40
1
 40
1
 10
42.641106
 20
386.251565
 30
0.0
 10
41.755889
 20
386.251565
 30
0.0
 10
41.038278
 20
386.969176
 30
0.0
 10
41.038278
 20
387.854393
 30
0.0
  0
SPLINE
  5
1e2
100
AcDbEntity
  8
0
 62
1
100
AcDbSpline
 70
8
 71
3
 72
8
 73
4
 74
0
 40
0
 40
0
 40
0
 40
0
 40
1
 40
1
 40
1
 40
1
 10
41.038278
 20
387.854393
 30
0.0
 10
41.038278
 20
388.279490
 30
0.0
 10
41.207147
 20
388.687175
 30
0.0
 10
41.507735
 20
388.987764
 30
0.0
  0
SPLINE
  5
1e3
100
AcDbEntity
  8
0
 62
1
100
AcDbSpline
 70
8
 71
3
 72
8
 73
4
 74
0
 40
0
 40
0
 40
0
 40
0
 40
1
 40
1
 40
1
 40
1
 10
41.507735
 20
388.987764
 30
0.0
 10
41.808324
 20
389.288353
 30
0.0
 10
42.216009
 20
389.457222
 30
0.0
 10
42.641106
 20
389.457222
 30
0.0
  0
SPLINE
  5
1e4
100
AcDbEntity
  8
0
 62
1
100
AcDbSpline
 70
8
 71
3
 72
8
 73
4
 74
0
 40
0
 40
0
 40
0
 40
0
 40
1
 40
1
 40
1
 40
1
 10
42.641106
 20
389.457222
 30
0.0
 10
43.066203
 20
389.457222
 30
0.0
 10
43.473888
 20
389.288353
 30
0.0
 10
43.774477
 20
388.987764
 30
0.0
  0
SPLINE
  5
1e5
100
AcDbEntity
  8
0
 62
1
100
AcDbSpline
 70
8
 71
3
 72
8
 73
4
 74
0
 40
0
 40
0
 40
0
 40
0
 40
1
 40
1
 40
1
 40
1
 10
43.774477
 20
388.987764
 30
0.0
 10
44.075065
 20
388.687175
 30
0.0
 10
44.243934
 20
388.279490
 30
0.0
 10
44.243934
 20
387.854393
 30
0.0
  0
LWPOLYLINE
  5
1e6
100
AcDbEntity
  8
0
 62
1
100
AcDbPolyline
 90
2
 70
1
 10
44.243934
 20
420.854405
 30
0.0
 10
44.243934
 20
420.854405
 30
0.0
  0
SPLINE
  5
1e7
100
AcDbEntity
  8
0
 62
1
100
AcDbSpline
 70
8
 71
3
 72
8
 73
4
 74
0
 40
0
 40
0
 40
0
 40
0
 40
1
 40
1
 40
1
 40
1
 10
85.243941
 20
387.854393
 30
0.0
 10
85.243941
 20
386.969176
 30
0.0
 10
84.526330
 20
386.251565
 30
0.0
 10
83.641113
 20
386.251565
 30
0.0
  0
SPLINE
  5
1e8
100
AcDbEntity
  8
0
 62
1
100
AcDbSpline
 70
8
 71
3
 72
8
 73
4
 74
0
 40
0
 40
0
 40
0
 40
0
 40
1
 40
1
 40
1
 40
1
 10
83.641113
 20
386.251565
 30
0.0
 10
82.755896
 20
386.251565
 30
0.0
 10
82.038285
 20
386.969176
 30
0.0
 10
82.038285
 20
387.854393
 30
0.0
  0
SPLINE
  5
1e9
100
AcDbEntity
  8
0
 62
1
100
AcDbSpline
 70
8
 71
3
 72
8
 73
4
 74
0
 40
0
 40
0
 40
0
 40
0
 40
1
 40
1
 40
1
 40
1
 10
82.038285
 20
387.854393
 30
0.0
 10
82.038285
 20
388.279490
 30
0.0
 10
82.207154
 20
388.687175
 30
0.0
 10
82.507742
 20
388.987764
 30
0.0
  0
SPLINE
  5
1ea
100
AcDbEntity
  8
0
 62
1
100
AcDbSpline
 70
8
 71
3
 72
8
 73
4
 74
0
 40
0
 40
0
 40
0
 40
0
 40
1
 40
1
 40
1
 40
1
 10
82.507742
 20
388.987764
 30
0.0
 10
82.808331
 20
389.288353
 30
0.0
 10
83.216016
 20
389.457222
 30
0.0
 10
83.641113
 20
389.457222
 30
0.0
  0
SPLINE
  5
1eb
100
AcDbEntity
  8
0
 62
1
100
AcDbSpline
 70
8
 71
3
 72
8
 73
4
 74
0
 40
0
 40
0
 40
0
 40
0
 40
1
 40
1
 40
1
 40
1
 10
83.641113
 20
389.457222
 30
0.0
 10
84.066210
 20
389.457222
 30
0.0
 10
84.473895
 20
389.288353
 30
0.0
 10
84.774484
 20
388.987764
 30
0.0
  0
SPLINE
  5
1ec
100
AcDbEntity
  8
0
 62
1
100
AcDbSpline
 70
8
 71
3
 72
8
 73
4
 74
0
 40
0
 40
0
 40
0
 40
0
 40
1
 40
1
 40
1
 40
1
 10
84.774484
 20
388.987764
 30
0.0
 10
85.075072
 20
388.687175
 30
0.0
 10
85.243941
 20
388.279490
 30
0.0
 10
85.243941
 20
387.854393
 30
0.0
  0
LWPOLYLINE
  5
1ed
100
AcDbEntity
  8
0
 62
1
100
AcDbPolyline
 90
2
 70
1
 10
44.243934
 20
387.854393
 30
0.0
 10
44.243934
 20
387.854393
 30
0.0
  0
SPLINE
  5
1ee
100
AcDbEntity
  8
0
 62
1
100
AcDbSpline
 70
8
 71
3
 72
8
 73
4
 74
0
 40
0
 40
0
 40
0
 40
0
 40
1
 40
1
 40
1
 40
1
 10
122.243940
 20
387.854393
 30
0.0
 10
122.243940
 20
387.429296
 30
0.0
 10
122.075071
 20
387.021610
 30
0.0
 10
121.774482
 20
386.721022
 30
0.0
  0
SPLINE
  5
1ef
100
AcDbEntity
  8
0
 62
1
100
AcDbSpline
 70
8
 71
3
 72
8
 73
4
 74
0
 40
0
 40
0
 40
0
 40
0
 40
1
 40
1
 40
1
 40
1
 10
121.774482
 20
386.721022
 30
0.0
 10
121.473893
 20
386.420433
 30
0.0
 10
121.066207
 20
386.251564
 30
0.0
 10
120.641110
 20
386.251565
 30
0.0
  0
SPLINE
  5
1f0
100
AcDbEntity
  8
0
 62
1
100
AcDbSpline
 70
8
 71
3
 72
8
 73
4
 74
0
 40
0
 40
0
 40
0
 40
0
 40
1
 40
1
 40
1
 40
1
 10
120.641110
 20
386.251565
 30
0.0
 10
119.755896
 20
386.251569
 30
0.0
 10
119.038290
 20
386.969179
 30
0.0
 10
119.038290
 20
387.854393
 30
0.0
  0
SPLINE
  5
1f1
100
AcDbEntity
  8
0
 62
1
100
AcDbSpline
 70
8
 71
3
 72
8
 73
4
 74
0
 40
0
 40
0
 40
0
 40
0
 40
1
 40
1
 40
1
 40
1
 10
119.038290
 20
387.854393
 30
0.0
 10
119.038290
 20
388.739608
 30
0.0
 10
119.755895
 20
389.457218
 30
0.0
 10
120.641110
 20
389.457222
 30
0.0
  0
SPLINE
  5
1f2
100
AcDbEntity
  8
0
 62
1
100
AcDbSpline
 70
8
 71
3
 72
8
 73
4
 74
0
 40
0
 40
0
 40
0
 40
0
 40
1
 40
1
 40
1
 40
1
 10
120.641110
 20
389.457222
 30
0.0
 10
121.066207
 20
389.457223
 30
0.0
 10
121.473893
 20
389.288354
 30
0.0
 10
121.774482
 20
388.987765
 30
0.0
  0
SPLINE
  5
1f3
100
AcDbEntity
  8
0
 62
1
100
AcDbSpline
 70
8
 71
3
 72
8
 73
4
 74
0
 40
0
 40
0
 40
0
 40
0
 40
1
 40
1
 40
1
 40
1
 10
121.774482
 20
388.987765
 30
0.0
 10
122.075071
 20
388.687176
 30
0.0
 10
122.243940
 20
388.279490
 30
0.0
 10
122.243940
 20
387.854393
 30
0.0
  0
LWPOLYLINE
  5
1f4
100
AcDbEntity
  8
0
 62
1
100
AcDbPolyline
 90
2
 70
1
 10
85.243941
 20
387.854393
 30
0.0
 10
85.243941
 20
387.854393
 30
0.0
  0
SPLINE
  5
1f5
100
AcDbEntity
  8
0
 62
1
100
AcDbSpline
 70
8
 71
3
 72
8
 73
4
 74
0
 40
0
 40
0
 40
0
 40
0
 40
1
 40
1
 40
1
 40
1
 10
122.243940
 20
617.258550
 30
0.0
 10
122.243940
 20
616.833453
 30
0.0
 10
122.075071
 20
616.425767
 30
0.0
 10
121.774482
 20
616.125177
 30
0.0
  0
SPLINE
  5
1f6
100
AcDbEntity
  8
0
 62
1
100
AcDbSpline
 70
8
 71
3
 72
8
 73
4
 74
0
 40
0
 40
0
 40
0
 40
0
 40
1
 40
1
 40
1
 40
1
 10
121.774482
 20
616.125177
 30
0.0
 10
121.473893
 20
615.824588
 30
0.0
 10
121.066207
 20
615.655719
 30
0.0
 10
120.641110
 20
615.655720
 30
0.0
  0
SPLINE
  5
1f7
100
AcDbEntity
  8
0
 62
1
100
AcDbSpline
 70
8
 71
3
 72
8
 73
4
 74
0
 40
0
 40
0
 40
0
 40
0
 40
1
 40
1
 40
1
 40
1
 10
120.641110
 20
615.655720
 30
0.0
 10
119.755895
 20
615.655724
 30
0.0
 10
119.038289
 20
616.373335
 30
0.0
 10
119.038290
 20
617.258550
 30
0.0
  0
SPLINE
  5
1f8
100
AcDbEntity
  8
0
 62
1
100
AcDbSpline
 70
8
 71
3
 72
8
 73
4
 74
0
 40
0
 40
0
 40
0
 40
0
 40
1
 40
1
 40
1
 40
1
 10
119.038290
 20
617.258550
 30
0.0
 10
119.038295
 20
618.143761
 30
0.0
 10
119.755899
 20
618.861366
 30
0.0
 10
120.641110
 20
618.861370
 30
0.0
  0
SPLINE
  5
1f9
100
AcDbEntity
  8
0
 62
1
100
AcDbSpline
 70
8
 71
3
 72
8
 73
4
 74
0
 40
0
 40
0
 40
0
 40
0
 40
1
 40
1
 40
1
 40
1
 10
120.641110
 20
618.861370
 30
0.0
 10
121.526325
 20
618.861371
 30
0.0
 10
122.243935
 20
618.143765
 30
0.0
 10
122.243940
 20
617.258550
 30
0.0
  0
LWPOLYLINE
  5
1fa
100
AcDbEntity
  8
0
 62
1
100
AcDbPolyline
 90
2
 70
1
 10
122.243940
 20
387.854393
 30
0.0
 10
122.243940
 20
387.854393
 30
0.0
  0
SPLINE
  5
1fb
100
AcDbEntity
  8
0
 62
1
100
AcDbSpline
 70
8
 71
3
 72
8
 73
4
 74
0
 40
0
 40
0
 40
0
 40
0
 40
1
 40
1
 40
1
 40
1
 10
85.243941
 20
617.258550
 30
0.0
 10
85.243941
 20
616.833453
 30
0.0
 10
85.075073
 20
616.425767
 30
0.0
 10
84.774484
 20
616.125178
 30
0.0
  0
SPLINE
  5
1fc
100
AcDbEntity
  8
0
 62
1
100
AcDbSpline
 70
8
 71
3
 72
8
 73
4
 74
0
 40
0
 40
0
 40
0
 40
0
 40
1
 40
1
 40
1
 40
1
 10
84.774484
 20
616.125178
 30
0.0
 10
84.473896
 20
615.824589
 30
0.0
 10
84.066210
 20
615.655720
 30
0.0
 10
83.641113
 20
615.655720
 30
0.0
  0
SPLINE
  5
1fd
100
AcDbEntity
  8
0
 62
1
100
AcDbSpline
 70
8
 71
3
 72
8
 73
4
 74
0
 40
0
 40
0
 40
0
 40
0
 40
1
 40
1
 40
1
 40
1
 10
83.641113
 20
615.655720
 30
0.0
 10
83.216016
 20
615.655720
 30
0.0
 10
82.808330
 20
615.824589
 30
0.0
 10
82.507742
 20
616.125178
 30
0.0
  0
SPLINE
  5
1fe
100
AcDbEntity
  8
0
 62
1
100
AcDbSpline
 70
8
 71
3
 72
8
 73
4
 74
0
 40
0
 40
0
 40
0
 40
0
 40
1
 40
1
 40
1
 40
1
 10
82.507742
 20
616.125178
 30
0.0
 10
82.207153
 20
616.425767
 30
0.0
 10
82.038285
 20
616.833453
 30
0.0
 10
82.038285
 20
617.258550
 30
0.0
  0
SPLINE
  5
1ff
100
AcDbEntity
  8
0
 62
1
100
AcDbSpline
 70
8
 71
3
 72
8
 73
4
 74
0
 40
0
 40
0
 40
0
 40
0
 40
1
 40
1
 40
1
 40
1
 10
82.038285
 20
617.258550
 30
0.0
 10
82.038290
 20
618.143764
 30
0.0
 10
82.755899
 20
618.861370
 30
0.0
 10
83.641113
 20
618.861370
 30
0.0
  0
SPLINE
  5
200
100
AcDbEntity
  8
0
 62
1
100
AcDbSpline
 70
8
 71
3
 72
8
 73
4
 74
0
 40
0
 40
0
 40
0
 40
0
 40
1
 40
1
 40
1
 40
1
 10
83.641113
 20
618.861370
 30
0.0
 10
84.526327
 20
618.861370
 30
0.0
 10
85.243936
 20
618.143764
 30
0.0
 10
85.243941
 20
617.258550
 30
0.0
  0
LWPOLYLINE
  5
201
100
AcDbEntity
  8
0
 62
1
100
AcDbPolyline
 90
2
 70
1
 10
122.243940
 20
617.258550
 30
0.0
 10
122.243940
 20
617.258550
 30
0.0
  0
SPLINE
  5
202
100
AcDbEntity
  8
0
 62
1
100
AcDbSpline
 70
8
 71
3
 72
8
 73
4
 74
0
 40
0
 40
0
 40
0
 40
0
 40
1
 40
1
 40
1
 40
1
 10
44.243934
 20
617.258550
 30
0.0
 10
44.243934
 20
616.833453
 30
0.0
 10
44.075066
 20
616.425767
 30
0.0
 10
43.774477
 20
616.125178
 30
0.0
  0
SPLINE
  5
203
100
AcDbEntity
  8
0
 62
1
100
AcDbSpline
 70
8
 71
3
 72
8
 73
4
 74
0
 40
0
 40
0
 40
0
 40
0
 40
1
 40
1
 40
1
 40
1
 10
43.774477
 20
616.125178
 30
0.0
 10
43.473889
 20
615.824589
 30
0.0
 10
43.066203
 20
615.655720
 30
0.0
 10
42.641106
 20
615.655720
 30
0.0
  0
SPLINE
  5
204
100
AcDbEntity
  8
0
 62
1
100
AcDbSpline
 70
8
 71
3
 72
8
 73
4
 74
0
 40
0
 40
0
 40
0
 40
0
 40
1
 40
1
 40
1
 40
1
 10
42.641106
 20
615.655720
 30
0.0
 10
42.216009
 20
615.655720
 30
0.0
 10
41.808323
 20
615.824589
 30
0.0
 10
41.507735
 20
616.125178
 30
0.0
  0
SPLINE
  5
205
100
AcDbEntity
  8
0
 62
1
100
AcDbSpline
 70
8
 71
3
 72
8
 73
4
 74
0
 40
0
 40
0
 40
0
 40
0
 40
1
 40
1
 40
1
 40
1
 10
41.507735
 20
616.125178
 30
0.0
 10
41.207146
 20
616.425767
 30
0.0
 10
41.038278
 20
616.833453
 30
0.0
 10
41.038278
 20
617.258550
 30
0.0
  0
SPLINE
  5
206
100
AcDbEntity
  8
0
 62
1
100
AcDbSpline
 70
8
 71
3
 72
8
 73
4
 74
0
 40
0
 40
0
 40
0
 40
0
 40
1
 40
1
 40
1
 40
1
 10
41.038278
 20
617.258550
 30
0.0
 10
41.038283
 20
618.143764
 30
0.0
 10
41.755892
 20
618.861370
 30
0.0
 10
42.641106
 20
618.861370
 30
0.0
  0
SPLINE
  5
207
100
AcDbEntity
  8
0
 62
1
100
AcDbSpline
 70
8
 71
3
 72
8
 73
4
 74
0
 40
0
 40
0
 40
0
 40
0
 40
1
 40
1
 40
1
 40
1
 10
42.641106
 20
618.861370
 30
0.0
 10
43.526320
 20
618.861370
 30
0.0
 10
44.243929
 20
618.143764
 30
0.0
 10
44.243934
 20
617.258550
 30
0.0
  0
LWPOLYLINE
  5
208
100
AcDbEntity
  8
0
 62
1
100
AcDbPolyline
 90
2
 70
1
 10
85.243941
 20
617.258550
 30
0.0
 10
85.243941
 20
617.258550
 30
0.0
  0
SPLINE
  5
209
100
AcDbEntity
  8
0
 62
1
100
AcDbSpline
 70
8
 71
3
 72
8
 73
4
 74
0
 40
0
 40
0
 40
0
 40
0
 40
1
 40
1
 40
1
 40
1
 10
44.243934
 20
584.259050
 30
0.0
 10
44.243934
 20
583.833953
 30
0.0
 10
44.075066
 20
583.426267
 30
0.0
 10
43.774477
 20
583.125678
 30
0.0
  0
SPLINE
  5
20a
100
AcDbEntity
  8
0
 62
1
100
AcDbSpline
 70
8
 71
3
 72
8
 73
4
 74
0
 40
0
 40
0
 40
0
 40
0
 40
1
 40
1
 40
1
 40
1
 10
43.774477
 20
583.125678
 30
0.0
 10
43.473889
 20
582.825089
 30
0.0
 10
43.066203
 20
582.656220
 30
0.0
 10
42.641106
 20
582.656220
 30
0.0
  0
SPLINE
  5
20b
100
AcDbEntity
  8
0
 62
1
100
AcDbSpline
 70
8
 71
3
 72
8
 73
4
 74
0
 40
0
 40
0
 40
0
 40
0
 40
1
 40
1
 40
1
 40
1
 10
42.641106
 20
582.656220
 30
0.0
 10
42.216009
 20
582.656220
 30
0.0
 10
41.808323
 20
582.825089
 30
0.0
 10
41.507735
 20
583.125678
 30
0.0
  0
SPLINE
  5
20c
100
AcDbEntity
  8
0
 62
1
100
AcDbSpline
 70
8
 71
3
 72
8
 73
4
 74
0
 40
0
 40
0
 40
0
 40
0
 40
1
 40
1
 40
1
 40
1
 10
41.507735
 20
583.125678
 30
0.0
 10
41.207146
 20
583.426267
 30
0.0
 10
41.038278
 20
583.833953
 30
0.0
 10
41.038278
 20
584.259050
 30
0.0
  0
SPLINE
  5
20d
100
AcDbEntity
  8
0
 62
1
100
AcDbSpline
 70
8
 71
3
 72
8
 73
4
 74
0
 40
0
 40
0
 40
0
 40
0
 40
1
 40
1
 40
1
 40
1
 10
41.038278
 20
584.259050
 30
0.0
 10
41.038278
 20
584.684147
 30
0.0
 10
41.207146
 20
585.091833
 30
0.0
 10
41.507735
 20
585.392422
 30
0.0
  0
SPLINE
  5
20e
100
AcDbEntity
  8
0
 62
1
100
AcDbSpline
 70
8
 71
3
 72
8
 73
4
 74
0
 40
0
 40
0
 40
0
 40
0
 40
1
 40
1
 40
1
 40
1
 10
41.507735
 20
585.392422
 30
0.0
 10
41.808323
 20
585.693011
 30
0.0
 10
42.216009
 20
585.861880
 30
0.0
 10
42.641106
 20
585.861880
 30
0.0
  0
SPLINE
  5
20f
100
AcDbEntity
  8
0
 62
1
100
AcDbSpline
 70
8
 71
3
 72
8
 73
4
 74
0
 40
0
 40
0
 40
0
 40
0
 40
1
 40
1
 40
1
 40
1
 10
42.641106
 20
585.861880
 30
0.0
 10
43.066203
 20
585.861880
 30
0.0
 10
43.473889
 20
585.693011
 30
0.0
 10
43.774477
 20
585.392422
 30
0.0
  0
SPLINE
  5
210
100
AcDbEntity
  8
0
 62
1
100
AcDbSpline
 70
8
 71
3
 72
8
 73
4
 74
0
 40
0
 40
0
 40
0
 40
0
 40
1
 40
1
 40
1
 40
1
 10
43.774477
 20
585.392422
 30
0.0
 10
44.075066
 20
585.091833
 30
0.0
 10
44.243934
 20
584.684147
 30
0.0
 10
44.243934
 20
584.259050
 30
0.0
  0
LWPOLYLINE
  5
211
100
AcDbEntity
  8
0
 62
1
100
AcDbPolyline
 90
2
 70
1
 10
44.243934
 20
617.258550
 30
0.0
 10
44.243934
 20
617.258550
 30
0.0
  0
SPLINE
  5
212
100
AcDbEntity
  8
0
 62
1
100
AcDbSpline
 70
8
 71
3
 72
8
 73
4
 74
0
 40
0
 40
0
 40
0
 40
0
 40
1
 40
1
 40
1
 40
1
 10
85.243941
 20
584.259050
 30
0.0
 10
85.243941
 20
583.833953
 30
0.0
 10
85.075073
 20
583.426267
 30
0.0
 10
84.774484
 20
583.125678
 30
0.0
  0
SPLINE
  5
213
100
AcDbEntity
  8
0
 62
1
100
AcDbSpline
 70
8
 71
3
 72
8
 73
4
 74
0
 40
0
 40
0
 40
0
 40
0
 40
1
 40
1
 40
1
 40
1
 10
84.774484
 20
583.125678
 30
0.0
 10
84.473896
 20
582.825089
 30
0.0
 10
84.066210
 20
582.656220
 30
0.0
 10
83.641113
 20
582.656220
 30
0.0
  0
SPLINE
  5
214
100
AcDbEntity
  8
0
 62
1
100
AcDbSpline
 70
8
 71
3
 72
8
 73
4
 74
0
 40
0
 40
0
 40
0
 40
0
 40
1
 40
1
 40
1
 40
1
 10
83.641113
 20
582.656220
 30
0.0
 10
83.216016
 20
582.656220
 30
0.0
 10
82.808330
 20
582.825089
 30
0.0
 10
82.507742
 20
583.125678
 30
0.0
  0
SPLINE
  5
215
100
AcDbEntity
  8
0
 62
1
100
AcDbSpline
 70
8
 71
3
 72
8
 73
4
 74
0
 40
0
 40
0
 40
0
 40
0
 40
1
 40
1
 40
1
 40
1
 10
82.507742
 20
583.125678
 30
0.0
 10
82.207153
 20
583.426267
 30
0.0
 10
82.038285
 20
583.833953
 30
0.0
 10
82.038285
 20
584.259050
 30
0.0
  0
SPLINE
  5
216
100
AcDbEntity
  8
0
 62
1
100
AcDbSpline
 70
8
 71
3
 72
8
 73
4
 74
0
 40
0
 40
0
 40
0
 40
0
 40
1
 40
1
 40
1
 40
1
 10
82.038285
 20
584.259050
 30
0.0
 10
82.038285
 20
584.684147
 30
0.0
 10
82.207153
 20
585.091833
 30
0.0
 10
82.507742
 20
585.392422
 30
0.0
  0
SPLINE
  5
217
100
AcDbEntity
  8
0
 62
1
100
AcDbSpline
 70
8
 71
3
 72
8
 73
4
 74
0
 40
0
 40
0
 40
0
 40
0
 40
1
 40
1
 40
1
 40
1
 10
82.507742
 20
585.392422
 30
0.0
 10
82.808330
 20
585.693011
 30
0.0
 10
83.216016
 20
585.861880
 30
0.0
 10
83.641113
 20
585.861880
 30
0.0
  0
SPLINE
  5
218
100
AcDbEntity
  8
0
 62
1
100
AcDbSpline
 70
8
 71
3
 72
8
 73
4
 74
0
 40
0
 40
0
 40
0
 40
0
 40
1
 40
1
 40
1
 40
1
 10
83.641113
 20
585.861880
 30
0.0
 10
84.066210
 20
585.861880
 30
0.0
 10
84.473896
 20
585.693011
 30
0.0
 10
84.774484
 20
585.392422
 30
0.0
  0
SPLINE
  5
219
100
AcDbEntity
  8
0
 62
1
100
AcDbSpline
 70
8
 71
3
 72
8
 73
4
 74
0
 40
0
 40
0
 40
0
 40
0
 40
1
 40
1
 40
1
 40
1
 10
84.774484
 20
585.392422
 30
0.0
 10
85.075073
 20
585.091833
 30
0.0
 10
85.243941
 20
584.684147
 30
0.0
 10
85.243941
 20
584.259050
 30
0.0
  0
LWPOLYLINE
  5
21a
100
AcDbEntity
  8
0
 62
1
100
AcDbPolyline
 90
2
 70
1
 10
44.243934
 20
584.259050
 30
0.0
 10
44.243934
 20
584.259050
 30
0.0
  0
SPLINE
  5
21b
100
AcDbEntity
  8
0
 62
1
100
AcDbSpline
 70
8
 71
3
 72
8
 73
4
 74
0
 40
0
 40
0
 40
0
 40
0
 40
1
 40
1
 40
1
 40
1
 10
122.243940
 20
584.259050
 30
0.0
 10
122.243940
 20
583.833953
 30
0.0
 10
122.075071
 20
583.426267
 30
0.0
 10
121.774482
 20
583.125677
 30
0.0
  0
SPLINE
  5
21c
100
AcDbEntity
  8
0
 62
1
100
AcDbSpline
 70
8
 71
3
 72
8
 73
4
 74
0
 40
0
 40
0
 40
0
 40
0
 40
1
 40
1
 40
1
 40
1
 10
121.774482
 20
583.125677
 30
0.0
 10
121.473893
 20
582.825088
 30
0.0
 10
121.066207
 20
582.656219
 30
0.0
 10
120.641110
 20
582.656220
 30
0.0
  0
SPLINE
  5
21d
100
AcDbEntity
  8
0
 62
1
100
AcDbSpline
 70
8
 71
3
 72
8
 73
4
 74
0
 40
0
 40
0
 40
0
 40
0
 40
1
 40
1
 40
1
 40
1
 10
120.641110
 20
582.656220
 30
0.0
 10
119.755895
 20
582.656224
 30
0.0
 10
119.038289
 20
583.373835
 30
0.0
 10
119.038290
 20
584.259050
 30
0.0
  0
SPLINE
  5
21e
100
AcDbEntity
  8
0
 62
1
100
AcDbSpline
 70
8
 71
3
 72
8
 73
4
 74
0
 40
0
 40
0
 40
0
 40
0
 40
1
 40
1
 40
1
 40
1
 10
119.038290
 20
584.259050
 30
0.0
 10
119.038289
 20
585.144265
 30
0.0
 10
119.755895
 20
585.861876
 30
0.0
 10
120.641110
 20
585.861880
 30
0.0
  0
SPLINE
  5
21f
100
AcDbEntity
  8
0
 62
1
100
AcDbSpline
 70
8
 71
3
 72
8
 73
4
 74
0
 40
0
 40
0
 40
0
 40
0
 40
1
 40
1
 40
1
 40
1
 10
120.641110
 20
585.861880
 30
0.0
 10
121.066207
 20
585.861881
 30
0.0
 10
121.473893
 20
585.693012
 30
0.0
 10
121.774482
 20
585.392423
 30
0.0
  0
SPLINE
  5
220
100
AcDbEntity
  8
0
 62
1
100
AcDbSpline
 70
8
 71
3
 72
8
 73
4
 74
0
 40
0
 40
0
 40
0
 40
0
 40
1
 40
1
 40
1
 40
1
 10
121.774482
 20
585.392423
 30
0.0
 10
122.075071
 20
585.091833
 30
0.0
 10
122.243940
 20
584.684147
 30
0.0
 10
122.243940
 20
584.259050
 30
0.0
  0
LWPOLYLINE
  5
221
100
AcDbEntity
  8
0
 62
1
100
AcDbPolyline
 90
2
 70
1
 10
85.243941
 20
584.259050
 30
0.0
 10
85.243941
 20
584.259050
 30
0.0
  0
SPLINE
  5
222
100
AcDbEntity
  8
0
 62
1
100
AcDbSpline
 70
8
 71
3
 72
8
 73
4
 74
0
 40
0
 40
0
 40
0
 40
0
 40
1
 40
1
 40
1
 40
1
 10
122.243940
 20
727.174070
 30
0.0
 10
122.243940
 20
726.748973
 30
0.0
 10
122.075071
 20
726.341287
 30
0.0
 10
121.774482
 20
726.040697
 30
0.0
  0
SPLINE
  5
223
100
AcDbEntity
  8
0
 62
1
100
AcDbSpline
 70
8
 71
3
 72
8
 73
4
 74
0
 40
0
 40
0
 40
0
 40
0
 40
1
 40
1
 40
1
 40
1
 10
121.774482
 20
726.040697
 30
0.0
 10
121.473893
 20
725.740108
 30
0.0
 10
121.066207
 20
725.571239
 30
0.0
 10
120.641110
 20
725.571240
 30
0.0
  0
SPLINE
  5
224
100
AcDbEntity
  8
0
 62
1
100
AcDbSpline
 70
8
 71
3
 72
8
 73
4
 74
0
 40
0
 40
0
 40
0
 40
0
 40
1
 40
1
 40
1
 40
1
 10
120.641110
 20
725.571240
 30
0.0
 10
119.755895
 20
725.571244
 30
0.0
 10
119.038289
 20
726.288855
 30
0.0
 10
119.038290
 20
727.174070
 30
0.0
  0
SPLINE
  5
225
100
AcDbEntity
  8
0
 62
1
100
AcDbSpline
 70
8
 71
3
 72
8
 73
4
 74
0
 40
0
 40
0
 40
0
 40
0
 40
1
 40
1
 40
1
 40
1
 10
119.038290
 20
727.174070
 30
0.0
 10
119.038289
 20
728.059285
 30
0.0
 10
119.755895
 20
728.776896
 30
0.0
 10
120.641110
 20
728.776900
 30
0.0
  0
SPLINE
  5
226
100
AcDbEntity
  8
0
 62
1
100
AcDbSpline
 70
8
 71
3
 72
8
 73
4
 74
0
 40
0
 40
0
 40
0
 40
0
 40
1
 40
1
 40
1
 40
1
 10
120.641110
 20
728.776900
 30
0.0
 10
121.066207
 20
728.776901
 30
0.0
 10
121.473893
 20
728.608032
 30
0.0
 10
121.774482
 20
728.307443
 30
0.0
  0
SPLINE
  5
227
100
AcDbEntity
  8
0
 62
1
100
AcDbSpline
 70
8
 71
3
 72
8
 73
4
 74
0
 40
0
 40
0
 40
0
 40
0
 40
1
 40
1
 40
1
 40
1
 10
121.774482
 20
728.307443
 30
0.0
 10
122.075071
 20
728.006853
 30
0.0
 10
122.243940
 20
727.599167
 30
0.0
 10
122.243940
 20
727.174070
 30
0.0
  0
LWPOLYLINE
  5
228
100
AcDbEntity
  8
0
 62
1
100
AcDbPolyline
 90
2
 70
1
 10
122.243940
 20
584.259050
 30
0.0
 10
122.243940
 20
584.259050
 30
0.0
  0
SPLINE
  5
229
100
AcDbEntity
  8
0
 62
1
100
AcDbSpline
 70
8
 71
3
 72
8
 73
4
 74
0
 40
0
 40
0
 40
0
 40
0
 40
1
 40
1
 40
1
 40
1
 10
85.243941
 20
727.174070
 30
0.0
 10
85.243941
 20
726.748973
 30
0.0
 10
85.075073
 20
726.341287
 30
0.0
 10
84.774484
 20
726.040698
 30
0.0
  0
SPLINE
  5
22a
100
AcDbEntity
  8
0
 62
1
100
AcDbSpline
 70
8
 71
3
 72
8
 73
4
 74
0
 40
0
 40
0
 40
0
 40
0
 40
1
 40
1
 40
1
 40
1
 10
84.774484
 20
726.040698
 30
0.0
 10
84.473896
 20
725.740109
 30
0.0
 10
84.066210
 20
725.571240
 30
0.0
 10
83.641113
 20
725.571240
 30
0.0
  0
SPLINE
  5
22b
100
AcDbEntity
  8
0
 62
1
100
AcDbSpline
 70
8
 71
3
 72
8
 73
4
 74
0
 40
0
 40
0
 40
0
 40
0
 40
1
 40
1
 40
1
 40
1
 10
83.641113
 20
725.571240
 30
0.0
 10
83.216016
 20
725.571240
 30
0.0
 10
82.808330
 20
725.740109
 30
0.0
 10
82.507742
 20
726.040698
 30
0.0
  0
SPLINE
  5
22c
100
AcDbEntity
  8
0
 62
1
100
AcDbSpline
 70
8
 71
3
 72
8
 73
4
 74
0
 40
0
 40
0
 40
0
 40
0
 40
1
 40
1
 40
1
 40
1
 10
82.507742
 20
726.040698
 30
0.0
 10
82.207153
 20
726.341287
 30
0.0
 10
82.038285
 20
726.748973
 30
0.0
 10
82.038285
 20
727.174070
 30
0.0
  0
SPLINE
  5
22d
100
AcDbEntity
  8
0
 62
1
100
AcDbSpline
 70
8
 71
3
 72
8
 73
4
 74
0
 40
0
 40
0
 40
0
 40
0
 40
1
 40
1
 40
1
 40
1
 10
82.038285
 20
727.174070
 30
0.0
 10
82.038285
 20
727.599167
 30
0.0
 10
82.207153
 20
728.006853
 30
0.0
 10
82.507742
 20
728.307442
 30
0.0
  0
SPLINE
  5
22e
100
AcDbEntity
  8
0
 62
1
100
AcDbSpline
 70
8
 71
3
 72
8
 73
4
 74
0
 40
0
 40
0
 40
0
 40
0
 40
1
 40
1
 40
1
 40
1
 10
82.507742
 20
728.307442
 30
0.0
 10
82.808330
 20
728.608031
 30
0.0
 10
83.216016
 20
728.776900
 30
0.0
 10
83.641113
 20
728.776900
 30
0.0
  0
SPLINE
  5
22f
100
AcDbEntity
  8
0
 62
1
100
AcDbSpline
 70
8
 71
3
 72
8
 73
4
 74
0
 40
0
 40
0
 40
0
 40
0
 40
1
 40
1
 40
1
 40
1
 10
83.641113
 20
728.776900
 30
0.0
 10
84.066210
 20
728.776900
 30
0.0
 10
84.473896
 20
728.608031
 30
0.0
 10
84.774484
 20
728.307442
 30
0.0
  0
SPLINE
  5
230
100
AcDbEntity
  8
0
 62
1
100
AcDbSpline
 70
8
 71
3
 72
8
 73
4
 74
0
 40
0
 40
0
 40
0
 40
0
 40
1
 40
1
 40
1
 40
1
 10
84.774484
 20
728.307442
 30
0.0
 10
85.075073
 20
728.006853
 30
0.0
 10
85.243941
 20
727.599167
 30
0.0
 10
85.243941
 20
727.174070
 30
0.0
  0
LWPOLYLINE
  5
231
100
AcDbEntity
  8
0
 62
1
100
AcDbPolyline
 90
2
 70
1
 10
122.243940
 20
727.174070
 30
0.0
 10
122.243940
 20
727.174070
 30
0.0
  0
SPLINE
  5
232
100
AcDbEntity
  8
0
 62
1
100
AcDbSpline
 70
8
 71
3
 72
8
 73
4
 74
0
 40
0
 40
0
 40
0
 40
0
 40
1
 40
1
 40
1
 40
1
 10
85.243941
 20
760.175020
 30
0.0
 10
85.243941
 20
759.749923
 30
0.0
 10
85.075073
 20
759.342237
 30
0.0
 10
84.774484
 20
759.041648
 30
0.0
  0
SPLINE
  5
233
100
AcDbEntity
  8
0
 62
1
100
AcDbSpline
 70
8
 71
3
 72
8
 73
4
 74
0
 40
0
 40
0
 40
0
 40
0
 40
1
 40
1
 40
1
 40
1
 10
84.774484
 20
759.041648
 30
0.0
 10
84.473896
 20
758.741059
 30
0.0
 10
84.066210
 20
758.572190
 30
0.0
 10
83.641113
 20
758.572190
 30
0.0
  0
SPLINE
  5
234
100
AcDbEntity
  8
0
 62
1
100
AcDbSpline
 70
8
 71
3
 72
8
 73
4
 74
0
 40
0
 40
0
 40
0
 40
0
 40
1
 40
1
 40
1
 40
1
 10
83.641113
 20
758.572190
 30
0.0
 10
83.216016
 20
758.572190
 30
0.0
 10
82.808330
 20
758.741059
 30
0.0
 10
82.507742
 20
759.041648
 30
0.0
  0
SPLINE
  5
235
100
AcDbEntity
  8
0
 62
1
100
AcDbSpline
 70
8
 71
3
 72
8
 73
4
 74
0
 40
0
 40
0
 40
0
 40
0
 40
1
 40
1
 40
1
 40
1
 10
82.507742
 20
759.041648
 30
0.0
 10
82.207153
 20
759.342237
 30
0.0
 10
82.038285
 20
759.749923
 30
0.0
 10
82.038285
 20
760.175020
 30
0.0
  0
SPLINE
  5
236
100
AcDbEntity
  8
0
 62
1
100
AcDbSpline
 70
8
 71
3
 72
8
 73
4
 74
0
 40
0
 40
0
 40
0
 40
0
 40
1
 40
1
 40
1
 40
1
 10
82.038285
 20
760.175020
 30
0.0
 10
82.038285
 20
760.600117
 30
0.0
 10
82.207153
 20
761.007803
 30
0.0
 10
82.507742
 20
761.308392
 30
0.0
  0
SPLINE
  5
237
100
AcDbEntity
  8
0
 62
1
100
AcDbSpline
 70
8
 71
3
 72
8
 73
4
 74
0
 40
0
 40
0
 40
0
 40
0
 40
1
 40
1
 40
1
 40
1
 10
82.507742
 20
761.308392
 30
0.0
 10
82.808330
 20
761.608981
 30
0.0
 10
83.216016
 20
761.777850
 30
0.0
 10
83.641113
 20
761.777850
 30
0.0
  0
SPLINE
  5
238
100
AcDbEntity
  8
0
 62
1
100
AcDbSpline
 70
8
 71
3
 72
8
 73
4
 74
0
 40
0
 40
0
 40
0
 40
0
 40
1
 40
1
 40
1
 40
1
 10
83.641113
 20
761.777850
 30
0.0
 10
84.066210
 20
761.777850
 30
0.0
 10
84.473896
 20
761.608981
 30
0.0
 10
84.774484
 20
761.308392
 30
0.0
  0
SPLINE
  5
239
100
AcDbEntity
  8
0
 62
1
100
AcDbSpline
 70
8
 71
3
 72
8
 73
4
 74
0
 40
0
 40
0
 40
0
 40
0
 40
1
 40
1
 40
1
 40
1
 10
84.774484
 20
761.308392
 30
0.0
 10
85.075073
 20
761.007803
 30
0.0
 10
85.243941
 20
760.600117
 30
0.0
 10
85.243941
 20
760.175020
 30
0.0
  0
LWPOLYLINE
  5
23a
100
AcDbEntity
  8
0
 62
1
100
AcDbPolyline
 90
2
 70
1
 10
85.243941
 20
727.174070
 30
0.0
 10
85.243941
 20
727.174070
 30
0.0
  0
SPLINE
  5
23b
100
AcDbEntity
  8
0
 62
1
100
AcDbSpline
 70
8
 71
3
 72
8
 73
4
 74
0
 40
0
 40
0
 40
0
 40
0
 40
1
 40
1
 40
1
 40
1
 10
122.243940
 20
760.175020
 30
0.0
 10
122.243940
 20
759.749923
 30
0.0
 10
122.075071
 20
759.342237
 30
0.0
 10
121.774482
 20
759.041647
 30
0.0
  0
SPLINE
  5
23c
100
AcDbEntity
  8
0
 62
1
100
AcDbSpline
 70
8
 71
3
 72
8
 73
4
 74
0
 40
0
 40
0
 40
0
 40
0
 40
1
 40
1
 40
1
 40
1
 10
121.774482
 20
759.041647
 30
0.0
 10
121.473893
 20
758.741058
 30
0.0
 10
121.066207
 20
758.572189
 30
0.0
 10
120.641110
 20
758.572190
 30
0.0
  0
SPLINE
  5
23d
100
AcDbEntity
  8
0
 62
1
100
AcDbSpline
 70
8
 71
3
 72
8
 73
4
 74
0
 40
0
 40
0
 40
0
 40
0
 40
1
 40
1
 40
1
 40
1
 10
120.641110
 20
758.572190
 30
0.0
 10
119.755895
 20
758.572194
 30
0.0
 10
119.038289
 20
759.289805
 30
0.0
 10
119.038290
 20
760.175020
 30
0.0
  0
SPLINE
  5
23e
100
AcDbEntity
  8
0
 62
1
100
AcDbSpline
 70
8
 71
3
 72
8
 73
4
 74
0
 40
0
 40
0
 40
0
 40
0
 40
1
 40
1
 40
1
 40
1
 10
119.038290
 20
760.175020
 30
0.0
 10
119.038289
 20
761.060235
 30
0.0
 10
119.755895
 20
761.777846
 30
0.0
 10
120.641110
 20
761.777850
 30
0.0
  0
SPLINE
  5
23f
100
AcDbEntity
  8
0
 62
1
100
AcDbSpline
 70
8
 71
3
 72
8
 73
4
 74
0
 40
0
 40
0
 40
0
 40
0
 40
1
 40
1
 40
1
 40
1
 10
120.641110
 20
761.777850
 30
0.0
 10
121.066207
 20
761.777851
 30
0.0
 10
121.473893
 20
761.608982
 30
0.0
 10
121.774482
 20
761.308393
 30
0.0
  0
SPLINE
  5
240
100
AcDbEntity
  8
0
 62
1
100
AcDbSpline
 70
8
 71
3
 72
8
 73
4
 74
0
 40
0
 40
0
 40
0
 40
0
 40
1
 40
1
 40
1
 40
1
 10
121.774482
 20
761.308393
 30
0.0
 10
122.075071
 20
761.007803
 30
0.0
 10
122.243940
 20
760.600117
 30
0.0
 10
122.243940
 20
760.175020
 30
0.0
  0
LWPOLYLINE
  5
241
100
AcDbEntity
  8
0
 62
1
100
AcDbPolyline
 90
2
 70
1
 10
85.243941
 20
760.175020
 30
0.0
 10
85.243941
 20
760.175020
 30
0.0
  0
SPLINE
  5
242
100
AcDbEntity
  8
0
 62
1
100
AcDbSpline
 70
8
 71
3
 72
8
 73
4
 74
0
 40
0
 40
0
 40
0
 40
0
 40
1
 40
1
 40
1
 40
1
 10
122.243940
 20
775.175420
 30
0.0
 10
122.243940
 20
774.750323
 30
0.0
 10
122.075071
 20
774.342637
 30
0.0
 10
121.774482
 20
774.042047
 30
0.0
  0
SPLINE
  5
243
100
AcDbEntity
  8
0
 62
1
100
AcDbSpline
 70
8
 71
3
 72
8
 73
4
 74
0
 40
0
 40
0
 40
0
 40
0
 40
1
 40
1
 40
1
 40
1
 10
121.774482
 20
774.042047
 30
0.0
 10
121.473893
 20
773.741458
 30
0.0
 10
121.066207
 20
773.572589
 30
0.0
 10
120.641110
 20
773.572590
 30
0.0
  0
SPLINE
  5
244
100
AcDbEntity
  8
0
 62
1
100
AcDbSpline
 70
8
 71
3
 72
8
 73
4
 74
0
 40
0
 40
0
 40
0
 40
0
 40
1
 40
1
 40
1
 40
1
 10
120.641110
 20
773.572590
 30
0.0
 10
119.755895
 20
773.572594
 30
0.0
 10
119.038289
 20
774.290205
 30
0.0
 10
119.038290
 20
775.175420
 30
0.0
  0
SPLINE
  5
245
100
AcDbEntity
  8
0
 62
1
100
AcDbSpline
 70
8
 71
3
 72
8
 73
4
 74
0
 40
0
 40
0
 40
0
 40
0
 40
1
 40
1
 40
1
 40
1
 10
119.038290
 20
775.175420
 30
0.0
 10
119.038295
 20
776.060631
 30
0.0
 10
119.755899
 20
776.778236
 30
0.0
 10
120.641110
 20
776.778240
 30
0.0
  0
SPLINE
  5
246
100
AcDbEntity
  8
0
 62
1
100
AcDbSpline
 70
8
 71
3
 72
8
 73
4
 74
0
 40
0
 40
0
 40
0
 40
0
 40
1
 40
1
 40
1
 40
1
 10
120.641110
 20
776.778240
 30
0.0
 10
121.526325
 20
776.778241
 30
0.0
 10
122.243935
 20
776.060635
 30
0.0
 10
122.243940
 20
775.175420
 30
0.0
  0
LWPOLYLINE
  5
247
100
AcDbEntity
  8
0
 62
1
100
AcDbPolyline
 90
2
 70
1
 10
122.243940
 20
760.175020
 30
0.0
 10
122.243940
 20
760.175020
 30
0.0
  0
SPLINE
  5
248
100
AcDbEntity
  8
0
 62
1
100
AcDbSpline
 70
8
 71
3
 72
8
 73
4
 74
0
 40
0
 40
0
 40
0
 40
0
 40
1
 40
1
 40
1
 40
1
 10
85.243941
 20
775.175420
 30
0.0
 10
85.243941
 20
774.750323
 30
0.0
 10
85.075073
 20
774.342637
 30
0.0
 10
84.774484
 20
774.042048
 30
0.0
  0
SPLINE
  5
249
100
AcDbEntity
  8
0
 62
1
100
AcDbSpline
 70
8
 71
3
 72
8
 73
4
 74
0
 40
0
 40
0
 40
0
 40
0
 40
1
 40
1
 40
1
 40
1
 10
84.774484
 20
774.042048
 30
0.0
 10
84.473896
 20
773.741459
 30
0.0
 10
84.066210
 20
773.572590
 30
0.0
 10
83.641113
 20
773.572590
 30
0.0
  0
SPLINE
  5
24a
100
AcDbEntity
  8
0
 62
1
100
AcDbSpline
 70
8
 71
3
 72
8
 73
4
 74
0
 40
0
 40
0
 40
0
 40
0
 40
1
 40
1
 40
1
 40
1
 10
83.641113
 20
773.572590
 30
0.0
 10
83.216016
 20
773.572590
 30
0.0
 10
82.808330
 20
773.741459
 30
0.0
 10
82.507742
 20
774.042048
 30
0.0
  0
SPLINE
  5
24b
100
AcDbEntity
  8
0
 62
1
100
AcDbSpline
 70
8
 71
3
 72
8
 73
4
 74
0
 40
0
 40
0
 40
0
 40
0
 40
1
 40
1
 40
1
 40
1
 10
82.507742
 20
774.042048
 30
0.0
 10
82.207153
 20
774.342637
 30
0.0
 10
82.038285
 20
774.750323
 30
0.0
 10
82.038285
 20
775.175420
 30
0.0
  0
SPLINE
  5
24c
100
AcDbEntity
  8
0
 62
1
100
AcDbSpline
 70
8
 71
3
 72
8
 73
4
 74
0
 40
0
 40
0
 40
0
 40
0
 40
1
 40
1
 40
1
 40
1
 10
82.038285
 20
775.175420
 30
0.0
 10
82.038290
 20
776.060634
 30
0.0
 10
82.755899
 20
776.778240
 30
0.0
 10
83.641113
 20
776.778240
 30
0.0
  0
SPLINE
  5
24d
100
AcDbEntity
  8
0
 62
1
100
AcDbSpline
 70
8
 71
3
 72
8
 73
4
 74
0
 40
0
 40
0
 40
0
 40
0
 40
1
 40
1
 40
1
 40
1
 10
83.641113
 20
776.778240
 30
0.0
 10
84.526327
 20
776.778240
 30
0.0
 10
85.243936
 20
776.060634
 30
0.0
 10
85.243941
 20
775.175420
 30
0.0
  0
LWPOLYLINE
  5
24e
100
AcDbEntity
  8
0
 62
1
100
AcDbPolyline
 90
2
 70
1
 10
122.243940
 20
775.175420
 30
0.0
 10
122.243940
 20
775.175420
 30
0.0
  0
SPLINE
  5
24f
100
AcDbEntity
  8
0
 62
1
100
AcDbSpline
 70
8
 71
3
 72
8
 73
4
 74
0
 40
0
 40
0
 40
0
 40
0
 40
1
 40
1
 40
1
 40
1
 10
85.243941
 20
808.175570
 30
0.0
 10
85.243941
 20
807.750473
 30
0.0
 10
85.075073
 20
807.342787
 30
0.0
 10
84.774484
 20
807.042198
 30
0.0
  0
SPLINE
  5
250
100
AcDbEntity
  8
0
 62
1
100
AcDbSpline
 70
8
 71
3
 72
8
 73
4
 74
0
 40
0
 40
0
 40
0
 40
0
 40
1
 40
1
 40
1
 40
1
 10
84.774484
 20
807.042198
 30
0.0
 10
84.473896
 20
806.741609
 30
0.0
 10
84.066210
 20
806.572740
 30
0.0
 10
83.641113
 20
806.572740
 30
0.0
  0
SPLINE
  5
251
100
AcDbEntity
  8
0
 62
1
100
AcDbSpline
 70
8
 71
3
 72
8
 73
4
 74
0
 40
0
 40
0
 40
0
 40
0
 40
1
 40
1
 40
1
 40
1
 10
83.641113
 20
806.572740
 30
0.0
 10
83.216016
 20
806.572740
 30
0.0
 10
82.808330
 20
806.741609
 30
0.0
 10
82.507742
 20
807.042198
 30
0.0
  0
SPLINE
  5
252
100
AcDbEntity
  8
0
 62
1
100
AcDbSpline
 70
8
 71
3
 72
8
 73
4
 74
0
 40
0
 40
0
 40
0
 40
0
 40
1
 40
1
 40
1
 40
1
 10
82.507742
 20
807.042198
 30
0.0
 10
82.207153
 20
807.342787
 30
0.0
 10
82.038285
 20
807.750473
 30
0.0
 10
82.038285
 20
808.175570
 30
0.0
  0
SPLINE
  5
253
100
AcDbEntity
  8
0
 62
1
100
AcDbSpline
 70
8
 71
3
 72
8
 73
4
 74
0
 40
0
 40
0
 40
0
 40
0
 40
1
 40
1
 40
1
 40
1
 10
82.038285
 20
808.175570
 30
0.0
 10
82.038285
 20
808.600667
 30
0.0
 10
82.207153
 20
809.008353
 30
0.0
 10
82.507742
 20
809.308942
 30
0.0
  0
SPLINE
  5
254
100
AcDbEntity
  8
0
 62
1
100
AcDbSpline
 70
8
 71
3
 72
8
 73
4
 74
0
 40
0
 40
0
 40
0
 40
0
 40
1
 40
1
 40
1
 40
1
 10
82.507742
 20
809.308942
 30
0.0
 10
82.808330
 20
809.609531
 30
0.0
 10
83.216016
 20
809.778400
 30
0.0
 10
83.641113
 20
809.778400
 30
0.0
  0
SPLINE
  5
255
100
AcDbEntity
  8
0
 62
1
100
AcDbSpline
 70
8
 71
3
 72
8
 73
4
 74
0
 40
0
 40
0
 40
0
 40
0
 40
1
 40
1
 40
1
 40
1
 10
83.641113
 20
809.778400
 30
0.0
 10
84.066210
 20
809.778400
 30
0.0
 10
84.473896
 20
809.609531
 30
0.0
 10
84.774484
 20
809.308942
 30
0.0
  0
SPLINE
  5
256
100
AcDbEntity
  8
0
 62
1
100
AcDbSpline
 70
8
 71
3
 72
8
 73
4
 74
0
 40
0
 40
0
 40
0
 40
0
 40
1
 40
1
 40
1
 40
1
 10
84.774484
 20
809.308942
 30
0.0
 10
85.075073
 20
809.008353
 30
0.0
 10
85.243941
 20
808.600667
 30
0.0
 10
85.243941
 20
808.175570
 30
0.0
  0
LWPOLYLINE
  5
257
100
AcDbEntity
  8
0
 62
1
100
AcDbPolyline
 90
2
 70
1
 10
85.243941
 20
775.175420
 30
0.0
 10
85.243941
 20
775.175420
 30
0.0
  0
SPLINE
  5
258
100
AcDbEntity
  8
0
 62
1
100
AcDbSpline
 70
8
 71
3
 72
8
 73
4
 74
0
 40
0
 40
0
 40
0
 40
0
 40
1
 40
1
 40
1
 40
1
 10
122.243940
 20
808.175570
 30
0.0
 10
122.243940
 20
807.750473
 30
0.0
 10
122.075071
 20
807.342787
 30
0.0
 10
121.774482
 20
807.042197
 30
0.0
  0
SPLINE
  5
259
100
AcDbEntity
  8
0
 62
1
100
AcDbSpline
 70
8
 71
3
 72
8
 73
4
 74
0
 40
0
 40
0
 40
0
 40
0
 40
1
 40
1
 40
1
 40
1
 10
121.774482
 20
807.042197
 30
0.0
 10
121.473893
 20
806.741608
 30
0.0
 10
121.066207
 20
806.572739
 30
0.0
 10
120.641110
 20
806.572740
 30
0.0
  0
SPLINE
  5
25a
100
AcDbEntity
  8
0
 62
1
100
AcDbSpline
 70
8
 71
3
 72
8
 73
4
 74
0
 40
0
 40
0
 40
0
 40
0
 40
1
 40
1
 40
1
 40
1
 10
120.641110
 20
806.572740
 30
0.0
 10
119.755895
 20
806.572744
 30
0.0
 10
119.038289
 20
807.290355
 30
0.0
 10
119.038290
 20
808.175570
 30
0.0
  0
SPLINE
  5
25b
100
AcDbEntity
  8
0
 62
1
100
AcDbSpline
 70
8
 71
3
 72
8
 73
4
 74
0
 40
0
 40
0
 40
0
 40
0
 40
1
 40
1
 40
1
 40
1
 10
119.038290
 20
808.175570
 30
0.0
 10
119.038289
 20
809.060785
 30
0.0
 10
119.755895
 20
809.778396
 30
0.0
 10
120.641110
 20
809.778400
 30
0.0
  0
SPLINE
  5
25c
100
AcDbEntity
  8
0
 62
1
100
AcDbSpline
 70
8
 71
3
 72
8
 73
4
 74
0
 40
0
 40
0
 40
0
 40
0
 40
1
 40
1
 40
1
 40
1
 10
120.641110
 20
809.778400
 30
0.0
 10
121.066207
 20
809.778401
 30
0.0
 10
121.473893
 20
809.609532
 30
0.0
 10
121.774482
 20
809.308943
 30
0.0
  0
SPLINE
  5
25d
100
AcDbEntity
  8
0
 62
1
100
AcDbSpline
 70
8
 71
3
 72
8
 73
4
 74
0
 40
0
 40
0
 40
0
 40
0
 40
1
 40
1
 40
1
 40
1
 10
121.774482
 20
809.308943
 30
0.0
 10
122.075071
 20
809.008353
 30
0.0
 10
122.243940
 20
808.600667
 30
0.0
 10
122.243940
 20
808.175570
 30
0.0
  0
LWPOLYLINE
  5
25e
100
AcDbEntity
  8
0
 62
1
100
AcDbPolyline
 90
2
 70
1
 10
85.243941
 20
808.175570
 30
0.0
 10
85.243941
 20
808.175570
 30
0.0
  0
SPLINE
  5
25f
100
AcDbEntity
  8
0
 62
1
100
AcDbSpline
 70
8
 71
3
 72
8
 73
4
 74
0
 40
0
 40
0
 40
0
 40
0
 40
1
 40
1
 40
1
 40
1
 10
44.243934
 20
544.601471
 30
0.0
 10
44.243934
 20
543.716254
 30
0.0
 10
43.526323
 20
542.998643
 30
0.0
 10
42.641106
 20
542.998643
 30
0.0
  0
SPLINE
  5
260
100
AcDbEntity
  8
0
 62
1
100
AcDbSpline
 70
8
 71
3
 72
8
 73
4
 74
0
 40
0
 40
0
 40
0
 40
0
 40
1
 40
1
 40
1
 40
1
 10
42.641106
 20
542.998643
 30
0.0
 10
41.755889
 20
542.998643
 30
0.0
 10
41.038278
 20
543.716254
 30
0.0
 10
41.038278
 20
544.601471
 30
0.0
  0
SPLINE
  5
261
100
AcDbEntity
  8
0
 62
1
100
AcDbSpline
 70
8
 71
3
 72
8
 73
4
 74
0
 40
0
 40
0
 40
0
 40
0
 40
1
 40
1
 40
1
 40
1
 10
41.038278
 20
544.601471
 30
0.0
 10
41.038278
 20
545.486688
 30
0.0
 10
41.755889
 20
546.204299
 30
0.0
 10
42.641106
 20
546.204299
 30
0.0
  0
SPLINE
  5
262
100
AcDbEntity
  8
0
 62
1
100
AcDbSpline
 70
8
 71
3
 72
8
 73
4
 74
0
 40
0
 40
0
 40
0
 40
0
 40
1
 40
1
 40
1
 40
1
 10
42.641106
 20
546.204299
 30
0.0
 10
43.526323
 20
546.204299
 30
0.0
 10
44.243934
 20
545.486688
 30
0.0
 10
44.243934
 20
544.601471
 30
0.0
  0
LWPOLYLINE
  5
263
100
AcDbEntity
  8
0
 62
1
100
AcDbPolyline
 90
2
 70
1
 10
122.243940
 20
808.175570
 30
0.0
 10
122.243940
 20
808.175570
 30
0.0
  0
SPLINE
  5
264
100
AcDbEntity
  8
0
 62
1
100
AcDbSpline
 70
8
 71
3
 72
8
 73
4
 74
0
 40
0
 40
0
 40
0
 40
0
 40
1
 40
1
 40
1
 40
1
 10
44.243934
 20
511.601918
 30
0.0
 10
44.243934
 20
511.176821
 30
0.0
 10
44.075065
 20
510.769136
 30
0.0
 10
43.774477
 20
510.468547
 30
0.0
  0
SPLINE
  5
265
100
AcDbEntity
  8
0
 62
1
100
AcDbSpline
 70
8
 71
3
 72
8
 73
4
 74
0
 40
0
 40
0
 40
0
 40
0
 40
1
 40
1
 40
1
 40
1
 10
43.774477
 20
510.468547
 30
0.0
 10
43.473888
 20
510.167958
 30
0.0
 10
43.066203
 20
509.999089
 30
0.0
 10
42.641106
 20
509.999089
 30
0.0
  0
SPLINE
  5
266
100
AcDbEntity
  8
0
 62
1
100
AcDbSpline
 70
8
 71
3
 72
8
 73
4
 74
0
 40
0
 40
0
 40
0
 40
0
 40
1
 40
1
 40
1
 40
1
 10
42.641106
 20
509.999089
 30
0.0
 10
42.216009
 20
509.999089
 30
0.0
 10
41.808324
 20
510.167958
 30
0.0
 10
41.507735
 20
510.468547
 30
0.0
  0
SPLINE
  5
267
100
AcDbEntity
  8
0
 62
1
100
AcDbSpline
 70
8
 71
3
 72
8
 73
4
 74
0
 40
0
 40
0
 40
0
 40
0
 40
1
 40
1
 40
1
 40
1
 10
41.507735
 20
510.468547
 30
0.0
 10
41.207147
 20
510.769136
 30
0.0
 10
41.038278
 20
511.176821
 30
0.0
 10
41.038278
 20
511.601918
 30
0.0
  0
SPLINE
  5
268
100
AcDbEntity
  8
0
 62
1
100
AcDbSpline
 70
8
 71
3
 72
8
 73
4
 74
0
 40
0
 40
0
 40
0
 40
0
 40
1
 40
1
 40
1
 40
1
 10
41.038278
 20
511.601918
 30
0.0
 10
41.038278
 20
512.487135
 30
0.0
 10
41.755889
 20
513.204746
 30
0.0
 10
42.641106
 20
513.204746
 30
0.0
  0
SPLINE
  5
269
100
AcDbEntity
  8
0
 62
1
100
AcDbSpline
 70
8
 71
3
 72
8
 73
4
 74
0
 40
0
 40
0
 40
0
 40
0
 40
1
 40
1
 40
1
 40
1
 10
42.641106
 20
513.204746
 30
0.0
 10
43.526323
 20
513.204746
 30
0.0
 10
44.243934
 20
512.487135
 30
0.0
 10
44.243934
 20
511.601918
 30
0.0
  0
LWPOLYLINE
  5
26a
100
AcDbEntity
  8
0
 62
1
100
AcDbPolyline
 90
2
 70
1
 10
44.243934
 20
544.601471
 30
0.0
 10
44.243934
 20
544.601471
 30
0.0
  0
SPLINE
  5
26b
100
AcDbEntity
  8
0
 62
1
100
AcDbSpline
 70
8
 71
3
 72
8
 73
4
 74
0
 40
0
 40
0
 40
0
 40
0
 40
1
 40
1
 40
1
 40
1
 10
85.243941
 20
511.601918
 30
0.0
 10
85.243941
 20
511.176821
 30
0.0
 10
85.075072
 20
510.769136
 30
0.0
 10
84.774484
 20
510.468547
 30
0.0
  0
SPLINE
  5
26c
100
AcDbEntity
  8
0
 62
1
100
AcDbSpline
 70
8
 71
3
 72
8
 73
4
 74
0
 40
0
 40
0
 40
0
 40
0
 40
1
 40
1
 40
1
 40
1
 10
84.774484
 20
510.468547
 30
0.0
 10
84.473895
 20
510.167958
 30
0.0
 10
84.066210
 20
509.999089
 30
0.0
 10
83.641113
 20
509.999089
 30
0.0
  0
SPLINE
  5
26d
100
AcDbEntity
  8
0
 62
1
100
AcDbSpline
 70
8
 71
3
 72
8
 73
4
 74
0
 40
0
 40
0
 40
0
 40
0
 40
1
 40
1
 40
1
 40
1
 10
83.641113
 20
509.999089
 30
0.0
 10
83.216016
 20
509.999089
 30
0.0
 10
82.808331
 20
510.167958
 30
0.0
 10
82.507742
 20
510.468547
 30
0.0
  0
SPLINE
  5
26e
100
AcDbEntity
  8
0
 62
1
100
AcDbSpline
 70
8
 71
3
 72
8
 73
4
 74
0
 40
0
 40
0
 40
0
 40
0
 40
1
 40
1
 40
1
 40
1
 10
82.507742
 20
510.468547
 30
0.0
 10
82.207154
 20
510.769136
 30
0.0
 10
82.038285
 20
511.176821
 30
0.0
 10
82.038285
 20
511.601918
 30
0.0
  0
SPLINE
  5
26f
100
AcDbEntity
  8
0
 62
1
100
AcDbSpline
 70
8
 71
3
 72
8
 73
4
 74
0
 40
0
 40
0
 40
0
 40
0
 40
1
 40
1
 40
1
 40
1
 10
82.038285
 20
511.601918
 30
0.0
 10
82.038285
 20
512.487135
 30
0.0
 10
82.755896
 20
513.204746
 30
0.0
 10
83.641113
 20
513.204746
 30
0.0
  0
SPLINE
  5
270
100
AcDbEntity
  8
0
 62
1
100
AcDbSpline
 70
8
 71
3
 72
8
 73
4
 74
0
 40
0
 40
0
 40
0
 40
0
 40
1
 40
1
 40
1
 40
1
 10
83.641113
 20
513.204746
 30
0.0
 10
84.526330
 20
513.204746
 30
0.0
 10
85.243941
 20
512.487135
 30
0.0
 10
85.243941
 20
511.601918
 30
0.0
  0
LWPOLYLINE
  5
271
100
AcDbEntity
  8
0
 62
1
100
AcDbPolyline
 90
2
 70
1
 10
44.243934
 20
511.601918
 30
0.0
 10
44.243934
 20
511.601918
 30
0.0
  0
SPLINE
  5
272
100
AcDbEntity
  8
0
 62
1
100
AcDbSpline
 70
8
 71
3
 72
8
 73
4
 74
0
 40
0
 40
0
 40
0
 40
0
 40
1
 40
1
 40
1
 40
1
 10
85.243941
 20
544.601471
 30
0.0
 10
85.243941
 20
543.716254
 30
0.0
 10
84.526330
 20
542.998643
 30
0.0
 10
83.641113
 20
542.998643
 30
0.0
  0
SPLINE
  5
273
100
AcDbEntity
  8
0
 62
1
100
AcDbSpline
 70
8
 71
3
 72
8
 73
4
 74
0
 40
0
 40
0
 40
0
 40
0
 40
1
 40
1
 40
1
 40
1
 10
83.641113
 20
542.998643
 30
0.0
 10
82.755896
 20
542.998643
 30
0.0
 10
82.038285
 20
543.716254
 30
0.0
 10
82.038285
 20
544.601471
 30
0.0
  0
SPLINE
  5
274
100
AcDbEntity
  8
0
 62
1
100
AcDbSpline
 70
8
 71
3
 72
8
 73
4
 74
0
 40
0
 40
0
 40
0
 40
0
 40
1
 40
1
 40
1
 40
1
 10
82.038285
 20
544.601471
 30
0.0
 10
82.038285
 20
545.486688
 30
0.0
 10
82.755896
 20
546.204299
 30
0.0
 10
83.641113
 20
546.204299
 30
0.0
  0
SPLINE
  5
275
100
AcDbEntity
  8
0
 62
1
100
AcDbSpline
 70
8
 71
3
 72
8
 73
4
 74
0
 40
0
 40
0
 40
0
 40
0
 40
1
 40
1
 40
1
 40
1
 10
83.641113
 20
546.204299
 30
0.0
 10
84.526330
 20
546.204299
 30
0.0
 10
85.243941
 20
545.486688
 30
0.0
 10
85.243941
 20
544.601471
 30
0.0
  0
LWPOLYLINE
  5
276
100
AcDbEntity
  8
0
 62
1
100
AcDbPolyline
 90
2
 70
1
 10
85.243941
 20
511.601918
 30
0.0
 10
85.243941
 20
511.601918
 30
0.0
  0
SPLINE
  5
277
100
AcDbEntity
  8
0
 62
1
100
AcDbSpline
 70
8
 71
3
 72
8
 73
4
 74
0
 40
0
 40
0
 40
0
 40
0
 40
1
 40
1
 40
1
 40
1
 10
122.243940
 20
544.601471
 30
0.0
 10
122.243940
 20
544.176374
 30
0.0
 10
122.075071
 20
543.768688
 30
0.0
 10
121.774482
 20
543.468100
 30
0.0
  0
SPLINE
  5
278
100
AcDbEntity
  8
0
 62
1
100
AcDbSpline
 70
8
 71
3
 72
8
 73
4
 74
0
 40
0
 40
0
 40
0
 40
0
 40
1
 40
1
 40
1
 40
1
 10
121.774482
 20
543.468100
 30
0.0
 10
121.473893
 20
543.167511
 30
0.0
 10
121.066207
 20
542.998642
 30
0.0
 10
120.641110
 20
542.998643
 30
0.0
  0
SPLINE
  5
279
100
AcDbEntity
  8
0
 62
1
100
AcDbSpline
 70
8
 71
3
 72
8
 73
4
 74
0
 40
0
 40
0
 40
0
 40
0
 40
1
 40
1
 40
1
 40
1
 10
120.641110
 20
542.998643
 30
0.0
 10
119.755896
 20
542.998647
 30
0.0
 10
119.038290
 20
543.716257
 30
0.0
 10
119.038290
 20
544.601471
 30
0.0
  0
SPLINE
  5
27a
100
AcDbEntity
  8
0
 62
1
100
AcDbSpline
 70
8
 71
3
 72
8
 73
4
 74
0
 40
0
 40
0
 40
0
 40
0
 40
1
 40
1
 40
1
 40
1
 10
119.038290
 20
544.601471
 30
0.0
 10
119.038290
 20
545.486685
 30
0.0
 10
119.755896
 20
546.204295
 30
0.0
 10
120.641110
 20
546.204299
 30
0.0
  0
SPLINE
  5
27b
100
AcDbEntity
  8
0
 62
1
100
AcDbSpline
 70
8
 71
3
 72
8
 73
4
 74
0
 40
0
 40
0
 40
0
 40
0
 40
1
 40
1
 40
1
 40
1
 10
120.641110
 20
546.204299
 30
0.0
 10
121.066207
 20
546.204300
 30
0.0
 10
121.473893
 20
546.035431
 30
0.0
 10
121.774482
 20
545.734842
 30
0.0
  0
SPLINE
  5
27c
100
AcDbEntity
  8
0
 62
1
100
AcDbSpline
 70
8
 71
3
 72
8
 73
4
 74
0
 40
0
 40
0
 40
0
 40
0
 40
1
 40
1
 40
1
 40
1
 10
121.774482
 20
545.734842
 30
0.0
 10
122.075071
 20
545.434254
 30
0.0
 10
122.243940
 20
545.026568
 30
0.0
 10
122.243940
 20
544.601471
 30
0.0
  0
LWPOLYLINE
  5
27d
100
AcDbEntity
  8
0
 62
1
100
AcDbPolyline
 90
2
 70
1
 10
85.243941
 20
544.601471
 30
0.0
 10
85.243941
 20
544.601471
 30
0.0
  0
SPLINE
  5
27e
100
AcDbEntity
  8
0
 62
1
100
AcDbSpline
 70
8
 71
3
 72
8
 73
4
 74
0
 40
0
 40
0
 40
0
 40
0
 40
1
 40
1
 40
1
 40
1
 10
122.243940
 20
511.601918
 30
0.0
 10
122.243940
 20
511.176821
 30
0.0
 10
122.075071
 20
510.769135
 30
0.0
 10
121.774482
 20
510.468546
 30
0.0
  0
SPLINE
  5
27f
100
AcDbEntity
  8
0
 62
1
100
AcDbSpline
 70
8
 71
3
 72
8
 73
4
 74
0
 40
0
 40
0
 40
0
 40
0
 40
1
 40
1
 40
1
 40
1
 10
121.774482
 20
510.468546
 30
0.0
 10
121.473893
 20
510.167957
 30
0.0
 10
121.066207
 20
509.999088
 30
0.0
 10
120.641110
 20
509.999089
 30
0.0
  0
SPLINE
  5
280
100
AcDbEntity
  8
0
 62
1
100
AcDbSpline
 70
8
 71
3
 72
8
 73
4
 74
0
 40
0
 40
0
 40
0
 40
0
 40
1
 40
1
 40
1
 40
1
 10
120.641110
 20
509.999089
 30
0.0
 10
119.755895
 20
509.999093
 30
0.0
 10
119.038290
 20
510.716703
 30
0.0
 10
119.038290
 20
511.601918
 30
0.0
  0
SPLINE
  5
281
100
AcDbEntity
  8
0
 62
1
100
AcDbSpline
 70
8
 71
3
 72
8
 73
4
 74
0
 40
0
 40
0
 40
0
 40
0
 40
1
 40
1
 40
1
 40
1
 10
119.038290
 20
511.601918
 30
0.0
 10
119.038290
 20
512.487132
 30
0.0
 10
119.755896
 20
513.204742
 30
0.0
 10
120.641110
 20
513.204746
 30
0.0
  0
SPLINE
  5
282
100
AcDbEntity
  8
0
 62
1
100
AcDbSpline
 70
8
 71
3
 72
8
 73
4
 74
0
 40
0
 40
0
 40
0
 40
0
 40
1
 40
1
 40
1
 40
1
 10
120.641110
 20
513.204746
 30
0.0
 10
121.066207
 20
513.204747
 30
0.0
 10
121.473893
 20
513.035878
 30
0.0
 10
121.774482
 20
512.735289
 30
0.0
  0
SPLINE
  5
283
100
AcDbEntity
  8
0
 62
1
100
AcDbSpline
 70
8
 71
3
 72
8
 73
4
 74
0
 40
0
 40
0
 40
0
 40
0
 40
1
 40
1
 40
1
 40
1
 10
121.774482
 20
512.735289
 30
0.0
 10
122.075071
 20
512.434701
 30
0.0
 10
122.243940
 20
512.027015
 30
0.0
 10
122.243940
 20
511.601918
 30
0.0
  0
LWPOLYLINE
  5
284
100
AcDbEntity
  8
0
 62
1
100
AcDbPolyline
 90
2
 70
1
 10
122.243940
 20
544.601471
 30
0.0
 10
122.243940
 20
544.601471
 30
0.0
  0
SPLINE
  5
285
100
AcDbEntity
  8
0
 62
1
100
AcDbSpline
 70
8
 71
3
 72
8
 73
4
 74
0
 40
0
 40
0
 40
0
 40
0
 40
1
 40
1
 40
1
 40
1
 10
89.093655
 20
528.101715
 30
0.0
 10
89.093655
 20
527.482449
 30
0.0
 10
88.591640
 20
526.980435
 30
0.0
 10
87.972374
 20
526.980435
 30
0.0
  0
SPLINE
  5
286
100
AcDbEntity
  8
0
 62
1
100
AcDbSpline
 70
8
 71
3
 72
8
 73
4
 74
0
 40
0
 40
0
 40
0
 40
0
 40
1
 40
1
 40
1
 40
1
 10
87.972374
 20
526.980435
 30
0.0
 10
87.353108
 20
526.980435
 30
0.0
 10
86.851093
 20
527.482449
 30
0.0
 10
86.851093
 20
528.101715
 30
0.0
  0
SPLINE
  5
287
100
AcDbEntity
  8
0
 62
1
100
AcDbSpline
 70
8
 71
3
 72
8
 73
4
 74
0
 40
0
 40
0
 40
0
 40
0
 40
1
 40
1
 40
1
 40
1
 10
86.851093
 20
528.101715
 30
0.0
 10
86.851093
 20
528.399097
 30
0.0
 10
86.969228
 20
528.684300
 30
0.0
 10
87.179509
 20
528.894581
 30
0.0
  0
SPLINE
  5
288
100
AcDbEntity
  8
0
 62
1
100
AcDbSpline
 70
8
 71
3
 72
8
 73
4
 74
0
 40
0
 40
0
 40
0
 40
0
 40
1
 40
1
 40
1
 40
1
 10
87.179509
 20
528.894581
 30
0.0
 10
87.389790
 20
529.104862
 30
0.0
 10
87.674992
 20
529.222996
 30
0.0
 10
87.972374
 20
529.222996
 30
0.0
  0
SPLINE
  5
289
100
AcDbEntity
  8
0
 62
1
100
AcDbSpline
 70
8
 71
3
 72
8
 73
4
 74
0
 40
0
 40
0
 40
0
 40
0
 40
1
 40
1
 40
1
 40
1
 10
87.972374
 20
529.222996
 30
0.0
 10
88.269756
 20
529.222996
 30
0.0
 10
88.554958
 20
529.104862
 30
0.0
 10
88.765239
 20
528.894581
 30
0.0
  0
SPLINE
  5
28a
100
AcDbEntity
  8
0
 62
1
100
AcDbSpline
 70
8
 71
3
 72
8
 73
4
 74
0
 40
0
 40
0
 40
0
 40
0
 40
1
 40
1
 40
1
 40
1
 10
88.765239
 20
528.894581
 30
0.0
 10
88.975520
 20
528.684300
 30
0.0
 10
89.093655
 20
528.399097
 30
0.0
 10
89.093655
 20
528.101715
 30
0.0
  0
LWPOLYLINE
  5
28b
100
AcDbEntity
  8
0
 62
1
100
AcDbPolyline
 90
2
 70
1
 10
122.243940
 20
511.601918
 30
0.0
 10
122.243940
 20
511.601918
 30
0.0
  0
SPLINE
  5
28c
100
AcDbEntity
  8
0
 62
1
100
AcDbSpline
 70
8
 71
3
 72
8
 73
4
 74
0
 40
0
 40
0
 40
0
 40
0
 40
1
 40
1
 40
1
 40
1
 10
117.693660
 20
528.101715
 30
0.0
 10
117.693660
 20
527.482449
 30
0.0
 10
117.191646
 20
526.980435
 30
0.0
 10
116.572380
 20
526.980435
 30
0.0
  0
SPLINE
  5
28d
100
AcDbEntity
  8
0
 62
1
100
AcDbSpline
 70
8
 71
3
 72
8
 73
4
 74
0
 40
0
 40
0
 40
0
 40
0
 40
1
 40
1
 40
1
 40
1
 10
116.572380
 20
526.980435
 30
0.0
 10
115.953114
 20
526.980435
 30
0.0
 10
115.451100
 20
527.482449
 30
0.0
 10
115.451100
 20
528.101715
 30
0.0
  0
SPLINE
  5
28e
100
AcDbEntity
  8
0
 62
1
100
AcDbSpline
 70
8
 71
3
 72
8
 73
4
 74
0
 40
0
 40
0
 40
0
 40
0
 40
1
 40
1
 40
1
 40
1
 10
115.451100
 20
528.101715
 30
0.0
 10
115.451100
 20
528.720981
 30
0.0
 10
115.953114
 20
529.222996
 30
0.0
 10
116.572380
 20
529.222996
 30
0.0
  0
SPLINE
  5
28f
100
AcDbEntity
  8
0
 62
1
100
AcDbSpline
 70
8
 71
3
 72
8
 73
4
 74
0
 40
0
 40
0
 40
0
 40
0
 40
1
 40
1
 40
1
 40
1
 10
116.572380
 20
529.222996
 30
0.0
 10
117.191646
 20
529.222996
 30
0.0
 10
117.693660
 20
528.720981
 30
0.0
 10
117.693660
 20
528.101715
 30
0.0
  0
LWPOLYLINE
  5
290
100
AcDbEntity
  8
0
 62
1
100
AcDbPolyline
 90
2
 70
1
 10
89.093655
 20
528.101715
 30
0.0
 10
89.093655
 20
528.101715
 30
0.0
  0
SPLINE
  5
291
100
AcDbEntity
  8
0
 62
5
100
AcDbSpline
 70
8
 71
3
 72
8
 73
4
 74
0
 40
0
 40
0
 40
0
 40
0
 40
1
 40
1
 40
1
 40
1
 10
113.514230
 20
528.101715
 30
0.0
 10
113.514230
 20
525.085376
 30
0.0
 10
112.315994
 20
522.192579
 30
0.0
 10
110.183120
 20
520.059705
 30
0.0
  0
SPLINE
  5
292
100
AcDbEntity
  8
0
 62
5
100
AcDbSpline
 70
8
 71
3
 72
8
 73
4
 74
0
 40
0
 40
0
 40
0
 40
0
 40
1
 40
1
 40
1
 40
1
 10
110.183120
 20
520.059705
 30
0.0
 10
108.050246
 20
517.926832
 30
0.0
 10
105.157449
 20
516.728596
 30
0.0
 10
102.141110
 20
516.728597
 30
0.0
  0
SPLINE
  5
293
100
AcDbEntity
  8
0
 62
5
100
AcDbSpline
 70
8
 71
3
 72
8
 73
4
 74
0
 40
0
 40
0
 40
0
 40
0
 40
1
 40
1
 40
1
 40
1
 10
102.141110
 20
516.728597
 30
0.0
 10
95.859912
 20
516.728599
 30
0.0
 10
90.767995
 20
521.820517
 30
0.0
 10
90.767995
 20
528.101715
 30
0.0
  0
SPLINE
  5
294
100
AcDbEntity
  8
0
 62
5
100
AcDbSpline
 70
8
 71
3
 72
8
 73
4
 74
0
 40
0
 40
0
 40
0
 40
0
 40
1
 40
1
 40
1
 40
1
 10
90.767995
 20
528.101715
 30
0.0
 10
90.767994
 20
534.382914
 30
0.0
 10
95.859911
 20
539.474832
 30
0.0
 10
102.141110
 20
539.474834
 30
0.0
  0
SPLINE
  5
295
100
AcDbEntity
  8
0
 62
5
100
AcDbSpline
 70
8
 71
3
 72
8
 73
4
 74
0
 40
0
 40
0
 40
0
 40
0
 40
1
 40
1
 40
1
 40
1
 10
102.141110
 20
539.474834
 30
0.0
 10
105.157449
 20
539.474835
 30
0.0
 10
108.050247
 20
538.276599
 30
0.0
 10
110.183121
 20
536.143725
 30
0.0
  0
SPLINE
  5
296
100
AcDbEntity
  8
0
 62
5
100
AcDbSpline
 70
8
 71
3
 72
8
 73
4
 74
0
 40
0
 40
0
 40
0
 40
0
 40
1
 40
1
 40
1
 40
1
 10
110.183121
 20
536.143725
 30
0.0
 10
112.315994
 20
534.010852
 30
0.0
 10
113.514230
 20
531.118054
 30
0.0
 10
113.514230
 20
528.101715
 30
0.0
  0
LWPOLYLINE
  5
297
100
AcDbEntity
  8
0
 62
1
100
AcDbPolyline
 90
2
 70
1
 10
117.693660
 20
528.101715
 30
0.0
 10
117.693660
 20
528.101715
 30
0.0
  0
SPLINE
  5
298
100
AcDbEntity
  8
0
 62
1
100
AcDbSpline
 70
8
 71
3
 72
8
 73
4
 74
0
 40
0
 40
0
 40
0
 40
0
 40
1
 40
1
 40
1
 40
1
 10
117.720620
 20
695.877490
 30
0.0
 10
117.720620
 20
695.258224
 30
0.0
 10
117.218606
 20
694.756210
 30
0.0
 10
116.599340
 20
694.756210
 30
0.0
  0
SPLINE
  5
299
100
AcDbEntity
  8
0
 62
1
100
AcDbSpline
 70
8
 71
3
 72
8
 73
4
 74
0
 40
0
 40
0
 40
0
 40
0
 40
1
 40
1
 40
1
 40
1
 10
116.599340
 20
694.756210
 30
0.0
 10
115.980074
 20
694.756210
 30
0.0
 10
115.478060
 20
695.258224
 30
0.0
 10
115.478060
 20
695.877490
 30
0.0
  0
SPLINE
  5
29a
100
AcDbEntity
  8
0
 62
1
100
AcDbSpline
 70
8
 71
3
 72
8
 73
4
 74
0
 40
0
 40
0
 40
0
 40
0
 40
1
 40
1
 40
1
 40
1
 10
115.478060
 20
695.877490
 30
0.0
 10
115.478060
 20
696.496756
 30
0.0
 10
115.980074
 20
696.998770
 30
0.0
 10
116.599340
 20
696.998770
 30
0.0
  0
SPLINE
  5
29b
100
AcDbEntity
  8
0
 62
1
100
AcDbSpline
 70
8
 71
3
 72
8
 73
4
 74
0
 40
0
 40
0
 40
0
 40
0
 40
1
 40
1
 40
1
 40
1
 10
116.599340
 20
696.998770
 30
0.0
 10
117.218606
 20
696.998770
 30
0.0
 10
117.720620
 20
696.496756
 30
0.0
 10
117.720620
 20
695.877490
 30
0.0
  0
LWPOLYLINE
  5
29c
100
AcDbEntity
  8
0
 62
5
100
AcDbPolyline
 90
2
 70
1
 10
113.514230
 20
528.101715
 30
0.0
 10
113.514230
 20
528.101715
 30
0.0
  0
SPLINE
  5
29d
100
AcDbEntity
  8
0
 62
1
100
AcDbSpline
 70
8
 71
3
 72
8
 73
4
 74
0
 40
0
 40
0
 40
0
 40
0
 40
1
 40
1
 40
1
 40
1
 10
89.120617
 20
695.877490
 30
0.0
 10
89.120617
 20
695.258224
 30
0.0
 10
88.618602
 20
694.756210
 30
0.0
 10
87.999336
 20
694.756210
 30
0.0
  0
SPLINE
  5
29e
100
AcDbEntity
  8
0
 62
1
100
AcDbSpline
 70
8
 71
3
 72
8
 73
4
 74
0
 40
0
 40
0
 40
0
 40
0
 40
1
 40
1
 40
1
 40
1
 10
87.999336
 20
694.756210
 30
0.0
 10
87.380070
 20
694.756210
 30
0.0
 10
86.878056
 20
695.258224
 30
0.0
 10
86.878056
 20
695.877490
 30
0.0
  0
SPLINE
  5
29f
100
AcDbEntity
  8
0
 62
1
100
AcDbSpline
 70
8
 71
3
 72
8
 73
4
 74
0
 40
0
 40
0
 40
0
 40
0
 40
1
 40
1
 40
1
 40
1
 10
86.878056
 20
695.877490
 30
0.0
 10
86.878056
 20
696.496756
 30
0.0
 10
87.380070
 20
696.998770
 30
0.0
 10
87.999336
 20
696.998770
 30
0.0
  0
SPLINE
  5
2a0
100
AcDbEntity
  8
0
 62
1
100
AcDbSpline
 70
8
 71
3
 72
8
 73
4
 74
0
 40
0
 40
0
 40
0
 40
0
 40
1
 40
1
 40
1
 40
1
 10
87.999336
 20
696.998770
 30
0.0
 10
88.618602
 20
696.998770
 30
0.0
 10
89.120617
 20
696.496756
 30
0.0
 10
89.120617
 20
695.877490
 30
0.0
  0
LWPOLYLINE
  5
2a1
100
AcDbEntity
  8
0
 62
1
100
AcDbPolyline
 90
2
 70
1
 10
117.720620
 20
695.877490
 30
0.0
 10
117.720620
 20
695.877490
 30
0.0
  0
LWPOLYLINE
  5
2a2
100
AcDbEntity
  8
0
 62
1
100
AcDbPolyline
 90
2
 70
1
 10
89.120617
 20
695.877490
 30
0.0
 10
89.120617
 20
695.877490
 30
0.0
  0
ENDSEC
  0
SECTION
  2
OBJECTS
  0
DICTIONARY
  5
C
330
0
100
AcDbDictionary
  3
ACAD_GROUP
350
D
  3
ACAD_MLINESTYLE
350
17
  0
DICTIONARY
  5
D
330
C
100
AcDbDictionary
  0
DICTIONARY
  5
1A
330
C
100
AcDbDictionary
  0
DICTIONARY
  5
17
330
C
100
AcDbDictionary
  3
STANDARD
350
18
  0
DICTIONARY
  5
19
330
C
100
AcDbDictionary
  0
ENDSEC
  0
EOF
