  0
SECTION
  2
HEADER
  9
$ACADVER
  1
AC1014
  9
$HANDSEED
  5
FFFF
  9
$MEASUREMENT
 70
     1
  0
ENDSEC
  0
SECTION
  2
TABLES
  0
TABLE
  2
VPORT
  5
8
330
0
100
AcDbSymbolTable
 70
     4
  0
VPORT
  5
2E
330
8
100
AcDbSymbolTableRecord
100
AcDbViewportTableRecord
  2
*ACTIVE
 70
     0
 10
0.0
 20
0.0
 11
1.0
 21
1.0
 12
210.0
 22
148.5
 13
0.0
 23
0.0
 14
10.0
 24
10.0
 15
10.0
 25
10.0
 16
0.0
 26
0.0
 36
1.0
 17
0.0
 27
0.0
 37
0.0
 40
341.0
 41
1.24
 42
50.0
 43
0.0
 44
0.0
 50
0.0
 51
0.0
 71
     0
 72
   100
 73
     1
 74
     3
 75
     0
 76
     0
 77
     0
 78
     0
  0
ENDTAB
  0
TABLE
  2
LTYPE
  5
5
330
0
100
AcDbSymbolTable
 70
     1
  0
LTYPE
  5
14
330
5
100
AcDbSymbolTableRecord
100
AcDbLinetypeTableRecord
  2
BYBLOCK
 70
     0
  3

 72
    65
 73
     0
 40
0.0
  0
LTYPE
  5
15
330
5
100
AcDbSymbolTableRecord
100
AcDbLinetypeTableRecord
  2
BYLAYER
 70
     0
  3

 72
    65
 73
     0
 40
0.0
  0
LTYPE
  5
16
330
5
100
AcDbSymbolTableRecord
100
AcDbLinetypeTableRecord
  2
CONTINUOUS
 70
     0
  3
Solid line
 72
    65
 73
     0
 40
0.0
  0
ENDTAB
  0
TABLE
  2
LAYER
  5
2
100
AcDbSymbolTable
 70
1
  0
LAYER
  5
50
100
AcDbSymbolTableRecord
100
AcDbLayerTableRecord
  2
0
 70
0
  6
CONTINUOUS
  0
ENDTAB
  0
TABLE
  2
STYLE
  5
3
330
0
100
AcDbSymbolTable
 70
     1
  0
STYLE
  5
11
330
3
100
AcDbSymbolTableRecord
100
AcDbTextStyleTableRecord
  2
STANDARD
 70
     0
 40
0.0
 41
1.0
 50
0.0
 71
     0
 42
2.5
  3
txt
  4

  0
ENDTAB
  0
TABLE
  2
VIEW
  5
6
330
0
100
AcDbSymbolTable
 70
     0
  0
ENDTAB
  0
TABLE
  2
UCS
  5
7
330
0
100
AcDbSymbolTable
 70
     0
  0
ENDTAB
  0
TABLE
  2
APPID
  5
9
330
0
100
AcDbSymbolTable
 70
     2
  0
APPID
  5
12
330
9
100
AcDbSymbolTableRecord
100
AcDbRegAppTableRecord
  2
ACAD
 70
     0
  0
ENDTAB
  0
TABLE
  2
DIMSTYLE
  5
A
330
0
100
AcDbSymbolTable
 70
     1
  0
DIMSTYLE
105
27
330
A
100
AcDbSymbolTableRecord
100
AcDbDimStyleTableRecord
  2
ISO-25
 70
     0
  3

  4

  5

  6

  7

 40
1.0
 41
2.5
 42
0.625
 43
3.75
 44
1.25
 45
0.0
 46
0.0
 47
0.0
 48
0.0
140
2.5
141
2.5
142
0.0
143
0.03937007874016
144
1.0
145
0.0
146
1.0
147
0.625
 71
     0
 72
     0
 73
     0
 74
     0
 75
     0
 76
     0
 77
     1
 78
     8
170
     0
171
     3
172
     1
173
     0
174
     0
175
     0
176
     0
177
     0
178
     0
270
     2
271
     2
272
     2
273
     2
274
     3
340
11
275
     0
280
     0
281
     0
282
     0
283
     0
284
     8
285
     0
286
     0
287
     3
288
     0
  0
ENDTAB
  0
TABLE
  2
BLOCK_RECORD
  5
1
330
0
100
AcDbSymbolTable
 70
     1
  0
BLOCK_RECORD
  5
1F
330
1
100
AcDbSymbolTableRecord
100
AcDbBlockTableRecord
  2
*MODEL_SPACE
  0
BLOCK_RECORD
  5
1B
330
1
100
AcDbSymbolTableRecord
100
AcDbBlockTableRecord
  2
*PAPER_SPACE
  0
ENDTAB
  0
ENDSEC
  0
SECTION
  2
BLOCKS
  0
BLOCK
  5
20
330
1F
100
AcDbEntity
  8
0
100
AcDbBlockBegin
  2
*MODEL_SPACE
 70
     0
 10
0.0
 20
0.0
 30
0.0
  3
*MODEL_SPACE
  1

  0
ENDBLK
  5
21
330
1F
100
AcDbEntity
  8
0
100
AcDbBlockEnd
  0
BLOCK
  5
1C
330
1B
100
AcDbEntity
 67
     1
  8
0
100
AcDbBlockBegin
  2
*PAPER_SPACE
  1

  0
ENDBLK
  5
1D
330
1B
100
AcDbEntity
 67
     1
  8
0
100
AcDbBlockEnd
  0
ENDSEC
  0
SECTION
  2
ENTITIES
  0
LWPOLYLINE
  5
100
100
AcDbEntity
  8
0
 62
7
100
AcDbPolyline
 90
5
 70
1
 10
123.141110
 20
547.102955
 30
0.0
 10
40.141111
 20
547.102955
 30
0.0
 10
40.141111
 20
509.102617
 30
0.0
 10
123.141110
 20
509.102617
 30
0.0
 10
123.141110
 20
547.102955
 30
0.0
  0
LWPOLYLINE
  5
101
100
AcDbEntity
  8
0
 62
7
100
AcDbPolyline
 90
5
 70
1
 10
123.141110
 20
810.673900
 30
0.0
 10
81.141111
 20
810.673900
 30
0.0
 10
81.141111
 20
772.673900
 30
0.0
 10
123.141110
 20
772.673900
 30
0.0
 10
123.141110
 20
810.673900
 30
0.0
  0
LWPOLYLINE
  5
102
100
AcDbEntity
  8
0
 62
1
100
AcDbPolyline
 90
5
 70
1
 10
97.641111
 20
779.673900
 30
0.0
 10
97.641111
 20
783.673900
 30
0.0
 10
106.641110
 20
783.673900
 30
0.0
 10
106.641110
 20
779.673900
 30
0.0
 10
97.641111
 20
779.673900
 30
0.0
  0
LWPOLYLINE
  5
103
100
AcDbEntity
  8
0
 62
7
100
AcDbPolyline
 90
5
 70
1
 10
123.141110
 20
762.673900
 30
0.0
 10
81.141111
 20
762.673900
 30
0.0
 10
81.141111
 20
724.673900
 30
0.0
 10
123.141110
 20
724.673900
 30
0.0
 10
123.141110
 20
762.673900
 30
0.0
  0
LWPOLYLINE
  5
104
100
AcDbEntity
  8
0
 62
5
100
AcDbPolyline
 90
5
 70
1
 10
86.141111
 20
731.673900
 30
0.0
 10
86.141111
 20
755.673900
 30
0.0
 10
118.141110
 20
755.673900
 30
0.0
 10
118.141110
 20
731.673900
 30
0.0
 10
86.141111
 20
731.673900
 30
0.0
  0
LWPOLYLINE
  5
105
100
AcDbEntity
  8
0
 62
7
100
AcDbPolyline
 90
5
 70
1
 10
123.141110
 20
666.673900
 30
0.0
 10
40.141111
 20
666.673900
 30
0.0
 10
40.141111
 20
628.673900
 30
0.0
 10
123.141110
 20
628.673900
 30
0.0
 10
123.141110
 20
666.673900
 30
0.0
  0
LWPOLYLINE
  5
106
100
AcDbEntity
  8
0
 62
5
100
AcDbPolyline
 90
5
 70
1
 10
86.141111
 20
635.673900
 30
0.0
 10
86.141111
 20
659.673900
 30
0.0
 10
118.141110
 20
659.673900
 30
0.0
 10
118.141110
 20
635.673900
 30
0.0
 10
86.141111
 20
635.673900
 30
0.0
  0
LWPOLYLINE
  5
107
100
AcDbEntity
  8
0
 62
5
100
AcDbPolyline
 90
9
 70
1
 10
58.841111
 20
642.173900
 30
0.0
 10
58.841111
 20
659.573900
 30
0.0
 10
67.441111
 20
659.573900
 30
0.0
 10
67.441111
 20
656.573900
 30
0.0
 10
73.141111
 20
656.573900
 30
0.0
 10
73.141111
 20
653.573900
 30
0.0
 10
67.441111
 20
653.573900
 30
0.0
 10
67.441111
 20
642.173900
 30
0.0
 10
58.841111
 20
642.173900
 30
0.0
  0
LWPOLYLINE
  5
108
100
AcDbEntity
  8
0
 62
1
100
AcDbPolyline
 90
5
 70
1
 10
78.141111
 20
642.673900
 30
0.0
 10
78.141111
 20
656.673900
 30
0.0
 10
80.141111
 20
656.673900
 30
0.0
 10
80.141111
 20
642.673900
 30
0.0
 10
78.141111
 20
642.673900
 30
0.0
  0
LWPOLYLINE
  5
109
100
AcDbEntity
  8
0
 62
1
100
AcDbPolyline
 90
5
 70
1
 10
45.141111
 20
642.673900
 30
0.0
 10
45.141111
 20
656.673900
 30
0.0
 10
47.141111
 20
656.673900
 30
0.0
 10
47.141111
 20
642.673900
 30
0.0
 10
45.141111
 20
642.673900
 30
0.0
  0
LWPOLYLINE
  5
10a
100
AcDbEntity
  8
0
 62
7
100
AcDbPolyline
 90
13
 70
1
 10
123.141110
 20
471.354706
 30
0.0
 10
71.141111
 20
471.354706
 30
0.0
 10
71.141111
 20
464.854666
 30
0.0
 10
75.641111
 20
464.854666
 30
0.0
 10
75.641111
 20
440.854514
 30
0.0
 10
50.641111
 20
440.854514
 30
0.0
 10
50.641111
 20
464.854666
 30
0.0
 10
55.141111
 20
464.854666
 30
0.0
 10
55.141111
 20
471.354706
 30
0.0
 10
40.141111
 20
471.354706
 30
0.0
 10
40.141111
 20
433.354482
 30
0.0
 10
123.141110
 20
433.354482
 30
0.0
 10
123.141110
 20
471.354706
 30
0.0
  0
LWPOLYLINE
  5
10b
100
AcDbEntity
  8
0
 62
5
100
AcDbPolyline
 90
5
 70
1
 10
86.141111
 20
440.354504
 30
0.0
 10
86.141111
 20
464.354656
 30
0.0
 10
118.141110
 20
464.354656
 30
0.0
 10
118.141110
 20
440.354504
 30
0.0
 10
86.141111
 20
440.354504
 30
0.0
  0
LWPOLYLINE
  5
10c
100
AcDbEntity
  8
0
 62
1
100
AcDbPolyline
 90
5
 70
1
 10
45.141111
 20
447.354551
 30
0.0
 10
45.141111
 20
461.354639
 30
0.0
 10
47.141111
 20
461.354639
 30
0.0
 10
47.141111
 20
447.354551
 30
0.0
 10
45.141111
 20
447.354551
 30
0.0
  0
LWPOLYLINE
  5
10d
100
AcDbEntity
  8
0
 62
1
100
AcDbPolyline
 90
5
 70
1
 10
78.141111
 20
447.354551
 30
0.0
 10
78.141111
 20
461.354639
 30
0.0
 10
80.141111
 20
461.354639
 30
0.0
 10
80.141111
 20
447.354551
 30
0.0
 10
78.141111
 20
447.354551
 30
0.0
  0
LWPOLYLINE
  5
10e
100
AcDbEntity
  8
0
 62
7
100
AcDbPolyline
 90
13
 70
1
 10
123.141110
 20
423.354473
 30
0.0
 10
71.141111
 20
423.354473
 30
0.0
 10
71.141111
 20
416.854468
 30
0.0
 10
74.141111
 20
416.854468
 30
0.0
 10
74.141111
 20
410.354466
 30
0.0
 10
52.141111
 20
410.354466
 30
0.0
 10
52.141111
 20
416.854468
 30
0.0
 10
55.141111
 20
416.854468
 30
0.0
 10
55.141111
 20
423.354473
 30
0.0
 10
40.141111
 20
423.354473
 30
0.0
 10
40.141111
 20
385.354456
 30
0.0
 10
123.141110
 20
385.354456
 30
0.0
 10
123.141110
 20
423.354473
 30
0.0
  0
LWPOLYLINE
  5
10f
100
AcDbEntity
  8
0
 62
5
100
AcDbPolyline
 90
5
 70
1
 10
86.141111
 20
392.354466
 30
0.0
 10
86.141111
 20
416.354467
 30
0.0
 10
118.141110
 20
416.354467
 30
0.0
 10
118.141110
 20
392.354466
 30
0.0
 10
86.141111
 20
392.354466
 30
0.0
  0
LWPOLYLINE
  5
110
100
AcDbEntity
  8
0
 62
1
100
AcDbPolyline
 90
5
 70
1
 10
45.141111
 20
399.354466
 30
0.0
 10
45.141111
 20
413.354466
 30
0.0
 10
47.141111
 20
413.354466
 30
0.0
 10
47.141111
 20
399.354466
 30
0.0
 10
45.141111
 20
399.354466
 30
0.0
  0
LWPOLYLINE
  5
111
100
AcDbEntity
  8
0
 62
1
100
AcDbPolyline
 90
5
 70
1
 10
78.141111
 20
399.354466
 30
0.0
 10
78.141111
 20
413.354466
 30
0.0
 10
80.141111
 20
413.354466
 30
0.0
 10
80.141111
 20
399.354466
 30
0.0
 10
78.141111
 20
399.354466
 30
0.0
  0
LWPOLYLINE
  5
112
100
AcDbEntity
  8
0
 62
1
100
AcDbPolyline
 90
5
 70
1
 10
67.141111
 20
386.354466
 30
0.0
 10
67.141111
 20
387.354466
 30
0.0
 10
75.141111
 20
387.354466
 30
0.0
 10
75.141111
 20
386.354466
 30
0.0
 10
67.141111
 20
386.354466
 30
0.0
  0
LWPOLYLINE
  5
113
100
AcDbEntity
  8
0
 62
7
100
AcDbPolyline
 90
5
 70
1
 10
123.141110
 20
619.758070
 30
0.0
 10
40.141111
 20
619.758070
 30
0.0
 10
40.141111
 20
581.758670
 30
0.0
 10
123.141110
 20
581.758670
 30
0.0
 10
123.141110
 20
619.758070
 30
0.0
  0
LWPOLYLINE
  5
114
100
AcDbEntity
  8
0
 62
5
100
AcDbPolyline
 90
5
 70
1
 10
86.141111
 20
588.758560
 30
0.0
 10
86.141111
 20
612.758180
 30
0.0
 10
118.141110
 20
612.758180
 30
0.0
 10
118.141110
 20
588.758560
 30
0.0
 10
86.141111
 20
588.758560
 30
0.0
  0
LWPOLYLINE
  5
115
100
AcDbEntity
  8
0
 62
1
100
AcDbPolyline
 90
5
 70
1
 10
45.141111
 20
595.758450
 30
0.0
 10
45.141111
 20
609.758230
 30
0.0
 10
47.141111
 20
609.758230
 30
0.0
 10
47.141111
 20
595.758450
 30
0.0
 10
45.141111
 20
595.758450
 30
0.0
  0
LWPOLYLINE
  5
116
100
AcDbEntity
  8
0
 62
1
100
AcDbPolyline
 90
5
 70
1
 10
78.141111
 20
595.758450
 30
0.0
 10
78.141111
 20
609.758230
 30
0.0
 10
80.141111
 20
609.758230
 30
0.0
 10
80.141111
 20
595.758450
 30
0.0
 10
78.141111
 20
595.758450
 30
0.0
  0
SPLINE
  5
117
100
AcDbEntity
  8
0
 62
3
100
AcDbSpline
 70
8
 71
3
 72
8
 73
4
 74
0
 40
0
 40
0
 40
0
 40
0
 40
1
 40
1
 40
1
 40
1
 10
96.096283
 20
804.682674
 30
0.0
 10
95.689070
 20
804.682674
 30
0.0
 10
95.281858
 20
804.682674
 30
0.0
 10
94.874646
 20
804.682674
 30
0.0
  0
SPLINE
  5
118
100
AcDbEntity
  8
0
 62
3
100
AcDbSpline
 70
8
 71
3
 72
8
 73
4
 74
0
 40
0
 40
0
 40
0
 40
0
 40
1
 40
1
 40
1
 40
1
 10
94.874646
 20
804.682674
 30
0.0
 10
94.874646
 20
804.515655
 30
0.0
 10
94.874646
 20
804.348628
 30
0.0
 10
94.874646
 20
804.181609
 30
0.0
  0
SPLINE
  5
119
100
AcDbEntity
  8
0
 62
3
100
AcDbSpline
 70
8
 71
3
 72
8
 73
4
 74
0
 40
0
 40
0
 40
0
 40
0
 40
1
 40
1
 40
1
 40
1
 10
94.874646
 20
804.181609
 30
0.0
 10
95.097340
 20
804.181609
 30
0.0
 10
95.320034
 20
804.181609
 30
0.0
 10
95.542728
 20
804.181609
 30
0.0
  0
SPLINE
  5
11a
100
AcDbEntity
  8
0
 62
3
100
AcDbSpline
 70
8
 71
3
 72
8
 73
4
 74
0
 40
0
 40
0
 40
0
 40
0
 40
1
 40
1
 40
1
 40
1
 10
95.542728
 20
804.181609
 30
0.0
 10
95.542728
 20
803.963684
 30
0.0
 10
95.542728
 20
803.745767
 30
0.0
 10
95.542728
 20
803.527842
 30
0.0
  0
SPLINE
  5
11b
100
AcDbEntity
  8
0
 62
3
100
AcDbSpline
 70
8
 71
3
 72
8
 73
4
 74
0
 40
0
 40
0
 40
0
 40
0
 40
1
 40
1
 40
1
 40
1
 10
95.542728
 20
803.527842
 30
0.0
 10
95.067061
 20
803.284709
 30
0.0
 10
94.437630
 20
803.396907
 30
0.0
 10
94.089284
 20
803.805752
 30
0.0
  0
SPLINE
  5
11c
100
AcDbEntity
  8
0
 62
3
100
AcDbSpline
 70
8
 71
3
 72
8
 73
4
 74
0
 40
0
 40
0
 40
0
 40
0
 40
1
 40
1
 40
1
 40
1
 10
94.089284
 20
803.805752
 30
0.0
 10
93.749727
 20
804.179790
 30
0.0
 10
93.674212
 20
804.770686
 30
0.0
 10
93.933082
 20
805.209038
 30
0.0
  0
SPLINE
  5
11d
100
AcDbEntity
  8
0
 62
3
100
AcDbSpline
 70
8
 71
3
 72
8
 73
4
 74
0
 40
0
 40
0
 40
0
 40
0
 40
1
 40
1
 40
1
 40
1
 10
93.933082
 20
805.209038
 30
0.0
 10
94.158478
 20
805.625331
 30
0.0
 10
94.639726
 20
805.883218
 30
0.0
 10
95.112040
 20
805.827855
 30
0.0
  0
SPLINE
  5
11e
100
AcDbEntity
  8
0
 62
3
100
AcDbSpline
 70
8
 71
3
 72
8
 73
4
 74
0
 40
0
 40
0
 40
0
 40
0
 40
1
 40
1
 40
1
 40
1
 10
95.112040
 20
805.827855
 30
0.0
 10
95.348654
 20
805.805608
 30
0.0
 10
95.579518
 20
805.713846
 30
0.0
 10
95.762288
 20
805.561122
 30
0.0
  0
SPLINE
  5
11f
100
AcDbEntity
  8
0
 62
3
100
AcDbSpline
 70
8
 71
3
 72
8
 73
4
 74
0
 40
0
 40
0
 40
0
 40
0
 40
1
 40
1
 40
1
 40
1
 10
95.762288
 20
805.561122
 30
0.0
 10
95.762288
 20
805.779047
 30
0.0
 10
95.762288
 20
805.996964
 30
0.0
 10
95.762288
 20
806.214889
 30
0.0
  0
SPLINE
  5
120
100
AcDbEntity
  8
0
 62
3
100
AcDbSpline
 70
8
 71
3
 72
8
 73
4
 74
0
 40
0
 40
0
 40
0
 40
0
 40
1
 40
1
 40
1
 40
1
 10
95.762288
 20
806.214889
 30
0.0
 10
95.072414
 20
806.557180
 30
0.0
 10
94.167948
 20
806.377812
 30
0.0
 10
93.666692
 20
805.790929
 30
0.0
  0
SPLINE
  5
121
100
AcDbEntity
  8
0
 62
3
100
AcDbSpline
 70
8
 71
3
 72
8
 73
4
 74
0
 40
0
 40
0
 40
0
 40
0
 40
1
 40
1
 40
1
 40
1
 10
93.666692
 20
805.790929
 30
0.0
 10
93.180967
 20
805.251999
 30
0.0
 10
93.078769
 20
804.405058
 30
0.0
 10
93.438175
 20
803.771862
 30
0.0
  0
SPLINE
  5
122
100
AcDbEntity
  8
0
 62
3
100
AcDbSpline
 70
8
 71
3
 72
8
 73
4
 74
0
 40
0
 40
0
 40
0
 40
0
 40
1
 40
1
 40
1
 40
1
 10
93.438175
 20
803.771862
 30
0.0
 10
93.690018
 20
803.319951
 30
0.0
 10
94.143365
 20
802.961027
 30
0.0
 10
94.660906
 20
802.883373
 30
0.0
  0
SPLINE
  5
123
100
AcDbEntity
  8
0
 62
3
100
AcDbSpline
 70
8
 71
3
 72
8
 73
4
 74
0
 40
0
 40
0
 40
0
 40
0
 40
1
 40
1
 40
1
 40
1
 10
94.660906
 20
802.883373
 30
0.0
 10
95.159309
 20
802.837676
 30
0.0
 10
95.689955
 20
802.923358
 30
0.0
 10
96.096353
 20
803.232496
 30
0.0
  0
SPLINE
  5
124
100
AcDbEntity
  8
0
 62
3
100
AcDbSpline
 70
8
 71
3
 72
8
 73
4
 74
0
 40
0
 40
0
 40
0
 40
0
 40
1
 40
1
 40
1
 40
1
 10
96.096353
 20
803.232496
 30
0.0
 10
96.096306
 20
803.715868
 30
0.0
 10
96.096447
 20
804.199399
 30
0.0
 10
96.096283
 20
804.682674
 30
0.0
  0
LWPOLYLINE
  5
125
100
AcDbEntity
  8
0
 62
1
100
AcDbPolyline
 90
5
 70
1
 10
67.141111
 20
582.758660
 30
0.0
 10
67.141111
 20
583.758650
 30
0.0
 10
75.141111
 20
583.758650
 30
0.0
 10
75.141111
 20
582.758660
 30
0.0
 10
67.141111
 20
582.758660
 30
0.0
  0
LWPOLYLINE
  5
126
100
AcDbEntity
  8
0
 62
3
100
AcDbPolyline
 90
2
 70
1
 10
96.096283
 20
804.682674
 30
0.0
 10
96.096283
 20
804.682674
 30
0.0
  0
LWPOLYLINE
  5
127
100
AcDbEntity
  8
0
 62
3
100
AcDbPolyline
 90
9
 70
1
 10
103.245957
 20
802.873873
 30
0.0
 10
103.852003
 20
802.873873
 30
0.0
 10
102.315413
 20
806.576954
 30
0.0
 10
100.774053
 20
802.873873
 30
0.0
 10
101.384870
 20
802.873873
 30
0.0
 10
101.685508
 20
803.632622
 30
0.0
 10
102.945320
 20
803.632622
 30
0.0
 10
103.245957
 20
802.873873
 30
0.0
 10
103.245957
 20
802.873873
 30
0.0
  0
SPLINE
  5
128
100
AcDbEntity
  8
0
 62
3
100
AcDbSpline
 70
8
 71
3
 72
8
 73
4
 74
0
 40
0
 40
0
 40
0
 40
0
 40
1
 40
1
 40
1
 40
1
 10
109.881447
 20
802.873873
 30
0.0
 10
110.367059
 20
802.866131
 30
0.0
 10
110.882217
 20
803.109655
 30
0.0
 10
111.088374
 20
803.567827
 30
0.0
  0
SPLINE
  5
129
100
AcDbEntity
  8
0
 62
3
100
AcDbSpline
 70
8
 71
3
 72
8
 73
4
 74
0
 40
0
 40
0
 40
0
 40
0
 40
1
 40
1
 40
1
 40
1
 10
111.088374
 20
803.567827
 30
0.0
 10
111.234995
 20
803.881475
 30
0.0
 10
111.184421
 20
804.231244
 30
0.0
 10
111.193751
 20
804.565681
 30
0.0
  0
SPLINE
  5
12a
100
AcDbEntity
  8
0
 62
3
100
AcDbSpline
 70
8
 71
3
 72
8
 73
4
 74
0
 40
0
 40
0
 40
0
 40
0
 40
1
 40
1
 40
1
 40
1
 10
111.193751
 20
804.565681
 30
0.0
 10
111.193751
 20
805.182026
 30
0.0
 10
111.193751
 20
805.798363
 30
0.0
 10
111.193751
 20
806.414707
 30
0.0
  0
SPLINE
  5
12b
100
AcDbEntity
  8
0
 62
3
100
AcDbSpline
 70
8
 71
3
 72
8
 73
4
 74
0
 40
0
 40
0
 40
0
 40
0
 40
1
 40
1
 40
1
 40
1
 10
111.193751
 20
806.414707
 30
0.0
 10
111.007643
 20
806.414707
 30
0.0
 10
110.821534
 20
806.414707
 30
0.0
 10
110.635426
 20
806.414707
 30
0.0
  0
SPLINE
  5
12c
100
AcDbEntity
  8
0
 62
3
100
AcDbSpline
 70
8
 71
3
 72
8
 73
4
 74
0
 40
0
 40
0
 40
0
 40
0
 40
1
 40
1
 40
1
 40
1
 10
110.635426
 20
806.414707
 30
0.0
 10
110.634148
 20
805.616026
 30
0.0
 10
110.637906
 20
804.817239
 30
0.0
 10
110.633547
 20
804.018633
 30
0.0
  0
SPLINE
  5
12d
100
AcDbEntity
  8
0
 62
3
100
AcDbSpline
 70
8
 71
3
 72
8
 73
4
 74
0
 40
0
 40
0
 40
0
 40
0
 40
1
 40
1
 40
1
 40
1
 10
110.633547
 20
804.018633
 30
0.0
 10
110.631066
 20
803.768232
 30
0.0
 10
110.445291
 20
803.553036
 30
0.0
 10
110.210171
 20
803.482912
 30
0.0
  0
SPLINE
  5
12e
100
AcDbEntity
  8
0
 62
3
100
AcDbSpline
 70
8
 71
3
 72
8
 73
4
 74
0
 40
0
 40
0
 40
0
 40
0
 40
1
 40
1
 40
1
 40
1
 10
110.210171
 20
803.482912
 30
0.0
 10
109.879679
 20
803.369797
 30
0.0
 10
109.451546
 20
803.421431
 30
0.0
 10
109.227868
 20
803.712576
 30
0.0
  0
SPLINE
  5
12f
100
AcDbEntity
  8
0
 62
3
100
AcDbSpline
 70
8
 71
3
 72
8
 73
4
 74
0
 40
0
 40
0
 40
0
 40
0
 40
1
 40
1
 40
1
 40
1
 10
109.227868
 20
803.712576
 30
0.0
 10
109.079015
 20
803.921805
 30
0.0
 10
109.133181
 20
804.184961
 30
0.0
 10
109.122704
 20
804.424554
 30
0.0
  0
SPLINE
  5
130
100
AcDbEntity
  8
0
 62
3
100
AcDbSpline
 70
8
 71
3
 72
8
 73
4
 74
0
 40
0
 40
0
 40
0
 40
0
 40
1
 40
1
 40
1
 40
1
 10
109.122704
 20
804.424554
 30
0.0
 10
109.122704
 20
805.087933
 30
0.0
 10
109.122704
 20
805.751320
 30
0.0
 10
109.122704
 20
806.414707
 30
0.0
  0
SPLINE
  5
131
100
AcDbEntity
  8
0
 62
3
100
AcDbSpline
 70
8
 71
3
 72
8
 73
4
 74
0
 40
0
 40
0
 40
0
 40
0
 40
1
 40
1
 40
1
 40
1
 10
109.122704
 20
806.414707
 30
0.0
 10
108.938186
 20
806.414707
 30
0.0
 10
108.753668
 20
806.414707
 30
0.0
 10
108.569151
 20
806.414707
 30
0.0
  0
SPLINE
  5
132
100
AcDbEntity
  8
0
 62
3
100
AcDbSpline
 70
8
 71
3
 72
8
 73
4
 74
0
 40
0
 40
0
 40
0
 40
0
 40
1
 40
1
 40
1
 40
1
 10
108.569151
 20
806.414707
 30
0.0
 10
108.570353
 20
805.611058
 30
0.0
 10
108.566821
 20
804.807333
 30
0.0
 10
108.570954
 20
804.003736
 30
0.0
  0
SPLINE
  5
133
100
AcDbEntity
  8
0
 62
3
100
AcDbSpline
 70
8
 71
3
 72
8
 73
4
 74
0
 40
0
 40
0
 40
0
 40
0
 40
1
 40
1
 40
1
 40
1
 10
108.570954
 20
804.003736
 30
0.0
 10
108.579545
 20
803.587188
 30
0.0
 10
108.839799
 20
803.195675
 30
0.0
 10
109.217653
 20
803.022094
 30
0.0
  0
SPLINE
  5
134
100
AcDbEntity
  8
0
 62
3
100
AcDbSpline
 70
8
 71
3
 72
8
 73
4
 74
0
 40
0
 40
0
 40
0
 40
0
 40
1
 40
1
 40
1
 40
1
 10
109.217653
 20
803.022094
 30
0.0
 10
109.423128
 20
802.920990
 30
0.0
 10
109.653067
 20
802.873827
 30
0.0
 10
109.881460
 20
802.873873
 30
0.0
  0
LWPOLYLINE
  5
135
100
AcDbEntity
  8
0
 62
3
100
AcDbPolyline
 90
5
 70
1
 10
101.885932
 20
804.128914
 30
0.0
 10
102.315413
 20
805.207384
 30
0.0
 10
102.744895
 20
804.128914
 30
0.0
 10
101.885932
 20
804.128914
 30
0.0
 10
101.885932
 20
804.128914
 30
0.0
  0
LWPOLYLINE
  5
136
100
AcDbEntity
  8
0
 62
3
100
AcDbPolyline
 90
2
 70
1
 10
109.881460
 20
802.873873
 30
0.0
 10
109.881447
 20
802.873873
 30
0.0
  0
LWPOLYLINE
  5
137
100
AcDbEntity
  8
0
 62
3
100
AcDbPolyline
 90
10
 70
1
 10
96.024702
 20
795.076400
 30
0.0
 10
96.024702
 20
798.779481
 30
0.0
 10
95.466376
 20
798.779481
 30
0.0
 10
95.466376
 20
796.507998
 30
0.0
 10
93.242616
 20
798.946500
 30
0.0
 10
93.242616
 20
795.238646
 30
0.0
 10
93.796170
 20
795.238646
 30
0.0
 10
93.796170
 20
797.514894
 30
0.0
 10
96.024702
 20
795.076400
 30
0.0
 10
96.024702
 20
795.076400
 30
0.0
  0
LWPOLYLINE
  5
138
100
AcDbEntity
  8
0
 62
3
100
AcDbPolyline
 90
10
 70
1
 10
103.452347
 20
798.779481
 30
0.0
 10
100.947038
 20
798.779481
 30
0.0
 10
100.947038
 20
798.283188
 30
0.0
 10
101.920529
 20
798.283188
 30
0.0
 10
101.920529
 20
795.238646
 30
0.0
 10
102.478855
 20
795.238646
 30
0.0
 10
102.478855
 20
798.283188
 30
0.0
 10
103.452347
 20
798.283188
 30
0.0
 10
103.452347
 20
798.779481
 30
0.0
 10
103.452347
 20
798.779481
 30
0.0
  0
LWPOLYLINE
  5
139
100
AcDbEntity
  8
0
 62
3
100
AcDbPolyline
 90
11
 70
1
 10
109.394701
 20
798.283188
 30
0.0
 10
110.969466
 20
798.283188
 30
0.0
 10
110.969466
 20
798.779481
 30
0.0
 10
108.841147
 20
798.779481
 30
0.0
 10
108.841147
 20
795.238646
 30
0.0
 10
109.394701
 20
795.238646
 30
0.0
 10
109.394701
 20
796.837272
 30
0.0
 10
110.687918
 20
796.837272
 30
0.0
 10
110.687918
 20
797.338329
 30
0.0
 10
109.394701
 20
797.338329
 30
0.0
 10
109.394701
 20
798.283188
 30
0.0
  0
LWPOLYLINE
  5
13a
100
AcDbEntity
  8
0
 62
3
100
AcDbPolyline
 90
9
 70
1
 10
95.610729
 20
787.603420
 30
0.0
 10
96.216776
 20
787.603420
 30
0.0
 10
94.680186
 20
791.306501
 30
0.0
 10
93.138824
 20
787.603420
 30
0.0
 10
93.749643
 20
787.603420
 30
0.0
 10
94.050280
 20
788.362169
 30
0.0
 10
95.310093
 20
788.362169
 30
0.0
 10
95.610729
 20
787.603420
 30
0.0
 10
95.610729
 20
787.603420
 30
0.0
  0
SPLINE
  5
13b
100
AcDbEntity
  8
0
 62
3
100
AcDbSpline
 70
8
 71
3
 72
8
 73
4
 74
0
 40
0
 40
0
 40
0
 40
0
 40
1
 40
1
 40
1
 40
1
 10
103.657543
 20
788.620064
 30
0.0
 10
103.350655
 20
788.268220
 30
0.0
 10
102.849384
 20
788.038187
 30
0.0
 10
102.382404
 20
788.165417
 30
0.0
  0
SPLINE
  5
13c
100
AcDbEntity
  8
0
 62
3
100
AcDbSpline
 70
8
 71
3
 72
8
 73
4
 74
0
 40
0
 40
0
 40
0
 40
0
 40
1
 40
1
 40
1
 40
1
 10
102.382404
 20
788.165417
 30
0.0
 10
101.824661
 20
788.297675
 30
0.0
 10
101.411610
 20
788.863663
 30
0.0
 10
101.465790
 20
789.436122
 30
0.0
  0
SPLINE
  5
13d
100
AcDbEntity
  8
0
 62
3
100
AcDbSpline
 70
8
 71
3
 72
8
 73
4
 74
0
 40
0
 40
0
 40
0
 40
0
 40
1
 40
1
 40
1
 40
1
 10
101.465790
 20
789.436122
 30
0.0
 10
101.500100
 20
790.028295
 30
0.0
 10
102.023181
 20
790.545911
 30
0.0
 10
102.618674
 20
790.560822
 30
0.0
  0
SPLINE
  5
13e
100
AcDbEntity
  8
0
 62
3
100
AcDbSpline
 70
8
 71
3
 72
8
 73
4
 74
0
 40
0
 40
0
 40
0
 40
0
 40
1
 40
1
 40
1
 40
1
 10
102.618674
 20
790.560822
 30
0.0
 10
102.915724
 20
790.576606
 30
0.0
 10
103.218361
 20
790.480980
 30
0.0
 10
103.447575
 20
790.290271
 30
0.0
  0
SPLINE
  5
13f
100
AcDbEntity
  8
0
 62
3
100
AcDbSpline
 70
8
 71
3
 72
8
 73
4
 74
0
 40
0
 40
0
 40
0
 40
0
 40
1
 40
1
 40
1
 40
1
 10
103.447575
 20
790.290271
 30
0.0
 10
103.447575
 20
790.508196
 30
0.0
 10
103.447575
 20
790.726113
 30
0.0
 10
103.447575
 20
790.944038
 30
0.0
  0
SPLINE
  5
140
100
AcDbEntity
  8
0
 62
3
100
AcDbSpline
 70
8
 71
3
 72
8
 73
4
 74
0
 40
0
 40
0
 40
0
 40
0
 40
1
 40
1
 40
1
 40
1
 10
103.447575
 20
790.944038
 30
0.0
 10
102.778426
 20
791.224074
 30
0.0
 10
101.938999
 20
791.091786
 30
0.0
 10
101.413481
 20
790.583783
 30
0.0
  0
SPLINE
  5
141
100
AcDbEntity
  8
0
 62
3
100
AcDbSpline
 70
8
 71
3
 72
8
 73
4
 74
0
 40
0
 40
0
 40
0
 40
0
 40
1
 40
1
 40
1
 40
1
 10
101.413481
 20
790.583783
 30
0.0
 10
101.012412
 20
790.154195
 30
0.0
 10
100.807315
 20
789.523863
 30
0.0
 10
100.962121
 20
788.946744
 30
0.0
  0
SPLINE
  5
142
100
AcDbEntity
  8
0
 62
3
100
AcDbSpline
 70
8
 71
3
 72
8
 73
4
 74
0
 40
0
 40
0
 40
0
 40
0
 40
1
 40
1
 40
1
 40
1
 10
100.962121
 20
788.946744
 30
0.0
 10
101.069585
 20
788.482341
 30
0.0
 10
101.365533
 20
788.060607
 30
0.0
 10
101.784931
 20
787.827493
 30
0.0
  0
SPLINE
  5
143
100
AcDbEntity
  8
0
 62
3
100
AcDbSpline
 70
8
 71
3
 72
8
 73
4
 74
0
 40
0
 40
0
 40
0
 40
0
 40
1
 40
1
 40
1
 40
1
 10
101.784931
 20
787.827493
 30
0.0
 10
102.222842
 20
787.563758
 30
0.0
 10
102.777173
 20
787.497686
 30
0.0
 10
103.258536
 20
787.679316
 30
0.0
  0
SPLINE
  5
144
100
AcDbEntity
  8
0
 62
3
100
AcDbSpline
 70
8
 71
3
 72
8
 73
4
 74
0
 40
0
 40
0
 40
0
 40
0
 40
1
 40
1
 40
1
 40
1
 10
103.258536
 20
787.679316
 30
0.0
 10
103.382600
 20
787.750792
 30
0.0
 10
103.616416
 20
787.774084
 30
0.0
 10
103.657543
 20
787.913678
 30
0.0
  0
SPLINE
  5
145
100
AcDbEntity
  8
0
 62
3
100
AcDbSpline
 70
8
 71
3
 72
8
 73
4
 74
0
 40
0
 40
0
 40
0
 40
0
 40
1
 40
1
 40
1
 40
1
 10
103.657543
 20
787.913678
 30
0.0
 10
103.657543
 20
788.149137
 30
0.0
 10
103.657543
 20
788.384604
 30
0.0
 10
103.657543
 20
788.620064
 30
0.0
  0
LWPOLYLINE
  5
146
100
AcDbEntity
  8
0
 62
3
100
AcDbPolyline
 90
5
 70
1
 10
94.250705
 20
788.858462
 30
0.0
 10
94.680186
 20
789.936932
 30
0.0
 10
95.109668
 20
788.858462
 30
0.0
 10
94.250705
 20
788.858462
 30
0.0
 10
94.250705
 20
788.858462
 30
0.0
  0
LWPOLYLINE
  5
147
100
AcDbEntity
  8
0
 62
3
100
AcDbPolyline
 90
2
 70
1
 10
103.657543
 20
788.620064
 30
0.0
 10
103.657543
 20
788.620064
 30
0.0
  0
LWPOLYLINE
  5
148
100
AcDbEntity
  8
0
 62
3
100
AcDbPolyline
 90
13
 70
1
 10
109.394701
 20
790.647962
 30
0.0
 10
110.964694
 20
790.647962
 30
0.0
 10
110.964694
 20
791.144255
 30
0.0
 10
108.841147
 20
791.144255
 30
0.0
 10
108.841147
 20
787.603420
 30
0.0
 10
110.964694
 20
787.603420
 30
0.0
 10
110.964694
 20
788.104477
 30
0.0
 10
109.394701
 20
788.104477
 30
0.0
 10
109.394701
 20
789.202045
 30
0.0
 10
110.687918
 20
789.202045
 30
0.0
 10
110.687918
 20
789.703103
 30
0.0
 10
109.394701
 20
789.703103
 30
0.0
 10
109.394701
 20
790.647962
 30
0.0
  0
LWPOLYLINE
  5
149
100
AcDbEntity
  8
0
 62
7
100
AcDbPolyline
 90
5
 70
1
 10
123.141110
 20
714.673900
 30
0.0
 10
40.141111
 20
714.673900
 30
0.0
 10
40.141111
 20
676.673900
 30
0.0
 10
123.141110
 20
676.673900
 30
0.0
 10
123.141110
 20
714.673900
 30
0.0
  0
LWPOLYLINE
  5
14a
100
AcDbEntity
  8
0
 62
5
100
AcDbPolyline
 90
5
 70
1
 10
90.641111
 20
684.173900
 30
0.0
 10
90.641111
 20
707.173900
 30
0.0
 10
113.641110
 20
707.173900
 30
0.0
 10
113.641110
 20
684.173900
 30
0.0
 10
90.641111
 20
684.173900
 30
0.0
  0
LWPOLYLINE
  5
14b
100
AcDbEntity
  8
0
 62
1
100
AcDbPolyline
 90
5
 70
1
 10
58.841111
 20
690.173900
 30
0.0
 10
58.841111
 20
698.773900
 30
0.0
 10
67.441111
 20
698.773900
 30
0.0
 10
67.441111
 20
690.173900
 30
0.0
 10
58.841111
 20
690.173900
 30
0.0
  0
ENDSEC
  0
SECTION
  2
OBJECTS
  0
DICTIONARY
  5
C
330
0
100
AcDbDictionary
  3
ACAD_GROUP
350
D
  3
ACAD_MLINESTYLE
350
17
  0
DICTIONARY
  5
D
330
C
100
AcDbDictionary
  0
DICTIONARY
  5
1A
330
C
100
AcDbDictionary
  0
DICTIONARY
  5
17
330
C
100
AcDbDictionary
  3
STANDARD
350
18
  0
DICTIONARY
  5
19
330
C
100
AcDbDictionary
  0
ENDSEC
  0
EOF
