  0
SECTION
  2
HEADER
  9
$ACADVER
  1
AC1014
  9
$HANDSEED
  5
FFFF
  9
$MEASUREMENT
 70
     1
  0
ENDSEC
  0
SECTION
  2
TABLES
  0
TABLE
  2
VPORT
  5
8
330
0
100
AcDbSymbolTable
 70
     4
  0
VPORT
  5
2E
330
8
100
AcDbSymbolTableRecord
100
AcDbViewportTableRecord
  2
*ACTIVE
 70
     0
 10
0.0
 20
0.0
 11
1.0
 21
1.0
 12
210.0
 22
148.5
 13
0.0
 23
0.0
 14
10.0
 24
10.0
 15
10.0
 25
10.0
 16
0.0
 26
0.0
 36
1.0
 17
0.0
 27
0.0
 37
0.0
 40
341.0
 41
1.24
 42
50.0
 43
0.0
 44
0.0
 50
0.0
 51
0.0
 71
     0
 72
   100
 73
     1
 74
     3
 75
     0
 76
     0
 77
     0
 78
     0
  0
ENDTAB
  0
TABLE
  2
LTYPE
  5
5
330
0
100
AcDbSymbolTable
 70
     1
  0
LTYPE
  5
14
330
5
100
AcDbSymbolTableRecord
100
AcDbLinetypeTableRecord
  2
BYBLOCK
 70
     0
  3

 72
    65
 73
     0
 40
0.0
  0
LTYPE
  5
15
330
5
100
AcDbSymbolTableRecord
100
AcDbLinetypeTableRecord
  2
BYLAYER
 70
     0
  3

 72
    65
 73
     0
 40
0.0
  0
LTYPE
  5
16
330
5
100
AcDbSymbolTableRecord
100
AcDbLinetypeTableRecord
  2
CONTINUOUS
 70
     0
  3
Solid line
 72
    65
 73
     0
 40
0.0
  0
ENDTAB
  0
TABLE
  2
LAYER
  5
2
100
AcDbSymbolTable
 70
1
  0
LAYER
  5
50
100
AcDbSymbolTableRecord
100
AcDbLayerTableRecord
  2
0
 70
0
  6
CONTINUOUS
  0
ENDTAB
  0
TABLE
  2
STYLE
  5
3
330
0
100
AcDbSymbolTable
 70
     1
  0
STYLE
  5
11
330
3
100
AcDbSymbolTableRecord
100
AcDbTextStyleTableRecord
  2
STANDARD
 70
     0
 40
0.0
 41
1.0
 50
0.0
 71
     0
 42
2.5
  3
txt
  4

  0
ENDTAB
  0
TABLE
  2
VIEW
  5
6
330
0
100
AcDbSymbolTable
 70
     0
  0
ENDTAB
  0
TABLE
  2
UCS
  5
7
330
0
100
AcDbSymbolTable
 70
     0
  0
ENDTAB
  0
TABLE
  2
APPID
  5
9
330
0
100
AcDbSymbolTable
 70
     2
  0
APPID
  5
12
330
9
100
AcDbSymbolTableRecord
100
AcDbRegAppTableRecord
  2
ACAD
 70
     0
  0
ENDTAB
  0
TABLE
  2
DIMSTYLE
  5
A
330
0
100
AcDbSymbolTable
 70
     1
  0
DIMSTYLE
105
27
330
A
100
AcDbSymbolTableRecord
100
AcDbDimStyleTableRecord
  2
ISO-25
 70
     0
  3

  4

  5

  6

  7

 40
1.0
 41
2.5
 42
0.625
 43
3.75
 44
1.25
 45
0.0
 46
0.0
 47
0.0
 48
0.0
140
2.5
141
2.5
142
0.0
143
0.03937007874016
144
1.0
145
0.0
146
1.0
147
0.625
 71
     0
 72
     0
 73
     0
 74
     0
 75
     0
 76
     0
 77
     1
 78
     8
170
     0
171
     3
172
     1
173
     0
174
     0
175
     0
176
     0
177
     0
178
     0
270
     2
271
     2
272
     2
273
     2
274
     3
340
11
275
     0
280
     0
281
     0
282
     0
283
     0
284
     8
285
     0
286
     0
287
     3
288
     0
  0
ENDTAB
  0
TABLE
  2
BLOCK_RECORD
  5
1
330
0
100
AcDbSymbolTable
 70
     1
  0
BLOCK_RECORD
  5
1F
330
1
100
AcDbSymbolTableRecord
100
AcDbBlockTableRecord
  2
*MODEL_SPACE
  0
BLOCK_RECORD
  5
1B
330
1
100
AcDbSymbolTableRecord
100
AcDbBlockTableRecord
  2
*PAPER_SPACE
  0
ENDTAB
  0
ENDSEC
  0
SECTION
  2
BLOCKS
  0
BLOCK
  5
20
330
1F
100
AcDbEntity
  8
0
100
AcDbBlockBegin
  2
*MODEL_SPACE
 70
     0
 10
0.0
 20
0.0
 30
0.0
  3
*MODEL_SPACE
  1

  0
ENDBLK
  5
21
330
1F
100
AcDbEntity
  8
0
100
AcDbBlockEnd
  0
BLOCK
  5
1C
330
1B
100
AcDbEntity
 67
     1
  8
0
100
AcDbBlockBegin
  2
*PAPER_SPACE
  1

  0
ENDBLK
  5
1D
330
1B
100
AcDbEntity
 67
     1
  8
0
100
AcDbBlockEnd
  0
ENDSEC
  0
SECTION
  2
ENTITIES
  0
LWPOLYLINE
  5
100
100
AcDbEntity
  8
0
 62
7
100
AcDbPolyline
 90
5
 70
1
 10
66.400000
 20
444.800000
 30
0.0
 10
32.800000
 20
444.800000
 30
0.0
 10
32.800000
 20
414.400000
 30
0.0
 10
66.400000
 20
414.400000
 30
0.0
 10
66.400000
 20
444.800000
 30
0.0
  0
LWPOLYLINE
  5
101
100
AcDbEntity
  8
0
 62
7
100
AcDbPolyline
 90
5
 70
1
 10
66.400000
 20
406.400000
 30
0.0
 10
32.800000
 20
406.400000
 30
0.0
 10
32.800000
 20
376.000000
 30
0.0
 10
66.400000
 20
376.000000
 30
0.0
 10
66.400000
 20
406.400000
 30
0.0
  0
LWPOLYLINE
  5
102
100
AcDbEntity
  8
0
 62
1
100
AcDbPolyline
 90
5
 70
1
 10
36.800000
 20
381.600000
 30
0.0
 10
36.800000
 20
400.800000
 30
0.0
 10
62.400000
 20
400.800000
 30
0.0
 10
62.400000
 20
381.600000
 30
0.0
 10
36.800000
 20
381.600000
 30
0.0
  0
LWPOLYLINE
  5
103
100
AcDbEntity
  8
0
 62
7
100
AcDbPolyline
 90
5
 70
1
 10
66.400000
 20
368.000000
 30
0.0
 10
0.000000
 20
368.000000
 30
0.0
 10
0.000000
 20
337.600000
 30
0.0
 10
66.400000
 20
337.600000
 30
0.0
 10
66.400000
 20
368.000000
 30
0.0
  0
LWPOLYLINE
  5
104
100
AcDbEntity
  8
0
 62
1
100
AcDbPolyline
 90
5
 70
1
 10
40.400000
 20
343.600000
 30
0.0
 10
40.400000
 20
362.000000
 30
0.0
 10
58.800000
 20
362.000000
 30
0.0
 10
58.800000
 20
343.600000
 30
0.0
 10
40.400000
 20
343.600000
 30
0.0
  0
LWPOLYLINE
  5
105
100
AcDbEntity
  8
0
 62
1
100
AcDbPolyline
 90
5
 70
1
 10
14.960000
 20
348.400000
 30
0.0
 10
14.960000
 20
355.280000
 30
0.0
 10
21.840000
 20
355.280000
 30
0.0
 10
21.840000
 20
348.400000
 30
0.0
 10
14.960000
 20
348.400000
 30
0.0
  0
LWPOLYLINE
  5
106
100
AcDbEntity
  8
0
 62
7
100
AcDbPolyline
 90
5
 70
1
 10
66.400000
 20
329.600000
 30
0.0
 10
0.000000
 20
329.600000
 30
0.0
 10
0.000000
 20
299.200000
 30
0.0
 10
66.400000
 20
299.200000
 30
0.0
 10
66.400000
 20
329.600000
 30
0.0
  0
LWPOLYLINE
  5
107
100
AcDbEntity
  8
0
 62
1
100
AcDbPolyline
 90
5
 70
1
 10
36.800000
 20
304.800000
 30
0.0
 10
36.800000
 20
324.000000
 30
0.0
 10
62.400000
 20
324.000000
 30
0.0
 10
62.400000
 20
304.800000
 30
0.0
 10
36.800000
 20
304.800000
 30
0.0
  0
LWPOLYLINE
  5
108
100
AcDbEntity
  8
0
 62
1
100
AcDbPolyline
 90
9
 70
1
 10
14.960000
 20
310.000000
 30
0.0
 10
14.960000
 20
323.920000
 30
0.0
 10
21.840000
 20
323.920000
 30
0.0
 10
21.840000
 20
321.520000
 30
0.0
 10
26.400000
 20
321.520000
 30
0.0
 10
26.400000
 20
319.120000
 30
0.0
 10
21.840000
 20
319.120000
 30
0.0
 10
21.840000
 20
310.000000
 30
0.0
 10
14.960000
 20
310.000000
 30
0.0
  0
LWPOLYLINE
  5
109
100
AcDbEntity
  8
0
 62
1
100
AcDbPolyline
 90
5
 70
1
 10
4.000000
 20
310.400000
 30
0.0
 10
4.000000
 20
321.600000
 30
0.0
 10
5.600000
 20
321.600000
 30
0.0
 10
5.600000
 20
310.400000
 30
0.0
 10
4.000000
 20
310.400000
 30
0.0
  0
LWPOLYLINE
  5
10a
100
AcDbEntity
  8
0
 62
1
100
AcDbPolyline
 90
5
 70
1
 10
30.400000
 20
310.400000
 30
0.0
 10
30.400000
 20
321.600000
 30
0.0
 10
32.000000
 20
321.600000
 30
0.0
 10
32.000000
 20
310.400000
 30
0.0
 10
30.400000
 20
310.400000
 30
0.0
  0
LWPOLYLINE
  5
10b
100
AcDbEntity
  8
0
 62
7
100
AcDbPolyline
 90
13
 70
1
 10
66.400000
 20
291.200000
 30
0.0
 10
24.800000
 20
291.200000
 30
0.0
 10
24.800000
 20
286.000000
 30
0.0
 10
28.400000
 20
286.000000
 30
0.0
 10
28.400000
 20
266.800000
 30
0.0
 10
8.400000
 20
266.800000
 30
0.0
 10
8.400000
 20
286.000000
 30
0.0
 10
12.000000
 20
286.000000
 30
0.0
 10
12.000000
 20
291.200000
 30
0.0
 10
0.000000
 20
291.200000
 30
0.0
 10
0.000000
 20
260.800000
 30
0.0
 10
66.400000
 20
260.800000
 30
0.0
 10
66.400000
 20
291.200000
 30
0.0
  0
LWPOLYLINE
  5
10c
100
AcDbEntity
  8
0
 62
1
100
AcDbPolyline
 90
5
 70
1
 10
36.800000
 20
266.400000
 30
0.0
 10
36.800000
 20
285.600000
 30
0.0
 10
62.400000
 20
285.600000
 30
0.0
 10
62.400000
 20
266.400000
 30
0.0
 10
36.800000
 20
266.400000
 30
0.0
  0
LWPOLYLINE
  5
10d
100
AcDbEntity
  8
0
 62
1
100
AcDbPolyline
 90
5
 70
1
 10
4.000000
 20
272.000000
 30
0.0
 10
4.000000
 20
283.200000
 30
0.0
 10
5.600000
 20
283.200000
 30
0.0
 10
5.600000
 20
272.000000
 30
0.0
 10
4.000000
 20
272.000000
 30
0.0
  0
LWPOLYLINE
  5
10e
100
AcDbEntity
  8
0
 62
1
100
AcDbPolyline
 90
5
 70
1
 10
30.400000
 20
272.000000
 30
0.0
 10
30.400000
 20
283.200000
 30
0.0
 10
32.000000
 20
283.200000
 30
0.0
 10
32.000000
 20
272.000000
 30
0.0
 10
30.400000
 20
272.000000
 30
0.0
  0
LWPOLYLINE
  5
10f
100
AcDbEntity
  8
0
 62
7
100
AcDbPolyline
 90
5
 70
1
 10
66.400000
 20
252.800000
 30
0.0
 10
0.000000
 20
252.800000
 30
0.0
 10
0.000000
 20
222.400000
 30
0.0
 10
66.400000
 20
222.400000
 30
0.0
 10
66.400000
 20
252.800000
 30
0.0
  0
LWPOLYLINE
  5
110
100
AcDbEntity
  8
0
 62
1
100
AcDbPolyline
 90
5
 70
1
 10
36.800000
 20
228.000000
 30
0.0
 10
36.800000
 20
247.200000
 30
0.0
 10
62.400000
 20
247.200000
 30
0.0
 10
62.400000
 20
228.000000
 30
0.0
 10
36.800000
 20
228.000000
 30
0.0
  0
LWPOLYLINE
  5
111
100
AcDbEntity
  8
0
 62
1
100
AcDbPolyline
 90
5
 70
1
 10
30.400000
 20
233.600000
 30
0.0
 10
30.400000
 20
244.800000
 30
0.0
 10
32.000000
 20
244.800000
 30
0.0
 10
32.000000
 20
233.600000
 30
0.0
 10
30.400000
 20
233.600000
 30
0.0
  0
LWPOLYLINE
  5
112
100
AcDbEntity
  8
0
 62
1
100
AcDbPolyline
 90
5
 70
1
 10
4.000000
 20
233.600000
 30
0.0
 10
4.000000
 20
244.800000
 30
0.0
 10
5.600000
 20
244.800000
 30
0.0
 10
5.600000
 20
233.600000
 30
0.0
 10
4.000000
 20
233.600000
 30
0.0
  0
SPLINE
  5
113
100
AcDbEntity
  8
0
 62
1
100
AcDbSpline
 70
8
 71
3
 72
8
 73
4
 74
0
 40
0
 40
0
 40
0
 40
0
 40
1
 40
1
 40
1
 40
1
 10
39.136953
 20
352.963072
 30
0.0
 10
39.136951
 20
352.493426
 30
0.0
 10
38.756227
 20
352.112704
 30
0.0
 10
38.286582
 20
352.112704
 30
0.0
  0
SPLINE
  5
114
100
AcDbEntity
  8
0
 62
1
100
AcDbSpline
 70
8
 71
3
 72
8
 73
4
 74
0
 40
0
 40
0
 40
0
 40
0
 40
1
 40
1
 40
1
 40
1
 10
38.286582
 20
352.112704
 30
0.0
 10
37.816936
 20
352.112704
 30
0.0
 10
37.436212
 20
352.493426
 30
0.0
 10
37.436210
 20
352.963072
 30
0.0
  0
SPLINE
  5
115
100
AcDbEntity
  8
0
 62
1
100
AcDbSpline
 70
8
 71
3
 72
8
 73
4
 74
0
 40
0
 40
0
 40
0
 40
0
 40
1
 40
1
 40
1
 40
1
 10
37.436210
 20
352.963072
 30
0.0
 10
37.436209
 20
353.188605
 30
0.0
 10
37.525801
 20
353.404902
 30
0.0
 10
37.685277
 20
353.564378
 30
0.0
  0
SPLINE
  5
116
100
AcDbEntity
  8
0
 62
1
100
AcDbSpline
 70
8
 71
3
 72
8
 73
4
 74
0
 40
0
 40
0
 40
0
 40
0
 40
1
 40
1
 40
1
 40
1
 10
37.685277
 20
353.564378
 30
0.0
 10
37.844752
 20
353.723855
 30
0.0
 10
38.061048
 20
353.813448
 30
0.0
 10
38.286582
 20
353.813448
 30
0.0
  0
SPLINE
  5
117
100
AcDbEntity
  8
0
 62
1
100
AcDbSpline
 70
8
 71
3
 72
8
 73
4
 74
0
 40
0
 40
0
 40
0
 40
0
 40
1
 40
1
 40
1
 40
1
 10
38.286582
 20
353.813448
 30
0.0
 10
38.512115
 20
353.813448
 30
0.0
 10
38.728411
 20
353.723855
 30
0.0
 10
38.887887
 20
353.564378
 30
0.0
  0
SPLINE
  5
118
100
AcDbEntity
  8
0
 62
1
100
AcDbSpline
 70
8
 71
3
 72
8
 73
4
 74
0
 40
0
 40
0
 40
0
 40
0
 40
1
 40
1
 40
1
 40
1
 10
38.887887
 20
353.564378
 30
0.0
 10
39.047362
 20
353.404902
 30
0.0
 10
39.136954
 20
353.188605
 30
0.0
 10
39.136953
 20
352.963072
 30
0.0
  0
LWPOLYLINE
  5
119
100
AcDbEntity
  8
0
 62
1
100
AcDbPolyline
 90
5
 70
1
 10
21.600000
 20
223.200000
 30
0.0
 10
21.600000
 20
224.000000
 30
0.0
 10
28.000000
 20
224.000000
 30
0.0
 10
28.000000
 20
223.200000
 30
0.0
 10
21.600000
 20
223.200000
 30
0.0
  0
SPLINE
  5
11a
100
AcDbEntity
  8
0
 62
1
100
AcDbSpline
 70
8
 71
3
 72
8
 73
4
 74
0
 40
0
 40
0
 40
0
 40
0
 40
1
 40
1
 40
1
 40
1
 10
62.016954
 20
352.963072
 30
0.0
 10
62.016953
 20
352.493426
 30
0.0
 10
61.636229
 20
352.112704
 30
0.0
 10
61.166583
 20
352.112704
 30
0.0
  0
SPLINE
  5
11b
100
AcDbEntity
  8
0
 62
1
100
AcDbSpline
 70
8
 71
3
 72
8
 73
4
 74
0
 40
0
 40
0
 40
0
 40
0
 40
1
 40
1
 40
1
 40
1
 10
61.166583
 20
352.112704
 30
0.0
 10
60.696937
 20
352.112704
 30
0.0
 10
60.316214
 20
352.493426
 30
0.0
 10
60.316212
 20
352.963072
 30
0.0
  0
SPLINE
  5
11c
100
AcDbEntity
  8
0
 62
1
100
AcDbSpline
 70
8
 71
3
 72
8
 73
4
 74
0
 40
0
 40
0
 40
0
 40
0
 40
1
 40
1
 40
1
 40
1
 10
60.316212
 20
352.963072
 30
0.0
 10
60.316211
 20
353.188605
 30
0.0
 10
60.405803
 20
353.404902
 30
0.0
 10
60.565278
 20
353.564378
 30
0.0
  0
SPLINE
  5
11d
100
AcDbEntity
  8
0
 62
1
100
AcDbSpline
 70
8
 71
3
 72
8
 73
4
 74
0
 40
0
 40
0
 40
0
 40
0
 40
1
 40
1
 40
1
 40
1
 10
60.565278
 20
353.564378
 30
0.0
 10
60.724754
 20
353.723855
 30
0.0
 10
60.941050
 20
353.813448
 30
0.0
 10
61.166583
 20
353.813448
 30
0.0
  0
SPLINE
  5
11e
100
AcDbEntity
  8
0
 62
1
100
AcDbSpline
 70
8
 71
3
 72
8
 73
4
 74
0
 40
0
 40
0
 40
0
 40
0
 40
1
 40
1
 40
1
 40
1
 10
61.166583
 20
353.813448
 30
0.0
 10
61.392116
 20
353.813448
 30
0.0
 10
61.608412
 20
353.723855
 30
0.0
 10
61.767888
 20
353.564378
 30
0.0
  0
SPLINE
  5
11f
100
AcDbEntity
  8
0
 62
1
100
AcDbSpline
 70
8
 71
3
 72
8
 73
4
 74
0
 40
0
 40
0
 40
0
 40
0
 40
1
 40
1
 40
1
 40
1
 10
61.767888
 20
353.564378
 30
0.0
 10
61.927364
 20
353.404902
 30
0.0
 10
62.016956
 20
353.188605
 30
0.0
 10
62.016954
 20
352.963072
 30
0.0
  0
LWPOLYLINE
  5
120
100
AcDbEntity
  8
0
 62
1
100
AcDbPolyline
 90
2
 70
1
 10
39.136953
 20
352.963072
 30
0.0
 10
39.136953
 20
352.963072
 30
0.0
  0
SPLINE
  5
121
100
AcDbEntity
  8
0
 62
1
100
AcDbSpline
 70
8
 71
3
 72
8
 73
4
 74
0
 40
0
 40
0
 40
0
 40
0
 40
1
 40
1
 40
1
 40
1
 10
36.043664
 20
366.000000
 30
0.0
 10
36.043664
 20
365.313143
 30
0.0
 10
35.486857
 20
364.756336
 30
0.0
 10
34.800000
 20
364.756336
 30
0.0
  0
SPLINE
  5
122
100
AcDbEntity
  8
0
 62
1
100
AcDbSpline
 70
8
 71
3
 72
8
 73
4
 74
0
 40
0
 40
0
 40
0
 40
0
 40
1
 40
1
 40
1
 40
1
 10
34.800000
 20
364.756336
 30
0.0
 10
34.113143
 20
364.756336
 30
0.0
 10
33.556336
 20
365.313143
 30
0.0
 10
33.556336
 20
366.000000
 30
0.0
  0
SPLINE
  5
123
100
AcDbEntity
  8
0
 62
1
100
AcDbSpline
 70
8
 71
3
 72
8
 73
4
 74
0
 40
0
 40
0
 40
0
 40
0
 40
1
 40
1
 40
1
 40
1
 10
33.556336
 20
366.000000
 30
0.0
 10
33.556336
 20
366.686857
 30
0.0
 10
34.113143
 20
367.243664
 30
0.0
 10
34.800000
 20
367.243664
 30
0.0
  0
SPLINE
  5
124
100
AcDbEntity
  8
0
 62
1
100
AcDbSpline
 70
8
 71
3
 72
8
 73
4
 74
0
 40
0
 40
0
 40
0
 40
0
 40
1
 40
1
 40
1
 40
1
 10
34.800000
 20
367.243664
 30
0.0
 10
35.486857
 20
367.243664
 30
0.0
 10
36.043664
 20
366.686857
 30
0.0
 10
36.043664
 20
366.000000
 30
0.0
  0
LWPOLYLINE
  5
125
100
AcDbEntity
  8
0
 62
1
100
AcDbPolyline
 90
2
 70
1
 10
62.016954
 20
352.963072
 30
0.0
 10
62.016954
 20
352.963072
 30
0.0
  0
SPLINE
  5
126
100
AcDbEntity
  8
0
 62
1
100
AcDbSpline
 70
8
 71
3
 72
8
 73
4
 74
0
 40
0
 40
0
 40
0
 40
0
 40
1
 40
1
 40
1
 40
1
 10
65.643664
 20
366.000000
 30
0.0
 10
65.643664
 20
365.313143
 30
0.0
 10
65.086857
 20
364.756336
 30
0.0
 10
64.400000
 20
364.756336
 30
0.0
  0
SPLINE
  5
127
100
AcDbEntity
  8
0
 62
1
100
AcDbSpline
 70
8
 71
3
 72
8
 73
4
 74
0
 40
0
 40
0
 40
0
 40
0
 40
1
 40
1
 40
1
 40
1
 10
64.400000
 20
364.756336
 30
0.0
 10
63.713143
 20
364.756336
 30
0.0
 10
63.156336
 20
365.313143
 30
0.0
 10
63.156336
 20
366.000000
 30
0.0
  0
SPLINE
  5
128
100
AcDbEntity
  8
0
 62
1
100
AcDbSpline
 70
8
 71
3
 72
8
 73
4
 74
0
 40
0
 40
0
 40
0
 40
0
 40
1
 40
1
 40
1
 40
1
 10
63.156336
 20
366.000000
 30
0.0
 10
63.156336
 20
366.686857
 30
0.0
 10
63.713143
 20
367.243664
 30
0.0
 10
64.400000
 20
367.243664
 30
0.0
  0
SPLINE
  5
129
100
AcDbEntity
  8
0
 62
1
100
AcDbSpline
 70
8
 71
3
 72
8
 73
4
 74
0
 40
0
 40
0
 40
0
 40
0
 40
1
 40
1
 40
1
 40
1
 10
64.400000
 20
367.243664
 30
0.0
 10
65.086857
 20
367.243664
 30
0.0
 10
65.643664
 20
366.686857
 30
0.0
 10
65.643664
 20
366.000000
 30
0.0
  0
LWPOLYLINE
  5
12a
100
AcDbEntity
  8
0
 62
1
100
AcDbPolyline
 90
2
 70
1
 10
36.043664
 20
366.000000
 30
0.0
 10
36.043664
 20
366.000000
 30
0.0
  0
SPLINE
  5
12b
100
AcDbEntity
  8
0
 62
1
100
AcDbSpline
 70
8
 71
3
 72
8
 73
4
 74
0
 40
0
 40
0
 40
0
 40
0
 40
1
 40
1
 40
1
 40
1
 10
65.643664
 20
339.600000
 30
0.0
 10
65.643664
 20
338.913143
 30
0.0
 10
65.086857
 20
338.356336
 30
0.0
 10
64.400000
 20
338.356336
 30
0.0
  0
SPLINE
  5
12c
100
AcDbEntity
  8
0
 62
1
100
AcDbSpline
 70
8
 71
3
 72
8
 73
4
 74
0
 40
0
 40
0
 40
0
 40
0
 40
1
 40
1
 40
1
 40
1
 10
64.400000
 20
338.356336
 30
0.0
 10
63.713143
 20
338.356336
 30
0.0
 10
63.156336
 20
338.913143
 30
0.0
 10
63.156336
 20
339.600000
 30
0.0
  0
SPLINE
  5
12d
100
AcDbEntity
  8
0
 62
1
100
AcDbSpline
 70
8
 71
3
 72
8
 73
4
 74
0
 40
0
 40
0
 40
0
 40
0
 40
1
 40
1
 40
1
 40
1
 10
63.156336
 20
339.600000
 30
0.0
 10
63.156336
 20
340.286857
 30
0.0
 10
63.713143
 20
340.843664
 30
0.0
 10
64.400000
 20
340.843664
 30
0.0
  0
SPLINE
  5
12e
100
AcDbEntity
  8
0
 62
1
100
AcDbSpline
 70
8
 71
3
 72
8
 73
4
 74
0
 40
0
 40
0
 40
0
 40
0
 40
1
 40
1
 40
1
 40
1
 10
64.400000
 20
340.843664
 30
0.0
 10
65.086857
 20
340.843664
 30
0.0
 10
65.643664
 20
340.286857
 30
0.0
 10
65.643664
 20
339.600000
 30
0.0
  0
LWPOLYLINE
  5
12f
100
AcDbEntity
  8
0
 62
1
100
AcDbPolyline
 90
2
 70
1
 10
65.643664
 20
366.000000
 30
0.0
 10
65.643664
 20
366.000000
 30
0.0
  0
SPLINE
  5
130
100
AcDbEntity
  8
0
 62
1
100
AcDbSpline
 70
8
 71
3
 72
8
 73
4
 74
0
 40
0
 40
0
 40
0
 40
0
 40
1
 40
1
 40
1
 40
1
 10
36.043664
 20
339.600000
 30
0.0
 10
36.043664
 20
338.913143
 30
0.0
 10
35.486857
 20
338.356336
 30
0.0
 10
34.800000
 20
338.356336
 30
0.0
  0
SPLINE
  5
131
100
AcDbEntity
  8
0
 62
1
100
AcDbSpline
 70
8
 71
3
 72
8
 73
4
 74
0
 40
0
 40
0
 40
0
 40
0
 40
1
 40
1
 40
1
 40
1
 10
34.800000
 20
338.356336
 30
0.0
 10
34.113143
 20
338.356336
 30
0.0
 10
33.556336
 20
338.913143
 30
0.0
 10
33.556336
 20
339.600000
 30
0.0
  0
SPLINE
  5
132
100
AcDbEntity
  8
0
 62
1
100
AcDbSpline
 70
8
 71
3
 72
8
 73
4
 74
0
 40
0
 40
0
 40
0
 40
0
 40
1
 40
1
 40
1
 40
1
 10
33.556336
 20
339.600000
 30
0.0
 10
33.556336
 20
340.286857
 30
0.0
 10
34.113143
 20
340.843664
 30
0.0
 10
34.800000
 20
340.843664
 30
0.0
  0
SPLINE
  5
133
100
AcDbEntity
  8
0
 62
1
100
AcDbSpline
 70
8
 71
3
 72
8
 73
4
 74
0
 40
0
 40
0
 40
0
 40
0
 40
1
 40
1
 40
1
 40
1
 10
34.800000
 20
340.843664
 30
0.0
 10
35.486857
 20
340.843664
 30
0.0
 10
36.043664
 20
340.286857
 30
0.0
 10
36.043664
 20
339.600000
 30
0.0
  0
LWPOLYLINE
  5
134
100
AcDbEntity
  8
0
 62
1
100
AcDbPolyline
 90
2
 70
1
 10
65.643664
 20
339.600000
 30
0.0
 10
65.643664
 20
339.600000
 30
0.0
  0
SPLINE
  5
135
100
AcDbEntity
  8
0
 62
1
100
AcDbSpline
 70
8
 71
3
 72
8
 73
4
 74
0
 40
0
 40
0
 40
0
 40
0
 40
1
 40
1
 40
1
 40
1
 10
36.043664
 20
327.600000
 30
0.0
 10
36.043664
 20
326.913143
 30
0.0
 10
35.486857
 20
326.356336
 30
0.0
 10
34.800000
 20
326.356336
 30
0.0
  0
SPLINE
  5
136
100
AcDbEntity
  8
0
 62
1
100
AcDbSpline
 70
8
 71
3
 72
8
 73
4
 74
0
 40
0
 40
0
 40
0
 40
0
 40
1
 40
1
 40
1
 40
1
 10
34.800000
 20
326.356336
 30
0.0
 10
34.113143
 20
326.356336
 30
0.0
 10
33.556336
 20
326.913143
 30
0.0
 10
33.556336
 20
327.600000
 30
0.0
  0
SPLINE
  5
137
100
AcDbEntity
  8
0
 62
1
100
AcDbSpline
 70
8
 71
3
 72
8
 73
4
 74
0
 40
0
 40
0
 40
0
 40
0
 40
1
 40
1
 40
1
 40
1
 10
33.556336
 20
327.600000
 30
0.0
 10
33.556336
 20
328.286857
 30
0.0
 10
34.113143
 20
328.843664
 30
0.0
 10
34.800000
 20
328.843664
 30
0.0
  0
SPLINE
  5
138
100
AcDbEntity
  8
0
 62
1
100
AcDbSpline
 70
8
 71
3
 72
8
 73
4
 74
0
 40
0
 40
0
 40
0
 40
0
 40
1
 40
1
 40
1
 40
1
 10
34.800000
 20
328.843664
 30
0.0
 10
35.486857
 20
328.843664
 30
0.0
 10
36.043664
 20
328.286857
 30
0.0
 10
36.043664
 20
327.600000
 30
0.0
  0
LWPOLYLINE
  5
139
100
AcDbEntity
  8
0
 62
1
100
AcDbPolyline
 90
2
 70
1
 10
36.043664
 20
339.600000
 30
0.0
 10
36.043664
 20
339.600000
 30
0.0
  0
SPLINE
  5
13a
100
AcDbEntity
  8
0
 62
1
100
AcDbSpline
 70
8
 71
3
 72
8
 73
4
 74
0
 40
0
 40
0
 40
0
 40
0
 40
1
 40
1
 40
1
 40
1
 10
65.643664
 20
327.600000
 30
0.0
 10
65.643664
 20
326.913143
 30
0.0
 10
65.086857
 20
326.356336
 30
0.0
 10
64.400000
 20
326.356336
 30
0.0
  0
SPLINE
  5
13b
100
AcDbEntity
  8
0
 62
1
100
AcDbSpline
 70
8
 71
3
 72
8
 73
4
 74
0
 40
0
 40
0
 40
0
 40
0
 40
1
 40
1
 40
1
 40
1
 10
64.400000
 20
326.356336
 30
0.0
 10
63.713143
 20
326.356336
 30
0.0
 10
63.156336
 20
326.913143
 30
0.0
 10
63.156336
 20
327.600000
 30
0.0
  0
SPLINE
  5
13c
100
AcDbEntity
  8
0
 62
1
100
AcDbSpline
 70
8
 71
3
 72
8
 73
4
 74
0
 40
0
 40
0
 40
0
 40
0
 40
1
 40
1
 40
1
 40
1
 10
63.156336
 20
327.600000
 30
0.0
 10
63.156336
 20
328.286857
 30
0.0
 10
63.713143
 20
328.843664
 30
0.0
 10
64.400000
 20
328.843664
 30
0.0
  0
SPLINE
  5
13d
100
AcDbEntity
  8
0
 62
1
100
AcDbSpline
 70
8
 71
3
 72
8
 73
4
 74
0
 40
0
 40
0
 40
0
 40
0
 40
1
 40
1
 40
1
 40
1
 10
64.400000
 20
328.843664
 30
0.0
 10
65.086857
 20
328.843664
 30
0.0
 10
65.643664
 20
328.286857
 30
0.0
 10
65.643664
 20
327.600000
 30
0.0
  0
LWPOLYLINE
  5
13e
100
AcDbEntity
  8
0
 62
1
100
AcDbPolyline
 90
2
 70
1
 10
36.043664
 20
327.600000
 30
0.0
 10
36.043664
 20
327.600000
 30
0.0
  0
SPLINE
  5
13f
100
AcDbEntity
  8
0
 62
1
100
AcDbSpline
 70
8
 71
3
 72
8
 73
4
 74
0
 40
0
 40
0
 40
0
 40
0
 40
1
 40
1
 40
1
 40
1
 10
3.243660
 20
327.600000
 30
0.0
 10
3.243660
 20
326.913143
 30
0.0
 10
2.686852
 20
326.356336
 30
0.0
 10
1.999995
 20
326.356336
 30
0.0
  0
SPLINE
  5
140
100
AcDbEntity
  8
0
 62
1
100
AcDbSpline
 70
8
 71
3
 72
8
 73
4
 74
0
 40
0
 40
0
 40
0
 40
0
 40
1
 40
1
 40
1
 40
1
 10
1.999995
 20
326.356336
 30
0.0
 10
1.670155
 20
326.356336
 30
0.0
 10
1.353824
 20
326.487365
 30
0.0
 10
1.120592
 20
326.720597
 30
0.0
  0
SPLINE
  5
141
100
AcDbEntity
  8
0
 62
1
100
AcDbSpline
 70
8
 71
3
 72
8
 73
4
 74
0
 40
0
 40
0
 40
0
 40
0
 40
1
 40
1
 40
1
 40
1
 10
1.120592
 20
326.720597
 30
0.0
 10
0.887360
 20
326.953829
 30
0.0
 10
0.756331
 20
327.270160
 30
0.0
 10
0.756331
 20
327.600000
 30
0.0
  0
SPLINE
  5
142
100
AcDbEntity
  8
0
 62
1
100
AcDbSpline
 70
8
 71
3
 72
8
 73
4
 74
0
 40
0
 40
0
 40
0
 40
0
 40
1
 40
1
 40
1
 40
1
 10
0.756331
 20
327.600000
 30
0.0
 10
0.756331
 20
327.929840
 30
0.0
 10
0.887360
 20
328.246171
 30
0.0
 10
1.120592
 20
328.479403
 30
0.0
  0
SPLINE
  5
143
100
AcDbEntity
  8
0
 62
1
100
AcDbSpline
 70
8
 71
3
 72
8
 73
4
 74
0
 40
0
 40
0
 40
0
 40
0
 40
1
 40
1
 40
1
 40
1
 10
1.120592
 20
328.479403
 30
0.0
 10
1.353824
 20
328.712635
 30
0.0
 10
1.670155
 20
328.843664
 30
0.0
 10
1.999995
 20
328.843664
 30
0.0
  0
SPLINE
  5
144
100
AcDbEntity
  8
0
 62
1
100
AcDbSpline
 70
8
 71
3
 72
8
 73
4
 74
0
 40
0
 40
0
 40
0
 40
0
 40
1
 40
1
 40
1
 40
1
 10
1.999995
 20
328.843664
 30
0.0
 10
2.686852
 20
328.843664
 30
0.0
 10
3.243660
 20
328.286857
 30
0.0
 10
3.243660
 20
327.600000
 30
0.0
  0
LWPOLYLINE
  5
145
100
AcDbEntity
  8
0
 62
1
100
AcDbPolyline
 90
2
 70
1
 10
65.643664
 20
327.600000
 30
0.0
 10
65.643664
 20
327.600000
 30
0.0
  0
SPLINE
  5
146
100
AcDbEntity
  8
0
 62
1
100
AcDbSpline
 70
8
 71
3
 72
8
 73
4
 74
0
 40
0
 40
0
 40
0
 40
0
 40
1
 40
1
 40
1
 40
1
 10
3.243660
 20
366.000000
 30
0.0
 10
3.243660
 20
365.313143
 30
0.0
 10
2.686852
 20
364.756336
 30
0.0
 10
1.999995
 20
364.756336
 30
0.0
  0
SPLINE
  5
147
100
AcDbEntity
  8
0
 62
1
100
AcDbSpline
 70
8
 71
3
 72
8
 73
4
 74
0
 40
0
 40
0
 40
0
 40
0
 40
1
 40
1
 40
1
 40
1
 10
1.999995
 20
364.756336
 30
0.0
 10
1.670155
 20
364.756336
 30
0.0
 10
1.353824
 20
364.887365
 30
0.0
 10
1.120592
 20
365.120597
 30
0.0
  0
SPLINE
  5
148
100
AcDbEntity
  8
0
 62
1
100
AcDbSpline
 70
8
 71
3
 72
8
 73
4
 74
0
 40
0
 40
0
 40
0
 40
0
 40
1
 40
1
 40
1
 40
1
 10
1.120592
 20
365.120597
 30
0.0
 10
0.887360
 20
365.353829
 30
0.0
 10
0.756331
 20
365.670160
 30
0.0
 10
0.756331
 20
366.000000
 30
0.0
  0
SPLINE
  5
149
100
AcDbEntity
  8
0
 62
1
100
AcDbSpline
 70
8
 71
3
 72
8
 73
4
 74
0
 40
0
 40
0
 40
0
 40
0
 40
1
 40
1
 40
1
 40
1
 10
0.756331
 20
366.000000
 30
0.0
 10
0.756331
 20
366.329840
 30
0.0
 10
0.887360
 20
366.646171
 30
0.0
 10
1.120592
 20
366.879403
 30
0.0
  0
SPLINE
  5
14a
100
AcDbEntity
  8
0
 62
1
100
AcDbSpline
 70
8
 71
3
 72
8
 73
4
 74
0
 40
0
 40
0
 40
0
 40
0
 40
1
 40
1
 40
1
 40
1
 10
1.120592
 20
366.879403
 30
0.0
 10
1.353824
 20
367.112635
 30
0.0
 10
1.670155
 20
367.243664
 30
0.0
 10
1.999995
 20
367.243664
 30
0.0
  0
SPLINE
  5
14b
100
AcDbEntity
  8
0
 62
1
100
AcDbSpline
 70
8
 71
3
 72
8
 73
4
 74
0
 40
0
 40
0
 40
0
 40
0
 40
1
 40
1
 40
1
 40
1
 10
1.999995
 20
367.243664
 30
0.0
 10
2.686852
 20
367.243664
 30
0.0
 10
3.243660
 20
366.686857
 30
0.0
 10
3.243660
 20
366.000000
 30
0.0
  0
LWPOLYLINE
  5
14c
100
AcDbEntity
  8
0
 62
1
100
AcDbPolyline
 90
2
 70
1
 10
3.243660
 20
327.600000
 30
0.0
 10
3.243660
 20
327.600000
 30
0.0
  0
SPLINE
  5
14d
100
AcDbEntity
  8
0
 62
1
100
AcDbSpline
 70
8
 71
3
 72
8
 73
4
 74
0
 40
0
 40
0
 40
0
 40
0
 40
1
 40
1
 40
1
 40
1
 10
3.243660
 20
339.600000
 30
0.0
 10
3.243660
 20
338.913143
 30
0.0
 10
2.686852
 20
338.356336
 30
0.0
 10
1.999995
 20
338.356336
 30
0.0
  0
SPLINE
  5
14e
100
AcDbEntity
  8
0
 62
1
100
AcDbSpline
 70
8
 71
3
 72
8
 73
4
 74
0
 40
0
 40
0
 40
0
 40
0
 40
1
 40
1
 40
1
 40
1
 10
1.999995
 20
338.356336
 30
0.0
 10
1.670155
 20
338.356336
 30
0.0
 10
1.353824
 20
338.487365
 30
0.0
 10
1.120592
 20
338.720597
 30
0.0
  0
SPLINE
  5
14f
100
AcDbEntity
  8
0
 62
1
100
AcDbSpline
 70
8
 71
3
 72
8
 73
4
 74
0
 40
0
 40
0
 40
0
 40
0
 40
1
 40
1
 40
1
 40
1
 10
1.120592
 20
338.720597
 30
0.0
 10
0.887360
 20
338.953829
 30
0.0
 10
0.756331
 20
339.270160
 30
0.0
 10
0.756331
 20
339.600000
 30
0.0
  0
SPLINE
  5
150
100
AcDbEntity
  8
0
 62
1
100
AcDbSpline
 70
8
 71
3
 72
8
 73
4
 74
0
 40
0
 40
0
 40
0
 40
0
 40
1
 40
1
 40
1
 40
1
 10
0.756331
 20
339.600000
 30
0.0
 10
0.756331
 20
339.929840
 30
0.0
 10
0.887360
 20
340.246171
 30
0.0
 10
1.120592
 20
340.479403
 30
0.0
  0
SPLINE
  5
151
100
AcDbEntity
  8
0
 62
1
100
AcDbSpline
 70
8
 71
3
 72
8
 73
4
 74
0
 40
0
 40
0
 40
0
 40
0
 40
1
 40
1
 40
1
 40
1
 10
1.120592
 20
340.479403
 30
0.0
 10
1.353824
 20
340.712635
 30
0.0
 10
1.670155
 20
340.843664
 30
0.0
 10
1.999995
 20
340.843664
 30
0.0
  0
SPLINE
  5
152
100
AcDbEntity
  8
0
 62
1
100
AcDbSpline
 70
8
 71
3
 72
8
 73
4
 74
0
 40
0
 40
0
 40
0
 40
0
 40
1
 40
1
 40
1
 40
1
 10
1.999995
 20
340.843664
 30
0.0
 10
2.686852
 20
340.843664
 30
0.0
 10
3.243660
 20
340.286857
 30
0.0
 10
3.243660
 20
339.600000
 30
0.0
  0
LWPOLYLINE
  5
153
100
AcDbEntity
  8
0
 62
1
100
AcDbPolyline
 90
2
 70
1
 10
3.243660
 20
366.000000
 30
0.0
 10
3.243660
 20
366.000000
 30
0.0
  0
SPLINE
  5
154
100
AcDbEntity
  8
0
 62
1
100
AcDbSpline
 70
8
 71
3
 72
8
 73
4
 74
0
 40
0
 40
0
 40
0
 40
0
 40
1
 40
1
 40
1
 40
1
 10
36.043664
 20
378.000000
 30
0.0
 10
36.043664
 20
377.313143
 30
0.0
 10
35.486857
 20
376.756336
 30
0.0
 10
34.800000
 20
376.756336
 30
0.0
  0
SPLINE
  5
155
100
AcDbEntity
  8
0
 62
1
100
AcDbSpline
 70
8
 71
3
 72
8
 73
4
 74
0
 40
0
 40
0
 40
0
 40
0
 40
1
 40
1
 40
1
 40
1
 10
34.800000
 20
376.756336
 30
0.0
 10
34.113143
 20
376.756336
 30
0.0
 10
33.556336
 20
377.313143
 30
0.0
 10
33.556336
 20
378.000000
 30
0.0
  0
SPLINE
  5
156
100
AcDbEntity
  8
0
 62
1
100
AcDbSpline
 70
8
 71
3
 72
8
 73
4
 74
0
 40
0
 40
0
 40
0
 40
0
 40
1
 40
1
 40
1
 40
1
 10
33.556336
 20
378.000000
 30
0.0
 10
33.556336
 20
378.686857
 30
0.0
 10
34.113143
 20
379.243664
 30
0.0
 10
34.800000
 20
379.243664
 30
0.0
  0
SPLINE
  5
157
100
AcDbEntity
  8
0
 62
1
100
AcDbSpline
 70
8
 71
3
 72
8
 73
4
 74
0
 40
0
 40
0
 40
0
 40
0
 40
1
 40
1
 40
1
 40
1
 10
34.800000
 20
379.243664
 30
0.0
 10
35.486857
 20
379.243664
 30
0.0
 10
36.043664
 20
378.686857
 30
0.0
 10
36.043664
 20
378.000000
 30
0.0
  0
LWPOLYLINE
  5
158
100
AcDbEntity
  8
0
 62
1
100
AcDbPolyline
 90
2
 70
1
 10
3.243660
 20
339.600000
 30
0.0
 10
3.243660
 20
339.600000
 30
0.0
  0
SPLINE
  5
159
100
AcDbEntity
  8
0
 62
1
100
AcDbSpline
 70
8
 71
3
 72
8
 73
4
 74
0
 40
0
 40
0
 40
0
 40
0
 40
1
 40
1
 40
1
 40
1
 10
65.643664
 20
378.000000
 30
0.0
 10
65.643664
 20
377.313143
 30
0.0
 10
65.086857
 20
376.756336
 30
0.0
 10
64.400000
 20
376.756336
 30
0.0
  0
SPLINE
  5
15a
100
AcDbEntity
  8
0
 62
1
100
AcDbSpline
 70
8
 71
3
 72
8
 73
4
 74
0
 40
0
 40
0
 40
0
 40
0
 40
1
 40
1
 40
1
 40
1
 10
64.400000
 20
376.756336
 30
0.0
 10
63.713143
 20
376.756336
 30
0.0
 10
63.156336
 20
377.313143
 30
0.0
 10
63.156336
 20
378.000000
 30
0.0
  0
SPLINE
  5
15b
100
AcDbEntity
  8
0
 62
1
100
AcDbSpline
 70
8
 71
3
 72
8
 73
4
 74
0
 40
0
 40
0
 40
0
 40
0
 40
1
 40
1
 40
1
 40
1
 10
63.156336
 20
378.000000
 30
0.0
 10
63.156336
 20
378.686857
 30
0.0
 10
63.713143
 20
379.243664
 30
0.0
 10
64.400000
 20
379.243664
 30
0.0
  0
SPLINE
  5
15c
100
AcDbEntity
  8
0
 62
1
100
AcDbSpline
 70
8
 71
3
 72
8
 73
4
 74
0
 40
0
 40
0
 40
0
 40
0
 40
1
 40
1
 40
1
 40
1
 10
64.400000
 20
379.243664
 30
0.0
 10
65.086857
 20
379.243664
 30
0.0
 10
65.643664
 20
378.686857
 30
0.0
 10
65.643664
 20
378.000000
 30
0.0
  0
LWPOLYLINE
  5
15d
100
AcDbEntity
  8
0
 62
1
100
AcDbPolyline
 90
2
 70
1
 10
36.043664
 20
378.000000
 30
0.0
 10
36.043664
 20
378.000000
 30
0.0
  0
SPLINE
  5
15e
100
AcDbEntity
  8
0
 62
1
100
AcDbSpline
 70
8
 71
3
 72
8
 73
4
 74
0
 40
0
 40
0
 40
0
 40
0
 40
1
 40
1
 40
1
 40
1
 10
65.643664
 20
404.400000
 30
0.0
 10
65.643664
 20
403.713143
 30
0.0
 10
65.086857
 20
403.156336
 30
0.0
 10
64.400000
 20
403.156336
 30
0.0
  0
SPLINE
  5
15f
100
AcDbEntity
  8
0
 62
1
100
AcDbSpline
 70
8
 71
3
 72
8
 73
4
 74
0
 40
0
 40
0
 40
0
 40
0
 40
1
 40
1
 40
1
 40
1
 10
64.400000
 20
403.156336
 30
0.0
 10
63.713143
 20
403.156336
 30
0.0
 10
63.156336
 20
403.713143
 30
0.0
 10
63.156336
 20
404.400000
 30
0.0
  0
SPLINE
  5
160
100
AcDbEntity
  8
0
 62
1
100
AcDbSpline
 70
8
 71
3
 72
8
 73
4
 74
0
 40
0
 40
0
 40
0
 40
0
 40
1
 40
1
 40
1
 40
1
 10
63.156336
 20
404.400000
 30
0.0
 10
63.156336
 20
405.086857
 30
0.0
 10
63.713143
 20
405.643664
 30
0.0
 10
64.400000
 20
405.643664
 30
0.0
  0
SPLINE
  5
161
100
AcDbEntity
  8
0
 62
1
100
AcDbSpline
 70
8
 71
3
 72
8
 73
4
 74
0
 40
0
 40
0
 40
0
 40
0
 40
1
 40
1
 40
1
 40
1
 10
64.400000
 20
405.643664
 30
0.0
 10
65.086857
 20
405.643664
 30
0.0
 10
65.643664
 20
405.086857
 30
0.0
 10
65.643664
 20
404.400000
 30
0.0
  0
LWPOLYLINE
  5
162
100
AcDbEntity
  8
0
 62
1
100
AcDbPolyline
 90
2
 70
1
 10
65.643664
 20
378.000000
 30
0.0
 10
65.643664
 20
378.000000
 30
0.0
  0
SPLINE
  5
163
100
AcDbEntity
  8
0
 62
1
100
AcDbSpline
 70
8
 71
3
 72
8
 73
4
 74
0
 40
0
 40
0
 40
0
 40
0
 40
1
 40
1
 40
1
 40
1
 10
36.043664
 20
404.400000
 30
0.0
 10
36.043664
 20
403.713143
 30
0.0
 10
35.486857
 20
403.156336
 30
0.0
 10
34.800000
 20
403.156336
 30
0.0
  0
SPLINE
  5
164
100
AcDbEntity
  8
0
 62
1
100
AcDbSpline
 70
8
 71
3
 72
8
 73
4
 74
0
 40
0
 40
0
 40
0
 40
0
 40
1
 40
1
 40
1
 40
1
 10
34.800000
 20
403.156336
 30
0.0
 10
34.113143
 20
403.156336
 30
0.0
 10
33.556336
 20
403.713143
 30
0.0
 10
33.556336
 20
404.400000
 30
0.0
  0
SPLINE
  5
165
100
AcDbEntity
  8
0
 62
1
100
AcDbSpline
 70
8
 71
3
 72
8
 73
4
 74
0
 40
0
 40
0
 40
0
 40
0
 40
1
 40
1
 40
1
 40
1
 10
33.556336
 20
404.400000
 30
0.0
 10
33.556336
 20
405.086857
 30
0.0
 10
34.113143
 20
405.643664
 30
0.0
 10
34.800000
 20
405.643664
 30
0.0
  0
SPLINE
  5
166
100
AcDbEntity
  8
0
 62
1
100
AcDbSpline
 70
8
 71
3
 72
8
 73
4
 74
0
 40
0
 40
0
 40
0
 40
0
 40
1
 40
1
 40
1
 40
1
 10
34.800000
 20
405.643664
 30
0.0
 10
35.486857
 20
405.643664
 30
0.0
 10
36.043664
 20
405.086857
 30
0.0
 10
36.043664
 20
404.400000
 30
0.0
  0
LWPOLYLINE
  5
167
100
AcDbEntity
  8
0
 62
1
100
AcDbPolyline
 90
2
 70
1
 10
65.643664
 20
404.400000
 30
0.0
 10
65.643664
 20
404.400000
 30
0.0
  0
SPLINE
  5
168
100
AcDbEntity
  8
0
 62
1
100
AcDbSpline
 70
8
 71
3
 72
8
 73
4
 74
0
 40
0
 40
0
 40
0
 40
0
 40
1
 40
1
 40
1
 40
1
 10
36.043664
 20
416.400000
 30
0.0
 10
36.043664
 20
415.713143
 30
0.0
 10
35.486857
 20
415.156336
 30
0.0
 10
34.800000
 20
415.156336
 30
0.0
  0
SPLINE
  5
169
100
AcDbEntity
  8
0
 62
1
100
AcDbSpline
 70
8
 71
3
 72
8
 73
4
 74
0
 40
0
 40
0
 40
0
 40
0
 40
1
 40
1
 40
1
 40
1
 10
34.800000
 20
415.156336
 30
0.0
 10
34.113143
 20
415.156336
 30
0.0
 10
33.556336
 20
415.713143
 30
0.0
 10
33.556336
 20
416.400000
 30
0.0
  0
SPLINE
  5
16a
100
AcDbEntity
  8
0
 62
1
100
AcDbSpline
 70
8
 71
3
 72
8
 73
4
 74
0
 40
0
 40
0
 40
0
 40
0
 40
1
 40
1
 40
1
 40
1
 10
33.556336
 20
416.400000
 30
0.0
 10
33.556336
 20
417.086857
 30
0.0
 10
34.113143
 20
417.643664
 30
0.0
 10
34.800000
 20
417.643664
 30
0.0
  0
SPLINE
  5
16b
100
AcDbEntity
  8
0
 62
1
100
AcDbSpline
 70
8
 71
3
 72
8
 73
4
 74
0
 40
0
 40
0
 40
0
 40
0
 40
1
 40
1
 40
1
 40
1
 10
34.800000
 20
417.643664
 30
0.0
 10
35.486857
 20
417.643664
 30
0.0
 10
36.043664
 20
417.086857
 30
0.0
 10
36.043664
 20
416.400000
 30
0.0
  0
LWPOLYLINE
  5
16c
100
AcDbEntity
  8
0
 62
1
100
AcDbPolyline
 90
2
 70
1
 10
36.043664
 20
404.400000
 30
0.0
 10
36.043664
 20
404.400000
 30
0.0
  0
SPLINE
  5
16d
100
AcDbEntity
  8
0
 62
1
100
AcDbSpline
 70
8
 71
3
 72
8
 73
4
 74
0
 40
0
 40
0
 40
0
 40
0
 40
1
 40
1
 40
1
 40
1
 10
65.643664
 20
416.400000
 30
0.0
 10
65.643664
 20
415.713143
 30
0.0
 10
65.086857
 20
415.156336
 30
0.0
 10
64.400000
 20
415.156336
 30
0.0
  0
SPLINE
  5
16e
100
AcDbEntity
  8
0
 62
1
100
AcDbSpline
 70
8
 71
3
 72
8
 73
4
 74
0
 40
0
 40
0
 40
0
 40
0
 40
1
 40
1
 40
1
 40
1
 10
64.400000
 20
415.156336
 30
0.0
 10
63.713143
 20
415.156336
 30
0.0
 10
63.156336
 20
415.713143
 30
0.0
 10
63.156336
 20
416.400000
 30
0.0
  0
SPLINE
  5
16f
100
AcDbEntity
  8
0
 62
1
100
AcDbSpline
 70
8
 71
3
 72
8
 73
4
 74
0
 40
0
 40
0
 40
0
 40
0
 40
1
 40
1
 40
1
 40
1
 10
63.156336
 20
416.400000
 30
0.0
 10
63.156336
 20
417.086857
 30
0.0
 10
63.713143
 20
417.643664
 30
0.0
 10
64.400000
 20
417.643664
 30
0.0
  0
SPLINE
  5
170
100
AcDbEntity
  8
0
 62
1
100
AcDbSpline
 70
8
 71
3
 72
8
 73
4
 74
0
 40
0
 40
0
 40
0
 40
0
 40
1
 40
1
 40
1
 40
1
 10
64.400000
 20
417.643664
 30
0.0
 10
65.086857
 20
417.643664
 30
0.0
 10
65.643664
 20
417.086857
 30
0.0
 10
65.643664
 20
416.400000
 30
0.0
  0
LWPOLYLINE
  5
171
100
AcDbEntity
  8
0
 62
1
100
AcDbPolyline
 90
2
 70
1
 10
36.043664
 20
416.400000
 30
0.0
 10
36.043664
 20
416.400000
 30
0.0
  0
SPLINE
  5
172
100
AcDbEntity
  8
0
 62
1
100
AcDbSpline
 70
8
 71
3
 72
8
 73
4
 74
0
 40
0
 40
0
 40
0
 40
0
 40
1
 40
1
 40
1
 40
1
 10
65.643664
 20
442.800000
 30
0.0
 10
65.643664
 20
442.113143
 30
0.0
 10
65.086857
 20
441.556336
 30
0.0
 10
64.400000
 20
441.556336
 30
0.0
  0
SPLINE
  5
173
100
AcDbEntity
  8
0
 62
1
100
AcDbSpline
 70
8
 71
3
 72
8
 73
4
 74
0
 40
0
 40
0
 40
0
 40
0
 40
1
 40
1
 40
1
 40
1
 10
64.400000
 20
441.556336
 30
0.0
 10
63.713143
 20
441.556336
 30
0.0
 10
63.156336
 20
442.113143
 30
0.0
 10
63.156336
 20
442.800000
 30
0.0
  0
SPLINE
  5
174
100
AcDbEntity
  8
0
 62
1
100
AcDbSpline
 70
8
 71
3
 72
8
 73
4
 74
0
 40
0
 40
0
 40
0
 40
0
 40
1
 40
1
 40
1
 40
1
 10
63.156336
 20
442.800000
 30
0.0
 10
63.156336
 20
443.486857
 30
0.0
 10
63.713143
 20
444.043664
 30
0.0
 10
64.400000
 20
444.043664
 30
0.0
  0
SPLINE
  5
175
100
AcDbEntity
  8
0
 62
1
100
AcDbSpline
 70
8
 71
3
 72
8
 73
4
 74
0
 40
0
 40
0
 40
0
 40
0
 40
1
 40
1
 40
1
 40
1
 10
64.400000
 20
444.043664
 30
0.0
 10
65.086857
 20
444.043664
 30
0.0
 10
65.643664
 20
443.486857
 30
0.0
 10
65.643664
 20
442.800000
 30
0.0
  0
LWPOLYLINE
  5
176
100
AcDbEntity
  8
0
 62
1
100
AcDbPolyline
 90
2
 70
1
 10
65.643664
 20
416.400000
 30
0.0
 10
65.643664
 20
416.400000
 30
0.0
  0
SPLINE
  5
177
100
AcDbEntity
  8
0
 62
1
100
AcDbSpline
 70
8
 71
3
 72
8
 73
4
 74
0
 40
0
 40
0
 40
0
 40
0
 40
1
 40
1
 40
1
 40
1
 10
36.043664
 20
442.800000
 30
0.0
 10
36.043664
 20
442.113143
 30
0.0
 10
35.486857
 20
441.556336
 30
0.0
 10
34.800000
 20
441.556336
 30
0.0
  0
SPLINE
  5
178
100
AcDbEntity
  8
0
 62
1
100
AcDbSpline
 70
8
 71
3
 72
8
 73
4
 74
0
 40
0
 40
0
 40
0
 40
0
 40
1
 40
1
 40
1
 40
1
 10
34.800000
 20
441.556336
 30
0.0
 10
34.113143
 20
441.556336
 30
0.0
 10
33.556336
 20
442.113143
 30
0.0
 10
33.556336
 20
442.800000
 30
0.0
  0
SPLINE
  5
179
100
AcDbEntity
  8
0
 62
1
100
AcDbSpline
 70
8
 71
3
 72
8
 73
4
 74
0
 40
0
 40
0
 40
0
 40
0
 40
1
 40
1
 40
1
 40
1
 10
33.556336
 20
442.800000
 30
0.0
 10
33.556336
 20
443.486857
 30
0.0
 10
34.113143
 20
444.043664
 30
0.0
 10
34.800000
 20
444.043664
 30
0.0
  0
SPLINE
  5
17a
100
AcDbEntity
  8
0
 62
1
100
AcDbSpline
 70
8
 71
3
 72
8
 73
4
 74
0
 40
0
 40
0
 40
0
 40
0
 40
1
 40
1
 40
1
 40
1
 10
34.800000
 20
444.043664
 30
0.0
 10
35.486857
 20
444.043664
 30
0.0
 10
36.043664
 20
443.486857
 30
0.0
 10
36.043664
 20
442.800000
 30
0.0
  0
LWPOLYLINE
  5
17b
100
AcDbEntity
  8
0
 62
1
100
AcDbPolyline
 90
2
 70
1
 10
65.643664
 20
442.800000
 30
0.0
 10
65.643664
 20
442.800000
 30
0.0
  0
SPLINE
  5
17c
100
AcDbEntity
  8
0
 62
1
100
AcDbSpline
 70
8
 71
3
 72
8
 73
4
 74
0
 40
0
 40
0
 40
0
 40
0
 40
1
 40
1
 40
1
 40
1
 10
3.243660
 20
301.200000
 30
0.0
 10
3.243660
 20
300.513143
 30
0.0
 10
2.686852
 20
299.956336
 30
0.0
 10
1.999995
 20
299.956336
 30
0.0
  0
SPLINE
  5
17d
100
AcDbEntity
  8
0
 62
1
100
AcDbSpline
 70
8
 71
3
 72
8
 73
4
 74
0
 40
0
 40
0
 40
0
 40
0
 40
1
 40
1
 40
1
 40
1
 10
1.999995
 20
299.956336
 30
0.0
 10
1.670155
 20
299.956336
 30
0.0
 10
1.353824
 20
300.087365
 30
0.0
 10
1.120592
 20
300.320597
 30
0.0
  0
SPLINE
  5
17e
100
AcDbEntity
  8
0
 62
1
100
AcDbSpline
 70
8
 71
3
 72
8
 73
4
 74
0
 40
0
 40
0
 40
0
 40
0
 40
1
 40
1
 40
1
 40
1
 10
1.120592
 20
300.320597
 30
0.0
 10
0.887360
 20
300.553829
 30
0.0
 10
0.756331
 20
300.870160
 30
0.0
 10
0.756331
 20
301.200000
 30
0.0
  0
SPLINE
  5
17f
100
AcDbEntity
  8
0
 62
1
100
AcDbSpline
 70
8
 71
3
 72
8
 73
4
 74
0
 40
0
 40
0
 40
0
 40
0
 40
1
 40
1
 40
1
 40
1
 10
0.756331
 20
301.200000
 30
0.0
 10
0.756331
 20
301.529840
 30
0.0
 10
0.887360
 20
301.846171
 30
0.0
 10
1.120592
 20
302.079403
 30
0.0
  0
SPLINE
  5
180
100
AcDbEntity
  8
0
 62
1
100
AcDbSpline
 70
8
 71
3
 72
8
 73
4
 74
0
 40
0
 40
0
 40
0
 40
0
 40
1
 40
1
 40
1
 40
1
 10
1.120592
 20
302.079403
 30
0.0
 10
1.353824
 20
302.312635
 30
0.0
 10
1.670155
 20
302.443664
 30
0.0
 10
1.999995
 20
302.443664
 30
0.0
  0
SPLINE
  5
181
100
AcDbEntity
  8
0
 62
1
100
AcDbSpline
 70
8
 71
3
 72
8
 73
4
 74
0
 40
0
 40
0
 40
0
 40
0
 40
1
 40
1
 40
1
 40
1
 10
1.999995
 20
302.443664
 30
0.0
 10
2.686852
 20
302.443664
 30
0.0
 10
3.243660
 20
301.886857
 30
0.0
 10
3.243660
 20
301.200000
 30
0.0
  0
LWPOLYLINE
  5
182
100
AcDbEntity
  8
0
 62
1
100
AcDbPolyline
 90
2
 70
1
 10
36.043664
 20
442.800000
 30
0.0
 10
36.043664
 20
442.800000
 30
0.0
  0
SPLINE
  5
183
100
AcDbEntity
  8
0
 62
1
100
AcDbSpline
 70
8
 71
3
 72
8
 73
4
 74
0
 40
0
 40
0
 40
0
 40
0
 40
1
 40
1
 40
1
 40
1
 10
36.043664
 20
301.200000
 30
0.0
 10
36.043664
 20
300.513143
 30
0.0
 10
35.486857
 20
299.956336
 30
0.0
 10
34.800000
 20
299.956336
 30
0.0
  0
SPLINE
  5
184
100
AcDbEntity
  8
0
 62
1
100
AcDbSpline
 70
8
 71
3
 72
8
 73
4
 74
0
 40
0
 40
0
 40
0
 40
0
 40
1
 40
1
 40
1
 40
1
 10
34.800000
 20
299.956336
 30
0.0
 10
34.113143
 20
299.956336
 30
0.0
 10
33.556336
 20
300.513143
 30
0.0
 10
33.556336
 20
301.200000
 30
0.0
  0
SPLINE
  5
185
100
AcDbEntity
  8
0
 62
1
100
AcDbSpline
 70
8
 71
3
 72
8
 73
4
 74
0
 40
0
 40
0
 40
0
 40
0
 40
1
 40
1
 40
1
 40
1
 10
33.556336
 20
301.200000
 30
0.0
 10
33.556336
 20
301.886857
 30
0.0
 10
34.113143
 20
302.443664
 30
0.0
 10
34.800000
 20
302.443664
 30
0.0
  0
SPLINE
  5
186
100
AcDbEntity
  8
0
 62
1
100
AcDbSpline
 70
8
 71
3
 72
8
 73
4
 74
0
 40
0
 40
0
 40
0
 40
0
 40
1
 40
1
 40
1
 40
1
 10
34.800000
 20
302.443664
 30
0.0
 10
35.486857
 20
302.443664
 30
0.0
 10
36.043664
 20
301.886857
 30
0.0
 10
36.043664
 20
301.200000
 30
0.0
  0
LWPOLYLINE
  5
187
100
AcDbEntity
  8
0
 62
1
100
AcDbPolyline
 90
2
 70
1
 10
3.243660
 20
301.200000
 30
0.0
 10
3.243660
 20
301.200000
 30
0.0
  0
SPLINE
  5
188
100
AcDbEntity
  8
0
 62
1
100
AcDbSpline
 70
8
 71
3
 72
8
 73
4
 74
0
 40
0
 40
0
 40
0
 40
0
 40
1
 40
1
 40
1
 40
1
 10
65.643664
 20
301.200000
 30
0.0
 10
65.643664
 20
300.513143
 30
0.0
 10
65.086857
 20
299.956336
 30
0.0
 10
64.400000
 20
299.956336
 30
0.0
  0
SPLINE
  5
189
100
AcDbEntity
  8
0
 62
1
100
AcDbSpline
 70
8
 71
3
 72
8
 73
4
 74
0
 40
0
 40
0
 40
0
 40
0
 40
1
 40
1
 40
1
 40
1
 10
64.400000
 20
299.956336
 30
0.0
 10
63.713143
 20
299.956336
 30
0.0
 10
63.156336
 20
300.513143
 30
0.0
 10
63.156336
 20
301.200000
 30
0.0
  0
SPLINE
  5
18a
100
AcDbEntity
  8
0
 62
1
100
AcDbSpline
 70
8
 71
3
 72
8
 73
4
 74
0
 40
0
 40
0
 40
0
 40
0
 40
1
 40
1
 40
1
 40
1
 10
63.156336
 20
301.200000
 30
0.0
 10
63.156336
 20
301.886857
 30
0.0
 10
63.713143
 20
302.443664
 30
0.0
 10
64.400000
 20
302.443664
 30
0.0
  0
SPLINE
  5
18b
100
AcDbEntity
  8
0
 62
1
100
AcDbSpline
 70
8
 71
3
 72
8
 73
4
 74
0
 40
0
 40
0
 40
0
 40
0
 40
1
 40
1
 40
1
 40
1
 10
64.400000
 20
302.443664
 30
0.0
 10
65.086857
 20
302.443664
 30
0.0
 10
65.643664
 20
301.886857
 30
0.0
 10
65.643664
 20
301.200000
 30
0.0
  0
LWPOLYLINE
  5
18c
100
AcDbEntity
  8
0
 62
1
100
AcDbPolyline
 90
2
 70
1
 10
36.043664
 20
301.200000
 30
0.0
 10
36.043664
 20
301.200000
 30
0.0
  0
SPLINE
  5
18d
100
AcDbEntity
  8
0
 62
1
100
AcDbSpline
 70
8
 71
3
 72
8
 73
4
 74
0
 40
0
 40
0
 40
0
 40
0
 40
1
 40
1
 40
1
 40
1
 10
65.643664
 20
289.200000
 30
0.0
 10
65.643664
 20
288.513143
 30
0.0
 10
65.086857
 20
287.956336
 30
0.0
 10
64.400000
 20
287.956336
 30
0.0
  0
SPLINE
  5
18e
100
AcDbEntity
  8
0
 62
1
100
AcDbSpline
 70
8
 71
3
 72
8
 73
4
 74
0
 40
0
 40
0
 40
0
 40
0
 40
1
 40
1
 40
1
 40
1
 10
64.400000
 20
287.956336
 30
0.0
 10
63.713143
 20
287.956336
 30
0.0
 10
63.156336
 20
288.513143
 30
0.0
 10
63.156336
 20
289.200000
 30
0.0
  0
SPLINE
  5
18f
100
AcDbEntity
  8
0
 62
1
100
AcDbSpline
 70
8
 71
3
 72
8
 73
4
 74
0
 40
0
 40
0
 40
0
 40
0
 40
1
 40
1
 40
1
 40
1
 10
63.156336
 20
289.200000
 30
0.0
 10
63.156336
 20
289.886857
 30
0.0
 10
63.713143
 20
290.443664
 30
0.0
 10
64.400000
 20
290.443664
 30
0.0
  0
SPLINE
  5
190
100
AcDbEntity
  8
0
 62
1
100
AcDbSpline
 70
8
 71
3
 72
8
 73
4
 74
0
 40
0
 40
0
 40
0
 40
0
 40
1
 40
1
 40
1
 40
1
 10
64.400000
 20
290.443664
 30
0.0
 10
65.086857
 20
290.443664
 30
0.0
 10
65.643664
 20
289.886857
 30
0.0
 10
65.643664
 20
289.200000
 30
0.0
  0
LWPOLYLINE
  5
191
100
AcDbEntity
  8
0
 62
1
100
AcDbPolyline
 90
2
 70
1
 10
65.643664
 20
301.200000
 30
0.0
 10
65.643664
 20
301.200000
 30
0.0
  0
SPLINE
  5
192
100
AcDbEntity
  8
0
 62
1
100
AcDbSpline
 70
8
 71
3
 72
8
 73
4
 74
0
 40
0
 40
0
 40
0
 40
0
 40
1
 40
1
 40
1
 40
1
 10
36.043664
 20
289.200000
 30
0.0
 10
36.043664
 20
288.513143
 30
0.0
 10
35.486857
 20
287.956336
 30
0.0
 10
34.800000
 20
287.956336
 30
0.0
  0
SPLINE
  5
193
100
AcDbEntity
  8
0
 62
1
100
AcDbSpline
 70
8
 71
3
 72
8
 73
4
 74
0
 40
0
 40
0
 40
0
 40
0
 40
1
 40
1
 40
1
 40
1
 10
34.800000
 20
287.956336
 30
0.0
 10
34.113143
 20
287.956336
 30
0.0
 10
33.556336
 20
288.513143
 30
0.0
 10
33.556336
 20
289.200000
 30
0.0
  0
SPLINE
  5
194
100
AcDbEntity
  8
0
 62
1
100
AcDbSpline
 70
8
 71
3
 72
8
 73
4
 74
0
 40
0
 40
0
 40
0
 40
0
 40
1
 40
1
 40
1
 40
1
 10
33.556336
 20
289.200000
 30
0.0
 10
33.556336
 20
289.886857
 30
0.0
 10
34.113143
 20
290.443664
 30
0.0
 10
34.800000
 20
290.443664
 30
0.0
  0
SPLINE
  5
195
100
AcDbEntity
  8
0
 62
1
100
AcDbSpline
 70
8
 71
3
 72
8
 73
4
 74
0
 40
0
 40
0
 40
0
 40
0
 40
1
 40
1
 40
1
 40
1
 10
34.800000
 20
290.443664
 30
0.0
 10
35.486857
 20
290.443664
 30
0.0
 10
36.043664
 20
289.886857
 30
0.0
 10
36.043664
 20
289.200000
 30
0.0
  0
LWPOLYLINE
  5
196
100
AcDbEntity
  8
0
 62
1
100
AcDbPolyline
 90
2
 70
1
 10
65.643664
 20
289.200000
 30
0.0
 10
65.643664
 20
289.200000
 30
0.0
  0
SPLINE
  5
197
100
AcDbEntity
  8
0
 62
1
100
AcDbSpline
 70
8
 71
3
 72
8
 73
4
 74
0
 40
0
 40
0
 40
0
 40
0
 40
1
 40
1
 40
1
 40
1
 10
3.243660
 20
289.200000
 30
0.0
 10
3.243660
 20
288.513143
 30
0.0
 10
2.686852
 20
287.956336
 30
0.0
 10
1.999995
 20
287.956336
 30
0.0
  0
SPLINE
  5
198
100
AcDbEntity
  8
0
 62
1
100
AcDbSpline
 70
8
 71
3
 72
8
 73
4
 74
0
 40
0
 40
0
 40
0
 40
0
 40
1
 40
1
 40
1
 40
1
 10
1.999995
 20
287.956336
 30
0.0
 10
1.670155
 20
287.956336
 30
0.0
 10
1.353824
 20
288.087365
 30
0.0
 10
1.120592
 20
288.320597
 30
0.0
  0
SPLINE
  5
199
100
AcDbEntity
  8
0
 62
1
100
AcDbSpline
 70
8
 71
3
 72
8
 73
4
 74
0
 40
0
 40
0
 40
0
 40
0
 40
1
 40
1
 40
1
 40
1
 10
1.120592
 20
288.320597
 30
0.0
 10
0.887360
 20
288.553829
 30
0.0
 10
0.756331
 20
288.870160
 30
0.0
 10
0.756331
 20
289.200000
 30
0.0
  0
SPLINE
  5
19a
100
AcDbEntity
  8
0
 62
1
100
AcDbSpline
 70
8
 71
3
 72
8
 73
4
 74
0
 40
0
 40
0
 40
0
 40
0
 40
1
 40
1
 40
1
 40
1
 10
0.756331
 20
289.200000
 30
0.0
 10
0.756331
 20
289.529840
 30
0.0
 10
0.887360
 20
289.846171
 30
0.0
 10
1.120592
 20
290.079403
 30
0.0
  0
SPLINE
  5
19b
100
AcDbEntity
  8
0
 62
1
100
AcDbSpline
 70
8
 71
3
 72
8
 73
4
 74
0
 40
0
 40
0
 40
0
 40
0
 40
1
 40
1
 40
1
 40
1
 10
1.120592
 20
290.079403
 30
0.0
 10
1.353824
 20
290.312635
 30
0.0
 10
1.670155
 20
290.443664
 30
0.0
 10
1.999995
 20
290.443664
 30
0.0
  0
SPLINE
  5
19c
100
AcDbEntity
  8
0
 62
1
100
AcDbSpline
 70
8
 71
3
 72
8
 73
4
 74
0
 40
0
 40
0
 40
0
 40
0
 40
1
 40
1
 40
1
 40
1
 10
1.999995
 20
290.443664
 30
0.0
 10
2.686852
 20
290.443664
 30
0.0
 10
3.243660
 20
289.886857
 30
0.0
 10
3.243660
 20
289.200000
 30
0.0
  0
LWPOLYLINE
  5
19d
100
AcDbEntity
  8
0
 62
1
100
AcDbPolyline
 90
2
 70
1
 10
36.043664
 20
289.200000
 30
0.0
 10
36.043664
 20
289.200000
 30
0.0
  0
SPLINE
  5
19e
100
AcDbEntity
  8
0
 62
1
100
AcDbSpline
 70
8
 71
3
 72
8
 73
4
 74
0
 40
0
 40
0
 40
0
 40
0
 40
1
 40
1
 40
1
 40
1
 10
3.243660
 20
262.800000
 30
0.0
 10
3.243660
 20
262.113143
 30
0.0
 10
2.686852
 20
261.556336
 30
0.0
 10
1.999995
 20
261.556336
 30
0.0
  0
SPLINE
  5
19f
100
AcDbEntity
  8
0
 62
1
100
AcDbSpline
 70
8
 71
3
 72
8
 73
4
 74
0
 40
0
 40
0
 40
0
 40
0
 40
1
 40
1
 40
1
 40
1
 10
1.999995
 20
261.556336
 30
0.0
 10
1.670155
 20
261.556336
 30
0.0
 10
1.353824
 20
261.687365
 30
0.0
 10
1.120592
 20
261.920597
 30
0.0
  0
SPLINE
  5
1a0
100
AcDbEntity
  8
0
 62
1
100
AcDbSpline
 70
8
 71
3
 72
8
 73
4
 74
0
 40
0
 40
0
 40
0
 40
0
 40
1
 40
1
 40
1
 40
1
 10
1.120592
 20
261.920597
 30
0.0
 10
0.887360
 20
262.153829
 30
0.0
 10
0.756331
 20
262.470160
 30
0.0
 10
0.756331
 20
262.800000
 30
0.0
  0
SPLINE
  5
1a1
100
AcDbEntity
  8
0
 62
1
100
AcDbSpline
 70
8
 71
3
 72
8
 73
4
 74
0
 40
0
 40
0
 40
0
 40
0
 40
1
 40
1
 40
1
 40
1
 10
0.756331
 20
262.800000
 30
0.0
 10
0.756331
 20
263.129840
 30
0.0
 10
0.887360
 20
263.446171
 30
0.0
 10
1.120592
 20
263.679403
 30
0.0
  0
SPLINE
  5
1a2
100
AcDbEntity
  8
0
 62
1
100
AcDbSpline
 70
8
 71
3
 72
8
 73
4
 74
0
 40
0
 40
0
 40
0
 40
0
 40
1
 40
1
 40
1
 40
1
 10
1.120592
 20
263.679403
 30
0.0
 10
1.353824
 20
263.912635
 30
0.0
 10
1.670155
 20
264.043664
 30
0.0
 10
1.999995
 20
264.043664
 30
0.0
  0
SPLINE
  5
1a3
100
AcDbEntity
  8
0
 62
1
100
AcDbSpline
 70
8
 71
3
 72
8
 73
4
 74
0
 40
0
 40
0
 40
0
 40
0
 40
1
 40
1
 40
1
 40
1
 10
1.999995
 20
264.043664
 30
0.0
 10
2.686852
 20
264.043664
 30
0.0
 10
3.243660
 20
263.486857
 30
0.0
 10
3.243660
 20
262.800000
 30
0.0
  0
LWPOLYLINE
  5
1a4
100
AcDbEntity
  8
0
 62
1
100
AcDbPolyline
 90
2
 70
1
 10
3.243660
 20
289.200000
 30
0.0
 10
3.243660
 20
289.200000
 30
0.0
  0
SPLINE
  5
1a5
100
AcDbEntity
  8
0
 62
1
100
AcDbSpline
 70
8
 71
3
 72
8
 73
4
 74
0
 40
0
 40
0
 40
0
 40
0
 40
1
 40
1
 40
1
 40
1
 10
36.043664
 20
262.800000
 30
0.0
 10
36.043664
 20
262.113143
 30
0.0
 10
35.486857
 20
261.556336
 30
0.0
 10
34.800000
 20
261.556336
 30
0.0
  0
SPLINE
  5
1a6
100
AcDbEntity
  8
0
 62
1
100
AcDbSpline
 70
8
 71
3
 72
8
 73
4
 74
0
 40
0
 40
0
 40
0
 40
0
 40
1
 40
1
 40
1
 40
1
 10
34.800000
 20
261.556336
 30
0.0
 10
34.113143
 20
261.556336
 30
0.0
 10
33.556336
 20
262.113143
 30
0.0
 10
33.556336
 20
262.800000
 30
0.0
  0
SPLINE
  5
1a7
100
AcDbEntity
  8
0
 62
1
100
AcDbSpline
 70
8
 71
3
 72
8
 73
4
 74
0
 40
0
 40
0
 40
0
 40
0
 40
1
 40
1
 40
1
 40
1
 10
33.556336
 20
262.800000
 30
0.0
 10
33.556336
 20
263.486857
 30
0.0
 10
34.113143
 20
264.043664
 30
0.0
 10
34.800000
 20
264.043664
 30
0.0
  0
SPLINE
  5
1a8
100
AcDbEntity
  8
0
 62
1
100
AcDbSpline
 70
8
 71
3
 72
8
 73
4
 74
0
 40
0
 40
0
 40
0
 40
0
 40
1
 40
1
 40
1
 40
1
 10
34.800000
 20
264.043664
 30
0.0
 10
35.486857
 20
264.043664
 30
0.0
 10
36.043664
 20
263.486857
 30
0.0
 10
36.043664
 20
262.800000
 30
0.0
  0
LWPOLYLINE
  5
1a9
100
AcDbEntity
  8
0
 62
1
100
AcDbPolyline
 90
2
 70
1
 10
3.243660
 20
262.800000
 30
0.0
 10
3.243660
 20
262.800000
 30
0.0
  0
SPLINE
  5
1aa
100
AcDbEntity
  8
0
 62
1
100
AcDbSpline
 70
8
 71
3
 72
8
 73
4
 74
0
 40
0
 40
0
 40
0
 40
0
 40
1
 40
1
 40
1
 40
1
 10
65.643664
 20
262.800000
 30
0.0
 10
65.643664
 20
262.113143
 30
0.0
 10
65.086857
 20
261.556336
 30
0.0
 10
64.400000
 20
261.556336
 30
0.0
  0
SPLINE
  5
1ab
100
AcDbEntity
  8
0
 62
1
100
AcDbSpline
 70
8
 71
3
 72
8
 73
4
 74
0
 40
0
 40
0
 40
0
 40
0
 40
1
 40
1
 40
1
 40
1
 10
64.400000
 20
261.556336
 30
0.0
 10
63.713143
 20
261.556336
 30
0.0
 10
63.156336
 20
262.113143
 30
0.0
 10
63.156336
 20
262.800000
 30
0.0
  0
SPLINE
  5
1ac
100
AcDbEntity
  8
0
 62
1
100
AcDbSpline
 70
8
 71
3
 72
8
 73
4
 74
0
 40
0
 40
0
 40
0
 40
0
 40
1
 40
1
 40
1
 40
1
 10
63.156336
 20
262.800000
 30
0.0
 10
63.156336
 20
263.486857
 30
0.0
 10
63.713143
 20
264.043664
 30
0.0
 10
64.400000
 20
264.043664
 30
0.0
  0
SPLINE
  5
1ad
100
AcDbEntity
  8
0
 62
1
100
AcDbSpline
 70
8
 71
3
 72
8
 73
4
 74
0
 40
0
 40
0
 40
0
 40
0
 40
1
 40
1
 40
1
 40
1
 10
64.400000
 20
264.043664
 30
0.0
 10
65.086857
 20
264.043664
 30
0.0
 10
65.643664
 20
263.486857
 30
0.0
 10
65.643664
 20
262.800000
 30
0.0
  0
LWPOLYLINE
  5
1ae
100
AcDbEntity
  8
0
 62
1
100
AcDbPolyline
 90
2
 70
1
 10
36.043664
 20
262.800000
 30
0.0
 10
36.043664
 20
262.800000
 30
0.0
  0
SPLINE
  5
1af
100
AcDbEntity
  8
0
 62
1
100
AcDbSpline
 70
8
 71
3
 72
8
 73
4
 74
0
 40
0
 40
0
 40
0
 40
0
 40
1
 40
1
 40
1
 40
1
 10
65.643664
 20
250.800000
 30
0.0
 10
65.643664
 20
250.113143
 30
0.0
 10
65.086857
 20
249.556336
 30
0.0
 10
64.400000
 20
249.556336
 30
0.0
  0
SPLINE
  5
1b0
100
AcDbEntity
  8
0
 62
1
100
AcDbSpline
 70
8
 71
3
 72
8
 73
4
 74
0
 40
0
 40
0
 40
0
 40
0
 40
1
 40
1
 40
1
 40
1
 10
64.400000
 20
249.556336
 30
0.0
 10
63.713143
 20
249.556336
 30
0.0
 10
63.156336
 20
250.113143
 30
0.0
 10
63.156336
 20
250.800000
 30
0.0
  0
SPLINE
  5
1b1
100
AcDbEntity
  8
0
 62
1
100
AcDbSpline
 70
8
 71
3
 72
8
 73
4
 74
0
 40
0
 40
0
 40
0
 40
0
 40
1
 40
1
 40
1
 40
1
 10
63.156336
 20
250.800000
 30
0.0
 10
63.156336
 20
251.486857
 30
0.0
 10
63.713143
 20
252.043664
 30
0.0
 10
64.400000
 20
252.043664
 30
0.0
  0
SPLINE
  5
1b2
100
AcDbEntity
  8
0
 62
1
100
AcDbSpline
 70
8
 71
3
 72
8
 73
4
 74
0
 40
0
 40
0
 40
0
 40
0
 40
1
 40
1
 40
1
 40
1
 10
64.400000
 20
252.043664
 30
0.0
 10
65.086857
 20
252.043664
 30
0.0
 10
65.643664
 20
251.486857
 30
0.0
 10
65.643664
 20
250.800000
 30
0.0
  0
LWPOLYLINE
  5
1b3
100
AcDbEntity
  8
0
 62
1
100
AcDbPolyline
 90
2
 70
1
 10
65.643664
 20
262.800000
 30
0.0
 10
65.643664
 20
262.800000
 30
0.0
  0
SPLINE
  5
1b4
100
AcDbEntity
  8
0
 62
1
100
AcDbSpline
 70
8
 71
3
 72
8
 73
4
 74
0
 40
0
 40
0
 40
0
 40
0
 40
1
 40
1
 40
1
 40
1
 10
65.643664
 20
224.399996
 30
0.0
 10
65.643664
 20
223.713139
 30
0.0
 10
65.086857
 20
223.156332
 30
0.0
 10
64.400000
 20
223.156332
 30
0.0
  0
SPLINE
  5
1b5
100
AcDbEntity
  8
0
 62
1
100
AcDbSpline
 70
8
 71
3
 72
8
 73
4
 74
0
 40
0
 40
0
 40
0
 40
0
 40
1
 40
1
 40
1
 40
1
 10
64.400000
 20
223.156332
 30
0.0
 10
63.713143
 20
223.156332
 30
0.0
 10
63.156336
 20
223.713139
 30
0.0
 10
63.156336
 20
224.399996
 30
0.0
  0
SPLINE
  5
1b6
100
AcDbEntity
  8
0
 62
1
100
AcDbSpline
 70
8
 71
3
 72
8
 73
4
 74
0
 40
0
 40
0
 40
0
 40
0
 40
1
 40
1
 40
1
 40
1
 10
63.156336
 20
224.399996
 30
0.0
 10
63.156336
 20
225.086853
 30
0.0
 10
63.713143
 20
225.643660
 30
0.0
 10
64.400000
 20
225.643660
 30
0.0
  0
SPLINE
  5
1b7
100
AcDbEntity
  8
0
 62
1
100
AcDbSpline
 70
8
 71
3
 72
8
 73
4
 74
0
 40
0
 40
0
 40
0
 40
0
 40
1
 40
1
 40
1
 40
1
 10
64.400000
 20
225.643660
 30
0.0
 10
65.086857
 20
225.643660
 30
0.0
 10
65.643664
 20
225.086853
 30
0.0
 10
65.643664
 20
224.399996
 30
0.0
  0
LWPOLYLINE
  5
1b8
100
AcDbEntity
  8
0
 62
1
100
AcDbPolyline
 90
2
 70
1
 10
65.643664
 20
250.800000
 30
0.0
 10
65.643664
 20
250.800000
 30
0.0
  0
SPLINE
  5
1b9
100
AcDbEntity
  8
0
 62
1
100
AcDbSpline
 70
8
 71
3
 72
8
 73
4
 74
0
 40
0
 40
0
 40
0
 40
0
 40
1
 40
1
 40
1
 40
1
 10
36.043664
 20
224.399996
 30
0.0
 10
36.043664
 20
223.713139
 30
0.0
 10
35.486857
 20
223.156332
 30
0.0
 10
34.800000
 20
223.156332
 30
0.0
  0
SPLINE
  5
1ba
100
AcDbEntity
  8
0
 62
1
100
AcDbSpline
 70
8
 71
3
 72
8
 73
4
 74
0
 40
0
 40
0
 40
0
 40
0
 40
1
 40
1
 40
1
 40
1
 10
34.800000
 20
223.156332
 30
0.0
 10
34.113143
 20
223.156332
 30
0.0
 10
33.556336
 20
223.713139
 30
0.0
 10
33.556336
 20
224.399996
 30
0.0
  0
SPLINE
  5
1bb
100
AcDbEntity
  8
0
 62
1
100
AcDbSpline
 70
8
 71
3
 72
8
 73
4
 74
0
 40
0
 40
0
 40
0
 40
0
 40
1
 40
1
 40
1
 40
1
 10
33.556336
 20
224.399996
 30
0.0
 10
33.556336
 20
225.086853
 30
0.0
 10
34.113143
 20
225.643660
 30
0.0
 10
34.800000
 20
225.643660
 30
0.0
  0
SPLINE
  5
1bc
100
AcDbEntity
  8
0
 62
1
100
AcDbSpline
 70
8
 71
3
 72
8
 73
4
 74
0
 40
0
 40
0
 40
0
 40
0
 40
1
 40
1
 40
1
 40
1
 10
34.800000
 20
225.643660
 30
0.0
 10
35.486857
 20
225.643660
 30
0.0
 10
36.043664
 20
225.086853
 30
0.0
 10
36.043664
 20
224.399996
 30
0.0
  0
LWPOLYLINE
  5
1bd
100
AcDbEntity
  8
0
 62
1
100
AcDbPolyline
 90
2
 70
1
 10
65.643664
 20
224.399996
 30
0.0
 10
65.643664
 20
224.399996
 30
0.0
  0
SPLINE
  5
1be
100
AcDbEntity
  8
0
 62
1
100
AcDbSpline
 70
8
 71
3
 72
8
 73
4
 74
0
 40
0
 40
0
 40
0
 40
0
 40
1
 40
1
 40
1
 40
1
 10
36.043664
 20
250.800000
 30
0.0
 10
36.043664
 20
250.113143
 30
0.0
 10
35.486857
 20
249.556336
 30
0.0
 10
34.800000
 20
249.556336
 30
0.0
  0
SPLINE
  5
1bf
100
AcDbEntity
  8
0
 62
1
100
AcDbSpline
 70
8
 71
3
 72
8
 73
4
 74
0
 40
0
 40
0
 40
0
 40
0
 40
1
 40
1
 40
1
 40
1
 10
34.800000
 20
249.556336
 30
0.0
 10
34.113143
 20
249.556336
 30
0.0
 10
33.556336
 20
250.113143
 30
0.0
 10
33.556336
 20
250.800000
 30
0.0
  0
SPLINE
  5
1c0
100
AcDbEntity
  8
0
 62
1
100
AcDbSpline
 70
8
 71
3
 72
8
 73
4
 74
0
 40
0
 40
0
 40
0
 40
0
 40
1
 40
1
 40
1
 40
1
 10
33.556336
 20
250.800000
 30
0.0
 10
33.556336
 20
251.486857
 30
0.0
 10
34.113143
 20
252.043664
 30
0.0
 10
34.800000
 20
252.043664
 30
0.0
  0
SPLINE
  5
1c1
100
AcDbEntity
  8
0
 62
1
100
AcDbSpline
 70
8
 71
3
 72
8
 73
4
 74
0
 40
0
 40
0
 40
0
 40
0
 40
1
 40
1
 40
1
 40
1
 10
34.800000
 20
252.043664
 30
0.0
 10
35.486857
 20
252.043664
 30
0.0
 10
36.043664
 20
251.486857
 30
0.0
 10
36.043664
 20
250.800000
 30
0.0
  0
LWPOLYLINE
  5
1c2
100
AcDbEntity
  8
0
 62
1
100
AcDbPolyline
 90
2
 70
1
 10
36.043664
 20
224.399996
 30
0.0
 10
36.043664
 20
224.399996
 30
0.0
  0
SPLINE
  5
1c3
100
AcDbEntity
  8
0
 62
1
100
AcDbSpline
 70
8
 71
3
 72
8
 73
4
 74
0
 40
0
 40
0
 40
0
 40
0
 40
1
 40
1
 40
1
 40
1
 10
3.243660
 20
224.399996
 30
0.0
 10
3.243660
 20
223.713139
 30
0.0
 10
2.686852
 20
223.156332
 30
0.0
 10
1.999995
 20
223.156332
 30
0.0
  0
SPLINE
  5
1c4
100
AcDbEntity
  8
0
 62
1
100
AcDbSpline
 70
8
 71
3
 72
8
 73
4
 74
0
 40
0
 40
0
 40
0
 40
0
 40
1
 40
1
 40
1
 40
1
 10
1.999995
 20
223.156332
 30
0.0
 10
1.670155
 20
223.156332
 30
0.0
 10
1.353824
 20
223.287361
 30
0.0
 10
1.120592
 20
223.520593
 30
0.0
  0
SPLINE
  5
1c5
100
AcDbEntity
  8
0
 62
1
100
AcDbSpline
 70
8
 71
3
 72
8
 73
4
 74
0
 40
0
 40
0
 40
0
 40
0
 40
1
 40
1
 40
1
 40
1
 10
1.120592
 20
223.520593
 30
0.0
 10
0.887360
 20
223.753825
 30
0.0
 10
0.756331
 20
224.070156
 30
0.0
 10
0.756331
 20
224.399996
 30
0.0
  0
SPLINE
  5
1c6
100
AcDbEntity
  8
0
 62
1
100
AcDbSpline
 70
8
 71
3
 72
8
 73
4
 74
0
 40
0
 40
0
 40
0
 40
0
 40
1
 40
1
 40
1
 40
1
 10
0.756331
 20
224.399996
 30
0.0
 10
0.756331
 20
224.729836
 30
0.0
 10
0.887360
 20
225.046167
 30
0.0
 10
1.120592
 20
225.279399
 30
0.0
  0
SPLINE
  5
1c7
100
AcDbEntity
  8
0
 62
1
100
AcDbSpline
 70
8
 71
3
 72
8
 73
4
 74
0
 40
0
 40
0
 40
0
 40
0
 40
1
 40
1
 40
1
 40
1
 10
1.120592
 20
225.279399
 30
0.0
 10
1.353824
 20
225.512631
 30
0.0
 10
1.670155
 20
225.643660
 30
0.0
 10
1.999995
 20
225.643660
 30
0.0
  0
SPLINE
  5
1c8
100
AcDbEntity
  8
0
 62
1
100
AcDbSpline
 70
8
 71
3
 72
8
 73
4
 74
0
 40
0
 40
0
 40
0
 40
0
 40
1
 40
1
 40
1
 40
1
 10
1.999995
 20
225.643660
 30
0.0
 10
2.686852
 20
225.643660
 30
0.0
 10
3.243660
 20
225.086853
 30
0.0
 10
3.243660
 20
224.399996
 30
0.0
  0
LWPOLYLINE
  5
1c9
100
AcDbEntity
  8
0
 62
1
100
AcDbPolyline
 90
2
 70
1
 10
36.043664
 20
250.800000
 30
0.0
 10
36.043664
 20
250.800000
 30
0.0
  0
SPLINE
  5
1ca
100
AcDbEntity
  8
0
 62
1
100
AcDbSpline
 70
8
 71
3
 72
8
 73
4
 74
0
 40
0
 40
0
 40
0
 40
0
 40
1
 40
1
 40
1
 40
1
 10
3.243660
 20
250.800000
 30
0.0
 10
3.243660
 20
250.113143
 30
0.0
 10
2.686852
 20
249.556336
 30
0.0
 10
1.999995
 20
249.556336
 30
0.0
  0
SPLINE
  5
1cb
100
AcDbEntity
  8
0
 62
1
100
AcDbSpline
 70
8
 71
3
 72
8
 73
4
 74
0
 40
0
 40
0
 40
0
 40
0
 40
1
 40
1
 40
1
 40
1
 10
1.999995
 20
249.556336
 30
0.0
 10
1.670155
 20
249.556336
 30
0.0
 10
1.353824
 20
249.687365
 30
0.0
 10
1.120592
 20
249.920597
 30
0.0
  0
SPLINE
  5
1cc
100
AcDbEntity
  8
0
 62
1
100
AcDbSpline
 70
8
 71
3
 72
8
 73
4
 74
0
 40
0
 40
0
 40
0
 40
0
 40
1
 40
1
 40
1
 40
1
 10
1.120592
 20
249.920597
 30
0.0
 10
0.887360
 20
250.153829
 30
0.0
 10
0.756331
 20
250.470160
 30
0.0
 10
0.756331
 20
250.800000
 30
0.0
  0
SPLINE
  5
1cd
100
AcDbEntity
  8
0
 62
1
100
AcDbSpline
 70
8
 71
3
 72
8
 73
4
 74
0
 40
0
 40
0
 40
0
 40
0
 40
1
 40
1
 40
1
 40
1
 10
0.756331
 20
250.800000
 30
0.0
 10
0.756331
 20
251.129840
 30
0.0
 10
0.887360
 20
251.446171
 30
0.0
 10
1.120592
 20
251.679403
 30
0.0
  0
SPLINE
  5
1ce
100
AcDbEntity
  8
0
 62
1
100
AcDbSpline
 70
8
 71
3
 72
8
 73
4
 74
0
 40
0
 40
0
 40
0
 40
0
 40
1
 40
1
 40
1
 40
1
 10
1.120592
 20
251.679403
 30
0.0
 10
1.353824
 20
251.912635
 30
0.0
 10
1.670155
 20
252.043664
 30
0.0
 10
1.999995
 20
252.043664
 30
0.0
  0
SPLINE
  5
1cf
100
AcDbEntity
  8
0
 62
1
100
AcDbSpline
 70
8
 71
3
 72
8
 73
4
 74
0
 40
0
 40
0
 40
0
 40
0
 40
1
 40
1
 40
1
 40
1
 10
1.999995
 20
252.043664
 30
0.0
 10
2.686852
 20
252.043664
 30
0.0
 10
3.243660
 20
251.486857
 30
0.0
 10
3.243660
 20
250.800000
 30
0.0
  0
LWPOLYLINE
  5
1d0
100
AcDbEntity
  8
0
 62
1
100
AcDbPolyline
 90
2
 70
1
 10
3.243660
 20
224.399996
 30
0.0
 10
3.243660
 20
224.399996
 30
0.0
  0
LWPOLYLINE
  5
1d1
100
AcDbEntity
  8
0
 62
1
100
AcDbPolyline
 90
2
 70
1
 10
3.243660
 20
250.800000
 30
0.0
 10
3.243660
 20
250.800000
 30
0.0
  0
ENDSEC
  0
SECTION
  2
OBJECTS
  0
DICTIONARY
  5
C
330
0
100
AcDbDictionary
  3
ACAD_GROUP
350
D
  3
ACAD_MLINESTYLE
350
17
  0
DICTIONARY
  5
D
330
C
100
AcDbDictionary
  0
DICTIONARY
  5
1A
330
C
100
AcDbDictionary
  0
DICTIONARY
  5
17
330
C
100
AcDbDictionary
  3
STANDARD
350
18
  0
DICTIONARY
  5
19
330
C
100
AcDbDictionary
  0
ENDSEC
  0
EOF
