<?xml version="1.0" encoding="UTF-8" standalone="no"?>
<svg
   xmlns:sketch="http://www.bohemiancoding.com/sketch/ns"
   xmlns:dc="http://purl.org/dc/elements/1.1/"
   xmlns:cc="http://creativecommons.org/ns#"
   xmlns:rdf="http://www.w3.org/1999/02/22-rdf-syntax-ns#"
   xmlns:svg="http://www.w3.org/2000/svg"
   xmlns="http://www.w3.org/2000/svg"
   xmlns:sodipodi="http://sodipodi.sourceforge.net/DTD/sodipodi-0.dtd"
   xmlns:inkscape="http://www.inkscape.org/namespaces/inkscape"
   width="163.28223mm"
   height="454.26001mm"
   viewBox="0 -374 163.28223 454.26001"
   version="1.1"
   id="svg2"
   inkscape:version="0.91 r13725"
   sodipodi:docname="pi-camera-with-pir.svg">
  <metadata
     id="metadata12">
    <rdf:RDF>
      <cc:Work
         rdf:about="">
        <dc:format>image/svg+xml</dc:format>
        <dc:type
           rdf:resource="http://purl.org/dc/dcmitype/StillImage" />
        <dc:title>OpenSCAD Model</dc:title>
      </cc:Work>
    </rdf:RDF>
  </metadata>
  <defs
     id="defs10" />
  <sodipodi:namedview
     pagecolor="#ffffff"
     bordercolor="#666666"
     borderopacity="1"
     objecttolerance="10"
     gridtolerance="10"
     guidetolerance="10"
     inkscape:pageopacity="0"
     inkscape:pageshadow="2"
     inkscape:window-width="1920"
     inkscape:window-height="1022"
     id="namedview8"
     showgrid="false"
     fit-margin-top="40"
     fit-margin-left="40"
     fit-margin-right="40"
     fit-margin-bottom="40"
     inkscape:zoom="0.3561735"
     inkscape:cx="432.14597"
     inkscape:cy="754.25061"
     inkscape:window-x="0"
     inkscape:window-y="27"
     inkscape:window-maximized="1"
     inkscape:current-layer="svg2" />
  <title
     id="title4">OpenSCAD Model</title>
  <path
     d="m 123.14111,-92.842945 -82.999999,0 0,38.000338 82.999999,0 z"
     id="path4384"
     style="fill:none;stroke:#000000;stroke-width:0.28222224;stroke-miterlimit:4;stroke-dasharray:none;stroke-opacity:1"
     inkscape:connector-curvature="0" />
  <path
     d="m 123.14111,-356.41389 -41.999999,0 0,38 41.999999,0 z"
     id="path4376"
     style="fill:none;stroke:#000000;stroke-width:0.28222224;stroke-miterlimit:4;stroke-dasharray:none;stroke-opacity:1"
     inkscape:connector-curvature="0" />
  <path
     d="m 97.641111,-325.41389 0,-4 8.999999,0 0,4 z"
     id="path4372"
     style="fill:none;stroke:#ff0000;stroke-width:0.28222224;stroke-miterlimit:4;stroke-dasharray:none;stroke-opacity:1"
     inkscape:connector-curvature="0" />
  <path
     d="m 123.14111,-308.41389 -41.999999,0 0,38 41.999999,0 z"
     id="path4364"
     style="fill:none;stroke:#000000;stroke-width:0.28222224;stroke-miterlimit:4;stroke-dasharray:none;stroke-opacity:1"
     inkscape:connector-curvature="0" />
  <path
     d="m 86.141111,-277.41389 0,-24 31.999999,0 0,24 z"
     id="path4358"
     style="fill:none;stroke:#0000ff;stroke-width:0.28222224;stroke-miterlimit:4;stroke-dasharray:none;stroke-opacity:1"
     inkscape:connector-curvature="0" />
  <path
     d="m 123.14111,-212.41389 -82.999999,0 0,38 82.999999,0 z"
     id="path4330"
     style="fill:none;stroke:#000000;stroke-width:0.28222224;stroke-miterlimit:4;stroke-dasharray:none;stroke-opacity:1"
     inkscape:connector-curvature="0" />
  <path
     d="m 86.141111,-181.41389 0,-24 31.999999,0 0,24 z"
     id="path4322"
     style="fill:none;stroke:#0000ff;stroke-width:0.28222224;stroke-miterlimit:4;stroke-dasharray:none;stroke-opacity:1"
     inkscape:connector-curvature="0" />
  <path
     d="m 58.841111,-187.91389 0,-17.4 8.6,0 0,3 5.7,0 0,3 -5.7,0 0,11.4 z"
     id="path4320"
     style="fill:none;stroke:#0000ff;stroke-width:0.28222224;stroke-miterlimit:4;stroke-dasharray:none;stroke-opacity:1"
     inkscape:connector-curvature="0" />
  <path
     d="m 78.141111,-188.41389 0,-14 2,0 0,14 z"
     id="path4318"
     style="fill:none;stroke:#ff0000;stroke-width:0.28222224;stroke-miterlimit:4;stroke-dasharray:none;stroke-opacity:1"
     inkscape:connector-curvature="0" />
  <path
     d="m 45.141111,-188.41389 0,-14 2,0 0,14 z"
     id="path4316"
     style="fill:none;stroke:#ff0000;stroke-width:0.28222224;stroke-miterlimit:4;stroke-dasharray:none;stroke-opacity:1"
     inkscape:connector-curvature="0" />
  <path
     d="m 123.14111,-17.094696 -51.999999,0 0,6.50004 4.5,0 0,24.000152 -25,0 0,-24.000152 4.5,0 0,-6.50004 -15,0 0,38.000224 82.999999,0 z"
     id="path4308"
     style="fill:none;stroke:#000000;stroke-width:0.28222224;stroke-miterlimit:4;stroke-dasharray:none;stroke-opacity:1"
     inkscape:connector-curvature="0" />
  <path
     d="m 86.141111,13.905506 0,-24.000152 31.999999,0 0,24.000152 z"
     id="path4300"
     style="fill:none;stroke:#0000ff;stroke-width:0.28222224;stroke-miterlimit:4;stroke-dasharray:none;stroke-opacity:1"
     inkscape:connector-curvature="0" />
  <path
     d="m 45.141111,6.9054591 0,-14.0000881 2,0 0,14.0000881 z"
     id="path4298"
     style="fill:none;stroke:#ff0000;stroke-width:0.28222224;stroke-miterlimit:4;stroke-dasharray:none;stroke-opacity:1"
     inkscape:connector-curvature="0" />
  <path
     d="m 78.141111,6.9054591 0,-14.0000881 2,0 0,14.0000881 z"
     id="path4296"
     style="fill:none;stroke:#ff0000;stroke-width:0.28222224;stroke-miterlimit:4;stroke-dasharray:none;stroke-opacity:1"
     inkscape:connector-curvature="0" />
  <path
     d="m 123.14111,30.905537 -51.999999,0 0,6.500005 3,0 0,6.500002 -22,0 0,-6.500002 3,0 0,-6.500005 -15,0 0,38.000017 82.999999,0 z"
     id="path4288"
     style="fill:none;stroke:#000000;stroke-width:0.28222224;stroke-miterlimit:4;stroke-dasharray:none;stroke-opacity:1"
     inkscape:connector-curvature="0" />
  <path
     d="m 86.141111,61.905544 0,-24.000001 31.999999,0 0,24.000001 z"
     id="path4280"
     style="fill:none;stroke:#0000ff;stroke-width:0.28222224;stroke-miterlimit:4;stroke-dasharray:none;stroke-opacity:1"
     inkscape:connector-curvature="0" />
  <path
     d="m 45.141111,54.905544 0,-14 2,0 0,14 z"
     id="path4278"
     style="fill:none;stroke:#ff0000;stroke-width:0.28222224;stroke-miterlimit:4;stroke-dasharray:none;stroke-opacity:1"
     inkscape:connector-curvature="0" />
  <path
     d="m 78.141111,54.905544 0,-14 2,0 0,14 z"
     id="path4276"
     style="fill:none;stroke:#ff0000;stroke-width:0.28222224;stroke-miterlimit:4;stroke-dasharray:none;stroke-opacity:1"
     inkscape:connector-curvature="0" />
  <path
     d="m 67.141111,67.905544 0,-1 8,0 0,1 z"
     id="path4268"
     style="fill:none;stroke:#ff0000;stroke-width:0.28222224;stroke-miterlimit:4;stroke-dasharray:none;stroke-opacity:1"
     inkscape:connector-curvature="0" />
  <path
     d="m 123.14111,-165.49806 -82.999999,0 0,37.9994 82.999999,0 z"
     id="path4266"
     style="fill:none;stroke:#000000;stroke-width:0.28222224;stroke-miterlimit:4;stroke-dasharray:none;stroke-opacity:1"
     inkscape:connector-curvature="0" />
  <path
     d="m 86.141111,-134.49855 0,-23.99962 31.999999,0 0,23.99962 z"
     id="path4258"
     style="fill:none;stroke:#0000ff;stroke-width:0.28222224;stroke-miterlimit:4;stroke-dasharray:none;stroke-opacity:1"
     inkscape:connector-curvature="0" />
  <path
     d="m 45.141111,-141.49844 0,-13.99978 2,0 0,13.99978 z"
     id="path4256"
     style="fill:none;stroke:#ff0000;stroke-width:0.28222224;stroke-miterlimit:4;stroke-dasharray:none;stroke-opacity:1"
     inkscape:connector-curvature="0" />
  <path
     d="m 78.141111,-141.49844 0,-13.99978 2,0 0,13.99978 z"
     id="path4254"
     style="fill:none;stroke:#ff0000;stroke-width:0.28222224;stroke-miterlimit:4;stroke-dasharray:none;stroke-opacity:1"
     inkscape:connector-curvature="0" />
  <path
     d="m 67.141111,-128.49865 0,-0.99999 8,0 0,0.99999 z"
     id="path6"
     style="fill:none;stroke:#ff0000;stroke-width:0.28222224;stroke-miterlimit:4;stroke-dasharray:none;stroke-opacity:1"
     inkscape:connector-curvature="0" />
  <g
     id="g4235"
     transform="matrix(0.75159409,0,0,0.75159409,91.476615,-191.75217)">
    <path
       inkscape:connector-curvature="0"
       id="G"
       d="m 6.1464926,-211.11195 c -0.541798,0 -1.083596,0 -1.625394,0 0,0.22222 0,0.44445 0,0.66667 0.2962957,0 0.5925913,0 0.888887,0 0,0.28995 0,0.57989 0,0.86984 -0.6328773,0.32349 -1.470339,0.17421 -1.9338158,-0.36976 -0.4517819,-0.49766 -0.5522553,-1.28385 -0.2078274,-1.86708 0.2998911,-0.55388 0.9401936,-0.897 1.5686107,-0.82334 0.3148161,0.0296 0.6219811,0.15169 0.8651575,0.35489 0,-0.28995 0,-0.57989 0,-0.86984 -0.9178808,-0.45542 -2.1212779,-0.21677 -2.7882009,0.56408 -0.6462605,0.71705 -0.7822351,1.84391 -0.3040435,2.68638 0.335079,0.60127 0.9382586,1.07882 1.6268497,1.18214 0.6631289,0.0608 1.3691555,-0.0532 1.9098707,-0.46451 -6.31e-5,-0.64313 1.251e-4,-1.28647 -9.4e-5,-1.92947 z"
       style="fill:none;fill-opacity:1;fill-rule:evenodd;stroke:#00ff00;stroke-width:0.28222224;stroke-miterlimit:4;stroke-dasharray:none;stroke-opacity:1" />
    <path
       sketch:type="MSShapeGroup"
       id="A"
       d="m 15.659173,-208.70533 0.806348,0 -2.044441,-4.92697 -2.050789,4.92697 0.812696,0 0.4,-1.00952 1.676187,0 0.399999,1.00952 z m -1.80952,-1.66984 0.571427,-1.43491 0.571428,1.43491 -1.142855,0 z"
       inkscape:connector-curvature="0"
       style="fill:none;fill-opacity:1;fill-rule:evenodd;stroke:#00ff00;stroke-width:0.28222224;stroke-miterlimit:4;stroke-dasharray:none;stroke-opacity:1" />
    <path
       inkscape:connector-curvature="0"
       id="U"
       d="m 24.487728,-208.70533 c 0.64611,0.0103 1.331531,-0.31371 1.605823,-0.92331 0.195081,-0.41731 0.127792,-0.88268 0.140205,-1.32765 0,-0.82005 0,-1.64009 0,-2.46014 -0.247618,0 -0.495237,0 -0.742855,0 -0.0017,1.06265 0.0033,2.12544 -0.0025,3.18799 -0.0033,0.33316 -0.250475,0.61948 -0.563303,0.71278 -0.439722,0.1505 -1.009355,0.0818 -1.30696,-0.30557 -0.19805,-0.27838 -0.125981,-0.62851 -0.139921,-0.94729 0,-0.88263 0,-1.76527 0,-2.64791 -0.245502,0 -0.491004,0 -0.736506,0 0.0016,1.06926 -0.0031,2.13862 0.0024,3.20781 0.01143,0.55422 0.357699,1.07513 0.860436,1.30608 0.273385,0.13452 0.57932,0.19727 0.883199,0.19721 z"
       style="fill:none;fill-opacity:1;fill-rule:evenodd;stroke:#00ff00;stroke-width:0.28222224;stroke-miterlimit:4;stroke-dasharray:none;stroke-opacity:1" />
    <path
       sketch:type="MSShapeGroup"
       id="N"
       d="m 6.0512546,-198.33075 0,-4.92697 -0.742856,0 0,3.02222 -2.958725,-3.24444 0,4.93332 0.736507,0 0,-3.02856 2.965074,3.24443 z"
       inkscape:connector-curvature="0"
       style="fill:none;fill-opacity:1;fill-rule:evenodd;stroke:#00ff00;stroke-width:0.28222224;stroke-miterlimit:4;stroke-dasharray:none;stroke-opacity:1" />
    <path
       sketch:type="MSShapeGroup"
       id="T"
       d="m 15.933776,-203.25772 -3.333327,0 0,0.66032 1.295235,0 0,4.05078 0.742856,0 0,-4.05078 1.295236,0 0,-0.66032 z"
       inkscape:connector-curvature="0"
       style="fill:none;fill-opacity:1;fill-rule:evenodd;stroke:#00ff00;stroke-width:0.28222224;stroke-miterlimit:4;stroke-dasharray:none;stroke-opacity:1" />
    <path
       sodipodi:nodetypes="ccccccccccc"
       sketch:type="MSShapeGroup"
       id="F"
       d="m 23.84011,-202.5974 2.095234,0 0,-0.66032 -2.83174,0 0,4.7111 0.736506,0 0,-2.12698 1.720632,0 0,-0.66666 -1.720632,0 z"
       inkscape:connector-curvature="0"
       style="fill:none;fill-opacity:1;fill-rule:evenodd;stroke:#00ff00;stroke-width:0.28222224;stroke-miterlimit:4;stroke-dasharray:none;stroke-opacity:1" />
    <path
       sketch:type="MSShapeGroup"
       id="path4405"
       d="m 5.5004616,-188.38791 0.806348,0 -2.044441,-4.92697 -2.05079,4.92697 0.812697,0 0.4,-1.00952 1.676187,0 0.399999,1.00952 z m -1.80952,-1.66984 0.571427,-1.43491 0.571428,1.43491 -1.142855,0 z"
       inkscape:connector-curvature="0"
       style="fill:none;fill-opacity:1;fill-rule:evenodd;stroke:#00ff00;stroke-width:0.28222224;stroke-miterlimit:4;stroke-dasharray:none;stroke-opacity:1" />
    <path
       inkscape:connector-curvature="0"
       id="C"
       d="m 16.206791,-189.74056 c -0.408316,0.46813 -1.075261,0.77419 -1.69658,0.60491 -0.74208,-0.17597 -1.291647,-0.92902 -1.21956,-1.69068 0.04565,-0.78789 0.741612,-1.47658 1.533919,-1.49642 0.395226,-0.021 0.797886,0.10623 1.102857,0.35997 0,-0.28995 0,-0.57989 0,-0.86984 -0.890306,-0.37259 -2.007168,-0.19658 -2.706373,0.47932 -0.533625,0.57157 -0.806507,1.41023 -0.600537,2.17809 0.142982,0.61789 0.536742,1.17901 1.094753,1.48917 0.582643,0.3509 1.320183,0.43881 1.960639,0.19715 0.165069,-0.0951 0.476162,-0.12609 0.530882,-0.31182 0,-0.31328 0,-0.62657 0,-0.93985 z"
       style="fill:none;fill-opacity:1;fill-rule:evenodd;stroke:#00ff00;stroke-width:0.28222224;stroke-miterlimit:4;stroke-dasharray:none;stroke-opacity:1" />
    <path
       sodipodi:nodetypes="ccccccccccccc"
       sketch:type="MSShapeGroup"
       id="E"
       d="m 23.84011,-192.43869 2.088885,0 0,-0.66032 -2.825391,0 0,4.7111 2.825391,0 0,-0.66666 -2.088885,0 0,-1.46032 1.720632,0 0,-0.66666 -1.720632,0 z"
       inkscape:connector-curvature="0"
       style="fill:none;fill-opacity:1;fill-rule:evenodd;stroke:#00ff00;stroke-width:0.28222224;stroke-miterlimit:4;stroke-dasharray:none;stroke-opacity:1" />
  </g>
  <path
     inkscape:connector-curvature="0"
     d="m 123.14111,-260.41389 -82.999999,0 0,38 82.999999,0 z"
     id="path4352"
     style="fill:none;stroke:#000000;stroke-width:0.28222224;stroke-miterlimit:4;stroke-dasharray:none;stroke-opacity:1" />
  <path
     inkscape:connector-curvature="0"
     d="m 90.641111,-229.91389 0,-23 22.999999,0 0,23 z"
     id="path4344"
     style="fill:none;stroke:#0000ff;stroke-width:0.28222224;stroke-miterlimit:4;stroke-dasharray:none;stroke-opacity:1" />
  <path
     inkscape:connector-curvature="0"
     d="m 58.841111,-235.91389 0,-8.6 8.6,0 0,8.6 z"
     id="path4342"
     style="fill:none;stroke:#ff0000;stroke-width:0.28222224;stroke-miterlimit:4;stroke-dasharray:none;stroke-opacity:1" />
  <ellipse
     style="opacity:1;fill:none;fill-opacity:1;stroke:#ff0000;stroke-width:0.19445112;stroke-linecap:round;stroke-linejoin:miter;stroke-miterlimit:4;stroke-dasharray:none;stroke-dashoffset:0;stroke-opacity:1"
     id="path4386"
     cx="42.641106"
     cy="-257.91367"
     rx="1.6028281"
     ry="1.6028283" />
  <ellipse
     ry="1.6028283"
     rx="1.6028281"
     cy="-224.91362"
     cx="42.641106"
     id="ellipse4388"
     style="opacity:1;fill:none;fill-opacity:1;stroke:#ff0000;stroke-width:0.19445112;stroke-linecap:round;stroke-linejoin:miter;stroke-miterlimit:4;stroke-dasharray:none;stroke-dashoffset:0;stroke-opacity:1" />
  <ellipse
     style="opacity:1;fill:none;fill-opacity:1;stroke:#ff0000;stroke-width:0.19445112;stroke-linecap:round;stroke-linejoin:miter;stroke-miterlimit:4;stroke-dasharray:none;stroke-dashoffset:0;stroke-opacity:1"
     id="ellipse4390"
     cx="83.641113"
     cy="-224.91362"
     rx="1.6028281"
     ry="1.6028283" />
  <ellipse
     ry="1.6028283"
     rx="1.6028281"
     cy="-257.91367"
     cx="83.641113"
     id="ellipse4392"
     style="opacity:1;fill:none;fill-opacity:1;stroke:#ff0000;stroke-width:0.19445112;stroke-linecap:round;stroke-linejoin:miter;stroke-miterlimit:4;stroke-dasharray:none;stroke-dashoffset:0;stroke-opacity:1" />
  <ellipse
     style="opacity:1;fill:none;fill-opacity:1;stroke:#ff0000;stroke-width:0.19445112;stroke-linecap:round;stroke-linejoin:miter;stroke-miterlimit:4;stroke-dasharray:none;stroke-dashoffset:0;stroke-opacity:1"
     id="ellipse4394"
     cx="120.64111"
     cy="-257.91367"
     rx="1.6028281"
     ry="1.6028283" />
  <ellipse
     ry="1.6028283"
     rx="1.6028281"
     cy="-224.91362"
     cx="120.64111"
     id="ellipse4396"
     style="opacity:1;fill:none;fill-opacity:1;stroke:#ff0000;stroke-width:0.19445112;stroke-linecap:round;stroke-linejoin:miter;stroke-miterlimit:4;stroke-dasharray:none;stroke-dashoffset:0;stroke-opacity:1" />
  <ellipse
     style="opacity:1;fill:none;fill-opacity:1;stroke:#ff0000;stroke-width:0.19445112;stroke-linecap:round;stroke-linejoin:miter;stroke-miterlimit:4;stroke-dasharray:none;stroke-dashoffset:0;stroke-opacity:1"
     id="ellipse4398"
     cx="120.64111"
     cy="-209.91362"
     rx="1.6028281"
     ry="1.6028283" />
  <ellipse
     ry="1.6028283"
     rx="1.6028281"
     cy="-209.91362"
     cx="83.641113"
     id="ellipse4400"
     style="opacity:1;fill:none;fill-opacity:1;stroke:#ff0000;stroke-width:0.19445112;stroke-linecap:round;stroke-linejoin:miter;stroke-miterlimit:4;stroke-dasharray:none;stroke-dashoffset:0;stroke-opacity:1" />
  <ellipse
     style="opacity:1;fill:none;fill-opacity:1;stroke:#ff0000;stroke-width:0.19445112;stroke-linecap:round;stroke-linejoin:miter;stroke-miterlimit:4;stroke-dasharray:none;stroke-dashoffset:0;stroke-opacity:1"
     id="ellipse4402"
     cx="42.641106"
     cy="-209.91362"
     rx="1.6028281"
     ry="1.6028283" />
  <ellipse
     ry="1.6028283"
     rx="1.6028281"
     cy="-176.91386"
     cx="42.641106"
     id="ellipse4404"
     style="opacity:1;fill:none;fill-opacity:1;stroke:#ff0000;stroke-width:0.19445112;stroke-linecap:round;stroke-linejoin:miter;stroke-miterlimit:4;stroke-dasharray:none;stroke-dashoffset:0;stroke-opacity:1" />
  <ellipse
     style="opacity:1;fill:none;fill-opacity:1;stroke:#ff0000;stroke-width:0.19445112;stroke-linecap:round;stroke-linejoin:miter;stroke-miterlimit:4;stroke-dasharray:none;stroke-dashoffset:0;stroke-opacity:1"
     id="ellipse4406"
     cx="83.641113"
     cy="-176.91386"
     rx="1.6028281"
     ry="1.6028283" />
  <ellipse
     ry="1.6028283"
     rx="1.6028281"
     cy="-176.91386"
     cx="120.64111"
     id="ellipse4408"
     style="opacity:1;fill:none;fill-opacity:1;stroke:#ff0000;stroke-width:0.19445112;stroke-linecap:round;stroke-linejoin:miter;stroke-miterlimit:4;stroke-dasharray:none;stroke-dashoffset:0;stroke-opacity:1" />
  <ellipse
     style="opacity:1;fill:none;fill-opacity:1;stroke:#ff0000;stroke-width:0.19445112;stroke-linecap:round;stroke-linejoin:miter;stroke-miterlimit:4;stroke-dasharray:none;stroke-dashoffset:0;stroke-opacity:1"
     id="ellipse4410"
     cx="120.64111"
     cy="-14.59447"
     rx="1.6028281"
     ry="1.6028283" />
  <ellipse
     ry="1.6028283"
     rx="1.6028281"
     cy="-14.59447"
     cx="83.641113"
     id="ellipse4412"
     style="opacity:1;fill:none;fill-opacity:1;stroke:#ff0000;stroke-width:0.19445112;stroke-linecap:round;stroke-linejoin:miter;stroke-miterlimit:4;stroke-dasharray:none;stroke-dashoffset:0;stroke-opacity:1" />
  <ellipse
     style="opacity:1;fill:none;fill-opacity:1;stroke:#ff0000;stroke-width:0.19445112;stroke-linecap:round;stroke-linejoin:miter;stroke-miterlimit:4;stroke-dasharray:none;stroke-dashoffset:0;stroke-opacity:1"
     id="ellipse4414"
     cx="42.641106"
     cy="-14.59447"
     rx="1.6028281"
     ry="1.6028283" />
  <ellipse
     ry="1.6028283"
     rx="1.6028281"
     cy="18.405624"
     cx="42.641106"
     id="ellipse4416"
     style="opacity:1;fill:none;fill-opacity:1;stroke:#ff0000;stroke-width:0.19445112;stroke-linecap:round;stroke-linejoin:miter;stroke-miterlimit:4;stroke-dasharray:none;stroke-dashoffset:0;stroke-opacity:1" />
  <ellipse
     style="opacity:1;fill:none;fill-opacity:1;stroke:#ff0000;stroke-width:0.19445112;stroke-linecap:round;stroke-linejoin:miter;stroke-miterlimit:4;stroke-dasharray:none;stroke-dashoffset:0;stroke-opacity:1"
     id="ellipse4418"
     cx="83.641113"
     cy="18.405624"
     rx="1.6028281"
     ry="1.6028283" />
  <ellipse
     ry="1.6028283"
     rx="1.6028281"
     cy="18.405624"
     cx="120.64111"
     id="ellipse4420"
     style="opacity:1;fill:none;fill-opacity:1;stroke:#ff0000;stroke-width:0.19445112;stroke-linecap:round;stroke-linejoin:miter;stroke-miterlimit:4;stroke-dasharray:none;stroke-dashoffset:0;stroke-opacity:1" />
  <ellipse
     style="opacity:1;fill:none;fill-opacity:1;stroke:#ff0000;stroke-width:0.19445112;stroke-linecap:round;stroke-linejoin:miter;stroke-miterlimit:4;stroke-dasharray:none;stroke-dashoffset:0;stroke-opacity:1"
     id="ellipse4422"
     cx="120.64111"
     cy="33.405605"
     rx="1.6028281"
     ry="1.6028283" />
  <ellipse
     ry="1.6028283"
     rx="1.6028281"
     cy="33.405605"
     cx="83.641113"
     id="ellipse4424"
     style="opacity:1;fill:none;fill-opacity:1;stroke:#ff0000;stroke-width:0.19445112;stroke-linecap:round;stroke-linejoin:miter;stroke-miterlimit:4;stroke-dasharray:none;stroke-dashoffset:0;stroke-opacity:1" />
  <ellipse
     style="opacity:1;fill:none;fill-opacity:1;stroke:#ff0000;stroke-width:0.19445112;stroke-linecap:round;stroke-linejoin:miter;stroke-miterlimit:4;stroke-dasharray:none;stroke-dashoffset:0;stroke-opacity:1"
     id="ellipse4426"
     cx="42.641106"
     cy="33.405605"
     rx="1.6028281"
     ry="1.6028283" />
  <ellipse
     ry="1.6028283"
     rx="1.6028281"
     cy="66.405617"
     cx="42.641106"
     id="ellipse4428"
     style="opacity:1;fill:none;fill-opacity:1;stroke:#ff0000;stroke-width:0.19445112;stroke-linecap:round;stroke-linejoin:miter;stroke-miterlimit:4;stroke-dasharray:none;stroke-dashoffset:0;stroke-opacity:1" />
  <ellipse
     style="opacity:1;fill:none;fill-opacity:1;stroke:#ff0000;stroke-width:0.19445112;stroke-linecap:round;stroke-linejoin:miter;stroke-miterlimit:4;stroke-dasharray:none;stroke-dashoffset:0;stroke-opacity:1"
     id="ellipse4430"
     cx="83.641113"
     cy="66.405617"
     rx="1.6028281"
     ry="1.6028283" />
  <ellipse
     ry="1.6028283"
     rx="1.6028281"
     cy="66.405617"
     cx="120.64111"
     id="ellipse4432"
     style="opacity:1;fill:none;fill-opacity:1;stroke:#ff0000;stroke-width:0.19445112;stroke-linecap:round;stroke-linejoin:miter;stroke-miterlimit:4;stroke-dasharray:none;stroke-dashoffset:0;stroke-opacity:1" />
  <ellipse
     style="opacity:1;fill:none;fill-opacity:1;stroke:#ff0000;stroke-width:0.19445112;stroke-linecap:round;stroke-linejoin:miter;stroke-miterlimit:4;stroke-dasharray:none;stroke-dashoffset:0;stroke-opacity:1"
     id="ellipse4434"
     cx="120.64111"
     cy="-162.99854"
     rx="1.6028281"
     ry="1.6028283" />
  <ellipse
     ry="1.6028283"
     rx="1.6028281"
     cy="-162.99854"
     cx="83.641113"
     id="ellipse4436"
     style="opacity:1;fill:none;fill-opacity:1;stroke:#ff0000;stroke-width:0.19445112;stroke-linecap:round;stroke-linejoin:miter;stroke-miterlimit:4;stroke-dasharray:none;stroke-dashoffset:0;stroke-opacity:1" />
  <ellipse
     style="opacity:1;fill:none;fill-opacity:1;stroke:#ff0000;stroke-width:0.19445112;stroke-linecap:round;stroke-linejoin:miter;stroke-miterlimit:4;stroke-dasharray:none;stroke-dashoffset:0;stroke-opacity:1"
     id="ellipse4438"
     cx="42.641106"
     cy="-162.99854"
     rx="1.6028281"
     ry="1.6028283" />
  <ellipse
     ry="1.6028283"
     rx="1.6028281"
     cy="-129.99904"
     cx="42.641106"
     id="ellipse4440"
     style="opacity:1;fill:none;fill-opacity:1;stroke:#ff0000;stroke-width:0.19445112;stroke-linecap:round;stroke-linejoin:miter;stroke-miterlimit:4;stroke-dasharray:none;stroke-dashoffset:0;stroke-opacity:1" />
  <ellipse
     style="opacity:1;fill:none;fill-opacity:1;stroke:#ff0000;stroke-width:0.19445112;stroke-linecap:round;stroke-linejoin:miter;stroke-miterlimit:4;stroke-dasharray:none;stroke-dashoffset:0;stroke-opacity:1"
     id="ellipse4442"
     cx="83.641113"
     cy="-129.99904"
     rx="1.6028281"
     ry="1.6028283" />
  <ellipse
     ry="1.6028283"
     rx="1.6028281"
     cy="-129.99904"
     cx="120.64111"
     id="ellipse4444"
     style="opacity:1;fill:none;fill-opacity:1;stroke:#ff0000;stroke-width:0.19445112;stroke-linecap:round;stroke-linejoin:miter;stroke-miterlimit:4;stroke-dasharray:none;stroke-dashoffset:0;stroke-opacity:1" />
  <ellipse
     ry="1.6028283"
     rx="1.6028281"
     cy="-272.91406"
     cx="120.64111"
     id="ellipse4446"
     style="opacity:1;fill:none;fill-opacity:1;stroke:#ff0000;stroke-width:0.19445112;stroke-linecap:round;stroke-linejoin:miter;stroke-miterlimit:4;stroke-dasharray:none;stroke-dashoffset:0;stroke-opacity:1" />
  <ellipse
     style="opacity:1;fill:none;fill-opacity:1;stroke:#ff0000;stroke-width:0.19445112;stroke-linecap:round;stroke-linejoin:miter;stroke-miterlimit:4;stroke-dasharray:none;stroke-dashoffset:0;stroke-opacity:1"
     id="ellipse4448"
     cx="83.641113"
     cy="-272.91406"
     rx="1.6028281"
     ry="1.6028283" />
  <ellipse
     ry="1.6028283"
     rx="1.6028281"
     cy="-305.91501"
     cx="83.641113"
     id="ellipse4450"
     style="opacity:1;fill:none;fill-opacity:1;stroke:#ff0000;stroke-width:0.19445112;stroke-linecap:round;stroke-linejoin:miter;stroke-miterlimit:4;stroke-dasharray:none;stroke-dashoffset:0;stroke-opacity:1" />
  <ellipse
     style="opacity:1;fill:none;fill-opacity:1;stroke:#ff0000;stroke-width:0.19445112;stroke-linecap:round;stroke-linejoin:miter;stroke-miterlimit:4;stroke-dasharray:none;stroke-dashoffset:0;stroke-opacity:1"
     id="ellipse4452"
     cx="120.64111"
     cy="-305.91501"
     rx="1.6028281"
     ry="1.6028283" />
  <ellipse
     ry="1.6028283"
     rx="1.6028281"
     cy="-320.91541"
     cx="120.64111"
     id="ellipse4454"
     style="opacity:1;fill:none;fill-opacity:1;stroke:#ff0000;stroke-width:0.19445112;stroke-linecap:round;stroke-linejoin:miter;stroke-miterlimit:4;stroke-dasharray:none;stroke-dashoffset:0;stroke-opacity:1" />
  <ellipse
     style="opacity:1;fill:none;fill-opacity:1;stroke:#ff0000;stroke-width:0.19445112;stroke-linecap:round;stroke-linejoin:miter;stroke-miterlimit:4;stroke-dasharray:none;stroke-dashoffset:0;stroke-opacity:1"
     id="ellipse4456"
     cx="83.641113"
     cy="-320.91541"
     rx="1.6028281"
     ry="1.6028283" />
  <ellipse
     ry="1.6028283"
     rx="1.6028281"
     cy="-353.91556"
     cx="83.641113"
     id="ellipse4458"
     style="opacity:1;fill:none;fill-opacity:1;stroke:#ff0000;stroke-width:0.19445112;stroke-linecap:round;stroke-linejoin:miter;stroke-miterlimit:4;stroke-dasharray:none;stroke-dashoffset:0;stroke-opacity:1" />
  <ellipse
     style="opacity:1;fill:none;fill-opacity:1;stroke:#ff0000;stroke-width:0.19445112;stroke-linecap:round;stroke-linejoin:miter;stroke-miterlimit:4;stroke-dasharray:none;stroke-dashoffset:0;stroke-opacity:1"
     id="ellipse4460"
     cx="120.64111"
     cy="-353.91556"
     rx="1.6028281"
     ry="1.6028283" />
  <ellipse
     ry="1.6028283"
     rx="1.6028281"
     cy="-90.341461"
     cx="42.641106"
     id="ellipse4509"
     style="opacity:1;fill:none;fill-opacity:1;stroke:#ff0000;stroke-width:0.19445112;stroke-linecap:round;stroke-linejoin:miter;stroke-miterlimit:4;stroke-dasharray:none;stroke-dashoffset:0;stroke-opacity:1" />
  <ellipse
     style="opacity:1;fill:none;fill-opacity:1;stroke:#ff0000;stroke-width:0.19445112;stroke-linecap:round;stroke-linejoin:miter;stroke-miterlimit:4;stroke-dasharray:none;stroke-dashoffset:0;stroke-opacity:1"
     id="ellipse4511"
     cx="42.641106"
     cy="-57.341908"
     rx="1.6028281"
     ry="1.6028283" />
  <ellipse
     ry="1.6028283"
     rx="1.6028281"
     cy="-57.341908"
     cx="83.641113"
     id="ellipse4513"
     style="opacity:1;fill:none;fill-opacity:1;stroke:#ff0000;stroke-width:0.19445112;stroke-linecap:round;stroke-linejoin:miter;stroke-miterlimit:4;stroke-dasharray:none;stroke-dashoffset:0;stroke-opacity:1" />
  <ellipse
     style="opacity:1;fill:none;fill-opacity:1;stroke:#ff0000;stroke-width:0.19445112;stroke-linecap:round;stroke-linejoin:miter;stroke-miterlimit:4;stroke-dasharray:none;stroke-dashoffset:0;stroke-opacity:1"
     id="ellipse4515"
     cx="83.641113"
     cy="-90.341461"
     rx="1.6028281"
     ry="1.6028283" />
  <ellipse
     ry="1.6028283"
     rx="1.6028281"
     cy="-90.341461"
     cx="120.64111"
     id="ellipse4517"
     style="opacity:1;fill:none;fill-opacity:1;stroke:#ff0000;stroke-width:0.19445112;stroke-linecap:round;stroke-linejoin:miter;stroke-miterlimit:4;stroke-dasharray:none;stroke-dashoffset:0;stroke-opacity:1" />
  <ellipse
     style="opacity:1;fill:none;fill-opacity:1;stroke:#ff0000;stroke-width:0.19445112;stroke-linecap:round;stroke-linejoin:miter;stroke-miterlimit:4;stroke-dasharray:none;stroke-dashoffset:0;stroke-opacity:1"
     id="ellipse4519"
     cx="120.64111"
     cy="-57.341908"
     rx="1.6028281"
     ry="1.6028283" />
  <ellipse
     style="opacity:1;fill:none;fill-opacity:1;stroke:#ff0000;stroke-width:0.1574388;stroke-linecap:round;stroke-linejoin:miter;stroke-miterlimit:4;stroke-dasharray:none;stroke-dashoffset:0;stroke-opacity:1"
     id="path4532"
     cx="87.972374"
     cy="-73.841705"
     rx="1.1212806"
     ry="1.1212807" />
  <ellipse
     ry="1.1212807"
     rx="1.1212806"
     cy="-73.841705"
     cx="116.57238"
     id="ellipse4534"
     style="opacity:1;fill:none;fill-opacity:1;stroke:#ff0000;stroke-width:0.1574388;stroke-linecap:round;stroke-linejoin:miter;stroke-miterlimit:4;stroke-dasharray:none;stroke-dashoffset:0;stroke-opacity:1" />
  <circle
     style="opacity:1;fill:none;fill-opacity:1;stroke:#0000ff;stroke-width:0.25376445;stroke-linecap:round;stroke-linejoin:miter;stroke-miterlimit:4;stroke-dasharray:none;stroke-dashoffset:0;stroke-opacity:1"
     id="path4536"
     cx="102.14111"
     cy="-73.841705"
     r="11.373118" />
  <ellipse
     style="opacity:1;fill:none;fill-opacity:1;stroke:#ff0000;stroke-width:0.1574388;stroke-linecap:round;stroke-linejoin:miter;stroke-miterlimit:4;stroke-dasharray:none;stroke-dashoffset:0;stroke-opacity:1"
     id="ellipse4549"
     cx="116.59934"
     cy="-241.61748"
     rx="1.1212806"
     ry="1.1212807" />
  <ellipse
     ry="1.1212807"
     rx="1.1212806"
     cy="-241.61748"
     cx="87.999336"
     id="ellipse4551"
     style="opacity:1;fill:none;fill-opacity:1;stroke:#ff0000;stroke-width:0.1574388;stroke-linecap:round;stroke-linejoin:miter;stroke-miterlimit:4;stroke-dasharray:none;stroke-dashoffset:0;stroke-opacity:1" />
</svg>
