<?xml version="1.0" standalone="no"?>
<!DOCTYPE svg PUBLIC "-//W3C//DTD SVG 1.1//EN" "http://www.w3.org/Graphics/SVG/1.1/DTD/svg11.dtd">
<svg width="176mm" height="174mm" viewBox="-1 -149 176 174" xmlns="http://www.w3.org/2000/svg" version="1.1">
<title>OpenSCAD Model</title>
<path d="
M 126,-149 L 0,-149 L 0,-91 L 126,-91 z
M 39.6667,-142.9 L 39.6667,-146.1 L 44.6667,-146.1 L 44.6667,-142.9 z
M 81.3333,-142.9 L 81.3333,-146.1 L 86.3333,-146.1 L 86.3333,-142.9 z
M 21.4545,-137.15 L 21.4545,-139.05 L 23.1,-140 L 24.7454,-139.05 L 24.7454,-137.15 L 23.1,-136.2
 z
M 86.2545,-137.15 L 86.2545,-139.05 L 87.9,-140 L 89.5454,-139.05 L 89.5454,-137.15 L 87.9,-136.2
 z
M 119.9,-126 L 119.9,-131 L 123.1,-131 L 123.1,-126 z
M 2.89999,-126 L 2.89999,-131 L 6.09999,-131 L 6.09999,-126 z
M 3.02776,-119.15 L 3.02776,-120.85 L 4.5,-121.7 L 5.97223,-120.85 L 5.97223,-119.15 L 4.5,-118.3
 z
M 120.028,-119.15 L 120.028,-120.85 L 121.5,-121.7 L 122.972,-120.85 L 122.972,-119.15 L 121.5,-118.3
 z
M 96.4545,-113.15 L 96.4545,-115.05 L 98.1,-116 L 99.7454,-115.05 L 99.7454,-113.15 L 98.1,-112.2
 z
M 11.2545,-113.15 L 11.2545,-115.05 L 12.9,-116 L 14.5454,-115.05 L 14.5454,-113.15 L 12.9,-112.2
 z
M 119.9,-109 L 119.9,-114 L 123.1,-114 L 123.1,-109 z
M 2.89999,-109 L 2.89999,-114 L 6.09999,-114 L 6.09999,-109 z
M 39.6667,-93.9 L 39.6667,-97.1 L 44.6667,-97.1 L 44.6667,-93.9 z
M 81.3333,-93.9 L 81.3333,-97.1 L 86.3333,-97.1 L 86.3333,-93.9 z
M 126,-88 L 0,-88 L 0,-30 L 126,-30 z
M 81.3333,-81.9 L 81.3333,-85.1 L 86.3333,-85.1 L 86.3333,-81.9 z
M 39.6667,-81.9 L 39.6667,-85.1 L 44.6667,-85.1 L 44.6667,-81.9 z
M 2.89999,-65 L 2.89999,-70 L 6.09999,-70 L 6.09999,-65 z
M 119.9,-65 L 119.9,-70 L 123.1,-70 L 123.1,-65 z
M 3.02776,-58.15 L 3.02776,-59.85 L 4.5,-60.7 L 5.97223,-59.85 L 5.97223,-58.15 L 4.5,-57.3
 z
M 120.028,-58.15 L 120.028,-59.85 L 121.5,-60.7 L 122.972,-59.85 L 122.972,-58.15 L 121.5,-57.3
 z
M 2.89999,-48 L 2.89999,-53 L 6.09999,-53 L 6.09999,-48 z
M 119.9,-48 L 119.9,-53 L 123.1,-53 L 123.1,-48 z
M 81.3333,-32.9 L 81.3333,-36.1 L 86.3333,-36.1 L 86.3333,-32.9 z
M 39.6667,-32.9 L 39.6667,-36.1 L 44.6667,-36.1 L 44.6667,-32.9 z
M 20,-6 L 24.3,-6 L 24.3,-8.5 L 23.25,-8.5 L 23.25,-11 L 24.3,-11
 L 24.3,-12.95 L 27.7,-12.95 L 27.7,-11 L 28.75,-11 L 28.75,-8.5 L 27.7,-8.5
 L 27.7,-6 L 32,-6 L 32,-2.89999 L 37,-2.89999 L 37,-6 L 49,-6
 L 49,-9.33333 L 52.05,-9.33333 L 52.05,-13.3333 L 49,-13.3333 L 49,-16.6667 L 52.05,-16.6667
 L 52.05,-20.6667 L 49,-20.6667 L 49,-24 L 37,-24 L 37,-27.1 L 32,-27.1
 L 32,-24 L 27.7,-24 L 27.7,-21.5 L 28.75,-21.5 L 28.75,-19 L 27.7,-19
 L 27.7,-17.05 L 24.3,-17.05 L 24.3,-19 L 23.25,-19 L 23.25,-21.5 L 24.3,-21.5
 L 24.3,-24 L 20,-24 L 20,-27.1 L 15,-27.1 L 15,-24 L 3,-24
 L 3,-20.6667 L -0.0499878,-20.6667 L -0.0499878,-16.6667 L 3,-16.6667 L 3,-13.3333 L -0.0499878,-13.3333
 L -0.0499878,-9.33333 L 3,-9.33333 L 3,-6 L 15,-6 L 15,-2.89999 L 20,-2.89999
 z
M 96.6667,-6 L 133.333,-6 L 133.333,-2.89999 L 138.333,-2.89999 L 138.333,-6 L 175,-6
 L 175,-9.33333 L 171.95,-9.33333 L 171.95,-13.3333 L 175,-13.3333 L 175,-16.6667 L 171.95,-16.6667
 L 171.95,-20.6667 L 175,-20.6667 L 175,-24 L 138.333,-24 L 138.333,-27.1 L 133.333,-27.1
 L 133.333,-24 L 96.6667,-24 L 96.6667,-27.1 L 91.6667,-27.1 L 91.6667,-24 L 55,-24
 L 55,-20.6667 L 58.05,-20.6667 L 58.05,-16.6667 L 55,-16.6667 L 55,-13.3333 L 58.05,-13.3333
 L 58.05,-9.33333 L 55,-9.33333 L 55,-6 L 91.6667,-6 L 91.6667,-2.89999 L 96.6667,-2.89999
 z
M 112.5,-17.2 L 112.5,-23 L 125.5,-23 L 125.5,-17.2 z
M 66.5,-17.2 L 66.5,-23 L 79.5,-23 L 79.5,-17.2 z
M 135.5,-17.2 L 135.5,-23 L 148.5,-23 L 148.5,-17.2 z
M 89.5,-17.2 L 89.5,-23 L 102.5,-23 L 102.5,-17.2 z
M 20,21 L 24.3,21 L 24.3,18.5 L 23.25,18.5 L 23.25,16 L 24.3,16
 L 24.3,14.05 L 27.7,14.05 L 27.7,16 L 28.75,16 L 28.75,18.5 L 27.7,18.5
 L 27.7,21 L 32,21 L 32,24.1 L 37,24.1 L 37,21 L 49,21
 L 49,17.6667 L 52.05,17.6667 L 52.05,13.6667 L 49,13.6667 L 49,10.3333 L 52.05,10.3333
 L 52.05,6.33333 L 49,6.33333 L 49,3 L 37,3 L 37,-0.0999908 L 32,-0.0999908
 L 32,3 L 27.7,3 L 27.7,5.5 L 28.75,5.5 L 28.75,8 L 27.7,8
 L 27.7,9.95 L 24.3,9.95 L 24.3,8 L 23.25,8 L 23.25,5.5 L 24.3,5.5
 L 24.3,3 L 20,3 L 20,-0.0999908 L 15,-0.0999908 L 15,3 L 3,3
 L 3,6.33333 L -0.0499878,6.33333 L -0.0499878,10.3333 L 3,10.3333 L 3,13.6667 L -0.0499878,13.6667
 L -0.0499878,17.6667 L 3,17.6667 L 3,21 L 15,21 L 15,24.1 L 20,24.1
 z
M 96.6667,21 L 133.333,21 L 133.333,24.1 L 138.333,24.1 L 138.333,21 L 175,21
 L 175,17.6667 L 171.95,17.6667 L 171.95,13.6667 L 175,13.6667 L 175,10.3333 L 171.95,10.3333
 L 171.95,6.33333 L 175,6.33333 L 175,3 L 138.333,3 L 138.333,-0.0999908 L 133.333,-0.0999908
 L 133.333,3 L 96.6667,3 L 96.6667,-0.0999908 L 91.6667,-0.0999908 L 91.6667,3 L 55,3
 L 55,6.33333 L 58.05,6.33333 L 58.05,10.3333 L 55,10.3333 L 55,13.6667 L 58.05,13.6667
 L 58.05,17.6667 L 55,17.6667 L 55,21 L 91.6667,21 L 91.6667,24.1 L 96.6667,24.1
 z
M 63.2,6 L 63.2,4 L 70.2,4 L 70.2,6 z
M 112,9.79999 L 112,4 L 125,4 L 125,9.79999 z
M 89,9.79999 L 89,4 L 102,4 L 102,9.79999 z
M 162.617,15.6466 L 161.081,14.5862 L 160.213,12.9333 L 160.213,11.0667 L 161.081,9.41382 L 162.617,8.35342
 L 164.47,8.12843 L 166.215,8.79036 L 167.453,10.1876 L 167.9,12 L 167.453,13.8124 L 166.215,15.2096
 L 164.47,15.8716 z
" stroke="black" fill="lightgray" stroke-width="0.5"/>
</svg>
