<?xml version="1.0" encoding="UTF-8" standalone="no"?>
<svg
   width="508mm"
   height="333mm"
   viewBox="-60 -254 508 333"
   version="1.1"
   id="svg1"
   sodipodi:docname="beetlejuice-projection.svg"
   inkscape:version="1.4.2 (ebf0e940d0, 2025-05-08)"
   xmlns:inkscape="http://www.inkscape.org/namespaces/inkscape"
   xmlns:sodipodi="http://sodipodi.sourceforge.net/DTD/sodipodi-0.dtd"
   xmlns="http://www.w3.org/2000/svg"
   xmlns:svg="http://www.w3.org/2000/svg"
   xmlns:rdf="http://www.w3.org/1999/02/22-rdf-syntax-ns#"
   xmlns:cc="http://creativecommons.org/ns#"
   xmlns:dc="http://purl.org/dc/elements/1.1/">
  <defs
     id="defs1" />
  <sodipodi:namedview
     id="namedview1"
     pagecolor="#ffffff"
     bordercolor="#000000"
     borderopacity="0.25"
     inkscape:showpageshadow="2"
     inkscape:pageopacity="0.0"
     inkscape:pagecheckerboard="0"
     inkscape:deskcolor="#d1d1d1"
     inkscape:document-units="mm"
     inkscape:zoom="1"
     inkscape:cx="289"
     inkscape:cy="921"
     inkscape:window-width="3840"
     inkscape:window-height="2091"
     inkscape:window-x="0"
     inkscape:window-y="0"
     inkscape:window-maximized="1"
     inkscape:current-layer="svg1" />
  <title
     id="title1">OpenSCAD Model</title>
  <path
     d="m -3,28.8 v -6 h 6 v 6 z"
     id="path61"
     style="fill:none;fill-opacity:1;stroke:#ff0000;stroke-opacity:1;stroke-width:0.4;stroke-dasharray:none" />
  <path
     d="m 10.5,0 h -5 V 3.29999 H 1.7 v 2.5 h 1.05 v 2.5 H 1.7 V 10.25 H -1.7 V 8.29999 h -1.05 v -2.5 h 1.05 v -2.5 H -5.5 V 0 h -5 v 48.3 h 21 z"
     id="path60"
     style="fill:none;fill-opacity:1;stroke:#000000;stroke-opacity:1;stroke-width:0.4;stroke-dasharray:none" />
  <path
     d="m -30,6.5 h -3 v -8 h 3 V -20 h -3.8 v 2.5 h 1.05 v 2.5 h -1.05 v 1.95 h -3.4 V -15 h -1.05 v -2.5 h 1.05 V -20 H -42 v -3.3 h -3 V 15 h 15 z"
     id="path59"
     style="fill:none;fill-opacity:1;stroke:#000000;stroke-opacity:1;stroke-width:0.4;stroke-dasharray:none" />
  <path
     d="m 78,-45 v -3.3 h 24 v 3.3 z"
     id="path57"
     style="fill:none;fill-opacity:1;stroke:#ff0000;stroke-opacity:1;stroke-width:0.4;stroke-dasharray:none" />
  <path
     d="m 258,-45 v -3.3 h 24 v 3.3 z"
     id="path56"
     style="fill:none;fill-opacity:1;stroke:#ff0000;stroke-opacity:1;stroke-width:0.4;stroke-dasharray:none" />
  <path
     d="m 166,-45 v -3.3 h 24 v 3.3 z"
     id="path55"
     style="fill:none;fill-opacity:1;stroke:#ff0000;stroke-opacity:1;stroke-width:0.4;stroke-dasharray:none" />
  <path
     d="m 346,-45 v -3.3 h 24 v 3.3 z"
     id="path54"
     style="fill:none;fill-opacity:1;stroke:#ff0000;stroke-opacity:1;stroke-width:0.4;stroke-dasharray:none" />
  <path
     d="m 57.0556,-49.2775 2.3335,-2.3334 3.5355,3.5355 -2.3334,2.3335 z"
     id="path50"
     style="fill:none;fill-opacity:1;stroke:#ff0000;stroke-opacity:1;stroke-width:0.4;stroke-dasharray:none" />
  <path
     d="m 385.075,-48.0754 3.536,-3.5355 2.333,2.3334 -3.535,3.5356 z"
     id="path49"
     style="fill:none;fill-opacity:1;stroke:#ff0000;stroke-opacity:1;stroke-width:0.4;stroke-dasharray:none" />
  <path
     d="m 45.7419,-60.5912 2.3335,-2.3334 3.5355,3.5355 -2.3334,2.3335 z"
     id="path42"
     style="fill:none;fill-opacity:1;stroke:#ff0000;stroke-opacity:1;stroke-width:0.4;stroke-dasharray:none" />
  <path
     d="m 396.389,-59.3891 3.536,-3.5355 2.333,2.3334 -3.535,3.5356 z"
     id="path41"
     style="fill:none;fill-opacity:1;stroke:#ff0000;stroke-opacity:1;stroke-width:0.4;stroke-dasharray:none" />
  <path
     d="m 183.75,-60.3 v -3 h 3.3 v 3 z"
     id="path40"
     style="fill:none;fill-opacity:1;stroke:#ff0000;stroke-opacity:1;stroke-width:0.4;stroke-dasharray:none" />
  <path
     d="m 264.25,-60.3 v -3 h 3.3 v 3 z"
     id="path39"
     style="fill:none;fill-opacity:1;stroke:#ff0000;stroke-opacity:1;stroke-width:0.4;stroke-dasharray:none" />
  <path
     d="m 344.75,-60.3 v -3 h 3.3 v 3 z"
     id="path38"
     style="fill:none;fill-opacity:1;stroke:#ff0000;stroke-opacity:1;stroke-width:0.4;stroke-dasharray:none" />
  <path
     d="m 103.25,-60.3 v -3 h 3.3 v 3 z"
     id="path37"
     style="fill:none;fill-opacity:1;stroke:#ff0000;stroke-opacity:1;stroke-width:0.4;stroke-dasharray:none" />
  <path
     d="m 399.7,-78 v -24 h 3.3 v 24 z"
     id="path36"
     style="fill:none;fill-opacity:1;stroke:#ff0000;stroke-opacity:1;stroke-width:0.4;stroke-dasharray:none" />
  <path
     d="m 45,-78 v -24 h 3.3 v 24 z"
     id="path35"
     style="fill:none;fill-opacity:1;stroke:#ff0000;stroke-opacity:1;stroke-width:0.4;stroke-dasharray:none" />
  <path
     d="m 60.3,-102.367 v -3.3 h 3 v 3.3 z"
     id="path34"
     style="fill:none;fill-opacity:1;stroke:#ff0000;stroke-opacity:1;stroke-width:0.4;stroke-dasharray:none" />
  <path
     d="m 384.7,-105.667 v -3.3 h 3 v 3.3 z"
     id="path32"
     style="fill:none;fill-opacity:1;stroke:#ff0000;stroke-opacity:1;stroke-width:0.4;stroke-dasharray:none" />
  <circle
     style="fill:none;fill-opacity:1;stroke:#ff0000;stroke-width:0.4;stroke-dasharray:none;stroke-opacity:1"
     id="path63-5-54"
     cx="394.20001"
     cy="-107.31703"
     r="1.7" />
  <circle
     style="fill:none;fill-opacity:1;stroke:#ff0000;stroke-width:0.4;stroke-dasharray:none;stroke-opacity:1"
     id="path63-5-0"
     cx="401.35001"
     cy="-127"
     r="1.7" />
  <path
     d="m 60.3,-145.033 v -3.3 h 3 v 3.3 z"
     id="path28"
     style="fill:none;fill-opacity:1;stroke:#ff0000;stroke-opacity:1;stroke-width:0.4;stroke-dasharray:none" />
  <path
     d="m 384.7,-148.333 v -3.3 h 3 v 3.3 z"
     id="path26"
     style="fill:none;fill-opacity:1;stroke:#ff0000;stroke-opacity:1;stroke-width:0.4;stroke-dasharray:none" />
  <circle
     style="fill:none;fill-opacity:1;stroke:#ff0000;stroke-width:0.4;stroke-dasharray:none;stroke-opacity:1"
     id="path63-5-610"
     cx="394.20001"
     cy="-149.98297"
     r="1.7" />
  <path
     d="m 399.7,-152 v -24 h 3.3 v 24 z"
     id="path24"
     style="fill:none;fill-opacity:1;stroke:#ff0000;stroke-opacity:1;stroke-width:0.4;stroke-dasharray:none" />
  <path
     d="m 45,-152 v -24 h 3.3 v 24 z"
     id="path23"
     style="fill:none;fill-opacity:1;stroke:#ff0000;stroke-opacity:1;stroke-width:0.4;stroke-dasharray:none" />
  <path
     d="m 180.45,-190.7 v -3 h 3.3 v 3 z"
     id="path22"
     style="fill:none;fill-opacity:1;stroke:#ff0000;stroke-opacity:1;stroke-width:0.4;stroke-dasharray:none" />
  <path
     d="m 99.95,-190.7 v -3 h 3.3 v 3 z"
     id="path21"
     style="fill:none;fill-opacity:1;stroke:#ff0000;stroke-opacity:1;stroke-width:0.4;stroke-dasharray:none" />
  <path
     d="m 341.45,-190.7 v -3 h 3.3 v 3 z"
     id="path20"
     style="fill:none;fill-opacity:1;stroke:#ff0000;stroke-opacity:1;stroke-width:0.4;stroke-dasharray:none" />
  <path
     d="m 260.95,-190.7 v -3 h 3.3 v 3 z"
     id="path19"
     style="fill:none;fill-opacity:1;stroke:#ff0000;stroke-opacity:1;stroke-width:0.4;stroke-dasharray:none" />
  <path
     d="m 396.389,-194.611 2.334,-2.333 3.535,3.535 -2.333,2.334 z"
     id="path18"
     style="fill:none;fill-opacity:1;stroke:#ff0000;stroke-opacity:1;stroke-width:0.4;stroke-dasharray:none" />
  <path
     d="m 45.7419,-193.409 3.5356,-3.535 2.3334,2.333 -3.5355,3.536 z"
     id="path17"
     style="fill:none;fill-opacity:1;stroke:#ff0000;stroke-opacity:1;stroke-width:0.4;stroke-dasharray:none" />
  <circle
     style="fill:none;fill-opacity:1;stroke:#ff0000;stroke-width:0.4;stroke-dasharray:none;stroke-opacity:1"
     id="path63-5-4"
     cx="393.66699"
     cy="-199.66701"
     r="1.7" />
  <circle
     style="fill:none;fill-opacity:1;stroke:#ff0000;stroke-width:0.4;stroke-dasharray:none;stroke-opacity:1"
     id="path63-5-8"
     cx="262.60001"
     cy="-200.2"
     r="1.7" />
  <circle
     style="fill:none;fill-opacity:1;stroke:#ff0000;stroke-width:0.4;stroke-dasharray:none;stroke-opacity:1"
     id="path63-5-9"
     cx="343.10001"
     cy="-200.2"
     r="1.7" />
  <path
     d="m 57.0556,-204.723 3.5356,-3.535 2.3334,2.333 -3.5355,3.536 z"
     id="path10"
     style="fill:none;fill-opacity:1;stroke:#ff0000;stroke-opacity:1;stroke-width:0.4;stroke-dasharray:none" />
  <path
     d="m 385.075,-205.925 2.334,-2.333 3.535,3.535 -2.333,2.334 z"
     id="path9"
     style="fill:none;fill-opacity:1;stroke:#ff0000;stroke-opacity:1;stroke-width:0.4;stroke-dasharray:none" />
  <path
     d="m 78,-205.7 v -3.3 h 24 v 3.3 z"
     id="path8"
     style="fill:none;fill-opacity:1;stroke:#ff0000;stroke-opacity:1;stroke-width:0.4;stroke-dasharray:none" />
  <path
     d="m 258,-205.7 v -3.3 h 24 v 3.3 z"
     id="path7"
     style="fill:none;fill-opacity:1;stroke:#ff0000;stroke-opacity:1;stroke-width:0.4;stroke-dasharray:none" />
  <path
     d="m 346,-205.7 v -3.3 h 24 v 3.3 z"
     id="path6"
     style="fill:none;fill-opacity:1;stroke:#ff0000;stroke-opacity:1;stroke-width:0.4;stroke-dasharray:none" />
  <path
     d="m 166,-205.7 v -3.3 h 24 v 3.3 z"
     id="path5"
     style="fill:none;fill-opacity:1;stroke:#ff0000;stroke-opacity:1;stroke-width:0.4;stroke-dasharray:none" />
  <circle
     style="fill:none;fill-opacity:1;stroke:#ff0000;stroke-width:0.4;stroke-dasharray:none;stroke-opacity:1"
     id="path63-5-612"
     cx="314"
     cy="-207.35001"
     r="1.7" />
  <path
     d="m 448,-45 v -164 l -45,-45 H 45 L 0,-209 V -45 L 45,0 h 358 z"
     id="path1"
     style="fill:none;fill-opacity:1;stroke:#000000;stroke-opacity:1;stroke-width:0.4;stroke-dasharray:none" />
  <circle
     style="fill:none;fill-opacity:1;stroke:#ff0000;stroke-width:0.4;stroke-dasharray:none;stroke-opacity:1"
     id="path63"
     cx="53.799999"
     cy="-146.68297"
     r="1.7" />
  <circle
     style="fill:none;fill-opacity:1;stroke:#ff0000;stroke-width:0.4;stroke-dasharray:none;stroke-opacity:1"
     id="path63-5"
     cx="46.650002"
     cy="-127"
     r="1.7" />
  <circle
     style="fill:none;fill-opacity:1;stroke:#ff0000;stroke-width:0.4;stroke-dasharray:none;stroke-opacity:1"
     id="path63-5-2"
     cx="53.799999"
     cy="-104.01703"
     r="1.7" />
  <circle
     style="fill:none;fill-opacity:1;stroke:#ff0000;stroke-width:0.4;stroke-dasharray:none;stroke-opacity:1"
     id="path63-5-7"
     cx="54.333248"
     cy="-199.66701"
     r="1.7" />
  <circle
     style="fill:none;fill-opacity:1;stroke:#ff0000;stroke-width:0.4;stroke-dasharray:none;stroke-opacity:1"
     id="path63-5-6"
     cx="101.59999"
     cy="-200.2"
     r="1.7" />
  <circle
     style="fill:none;fill-opacity:1;stroke:#ff0000;stroke-width:0.4;stroke-dasharray:none;stroke-opacity:1"
     id="path63-5-61"
     cx="134"
     cy="-207.35001"
     r="1.7" />
  <circle
     style="fill:none;fill-opacity:1;stroke:#ff0000;stroke-width:0.4;stroke-dasharray:none;stroke-opacity:1"
     id="path63-5-20"
     cx="182.10001"
     cy="-200.2"
     r="1.7" />
  <circle
     style="fill:none;fill-opacity:1;stroke:#ff0000;stroke-width:0.4;stroke-dasharray:none;stroke-opacity:1"
     id="path63-5-5"
     cx="224"
     cy="-207.35001"
     r="1.7" />
  <circle
     style="fill:none;fill-opacity:1;stroke:#ff0000;stroke-width:0.4;stroke-dasharray:none;stroke-opacity:1"
     id="path63-5-69"
     cx="393.66699"
     cy="-54.333248"
     r="1.7" />
  <circle
     style="fill:none;fill-opacity:1;stroke:#ff0000;stroke-width:0.4;stroke-dasharray:none;stroke-opacity:1"
     id="path63-5-52"
     cx="346.39999"
     cy="-53.799999"
     r="1.7" />
  <circle
     style="fill:none;fill-opacity:1;stroke:#ff0000;stroke-width:0.4;stroke-dasharray:none;stroke-opacity:1"
     id="path63-5-44"
     cx="314"
     cy="-46.650002"
     r="1.7" />
  <circle
     style="fill:none;fill-opacity:1;stroke:#ff0000;stroke-width:0.4;stroke-dasharray:none;stroke-opacity:1"
     id="path63-5-86"
     cx="265.89999"
     cy="-53.799999"
     r="1.7" />
  <circle
     style="fill:none;fill-opacity:1;stroke:#ff0000;stroke-width:0.4;stroke-dasharray:none;stroke-opacity:1"
     id="path63-5-3"
     cx="224"
     cy="-46.650002"
     r="1.7" />
  <circle
     style="fill:none;fill-opacity:1;stroke:#ff0000;stroke-width:0.4;stroke-dasharray:none;stroke-opacity:1"
     id="path63-5-206"
     cx="185.39999"
     cy="-53.799999"
     r="1.7" />
  <circle
     style="fill:none;fill-opacity:1;stroke:#ff0000;stroke-width:0.4;stroke-dasharray:none;stroke-opacity:1"
     id="path63-5-66"
     cx="134"
     cy="-46.650002"
     r="1.7" />
  <circle
     style="fill:none;fill-opacity:1;stroke:#ff0000;stroke-width:0.4;stroke-dasharray:none;stroke-opacity:1"
     id="path63-5-04"
     cx="104.9"
     cy="-53.799999"
     r="1.7" />
  <circle
     style="fill:none;fill-opacity:1;stroke:#ff0000;stroke-width:0.4;stroke-dasharray:none;stroke-opacity:1"
     id="path63-5-72"
     cx="54.333248"
     cy="-54.333248"
     r="1.7" />
  <metadata
     id="metadata63">
    <rdf:RDF>
      <cc:Work
         rdf:about="">
        <dc:title>OpenSCAD Model</dc:title>
      </cc:Work>
    </rdf:RDF>
  </metadata>
  <path
     d="m -33.560417,-80.770833 v -6 h 6 v 6 z"
     id="path61-6"
     style="fill:none;stroke:#ff0000;stroke-width:0.4;stroke-dasharray:none;stroke-opacity:1" />
  <path
     d="m -33.560417,-122.77083 v -6 h 6 v 6 z"
     id="path60-1"
     style="fill:none;stroke:#ff0000;stroke-width:0.4;stroke-dasharray:none;stroke-opacity:1" />
  <path
     d="m -33.560417,-164.77083 v -6 h 6 v 6 z"
     id="path59-0"
     style="fill:none;stroke:#ff0000;stroke-width:0.4;stroke-dasharray:none;stroke-opacity:1" />
  <path
     d="M -8.0604166,-189.77083 H -53.060414 v 15 h -3.3 v 24 h 3.3 v 23.3 h 2.5 v -1.05 h 2.5 v 1.05 h 1.95 v 3.4 h -1.95 v 1.05 h -2.5 v -1.05 h -2.5 v 23.3 h -3.3 v 23.999997 h 3.3 v 15.000001 h 44.9999974 z"
     id="path58-6"
     style="fill:none;stroke:#000000;stroke-width:0.4;stroke-dasharray:none;stroke-opacity:1" />
  <path
     d="m 359.87708,41.435417 v -6 h 6 v 6 z"
     id="path72"
     style="fill:none;stroke:#ff0000;stroke-width:0.4;stroke-dasharray:none;stroke-opacity:1" />
  <path
     d="m 269.21008,41.435417 v -6 h 6 v 6 z"
     id="path71"
     style="fill:none;stroke:#ff0000;stroke-width:0.4;stroke-dasharray:none;stroke-opacity:1" />
  <path
     d="m 178.54408,41.435417 v -6 h 6 v 6 z"
     id="path70"
     style="fill:none;stroke:#ff0000;stroke-width:0.4;stroke-dasharray:none;stroke-opacity:1" />
  <path
     d="m 133.21038,41.435417 v -6 h 5.9997 v 6 z"
     id="path69"
     style="fill:none;stroke:#ff0000;stroke-width:0.4;stroke-dasharray:none;stroke-opacity:1" />
  <path
     d="m 87.877083,41.435417 v -6 h 6 v 6 z"
     id="path68"
     style="fill:none;stroke:#ff0000;stroke-width:0.4;stroke-dasharray:none;stroke-opacity:1" />
  <path
     d="m 314.54408,41.435417 v -6 h 6 v 6 z"
     id="path67"
     style="fill:none;stroke:#ff0000;stroke-width:0.4;stroke-dasharray:none;stroke-opacity:1" />
  <path
     d="m 223.87708,41.435417 v -6 h 6 v 6 z"
     id="path66"
     style="fill:none;stroke:#ff0000;stroke-width:0.4;stroke-dasharray:none;stroke-opacity:1" />
  <path
     d="m 387.87708,15.935417 h -15 v -3.3 h -24 v 3.3 h -30.3 v 2.5 h 1.05 v 2.5 h -1.05 v 1.95 h -3.4 v -1.95 h -1.05 v -2.5 h 1.05 v -2.5 h -30.3 v -3.3 h -24 v 3.3 h -32.3 v 2.5 h 1.05 v 2.5 h -1.05 v 1.95 h -3.4 v -1.95 h -1.05 v -2.5 h 1.05 v -2.5 h -32.3 v -3.3 h -24 v 3.3 h -30.3 v 2.5 h 1.05 v 2.5 h -1.05 v 1.95 h -3.4 v -1.95 h -1.05 v -2.5 h 1.05 v -2.5 h -30.3 v -3.3 H 80.877083 v 3.3 h -15 v 45 H 387.87708 Z"
     id="path65"
     style="fill:none;stroke:#000000;stroke-width:0.4;stroke-dasharray:none;stroke-opacity:1" />
</svg>
