<?xml version="1.0" standalone="no"?>
<!DOCTYPE svg PUBLIC "-//W3C//DTD SVG 1.1//EN" "http://www.w3.org/Graphics/SVG/1.1/DTD/svg11.dtd">
<svg width="508mm" height="333mm" viewBox="-60 -254 508 333" xmlns="http://www.w3.org/2000/svg" version="1.1">
<title>OpenSCAD Model</title>
<path d="
M 448,-45 L 448,-209 L 403,-254 L 45,-254 L 0,-209 L 0,-45
 L 45,-0 L 403,-0 z
M 313.475,-205.733 L 313.001,-205.975 L 312.625,-206.351 L 312.383,-206.825 L 312.3,-207.35 L 312.383,-207.875
 L 312.625,-208.349 L 313.001,-208.725 L 313.475,-208.967 L 314,-209.05 L 314.525,-208.967 L 314.999,-208.725
 L 315.375,-208.349 L 315.617,-207.875 L 315.7,-207.35 L 315.617,-206.825 L 315.375,-206.351 L 314.999,-205.975
 L 314.525,-205.733 L 314,-205.65 z
M 223.475,-205.733 L 223.001,-205.975 L 222.625,-206.351 L 222.383,-206.825 L 222.3,-207.35 L 222.383,-207.875
 L 222.625,-208.349 L 223.001,-208.725 L 223.475,-208.967 L 224,-209.05 L 224.525,-208.967 L 224.999,-208.725
 L 225.375,-208.349 L 225.617,-207.875 L 225.7,-207.35 L 225.617,-206.825 L 225.375,-206.351 L 224.999,-205.975
 L 224.525,-205.733 L 224,-205.65 z
M 133.475,-205.733 L 133.001,-205.975 L 132.625,-206.351 L 132.383,-206.825 L 132.3,-207.35 L 132.383,-207.875
 L 132.625,-208.349 L 133.001,-208.725 L 133.475,-208.967 L 134,-209.05 L 134.525,-208.967 L 134.999,-208.725
 L 135.375,-208.349 L 135.617,-207.875 L 135.7,-207.35 L 135.617,-206.825 L 135.375,-206.351 L 134.999,-205.975
 L 134.525,-205.733 L 134,-205.65 z
M 166,-205.7 L 166,-209 L 190,-209 L 190,-205.7 z
M 78,-205.7 L 78,-209 L 102,-209 L 102,-205.7 z
M 346,-205.7 L 346,-209 L 370,-209 L 370,-205.7 z
M 258,-205.7 L 258,-209 L 282,-209 L 282,-205.7 z
M 385.075,-205.925 L 387.409,-208.258 L 390.944,-204.723 L 388.611,-202.389 z
M 57.0556,-204.723 L 60.5912,-208.258 L 62.9246,-205.925 L 59.3891,-202.389 z
M 342.575,-198.583 L 342.101,-198.825 L 341.725,-199.201 L 341.483,-199.675 L 341.4,-200.2 L 341.483,-200.725
 L 341.725,-201.199 L 342.101,-201.575 L 342.575,-201.817 L 343.1,-201.9 L 343.625,-201.817 L 344.099,-201.575
 L 344.475,-201.199 L 344.717,-200.725 L 344.8,-200.2 L 344.717,-199.675 L 344.475,-199.201 L 344.099,-198.825
 L 343.625,-198.583 L 343.1,-198.5 z
M 101.075,-198.583 L 100.601,-198.825 L 100.225,-199.201 L 99.9832,-199.675 L 99.9,-200.2 L 99.9832,-200.725
 L 100.225,-201.199 L 100.601,-201.575 L 101.075,-201.817 L 101.6,-201.9 L 102.125,-201.817 L 102.599,-201.575
 L 102.975,-201.199 L 103.217,-200.725 L 103.3,-200.2 L 103.217,-199.675 L 102.975,-199.201 L 102.599,-198.825
 L 102.125,-198.583 L 101.6,-198.5 z
M 181.575,-198.583 L 181.101,-198.825 L 180.725,-199.201 L 180.483,-199.675 L 180.4,-200.2 L 180.483,-200.725
 L 180.725,-201.199 L 181.101,-201.575 L 181.575,-201.817 L 182.1,-201.9 L 182.625,-201.817 L 183.099,-201.575
 L 183.475,-201.199 L 183.717,-200.725 L 183.8,-200.2 L 183.717,-199.675 L 183.475,-199.201 L 183.099,-198.825
 L 182.625,-198.583 L 182.1,-198.5 z
M 262.075,-198.583 L 261.601,-198.825 L 261.225,-199.201 L 260.983,-199.675 L 260.9,-200.2 L 260.983,-200.725
 L 261.225,-201.199 L 261.601,-201.575 L 262.075,-201.817 L 262.6,-201.9 L 263.125,-201.817 L 263.599,-201.575
 L 263.975,-201.199 L 264.217,-200.725 L 264.3,-200.2 L 264.217,-199.675 L 263.975,-199.201 L 263.599,-198.825
 L 263.125,-198.583 L 262.6,-198.5 z
M 393.401,-197.988 L 392.895,-198.152 L 392.465,-198.465 L 392.152,-198.895 L 391.988,-199.401 L 391.988,-199.933
 L 392.152,-200.439 L 392.465,-200.869 L 392.895,-201.181 L 393.401,-201.346 L 393.933,-201.346 L 394.439,-201.181
 L 394.869,-200.869 L 395.181,-200.439 L 395.346,-199.933 L 395.346,-199.401 L 395.181,-198.895 L 394.869,-198.465
 L 394.439,-198.152 L 393.933,-197.988 z
M 54.0673,-197.988 L 53.5615,-198.152 L 53.1312,-198.465 L 52.8186,-198.895 L 52.6542,-199.401 L 52.6542,-199.933
 L 52.8186,-200.439 L 53.1312,-200.869 L 53.5615,-201.181 L 54.0673,-201.346 L 54.5992,-201.346 L 55.1051,-201.181
 L 55.5354,-200.869 L 55.848,-200.439 L 56.0123,-199.933 L 56.0123,-199.401 L 55.848,-198.895 L 55.5354,-198.465
 L 55.1051,-198.152 L 54.5992,-197.988 z
M 396.389,-194.611 L 398.723,-196.944 L 402.258,-193.409 L 399.925,-191.075 z
M 45.7419,-193.409 L 49.2775,-196.944 L 51.6109,-194.611 L 48.0754,-191.075 z
M 180.45,-190.7 L 180.45,-193.7 L 183.75,-193.7 L 183.75,-190.7 z
M 260.95,-190.7 L 260.95,-193.7 L 264.25,-193.7 L 264.25,-190.7 z
M 341.45,-190.7 L 341.45,-193.7 L 344.75,-193.7 L 344.75,-190.7 z
M 99.95,-190.7 L 99.95,-193.7 L 103.25,-193.7 L 103.25,-190.7 z
M 399.7,-152 L 399.7,-176 L 403,-176 L 403,-152 z
M 45,-152 L 45,-176 L 48.3,-176 L 48.3,-152 z
M 393.675,-148.367 L 393.201,-148.608 L 392.825,-148.984 L 392.583,-149.458 L 392.5,-149.983 L 392.583,-150.509
 L 392.825,-150.983 L 393.201,-151.359 L 393.675,-151.6 L 394.2,-151.683 L 394.725,-151.6 L 395.199,-151.359
 L 395.575,-150.983 L 395.817,-150.509 L 395.9,-149.983 L 395.817,-149.458 L 395.575,-148.984 L 395.199,-148.608
 L 394.725,-148.367 L 394.2,-148.283 z
M 384.7,-148.333 L 384.7,-151.633 L 387.7,-151.633 L 387.7,-148.333 z
M 53.2747,-145.067 L 52.8008,-145.308 L 52.4247,-145.684 L 52.1832,-146.158 L 52.1,-146.683 L 52.1832,-147.209
 L 52.4247,-147.683 L 52.8008,-148.059 L 53.2747,-148.3 L 53.8,-148.383 L 54.3253,-148.3 L 54.7992,-148.059
 L 55.1753,-147.683 L 55.4168,-147.209 L 55.5,-146.683 L 55.4168,-146.158 L 55.1753,-145.684 L 54.7992,-145.308
 L 54.3253,-145.067 L 53.8,-144.983 z
M 60.3,-145.033 L 60.3,-148.333 L 63.3,-148.333 L 63.3,-145.033 z
M 46.1247,-125.383 L 45.6508,-125.625 L 45.2747,-126.001 L 45.0332,-126.475 L 44.95,-127 L 45.0332,-127.525
 L 45.2747,-127.999 L 45.6508,-128.375 L 46.1247,-128.617 L 46.65,-128.7 L 47.1753,-128.617 L 47.6492,-128.375
 L 48.0253,-127.999 L 48.2668,-127.525 L 48.35,-127 L 48.2668,-126.475 L 48.0253,-126.001 L 47.6492,-125.625
 L 47.1753,-125.383 L 46.65,-125.3 z
M 400.825,-125.383 L 400.351,-125.625 L 399.975,-126.001 L 399.733,-126.475 L 399.65,-127 L 399.733,-127.525
 L 399.975,-127.999 L 400.351,-128.375 L 400.825,-128.617 L 401.35,-128.7 L 401.875,-128.617 L 402.349,-128.375
 L 402.725,-127.999 L 402.967,-127.525 L 403.05,-127 L 402.967,-126.475 L 402.725,-126.001 L 402.349,-125.625
 L 401.875,-125.383 L 401.35,-125.3 z
M 393.675,-105.7 L 393.201,-105.941 L 392.825,-106.317 L 392.583,-106.791 L 392.5,-107.317 L 392.583,-107.842
 L 392.825,-108.316 L 393.201,-108.692 L 393.675,-108.933 L 394.2,-109.017 L 394.725,-108.933 L 395.199,-108.692
 L 395.575,-108.316 L 395.817,-107.842 L 395.9,-107.317 L 395.817,-106.791 L 395.575,-106.317 L 395.199,-105.941
 L 394.725,-105.7 L 394.2,-105.617 z
M 384.7,-105.667 L 384.7,-108.967 L 387.7,-108.967 L 387.7,-105.667 z
M 53.2747,-102.4 L 52.8008,-102.641 L 52.4247,-103.017 L 52.1832,-103.491 L 52.1,-104.017 L 52.1832,-104.542
 L 52.4247,-105.016 L 52.8008,-105.392 L 53.2747,-105.633 L 53.8,-105.717 L 54.3253,-105.633 L 54.7992,-105.392
 L 55.1753,-105.016 L 55.4168,-104.542 L 55.5,-104.017 L 55.4168,-103.491 L 55.1753,-103.017 L 54.7992,-102.641
 L 54.3253,-102.4 L 53.8,-102.317 z
M 60.3,-102.367 L 60.3,-105.667 L 63.3,-105.667 L 63.3,-102.367 z
M 45,-78 L 45,-102 L 48.3,-102 L 48.3,-78 z
M 399.7,-78 L 399.7,-102 L 403,-102 L 403,-78 z
M 264.25,-60.3 L 264.25,-63.3 L 267.55,-63.3 L 267.55,-60.3 z
M 103.25,-60.3 L 103.25,-63.3 L 106.55,-63.3 L 106.55,-60.3 z
M 344.75,-60.3 L 344.75,-63.3 L 348.05,-63.3 L 348.05,-60.3 z
M 183.75,-60.3 L 183.75,-63.3 L 187.05,-63.3 L 187.05,-60.3 z
M 45.7419,-60.5912 L 48.0754,-62.9246 L 51.6109,-59.3891 L 49.2775,-57.0556 z
M 396.389,-59.3891 L 399.925,-62.9246 L 402.258,-60.5912 L 398.723,-57.0556 z
M 54.0673,-52.6542 L 53.5615,-52.8186 L 53.1312,-53.1312 L 52.8186,-53.5615 L 52.6542,-54.0673 L 52.6542,-54.5992
 L 52.8186,-55.1051 L 53.1311,-55.5353 L 53.1312,-55.5354 L 53.5615,-55.848 L 54.0673,-56.0123 L 54.5992,-56.0123
 L 55.1051,-55.848 L 55.5354,-55.5354 L 55.848,-55.1051 L 56.0123,-54.5992 L 56.0123,-54.0673 L 55.848,-53.5615
 L 55.5354,-53.1312 L 55.5353,-53.1311 L 55.1051,-52.8186 L 54.5992,-52.6542 z
M 393.401,-52.6542 L 392.895,-52.8186 L 392.465,-53.1311 L 392.465,-53.1313 L 392.152,-53.5615 L 391.988,-54.0673
 L 391.988,-54.5992 L 392.152,-55.1051 L 392.465,-55.5354 L 392.895,-55.848 L 393.401,-56.0123 L 393.933,-56.0123
 L 394.439,-55.848 L 394.869,-55.5354 L 395.181,-55.1051 L 395.346,-54.5992 L 395.346,-54.0673 L 395.181,-53.5615
 L 394.869,-53.1312 L 394.439,-52.8186 L 393.933,-52.6542 z
M 104.375,-52.1832 L 103.901,-52.4247 L 103.525,-52.8008 L 103.283,-53.2747 L 103.2,-53.8 L 103.283,-54.3253
 L 103.525,-54.7992 L 103.901,-55.1753 L 104.375,-55.4168 L 104.9,-55.5 L 105.425,-55.4168 L 105.899,-55.1753
 L 106.275,-54.7992 L 106.517,-54.3253 L 106.6,-53.8 L 106.517,-53.2747 L 106.275,-52.8008 L 105.899,-52.4247
 L 105.425,-52.1832 L 104.9,-52.1 z
M 184.875,-52.1832 L 184.401,-52.4247 L 184.025,-52.8008 L 183.783,-53.2747 L 183.7,-53.8 L 183.783,-54.3253
 L 184.025,-54.7992 L 184.401,-55.1753 L 184.875,-55.4168 L 185.4,-55.5 L 185.925,-55.4168 L 186.399,-55.1753
 L 186.775,-54.7992 L 187.017,-54.3253 L 187.1,-53.8 L 187.017,-53.2747 L 186.775,-52.8008 L 186.399,-52.4247
 L 185.925,-52.1832 L 185.4,-52.1 z
M 265.375,-52.1832 L 264.901,-52.4247 L 264.525,-52.8008 L 264.283,-53.2747 L 264.2,-53.8 L 264.283,-54.3253
 L 264.525,-54.7992 L 264.901,-55.1753 L 265.375,-55.4168 L 265.9,-55.5 L 266.425,-55.4168 L 266.899,-55.1753
 L 267.275,-54.7992 L 267.517,-54.3253 L 267.6,-53.8 L 267.517,-53.2747 L 267.275,-52.8008 L 266.899,-52.4247
 L 266.425,-52.1832 L 265.9,-52.1 z
M 345.875,-52.1832 L 345.401,-52.4247 L 345.025,-52.8008 L 344.783,-53.2747 L 344.7,-53.8 L 344.783,-54.3253
 L 345.025,-54.7992 L 345.401,-55.1753 L 345.875,-55.4168 L 346.4,-55.5 L 346.925,-55.4168 L 347.399,-55.1753
 L 347.775,-54.7992 L 348.017,-54.3253 L 348.1,-53.8 L 348.017,-53.2747 L 347.775,-52.8008 L 347.399,-52.4247
 L 346.925,-52.1832 L 346.4,-52.1 z
M 385.075,-48.0754 L 388.611,-51.6109 L 390.944,-49.2775 L 387.409,-45.7419 z
M 57.0556,-49.2775 L 59.3891,-51.6109 L 62.9246,-48.0754 L 60.5912,-45.7419 z
M 313.475,-45.0332 L 313.001,-45.2747 L 312.625,-45.6508 L 312.383,-46.1247 L 312.3,-46.65 L 312.383,-47.1753
 L 312.625,-47.6492 L 313.001,-48.0253 L 313.475,-48.2668 L 314,-48.35 L 314.525,-48.2668 L 314.999,-48.0253
 L 315.375,-47.6492 L 315.617,-47.1753 L 315.7,-46.65 L 315.617,-46.1247 L 315.375,-45.6508 L 314.999,-45.2747
 L 314.525,-45.0332 L 314,-44.95 z
M 223.475,-45.0332 L 223.001,-45.2747 L 222.625,-45.6508 L 222.383,-46.1247 L 222.3,-46.65 L 222.383,-47.1753
 L 222.625,-47.6492 L 223.001,-48.0253 L 223.475,-48.2668 L 224,-48.35 L 224.525,-48.2668 L 224.999,-48.0253
 L 225.375,-47.6492 L 225.617,-47.1753 L 225.7,-46.65 L 225.617,-46.1247 L 225.375,-45.6508 L 224.999,-45.2747
 L 224.525,-45.0332 L 224,-44.95 z
M 133.475,-45.0332 L 133.001,-45.2747 L 132.625,-45.6508 L 132.383,-46.1247 L 132.3,-46.65 L 132.383,-47.1753
 L 132.625,-47.6492 L 133.001,-48.0253 L 133.475,-48.2668 L 134,-48.35 L 134.525,-48.2668 L 134.999,-48.0253
 L 135.375,-47.6492 L 135.617,-47.1753 L 135.7,-46.65 L 135.617,-46.1247 L 135.375,-45.6508 L 134.999,-45.2747
 L 134.525,-45.0332 L 134,-44.95 z
M 78,-45 L 78,-48.3 L 102,-48.3 L 102,-45 z
M 258,-45 L 258,-48.3 L 282,-48.3 L 282,-45 z
M 346,-45 L 346,-48.3 L 370,-48.3 L 370,-45 z
M 166,-45 L 166,-48.3 L 190,-48.3 L 190,-45 z
M -11.7,-168 L -56.7,-168 L -56.7,-153 L -60,-153 L -60,-129 L -56.7,-129
 L -56.7,-105.7 L -54.2,-105.7 L -54.2,-106.75 L -51.7,-106.75 L -51.7,-105.7 L -49.75,-105.7
 L -49.75,-102.3 L -51.7,-102.3 L -51.7,-101.25 L -54.2,-101.25 L -54.2,-102.3 L -56.7,-102.3
 L -56.7,-79 L -60,-79 L -60,-55 L -56.7,-55 L -56.7,-40 L -11.7,-40
 z
M -37.2,-143 L -37.2,-149 L -31.2,-149 L -31.2,-143 z
M -37.2,-101 L -37.2,-107 L -31.2,-107 L -31.2,-101 z
M -37.2,-59 L -37.2,-65 L -31.2,-65 L -31.2,-59 z
M -30,6.5 L -33,6.5 L -33,-1.5 L -30,-1.5 L -30,-20 L -33.8,-20
 L -33.8,-17.5 L -32.75,-17.5 L -32.75,-15 L -33.8,-15 L -33.8,-13.05 L -37.2,-13.05
 L -37.2,-15 L -38.25,-15 L -38.25,-17.5 L -37.2,-17.5 L -37.2,-20 L -42,-20
 L -42,-23.3 L -45,-23.3 L -45,15 L -30,15 z
M 10.5,-0 L 5.5,-0 L 5.5,3.29999 L 1.7,3.29999 L 1.7,5.79999 L 2.75,5.79999
 L 2.75,8.29999 L 1.7,8.29999 L 1.7,10.25 L -1.7,10.25 L -1.7,8.29999 L -2.75,8.29999
 L -2.75,5.79999 L -1.7,5.79999 L -1.7,3.29999 L -5.5,3.29999 L -5.5,-0 L -10.5,-0
 L -10.5,48.3 L 10.5,48.3 z
M -3,28.8 L -3,22.8 L 3,22.8 L 3,28.8 z
M 352,33.3 L 337,33.3 L 337,30 L 313,30 L 313,33.3 L 282.7,33.3
 L 282.7,35.8 L 283.75,35.8 L 283.75,38.3 L 282.7,38.3 L 282.7,40.25 L 279.3,40.25
 L 279.3,38.3 L 278.25,38.3 L 278.25,35.8 L 279.3,35.8 L 279.3,33.3 L 249,33.3
 L 249,30 L 225,30 L 225,33.3 L 192.7,33.3 L 192.7,35.8 L 193.75,35.8
 L 193.75,38.3 L 192.7,38.3 L 192.7,40.25 L 189.3,40.25 L 189.3,38.3 L 188.25,38.3
 L 188.25,35.8 L 189.3,35.8 L 189.3,33.3 L 157,33.3 L 157,30 L 133,30
 L 133,33.3 L 102.7,33.3 L 102.7,35.8 L 103.75,35.8 L 103.75,38.3 L 102.7,38.3
 L 102.7,40.25 L 99.3,40.25 L 99.3,38.3 L 98.25,38.3 L 98.25,35.8 L 99.3,35.8
 L 99.3,33.3 L 69,33.3 L 69,30 L 45,30 L 45,33.3 L 30,33.3
 L 30,78.3 L 352,78.3 z
M 188,58.8 L 188,52.8 L 194,52.8 L 194,58.8 z
M 278.667,58.8 L 278.667,52.8 L 284.667,52.8 L 284.667,58.8 z
M 52,58.8 L 52,52.8 L 58,52.8 L 58,58.8 z
M 97.3333,58.8 L 97.3333,52.8 L 103.333,52.8 L 103.333,58.8 z
M 142.667,58.8 L 142.667,52.8 L 148.667,52.8 L 148.667,58.8 z
M 233.333,58.8 L 233.333,52.8 L 239.333,52.8 L 239.333,58.8 z
M 324,58.8 L 324,52.8 L 330,52.8 L 330,58.8 z
" stroke="black" fill="lightgray" stroke-width="0.5"/>
</svg>
