<?xml version="1.0" standalone="no"?>
<!DOCTYPE svg PUBLIC "-//W3C//DTD SVG 1.1//EN" "http://www.w3.org/Graphics/SVG/1.1/DTD/svg11.dtd">
<svg width="100mm" height="270mm" viewBox="0 -270 100 270" xmlns="http://www.w3.org/2000/svg" version="1.1">
<title>OpenSCAD Model</title>
<path d="
M 16,-39.505 L 16,-183.351 L 18.1288,-181.474 L 20.6107,-179.549 L 23.2086,-177.784 L 25.9123,-176.185
 L 28.711,-174.759 L 31.5938,-173.511 L 34.5491,-172.447 L 37.5655,-171.571 L 40.6309,-170.886 L 43.7333,-170.394
 L 46.8605,-170.099 L 50,-170 L 53.1395,-170.099 L 56.2667,-170.394 L 59.3691,-170.886 L 62.4345,-171.571
 L 65.4509,-172.447 L 68.4062,-173.511 L 71.289,-174.759 L 74.0877,-176.185 L 76.7913,-177.784 L 79.3893,-179.549
 L 81.8712,-181.474 L 84,-183.351 L 84,-39.505 L 91.9798,-0 L 92.0202,-0 L 100,-39.505
 L 100,-220 L 99.9013,-223.14 L 99.6057,-226.267 L 99.1144,-229.369 L 98.4292,-232.434 L 97.5528,-235.451
 L 96.4888,-238.406 L 95.2413,-241.289 L 93.8153,-244.088 L 92.2164,-246.791 L 90.4509,-249.389 L 88.5257,-251.871
 L 86.4484,-254.227 L 84.2274,-256.448 L 81.8712,-258.526 L 79.3893,-260.451 L 76.7913,-262.216 L 74.0877,-263.815
 L 71.289,-265.241 L 68.4062,-266.489 L 65.4509,-267.553 L 62.4345,-268.429 L 59.3691,-269.114 L 56.2667,-269.606
 L 53.1395,-269.901 L 50,-270 L 46.8605,-269.901 L 43.7333,-269.606 L 40.6309,-269.114 L 37.5655,-268.429
 L 34.5491,-267.553 L 31.5938,-266.489 L 28.711,-265.241 L 25.9123,-263.815 L 23.2086,-262.216 L 20.6107,-260.451
 L 18.1288,-258.526 L 15.7726,-256.448 L 13.5516,-254.227 L 11.4743,-251.871 L 9.54915,-249.389 L 7.7836,-246.791
 L 6.18466,-244.088 L 4.75864,-241.289 L 3.51117,-238.406 L 2.44717,-235.451 L 1.57083,-232.434 L 0.885635,-229.369
 L 0.394257,-226.267 L 0.0986633,-223.14 L 0,-220 L 0,-39.505 L 7.9798,-0 L 8.02019,-0
 z
M 47.8651,-186.067 L 45.7387,-186.268 L 43.629,-186.602 L 41.5445,-187.068 L 39.4934,-187.664 L 37.4838,-188.388
 L 35.5235,-189.236 L 33.6204,-190.206 L 31.7819,-191.293 L 30.0153,-192.493 L 28.3276,-193.803 L 26.7254,-195.215
 L 25.2151,-196.725 L 23.8026,-198.328 L 22.4934,-200.015 L 21.2928,-201.782 L 20.2056,-203.62 L 19.2359,-205.523
 L 18.3876,-207.484 L 17.6641,-209.493 L 17.0682,-211.545 L 16.6022,-213.629 L 16.2681,-215.739 L 16.0671,-217.865
 L 16,-220 L 16.0671,-222.135 L 16.2681,-224.261 L 16.6022,-226.371 L 17.0682,-228.455 L 17.6641,-230.507
 L 18.3876,-232.516 L 19.2359,-234.477 L 20.2056,-236.38 L 21.2928,-238.218 L 22.4934,-239.985 L 23.8026,-241.672
 L 25.2151,-243.275 L 26.7254,-244.785 L 28.3276,-246.197 L 30.0153,-247.507 L 31.7819,-248.707 L 33.6204,-249.794
 L 35.5235,-250.764 L 37.4838,-251.612 L 39.4934,-252.336 L 41.5445,-252.932 L 43.629,-253.398 L 45.7387,-253.732
 L 47.8651,-253.933 L 50,-254 L 52.1349,-253.933 L 54.2613,-253.732 L 56.371,-253.398 L 58.4554,-252.932
 L 60.5066,-252.336 L 62.5162,-251.612 L 64.4765,-250.764 L 66.3796,-249.794 L 68.2181,-248.707 L 69.9847,-247.507
 L 71.6724,-246.197 L 73.2746,-244.785 L 74.7849,-243.275 L 76.1974,-241.672 L 77.5066,-239.985 L 78.7071,-238.218
 L 79.7944,-236.38 L 80.7641,-234.477 L 81.6124,-232.516 L 82.3359,-230.507 L 82.9318,-228.455 L 83.3978,-226.371
 L 83.7319,-224.261 L 83.9329,-222.135 L 84,-220 L 83.9329,-217.865 L 83.7319,-215.739 L 83.3978,-213.629
 L 82.9318,-211.545 L 82.3359,-209.493 L 81.6124,-207.484 L 80.7641,-205.523 L 79.7944,-203.62 L 78.7071,-201.782
 L 77.5066,-200.015 L 76.1974,-198.328 L 74.7849,-196.725 L 73.2746,-195.215 L 71.6724,-193.803 L 69.9847,-192.493
 L 68.2181,-191.293 L 66.3796,-190.206 L 64.4765,-189.236 L 62.5162,-188.388 L 60.5066,-187.664 L 58.4554,-187.068
 L 56.371,-186.602 L 54.2613,-186.268 L 52.1349,-186.067 L 50,-186 z
" stroke="black" fill="lightgray" stroke-width="0.5"/>
</svg>
