<?xml version="1.0" standalone="no"?>
<!DOCTYPE svg PUBLIC "-//W3C//DTD SVG 1.1//EN" "http://www.w3.org/Graphics/SVG/1.1/DTD/svg11.dtd">
<svg width="316mm" height="284mm" viewBox="-138 -250 316 284" xmlns="http://www.w3.org/2000/svg" version="1.1">
<title>OpenSCAD Model</title>
<path d="
M 37.5,-0 L 45,-0 L 45,-10 L 15,-50 L 15,-186 L 45,-226
 L 115,-226 L 115,-250 L 95,-250 L 95,-240 L 55,-240 L 55,-250
 L -55,-250 L -55,-240 L -95,-240 L -95,-250 L -115,-250 L -115,-226
 L -45,-226 L -15,-186 L -15,-50 L -45,-10 L -45,-0 L -37.5,-0
 L -37.5,-10 L -22.5,-10 L -22.5,-0 L -12.5,-0 L -12.5,-10 L -5,-10
 L -5,-130 L 5,-130 L 5,-10 L 12.5,-10 L 12.5,-0 L 22.5,-0
 L 22.5,-10 L 37.5,-10 z
M -78,20.6667 L -78,-166 L -48,-206 L -48,-216 L -55.5,-216 L -55.5,-206
 L -70.5,-206 L -70.5,-216 L -80.5,-216 L -80.5,-206 L -105.5,-206 L -105.5,-216
 L -115.5,-216 L -115.5,-206 L -130.5,-206 L -130.5,-216 L -138,-216 L -138,-206
 L -108,-166 L -108,20.6667 L -98,34 L -98,-86 L -88,-86 L -88,34
 z
M 122.721,-3.91547 L 138,-10.718 L 151.53,-20.5484 L 162.721,-32.9772 L 171.084,-47.4611 L 176.252,-63.3671
 L 178,-80 L 176.252,-96.6329 L 171.084,-112.539 L 162.721,-127.023 L 151.53,-139.452 L 138,-149.282
 L 122.721,-156.085 L 106.362,-159.562 L 89.6377,-159.562 L 73.2786,-156.085 L 58,-149.282 L 44.4695,-139.452
 L 33.2786,-127.023 L 24.9164,-112.539 L 19.7482,-96.6329 L 18,-80 L 19.7482,-63.3671 L 24.9164,-47.4611
 L 33.2786,-32.9772 L 44.4695,-20.5484 L 58,-10.718 L 73.2786,-3.91547 L 89.6377,-0.438248 L 106.362,-0.438248
 z
M 93,-117.5 L 93,-125 L 103,-125 L 103,-117.5 z
M 93,-92.5 L 93,-102.5 L 103,-102.5 L 103,-92.5 z
M 110.5,-75 L 110.5,-85 L 120.5,-85 L 120.5,-75 z
M 53,-75 L 53,-85 L 60.5,-85 L 60.5,-75 z
M 135.5,-75 L 135.5,-85 L 143,-85 L 143,-75 z
M 75.5,-75 L 75.5,-85 L 85.5,-85 L 85.5,-75 z
M 93,-57.5 L 93,-67.5 L 103,-67.5 L 103,-57.5 z
M 93,-35 L 93,-42.5 L 103,-42.5 L 103,-35 z
" stroke="black" fill="lightgray" stroke-width="0.5"/></svg>
