<?xml version="1.0" standalone="no"?>
<!DOCTYPE svg PUBLIC "-//W3C//DTD SVG 1.1//EN" "http://www.w3.org/Graphics/SVG/1.1/DTD/svg11.dtd">
<svg width="597mm" height="84mm" viewBox="-7 -77 597 84" xmlns="http://www.w3.org/2000/svg" version="1.1">
<title>OpenSCAD Model</title>
<path d="
M 161.75,-76.25 L 79.25,-76.25 L 79.25,6.25 L 161.75,6.25 z
M 156.9,-70.7778 L 156.05,-72.25 L 156.9,-73.7222 L 158.6,-73.7222 L 159.45,-72.25 L 158.6,-70.7778
 z
M 82.4,-70.7778 L 81.55,-72.25 L 82.4,-73.7222 L 84.1,-73.7222 L 84.95,-72.25 L 84.1,-70.7778
 z
M 85.25,0.25 L 85.25,-70.25 L 155.75,-70.25 L 155.75,0.25 z
M 82.4,3.72223 L 81.55,2.25 L 82.4,0.777756 L 84.1,0.777756 L 84.95,2.25 L 84.1,3.72223
 z
M 156.9,3.72223 L 156.05,2.25 L 156.9,0.777756 L 158.6,0.777756 L 159.45,2.25 L 158.6,3.72223
 z
M 332.75,-76.25 L 297.9,-76.25 L 297.9,-70.25 L 308.875,-70.25 L 308.875,-64 L 311.875,-64
 L 311.875,-70.25 L 326.75,-70.25 L 326.75,-38 L 320.5,-38 L 320.5,-35 L 326.75,-35
 L 326.75,0.25 L 302.75,0.25 L 302.75,-8 L 299.75,-8 L 299.75,0.25 L 283.25,0.25
 L 283.25,-8 L 280.25,-8 L 280.25,0.25 L 256.25,0.25 L 256.25,-35 L 262.5,-35
 L 262.5,-38 L 256.25,-38 L 256.25,-70.25 L 265.625,-70.25 L 265.625,-64 L 268.625,-64
 L 268.625,-70.25 L 285.1,-70.25 L 285.1,-76.25 L 250.25,-76.25 L 250.25,6.25 L 332.75,6.25
 z
M 253.4,-70.7778 L 252.55,-72.25 L 253.4,-73.7222 L 255.1,-73.7222 L 255.95,-72.25 L 255.1,-70.7778
 z
M 327.9,-70.7778 L 327.05,-72.25 L 327.9,-73.7222 L 329.6,-73.7222 L 330.45,-72.25 L 329.6,-70.7778
 z
M 253.4,3.72223 L 252.55,2.25 L 253.4,0.777756 L 255.1,0.777756 L 255.95,2.25 L 255.1,3.72223
 z
M 327.9,3.72223 L 327.05,2.25 L 327.9,0.777756 L 329.6,0.777756 L 330.45,2.25 L 329.6,3.72223
 z
M 418.25,-76.25 L 335.75,-76.25 L 335.75,6.25 L 418.25,6.25 z
M 413.4,-70.7778 L 412.55,-72.25 L 413.4,-73.7222 L 415.1,-73.7222 L 415.95,-72.25 L 415.1,-70.7778
 z
M 338.9,-70.7778 L 338.05,-72.25 L 338.9,-73.7222 L 340.6,-73.7222 L 341.45,-72.25 L 340.6,-70.7778
 z
M 344,-47.375 L 344,-67.375 L 410,-67.375 L 410,-47.375 z
M 350.7,-28.2 L 350.7,-41.8 L 364.3,-41.8 L 364.3,-28.2 z
M 370.2,-28.2 L 370.2,-41.8 L 383.8,-41.8 L 383.8,-28.2 z
M 389.7,-28.2 L 389.7,-41.8 L 403.3,-41.8 L 403.3,-28.2 z
M 389.7,-8.7 L 389.7,-22.3 L 403.3,-22.3 L 403.3,-8.7 z
M 370.2,-8.7 L 370.2,-22.3 L 383.8,-22.3 L 383.8,-8.7 z
M 350.7,-8.7 L 350.7,-22.3 L 364.3,-22.3 L 364.3,-8.7 z
M 338.9,3.72223 L 338.05,2.25 L 338.9,0.777756 L 340.6,0.777756 L 341.45,2.25 L 340.6,3.72223
 z
M 413.4,3.72223 L 412.55,2.25 L 413.4,0.777756 L 415.1,0.777756 L 415.95,2.25 L 415.1,3.72223
 z
M 247.25,-76.25 L 164.75,-76.25 L 164.75,6.25 L 247.25,6.25 z
M 242.4,-70.7778 L 241.55,-72.25 L 242.4,-73.7222 L 244.1,-73.7222 L 244.95,-72.25 L 244.1,-70.7778
 z
M 167.9,-70.7778 L 167.05,-72.25 L 167.9,-73.7222 L 169.6,-73.7222 L 170.45,-72.25 L 169.6,-70.7778
 z
M 170.75,0.25 L 170.75,-35 L 177,-35 L 177,-38 L 170.75,-38 L 170.75,-70.25
 L 180.125,-70.25 L 180.125,-64 L 183.125,-64 L 183.125,-70.25 L 223.375,-70.25 L 223.375,-64
 L 226.375,-64 L 226.375,-70.25 L 241.25,-70.25 L 241.25,-38 L 235,-38 L 235,-35
 L 241.25,-35 L 241.25,0.25 L 217.25,0.25 L 217.25,-8 L 214.25,-8 L 214.25,0.25
 L 197.75,0.25 L 197.75,-8 L 194.75,-8 L 194.75,0.25 z
M 167.9,3.72223 L 167.05,2.25 L 167.9,0.777756 L 169.6,0.777756 L 170.45,2.25 L 169.6,3.72223
 z
M 242.4,3.72223 L 241.55,2.25 L 242.4,0.777756 L 244.1,0.777756 L 244.95,2.25 L 244.1,3.72223
 z
M 76.25,-76.25 L -6.25,-76.25 L -6.25,6.25 L 76.25,6.25 z
M 71.4,-70.7778 L 70.55,-72.25 L 71.4,-73.7222 L 73.1,-73.7222 L 73.95,-72.25 L 73.1,-70.7778
 z
M -3.09999,-70.7778 L -3.95,-72.25 L -3.09999,-73.7222 L -1.39999,-73.7222 L -0.549988,-72.25 L -1.39999,-70.7778
 z
M -3.09999,3.72223 L -3.95,2.25 L -3.09999,0.777756 L -1.39999,0.777756 L -0.549988,2.25 L -1.39999,3.72223
 z
M 71.4,3.72223 L 70.55,2.25 L 71.4,0.777756 L 73.1,0.777756 L 73.95,2.25 L 73.1,3.72223
 z
M 503.75,-76.25 L 421.25,-76.25 L 421.25,-44.75 L 503.75,-44.75 z
M 498.9,-70.7778 L 498.05,-72.25 L 498.9,-73.7222 L 500.6,-73.7222 L 501.45,-72.25 L 500.6,-70.7778
 z
M 424.4,-70.7778 L 423.55,-72.25 L 424.4,-73.7222 L 426.1,-73.7222 L 426.95,-72.25 L 426.1,-70.7778
 z
M 429.5,-47.375 L 429.5,-67.375 L 495.5,-67.375 L 495.5,-47.375 z
M 589.25,-76.25 L 506.75,-76.25 L 506.75,-44.75 L 589.25,-44.75 z
M 509.9,-70.7778 L 509.05,-72.25 L 509.9,-73.7222 L 511.6,-73.7222 L 512.45,-72.25 L 511.6,-70.7778
 z
M 584.4,-70.7778 L 583.55,-72.25 L 584.4,-73.7222 L 586.1,-73.7222 L 586.95,-72.25 L 586.1,-70.7778
 z
M 572.625,-54.1274 L 571.252,-55.5 L 570.75,-57.375 L 571.252,-59.25 L 572.625,-60.6226 L 574.5,-61.125
 L 576.375,-60.6226 L 577.748,-59.25 L 578.25,-57.375 L 577.748,-55.5 L 576.375,-54.1274 L 574.5,-53.625
 z
M 573.35,-50.875 L 573.35,-51.875 L 575.65,-51.875 L 575.65,-50.875 z
" stroke="black" fill="lightgray" stroke-width="0.5"/>
</svg>
