<?xml version="1.0" standalone="no"?>
<!DOCTYPE svg PUBLIC "-//W3C//DTD SVG 1.1//EN" "http://www.w3.org/Graphics/SVG/1.1/DTD/svg11.dtd">
<svg width="249mm" height="68mm" viewBox="-53 -65 249 68" xmlns="http://www.w3.org/2000/svg" version="1.1">
<title>OpenSCAD Model</title>
<path d="
M -4.90201,-6.72299 L -4.90201,-48.898 L -15.151,-64.451 L -24.016,-50.998 L -33.784,-50.998 L -42.652,-64.451
 L -52.901,-48.898 L -52.901,-36.1 L -49.901,-36.1 L -49.901,-47.998 L -42.652,-58.999 L -35.4,-47.998
 L -22.4,-47.998 L -15.151,-58.999 L -7.90201,-47.998 L -7.90201,-7.99799 L -16.2,-0 L -41.6,-0
 L -49.901,-7.99799 L -49.901,-23.3 L -52.901,-23.3 L -52.901,-6.72299 L -42.81,3 L -14.99,3
 z
M 195.098,-6.72299 L 195.098,-48.898 L 184.849,-64.451 L 175.984,-50.998 L 166.216,-50.998 L 157.348,-64.451
 L 147.099,-48.898 L 147.099,-6.72299 L 157.19,3 L 185.01,3 z
M 156.979,-50.8567 L 156.645,-51.0272 L 156.379,-51.2926 L 156.209,-51.6272 L 156.15,-51.998 L 156.209,-52.3688
 L 156.379,-52.7033 L 156.645,-52.9688 L 156.979,-53.1393 L 157.35,-53.198 L 157.721,-53.1393 L 158.055,-52.9688
 L 158.321,-52.7033 L 158.491,-52.3688 L 158.55,-51.998 L 158.491,-51.6272 L 158.321,-51.2926 L 158.055,-51.0272
 L 157.721,-50.8567 L 157.35,-50.798 z
M 184.479,-50.8567 L 184.145,-51.0272 L 183.879,-51.2926 L 183.709,-51.6272 L 183.65,-51.998 L 183.709,-52.3688
 L 183.879,-52.7033 L 184.145,-52.9688 L 184.479,-53.1393 L 184.85,-53.198 L 185.221,-53.1393 L 185.555,-52.9688
 L 185.821,-52.7033 L 185.991,-52.3688 L 186.05,-51.998 L 185.991,-51.6272 L 185.821,-51.2926 L 185.555,-51.0272
 L 185.221,-50.8567 L 184.85,-50.798 z
M 158.4,-0 L 150.099,-7.99799 L 150.099,-9.15099 L 154,-9.15099 L 154,-12.151 L 150.099,-12.151
 L 150.099,-47.998 L 192.098,-47.998 L 192.098,-12.151 L 188.098,-12.151 L 188.098,-9.15099 L 192.098,-9.15099
 L 192.098,-7.99799 L 183.8,-0 z
M 45.098,-6.72299 L 45.098,-48.898 L 34.849,-64.451 L 25.984,-50.998 L 16.216,-50.998 L 7.34799,-64.451
 L -2.90099,-48.898 L -2.90099,-36.1 L 0.098999,-36.1 L 0.098999,-47.998 L 42.098,-47.998 L 42.098,-7.99799
 L 35.3562,-1.5 L 6.84317,-1.5 L 0.098999,-7.99799 L 0.098999,-23.3 L -2.90099,-23.3 L -2.90099,-6.72299
 L 7.18999,3 L 35.01,3 z
M 34.4792,-50.8567 L 34.1447,-51.0272 L 33.8792,-51.2926 L 33.7087,-51.6272 L 33.65,-51.998 L 33.7087,-52.3688
 L 33.8792,-52.7033 L 34.1447,-52.9688 L 34.4792,-53.1393 L 34.85,-53.198 L 35.2208,-53.1393 L 35.5553,-52.9688
 L 35.8208,-52.7033 L 35.9913,-52.3688 L 36.05,-51.998 L 35.9913,-51.6272 L 35.8208,-51.2926 L 35.5553,-51.0272
 L 35.2208,-50.8567 L 34.85,-50.798 z
M 6.97917,-50.8567 L 6.64465,-51.0272 L 6.37917,-51.2926 L 6.20872,-51.6272 L 6.14999,-51.998 L 6.20872,-52.3688
 L 6.37917,-52.7033 L 6.64465,-52.9688 L 6.97917,-53.1393 L 7.34999,-53.198 L 7.72081,-53.1393 L 8.05533,-52.9688
 L 8.32082,-52.7033 L 8.49126,-52.3688 L 8.54999,-51.998 L 8.49126,-51.6272 L 8.32082,-51.2926 L 8.05533,-51.0272
 L 7.72081,-50.8567 L 7.34999,-50.798 z
M 145.098,-6.72299 L 145.098,-48.898 L 134.849,-64.451 L 125.984,-50.998 L 116.216,-50.998 L 107.348,-64.451
 L 97.099,-48.898 L 97.099,-6.72299 L 107.19,3 L 135.01,3 z
M 106.979,-50.8567 L 106.645,-51.0272 L 106.379,-51.2926 L 106.209,-51.6272 L 106.15,-51.998 L 106.209,-52.3688
 L 106.379,-52.7033 L 106.645,-52.9688 L 106.979,-53.1393 L 107.35,-53.198 L 107.721,-53.1393 L 108.055,-52.9688
 L 108.321,-52.7033 L 108.491,-52.3688 L 108.55,-51.998 L 108.491,-51.6272 L 108.321,-51.2926 L 108.055,-51.0272
 L 107.721,-50.8567 L 107.35,-50.798 z
M 134.479,-50.8567 L 134.145,-51.0272 L 133.879,-51.2926 L 133.709,-51.6272 L 133.65,-51.998 L 133.709,-52.3688
 L 133.879,-52.7033 L 134.145,-52.9688 L 134.479,-53.1393 L 134.85,-53.198 L 135.221,-53.1393 L 135.555,-52.9688
 L 135.821,-52.7033 L 135.991,-52.3688 L 136.05,-51.998 L 135.991,-51.6272 L 135.821,-51.2926 L 135.555,-51.0272
 L 135.221,-50.8567 L 134.85,-50.798 z
M 102.589,-12.98 L 102.589,-48.1 L 139.609,-48.1 L 139.609,-12.98 z
M 126.596,-10.1825 L 126.457,-10.2535 L 126.346,-10.3641 L 126.275,-10.5035 L 126.251,-10.658 L 126.275,-10.8125
 L 126.346,-10.9519 L 126.457,-11.0625 L 126.596,-11.1335 L 126.751,-11.158 L 126.905,-11.1335 L 127.044,-11.0625
 L 127.155,-10.9519 L 127.226,-10.8125 L 127.251,-10.658 L 127.226,-10.5035 L 127.155,-10.3641 L 127.044,-10.2535
 L 126.905,-10.1825 L 126.751,-10.158 z
M 105.419,-3.04999 L 105.419,-10.151 L 112.52,-10.151 L 112.52,-3.04999 z
M 132.819,-6.32947 L 132.68,-6.40048 L 132.569,-6.51109 L 132.498,-6.65048 L 132.473,-6.80499 L 132.498,-6.9595
 L 132.569,-7.09889 L 132.68,-7.2095 L 132.819,-7.28052 L 132.973,-7.30499 L 133.128,-7.28052 L 133.267,-7.2095
 L 133.378,-7.09889 L 133.449,-6.9595 L 133.473,-6.80499 L 133.449,-6.65048 L 133.378,-6.51109 L 133.267,-6.40048
 L 133.128,-6.32947 L 132.973,-6.30499 z
M 120.309,-6.32947 L 120.17,-6.40048 L 120.059,-6.51109 L 119.988,-6.65048 L 119.964,-6.80499 L 119.988,-6.9595
 L 120.059,-7.09889 L 120.17,-7.2095 L 120.309,-7.28052 L 120.464,-7.30499 L 120.618,-7.28052 L 120.757,-7.2095
 L 120.868,-7.09889 L 120.939,-6.9595 L 120.964,-6.80499 L 120.939,-6.65048 L 120.868,-6.51109 L 120.757,-6.40048
 L 120.618,-6.32947 L 120.464,-6.30499 z
M 126.596,-2.49947 L 126.457,-2.57048 L 126.346,-2.68111 L 126.275,-2.82048 L 126.251,-2.97499 L 126.275,-3.1295
 L 126.346,-3.26889 L 126.457,-3.3795 L 126.596,-3.45052 L 126.751,-3.47499 L 126.905,-3.45052 L 127.044,-3.3795
 L 127.155,-3.26889 L 127.226,-3.1295 L 127.251,-2.97499 L 127.226,-2.82048 L 127.155,-2.68111 L 127.044,-2.57048
 L 126.905,-2.49947 L 126.751,-2.47499 z
M 95.098,-48.898 L 84.849,-64.451 L 75.984,-50.998 L 66.216,-50.998 L 57.348,-64.451 L 47.099,-48.898
 L 47.099,-12.73 L 95.098,-12.73 z
M 84.4792,-50.8567 L 84.1447,-51.0272 L 83.8792,-51.2926 L 83.7087,-51.6272 L 83.65,-51.998 L 83.7087,-52.3688
 L 83.8792,-52.7033 L 84.1447,-52.9688 L 84.4792,-53.1393 L 84.85,-53.198 L 85.2208,-53.1393 L 85.5553,-52.9688
 L 85.8208,-52.7033 L 85.9913,-52.3688 L 86.05,-51.998 L 85.9913,-51.6272 L 85.8208,-51.2926 L 85.5553,-51.0272
 L 85.2208,-50.8567 L 84.85,-50.798 z
M 56.9792,-50.8567 L 56.6447,-51.0272 L 56.3792,-51.2926 L 56.2087,-51.6272 L 56.15,-51.998 L 56.2087,-52.3688
 L 56.3792,-52.7033 L 56.6447,-52.9688 L 56.9792,-53.1393 L 57.35,-53.198 L 57.7208,-53.1393 L 58.0553,-52.9688
 L 58.3208,-52.7033 L 58.4913,-52.3688 L 58.55,-51.998 L 58.4913,-51.6272 L 58.3208,-51.2926 L 58.0553,-51.0272
 L 57.7208,-50.8567 L 57.35,-50.798 z
" stroke="black" fill="lightgray" stroke-width="0.5"/>
</svg>
