<?xml version="1.0" encoding="UTF-8" standalone="no"?>
<svg
   width="249mm"
   height="68mm"
   viewBox="-53 -65 249 68"
   version="1.1"
   id="svg15123"
   sodipodi:docname="nuggest-case-raw.svg"
   inkscape:version="1.2.1 (9c6d41e410, 2022-07-14)"
   xmlns:inkscape="http://www.inkscape.org/namespaces/inkscape"
   xmlns:sodipodi="http://sodipodi.sourceforge.net/DTD/sodipodi-0.dtd"
   xmlns="http://www.w3.org/2000/svg"
   xmlns:svg="http://www.w3.org/2000/svg">
  <defs
     id="defs15127">
    <inkscape:path-effect
       effect="fillet_chamfer"
       id="path-effect20782"
       is_visible="true"
       lpeversion="1"
       nodesatellites_param="F,0,0,1,0,1.0583333,0,1 @ F,0,0,1,0,1.0583333,0,1 @ F,0,0,1,0,1.0583333,0,1 @ F,0,0,1,0,1.0583333,0,1 @ F,0,0,1,0,1.0583333,0,1 @ F,0,0,1,0,1.0583333,0,1 @ F,0,0,1,0,1.0583333,0,1 @ F,0,0,1,0,1.0583333,0,1 @ F,0,0,1,0,1.0583333,0,1 @ F,0,0,1,0,0,0,1 @ F,0,0,1,0,0,0,1 @ F,0,0,1,0,0,0,1 @ F,0,0,1,0,0,0,1 @ F,0,0,1,0,0,0,1 @ F,0,0,1,0,0,0,1 @ F,0,0,1,0,1.0583333,0,1 @ F,0,0,1,0,1.0583333,0,1 @ F,0,0,1,0,1.0583333,0,1 @ F,0,0,1,0,1.0583333,0,1 @ F,0,0,1,0,1.0583333,0,1"
       unit="px"
       method="auto"
       mode="F"
       radius="4"
       chamfer_steps="1"
       flexible="false"
       use_knot_distance="true"
       apply_no_radius="true"
       apply_with_radius="true"
       only_selected="false"
       hide_knots="false" />
    <inkscape:path-effect
       effect="fillet_chamfer"
       id="path-effect20780"
       is_visible="true"
       lpeversion="1"
       nodesatellites_param="F,0,0,1,0,1.0583333,0,1 @ F,0,0,1,0,1.0583333,0,1 @ F,0,0,1,0,1.0583333,0,1 @ F,0,0,1,0,1.0583333,0,1 @ F,0,0,1,0,1.0583333,0,1 @ F,0,0,1,0,1.0583333,0,1 @ F,0,0,1,0,1.0583333,0,1 @ F,0,0,1,0,1.0583333,0,1 @ F,0,0,1,0,1.0583333,0,1 @ F,0,0,1,0,1.0583333,0,1"
       unit="px"
       method="auto"
       mode="F"
       radius="4"
       chamfer_steps="1"
       flexible="false"
       use_knot_distance="true"
       apply_no_radius="true"
       apply_with_radius="true"
       only_selected="false"
       hide_knots="false" />
    <inkscape:path-effect
       effect="fillet_chamfer"
       id="path-effect20778"
       is_visible="true"
       lpeversion="1"
       nodesatellites_param="F,0,0,1,0,1.0583333,0,1 @ F,0,0,1,0,1.0583333,0,1 @ F,0,0,1,0,1.0583333,0,1 @ F,0,0,1,0,1.0583333,0,1 @ F,0,0,1,0,1.0583333,0,1 @ F,0,0,1,0,1.0583333,0,1 @ F,0,0,1,0,1.0583333,0,1 @ F,0,0,1,0,1.0583333,0,1 @ F,0,0,1,0,1.0583333,0,1 @ F,0,0,1,0,1.0583333,0,1"
       unit="px"
       method="auto"
       mode="F"
       radius="4"
       chamfer_steps="1"
       flexible="false"
       use_knot_distance="true"
       apply_no_radius="true"
       apply_with_radius="true"
       only_selected="false"
       hide_knots="false" />
    <inkscape:path-effect
       effect="fillet_chamfer"
       id="path-effect20776"
       is_visible="true"
       lpeversion="1"
       nodesatellites_param="F,0,0,1,0,1.0583333,0,1 @ F,0,0,1,0,1.0583333,0,1 @ F,0,0,1,0,1.0583333,0,1 @ F,0,0,1,0,1.0583333,0,1 @ F,0,0,1,0,1.0583333,0,1 @ F,0,0,1,0,1.0583333,0,1 @ F,0,0,1,0,1.0583333,0,1 @ F,0,0,1,0,1.0583333,0,1 @ F,0,0,1,0,1.0583333,0,1 @ F,0,0,1,0,1.0583333,0,1 @ F,0,0,1,0,1.0583333,0,1 @ F,0,0,1,0,1.0583333,0,1 @ F,0,0,1,0,1.0583333,0,1 @ F,0,0,1,0,1.0583333,0,1"
       unit="px"
       method="auto"
       mode="F"
       radius="4"
       chamfer_steps="1"
       flexible="false"
       use_knot_distance="true"
       apply_no_radius="true"
       apply_with_radius="true"
       only_selected="false"
       hide_knots="false" />
  </defs>
  <sodipodi:namedview
     id="namedview15125"
     pagecolor="#ffffff"
     bordercolor="#000000"
     borderopacity="0.25"
     inkscape:showpageshadow="2"
     inkscape:pageopacity="0.0"
     inkscape:pagecheckerboard="0"
     inkscape:deskcolor="#d1d1d1"
     inkscape:document-units="mm"
     showgrid="false"
     inkscape:zoom="22.564847"
     inkscape:cx="323.00241"
     inkscape:cy="73.986764"
     inkscape:window-width="2560"
     inkscape:window-height="1403"
     inkscape:window-x="0"
     inkscape:window-y="0"
     inkscape:window-maximized="1"
     inkscape:current-layer="svg15123" />
  <title
     id="title15119">OpenSCAD Model</title>
  <g
     id="g20878">
    <path
       d="m 157.43586,-0.2343097 -7.07472,-6.8163706 a 2.4893218,2.4893218 66.967265 0 1 -0.76214,-1.792643 0.77933567,0.77933567 163.79039 0 1 1.05833,-0.3076667 h 1.88334 a 1.0583333,1.0583333 135 0 0 1.05833,-1.058333 v -0.883344 A 1.0583333,1.0583333 45 0 0 152.54067,-12.151 h -1.88334 a 1.0583333,1.0583333 45 0 1 -1.05833,-1.058333 v -34.230334 a 1.0583333,1.0583333 135 0 1 1.05833,-1.058333 l 40.88234,0 a 1.0583333,1.0583333 45 0 1 1.05833,1.058333 l 0,34.230334 a 1.0583333,1.0583333 135 0 1 -1.05833,1.058333 l -1.88334,0 a 1.0583333,1.0583333 135 0 0 -1.05833,1.058333 v 0.883344 a 1.0583333,1.0583333 45 0 0 1.05833,1.058333 h 1.88334 a 1.0583333,1.0583333 45 0 1 1.05833,1.0583333 1.6501364,1.6501364 126.17508 0 1 -0.76201,1.0421093 l -7.07198,6.81610483 A 2.6231226,2.6231226 158.02774 0 1 182.94367,0.5 h -23.68734 a 2.6237817,2.6237817 21.967265 0 1 -1.82047,-0.7343097 z"
       id="path15254"
       style="fill:none;stroke:#ff0000;stroke-width:0.1;stroke-dasharray:none;stroke-opacity:1"
       inkscape:path-effect="#path-effect20776"
       inkscape:original-d="m 158.198,0.5 -8.599,-8.28499 v -1.366 h 4 V -12.151 h -4 v -36.347 h 42.999 v 36.347 h -4 v 3.00001 h 4 v 1.366 L 184.002,0.5 Z" />
    <path
       d="M 195.098,-7.7813233 V -47.839667 a 3.529423,3.529423 73.308107 0 0 -0.58234,-1.942045 l -9.08432,-13.785576 a 0.69740639,0.69740639 179.99977 0 0 -1.16467,5e-6 l -7.70034,11.685566 a 1.9648529,1.9648529 151.69166 0 1 -1.64066,0.883717 l -7.65134,0 a 1.9652188,1.9652188 28.303888 0 1 -1.6408,-0.883626 l -7.70306,-11.685748 a 0.69752439,0.69752439 179.99578 0 0 -1.16481,8.6e-5 l -9.08432,13.785576 a 3.529423,3.529423 106.69189 0 0 -0.58234,1.942045 v 40.0583437 a 2.4894077,2.4894077 66.967977 0 0 0.76212,1.7926619 l 8.56676,8.2543328 A 2.6236878,2.6236878 21.967977 0 0 158.24833,3 h 25.70334 a 2.6231261,2.6231261 158.02777 0 0 1.82034,-0.7344419 l 8.56398,-8.2541062 a 2.4899214,2.4899214 113.02777 0 0 0.76201,-1.7927752 z"
       id="path15248"
       style="fill:none;stroke:#000000;stroke-width:0.1;stroke-dasharray:none;stroke-opacity:1"
       inkscape:path-effect="#path-effect20778"
       inkscape:original-d="M 195.098,-6.72299 V -48.898 l -10.249,-15.553 -8.865,13.453 h -9.768 l -8.868,-13.453 -10.249,15.553 V -6.72299 L 157.19,3 h 27.82 z" />
    <circle
       style="fill:none;fill-opacity:0;stroke:#00f300;stroke-width:0.1;stroke-linecap:round;stroke-linejoin:round;stroke-dasharray:none;stroke-opacity:1"
       id="path17380-9"
       cx="157.35001"
       cy="-51.998001"
       r="1.2" />
    <circle
       style="fill:none;fill-opacity:0;stroke:#00f300;stroke-width:0.1;stroke-linecap:round;stroke-linejoin:round;stroke-dasharray:none;stroke-opacity:1"
       id="path17380-1"
       cx="184.85001"
       cy="-51.998001"
       r="1.2" />
  </g>
  <g
     id="g20865">
    <g
       id="g17297"
       transform="translate(50.000011)"
       inkscape:label="PCB Engrave">
      <path
         id="path15256-6"
         style="fill:#0000ff;fill-opacity:1;stroke:none;stroke-width:0.1;stroke-dasharray:none;stroke-opacity:1"
         d="m -42.652272,-64.451196 -10.24847,15.553056 10.248986,-15.55254 z m 5.16e-4,4.543392 -7.749255,11.409639 V -48.198 h 15.27 v -0.3 z m 27.500647,0 -7.517902,11.409639 V -48.198 h 15.267 v -0.300165 z M -43.878037,-1.5 l 2.075842,1.99987791 h 25.80411 L -13.923277,-1.5 Z"
         sodipodi:nodetypes="ccccccccccccccccccccc" />
    </g>
    <path
       d="M 45.098,-7.7813233 V -47.839667 a 3.529423,3.529423 73.308107 0 0 -0.582342,-1.942045 l -9.084316,-13.785576 a 0.69740639,0.69740639 179.99977 0 0 -1.164677,5e-6 l -7.70033,11.685566 A 1.9648529,1.9648529 151.69166 0 1 24.925667,-50.998 h -7.651334 a 1.96522,1.96522 28.303873 0 1 -1.640806,-0.883626 L 7.9304627,-63.567374 a 0.6975241,0.6975241 179.99574 0 0 -1.1648139,8.7e-5 l -9.0842976,13.785574 a 3.5294287,3.5294287 106.69187 0 0 -0.5823412,1.942046 v 10.681334 A 1.0583333,1.0583333 45 0 0 -1.8426567,-36.1 h 0.3833374 a 1.0583333,1.0583333 135 0 0 1.0583333,-1.058333 l 0,-11.339667 H 42.598 V -7.78499 L 36.0771,-1.5 H 6.12219 L -0.400986,-7.78499 V -22.241667 A 1.0583333,1.0583333 45 0 0 -1.4593193,-23.3 h -0.3833374 a 1.0583333,1.0583333 135 0 0 -1.0583333,1.058333 v 14.4603437 a 2.4894111,2.4894111 66.968005 0 0 0.7621219,1.7926627 L 6.4278681,2.2656706 A 2.6236841,2.6236841 21.968005 0 0 8.2483233,3 H 33.951667 a 2.6231261,2.6231261 158.02777 0 0 1.820346,-0.7344419 l 8.563974,-8.2541062 A 2.4899214,2.4899214 113.02777 0 0 45.098,-7.7813233 Z"
       id="path15256"
       style="fill:none;stroke:#000000;stroke-width:0.1;stroke-dasharray:none;stroke-opacity:1"
       inkscape:path-effect="#path-effect20782"
       inkscape:original-d="M 45.098,-6.72299 V -48.898 L 34.849,-64.451 25.984,-50.998 H 16.216 L 7.34799,-64.451 -2.90099,-48.898 V -36.1 h 2.500004 V -48.498 H 42.598 V -7.78499 L 36.0771,-1.5 H 6.12219 L -0.400986,-7.78499 V -23.3 H -2.90099 V -6.72299 L 7.18999,3 H 35.01 Z" />
    <circle
       style="fill:none;fill-opacity:0;stroke:#00f300;stroke-width:0.1;stroke-linecap:round;stroke-linejoin:round;stroke-dasharray:none;stroke-opacity:1"
       id="path17380-27"
       cx="34.849998"
       cy="-51.998001"
       r="1.2" />
    <circle
       style="fill:none;fill-opacity:0;stroke:#00f300;stroke-width:0.1;stroke-linecap:round;stroke-linejoin:round;stroke-dasharray:none;stroke-opacity:1"
       id="path17380-0"
       cx="7.3499899"
       cy="-51.998001"
       r="1.2" />
  </g>
  <g
     id="g20872">
    <path
       d="m 145.098,-7.7813233 0,-40.0583437 a 3.529423,3.529423 73.308107 0 0 -0.58234,-1.942045 l -9.08432,-13.785576 a 0.69740639,0.69740639 179.99977 0 0 -1.16467,5e-6 l -7.70034,11.685566 a 1.9648529,1.9648529 151.69166 0 1 -1.64066,0.883717 l -7.65134,0 a 1.9652188,1.9652188 28.303888 0 1 -1.6408,-0.883626 l -7.70306,-11.685748 a 0.69752439,0.69752439 179.99578 0 0 -1.16481,8.6e-5 l -9.084318,13.785576 A 3.529423,3.529423 106.69189 0 0 97.099,-47.839667 v 40.0583437 a 2.4894077,2.4894077 66.967977 0 0 0.762123,1.7926619 l 8.566757,8.2543328 A 2.6236878,2.6236878 21.967977 0 0 108.24833,3 h 25.70334 a 2.6231261,2.6231261 158.02777 0 0 1.82034,-0.7344419 l 8.56398,-8.2541062 a 2.4899214,2.4899214 113.02777 0 0 0.76201,-1.7927752 z"
       id="path15262"
       style="fill:none;stroke:#000000;stroke-width:0.1;stroke-dasharray:none;stroke-opacity:1"
       inkscape:path-effect="#path-effect20780"
       inkscape:original-d="M 145.098,-6.72299 V -48.898 l -10.249,-15.553 -8.865,13.453 h -9.768 l -8.868,-13.453 -10.249,15.553 V -6.72299 L 107.19,3 h 27.82 z" />
    <circle
       style="fill:none;fill-opacity:0;stroke:#00f300;stroke-width:0.1;stroke-linecap:round;stroke-linejoin:round;stroke-dasharray:none;stroke-opacity:1"
       id="path17380"
       cx="107.35"
       cy="-51.998001"
       r="1.2" />
    <circle
       style="fill:none;fill-opacity:0;stroke:#00f300;stroke-width:0.1;stroke-linecap:round;stroke-linejoin:round;stroke-dasharray:none;stroke-opacity:1"
       id="path17380-2"
       cx="134.85001"
       cy="-51.998001"
       r="1.2" />
    <circle
       style="fill:none;fill-opacity:0;stroke:#00f3ff;stroke-width:0.1;stroke-linecap:round;stroke-linejoin:round;stroke-dasharray:none;stroke-opacity:1"
       id="path17697"
       cx="108.9695"
       cy="-6.6004949"
       r="5" />
    <rect
       style="fill:none;fill-opacity:0;stroke:#ff0000;stroke-width:0.1;stroke-linecap:round;stroke-linejoin:round;stroke-dasharray:none;stroke-opacity:1"
       id="rect18644"
       width="37.02"
       height="35.119999"
       x="102.589"
       y="-48.099998"
       rx="0.40000001"
       ry="0.40000001" />
  </g>
</svg>
