<?xml version="1.0" encoding="UTF-8" standalone="no"?>
<svg
   width="219.29137mm"
   height="138.14241mm"
   viewBox="-62 -71 219.29137 138.14241"
   version="1.1"
   id="svg32"
   sodipodi:docname="nuggest-case.svg"
   inkscape:version="1.2.1 (9c6d41e410, 2022-07-14)"
   xml:space="preserve"
   xmlns:inkscape="http://www.inkscape.org/namespaces/inkscape"
   xmlns:sodipodi="http://sodipodi.sourceforge.net/DTD/sodipodi-0.dtd"
   xmlns="http://www.w3.org/2000/svg"
   xmlns:svg="http://www.w3.org/2000/svg"
   xmlns:rdf="http://www.w3.org/1999/02/22-rdf-syntax-ns#"
   xmlns:cc="http://creativecommons.org/ns#"
   xmlns:dc="http://purl.org/dc/elements/1.1/"><defs
     id="defs36"><inkscape:path-effect
       effect="fillet_chamfer"
       id="path-effect6159"
       is_visible="true"
       lpeversion="1"
       nodesatellites_param="F,0,0,1,0,0.52916667,0,1 @ F,0,0,1,0,0.52916667,0,1 @ F,0,0,1,0,0.52916667,0,1 @ F,0,0,1,0,0.52916667,0,1 @ F,0,0,1,0,0.52916667,0,1 @ F,0,0,1,0,0.52916667,0,1 @ F,0,0,1,0,0.52916667,0,1 @ F,0,0,1,0,0.52916667,0,1 @ F,0,0,1,0,0.52916667,0,1 @ F,0,0,1,0,0.52916667,0,1 @ F,0,0,1,0,0.52916667,0,1 @ F,0,0,1,0,0.52916667,0,1"
       unit="px"
       method="auto"
       mode="F"
       radius="2"
       chamfer_steps="1"
       flexible="false"
       use_knot_distance="true"
       apply_no_radius="true"
       apply_with_radius="true"
       only_selected="false"
       hide_knots="false" /><inkscape:path-effect
       effect="fillet_chamfer"
       id="path-effect5707"
       is_visible="true"
       lpeversion="1"
       nodesatellites_param="F,0,0,1,0,0.26458333,0,1 @ F,0,0,1,0,0,0,1 @ F,0,0,1,0,0.26458333,0,1 @ F,0,0,1,0,0.26458333,0,1"
       unit="px"
       method="auto"
       mode="F"
       radius="1"
       chamfer_steps="1"
       flexible="false"
       use_knot_distance="true"
       apply_no_radius="true"
       apply_with_radius="true"
       only_selected="false"
       hide_knots="false" /><inkscape:path-effect
       effect="fillet_chamfer"
       id="path-effect5705"
       is_visible="true"
       lpeversion="1"
       nodesatellites_param="F,0,0,1,0,0.26458333,0,1 @ F,0,0,1,0,0,0,1 @ F,0,0,1,0,0,0,1 @ F,0,0,1,0,0.26458333,0,1"
       unit="px"
       method="auto"
       mode="F"
       radius="1"
       chamfer_steps="1"
       flexible="false"
       use_knot_distance="true"
       apply_no_radius="true"
       apply_with_radius="true"
       only_selected="false"
       hide_knots="false" /><inkscape:path-effect
       effect="fillet_chamfer"
       id="path-effect5703"
       is_visible="true"
       lpeversion="1"
       nodesatellites_param="F,0,0,1,0,1.0583333,0,1 @ F,0,0,1,0,1.0583333,0,1 @ F,0,0,1,0,1.0583333,0,1 @ F,0,0,1,0,1.0583333,0,1 @ F,0,0,1,0,1.0583333,0,1 @ F,0,0,1,0,1.0583333,0,1 @ F,0,0,1,0,1.0583333,0,1 @ F,0,0,1,0,1.0583333,0,1 @ F,0,0,1,0,1.0583333,0,1 @ F,0,0,1,0,1.0583333,0,1"
       unit="px"
       method="auto"
       mode="F"
       radius="4"
       chamfer_steps="1"
       flexible="false"
       use_knot_distance="true"
       apply_no_radius="true"
       apply_with_radius="true"
       only_selected="false"
       hide_knots="false" /><inkscape:path-effect
       effect="fillet_chamfer"
       id="path-effect5701"
       is_visible="true"
       lpeversion="1"
       nodesatellites_param="F,0,0,1,0,1.0583333,0,1 @ F,0,0,1,0,1.0583333,0,1 @ F,0,0,1,0,1.0583333,0,1 @ F,0,0,1,0,1.0583333,0,1 @ F,0,0,1,0,1.0583333,0,1 @ F,0,0,1,0,1.0583333,0,1 @ F,0,0,1,0,1.0583333,0,1 @ F,0,0,1,0,1.0583333,0,1"
       unit="px"
       method="auto"
       mode="F"
       radius="4"
       chamfer_steps="1"
       flexible="false"
       use_knot_distance="true"
       apply_no_radius="true"
       apply_with_radius="true"
       only_selected="false"
       hide_knots="false" /><inkscape:path-effect
       effect="fillet_chamfer"
       id="path-effect5699"
       is_visible="true"
       lpeversion="1"
       nodesatellites_param="F,0,0,1,0,1.0583333,0,1 @ F,0,0,1,0,1.0583333,0,1 @ F,0,0,1,0,1.0583333,0,1 @ F,0,0,1,0,1.0583333,0,1 @ F,0,0,1,0,1.0583333,0,1 @ F,0,0,1,0,1.0583333,0,1 @ F,0,0,1,0,1.0583333,0,1 @ F,0,0,1,0,1.0583333,0,1"
       unit="px"
       method="auto"
       mode="F"
       radius="4"
       chamfer_steps="1"
       flexible="false"
       use_knot_distance="true"
       apply_no_radius="true"
       apply_with_radius="true"
       only_selected="false"
       hide_knots="false" /><inkscape:path-effect
       effect="fillet_chamfer"
       id="path-effect5697"
       is_visible="true"
       lpeversion="1"
       nodesatellites_param="F,0,0,1,0,1.0583333,0,1 @ F,0,0,1,0,1.0583333,0,1 @ F,0,0,1,0,1.0583333,0,1 @ F,0,0,1,0,1.0583333,0,1 @ F,0,0,1,0,1.0583333,0,1 @ F,0,0,1,0,1.0583333,0,1 @ F,0,0,1,0,1.0583333,0,1 @ F,0,0,1,0,1.0583333,0,1 @ F,0,0,1,0,1.0583333,0,1 @ F,0,0,1,0,1.0583333,0,1 @ F,0,0,1,0,1.0583333,0,1 @ F,0,0,1,0,1.0583333,0,1 @ F,0,0,1,0,1.0583333,0,1 @ F,0,0,1,0,1.0583333,0,1 @ F,0,0,1,0,1.0583333,0,1 @ F,0,0,1,0,1.0583333,0,1 @ F,0,0,1,0,1.0583333,0,1 @ F,0,0,1,0,1.0583333,0,1 @ F,0,0,1,0,1.0583333,0,1 @ F,0,0,1,0,1.0583333,0,1"
       unit="px"
       method="auto"
       mode="F"
       radius="4"
       chamfer_steps="1"
       flexible="false"
       use_knot_distance="true"
       apply_no_radius="true"
       apply_with_radius="true"
       only_selected="false"
       hide_knots="false" /><inkscape:path-effect
       effect="fillet_chamfer"
       id="path-effect5695"
       is_visible="true"
       lpeversion="1"
       nodesatellites_param="F,0,0,1,0,1.0583333,0,1 @ F,0,0,1,0,1.0583333,0,1 @ F,0,0,1,0,1.0583333,0,1 @ F,0,0,1,0,1.0583333,0,1 @ F,0,0,1,0,1.0583333,0,1 @ F,0,0,1,0,1.0583333,0,1 @ F,0,0,1,0,1.0583333,0,1 @ F,0,0,1,0,1.0583333,0,1 @ F,0,0,1,0,1.0583333,0,1 @ F,0,0,1,0,1.0583333,0,1 @ F,0,0,1,0,1.0583333,0,1 @ F,0,0,1,0,1.0583333,0,1 @ F,0,0,1,0,1.0583333,0,1 @ F,0,0,1,0,1.0583333,0,1 @ F,0,0,1,0,1.0583333,0,1 @ F,0,0,1,0,1.0583333,0,1 @ F,0,0,1,0,1.0583333,0,1 @ F,0,0,1,0,1.0583333,0,1 @ F,0,0,1,0,1.0583333,0,1 @ F,0,0,1,0,1.0583333,0,1"
       unit="px"
       method="auto"
       mode="F"
       radius="4"
       chamfer_steps="1"
       flexible="false"
       use_knot_distance="true"
       apply_no_radius="true"
       apply_with_radius="true"
       only_selected="false"
       hide_knots="false" /><inkscape:path-effect
       effect="fillet_chamfer"
       id="path-effect5693"
       is_visible="true"
       lpeversion="1"
       nodesatellites_param="F,0,0,1,0,1.3229167,0,1 @ F,0,0,1,0,1.3229167,0,1 @ F,0,0,1,0,1.3229167,0,1 @ F,0,0,1,0,1.3229167,0,1 @ F,0,0,1,0,1.3229167,0,1 @ F,0,0,1,0,1.3229167,0,1 @ F,0,0,1,0,1.3229167,0,1 @ F,0,0,1,0,1.3229167,0,1 @ F,0,0,1,0,1.3229167,0,1 @ F,0,0,1,0,1.3229167,0,1"
       unit="px"
       method="auto"
       mode="F"
       radius="5"
       chamfer_steps="1"
       flexible="false"
       use_knot_distance="true"
       apply_no_radius="true"
       apply_with_radius="true"
       only_selected="false"
       hide_knots="false" /><inkscape:path-effect
       effect="fillet_chamfer"
       id="path-effect5691"
       is_visible="true"
       lpeversion="1"
       nodesatellites_param="F,0,0,1,0,1.0583333,0,1 @ F,0,0,1,0,1.0583333,0,1 @ F,0,0,1,0,1.0583333,0,1 @ F,0,0,1,0,1.0583333,0,1 @ F,0,0,1,0,1.0583333,0,1 @ F,0,0,1,0,1.0583333,0,1 @ F,0,0,1,0,1.0583333,0,1 @ F,0,0,1,0,1.0583333,0,1 @ F,0,0,1,0,1.0583333,0,1 @ F,0,0,1,0,0,0,1 @ F,0,0,1,0,0,0,1 @ F,0,0,1,0,0,0,1 @ F,0,0,1,0,0,0,1 @ F,0,0,1,0,0,0,1 @ F,0,0,1,0,0,0,1 @ F,0,0,1,0,1.0583333,0,1 @ F,0,0,1,0,1.0583333,0,1 @ F,0,0,1,0,1.0583333,0,1 @ F,0,0,1,0,1.0583333,0,1 @ F,0,0,1,0,1.0583333,0,1"
       unit="px"
       method="auto"
       mode="F"
       radius="4"
       chamfer_steps="1"
       flexible="false"
       use_knot_distance="true"
       apply_no_radius="true"
       apply_with_radius="true"
       only_selected="false"
       hide_knots="false" /></defs><sodipodi:namedview
     id="namedview34"
     pagecolor="#ffffff"
     bordercolor="#000000"
     borderopacity="0.25"
     inkscape:showpageshadow="2"
     inkscape:pageopacity="0.0"
     inkscape:pagecheckerboard="0"
     inkscape:deskcolor="#d1d1d1"
     inkscape:document-units="mm"
     showgrid="false"
     inkscape:zoom="1.5210393"
     inkscape:cx="575.5933"
     inkscape:cy="333.65345"
     inkscape:window-width="3840"
     inkscape:window-height="2075"
     inkscape:window-x="0"
     inkscape:window-y="0"
     inkscape:window-maximized="1"
     inkscape:current-layer="g6126" /><title
     id="title28">OpenSCAD Model</title><g
     id="g5935"
     transform="translate(-392.128,61.127961)"><path
       style="fill:none;stroke:#000000;stroke-width:0.1;stroke-dasharray:none;stroke-opacity:1"
       d="M 383.822,-7.5809167 V -49.017083 a 4.4104899,4.4104899 73.3035 0 0 -0.72811,-2.42744 l -11.61578,-17.620954 a 0.87231739,0.87231739 0.00743937 0 0 -1.4565,-1.89e-4 l -8.93022,13.539332 a 2.4573277,2.4573277 151.70394 0 1 -2.05131,1.104334 l -4.08016,0 a 2.4573277,2.4573277 28.296061 0 1 -2.05131,-1.104334 l -8.93022,-13.539332 a 0.87231739,0.87231739 179.99256 0 0 -1.4565,1.89e-4 l -11.61578,17.620954 a 4.4104899,4.4104899 106.6965 0 0 -0.72811,2.42744 v 41.4361663 a 3.2770651,3.2770651 68.016589 0 0 0.91842,2.2750753 l 9.81516,10.1756728 a 3.1140893,3.1140893 23.016589 0 0 2.24134,0.9521586 h 27.69416 a 3.1140893,3.1140893 156.98341 0 0 2.24134,-0.9521586 l 9.81516,-10.1756728 a 3.2770651,3.2770651 111.98341 0 0 0.91842,-2.2750753 z"
       id="path321"
       inkscape:path-effect="#path-effect5693"
       inkscape:original-d="M 383.822,-6.258 V -50.34 l -13.072,-19.83 -10.387,15.748 h -6.726 L 343.25,-70.17 330.178,-50.34 V -6.258 L 341.83,5.82199 h 30.34 z" /><g
       id="g4943"
       transform="translate(0,0.27585704)"><g
         aria-label="5V"
         transform="scale(-1,1)"
         id="text3499"
         style="font-weight:bold;font-size:2.82222px;-inkscape-font-specification:'sans-serif Bold';fill:#0000ff;stroke-width:0.1;stroke-linecap:round;stroke-linejoin:round"><path
           d="m -373.25218,-47.563574 q 0.18344,0 0.32738,0.07056 0.14393,0.07056 0.22577,0.206022 0.0847,0.135467 0.0847,0.335845 0,0.217311 -0.0903,0.375355 -0.0903,0.158044 -0.27093,0.242711 -0.1778,0.08467 -0.44309,0.08467 -0.15805,0 -0.29916,-0.02822 -0.13829,-0.02822 -0.24271,-0.08184 v -0.366889 q 0.10442,0.05362 0.25118,0.09313 0.14676,0.03669 0.27658,0.03669 0.127,0 0.21166,-0.03387 0.0875,-0.03387 0.13265,-0.104422 0.0451,-0.07056 0.0451,-0.180623 0,-0.149577 -0.0988,-0.225777 -0.0988,-0.07902 -0.3048,-0.07902 -0.079,0 -0.16369,0.01693 -0.0847,0.01411 -0.14111,0.02822 l -0.16934,-0.09031 0.0762,-1.027288 h 1.0922 v 0.361244 h -0.71966 l -0.0367,0.395111 q 0.048,-0.0085 0.1016,-0.01693 0.0564,-0.01129 0.15522,-0.01129 z"
           id="path6187" /><path
           d="m -370.65009,-48.291707 -0.6858,2.015065 h -0.46567 l -0.68298,-2.015065 h 0.4318 l 0.37818,1.199444 q 0.0113,0.03104 0.031,0.115711 0.0226,0.08184 0.0451,0.174977 0.0226,0.09031 0.031,0.1524 0.008,-0.06209 0.0282,-0.1524 0.0226,-0.09313 0.0451,-0.174977 0.0226,-0.08467 0.031,-0.115711 l 0.381,-1.199444 z"
           id="path6189" /></g><g
         aria-label="DIN"
         transform="scale(-1,1)"
         id="text4125"
         style="font-weight:bold;font-size:2.82222px;-inkscape-font-specification:'sans-serif Bold';fill:#0000ff;stroke-width:0.1;stroke-linecap:round;stroke-linejoin:round"><path
           d="m -372.28981,-44.701345 q 0,0.338666 -0.12983,0.567266 -0.12982,0.2286 -0.37817,0.344311 -0.24554,0.115711 -0.59267,0.115711 h -0.57009 v -2.015065 h 0.63218 q 0.31609,0 0.54751,0.112889 0.23424,0.112888 0.36124,0.333022 0.12983,0.217311 0.12983,0.541866 z m -0.44309,0.01129 q 0,-0.222956 -0.0649,-0.366889 -0.0649,-0.143933 -0.19474,-0.211666 -0.127,-0.07056 -0.31326,-0.07056 h -0.2286 v 1.312332 h 0.18344 q 0.31327,0 0.46567,-0.166511 0.1524,-0.16651 0.1524,-0.49671 z"
           id="path6192" /><path
           d="m -371.11859,-43.674057 h -0.91723 v -0.242711 l 0.24554,-0.112889 v -1.303865 l -0.24554,-0.112889 v -0.242711 h 0.91723 v 0.242711 l -0.24554,0.112889 v 1.303865 l 0.24554,0.112889 z"
           id="path6194" /><path
           d="m -368.98782,-43.674057 h -0.54186 l -0.87771,-1.523999 h -0.0113 q 0.006,0.09596 0.008,0.191911 0.006,0.09596 0.008,0.191911 0.006,0.09596 0.008,0.191911 v 0.948266 h -0.381 v -2.015065 h 0.53904 l 0.87489,1.509888 h 0.008 q -0.003,-0.09313 -0.006,-0.186267 -0.003,-0.09313 -0.008,-0.183444 -0.003,-0.09313 -0.006,-0.186267 v -0.95391 h 0.38382 z"
           id="path6196" /></g><g
         aria-label="GND"
         transform="scale(-1,1)"
         id="text4179"
         style="font-weight:bold;font-size:2.82222px;-inkscape-font-specification:'sans-serif Bold';fill:#0000ff;stroke-width:0.1;stroke-linecap:round;stroke-linejoin:round"><path
           d="m -373.10545,-42.203179 h 0.79869 v 1.044222 q -0.15804,0.05362 -0.3302,0.08467 -0.16933,0.03104 -0.38664,0.03104 -0.29916,0 -0.51082,-0.118533 -0.20885,-0.118534 -0.31891,-0.349956 -0.10725,-0.231422 -0.10725,-0.570088 0,-0.316089 0.12136,-0.547511 0.12417,-0.231422 0.35842,-0.358422 0.23424,-0.127 0.57291,-0.127 0.16087,0 0.31609,0.03387 0.15522,0.03387 0.28222,0.09031 l -0.14111,0.341489 q -0.0931,-0.04798 -0.21167,-0.07902 -0.11853,-0.03104 -0.24835,-0.03104 -0.18627,0 -0.32456,0.08467 -0.13546,0.08467 -0.21166,0.239888 -0.0734,0.1524 -0.0734,0.361245 0,0.197555 0.0536,0.349955 0.0536,0.1524 0.16933,0.239889 0.11571,0.08467 0.30198,0.08467 0.0903,0 0.1524,-0.0085 0.0649,-0.0085 0.11853,-0.01975 v -0.420511 h -0.381 z"
           id="path6199" /><path
           d="m -370.04051,-41.071468 h -0.54187 l -0.87771,-1.523999 h -0.0113 q 0.006,0.09595 0.008,0.191911 0.006,0.09596 0.008,0.191911 0.006,0.09595 0.008,0.191911 v 0.948266 h -0.381 v -2.015065 h 0.53905 l 0.87488,1.509887 h 0.008 q -0.003,-0.09313 -0.006,-0.186266 -0.003,-0.09313 -0.008,-0.183445 -0.003,-0.09313 -0.006,-0.186266 v -0.95391 h 0.38382 z"
           id="path6201" /><path
           d="m -367.86176,-42.098756 q 0,0.338666 -0.12982,0.567266 -0.12982,0.2286 -0.37818,0.344311 -0.24553,0.115711 -0.59267,0.115711 h -0.57008 v -2.015065 h 0.63217 q 0.31609,0 0.54751,0.112888 0.23425,0.112889 0.36125,0.333022 0.12982,0.217311 0.12982,0.541867 z m -0.44309,0.01129 q 0,-0.222955 -0.0649,-0.366888 -0.0649,-0.143933 -0.19473,-0.211667 -0.127,-0.07055 -0.31327,-0.07055 h -0.2286 v 1.312332 h 0.18345 q 0.31326,0 0.46566,-0.166511 0.1524,-0.166511 0.1524,-0.496711 z"
           id="path6203" /></g><g
         aria-label="3V3"
         transform="scale(-1,1)"
         id="text4183"
         style="font-weight:bold;font-size:2.82222px;-inkscape-font-specification:'sans-serif Bold';fill:#0000ff;stroke-width:0.1;stroke-linecap:round;stroke-linejoin:round"><path
           d="m -372.62566,-40.004172 q 0,0.138288 -0.0593,0.239888 -0.0565,0.1016 -0.15522,0.166511 -0.096,0.06491 -0.22014,0.09596 v 0.0085 q 0.24271,0.02822 0.36689,0.146755 0.127,0.118533 0.127,0.318911 0,0.174977 -0.0875,0.316088 -0.0847,0.138289 -0.26529,0.220134 -0.1778,0.07902 -0.46002,0.07902 -0.16651,0 -0.31044,-0.02822 -0.14394,-0.02822 -0.27094,-0.08184 v -0.361244 q 0.12983,0.06491 0.27094,0.09878 0.14393,0.03387 0.26529,0.03387 0.2286,0 0.31891,-0.07902 0.0931,-0.07902 0.0931,-0.222955 0,-0.08467 -0.0423,-0.141111 -0.0423,-0.05927 -0.14958,-0.08749 -0.10442,-0.03104 -0.29351,-0.03104 h -0.1524 v -0.327378 h 0.15522 q 0.18627,0 0.28222,-0.03387 0.0988,-0.03669 0.13265,-0.09596 0.0367,-0.06209 0.0367,-0.141111 0,-0.107244 -0.0677,-0.166511 -0.0649,-0.06209 -0.22013,-0.06209 -0.096,0 -0.17498,0.0254 -0.079,0.02258 -0.14393,0.05644 -0.0621,0.03387 -0.11007,0.06491 l -0.19755,-0.293511 q 0.11853,-0.08467 0.27657,-0.141111 0.16087,-0.05645 0.381,-0.05645 0.31045,0 0.49107,0.127 0.18344,0.124178 0.18344,0.352778 z"
           id="path6206" /><path
           d="m -370.61906,-40.455728 -0.6858,2.015066 h -0.46566 l -0.68298,-2.015066 h 0.4318 l 0.37818,1.199444 q 0.0113,0.03104 0.031,0.115711 0.0226,0.08184 0.0452,0.174978 0.0226,0.09031 0.031,0.1524 0.008,-0.06209 0.0282,-0.1524 0.0226,-0.09313 0.0452,-0.174978 0.0226,-0.08467 0.031,-0.115711 l 0.381,-1.199444 z"
           id="path6208" /><path
           d="m -369.1769,-40.004172 q 0,0.138288 -0.0593,0.239888 -0.0564,0.1016 -0.15522,0.166511 -0.096,0.06491 -0.22013,0.09596 v 0.0085 q 0.24271,0.02822 0.36688,0.146755 0.127,0.118533 0.127,0.318911 0,0.174977 -0.0875,0.316088 -0.0847,0.138289 -0.26529,0.220134 -0.1778,0.07902 -0.46003,0.07902 -0.16651,0 -0.31044,-0.02822 -0.14393,-0.02822 -0.27093,-0.08184 v -0.361244 q 0.12982,0.06491 0.27093,0.09878 0.14393,0.03387 0.26529,0.03387 0.2286,0 0.31891,-0.07902 0.0931,-0.07902 0.0931,-0.222955 0,-0.08467 -0.0423,-0.141111 -0.0423,-0.05927 -0.14958,-0.08749 -0.10442,-0.03104 -0.29351,-0.03104 h -0.1524 v -0.327378 h 0.15522 q 0.18627,0 0.28223,-0.03387 0.0988,-0.03669 0.13264,-0.09596 0.0367,-0.06209 0.0367,-0.141111 0,-0.107244 -0.0677,-0.166511 -0.0649,-0.06209 -0.22014,-0.06209 -0.096,0 -0.17497,0.0254 -0.079,0.02258 -0.14394,0.05644 -0.0621,0.03387 -0.11006,0.06491 l -0.19756,-0.293511 q 0.11853,-0.08467 0.27658,-0.141111 0.16086,-0.05645 0.381,-0.05645 0.31044,0 0.49106,0.127 0.18345,0.124178 0.18345,0.352778 z"
           id="path6210" /></g><g
         aria-label="GND"
         transform="scale(-1,1)"
         id="text4187"
         style="font-weight:bold;font-size:2.82222px;-inkscape-font-specification:'sans-serif Bold';fill:#0000ff;stroke-width:0.1;stroke-linecap:round;stroke-linejoin:round"><path
           d="m -373.10545,-36.941563 h 0.79869 v 1.044222 q -0.15804,0.05362 -0.3302,0.08467 -0.16933,0.03104 -0.38664,0.03104 -0.29916,0 -0.51082,-0.118534 -0.20885,-0.118533 -0.31891,-0.349955 -0.10725,-0.231422 -0.10725,-0.570088 0,-0.316089 0.12136,-0.547511 0.12417,-0.231422 0.35842,-0.358422 0.23424,-0.127 0.57291,-0.127 0.16087,0 0.31609,0.03387 0.15522,0.03387 0.28222,0.09031 l -0.14111,0.341488 q -0.0931,-0.04798 -0.21167,-0.07902 -0.11853,-0.03104 -0.24835,-0.03104 -0.18627,0 -0.32456,0.08467 -0.13546,0.08467 -0.21166,0.239889 -0.0734,0.1524 -0.0734,0.361244 0,0.197556 0.0536,0.349956 0.0536,0.152399 0.16933,0.239888 0.11571,0.08467 0.30198,0.08467 0.0903,0 0.1524,-0.0085 0.0649,-0.0085 0.11853,-0.01976 v -0.420511 h -0.381 z"
           id="path6213" /><path
           d="m -370.04051,-35.809853 h -0.54187 l -0.87771,-1.523998 h -0.0113 q 0.006,0.09596 0.008,0.191911 0.006,0.09595 0.008,0.19191 0.006,0.09596 0.008,0.191911 v 0.948266 h -0.381 v -2.015065 h 0.53905 l 0.87488,1.509888 h 0.008 q -0.003,-0.09313 -0.006,-0.186267 -0.003,-0.09313 -0.008,-0.183444 -0.003,-0.09313 -0.006,-0.186266 v -0.953911 h 0.38382 z"
           id="path6215" /><path
           d="m -367.86176,-36.837141 q 0,0.338667 -0.12982,0.567267 -0.12982,0.228599 -0.37818,0.34431 -0.24553,0.115711 -0.59267,0.115711 h -0.57008 v -2.015065 h 0.63217 q 0.31609,0 0.54751,0.112889 0.23425,0.112889 0.36125,0.333022 0.12982,0.217311 0.12982,0.541866 z m -0.44309,0.01129 q 0,-0.222955 -0.0649,-0.366888 -0.0649,-0.143934 -0.19473,-0.211667 -0.127,-0.07055 -0.31327,-0.07055 h -0.2286 v 1.312332 h 0.18345 q 0.31326,0 0.46566,-0.166511 0.1524,-0.166511 0.1524,-0.496711 z"
           id="path6217" /></g><g
         aria-label="D4"
         transform="scale(-1,1)"
         id="text4191"
         style="font-weight:bold;font-size:2.82222px;-inkscape-font-specification:'sans-serif Bold';fill:#0000ff;stroke-width:0.1;stroke-linecap:round;stroke-linejoin:round"><path
           d="m -372.28981,-34.234556 q 0,0.338667 -0.12983,0.567266 -0.12982,0.2286 -0.37817,0.344311 -0.24554,0.115711 -0.59267,0.115711 h -0.57009 v -2.015065 h 0.63218 q 0.31609,0 0.54751,0.112889 0.23424,0.112889 0.36124,0.333022 0.12983,0.217311 0.12983,0.541866 z m -0.44309,0.01129 q 0,-0.222955 -0.0649,-0.366889 -0.0649,-0.143933 -0.19474,-0.211666 -0.127,-0.07056 -0.31326,-0.07056 h -0.2286 v 1.312333 h 0.18344 q 0.31327,0 0.46567,-0.166511 0.1524,-0.166511 0.1524,-0.496711 z"
           id="path6220" /><path
           d="m -370.55979,-33.624956 h -0.24272 v 0.417688 h -0.41486 v -0.417688 h -0.86078 v -0.296333 l 0.88336,-1.301044 h 0.39228 v 1.267177 h 0.24272 z m -0.65758,-0.671689 q 0,-0.04798 0,-0.112889 0.003,-0.06773 0.006,-0.132644 0.003,-0.06773 0.006,-0.118533 0.003,-0.05362 0.006,-0.07338 h -0.0113 q -0.0254,0.05644 -0.0536,0.110067 -0.0282,0.05362 -0.0677,0.110066 l -0.36971,0.5588 h 0.48542 z"
           id="path6222" /></g><g
         aria-label="D0"
         transform="scale(-1,1)"
         id="text4195"
         style="font-weight:bold;font-size:2.82222px;-inkscape-font-specification:'sans-serif Bold';fill:#0000ff;stroke-width:0.1;stroke-linecap:round;stroke-linejoin:round"><path
           d="m -372.28981,-31.629148 q 0,0.338666 -0.12983,0.567266 -0.12982,0.2286 -0.37817,0.344311 -0.24554,0.115711 -0.59267,0.115711 h -0.57009 v -2.015065 h 0.63218 q 0.31609,0 0.54751,0.112889 0.23424,0.112888 0.36124,0.333022 0.12983,0.217311 0.12983,0.541866 z m -0.44309,0.01129 q 0,-0.222956 -0.0649,-0.366889 -0.0649,-0.143933 -0.19474,-0.211666 -0.127,-0.07056 -0.31326,-0.07056 h -0.2286 v 1.312332 h 0.18344 q 0.31327,0 0.46567,-0.166511 0.1524,-0.166511 0.1524,-0.49671 z"
           id="path6225" /><path
           d="m -370.61624,-31.609393 q 0,0.242711 -0.0395,0.434622 -0.0367,0.191911 -0.12136,0.327378 -0.0818,0.132644 -0.21731,0.2032 -0.13264,0.07056 -0.32737,0.07056 -0.24271,0 -0.39794,-0.124178 -0.15522,-0.124177 -0.23142,-0.355599 -0.0734,-0.231422 -0.0734,-0.555978 0,-0.327377 0.0677,-0.558799 0.0677,-0.231422 0.22295,-0.3556 0.15522,-0.124178 0.41205,-0.124178 0.24271,0 0.39793,0.124178 0.15522,0.121356 0.23142,0.3556 0.0762,0.231422 0.0762,0.558799 z m -0.98495,0 q 0,0.2286 0.0254,0.383822 0.0254,0.1524 0.0847,0.231422 0.0621,0.0762 0.16934,0.0762 0.10724,0 0.16651,-0.0762 0.0621,-0.0762 0.0875,-0.228599 0.0282,-0.155223 0.0282,-0.386645 0,-0.231422 -0.0282,-0.383822 -0.0254,-0.155222 -0.0875,-0.231422 -0.0593,-0.07902 -0.16651,-0.07902 -0.10725,0 -0.16934,0.07902 -0.0593,0.0762 -0.0847,0.231422 -0.0254,0.1524 -0.0254,0.383822 z"
           id="path6227" /></g><g
         aria-label="A0"
         transform="scale(-1,1)"
         id="text4199"
         style="font-size:2.82222px;fill:#0000ff;stroke-width:0.1;stroke-linecap:round;stroke-linejoin:round"><path
           d="m -372.47326,-27.968229 -0.14676,-0.479778 h -0.73377 l -0.14676,0.479778 h -0.46002 l 0.7112,-2.023532 h 0.52211 l 0.71402,2.023532 z m -0.39511,-1.306688 q -0.0141,-0.04798 -0.0367,-0.121356 -0.0226,-0.07338 -0.0452,-0.149577 -0.0226,-0.0762 -0.0367,-0.132645 -0.0141,0.05645 -0.0395,0.141111 -0.0226,0.08184 -0.0452,0.158045 -0.0198,0.07338 -0.031,0.104422 l -0.14393,0.468488 h 0.52493 z"
           style="font-weight:bold;-inkscape-font-specification:'sans-serif Bold'"
           id="path6230" /><path
           d="m -370.50335,-28.975762 q 0,0.242711 -0.0395,0.434622 -0.0367,0.191911 -0.12136,0.327378 -0.0818,0.132644 -0.21731,0.203199 -0.13264,0.07056 -0.32738,0.07056 -0.24271,0 -0.39793,-0.124178 -0.15522,-0.124177 -0.23142,-0.3556 -0.0734,-0.231422 -0.0734,-0.555977 0,-0.327377 0.0677,-0.558799 0.0677,-0.231422 0.22295,-0.3556 0.15522,-0.124178 0.41204,-0.124178 0.24272,0 0.39794,0.124178 0.15522,0.121355 0.23142,0.3556 0.0762,0.231422 0.0762,0.558799 z m -0.98496,0 q 0,0.2286 0.0254,0.383822 0.0254,0.1524 0.0847,0.231422 0.0621,0.0762 0.16933,0.0762 0.10725,0 0.16652,-0.0762 0.0621,-0.0762 0.0875,-0.2286 0.0282,-0.155222 0.0282,-0.386644 0,-0.231422 -0.0282,-0.383822 -0.0254,-0.155222 -0.0875,-0.231422 -0.0593,-0.07902 -0.16652,-0.07902 -0.10724,0 -0.16933,0.07902 -0.0593,0.0762 -0.0847,0.231422 -0.0254,0.1524 -0.0254,0.383822 z"
           style="font-weight:bold;-inkscape-font-specification:'sans-serif Bold'"
           id="path6232" /></g></g><ellipse
       style="fill:none;fill-opacity:1;stroke:#00f100;stroke-width:0.0999999;stroke-linecap:round;stroke-linejoin:round;stroke-dasharray:none;stroke-opacity:1"
       id="path3193-31"
       cx="336.39999"
       cy="-4.199995"
       rx="1.65"
       ry="1.6500001" /><ellipse
       style="fill:none;fill-opacity:1;stroke:#00f100;stroke-width:0.0999999;stroke-linecap:round;stroke-linejoin:round;stroke-dasharray:none;stroke-opacity:1"
       id="path3193-94"
       cx="380.79999"
       cy="-22"
       rx="1.65"
       ry="1.6500001" /><rect
       style="fill:none;fill-opacity:1;stroke:#00ffff;stroke-width:0.0999999;stroke-linecap:round;stroke-linejoin:round;stroke-dasharray:none;stroke-opacity:1"
       id="rect5086-8"
       width="21.32"
       height="5.8000002"
       x="343.5"
       y="-22.1"
       ry="0.40000001" /><rect
       style="fill:none;fill-opacity:1;stroke:#00ffff;stroke-width:0.0999999;stroke-linecap:round;stroke-linejoin:round;stroke-dasharray:none;stroke-opacity:1"
       id="rect5086"
       width="21.32"
       height="5.8000002"
       x="343.5"
       y="-42.700001"
       ry="0.40000001" /><rect
       style="fill:none;fill-opacity:1;stroke:#00ffff;stroke-width:0.1;stroke-linecap:round;stroke-linejoin:round;stroke-dasharray:none;stroke-opacity:1"
       id="rect5377"
       width="3.3999999"
       height="21.32"
       x="374.89999"
       y="-48.5"
       ry="0.43154556" /><circle
       style="fill:none;fill-opacity:1;stroke:#00f100;stroke-width:0.0999996;stroke-linecap:round;stroke-linejoin:round;stroke-dasharray:none;stroke-opacity:1"
       id="path1815-62"
       cx="370.87991"
       cy="-53.200001"
       r="1.35" /><ellipse
       style="fill:none;fill-opacity:1;stroke:#00f100;stroke-width:0.0999999;stroke-linecap:round;stroke-linejoin:round;stroke-dasharray:none;stroke-opacity:1"
       id="path3193-78"
       cx="357"
       cy="-51.399948"
       rx="1.65"
       ry="1.6500001" /><circle
       style="fill:none;fill-opacity:1;stroke:#00f100;stroke-width:0.0999996;stroke-linecap:round;stroke-linejoin:round;stroke-dasharray:none;stroke-opacity:1"
       id="path1815-60"
       cx="343.37991"
       cy="-53.200001"
       r="1.35" /><g
       style="fill:none;stroke-width:21.4842"
       id="g317"
       transform="matrix(0.01231528,0,0,0.01231528,350.69458,-8.2813172)"><path
         id="path281"
         style="fill:#ff8900;fill-opacity:1;stroke-width:54.7323"
         d="m 337.08484,167.09305 c -40.89222,4.81616 -81.92417,26.42166 -123.99544,80.27183 -10.29456,13.17683 -18.06684,28.86953 -26.85519,43.59772 11.68549,5.47201 24.38696,8.7699 38.52041,8.7699 20.7359,0 38.30336,-5.19967 52.70331,-15.56762 v -67.97719 h 20.43512 v 76.91494 c -9.40795,8.25595 -20.53719,14.59248 -33.40114,19.00843 -12.86395,4.416 -26.41057,6.62988 -40.61847,6.62988 -17.66998,0 -33.51512,-3.999 -48.08758,-10.78404 -17.86539,33.17443 -33.44942,68.16607 -44.35302,105.44858 h 15.81939 L 277.1642,576.97036 V 413.40548 h 21.02258 V 614.98724 H 280.60502 L 150.98678,451.42235 V 614.98724 H 129.67047 V 419.15417 C 99.366595,526.74375 99.21766,642.57453 127.86614,727.77903 v -16.36488 h 82.07617 c 21.31198,0 40.11787,4.32603 56.43785,12.96602 16.31999,8.44799 28.99289,20.34902 38.01688,35.70901 9.02399,15.16798 13.55348,32.53187 13.55348,52.11585 0,14.84695 -3.45755,28.07334 -8.64402,40.49259 52.32067,0.17565 99.83941,-8.18141 139.18541,-28.28187 v -113.0016 h 138.26226 v 11.11973 c 26.98931,-23.18797 52.06518,-43.64922 77.04082,-55.43079 90.03728,-42.47268 121.52959,-48.96008 186.05611,-134.90536 64.52644,-85.94536 84.06489,-168.88882 55.05313,-249.83718 -3.79254,-10.58195 -9.3375,-19.73244 -13.97309,-29.66659 -2.89739,18.0854 -9.53597,32.67125 -20.14139,43.55576 -14.39994,14.97594 -34.68991,22.49122 -60.80182,22.49122 -26.11194,0 -46.46163,-7.51528 -61.0536,-22.49122 -14.59194,-14.97597 -21.8618,-36.76769 -21.8618,-65.3756 v -46.91266 c -20.10791,4.65377 -37.99316,6.64175 -63.27754,17.45587 -33.40031,14.28535 -65.32955,14.82719 -96.72064,11.3715 l 47.626,104.2317 H 592.25109 L 568.03946,263.14231 H 455.70924 l -24.16967,53.87822 h -22.19749 l 57.44493,-125.67389 c -29.71923,-9.56908 -59.6445,-20.72193 -88.83193,-24.04379 -13.63754,-1.55209 -27.2395,-1.81519 -40.87024,-0.2098 z m 429.89282,5.83261 c -5.0557,0.36785 -13.14744,4.29983 -18.58882,5.11927 v 51.98996 c 0,23.42394 5.25941,40.88961 15.81938,52.40958 10.55997,11.51997 25.81177,17.28803 45.77971,17.28803 20.15994,0 35.51346,-5.76806 46.07343,-17.28803 10.55997,-11.51997 15.86134,-28.98564 15.86134,-52.40958 V 219.71243 C 849.86436,189.92814 819.01804,169.13918 766.97766,172.92566 Z m -281.39202,23.54025 -22.07161,49.38837 h 96.7626 L 543.86979,209.1382 c -19.76286,-3.87158 -39.0335,-6.5898 -58.28415,-12.67229 z m -55.13706,216.93957 h 163.01939 v 18.42098 H 522.63741 V 614.98724 H 501.3211 V 431.82646 H 430.44858 Z M 149.18244,729.83513 v 45.48598 c 21.59024,37.3114 50.50852,64.80362 88.91585,73.68392 18.25769,4.22134 32.66532,1.31908 49.34641,2.55963 6.05767,-11.66687 9.48324,-24.66392 9.48324,-39.35963 0,-16.12799 -3.65589,-30.34463 -10.95188,-42.63261 -7.29599,-12.47999 -17.55156,-22.16714 -30.79954,-29.07914 -13.24799,-7.10399 -28.70318,-10.65815 -46.36717,-10.65815 z m 320.62578,0 v 71.71175 h 16.86841 c 33.85722,-22.40371 63.43921,-47.83035 91.05588,-71.71175 z" /><path
         d="M 909.901,711.4 820.621,913 h -21.024 l -89.28,-201.6 h 23.04 l 77.184,175.104 77.76,-175.104 z"
         fill="#373150"
         id="path283"
         style="fill:#0000ff;fill-opacity:1;stroke-width:54.7323" /><path
         d="M 591.064,894.568 V 913 H 448.504 V 711.4 h 138.24 v 18.432 H 469.816 v 71.712 h 104.256 v 18.144 H 469.816 v 74.88 z"
         fill="#373150"
         id="path285"
         style="fill:#0000ff;fill-opacity:1;stroke-width:54.7323" /><path
         d="m 127.863,711.4 h 82.08 c 21.312,0 40.128,4.32 56.448,12.96 16.32,8.448 28.992,20.352 38.016,35.712 9.024,15.168 13.536,32.544 13.536,52.128 0,19.584 -4.512,37.056 -13.536,52.416 -9.024,15.168 -21.696,27.072 -38.016,35.712 C 250.071,908.776 231.255,913 209.943,913 h -82.08 z m 80.928,183.168 c 17.664,0 33.12,-3.456 46.368,-10.368 13.248,-7.104 23.52,-16.8 30.816,-29.088 7.296,-12.48 10.944,-26.784 10.944,-42.912 0,-16.128 -3.648,-30.336 -10.944,-42.624 -7.296,-12.48 -17.568,-22.176 -30.816,-29.088 -13.248,-7.104 -28.704,-10.656 -46.368,-10.656 h -59.616 v 164.736 z"
         fill="#373150"
         id="path287"
         style="fill:#0000ff;fill-opacity:1;stroke-width:54.7323" /><path
         d="m 810.012,616.44 c -4.224,0 -7.872,-1.536 -10.944,-4.608 -2.88,-3.072 -4.32,-6.816 -4.32,-11.232 0,-4.416 1.44,-8.064 4.32,-10.944 3.072,-3.072 6.72,-4.608 10.944,-4.608 4.224,0 7.872,1.536 10.944,4.608 3.072,2.88 4.608,6.528 4.608,10.944 0,4.416 -1.536,8.16 -4.608,11.232 -3.072,3.072 -6.72,4.608 -10.944,4.608 z"
         fill="#373150"
         id="path289"
         style="fill:#0000ff;fill-opacity:1;stroke-width:54.7323" /><path
         d="M 501.312,431.832 H 430.464 V 413.4 h 163.009 v 18.432 H 522.624 V 615 h -21.312 z"
         fill="#373150"
         id="path291"
         style="fill:#0000ff;fill-opacity:1;stroke-width:54.7323" /><path
         d="M 298.171,413.4 V 615 H 280.603 L 151.003,451.416 V 615 H 129.691 V 413.4 h 17.568 L 277.147,576.984 V 413.4 Z"
         fill="#373150"
         id="path293"
         style="fill:#0000ff;fill-opacity:1;stroke-width:54.7323" /><path
         d="m 810.001,318.728 c -26.112,0 -46.464,-7.488 -61.056,-22.464 -14.592,-14.976 -21.888,-36.768 -21.888,-65.376 V 115.4 h 21.312 v 114.624 c 0,23.424 5.28,40.896 15.84,52.416 10.56,11.52 25.824,17.28 45.792,17.28 20.16,0 35.52,-5.76 46.08,-17.28 10.56,-11.52 15.84,-28.992 15.84,-52.416 V 115.4 h 20.736 v 115.488 c 0,28.608 -7.296,50.4 -21.888,65.376 -14.4,14.976 -34.656,22.464 -60.768,22.464 z"
         fill="#373150"
         id="path295"
         style="fill:#0000ff;fill-opacity:1;stroke-width:54.7323" /><path
         d="M 568.045,263.144 H 455.725 L 431.533,317 h -22.176 l 92.16,-201.6 h 21.024 l 92.16,201.6 h -22.464 z m -7.776,-17.28 -48.384,-108.288 -48.384,108.288 z"
         fill="#373150"
         id="path297"
         style="fill:#0000ff;fill-opacity:1;stroke-width:54.7323" /><path
         d="m 277.441,216.2 h 20.448 v 76.896 c -9.408,8.256 -20.544,14.592 -33.408,19.008 -12.864,4.416 -26.4,6.624 -40.608,6.624 -20.16,0 -38.304,-4.416 -54.432,-13.248 -16.128,-8.832 -28.8,-21.024 -38.016,-36.576 -9.216,-15.744 -13.824,-33.312 -13.824,-52.704 0,-19.392 4.608,-36.864 13.824,-52.416 9.216,-15.744 21.888,-28.032 38.016,-36.864 16.128,-8.832 34.368,-13.248 54.72,-13.248 15.36,0 29.472,2.496 42.336,7.488 12.864,4.8 23.712,12 32.544,21.6 l -13.248,13.536 c -15.936,-15.744 -36.192,-23.616 -60.768,-23.616 -16.32,0 -31.104,3.648 -44.352,10.944 -13.056,7.104 -23.328,17.088 -30.816,29.952 -7.488,12.672 -11.232,26.88 -11.232,42.624 0,15.744 3.744,29.952 11.232,42.624 7.488,12.672 17.76,22.656 30.816,29.952 13.056,7.296 27.744,10.944 44.064,10.944 20.736,0 38.304,-5.184 52.704,-15.552 z"
         fill="#373150"
         id="path299"
         style="fill:#0000ff;fill-opacity:1;stroke-width:54.7323" /></g></g><g
     id="g5907"
     transform="rotate(180,139.72984,-32.564005)"><path
       style="fill:none;stroke:#000000;stroke-width:0.1;stroke-dasharray:none;stroke-opacity:1"
       d="M 327.822,-7.3163333 V -49.281667 a 3.5283917,3.5283917 73.3035 0 0 -0.58248,-1.941951 l -11.90704,-18.062764 a 0.69785387,0.69785387 0.00743937 0 0 -1.16519,-1.51e-4 l -9.22158,13.981066 a 1.965862,1.965862 151.70394 0 1 -1.64104,0.883467 h -4.60934 a 1.965862,1.965862 28.296061 0 1 -1.64104,-0.883467 l -9.22158,-13.981066 a 0.69785387,0.69785387 179.99256 0 0 -1.16519,1.51e-4 l -11.90704,18.062764 a 3.5283917,3.5283917 106.6965 0 0 -0.58248,1.941951 v 11.823334 A 1.0583333,1.0583333 45 0 0 275.23633,-36.4 h 3.70534 A 1.0583333,1.0583333 135 0 0 280,-37.458333 V -47.541667 A 1.0583333,1.0583333 135 0 1 281.05833,-48.6 h 39.88334 A 1.0583333,1.0583333 45 0 1 322,-47.541667 v 37.8833437 a 2.6206716,2.6206716 111.99085 0 1 -0.73494,1.8198693 l -5.38212,5.576918 A 2.4921705,2.4921705 156.99085 0 1 314.08967,-1.5 h -26.17934 a 2.4921705,2.4921705 23.009149 0 1 -1.79327,-0.761536 l -5.38212,-5.576918 A 2.6206716,2.6206716 68.009149 0 1 280,-9.6583233 V -22.541667 A 1.0583333,1.0583333 45 0 0 278.94167,-23.6 h -3.70534 a 1.0583333,1.0583333 135 0 0 -1.05833,1.058333 v 15.2253337 a 2.621652,2.621652 68.016589 0 0 0.73474,1.8200602 l 10.18252,10.5565362 a 2.4912713,2.4912713 23.016589 0 0 1.79307,0.7617269 h 28.22334 a 2.4912713,2.4912713 156.98341 0 0 1.79307,-0.7617269 l 10.18252,-10.5565362 a 2.621652,2.621652 111.98341 0 0 0.73474,-1.8200602 z"
       id="path327"
       inkscape:path-effect="#path-effect5695"
       inkscape:original-d="M 327.822,-6.258 V -50.34 l -13.072,-19.83 -10.387,15.748 h -6.726 L 287.25,-70.17 274.178,-50.34 V -36.4 H 280 v -12.2 h 42 V -8.59999 L 315.148,-1.5 H 286.852 L 280,-8.59999 V -23.6 h -5.822 V -6.258 L 285.83,5.82199 h 30.34 z" /><ellipse
       style="fill:none;fill-opacity:1;stroke:#00f100;stroke-width:0.0999999;stroke-linecap:round;stroke-linejoin:round;stroke-dasharray:none;stroke-opacity:1"
       id="path3193-3"
       cx="280.39999"
       cy="-4.199995"
       rx="1.65"
       ry="1.6500001" /><ellipse
       style="fill:none;fill-opacity:1;stroke:#00f100;stroke-width:0.0999999;stroke-linecap:round;stroke-linejoin:round;stroke-dasharray:none;stroke-opacity:1"
       id="path3193-29"
       cx="324.79999"
       cy="-22"
       rx="1.65"
       ry="1.6500001" /><circle
       style="fill:none;fill-opacity:1;stroke:#00f100;stroke-width:0.0999996;stroke-linecap:round;stroke-linejoin:round;stroke-dasharray:none;stroke-opacity:1"
       id="path1815-93"
       cx="314.87991"
       cy="-53.200001"
       r="1.35" /><ellipse
       style="fill:none;fill-opacity:1;stroke:#00f100;stroke-width:0.0999999;stroke-linecap:round;stroke-linejoin:round;stroke-dasharray:none;stroke-opacity:1"
       id="path3193-61"
       cx="301"
       cy="-51.399948"
       rx="1.65"
       ry="1.6500001" /><circle
       style="fill:none;fill-opacity:1;stroke:#00f100;stroke-width:0.0999996;stroke-linecap:round;stroke-linejoin:round;stroke-dasharray:none;stroke-opacity:1"
       id="path1815-0"
       cx="287.37991"
       cy="-53.200001"
       r="1.35" /></g><g
     id="g6147"
     transform="translate(-92.92954,61.88191)"><path
       style="fill:none;stroke:#000000;stroke-width:0.1;stroke-dasharray:none;stroke-opacity:1"
       d="M 250.1709,-7.9278204 V -49.893154 a 3.5283917,3.5283917 73.3035 0 0 -0.58248,-1.941951 l -11.90704,-18.062764 a 0.69785387,0.69785387 0.00743937 0 0 -1.16519,-1.51e-4 l -9.22158,13.981066 a 1.965862,1.965862 151.70394 0 1 -1.64104,0.883467 h -4.60934 a 1.965862,1.965862 28.296061 0 1 -1.64104,-0.883467 l -9.22158,-13.981066 a 0.69785387,0.69785387 179.99256 0 0 -1.16519,1.51e-4 l -11.90704,18.062764 a 3.5283917,3.5283917 106.6965 0 0 -0.58248,1.941951 v 11.823334 a 1.0583333,1.0583333 45 0 0 1.05833,1.058333 h 3.70534 a 1.0583333,1.0583333 135 0 0 1.05833,-1.058333 v -10.083334 a 1.0583333,1.0583333 135 0 1 1.05833,-1.058333 h 39.88334 a 1.0583333,1.0583333 45 0 1 1.05833,1.058333 v 37.883344 a 2.6206716,2.6206716 111.99085 0 1 -0.73494,1.8198689 l -5.38212,5.576918 a 2.4921705,2.4921705 156.99085 0 1 -1.79327,0.761536 h -26.17934 a 2.4921705,2.4921705 23.009149 0 1 -1.79327,-0.761536 l -5.38212,-5.576918 A 2.6206716,2.6206716 68.009149 0 1 202.3489,-10.26981 v -12.883344 a 1.0583333,1.0583333 45 0 0 -1.05833,-1.058333 h -3.70534 a 1.0583333,1.0583333 135 0 0 -1.05833,1.058333 v 15.2253336 a 2.621652,2.621652 68.016589 0 0 0.73474,1.8200602 L 207.44416,4.448776 a 2.4912713,2.4912713 23.016589 0 0 1.79307,0.7617269 l 28.22334,0 a 2.4912713,2.4912713 156.98341 0 0 1.79307,-0.7617269 l 10.18252,-10.5565362 a 2.621652,2.621652 111.98341 0 0 0.73474,-1.8200602 z"
       id="path331"
       inkscape:path-effect="#path-effect5697"
       inkscape:original-d="M 250.1709,-6.8694871 V -50.951487 l -13.072,-19.83 -10.387,15.748 h -6.726 l -10.387,-15.748 -13.072,19.83 v 13.94 h 5.822 v -12.2 h 42 v 40.0000099 l -6.852,7.09999 h -28.296 l -6.852,-7.09999 V -24.211487 h -5.822 v 17.3419999 l 11.652,12.07999 h 30.34 z" /><ellipse
       style="fill:none;fill-opacity:1;stroke:#00f100;stroke-width:0.0999999;stroke-linecap:round;stroke-linejoin:round;stroke-dasharray:none;stroke-opacity:1"
       id="path3193-92"
       cx="202.7489"
       cy="-4.811482"
       rx="1.65"
       ry="1.6500001" /><ellipse
       style="fill:none;fill-opacity:1;stroke:#00f100;stroke-width:0.0999999;stroke-linecap:round;stroke-linejoin:round;stroke-dasharray:none;stroke-opacity:1"
       id="path3193-97"
       cx="247.1489"
       cy="-22.611486"
       rx="1.65"
       ry="1.6500001" /><circle
       style="fill:none;fill-opacity:1;stroke:#00f100;stroke-width:0.0999996;stroke-linecap:round;stroke-linejoin:round;stroke-dasharray:none;stroke-opacity:1"
       id="path1815-27"
       cx="237.22882"
       cy="-53.811489"
       r="1.35" /><ellipse
       style="fill:none;fill-opacity:1;stroke:#00f100;stroke-width:0.0999999;stroke-linecap:round;stroke-linejoin:round;stroke-dasharray:none;stroke-opacity:1"
       id="path3193-28"
       cx="223.34891"
       cy="-52.011436"
       rx="1.65"
       ry="1.6500001" /><circle
       style="fill:none;fill-opacity:1;stroke:#00f100;stroke-width:0.0999996;stroke-linecap:round;stroke-linejoin:round;stroke-dasharray:none;stroke-opacity:1"
       id="path1815-1"
       cx="209.72881"
       cy="-53.811489"
       r="1.35" /></g><g
     id="g6126"
     transform="rotate(180,63.856985,-28.214251)"><path
       style="fill:none;stroke:#000000;stroke-width:0.1;stroke-dasharray:none;stroke-opacity:1"
       d="M 120.17065,-42.52411 108.2636,-60.586874 a 0.69785404,0.69785404 0.0074255 0 0 -1.16519,-1.51e-4 l -9.221574,13.981066 a 1.9658617,1.9658617 151.70394 0 1 -1.641046,0.883467 h -4.609324 a 1.965862,1.965862 28.296061 0 1 -1.641047,-0.883467 l -9.221572,-13.981066 a 0.69785414,0.69785414 179.99257 0 0 -1.165198,1.51e-4 L 67.691607,-42.52411 a 3.5283894,3.5283894 106.69651 0 0 -0.582484,1.941951 v 35.4233336 a 1.0583333,1.0583333 45 0 0 1.058333,1.0583333 l 51.527344,0 a 1.0583333,1.0583333 135 0 0 1.05833,-1.0583333 V -40.582159 a 3.5283894,3.5283894 73.30349 0 0 -0.58248,-1.941951 z"
       id="path323"
       inkscape:path-effect="#path-effect5701"
       inkscape:original-d="m 120.75313,-41.640492 -13.07201,-19.83 -10.386997,15.748 h -6.72599 l -10.387,-15.748 -13.07201,19.83 v 37.5399999 h 53.644007 z" /><rect
       style="fill:none;fill-opacity:1;stroke:#00ffff;stroke-width:0.0999995;stroke-linecap:round;stroke-linejoin:round;stroke-dasharray:none;stroke-opacity:1"
       id="rect5709-7"
       width="42"
       height="34.799999"
       x="72.931168"
       y="-39.90049"
       ry="0.39520755" /><ellipse
       style="fill:none;fill-opacity:1;stroke:#00f100;stroke-width:0.0999999;stroke-linecap:round;stroke-linejoin:round;stroke-dasharray:none;stroke-opacity:1"
       id="path3193-2"
       cx="117.73113"
       cy="-13.300492"
       rx="1.65"
       ry="1.6500001" /><circle
       style="fill:none;fill-opacity:1;stroke:#00f100;stroke-width:0.0999996;stroke-linecap:round;stroke-linejoin:round;stroke-dasharray:none;stroke-opacity:1"
       id="path1815-56"
       cx="107.81104"
       cy="-44.500492"
       r="1.35" /><ellipse
       style="fill:none;fill-opacity:1;stroke:#00f100;stroke-width:0.0999999;stroke-linecap:round;stroke-linejoin:round;stroke-dasharray:none;stroke-opacity:1"
       id="path3193-0"
       cx="93.93116"
       cy="-42.700439"
       rx="1.65"
       ry="1.6500001" /><circle
       style="fill:none;fill-opacity:1;stroke:#00f100;stroke-width:0.0999996;stroke-linecap:round;stroke-linejoin:round;stroke-dasharray:none;stroke-opacity:1"
       id="path1815-3"
       cx="80.311028"
       cy="-44.500492"
       r="1.35" /></g><g
     id="g5876"
     transform="translate(-1.763097,61.270423)"><path
       style="fill:none;stroke:#000000;stroke-width:0.1;stroke-dasharray:none;stroke-opacity:1"
       d="M 103.822,-7.3163333 V -49.281667 a 3.5283917,3.5283917 73.3035 0 0 -0.58248,-1.941951 L 91.332484,-69.286382 a 0.69785387,0.69785387 0.00743937 0 0 -1.165198,-1.51e-4 l -9.221572,13.981066 A 1.965862,1.965862 151.70394 0 1 79.304667,-54.422 h -4.609334 a 1.965862,1.965862 28.296061 0 1 -1.641047,-0.883467 l -9.221572,-13.981066 a 0.69785387,0.69785387 179.99256 0 0 -1.165198,1.51e-4 L 50.760484,-51.223618 A 3.5283917,3.5283917 106.6965 0 0 50.178,-49.281667 l 0,41.9653337 a 2.621652,2.621652 68.016589 0 0 0.734739,1.8200602 L 61.095261,5.0602631 A 2.4912713,2.4912713 23.016589 0 0 62.888333,5.82199 H 91.111667 A 2.4912713,2.4912713 156.98341 0 0 92.904739,5.0602631 L 103.08726,-5.4962731 a 2.621652,2.621652 111.98341 0 0 0.73474,-1.8200602 z"
       id="path333"
       inkscape:path-effect="#path-effect5703"
       inkscape:original-d="M 103.822,-6.258 V -50.34 L 90.75,-70.17 80.363,-54.422 H 73.637 L 63.25,-70.17 50.178,-50.34 V -6.258 L 61.83,5.82199 h 30.34 z" /><circle
       style="fill:#0000ff;fill-opacity:1;stroke:none;stroke-width:0.0999995;stroke-linecap:round;stroke-linejoin:round;stroke-dasharray:none;stroke-opacity:1"
       id="path3443"
       cx="64.5"
       cy="-6.2999902"
       r="2.7500002" /><rect
       style="fill:none;fill-opacity:1;stroke:#00ffff;stroke-width:0.0999995;stroke-linecap:round;stroke-linejoin:round;stroke-dasharray:none;stroke-opacity:1"
       id="rect5709-7-1"
       width="42"
       height="34.799999"
       x="56"
       y="-48.599998"
       ry="0.39520755" /><path
       style="fill:none;stroke:#00ffff;stroke-width:0.1;stroke-dasharray:none;stroke-opacity:1"
       d="M 79,-2.0291667 V -3.4708333 A 0.52916667,0.52916667 45 0 0 78.470833,-4 H 72.529167 A 0.52916667,0.52916667 45 0 1 72,-4.5291667 V -8.4708333 A 0.52916667,0.52916667 135 0 1 72.529167,-9 h 5.941666 A 0.52916667,0.52916667 135 0 0 79,-9.5291667 V -11.970833 A 0.52916667,0.52916667 135 0 1 79.529167,-12.5 h 5.941666 A 0.52916667,0.52916667 45 0 1 86,-11.970833 v 2.4416663 A 0.52916667,0.52916667 45 0 0 86.529167,-9 h 5.941666 A 0.52916667,0.52916667 45 0 1 93,-8.4708333 v 3.9416666 A 0.52916667,0.52916667 135 0 1 92.470833,-4 H 86.529167 A 0.52916667,0.52916667 135 0 0 86,-3.4708333 v 1.4416666 A 0.52916667,0.52916667 135 0 1 85.470833,-1.5 H 79.529167 A 0.52916667,0.52916667 45 0 1 79,-2.0291667 Z"
       id="path3109"
       inkscape:path-effect="#path-effect6159"
       inkscape:original-d="M 79,-1.5 V -4 h -7 v -5 h 7 v -3.5 h 7 V -9 h 7 v 5 h -7 v 2.5 z" /><ellipse
       style="fill:none;fill-opacity:1;stroke:#00f100;stroke-width:0.0999999;stroke-linecap:round;stroke-linejoin:round;stroke-dasharray:none;stroke-opacity:1"
       id="path3193-7"
       cx="56.400002"
       cy="-4.199995"
       rx="1.65"
       ry="1.6500001" /><ellipse
       style="fill:none;fill-opacity:1;stroke:#00f100;stroke-width:0.0999999;stroke-linecap:round;stroke-linejoin:round;stroke-dasharray:none;stroke-opacity:1"
       id="path3193-9"
       cx="100.8"
       cy="-22"
       rx="1.65"
       ry="1.6500001" /><circle
       style="fill:none;fill-opacity:1;stroke:#00f100;stroke-width:0.0999996;stroke-linecap:round;stroke-linejoin:round;stroke-dasharray:none;stroke-opacity:1"
       id="path1815-5"
       cx="90.880051"
       cy="-53.200001"
       r="1.35" /><ellipse
       style="fill:none;fill-opacity:1;stroke:#00f100;stroke-width:0.0999999;stroke-linecap:round;stroke-linejoin:round;stroke-dasharray:none;stroke-opacity:1"
       id="path3193-8"
       cx="77"
       cy="-51.399948"
       rx="1.65"
       ry="1.6500001" /><circle
       style="fill:none;fill-opacity:1;stroke:#00f100;stroke-width:0.0999996;stroke-linecap:round;stroke-linejoin:round;stroke-dasharray:none;stroke-opacity:1"
       id="path1815-7"
       cx="63.380051"
       cy="-53.200001"
       r="1.35" /></g><g
     id="g5021"
     transform="translate(54.482758,61.47744)"><path
       id="path329-3"
       style="display:inline;fill:#d300d3;fill-opacity:1"
       d="m -48.178474,-59.806813 -7.249687,10.999845 h 14.49989 z m 27.50013,0 -7.250203,10.999845 h 14.500407 z m -27.897522,58.0998129 1.447457,1.50016681 h 25.4 l 1.447974,-1.50016681 z"
       sodipodi:nodetypes="ccccccccccccc" /><path
       style="display:inline;fill:none;stroke:#000000;stroke-width:0.1;stroke-dasharray:none;stroke-opacity:1"
       d="M -7.606311,-7.5233503 V -49.488684 a 3.5283917,3.5283917 73.3035 0 0 -0.5824841,-1.941951 L -20.095827,-69.493399 a 0.69785387,0.69785387 0.00743937 0 0 -1.165198,-1.51e-4 l -9.221572,13.981066 a 1.965862,1.965862 151.70394 0 1 -1.641047,0.883467 h -4.609334 a 1.965862,1.965862 28.296061 0 1 -1.641047,-0.883467 l -9.221572,-13.981066 a 0.69785361,0.69785361 179.99255 0 0 -1.165198,1.52e-4 l -11.907022,18.062762 a 3.528394,3.528394 106.69649 0 0 -0.582484,1.941952 v 11.823334 a 1.0583333,1.0583333 45 0 0 1.058333,1.058333 h 3.705324 a 1.0583333,1.0583333 135 0 0 1.058333,-1.058333 v -11.141667 h 42 v 40.00001 l -6.8523,7.09999 h -28.29539 l -6.85231,-7.09999 v -13.941677 a 1.0583333,1.0583333 45 0 0 -1.058333,-1.058333 h -3.705324 a 1.0583333,1.0583333 135 0 0 -1.058333,1.058333 v 15.2253337 a 2.6216552,2.6216552 68.016613 0 0 0.734738,1.8200608 l 10.182504,10.556535 a 2.4912683,2.4912683 23.016613 0 0 1.793071,0.7617275 h 28.223344 a 2.4912713,2.4912713 156.98341 0 0 1.793072,-0.7617269 L -8.3410501,-5.7032901 a 2.621652,2.621652 111.98341 0 0 0.7347391,-1.8200602 z"
       id="path329"
       inkscape:path-effect="#path-effect5691"
       inkscape:original-d="m -7.606311,-6.465017 v -44.082 l -13.072,-19.83 -10.387,15.748 h -6.726 l -10.387,-15.748 -13.07199,19.83 v 13.94 h 5.82199 v -12.2 h 42 v 40.00001 l -6.8523,7.09999 h -28.29539 l -6.85231,-7.09999 v -15.00001 h -5.82199 v 17.342 l 11.65198,12.07999 h 30.34001 z" /><ellipse
       style="fill:none;fill-opacity:1;stroke:#00f100;stroke-width:0.0999999;stroke-linecap:round;stroke-linejoin:round;stroke-dasharray:none;stroke-opacity:1"
       id="path3193-6"
       cx="-55.028313"
       cy="-4.407012"
       rx="1.65"
       ry="1.6500001" /><ellipse
       style="fill:none;fill-opacity:1;stroke:#00f100;stroke-width:0.0999999;stroke-linecap:round;stroke-linejoin:round;stroke-dasharray:none;stroke-opacity:1"
       id="path3193-1"
       cx="-10.628311"
       cy="-22.207018"
       rx="1.65"
       ry="1.6500001" /><circle
       style="fill:none;fill-opacity:1;stroke:#00f100;stroke-width:0.0999996;stroke-linecap:round;stroke-linejoin:round;stroke-dasharray:none;stroke-opacity:1"
       id="path1815-6"
       cx="-20.54826"
       cy="-53.407017"
       r="1.35" /><ellipse
       style="fill:none;fill-opacity:1;stroke:#00f100;stroke-width:0.0999999;stroke-linecap:round;stroke-linejoin:round;stroke-dasharray:none;stroke-opacity:1"
       id="path3193"
       cx="-34.42831"
       cy="-51.606968"
       rx="1.65"
       ry="1.6500001" /><circle
       style="fill:none;fill-opacity:1;stroke:#00f100;stroke-width:0.0999996;stroke-linecap:round;stroke-linejoin:round;stroke-dasharray:none;stroke-opacity:1"
       id="path1815"
       cx="-48.048279"
       cy="-53.407017"
       r="1.35" /></g><g
     id="g3683"
     transform="translate(45.308446,65.344088)"><g
       id="g5891"
       transform="rotate(180,116.39877,-65.236049)"><path
         style="fill:none;stroke:#000000;stroke-width:0.1;stroke-dasharray:none;stroke-opacity:1"
         d="m 215.23952,-51.223618 -11.90704,-18.062764 a 0.69785387,0.69785387 0.00743937 0 0 -1.16519,-1.51e-4 l -9.22158,13.981066 a 1.965862,1.965862 151.70394 0 1 -1.64104,0.883467 h -4.60934 a 1.965862,1.965862 28.296061 0 1 -1.64104,-0.883467 l -9.22158,-13.981066 a 0.69785387,0.69785387 179.99256 0 0 -1.16519,1.51e-4 l -11.90704,18.062764 a 3.5283917,3.5283917 106.6965 0 0 -0.58248,1.941951 v 35.423334 A 1.0583333,1.0583333 45 0 0 163.23633,-12.8 h 51.52734 a 1.0583333,1.0583333 135 0 0 1.05833,-1.058333 l 0,-35.423334 a 3.5283917,3.5283917 73.3035 0 0 -0.58248,-1.941951 z"
         id="path325"
         inkscape:path-effect="#path-effect5699"
         inkscape:original-d="m 215.822,-50.34 -13.072,-19.83 -10.387,15.748 h -6.726 L 175.25,-70.17 162.178,-50.34 v 37.54 h 53.644 z" /><ellipse
         style="fill:none;fill-opacity:1;stroke:#00f100;stroke-width:0.0999999;stroke-linecap:round;stroke-linejoin:round;stroke-dasharray:none;stroke-opacity:1"
         id="path3193-75"
         cx="212.8"
         cy="-22"
         rx="1.65"
         ry="1.6500001" /><circle
         style="fill:none;fill-opacity:1;stroke:#00f100;stroke-width:0.0999996;stroke-linecap:round;stroke-linejoin:round;stroke-dasharray:none;stroke-opacity:1"
         id="path1815-9"
         cx="202.8799"
         cy="-53.200001"
         r="1.35" /><ellipse
         style="fill:none;fill-opacity:1;stroke:#00f100;stroke-width:0.0999999;stroke-linecap:round;stroke-linejoin:round;stroke-dasharray:none;stroke-opacity:1"
         id="path3193-23"
         cx="189"
         cy="-51.399948"
         rx="1.65"
         ry="1.6500001" /><circle
         style="fill:none;fill-opacity:1;stroke:#00f100;stroke-width:0.0999996;stroke-linecap:round;stroke-linejoin:round;stroke-dasharray:none;stroke-opacity:1"
         id="path1815-2"
         cx="175.3799"
         cy="-53.200001"
         r="1.35" /></g><text
       xml:space="preserve"
       style="font-style:normal;font-variant:normal;font-weight:bold;font-stretch:normal;font-size:10.5833px;font-family:sans-serif;-inkscape-font-specification:'sans-serif Bold';fill:none;fill-opacity:1;stroke:#ff0000;stroke-width:0.1;stroke-linecap:round;stroke-linejoin:round;stroke-dasharray:none;stroke-opacity:1"
       x="27.942833"
       y="-122.3018"
       id="text5991"><tspan
         sodipodi:role="line"
         id="tspan5989"
         style="font-size:10.5833px;stroke-width:0.1"
         x="27.942833"
         y="-122.3018">CLEAR</tspan></text></g><metadata
     id="metadata3797"><rdf:RDF><cc:Work
         rdf:about=""><dc:title>OpenSCAD Model</dc:title></cc:Work></rdf:RDF></metadata></svg>
