<?xml version="1.0" encoding="UTF-8" standalone="no"?>
<svg
   version="1.1"
   width="42.621197mm"
   height="59.181999mm"
   viewBox="0 0 16780 23300"
   id="svg314"
   sodipodi:docname="Nugget-PCB-Design.svg"
   inkscape:version="1.2.1 (9c6d41e410, 2022-07-14)"
   xmlns:inkscape="http://www.inkscape.org/namespaces/inkscape"
   xmlns:sodipodi="http://sodipodi.sourceforge.net/DTD/sodipodi-0.dtd"
   xmlns="http://www.w3.org/2000/svg"
   xmlns:svg="http://www.w3.org/2000/svg"
   xmlns:rdf="http://www.w3.org/1999/02/22-rdf-syntax-ns#"
   xmlns:cc="http://creativecommons.org/ns#"
   xmlns:dc="http://purl.org/dc/elements/1.1/">
  <defs
     id="defs318">
    <inkscape:path-effect
       effect="offset"
       id="path-effect2036"
       is_visible="true"
       lpeversion="1.2"
       linejoin_type="miter"
       unit="mm"
       offset="0.25"
       miter_limit="4"
       attempt_force_join="false"
       update_on_knot_move="true" />
    <inkscape:path-effect
       effect="offset"
       id="path-effect1977"
       is_visible="true"
       lpeversion="1.2"
       linejoin_type="miter"
       unit="mm"
       offset="6.25"
       miter_limit="4"
       attempt_force_join="false"
       update_on_knot_move="true" />
    <inkscape:path-effect
       effect="offset"
       id="path-effect1530"
       is_visible="true"
       lpeversion="1.2"
       linejoin_type="miter"
       unit="mm"
       offset="6.25"
       miter_limit="4"
       attempt_force_join="false"
       update_on_knot_move="true" />
    <inkscape:path-effect
       effect="offset"
       id="path-effect1405"
       is_visible="true"
       lpeversion="1.2"
       linejoin_type="miter"
       unit="mm"
       offset="0.25"
       miter_limit="4"
       attempt_force_join="false"
       update_on_knot_move="true" />
    <inkscape:path-effect
       effect="fillet_chamfer"
       id="path-effect1403"
       is_visible="true"
       lpeversion="1"
       nodesatellites_param="F,0,0,1,0,0,0,1 @ F,0,0,1,0,0,0,1 @ F,0,0,1,0,0,0,1 @ F,0,0,1,0,0,0,1 @ F,0,0,1,0,0,0,1 @ F,0,0,1,0,0,0,1 @ F,0,0,1,0,0,0,1 @ F,0,0,1,0,0,0,1 @ F,0,0,1,0,0,0,1 @ F,0,0,1,0,0,0,1"
       unit="px"
       method="auto"
       mode="F"
       radius="0"
       chamfer_steps="1"
       flexible="false"
       use_knot_distance="true"
       apply_no_radius="true"
       apply_with_radius="true"
       only_selected="false"
       hide_knots="false" />
    <inkscape:path-effect
       effect="offset"
       id="path-effect13481"
       is_visible="true"
       lpeversion="1.2"
       linejoin_type="miter"
       unit="mm"
       offset="4"
       miter_limit="4"
       attempt_force_join="false"
       update_on_knot_move="true" />
    <inkscape:path-effect
       effect="offset"
       id="path-effect13452"
       is_visible="true"
       lpeversion="1.2"
       linejoin_type="miter"
       unit="mm"
       offset="0.5"
       miter_limit="4"
       attempt_force_join="false"
       update_on_knot_move="true" />
    <inkscape:path-effect
       effect="offset"
       id="path-effect13233"
       is_visible="true"
       lpeversion="1.2"
       linejoin_type="miter"
       unit="mm"
       offset="0"
       miter_limit="4"
       attempt_force_join="false"
       update_on_knot_move="true" />
    <inkscape:path-effect
       effect="offset"
       id="path-effect5102"
       is_visible="true"
       lpeversion="1.2"
       linejoin_type="miter"
       unit="mm"
       offset="3"
       miter_limit="4"
       attempt_force_join="false"
       update_on_knot_move="true" />
    <inkscape:path-effect
       effect="offset"
       id="path-effect5102-7"
       is_visible="true"
       lpeversion="1.2"
       linejoin_type="miter"
       unit="mm"
       offset="3"
       miter_limit="4"
       attempt_force_join="false"
       update_on_knot_move="true" />
    <inkscape:path-effect
       effect="offset"
       id="path-effect5102-1"
       is_visible="true"
       lpeversion="1.2"
       linejoin_type="miter"
       unit="mm"
       offset="3"
       miter_limit="4"
       attempt_force_join="false"
       update_on_knot_move="true" />
    <inkscape:path-effect
       effect="offset"
       id="path-effect5102-70"
       is_visible="true"
       lpeversion="1.2"
       linejoin_type="miter"
       unit="mm"
       offset="3"
       miter_limit="4"
       attempt_force_join="false"
       update_on_knot_move="true" />
    <inkscape:path-effect
       effect="offset"
       id="path-effect1530-0"
       is_visible="true"
       lpeversion="1.2"
       linejoin_type="miter"
       unit="mm"
       offset="6.25"
       miter_limit="4"
       attempt_force_join="false"
       update_on_knot_move="true" />
    <inkscape:path-effect
       effect="offset"
       id="path-effect1530-06"
       is_visible="true"
       lpeversion="1.2"
       linejoin_type="miter"
       unit="mm"
       offset="6.25"
       miter_limit="4"
       attempt_force_join="false"
       update_on_knot_move="true" />
    <inkscape:path-effect
       effect="offset"
       id="path-effect1530-6"
       is_visible="true"
       lpeversion="1.2"
       linejoin_type="miter"
       unit="mm"
       offset="6.25"
       miter_limit="4"
       attempt_force_join="false"
       update_on_knot_move="true" />
    <inkscape:path-effect
       effect="offset"
       id="path-effect1530-6-8"
       is_visible="true"
       lpeversion="1.2"
       linejoin_type="miter"
       unit="mm"
       offset="6.25"
       miter_limit="4"
       attempt_force_join="false"
       update_on_knot_move="true" />
    <inkscape:path-effect
       effect="offset"
       id="path-effect1530-7"
       is_visible="true"
       lpeversion="1.2"
       linejoin_type="miter"
       unit="mm"
       offset="6.25"
       miter_limit="4"
       attempt_force_join="false"
       update_on_knot_move="true" />
    <inkscape:path-effect
       effect="offset"
       id="path-effect1530-2"
       is_visible="true"
       lpeversion="1.2"
       linejoin_type="miter"
       unit="mm"
       offset="6.25"
       miter_limit="4"
       attempt_force_join="false"
       update_on_knot_move="true" />
  </defs>
  <sodipodi:namedview
     id="namedview316"
     pagecolor="#ffffff"
     bordercolor="#000000"
     borderopacity="0.25"
     inkscape:showpageshadow="2"
     inkscape:pageopacity="0.0"
     inkscape:pagecheckerboard="0"
     inkscape:deskcolor="#d1d1d1"
     inkscape:document-units="mm"
     showgrid="false"
     inkscape:zoom="6.4931925"
     inkscape:cx="144.07397"
     inkscape:cy="161.93883"
     inkscape:window-width="3840"
     inkscape:window-height="2083"
     inkscape:window-x="0"
     inkscape:window-y="0"
     inkscape:window-maximized="1"
     inkscape:current-layer="svg314" />
  <title
     id="title2">SVG Picture created as Nugget-PCB-brd.svg date 2021/10/04 04:22:48 </title>
  <desc
     id="desc4">Picture generated by PCBNEW </desc>
  <g
     style="display:none;fill:#000000;fill-opacity:1;stroke:#000000;stroke-width:0;stroke-linecap:round;stroke-linejoin:round;stroke-opacity:1"
     id="g174"
     inkscape:label="holes">
    <path
       style="fill:#000000;fill-opacity:1;fill-rule:evenodd;stroke:#000000;stroke-width:0;stroke-linecap:round;stroke-linejoin:round;stroke-opacity:1"
       d="M 12788.4,22479.1 H 11890 v -670 h 898.4 z"
       id="path10" />
    <path
       style="fill:#000000;fill-opacity:1;fill-rule:evenodd;stroke:#000000;stroke-width:0;stroke-linecap:round;stroke-linejoin:round;stroke-opacity:1"
       d="m 9174.21,22479.1 h -898.42 v -670 h 898.42 z"
       id="path12" />
    <path
       style="fill:#000000;fill-opacity:1;fill-rule:evenodd;stroke:#000000;stroke-width:0;stroke-linecap:round;stroke-linejoin:round;stroke-opacity:1"
       d="m 5048.23,21614.4 h -906.3 v -630.7 h 906.3 z"
       id="path14" />
    <path
       style="fill:#000000;fill-opacity:1;fill-rule:evenodd;stroke:#000000;stroke-width:0;stroke-linecap:round;stroke-linejoin:round;stroke-opacity:1"
       d="m 2922.24,21614.4 h -906.29 v -630.7 h 906.29 z"
       id="path16" />
    <path
       style="fill:#000000;fill-opacity:1;fill-rule:evenodd;stroke:#000000;stroke-width:0;stroke-linecap:round;stroke-linejoin:round;stroke-opacity:1"
       d="M 15238.4,20970.5 H 14340 v -670.1 h 898.4 z"
       id="path18" />
    <path
       style="fill:#000000;fill-opacity:1;fill-rule:evenodd;stroke:#000000;stroke-width:0;stroke-linecap:round;stroke-linejoin:round;stroke-opacity:1"
       d="m 10313.4,20970.5 h -898.44 v -670.1 h 898.44 z"
       id="path20" />
    <path
       style="fill:#000000;fill-opacity:1;fill-rule:evenodd;stroke:#000000;stroke-width:0;stroke-linecap:round;stroke-linejoin:round;stroke-opacity:1"
       d="m 6699.21,20970.5 h -898.42 v -670.1 h 898.42 z"
       id="path22" />
    <path
       style="fill:#000000;fill-opacity:1;fill-rule:evenodd;stroke:#000000;stroke-width:0;stroke-linecap:round;stroke-linejoin:round;stroke-opacity:1"
       d="m 11624.2,20970.5 h -898.4 v -670.1 h 898.4 z"
       id="path24" />
    <path
       style="fill:#000000;fill-opacity:1;fill-rule:evenodd;stroke:#000000;stroke-width:0;stroke-linecap:round;stroke-linejoin:round;stroke-opacity:1"
       d="m 5048.23,20354.5 h -906.3 v -630.7 h 906.3 z"
       id="path26" />
    <path
       style="fill:#000000;fill-opacity:1;fill-rule:evenodd;stroke:#000000;stroke-width:0;stroke-linecap:round;stroke-linejoin:round;stroke-opacity:1"
       d="m 2922.24,20354.5 h -906.29 v -630.7 h 906.29 z"
       id="path28" />
    <path
       style="fill:#000000;fill-opacity:1;fill-rule:evenodd;stroke:#000000;stroke-width:0;stroke-linecap:round;stroke-linejoin:round;stroke-opacity:1"
       d="m 9174.21,19454.1 h -898.42 v -670 h 898.42 z"
       id="path30" />
    <path
       style="fill:#000000;fill-opacity:1;fill-rule:evenodd;stroke:#000000;stroke-width:0;stroke-linecap:round;stroke-linejoin:round;stroke-opacity:1"
       d="M 12788.4,19454.1 H 11890 v -670 h 898.4 z"
       id="path32" />
    <path
       style="fill:#000000;fill-opacity:1;fill-rule:evenodd;stroke:#000000;stroke-width:0;stroke-linecap:round;stroke-linejoin:round;stroke-opacity:1"
       d="m 7016.3,15784.1 68.14,28.2 v 0 l 61.32,41 52.15,52.1 v 0 l 40.97,61.3 28.23,68.2 14.39,72.3 v 73.8 l -14.39,72.3 -28.23,68.1 v 0 l -40.97,61.4 -52.15,52.1 -30.87,20.6 -30.45,20.4 -68.14,28.2 -72.34,14.4 h -73.75 l -72.33,-14.4 -68.14,-28.2 -30.46,-20.4 -30.87,-20.6 -52.15,-52.1 -40.97,-61.4 v 0 l -28.22,-68.1 -14.39,-72.3 v -73.8 l 14.39,-72.3 28.22,-68.2 40.97,-61.3 v 0 l 52.15,-52.1 61.33,-41 v 0 l 68.14,-28.2 72.33,-14.4 h 73.75 z"
       id="path34" />
    <path
       style="fill:#000000;fill-opacity:1;fill-rule:evenodd;stroke:#000000;stroke-width:0;stroke-linecap:round;stroke-linejoin:round;stroke-opacity:1"
       d="m 4016.3,15784.1 68.14,28.2 v 0 l 61.32,41 52.15,52.1 v 0 l 40.97,61.3 28.23,68.2 14.39,72.3 v 73.8 l -14.39,72.3 -28.23,68.1 v 0 l -40.97,61.4 -52.15,52.1 -30.87,20.6 -30.45,20.4 -68.14,28.2 -72.34,14.4 h -73.75 l -72.33,-14.4 -68.14,-28.2 -30.46,-20.4 -30.87,-20.6 -52.15,-52.1 -40.97,-61.4 v 0 l -28.22,-68.1 -14.39,-72.3 v -73.8 l 14.39,-72.3 28.22,-68.2 40.97,-61.3 v 0 l 52.15,-52.1 61.33,-41 v 0 l 68.14,-28.2 72.33,-14.4 h 73.75 z"
       id="path36" />
    <path
       style="fill:#000000;fill-opacity:1;fill-rule:evenodd;stroke:#000000;stroke-width:0;stroke-linecap:round;stroke-linejoin:round;stroke-opacity:1"
       d="m 5016.3,15784.1 68.14,28.2 v 0 l 61.32,41 52.15,52.1 v 0 l 40.97,61.3 28.23,68.2 14.39,72.3 v 73.8 l -14.39,72.3 -28.23,68.1 v 0 l -40.97,61.4 -52.15,52.1 -30.87,20.6 -30.45,20.4 -68.14,28.2 -72.34,14.4 h -73.75 l -72.33,-14.4 -68.14,-28.2 -30.46,-20.4 -30.87,-20.6 -52.15,-52.1 -40.97,-61.4 v 0 l -28.22,-68.1 -14.39,-72.3 v -73.8 l 14.39,-72.3 28.22,-68.2 40.97,-61.3 v 0 l 52.15,-52.1 61.33,-41 v 0 l 68.14,-28.2 72.33,-14.4 h 73.75 z"
       id="path38" />
    <path
       style="fill:#000000;fill-opacity:1;fill-rule:evenodd;stroke:#000000;stroke-width:0;stroke-linecap:round;stroke-linejoin:round;stroke-opacity:1"
       d="m 6016.3,15784.1 68.14,28.2 v 0 l 61.32,41 52.15,52.1 v 0 l 40.97,61.3 28.23,68.2 14.39,72.3 v 73.8 l -14.39,72.3 -28.23,68.1 v 0 l -40.97,61.4 -52.15,52.1 -30.87,20.6 -30.45,20.4 -68.14,28.2 -72.34,14.4 h -73.75 l -72.33,-14.4 -68.14,-28.2 -30.46,-20.4 -30.87,-20.6 -52.15,-52.1 -40.97,-61.4 v 0 l -28.22,-68.1 -14.39,-72.3 v -73.8 l 14.39,-72.3 28.22,-68.2 40.97,-61.3 v 0 l 52.15,-52.1 61.33,-41 v 0 l 68.14,-28.2 72.33,-14.4 h 73.75 z"
       id="path40" />
    <path
       style="fill:#000000;fill-opacity:1;fill-rule:evenodd;stroke:#000000;stroke-width:0;stroke-linecap:round;stroke-linejoin:round;stroke-opacity:1"
       d="m 11016.3,15784.1 68.1,28.2 v 0 l 61.4,41 52.1,52.1 v 0 l 41,61.3 28.2,68.2 14.4,72.3 v 73.8 l -14.4,72.3 -28.2,68.1 v 0 l -41,61.4 -52.1,52.1 -30.9,20.6 -30.5,20.4 -68.1,28.2 -72.3,14.4 h -73.8 l -72.3,-14.4 -68.2,-28.2 -30.4,-20.4 -30.9,-20.6 -52.1,-52.1 -41,-61.4 v 0 l -28.2,-68.1 -14.4,-72.3 v -73.8 l 14.4,-72.3 28.2,-68.2 41,-61.3 v 0 l 52.1,-52.1 61.3,-41 v 0 l 68.2,-28.2 72.3,-14.4 h 73.8 z"
       id="path42" />
    <path
       style="fill:#000000;fill-opacity:1;fill-rule:evenodd;stroke:#000000;stroke-width:0;stroke-linecap:round;stroke-linejoin:round;stroke-opacity:1"
       d="m 10016.3,15784.1 68.1,28.2 v 0 l 61.4,41 52.1,52.1 v 0 l 41,61.3 28.2,68.2 14.4,72.3 v 73.8 l -14.4,72.3 -28.2,68.1 v 0 l -41,61.4 -52.1,52.1 -30.9,20.6 -30.5,20.4 -68.1,28.2 -72.34,14.4 h -73.75 l -72.33,-14.4 -68.14,-28.2 -30.46,-20.4 -30.87,-20.6 -52.15,-52.1 -40.97,-61.4 v 0 l -28.22,-68.1 -14.39,-72.3 v -73.8 l 14.39,-72.3 28.22,-68.2 40.97,-61.3 v 0 l 52.15,-52.1 61.33,-41 v 0 l 68.14,-28.2 72.33,-14.4 h 73.75 z"
       id="path44" />
    <path
       style="fill:#000000;fill-opacity:1;fill-rule:evenodd;stroke:#000000;stroke-width:0;stroke-linecap:round;stroke-linejoin:round;stroke-opacity:1"
       d="m 9016.3,15784.1 68.14,28.2 v 0 l 61.32,41 52.15,52.1 v 0 l 40.97,61.3 28.23,68.2 14.39,72.3 v 73.8 l -14.39,72.3 -28.23,68.1 v 0 l -40.97,61.4 -52.15,52.1 -30.87,20.6 -30.45,20.4 -68.14,28.2 -72.34,14.4 h -73.75 l -72.33,-14.4 -68.14,-28.2 -30.46,-20.4 -30.87,-20.6 -52.15,-52.1 -40.97,-61.4 v 0 l -28.22,-68.1 -14.39,-72.3 v -73.8 l 14.39,-72.3 28.22,-68.2 40.97,-61.3 v 0 l 52.15,-52.1 61.33,-41 v 0 l 68.14,-28.2 72.33,-14.4 h 73.75 z"
       id="path46" />
    <path
       style="fill:#000000;fill-opacity:1;fill-rule:evenodd;stroke:#000000;stroke-width:0;stroke-linecap:round;stroke-linejoin:round;stroke-opacity:1"
       d="m 8016.3,15784.1 68.14,28.2 v 0 l 61.32,41 52.15,52.1 v 0 l 40.97,61.3 28.23,68.2 14.39,72.3 v 73.8 l -14.39,72.3 -28.23,68.1 v 0 l -40.97,61.4 -52.15,52.1 -30.87,20.6 -30.45,20.4 -68.14,28.2 -72.34,14.4 h -73.75 l -72.33,-14.4 -68.14,-28.2 -30.46,-20.4 -30.87,-20.6 -52.15,-52.1 -40.97,-61.4 v 0 l -28.22,-68.1 -14.39,-72.3 v -73.8 l 14.39,-72.3 28.22,-68.2 40.97,-61.3 v 0 l 52.15,-52.1 61.33,-41 v 0 l 68.14,-28.2 72.33,-14.4 h 73.75 z"
       id="path48" />
    <path
       style="fill:#000000;fill-opacity:1;fill-rule:evenodd;stroke:#000000;stroke-width:0;stroke-linecap:round;stroke-linejoin:round;stroke-opacity:1"
       d="m 15951.8,11791.3 58.8,11.7 64.5,26.7 58.1,38.9 49.4,49.4 38.8,58.1 26.8,64.5 13.6,68.6 v 69.8 l -13.6,68.6 -26.8,64.5 -38.8,58.1 -49.4,49.4 -58.1,38.8 -64.5,26.8 -58.8,11.7 -9.8,1.9 h -69.9 l -9.7,-1.9 -58.8,-11.7 -64.5,-26.8 -58.1,-38.8 -49.4,-49.4 -38.9,-58.1 -26.7,-64.5 -13.6,-68.6 v -69.8 l 13.6,-68.6 26.7,-64.5 38.9,-58.1 49.4,-49.4 58.1,-38.9 64.5,-26.7 58.8,-11.7 9.7,-1.9 h 69.9 z"
       id="path50" />
    <path
       style="fill:#000000;fill-opacity:1;fill-rule:evenodd;stroke:#000000;stroke-width:0;stroke-linecap:round;stroke-linejoin:round;stroke-opacity:1"
       d="m 15951.8,10791.3 58.8,11.7 64.5,26.7 58.1,38.9 49.4,49.4 38.8,58.1 26.8,64.5 13.6,68.6 v 69.8 l -13.6,68.6 -26.8,64.5 -38.8,58.1 -49.4,49.4 -58.1,38.8 -64.5,26.8 -58.8,11.7 -9.8,1.9 h -69.9 l -9.7,-1.9 -58.8,-11.7 -64.5,-26.8 -58.1,-38.8 -49.4,-49.4 -38.9,-58.1 -26.7,-64.5 -13.6,-68.6 v -69.8 l 13.6,-68.6 26.7,-64.5 38.9,-58.1 49.4,-49.4 58.1,-38.9 64.5,-26.7 58.8,-11.7 9.7,-1.9 h 69.9 z"
       id="path52" />
    <path
       style="fill:#000000;fill-opacity:1;fill-rule:evenodd;stroke:#000000;stroke-width:0;stroke-linecap:round;stroke-linejoin:round;stroke-opacity:1"
       d="m 15951.8,9791.31 58.8,11.69 64.5,26.74 58.1,38.82 49.4,49.41 38.8,58.1 26.8,64.53 13.6,68.6 v 69.8 l -13.6,68.6 -26.8,64.5 -38.8,58.1 -49.4,49.4 -58.1,38.8 -64.5,26.8 -58.8,11.7 -9.8,1.9 h -69.9 l -9.7,-1.9 -58.8,-11.7 -64.5,-26.8 -58.1,-38.8 -49.4,-49.4 -38.9,-58.1 -26.7,-64.5 -13.6,-68.6 v -69.8 l 13.6,-68.6 26.7,-64.53 38.9,-58.1 49.4,-49.41 58.1,-38.82 64.5,-26.74 58.8,-11.69 9.7,-1.94 h 69.9 z"
       id="path54" />
    <path
       style="fill:#000000;fill-opacity:1;fill-rule:evenodd;stroke:#000000;stroke-width:0;stroke-linecap:round;stroke-linejoin:round;stroke-opacity:1"
       d="m 15951.8,8791.31 58.8,11.69 64.5,26.74 58.1,38.82 49.4,49.41 38.8,58.1 26.8,64.56 13.6,68.53 v 69.87 l -13.6,68.53 -26.8,64.56 -38.8,58.1 -49.4,49.41 -58.1,38.82 -64.5,26.74 -58.8,11.69 -9.8,1.94 h -69.9 l -9.7,-1.94 -58.8,-11.69 -64.5,-26.74 -58.1,-38.82 -49.4,-49.41 -38.9,-58.1 -26.7,-64.56 -13.6,-68.53 v -69.87 l 13.6,-68.53 26.7,-64.56 38.9,-58.1 49.4,-49.41 58.1,-38.82 64.5,-26.74 58.8,-11.69 9.7,-1.94 h 69.9 z"
       id="path56" />
    <path
       style="fill:#000000;fill-opacity:1;fill-rule:evenodd;stroke:#000000;stroke-width:0;stroke-linecap:round;stroke-linejoin:round;stroke-opacity:1"
       d="m 15951.8,7791.31 58.8,11.69 64.5,26.74 58.1,38.82 49.4,49.41 38.8,58.1 26.8,64.56 13.6,68.53 v 69.87 l -13.6,68.53 -26.8,64.56 -38.8,58.1 -49.4,49.41 -58.1,38.82 -64.5,26.74 -58.8,11.69 -9.8,1.94 h -69.9 l -9.7,-1.94 -58.8,-11.69 -64.5,-26.74 -58.1,-38.82 -49.4,-49.41 -38.9,-58.1 -26.7,-64.56 -13.6,-68.53 v -69.87 l 13.6,-68.53 26.7,-64.56 38.9,-58.1 49.4,-49.41 58.1,-38.82 64.5,-26.74 58.8,-11.69 9.7,-1.94 h 69.9 z"
       id="path58" />
    <path
       style="fill:#000000;fill-opacity:1;fill-rule:evenodd;stroke:#000000;stroke-width:0;stroke-linecap:round;stroke-linejoin:round;stroke-opacity:1"
       d="m 4016.3,6784.07 68.14,28.23 v 0 l 61.32,40.97 52.15,52.15 v 0 l 40.97,61.33 28.23,68.13 14.39,72.34 v 73.75 l -14.39,72.34 -28.23,68.13 v 0 l -40.97,61.33 -52.15,52.15 -30.87,20.62 -30.45,20.35 -68.14,28.23 -72.34,14.38 h -73.75 l -72.33,-14.38 -68.14,-28.23 -30.46,-20.35 -30.87,-20.62 -52.15,-52.15 -40.97,-61.33 v 0 l -28.22,-68.13 -14.39,-72.34 v -73.75 l 14.39,-72.34 28.22,-68.13 40.97,-61.33 v 0 l 52.15,-52.15 61.33,-40.97 v 0 l 68.14,-28.23 72.33,-14.38 h 73.75 z"
       id="path60" />
    <path
       style="fill:#000000;fill-opacity:1;fill-rule:evenodd;stroke:#000000;stroke-width:0;stroke-linecap:round;stroke-linejoin:round;stroke-opacity:1"
       d="m 5016.3,6784.07 68.14,28.23 v 0 l 61.32,40.97 52.15,52.15 v 0 l 40.97,61.33 28.23,68.13 14.39,72.34 v 73.75 l -14.39,72.34 -28.23,68.13 v 0 l -40.97,61.33 -52.15,52.15 -30.87,20.62 -30.45,20.35 -68.14,28.23 -72.34,14.38 h -73.75 l -72.33,-14.38 -68.14,-28.23 -30.46,-20.35 -30.87,-20.62 -52.15,-52.15 -40.97,-61.33 v 0 l -28.22,-68.13 -14.39,-72.34 v -73.75 l 14.39,-72.34 28.22,-68.13 40.97,-61.33 v 0 l 52.15,-52.15 61.33,-40.97 v 0 l 68.14,-28.23 72.33,-14.38 h 73.75 z"
       id="path62" />
    <path
       style="fill:#000000;fill-opacity:1;fill-rule:evenodd;stroke:#000000;stroke-width:0;stroke-linecap:round;stroke-linejoin:round;stroke-opacity:1"
       d="m 6016.3,6784.07 68.14,28.23 v 0 l 61.32,40.97 52.15,52.15 v 0 l 40.97,61.33 28.23,68.13 14.39,72.34 v 73.75 l -14.39,72.34 -28.23,68.13 v 0 l -40.97,61.33 -52.15,52.15 -30.87,20.62 -30.45,20.35 -68.14,28.23 -72.34,14.38 h -73.75 l -72.33,-14.38 -68.14,-28.23 -30.46,-20.35 -30.87,-20.62 -52.15,-52.15 -40.97,-61.33 v 0 l -28.22,-68.13 -14.39,-72.34 v -73.75 l 14.39,-72.34 28.22,-68.13 40.97,-61.33 v 0 l 52.15,-52.15 61.33,-40.97 v 0 l 68.14,-28.23 72.33,-14.38 h 73.75 z"
       id="path64" />
    <path
       style="fill:#000000;fill-opacity:1;fill-rule:evenodd;stroke:#000000;stroke-width:0;stroke-linecap:round;stroke-linejoin:round;stroke-opacity:1"
       d="m 7016.3,6784.07 68.14,28.23 v 0 l 61.32,40.97 52.15,52.15 v 0 l 40.97,61.33 28.23,68.13 14.39,72.34 v 73.75 l -14.39,72.34 -28.23,68.13 v 0 l -40.97,61.33 -52.15,52.15 -30.87,20.62 -30.45,20.35 -68.14,28.23 -72.34,14.38 h -73.75 l -72.33,-14.38 -68.14,-28.23 -30.46,-20.35 -30.87,-20.62 -52.15,-52.15 -40.97,-61.33 v 0 l -28.22,-68.13 -14.39,-72.34 v -73.75 l 14.39,-72.34 28.22,-68.13 40.97,-61.33 v 0 l 52.15,-52.15 61.33,-40.97 v 0 l 68.14,-28.23 72.33,-14.38 h 73.75 z"
       id="path66" />
    <path
       style="fill:#000000;fill-opacity:1;fill-rule:evenodd;stroke:#000000;stroke-width:0;stroke-linecap:round;stroke-linejoin:round;stroke-opacity:1"
       d="m 9016.3,6784.07 68.14,28.23 v 0 l 61.32,40.97 52.15,52.15 v 0 l 40.97,61.33 28.23,68.13 14.39,72.34 v 73.75 l -14.39,72.34 -28.23,68.13 v 0 l -40.97,61.33 -52.15,52.15 -30.87,20.62 -30.45,20.35 -68.14,28.23 -72.34,14.38 h -73.75 l -72.33,-14.38 -68.14,-28.23 -30.46,-20.35 -30.87,-20.62 -52.15,-52.15 -40.97,-61.33 v 0 l -28.22,-68.13 -14.39,-72.34 v -73.75 l 14.39,-72.34 28.22,-68.13 40.97,-61.33 v 0 l 52.15,-52.15 61.33,-40.97 v 0 l 68.14,-28.23 72.33,-14.38 h 73.75 z"
       id="path68" />
    <path
       style="fill:#000000;fill-opacity:1;fill-rule:evenodd;stroke:#000000;stroke-width:0;stroke-linecap:round;stroke-linejoin:round;stroke-opacity:1"
       d="m 10016.3,6784.07 68.1,28.23 v 0 l 61.4,40.97 52.1,52.15 v 0 l 41,61.33 28.2,68.13 14.4,72.34 v 73.75 l -14.4,72.34 -28.2,68.13 v 0 l -41,61.33 -52.1,52.15 -30.9,20.62 -30.5,20.35 -68.1,28.23 -72.34,14.38 h -73.75 l -72.33,-14.38 -68.14,-28.23 -30.46,-20.35 -30.87,-20.62 -52.15,-52.15 -40.97,-61.33 v 0 l -28.22,-68.13 -14.39,-72.34 v -73.75 l 14.39,-72.34 28.22,-68.13 40.97,-61.33 v 0 l 52.15,-52.15 61.33,-40.97 v 0 l 68.14,-28.23 72.33,-14.38 h 73.75 z"
       id="path70" />
    <path
       style="fill:#000000;fill-opacity:1;fill-rule:evenodd;stroke:#000000;stroke-width:0;stroke-linecap:round;stroke-linejoin:round;stroke-opacity:1"
       d="m 11016.3,6784.07 68.1,28.23 v 0 l 61.4,40.97 52.1,52.15 v 0 l 41,61.33 28.2,68.13 14.4,72.34 v 73.75 l -14.4,72.34 -28.2,68.13 v 0 l -41,61.33 -52.1,52.15 -30.9,20.62 -30.5,20.35 -68.1,28.23 -72.3,14.38 h -73.8 l -72.3,-14.38 -68.2,-28.23 -30.4,-20.35 -30.9,-20.62 -52.1,-52.15 -41,-61.33 v 0 l -28.2,-68.13 -14.4,-72.34 v -73.75 l 14.4,-72.34 28.2,-68.13 41,-61.33 v 0 l 52.1,-52.15 61.3,-40.97 v 0 l 68.2,-28.23 72.3,-14.38 h 73.8 z"
       id="path72" />
    <path
       style="fill:#000000;fill-opacity:1;fill-rule:evenodd;stroke:#000000;stroke-width:0;stroke-linecap:round;stroke-linejoin:round;stroke-opacity:1"
       d="m 8016.3,6784.07 68.14,28.23 v 0 l 61.32,40.97 52.15,52.15 v 0 l 40.97,61.33 28.23,68.13 14.39,72.34 v 73.75 l -14.39,72.34 -28.23,68.13 v 0 l -40.97,61.33 -52.15,52.15 -30.87,20.62 -30.45,20.35 -68.14,28.23 -72.34,14.38 h -73.75 l -72.33,-14.38 -68.14,-28.23 -30.46,-20.35 -30.87,-20.62 -52.15,-52.15 -40.97,-61.33 v 0 l -28.22,-68.13 -14.39,-72.34 v -73.75 l 14.39,-72.34 28.22,-68.13 40.97,-61.33 v 0 l 52.15,-52.15 61.33,-40.97 v 0 l 68.14,-28.23 72.33,-14.38 h 73.75 z"
       id="path74" />
    <path
       style="fill:#000000;fill-opacity:1;fill-rule:evenodd;stroke:#000000;stroke-width:0;stroke-linecap:round;stroke-linejoin:round;stroke-opacity:1"
       d="m 15951.8,6791.31 58.8,11.69 64.5,26.74 58.1,38.82 49.4,49.41 38.8,58.1 26.8,64.56 13.6,68.53 v 69.87 l -13.6,68.53 -26.8,64.56 -38.8,58.1 -49.4,49.41 -58.1,38.82 -64.5,26.74 -58.8,11.69 -9.8,1.94 h -69.9 l -9.7,-1.94 -58.8,-11.69 -64.5,-26.74 -58.1,-38.82 -49.4,-49.41 -38.9,-58.1 -26.7,-64.56 -13.6,-68.53 v -69.87 l 13.6,-68.53 26.7,-64.56 38.9,-58.1 49.4,-49.41 58.1,-38.82 64.5,-26.74 58.8,-11.69 9.7,-1.94 h 69.9 z"
       id="path76" />
    <path
       style="fill:#000000;fill-opacity:1;fill-rule:evenodd;stroke:#000000;stroke-width:0;stroke-linecap:round;stroke-linejoin:round;stroke-opacity:1"
       d="m 15951.8,5791.31 58.8,11.69 64.5,26.74 58.1,38.82 49.4,49.41 38.8,58.1 26.8,64.56 13.6,68.53 v 69.87 l -13.6,68.53 -26.8,64.56 -38.8,58.1 -49.4,49.41 -58.1,38.82 -64.5,26.74 -58.8,11.69 -9.8,1.94 h -69.9 l -9.7,-1.94 -58.8,-11.69 -64.5,-26.74 -58.1,-38.82 -49.4,-49.41 -38.9,-58.1 -26.7,-64.56 -13.6,-68.53 v -69.87 l 13.6,-68.53 26.7,-64.56 38.9,-58.1 49.4,-49.41 58.1,-38.82 64.5,-26.74 58.8,-11.69 9.7,-1.94 h 69.9 z"
       id="path78" />
    <path
       style="fill:#000000;fill-opacity:1;fill-rule:evenodd;stroke:#000000;stroke-width:0;stroke-linecap:round;stroke-linejoin:round;stroke-opacity:1"
       d="m 9916.3,5076.99 68.14,28.22 v 0 l 61.36,40.98 52.1,52.15 v 0 l 41,61.32 28.2,68.14 14.4,72.33 v 73.76 l -14.4,72.33 -28.2,68.14 v 0 l -41,61.32 -52.1,52.15 -30.9,20.63 -30.46,20.35 -68.14,28.22 -72.34,14.39 h -73.75 l -72.33,-14.39 -68.14,-28.22 -30.46,-20.35 -30.87,-20.63 -52.15,-52.15 -40.97,-61.32 v 0 l -28.22,-68.14 -14.39,-72.33 v -73.76 l 14.39,-72.33 28.22,-68.14 40.97,-61.32 v 0 l 52.15,-52.15 61.33,-40.98 v 0 l 68.14,-28.22 72.33,-14.39 h 73.75 z"
       id="path80" />
    <path
       style="fill:#000000;fill-opacity:1;fill-rule:evenodd;stroke:#000000;stroke-width:0;stroke-linecap:round;stroke-linejoin:round;stroke-opacity:1"
       d="m 8916.3,5076.99 68.14,28.22 v 0 l 61.32,40.98 52.15,52.15 v 0 l 40.97,61.32 28.23,68.14 14.39,72.33 v 73.76 l -14.39,72.33 -28.23,68.14 v 0 l -40.97,61.32 -52.15,52.15 -30.87,20.63 -30.45,20.35 -68.14,28.22 -72.34,14.39 h -73.75 l -72.33,-14.39 -68.14,-28.22 -30.46,-20.35 -30.87,-20.63 -52.15,-52.15 -40.97,-61.32 v 0 l -28.22,-68.14 -14.39,-72.33 v -73.76 l 14.39,-72.33 28.22,-68.14 40.97,-61.32 v 0 l 52.15,-52.15 61.33,-40.98 v 0 l 68.14,-28.22 72.33,-14.39 h 73.75 z"
       id="path82" />
    <path
       style="fill:#000000;fill-opacity:1;fill-rule:evenodd;stroke:#000000;stroke-width:0;stroke-linecap:round;stroke-linejoin:round;stroke-opacity:1"
       d="m 7916.3,5076.99 68.14,28.22 v 0 l 61.32,40.98 52.15,52.15 v 0 l 40.97,61.32 28.23,68.14 14.39,72.33 v 73.76 l -14.39,72.33 -28.23,68.14 v 0 l -40.97,61.32 -52.15,52.15 -30.87,20.63 -30.45,20.35 -68.14,28.22 -72.34,14.39 h -73.75 l -72.33,-14.39 -68.14,-28.22 -30.46,-20.35 -30.87,-20.63 -52.15,-52.15 -40.97,-61.32 v 0 l -28.22,-68.14 -14.39,-72.33 v -73.76 l 14.39,-72.33 28.22,-68.14 40.97,-61.32 v 0 l 52.15,-52.15 61.33,-40.98 v 0 l 68.14,-28.22 72.33,-14.39 h 73.75 z"
       id="path84" />
    <path
       style="fill:#000000;fill-opacity:1;fill-rule:evenodd;stroke:#000000;stroke-width:0;stroke-linecap:round;stroke-linejoin:round;stroke-opacity:1"
       d="m 6916.3,5076.99 68.14,28.22 v 0 l 61.32,40.98 52.15,52.15 v 0 l 40.97,61.32 28.23,68.14 14.39,72.33 v 73.76 l -14.39,72.33 -28.23,68.14 v 0 l -40.97,61.32 -52.15,52.15 -30.87,20.63 -30.45,20.35 -68.14,28.22 -72.34,14.39 h -73.75 l -72.33,-14.39 -68.14,-28.22 -30.46,-20.35 -30.87,-20.63 -52.15,-52.15 -40.97,-61.32 v 0 l -28.22,-68.14 -14.39,-72.33 v -73.76 l 14.39,-72.33 28.22,-68.14 40.97,-61.32 v 0 l 52.15,-52.15 61.33,-40.98 v 0 l 68.14,-28.22 72.33,-14.39 h 73.75 z"
       id="path86" />
    <path
       style="fill:#000000;fill-opacity:1;fill-rule:evenodd;stroke:#000000;stroke-width:0;stroke-linecap:round;stroke-linejoin:round;stroke-opacity:1"
       d="m 16261.8,5498.82 h -709.4 v -709.45 h 709.4 z"
       id="path88" />
    <path
       style="fill:#000000;fill-opacity:1;fill-rule:evenodd;stroke:#000000;stroke-width:0;stroke-linecap:round;stroke-linejoin:round;stroke-opacity:1"
       d="m 14013.4,1829.54 182.8,75.71 v 0 l 164.5,109.91 139.9,139.89 109.9,164.5 v 0 l 75.7,182.77 38.6,194.04 v 197.83 l -38.6,194.04 -75.7,182.77 v 0.01 l -109.9,164.49 -139.9,139.89 -164.5,109.91 v 0 0 l -182.8,75.71 -194,38.6 h -197.8 l -194.1,-38.6 -182.8,-75.71 v 0 0 l -164.5,-109.91 -139.8,-139.89 -110,-164.49 V 3271 l -75.7,-182.77 -38.6,-194.04 v -197.83 l 38.6,-194.04 75.7,-182.77 v 0 l 110,-164.5 139.8,-139.89 164.5,-109.91 v 0 l 182.8,-75.71 194.1,-38.59 h 197.8 z"
       id="path90" />
    <path
       style="fill:#000000;fill-opacity:1;fill-rule:evenodd;stroke:#000000;stroke-width:0;stroke-linecap:round;stroke-linejoin:round;stroke-opacity:1"
       d="m 3186.65,1829.54 182.78,75.71 v 0 l 164.49,109.91 139.9,139.89 109.91,164.5 v 0 l 75.71,182.77 38.59,194.04 v 197.83 l -38.59,194.04 -75.71,182.77 v 0.01 l -109.91,164.49 -139.9,139.89 -164.49,109.91 v 0 0 l -182.78,75.71 -194.03,38.6 h -197.84 l -194.03,-38.6 -182.78,-75.71 v 0 0 L 2253.48,3575.39 2113.59,3435.5 2003.67,3271.01 V 3271 l -75.7,-182.77 -38.6,-194.04 v -197.83 l 38.6,-194.04 75.7,-182.77 v 0 l 109.92,-164.5 139.89,-139.89 164.49,-109.91 v 0 l 182.78,-75.71 194.03,-38.59 h 197.84 z"
       id="path92" />
    <g
       id="g98">
      <path
         style="fill:#000000;fill-opacity:1;fill-rule:evenodd;stroke:#000000;stroke-width:0;stroke-linecap:round;stroke-linejoin:round;stroke-opacity:1"
         d="m 8295.87,19434.1 v -630 h 858.26 v 630 z"
         id="path94" />
      <path
         style="fill:#000000;fill-opacity:1;fill-rule:evenodd;stroke:#000000;stroke-width:0;stroke-linecap:round;stroke-linejoin:round;stroke-opacity:1"
         d="m 11910,19434.1 v -630 h 858.3 v 630 z"
         id="path96" />
    </g>
    <g
       style="fill:#000000;fill-opacity:1;stroke:#000000;stroke-width:0;stroke-linecap:round;stroke-linejoin:round;stroke-opacity:1"
       id="g110">
      <path
         style="fill:#000000;fill-opacity:1;fill-rule:evenodd;stroke:#000000;stroke-width:0;stroke-linecap:round;stroke-linejoin:round;stroke-opacity:1"
         d="m 4162.01,21594.3 v -590.6 h 866.14 v 590.6 z"
         id="path102" />
      <path
         style="fill:#000000;fill-opacity:1;fill-rule:evenodd;stroke:#000000;stroke-width:0;stroke-linecap:round;stroke-linejoin:round;stroke-opacity:1"
         d="m 4162.01,20334.4 v -590.5 h 866.14 v 590.5 z"
         id="path104" />
      <path
         style="fill:#000000;fill-opacity:1;fill-rule:evenodd;stroke:#000000;stroke-width:0;stroke-linecap:round;stroke-linejoin:round;stroke-opacity:1"
         d="m 2036.02,21594.3 v -590.6 h 866.15 v 590.6 z"
         id="path106" />
      <path
         style="fill:#000000;fill-opacity:1;fill-rule:evenodd;stroke:#000000;stroke-width:0;stroke-linecap:round;stroke-linejoin:round;stroke-opacity:1"
         d="m 2036.02,20334.4 v -590.5 h 866.15 v 590.5 z"
         id="path108" />
    </g>
    <g
       style="fill:#000000;fill-opacity:1;stroke:#000000;stroke-width:0;stroke-linecap:round;stroke-linejoin:round;stroke-opacity:1"
       id="g124">
      <path
         style="fill:#000000;fill-opacity:1;fill-rule:evenodd;stroke:#000000;stroke-width:0;stroke-linecap:round;stroke-linejoin:round;stroke-opacity:1"
         d="m 10745.9,20950.4 v -629.9 h 858.2 v 629.9 z"
         id="path120" />
      <path
         style="fill:#000000;fill-opacity:1;fill-rule:evenodd;stroke:#000000;stroke-width:0;stroke-linecap:round;stroke-linejoin:round;stroke-opacity:1"
         d="m 14360,20950.4 v -629.9 h 858.3 v 629.9 z"
         id="path122" />
    </g>
    <g
       style="fill:#000000;fill-opacity:1;stroke:#000000;stroke-width:0;stroke-linecap:round;stroke-linejoin:round;stroke-opacity:1"
       id="g136">
      <path
         style="fill:#000000;fill-opacity:1;fill-rule:evenodd;stroke:#000000;stroke-width:0;stroke-linecap:round;stroke-linejoin:round;stroke-opacity:1"
         d="m 5820.87,20950.4 v -629.9 h 858.26 v 629.9 z"
         id="path132" />
      <path
         style="fill:#000000;fill-opacity:1;fill-rule:evenodd;stroke:#000000;stroke-width:0;stroke-linecap:round;stroke-linejoin:round;stroke-opacity:1"
         d="m 9435.04,20950.4 v -629.9 h 858.26 v 629.9 z"
         id="path134" />
    </g>
    <g
       style="fill:#000000;fill-opacity:1;stroke:#000000;stroke-width:0;stroke-linecap:round;stroke-linejoin:round;stroke-opacity:1"
       id="g144">
      <path
         style="fill:#000000;fill-opacity:1;fill-rule:evenodd;stroke:#000000;stroke-width:0;stroke-linecap:round;stroke-linejoin:round;stroke-opacity:1"
         d="m 8295.87,22459.1 v -630 h 858.26 v 630 z"
         id="path140" />
      <path
         style="fill:#000000;fill-opacity:1;fill-rule:evenodd;stroke:#000000;stroke-width:0;stroke-linecap:round;stroke-linejoin:round;stroke-opacity:1"
         d="m 11910,22459.1 v -630 h 858.3 v 630 z"
         id="path142" />
    </g>
  </g>
  <g
     style="display:inline;fill:#000000;fill-opacity:0;stroke:#000000;stroke-width:47.2441;stroke-linecap:round;stroke-linejoin:round;stroke-opacity:1"
     id="g190"
     inkscape:label="switches">
    <path
       d="m 9327,18405.907 2409,0.09"
       id="path180"
       sodipodi:nodetypes="cc" />
    <path
       d="m 11736,18406 v 1425"
       id="path182" />
    <path
       d="m 11736,19831 -2409,0.104"
       id="path184"
       sodipodi:nodetypes="cc" />
    <path
       d="m 9327.166,19831 0,-1425"
       id="path186"
       sodipodi:nodetypes="cc" />
    <path
       d="M 9327,22855.907 V 21431.104"
       id="path240"
       style="display:inline;fill:#000000;fill-opacity:0;stroke:#000000;stroke-width:47.2441;stroke-linecap:round;stroke-linejoin:round;stroke-opacity:1"
       sodipodi:nodetypes="cc" />
    <path
       d="m 9327,21431 h 2409"
       id="path234"
       style="display:inline;fill:#000000;fill-opacity:0;stroke:#000000;stroke-width:47.2441;stroke-linecap:round;stroke-linejoin:round;stroke-opacity:1" />
    <path
       d="m 11736,21431 v 1425"
       id="path236"
       style="display:inline;fill:#000000;fill-opacity:0;stroke:#000000;stroke-width:47.2441;stroke-linecap:round;stroke-linejoin:round;stroke-opacity:1" />
    <path
       d="M 11736,22856 H 9327"
       id="path238"
       style="display:inline;fill:#000000;fill-opacity:0;stroke:#000000;stroke-width:47.2441;stroke-linecap:round;stroke-linejoin:round;stroke-opacity:1" />
    <path
       d="M 6852,19922 H 9261"
       id="path226"
       style="display:inline;fill:#000000;fill-opacity:0;stroke:#000000;stroke-width:47.2441;stroke-linecap:round;stroke-linejoin:round;stroke-opacity:1" />
    <path
       d="m 9261,19922 v 1426"
       id="path228"
       style="display:inline;fill:#000000;fill-opacity:0;stroke:#000000;stroke-width:47.2441;stroke-linecap:round;stroke-linejoin:round;stroke-opacity:1" />
    <path
       d="M 9261,21348 H 6852"
       id="path230"
       style="display:inline;fill:#000000;fill-opacity:0;stroke:#000000;stroke-width:47.2441;stroke-linecap:round;stroke-linejoin:round;stroke-opacity:1" />
    <path
       d="m 6852,21348 -0.031,-1426"
       id="path232"
       style="display:inline;fill:#000000;fill-opacity:0;stroke:#000000;stroke-width:47.2441;stroke-linecap:round;stroke-linejoin:round;stroke-opacity:1"
       sodipodi:nodetypes="cc" />
    <path
       d="m 11777,19922 h 2409"
       id="path218"
       style="display:inline;fill:#000000;fill-opacity:0;stroke:#000000;stroke-width:47.2441;stroke-linecap:round;stroke-linejoin:round;stroke-opacity:1" />
    <path
       d="m 14186,19922 v 1426"
       id="path220"
       style="display:inline;fill:#000000;fill-opacity:0;stroke:#000000;stroke-width:47.2441;stroke-linecap:round;stroke-linejoin:round;stroke-opacity:1" />
    <path
       d="m 14186,21348 -2409,0.03"
       id="path222"
       style="display:inline;fill:#000000;fill-opacity:0;stroke:#000000;stroke-width:47.2441;stroke-linecap:round;stroke-linejoin:round;stroke-opacity:1"
       sodipodi:nodetypes="cc" />
    <path
       d="m 11777,21348 0.166,-1425.951"
       id="path224"
       style="display:inline;fill:#000000;fill-opacity:0;stroke:#000000;stroke-width:47.2441;stroke-linecap:round;stroke-linejoin:round;stroke-opacity:1"
       sodipodi:nodetypes="cc" />
  </g>
  <g
     style="display:none;fill:#000000;fill-opacity:0;stroke:#000000;stroke-width:39.3701;stroke-linecap:round;stroke-linejoin:round;stroke-opacity:1"
     id="g200"
     inkscape:label="led">
    <path
       d="m 2547,19684 v 1969"
       id="path192" />
    <path
       d="M 2547,21653 H 4516"
       id="path194" />
    <path
       d="M 4516,21653 V 19684"
       id="path196" />
    <path
       d="M 4516,19684 H 2547"
       id="path198" />
    <path
       d="m 4507,20709 -935,935"
       id="path188"
       style="display:inline;fill:#000000;fill-opacity:0;stroke:#000000;stroke-width:47.2441;stroke-linecap:round;stroke-linejoin:round;stroke-opacity:1" />
  </g>
  <g
     style="display:inline;fill:#000000;fill-opacity:0;stroke:#000000;stroke-width:47.2441;stroke-linecap:round;stroke-linejoin:round;stroke-opacity:1"
     id="g244"
     inkscape:label="screen-and-back-header">
    <path
       d="m 16407,4644 23,8023"
       id="path202" />
    <path
       d="m 15407,4644 -24,8023"
       id="path204" />
    <path
       d="m 15383,12667 h 1047"
       id="path206" />
    <path
       d="M 16407,4644 H 15407"
       id="path208" />
    <path
       d="M 15275,17838 V 4649"
       id="path210" />
    <path
       d="M 1338,4649 H 15275"
       id="path212" />
    <path
       d="M 1338,17838.19 15275,17838"
       id="path214"
       sodipodi:nodetypes="cc" />
    <path
       d="M 1338,4649 V 17838"
       id="path216" />
  </g>
  <metadata
     id="metadata443">
    <rdf:RDF>
      <cc:Work
         rdf:about="">
        <dc:title>SVG Picture created as Nugget-PCB-brd.svg date 2021/10/04 04:22:48 </dc:title>
      </cc:Work>
    </rdf:RDF>
  </metadata>
  <g
     style="display:none;fill:#000000;fill-opacity:0;stroke:#000000;stroke-width:78.7402;stroke-linecap:round;stroke-linejoin:round;stroke-opacity:1"
     id="g312"
     inkscape:label="outline">
    <path
       style="display:inline;fill:#0000ff;fill-opacity:1;stroke:none;stroke-width:39.3701;stroke-linecap:round;stroke-linejoin:round"
       d="M 2892.9136,38.976381 38.976381,4370.0791 V 20118.112 L 3307.0869,23266.931 H 13307.088 l 3266.929,-3148.819 V 4370.0791 L 13720.08,38.976381 10866.143,4370.0791 H 5748.0319 Z"
       id="path13419"
       sodipodi:nodetypes="ccccccccccc"
       inkscape:label="original-outline-object" />
    <path
       id="path266"
       d="M 39,4370 2892.9136,39 m 0,-0.02362 L 5748.0315,4370 m 4e-4,0 h 5118.1101 m 0,0 2853.936,-4331 m 0,0 2853.919,4331 m 0.02,0 -0.02,15748 m 0.02,0 L 13307,23267 m 0.09,-0.07 H 3307 m 0.087,0 L 39,20118 m -0.02362,0.112 L 39,4370.0791"
       style="display:none"
       sodipodi:nodetypes="cccccccccccccccccccc"
       inkscape:label="original-outline-lines" />
  </g>
  <g
     id="g2041"
     inkscape:label="pcb-cutout">
    <path
       style="display:none;fill:none;fill-opacity:1;stroke:#00ff00;stroke-width:39.3701;stroke-linecap:round;stroke-linejoin:round;stroke-opacity:1"
       d="M 13720.08,-139.9043 10813.129,4271.6523 H 5801.0352 L 2892.8965,-139.87891 -59.449219,4340.5664 V 20159.955 L 3267.3848,23365.357 H 13346.799 l 3325.644,-3205.412 V 4340.5664 Z"
       id="path13419-2"
       sodipodi:nodetypes="ccccccccccc"
       inkscape:label="pcb-cutout-with-effect"
       inkscape:path-effect="#path-effect2036"
       inkscape:original-d="M 2892.9136,38.976216 38.976381,4370.0789 V 20118.112 L 3307.0869,23266.931 H 13307.088 l 3266.929,-3148.819 V 4370.0789 L 13720.08,38.976216 10866.143,4370.0789 H 5748.0319 Z" />
    <path
       style="display:inline;fill:none;fill-opacity:1;stroke:#00ff00;stroke-width:39.3701;stroke-linecap:round;stroke-linejoin:round;stroke-opacity:1"
       d="M 13720.08,-139.76379 10812.993,4271.6523 H 5801.1815 L 2892.9136,-139.76379 -59.448823,4340.5515 l 0,15819.2925 3326.771923,3205.512 H 13346.851 l 3325.591,-3205.512 0,-15819.2925 z"
       id="path13419-6"
       sodipodi:nodetypes="ccccccccccc"
       inkscape:label="pcb-cutout-object" />
  </g>
  <g
     id="g1645"
     inkscape:label="case-outline">
    <path
       style="display:none;fill:none;fill-opacity:1;stroke:#00ffff;stroke-width:39.3701;stroke-linecap:round;stroke-linejoin:round;stroke-opacity:1"
       d="M 13720.08,-4433.0605 9540.7441,1909.4473 H 7073.127 L 2892.4902,-4432.416 -2421.6543,3632.2637 V 21164.234 l 4736.2031,4563.328 H 14299.883 l 4734.765,-4563.589 V 3632.2637 Z"
       id="path13419-7"
       sodipodi:nodetypes="ccccccccccc"
       inkscape:label="case-outline-with-effect"
       inkscape:original-d="M 2892.9136,38.976216 38.976381,4370.0789 V 20118.112 L 3307.0869,23266.931 H 13307.088 l 3266.929,-3148.819 V 4370.0789 L 13720.08,38.976216 10866.143,4370.0789 H 5748.0319 Z"
       inkscape:path-effect="#path-effect1530" />
    <path
       style="display:inline;fill:none;fill-opacity:1;stroke:#00ffff;stroke-width:39.3701;stroke-linecap:round;stroke-linejoin:round;stroke-opacity:1"
       d="M 13720.08,-4433.0712 9540.5519,1909.449 h -2467.323 l -4180.7387,-6341.7311 -5314.1439,8064.5675 0,17531.8916 4736.2208,4563.386 H 14300.001 l 4734.646,-4563.78 V 3632.2854 Z"
       id="path1971"
       sodipodi:nodetypes="ccccccccccc"
       inkscape:label="case-outline-object" />
  </g>
</svg>
