<?xml version="1.0" standalone="no"?>
<!DOCTYPE svg PUBLIC "-//W3C//DTD SVG 1.1//EN" "http://www.w3.org/Graphics/SVG/1.1/DTD/svg11.dtd">
<svg width="249mm" height="68mm" viewBox="-53 -65 249 68" xmlns="http://www.w3.org/2000/svg" version="1.1">
<title>OpenSCAD Model</title>
<path d="
M -4.90201,-6.72299 L -4.90201,-48.898 L -15.151,-64.451 L -24.016,-50.998 L -33.784,-50.998 L -42.652,-64.451
 L -52.901,-48.898 L -52.901,-36.1 L -50.401,-36.1 L -50.401,-48.498 L -42.652,-59.908 L -35.131,-48.498
 L -22.669,-48.498 L -15.151,-59.908 L -7.40201,-48.498 L -7.40201,-7.78499 L -15.998,0.5 L -41.802,0.5
 L -50.401,-7.78499 L -50.401,-23.3 L -52.901,-23.3 L -52.901,-6.72299 L -42.81,3 L -14.99,3
 z
M 195.098,-6.72299 L 195.098,-48.898 L 184.849,-64.451 L 175.984,-50.998 L 166.216,-50.998 L 157.348,-64.451
 L 147.099,-48.898 L 147.099,-6.72299 L 157.19,3 L 185.01,3 z
M 157.041,-51.0469 L 156.762,-51.189 L 156.541,-51.4102 L 156.399,-51.689 L 156.35,-51.998 L 156.399,-52.307
 L 156.541,-52.5858 L 156.762,-52.807 L 157.041,-52.9491 L 157.35,-52.998 L 157.659,-52.9491 L 157.938,-52.807
 L 158.159,-52.5858 L 158.301,-52.307 L 158.35,-51.998 L 158.301,-51.689 L 158.159,-51.4102 L 157.938,-51.189
 L 157.659,-51.0469 L 157.35,-50.998 z
M 184.541,-51.0469 L 184.262,-51.189 L 184.041,-51.4102 L 183.899,-51.689 L 183.85,-51.998 L 183.899,-52.307
 L 184.041,-52.5858 L 184.262,-52.807 L 184.541,-52.9491 L 184.85,-52.998 L 185.159,-52.9491 L 185.438,-52.807
 L 185.659,-52.5858 L 185.801,-52.307 L 185.85,-51.998 L 185.801,-51.689 L 185.659,-51.4102 L 185.438,-51.189
 L 185.159,-51.0469 L 184.85,-50.998 z
M 158.198,0.5 L 149.599,-7.78499 L 149.599,-9.15099 L 153.599,-9.15099 L 153.599,-12.151 L 149.599,-12.151
 L 149.599,-48.498 L 192.598,-48.498 L 192.598,-12.151 L 188.598,-12.151 L 188.598,-9.15099 L 192.598,-9.15099
 L 192.598,-7.78499 L 184.002,0.5 z
M 45.098,-6.72299 L 45.098,-48.898 L 34.849,-64.451 L 25.984,-50.998 L 16.216,-50.998 L 7.34799,-64.451
 L -2.90099,-48.898 L -2.90099,-36.1 L -0.400986,-36.1 L -0.400986,-48.498 L 42.598,-48.498 L 42.598,-7.78499
 L 36.0771,-1.5 L 6.12219,-1.5 L -0.400986,-7.78499 L -0.400986,-23.3 L -2.90099,-23.3 L -2.90099,-6.72299
 L 7.18999,3 L 35.01,3 z
M 34.541,-51.0469 L 34.2622,-51.189 L 34.041,-51.4102 L 33.8989,-51.689 L 33.85,-51.998 L 33.8989,-52.307
 L 34.041,-52.5858 L 34.2622,-52.807 L 34.541,-52.9491 L 34.85,-52.998 L 35.159,-52.9491 L 35.4378,-52.807
 L 35.659,-52.5858 L 35.8011,-52.307 L 35.85,-51.998 L 35.8011,-51.689 L 35.659,-51.4102 L 35.4378,-51.189
 L 35.159,-51.0469 L 34.85,-50.998 z
M 7.04097,-51.0469 L 6.76221,-51.189 L 6.54097,-51.4102 L 6.39894,-51.689 L 6.34999,-51.998 L 6.39894,-52.307
 L 6.54097,-52.5858 L 6.76221,-52.807 L 7.04097,-52.9491 L 7.34999,-52.998 L 7.65901,-52.9491 L 7.93777,-52.807
 L 8.15901,-52.5858 L 8.30106,-52.307 L 8.34999,-51.998 L 8.30106,-51.689 L 8.15901,-51.4102 L 7.93777,-51.189
 L 7.65901,-51.0469 L 7.34999,-50.998 z
M 145.098,-6.72299 L 145.098,-48.898 L 134.849,-64.451 L 125.984,-50.998 L 116.216,-50.998 L 107.348,-64.451
 L 97.099,-48.898 L 97.099,-6.72299 L 107.19,3 L 135.01,3 z
M 134.541,-51.0469 L 134.262,-51.189 L 134.041,-51.4102 L 133.899,-51.689 L 133.85,-51.998 L 133.899,-52.307
 L 134.041,-52.5858 L 134.262,-52.807 L 134.541,-52.9491 L 134.85,-52.998 L 135.159,-52.9491 L 135.438,-52.807
 L 135.659,-52.5858 L 135.801,-52.307 L 135.85,-51.998 L 135.801,-51.689 L 135.659,-51.4102 L 135.438,-51.189
 L 135.159,-51.0469 L 134.85,-50.998 z
M 107.041,-51.0469 L 106.762,-51.189 L 106.541,-51.4102 L 106.399,-51.689 L 106.35,-51.998 L 106.399,-52.307
 L 106.541,-52.5858 L 106.762,-52.807 L 107.041,-52.9491 L 107.35,-52.998 L 107.659,-52.9491 L 107.938,-52.807
 L 108.159,-52.5858 L 108.301,-52.307 L 108.35,-51.998 L 108.301,-51.689 L 108.159,-51.4102 L 107.938,-51.189
 L 107.659,-51.0469 L 107.35,-50.998 z
M 102.589,-12.98 L 102.589,-48.1 L 139.609,-48.1 L 139.609,-12.98 z
M 126.596,-10.1825 L 126.457,-10.2535 L 126.346,-10.3641 L 126.275,-10.5035 L 126.251,-10.658 L 126.275,-10.8125
 L 126.346,-10.9519 L 126.457,-11.0625 L 126.596,-11.1335 L 126.751,-11.158 L 126.905,-11.1335 L 127.044,-11.0625
 L 127.155,-10.9519 L 127.226,-10.8125 L 127.251,-10.658 L 127.226,-10.5035 L 127.155,-10.3641 L 127.044,-10.2535
 L 126.905,-10.1825 L 126.751,-10.158 z
M 105.419,-3.04999 L 105.419,-10.151 L 112.52,-10.151 L 112.52,-3.04999 z
M 132.819,-6.32947 L 132.68,-6.40048 L 132.569,-6.51109 L 132.498,-6.65048 L 132.473,-6.80499 L 132.498,-6.9595
 L 132.569,-7.09889 L 132.68,-7.2095 L 132.819,-7.28052 L 132.973,-7.30499 L 133.128,-7.28052 L 133.267,-7.2095
 L 133.378,-7.09889 L 133.449,-6.9595 L 133.473,-6.80499 L 133.449,-6.65048 L 133.378,-6.51109 L 133.267,-6.40048
 L 133.128,-6.32947 L 132.973,-6.30499 z
M 120.309,-6.32947 L 120.17,-6.40048 L 120.059,-6.51109 L 119.988,-6.65048 L 119.964,-6.80499 L 119.988,-6.9595
 L 120.059,-7.09889 L 120.17,-7.2095 L 120.309,-7.28052 L 120.464,-7.30499 L 120.618,-7.28052 L 120.757,-7.2095
 L 120.868,-7.09889 L 120.939,-6.9595 L 120.964,-6.80499 L 120.939,-6.65048 L 120.868,-6.51109 L 120.757,-6.40048
 L 120.618,-6.32947 L 120.464,-6.30499 z
M 126.596,-2.49947 L 126.457,-2.57048 L 126.346,-2.68111 L 126.275,-2.82048 L 126.251,-2.97499 L 126.275,-3.1295
 L 126.346,-3.26889 L 126.457,-3.3795 L 126.596,-3.45052 L 126.751,-3.47499 L 126.905,-3.45052 L 127.044,-3.3795
 L 127.155,-3.26889 L 127.226,-3.1295 L 127.251,-2.97499 L 127.226,-2.82048 L 127.155,-2.68111 L 127.044,-2.57048
 L 126.905,-2.49947 L 126.751,-2.47499 z
M 95.098,-48.898 L 84.849,-64.451 L 75.984,-50.998 L 66.216,-50.998 L 57.348,-64.451 L 47.099,-48.898
 L 47.099,-12.73 L 95.098,-12.73 z
M 84.541,-51.0469 L 84.2622,-51.189 L 84.041,-51.4102 L 83.8989,-51.689 L 83.85,-51.998 L 83.8989,-52.307
 L 84.041,-52.5858 L 84.2622,-52.807 L 84.541,-52.9491 L 84.85,-52.998 L 85.159,-52.9491 L 85.4378,-52.807
 L 85.659,-52.5858 L 85.8011,-52.307 L 85.85,-51.998 L 85.8011,-51.689 L 85.659,-51.4102 L 85.4378,-51.189
 L 85.159,-51.0469 L 84.85,-50.998 z
M 57.041,-51.0469 L 56.7622,-51.189 L 56.541,-51.4102 L 56.3989,-51.689 L 56.35,-51.998 L 56.3989,-52.307
 L 56.541,-52.5858 L 56.7622,-52.807 L 57.041,-52.9491 L 57.35,-52.998 L 57.659,-52.9491 L 57.9378,-52.807
 L 58.159,-52.5858 L 58.3011,-52.307 L 58.35,-51.998 L 58.3011,-51.689 L 58.159,-51.4102 L 57.9378,-51.189
 L 57.659,-51.0469 L 57.35,-50.998 z
" stroke="black" fill="lightgray" stroke-width="0.5"/>
</svg>
