<?xml version="1.0" encoding="UTF-8" standalone="no"?>
<svg
   xmlns:dc="http://purl.org/dc/elements/1.1/"
   xmlns:cc="http://creativecommons.org/ns#"
   xmlns:rdf="http://www.w3.org/1999/02/22-rdf-syntax-ns#"
   xmlns:svg="http://www.w3.org/2000/svg"
   xmlns="http://www.w3.org/2000/svg"
   xmlns:sodipodi="http://sodipodi.sourceforge.net/DTD/sodipodi-0.dtd"
   xmlns:inkscape="http://www.inkscape.org/namespaces/inkscape"
   width="118mm"
   height="68mm"
   viewBox="-47 -59 118 68"
   version="1.1"
   id="svg6"
   sodipodi:docname="display-stand-2.svg"
   inkscape:version="0.92.3 (2405546, 2018-03-11)">
  <metadata
     id="metadata12">
    <rdf:RDF>
      <cc:Work
         rdf:about="">
        <dc:format>image/svg+xml</dc:format>
        <dc:type
           rdf:resource="http://purl.org/dc/dcmitype/StillImage" />
      </cc:Work>
    </rdf:RDF>
  </metadata>
  <defs
     id="defs10" />
  <sodipodi:namedview
     pagecolor="#ffffff"
     bordercolor="#666666"
     borderopacity="1"
     objecttolerance="10"
     gridtolerance="10"
     guidetolerance="10"
     inkscape:pageopacity="0"
     inkscape:pageshadow="2"
     inkscape:window-width="1695"
     inkscape:window-height="897"
     id="namedview8"
     showgrid="false"
     inkscape:zoom="1.3220339"
     inkscape:cx="137.13519"
     inkscape:cy="78.61529"
     inkscape:window-x="0"
     inkscape:window-y="27"
     inkscape:window-maximized="0"
     inkscape:current-layer="svg6" />
  <title
     id="title2">OpenSCAD Model</title>
  <path
     d="M 14,-59 H 0 v 6 h 7 v 3 H 0 V 0 H 7 V 3 H 0 v 6 h 14 z"
     id="path832"
     style="stroke:#000000;stroke-opacity:1;stroke-width:0.26458333;stroke-miterlimit:4;stroke-dasharray:none;fill:none" />
  <path
     d="m 30,-59 h -9 v 3 h -3 v 3 h 7 v 3 h -4 v 7.1429 h -3 v 7.1428 h 3 v 7.1429 h -3 v 7.1428 h 3 v 7.1429 h -3 v 7.14285 h 3 V 0 h 4 v 3 h -7 v 3 h 3 v 3 h 9 z"
     id="path830"
     style="fill:none;stroke:#000000;stroke-opacity:1;stroke-width:0.26458333;stroke-miterlimit:4;stroke-dasharray:none" />
  <path
     d="M 70.75,-59 H 34 v 6 h 15 v 3 H 34 V 0 H 49 V 3 H 34 v 6 h 36.75 z"
     id="path828"
     style="fill:none;stroke:#000000;stroke-opacity:1;stroke-width:0.26458333;stroke-miterlimit:4;stroke-dasharray:none" />
  <path
     d="m 61,-53 v -3 h 3 v 3 z"
     id="path826"
     style="fill:none;stroke:#000000;stroke-opacity:1;stroke-width:0.26458333;stroke-miterlimit:4;stroke-dasharray:none" />
  <path
     d="m 61,-35.7143 v -7.1428 h 3 v 7.1428 z"
     id="path824"
     style="fill:none;stroke:#000000;stroke-opacity:1;stroke-width:0.26458333;stroke-miterlimit:4;stroke-dasharray:none" />
  <path
     d="m 61,-21.4286 v -7.1428 h 3 v 7.1428 z"
     id="path822"
     style="fill:none;stroke:#000000;stroke-opacity:1;stroke-width:0.26458333;stroke-miterlimit:4;stroke-dasharray:none" />
  <path
     d="m 61,-7.14285 v -7.14285 h 3 v 7.14285 z"
     id="path820"
     style="fill:none;stroke:#000000;stroke-opacity:1;stroke-width:0.26458333;stroke-miterlimit:4;stroke-dasharray:none" />
  <path
     d="M 61,6 V 3 h 3 v 3 z"
     id="path818"
     style="fill:none;stroke:#000000;stroke-opacity:1;stroke-width:0.26458333;stroke-miterlimit:4;stroke-dasharray:none" />
  <path
     d="m -4,-40 h -6 v 7 h -3 v -7 h -6 l -18,24 v 9 h -3 v -5 l -6.75,9 H -25 V 0 H -46.75 V 6 H -4 Z"
     id="path4"
     style="fill:none;stroke:#000000;stroke-opacity:1;stroke-width:0.26458333;stroke-miterlimit:4;stroke-dasharray:none" />
</svg>
